<svg xmlns="http://www.w3.org/2000/svg" viewBox="0 0 330.66 271.46"><defs><style>.cls-1{fill:#f2b446;}.cls-2{fill:#b7632a;}.cls-3{opacity:0.22;}.cls-4{fill:#cc6e2e;}.cls-5{fill:#fff;}.cls-6{fill:#6d3b19;}.cls-7{opacity:0.37;}.cls-8{fill:#e4e5e2;}.cls-9{fill:#a85e5e;}</style></defs><g id="Camada_2" data-name="Camada 2"><g id="Layer_1" data-name="Layer 1"><path class="cls-1" d="M324.38,22.25c-1.13-8.37-9.25-12.85-17.62-11.72S291,19.71,293.64,27.75,302.48,42,310.85,40.87,325.51,30.63,324.38,22.25Z"/><path class="cls-2" d="M277.21,151.83,261.8,125.57a77.72,77.72,0,0,0,33.9-93.11l28.68-10.21A108.17,108.17,0,0,1,277.21,151.83Z"/><path class="cls-2" d="M81.06,210.37l6.06,22.95C-11.29,260.94-35.23,183,61.7,150.6q3.94,11.21,7.88,22.4C10,192.93,20.52,227.35,81.06,210.37Z"/><path class="cls-1" d="M98.52,220.09a15.31,15.31,0,0,1-10.14,19.13c-4.6,1.41-9.4-.49-13.1-3l-5.44-23.16c1.88-2.9,6-2,9.55-3.1A15.31,15.31,0,0,1,98.52,220.09Z"/><path class="cls-1" d="M275.82,111.48c.11.7.23,1.41.33,2.12L49.81,151.67c-.13-.71-.26-1.41-.37-2.12a114.78,114.78,0,1,1,226.38-38.07Z"/><ellipse class="cls-3" cx="185.26" cy="261.12" rx="115.94" ry="10.34"/><rect class="cls-1" x="111.43" y="206.26" width="30.61" height="58.29" rx="12.02"/><rect class="cls-1" x="215.97" y="205.52" width="30.61" height="58.29" rx="12.02"/><path class="cls-4" d="M276.17,113.59,281,142a70.48,70.48,0,0,1,.87,7.83,68.89,68.89,0,0,1-.55,13,67.92,67.92,0,0,1-1.87,9,68.79,68.79,0,0,1-54.94,49.46L133.9,236.55a69.71,69.71,0,0,1-12.89.95,68.79,68.79,0,0,1-64.76-50,70.58,70.58,0,0,1-1.68-7.48l-4.78-28.39Z"/><path class="cls-1" d="M70.23,29.66s35.88-7.35,41.77,5.52l13.69-3.62S116.51,12.3,70.23,29.66Z"/><path class="cls-1" d="M91.19,2.53s32.65,16.58,29.24,30.33l13,5.69S138.21,17.76,91.19,2.53Z"/><path class="cls-1" d="M118.53,0S132.87,21.46,126,28.73l6,8S142.17,25.59,118.53,0Z"/><path class="cls-2" d="M281.82,149.81l-31.29-13.94-25.16,23.51-31.33-14-25.1,23.46-31.41-14-25.1,23.5-31.4-14L56.25,187.54a70.58,70.58,0,0,1-1.68-7.48l-.48-2.83,25.15-23.45,31.4,14,25.11-23.47,31.36,13.95,25.07-23.44,31.4,14,25.17-23.47,31.4,14,.29-.28Z"/><path class="cls-2" d="M253,150.26l-25.16,23.48-31.4-14-25.08,23.43L140,169.27l-25.1,23.46-31.4-14L61,199.71a68.8,68.8,0,0,0,4.7,7.92l19.53-18.25,31.41,14,25.1-23.51,31.4,14,25.1-23.45,31.34,14,25.16-23.51,24.66,11a67.92,67.92,0,0,0,1.87-9Z"/><circle class="cls-5" cx="133.67" cy="83.8" r="20.17"/><circle class="cls-6" cx="134.04" cy="82.59" r="9.11"/><circle class="cls-5" cx="173.13" cy="74.06" r="20.17"/><circle class="cls-6" cx="173.5" cy="72.85" r="9.11"/><circle class="cls-4" cx="100.76" cy="109.87" r="6.1"/><circle class="cls-4" cx="214.42" cy="81.81" r="6.1"/><path class="cls-6" d="M166,120.15A56.44,56.44,0,0,1,153.85,122a59.18,59.18,0,0,1-20-2.42,3.69,3.69,0,0,1,.24-7,3.63,3.63,0,0,1,2.14.07,53.29,53.29,0,0,0,17.36,2A49.74,49.74,0,0,0,164.29,113a44.56,44.56,0,0,0,22.05-13.91,3.69,3.69,0,0,1,5.53,4.88A52,52,0,0,1,166,120.15Z"/><path class="cls-4" d="M188.82,100.5a1.09,1.09,0,0,1,1.1,1.77,49.51,49.51,0,0,1-24.57,15.37,53.89,53.89,0,0,1-11.61,1.77,56.39,56.39,0,0,1-19-2.28,1.09,1.09,0,0,1,.06-2.08,1.13,1.13,0,0,1,.63,0,55.3,55.3,0,0,0,18.31,2.17,52.88,52.88,0,0,0,11.24-1.7,47,47,0,0,0,23.33-14.71,1.19,1.19,0,0,1,.53-.33m-1.35-5h0a6.23,6.23,0,0,0-3.08,1.91,42,42,0,0,1-20.78,13.12A47,47,0,0,1,153.49,112a51,51,0,0,1-16.42-1.9,6.19,6.19,0,0,0-3.64-.11,6.28,6.28,0,0,0-.39,12A60.83,60.83,0,0,0,154,124.61a58.54,58.54,0,0,0,12.73-2,54.6,54.6,0,0,0,27.12-16.94,6.29,6.29,0,0,0-6.35-10.24Z"/><path class="cls-7" d="M225.31,34.8A374.13,374.13,0,0,0,61,84.4a7.33,7.33,0,0,1-3.21,1A110.73,110.73,0,0,1,66.88,67,388.67,388.67,0,0,1,206.4,24,111.76,111.76,0,0,1,225.31,34.8Z"/><path class="cls-8" d="M213,16.11a5,5,0,0,1,.2,1.29,4.8,4.8,0,0,1-.36,2,5.38,5.38,0,0,1-4.75,3.37A299.49,299.49,0,0,0,66.39,65.35a5.75,5.75,0,0,1-1.22.54,5.34,5.34,0,0,1-4.6-.72,4.94,4.94,0,0,1-1.39-1.45,5.25,5.25,0,0,1,1.89-7.22A310,310,0,0,1,207.63,12.43,5.32,5.32,0,0,1,213,16.11Z"/><path class="cls-9" d="M212.83,19.37a5.38,5.38,0,0,1-4.75,3.37A299.49,299.49,0,0,0,66.39,65.35a5.75,5.75,0,0,1-1.22.54,5.34,5.34,0,0,1-4.6-.72,5.38,5.38,0,0,1,2.29-2.72A309.85,309.85,0,0,1,209.42,18.37,5.5,5.5,0,0,1,212.83,19.37Z"/><path class="cls-8" d="M217.33,20.64A341.15,341.15,0,0,0,57,68.87a6.24,6.24,0,0,0-2.27,8.6,6.33,6.33,0,0,0,8.59,2A328.74,328.74,0,0,1,217.87,32.93a6.35,6.35,0,0,0,6.1-6.37A6.23,6.23,0,0,0,217.33,20.64Z"/></g></g></svg>