<svg xmlns="http://www.w3.org/2000/svg" viewBox="0 0 210.17 211.31"><defs><style>.cls-1{fill:#2d4b87;}.cls-2{fill:#10213a;}.cls-3{fill:#aef8fc;}.cls-4{fill:#93d1d1;}.cls-5{fill:#37c2d1;}.cls-6{fill:#162c51;}</style></defs><g id="Camada_2" data-name="Camada 2"><g id="Layer_1" data-name="Layer 1"><path class="cls-1" d="M59.55,107.89S44.72,85.44,28.22,94.58s17.49,14.87,10.23,26.89l23.67,7.72Z"/><path class="cls-2" d="M33.19,111.15a38.9,38.9,0,0,1,7.88-1.2c2.63-.09,5.26-.1,7.89-.14a.26.26,0,0,0,0-.51c-2.7,0-5.42,0-8.13.15a40.23,40.23,0,0,0-7.78,1.2c-.32.08-.18.57.14.5Z"/><polygon class="cls-3" points="28.41 0.85 12.12 0.71 12.25 4.4 28.84 3.26 28.41 0.85"/><polygon class="cls-3" points="28.53 4.95 12.24 4.81 12.37 8.5 28.96 7.37 28.53 4.95"/><polygon class="cls-3" points="28.67 9.04 12.38 8.9 12.51 12.59 29.1 11.45 28.67 9.04"/><polygon class="cls-4" points="28.8 13.13 12.51 12.99 12.64 16.68 29.23 15.55 28.8 13.13"/><polygon class="cls-4" points="28.92 17.23 12.63 17.09 12.76 20.78 29.35 19.65 28.92 17.23"/><polygon class="cls-4" points="29.06 21.32 12.77 21.18 12.9 24.87 29.49 23.74 29.06 21.32"/><polygon class="cls-4" points="29.21 25.11 12.93 24.97 13.05 28.66 29.65 27.52 29.21 25.11"/><polygon class="cls-3" points="29.34 29.21 13.05 29.07 13.18 32.76 29.77 31.63 29.34 29.21"/><polygon class="cls-3" points="29.47 33.3 13.19 33.16 13.31 36.85 29.91 35.71 29.47 33.3"/><polygon class="cls-3" points="29.6 37.4 13.31 37.26 13.44 40.95 30.03 39.82 29.6 37.4"/><path class="cls-5" d="M27.27,1A.82.82,0,0,1,28,.11c1.74-.25,6-.44,6.57,3.64.66,5,.18,65,.17,66.83,0,0,0,.06,0,.08-.12,1-2.38,21.16-1.38,24.9S50.79,201,38.7,211.11a.78.78,0,0,1-.59.19c-2-.17-11.18-5.61-13.47-88.93L23.17,90.79s-.65-13,2.95-20.54a.86.86,0,0,0,.07-.21c.29-1.69,3.74-22.22,3.33-29a.83.83,0,0,0-.44-.67h0a.82.82,0,0,1-.44-.7Z"/><path class="cls-1" d="M16.27,112.87c-4.88,1.42-9.18,5.16-12.16,13.34C1.53,133.28,0,142.6,0,152.83s1.64,19.7,4.27,26.77c3,8.07,8,12.27,12.16,13.12h0s17.22,3.17,30.19,1.64h13.1c31.3-.07,44.63-18.7,44.58-41.67,0-22.8-25.08-41.24-56.07-41.45a6.43,6.43,0,0,0-1.78-.43C33.48,109.33,16.31,112.86,16.27,112.87Z"/><polygon class="cls-6" points="210.16 107.59 209 194.06 59.72 194.34 59.55 107.89 210.16 107.59"/></g></g></svg>