<svg xmlns="http://www.w3.org/2000/svg" viewBox="0 0 340.51 131.02"><defs><style>.cls-1{fill:#c8d6fc;}.cls-2{fill:#162c51;}.cls-3{fill:#2d4b87;}.cls-4{fill:#1b3760;}.cls-5{fill:#426996;}.cls-6{fill:#7bb6d4;}.cls-7{fill:#f7f7f7;}.cls-8{fill:#4c676e;}.cls-9{fill:#c22320;}.cls-10{fill:#e1f5ff;}</style></defs><g id="Camada_2" data-name="Camada 2"><g id="Layer_1" data-name="Layer 1"><rect class="cls-1" y="122.51" width="15.06" height="3.49" rx="1.75"/><rect class="cls-1" x="0.53" y="110.27" width="15.06" height="3.49" rx="1.75"/><path d="M23,121.15a2.15,2.15,0,0,1-1.89-.84l3.2-2.48a1.84,1.84,0,0,0-1.32-.74h0c.32,0,3.63-.24,23-7.93,18.71-7.43,33.78-11.64,44.79-12.52,9.28-.74,15.91.88,19.68,4.81,6.67,7,1.86,18,1.65,18.45l-3.7-1.65c0-.09,3.9-9-.88-14-2.9-3-8.44-4.21-16.45-3.57-10.6.86-25.27,5-43.6,12.25-9.67,3.83-16.71,6.37-20.92,7.53A15,15,0,0,1,23,121.15Z"/><rect class="cls-1" x="187.31" y="2.9" width="86.58" height="2.12"/><rect class="cls-2" x="102.63" y="9.07" width="210.44" height="121.95" rx="17.92"/><path class="cls-3" d="M340.51,113.1V27A18,18,0,0,0,322.58,9.07H235.29V131h87.29A18,18,0,0,0,340.51,113.1Z"/><rect class="cls-4" x="244.53" y="44.79" width="86.9" height="29.67" rx="2.91"/><rect class="cls-5" x="244.53" y="44.79" width="85.51" height="29.67" rx="2.91"/><path class="cls-4" d="M148,9.07A18,18,0,0,0,130.07,27v86.1A18,18,0,0,0,148,131h87.3V9.07Z"/><path class="cls-3" d="M226.58,70.48v.19a43.65,43.65,0,0,1-1.67,11.78,41.68,41.68,0,0,1-2.31,6.25c-.54,1.18-1.13,2.32-1.77,3.44a44.17,44.17,0,0,1-13.08,14.25,44.27,44.27,0,0,1-4.73,2.85,43.31,43.31,0,0,1-12.13,4.16,44.59,44.59,0,0,1-7.09.72h-.87c-.85,0-1.7,0-2.54-.07a43.68,43.68,0,0,1-6.92-1h0a42.9,42.9,0,0,1-11-4A43.64,43.64,0,0,1,139.3,70.81c0-.11,0-.22,0-.33a44.06,44.06,0,0,1,.6-7.22,40.08,40.08,0,0,1,1-4.43,43.77,43.77,0,0,1,1.75-5.1h0a43.76,43.76,0,0,1,3.72-7h0c.51-.79,1.05-1.56,1.61-2.31h0a43.74,43.74,0,0,1,3.88-4.51,43.44,43.44,0,0,1,23.5-12.36c1.1-.2,2.22-.35,3.35-.46,1.4-.13,2.81-.2,4.24-.2,1,0,2,0,3,.1,1.17.08,2.33.21,3.47.38a43.24,43.24,0,0,1,18,7,42.22,42.22,0,0,1,5.25,4.18A43.56,43.56,0,0,1,226,63.26,44.06,44.06,0,0,1,226.58,70.48Z"/><path class="cls-2" d="M182.85,32a3.83,3.83,0,0,1-4.16-5c1.4-.13,2.81-.2,4.24-.2,1,0,2,0,3,.1A3.81,3.81,0,0,1,182.85,32Z"/><path class="cls-2" d="M196.83,29.1a3.83,3.83,0,0,1-7.55-.75,5.7,5.7,0,0,1,.11-1A42.92,42.92,0,0,1,196.83,29.1Z"/><path class="cls-2" d="M173.51,31.53a3.6,3.6,0,0,1-3.77.06A3.7,3.7,0,0,1,168,29.48a43.47,43.47,0,0,1,7.39-2A3.8,3.8,0,0,1,173.51,31.53Z"/><path class="cls-2" d="M226.58,70.48v.19a3.59,3.59,0,0,1-3.22-.39,3.64,3.64,0,0,1-1.78-3.54,3.81,3.81,0,0,1,4.4-3.48A44.06,44.06,0,0,1,226.58,70.48Z"/><path class="cls-2" d="M224.91,82.45a41.68,41.68,0,0,1-2.31,6.25,4,4,0,0,1-.88-2.78A3.79,3.79,0,0,1,224.91,82.45Z"/><path class="cls-2" d="M140.35,70.71a5.26,5.26,0,0,1-1,.1c0-.11,0-.22,0-.33a44.06,44.06,0,0,1,.6-7.22,3.91,3.91,0,0,1,3,2.54A3.83,3.83,0,0,1,140.35,70.71Z"/><path class="cls-2" d="M190.89,113.4a44.59,44.59,0,0,1-7.09.72,3.82,3.82,0,0,1,4-2.78A3.75,3.75,0,0,1,190.89,113.4Z"/><path class="cls-2" d="M180.39,114.05a43.68,43.68,0,0,1-6.92-1,3.64,3.64,0,0,1,1.43-1.31A3.82,3.82,0,0,1,180.39,114.05Z"/><path class="cls-2" d="M165.8,80.44a3.81,3.81,0,1,1,3.84-3.74A3.79,3.79,0,0,1,165.8,80.44Z"/><path class="cls-2" d="M218.56,86.23a3.81,3.81,0,1,1-3.78-3.83A3.81,3.81,0,0,1,218.56,86.23Z"/><path class="cls-2" d="M207.68,47.59a3.82,3.82,0,1,1-3.85-3.84A3.78,3.78,0,0,1,207.68,47.59Z"/><path class="cls-2" d="M164.76,86.22A3.81,3.81,0,1,1,161,82.4,3.8,3.8,0,0,1,164.76,86.22Z"/><path class="cls-2" d="M165.84,34a3.79,3.79,0,0,1,3.81,3.81,3.83,3.83,0,1,1-7.65,0A3.78,3.78,0,0,1,165.84,34Z"/><path class="cls-2" d="M200.21,86.19A3.78,3.78,0,0,1,204,82.4a3.85,3.85,0,0,1,3.83,3.94,3.89,3.89,0,0,1-4,3.71A3.83,3.83,0,0,1,200.21,86.19Z"/><path class="cls-2" d="M167.92,86.19a3.79,3.79,0,0,1,3.79-3.79,3.87,3.87,0,0,1,3.84,4,3.92,3.92,0,0,1-3.93,3.68A3.84,3.84,0,0,1,167.92,86.19Z"/><path class="cls-2" d="M198.23,99.61a3.77,3.77,0,0,1-3.79-3.78,3.83,3.83,0,1,1,3.79,3.78Z"/><path class="cls-2" d="M203.84,70.84a3.81,3.81,0,0,1,0-7.61,3.81,3.81,0,1,1,0,7.61Z"/><path class="cls-2" d="M146.4,86.2a3.79,3.79,0,0,1,3.83-3.8,3.86,3.86,0,0,1,3.81,4,3.91,3.91,0,0,1-3.93,3.68A3.84,3.84,0,0,1,146.4,86.2Z"/><path class="cls-2" d="M197,86.22A3.74,3.74,0,0,1,193.15,90,3.82,3.82,0,1,1,197,86.22Z"/><path class="cls-2" d="M144.31,80.44a3.81,3.81,0,1,1,3.82-3.9A3.8,3.8,0,0,1,144.31,80.44Z"/><path class="cls-2" d="M197,105.53a3.81,3.81,0,1,1-3.77-3.8A3.81,3.81,0,0,1,197,105.53Z"/><path class="cls-2" d="M158.88,37.73a3.81,3.81,0,0,1-7,2.13A43.14,43.14,0,0,1,157.57,35,3.84,3.84,0,0,1,158.88,37.73Z"/><path class="cls-2" d="M219.6,80.44a3.81,3.81,0,1,1,3.85-3.81A3.78,3.78,0,0,1,219.6,80.44Z"/><path class="cls-2" d="M176.55,80.44a3.82,3.82,0,0,1,0-7.63,3.82,3.82,0,1,1,0,7.63Z"/><path class="cls-2" d="M153.88,47.56a3.82,3.82,0,1,1-7.63,0,4.14,4.14,0,0,1,.09-.87h0c.51-.79,1.05-1.56,1.61-2.31h0a4,4,0,0,1,2.14-.62A3.79,3.79,0,0,1,153.88,47.56Z"/><path class="cls-2" d="M167.77,47.52a3.78,3.78,0,0,1,3.84-3.77,3.85,3.85,0,0,1,3.79,4,3.9,3.9,0,0,1-4,3.66A3.84,3.84,0,0,1,167.77,47.52Z"/><path class="cls-2" d="M220.83,92.14a43.34,43.34,0,0,1-4.12,6,4,4,0,0,1-.75-2.36A3.79,3.79,0,0,1,219.79,92,3.9,3.9,0,0,1,220.83,92.14Z"/><path class="cls-2" d="M187.49,99.61a3.84,3.84,0,0,1-3.83-3.76,3.83,3.83,0,1,1,7.66,0A3.83,3.83,0,0,1,187.49,99.61Z"/><path class="cls-2" d="M193.09,70.84a3.81,3.81,0,1,1,0-7.62,3.81,3.81,0,1,1,0,7.62Z"/><path class="cls-2" d="M151.24,76.6a3.79,3.79,0,0,1,3.83-3.78,3.86,3.86,0,0,1,3.81,4,3.94,3.94,0,0,1-4,3.68A3.88,3.88,0,0,1,151.24,76.6Z"/><path class="cls-2" d="M172.76,37.8A3.8,3.8,0,0,1,176.59,34a3.88,3.88,0,0,1,3.81,4,4,4,0,0,1-4,3.68A3.87,3.87,0,0,1,172.76,37.8Z"/><path class="cls-2" d="M205.05,76.63a3.78,3.78,0,0,1,3.84-3.81,3.86,3.86,0,0,1,3.79,4,3.92,3.92,0,0,1-4,3.67A3.85,3.85,0,0,1,205.05,76.63Z"/><path class="cls-2" d="M162.48,109a43.9,43.9,0,0,1-5.34-3.35v-.18a3.81,3.81,0,0,1,7.62,0A3.75,3.75,0,0,1,162.48,109Z"/><path class="cls-2" d="M209,99.61a3.82,3.82,0,0,1-3.82-3.72,3.83,3.83,0,0,1,7.65-.2A3.83,3.83,0,0,1,209,99.61Z"/><path class="cls-2" d="M218.42,47.58a3.81,3.81,0,1,1-3.83-3.83A3.82,3.82,0,0,1,218.42,47.58Z"/><path class="cls-2" d="M155.21,99.61a3.79,3.79,0,0,1-3.83-3.82,3.84,3.84,0,0,1,3.8-3.8,3.81,3.81,0,1,1,0,7.62Z"/><path class="cls-2" d="M214.58,70.84A3.75,3.75,0,0,1,210.8,67a3.8,3.8,0,0,1,3.82-3.77,3.81,3.81,0,1,1,0,7.62Z"/><path class="cls-2" d="M164.61,47.57a3.81,3.81,0,1,1-3.79-3.82A3.81,3.81,0,0,1,164.61,47.57Z"/><path class="cls-2" d="M189.29,47.54a3.78,3.78,0,0,1,3.79-3.79,3.82,3.82,0,1,1-3.79,3.79Z"/><path class="cls-2" d="M171.57,70.84a3.74,3.74,0,0,1-3.8-3.8,3.8,3.8,0,0,1,3.8-3.82,3.81,3.81,0,1,1,0,7.62Z"/><path class="cls-2" d="M165.81,61a3.81,3.81,0,1,1,3.83-3.82A3.79,3.79,0,0,1,165.81,61Z"/><path class="cls-2" d="M219.62,61a3.81,3.81,0,1,1,0-7.62,3.81,3.81,0,1,1,0,7.62Z"/><path class="cls-2" d="M198.13,34a3.84,3.84,0,0,1,3.8,3.65,3.83,3.83,0,1,1-7.65.17A3.81,3.81,0,0,1,198.13,34Z"/><path class="cls-2" d="M212.62,38.5a3.82,3.82,0,0,1-7.58-.72,3.79,3.79,0,0,1,2.33-3.46A42.22,42.22,0,0,1,212.62,38.5Z"/><path class="cls-2" d="M166,99.61a3.79,3.79,0,0,1-3.81-3.83A3.83,3.83,0,1,1,166,99.61Z"/><path class="cls-2" d="M148.14,57.27A3.85,3.85,0,0,1,144.27,61a3.77,3.77,0,0,1-3.4-2.13,43.77,43.77,0,0,1,1.75-5.1h0a3.9,3.9,0,0,1,1.74-.39A3.85,3.85,0,0,1,148.14,57.27Z"/><path class="cls-2" d="M186.12,67a3.81,3.81,0,0,1-3.93,3.82A3.86,3.86,0,0,1,178.51,67a3.81,3.81,0,1,1,7.61,0Z"/><path class="cls-2" d="M171.72,109.36a3.82,3.82,0,1,1,0-7.63,3.82,3.82,0,1,1,0,7.63Z"/><path class="cls-2" d="M187.34,41.64a3.81,3.81,0,1,1,3.82-3.76A3.77,3.77,0,0,1,187.34,41.64Z"/><path class="cls-2" d="M176.55,61a3.75,3.75,0,0,1-3.79-3.81,3.81,3.81,0,0,1,3.81-3.82,3.86,3.86,0,0,1,3.82,3.85A3.79,3.79,0,0,1,176.55,61Z"/><path class="cls-2" d="M186.27,86.22a3.82,3.82,0,0,1-3.72,3.83,3.87,3.87,0,0,1-3.9-3.84,3.82,3.82,0,0,1,3.79-3.81A3.78,3.78,0,0,1,186.27,86.22Z"/><path class="cls-2" d="M187.32,80.44a3.81,3.81,0,1,1,3.84-3.78A3.81,3.81,0,0,1,187.32,80.44Z"/><path class="cls-2" d="M198.1,80.44a3.8,3.8,0,0,1-3.82-3.81,3.85,3.85,0,0,1,3.82-3.82,3.82,3.82,0,1,1,0,7.63Z"/><path class="cls-2" d="M186.12,47.58a3.83,3.83,0,0,1-3.66,3.82,3.88,3.88,0,0,1-4-3.83,3.82,3.82,0,0,1,3.81-3.82A3.77,3.77,0,0,1,186.12,47.58Z"/><path class="cls-2" d="M160.8,70.84A3.78,3.78,0,0,1,157,67a3.82,3.82,0,0,1,3.81-3.82,3.9,3.9,0,0,1,3.84,4A3.85,3.85,0,0,1,160.8,70.84Z"/><path class="cls-2" d="M205.05,57.12a3.78,3.78,0,0,1,3.83-3.78,3.85,3.85,0,0,1,3.8,3.93A3.91,3.91,0,0,1,209,61,3.84,3.84,0,0,1,205.05,57.12Z"/><path class="cls-2" d="M151.24,57.15a3.79,3.79,0,0,1,3.81-3.81,3.84,3.84,0,0,1,3.83,3.73A3.94,3.94,0,0,1,155.11,61,3.87,3.87,0,0,1,151.24,57.15Z"/><path class="cls-2" d="M150.06,70.84a3.81,3.81,0,1,1,0-7.62,3.86,3.86,0,0,1,3.81,3.94A3.82,3.82,0,0,1,150.06,70.84Z"/><path class="cls-2" d="M187.32,61a3.81,3.81,0,1,1,3.84-3.87A3.76,3.76,0,0,1,187.32,61Z"/><path class="cls-2" d="M180.52,95.82A3.81,3.81,0,1,1,176.73,92,3.82,3.82,0,0,1,180.52,95.82Z"/><path class="cls-2" d="M186.27,105.55a3.85,3.85,0,0,1-3.79,3.83,3.9,3.9,0,0,1-3.83-3.85,3.82,3.82,0,0,1,3.83-3.8A3.78,3.78,0,0,1,186.27,105.55Z"/><path class="cls-2" d="M207.84,105.7a3.83,3.83,0,0,1-.09.69,44.27,44.27,0,0,1-4.73,2.85,3.82,3.82,0,1,1,4.82-3.54Z"/><path class="cls-2" d="M198.09,61a3.81,3.81,0,1,1,3.84-3.81A3.8,3.8,0,0,1,198.09,61Z"/><rect class="cls-6" x="245.24" y="27.76" width="85.36" height="9.33" rx="0.21"/><path class="cls-7" d="M329.87,28.5v7.87H246V28.5h83.9M330.4,27H245.45a.94.94,0,0,0-.94.94v8.92a.94.94,0,0,0,.94.94H330.4a.94.94,0,0,0,.93-.94V28a.94.94,0,0,0-.93-.94Z"/><rect class="cls-8" x="249.99" y="30.8" width="1.37" height="5.58"/><rect class="cls-8" x="255.38" y="30.8" width="1.37" height="5.58"/><rect class="cls-8" x="260.77" y="30.8" width="1.37" height="5.58"/><rect class="cls-8" x="266.15" y="30.8" width="1.37" height="5.58"/><rect class="cls-8" x="271.54" y="30.8" width="1.37" height="5.58"/><rect class="cls-8" x="276.93" y="30.8" width="1.37" height="5.58"/><rect class="cls-8" x="282.32" y="30.8" width="1.37" height="5.58"/><rect class="cls-8" x="287.71" y="30.8" width="1.37" height="5.58"/><rect class="cls-8" x="293.1" y="30.8" width="1.37" height="5.58"/><rect class="cls-8" x="298.49" y="30.8" width="1.37" height="5.58"/><rect class="cls-8" x="303.88" y="30.8" width="1.37" height="5.58"/><rect class="cls-8" x="309.27" y="30.8" width="1.37" height="5.58"/><rect class="cls-8" x="314.66" y="30.8" width="1.37" height="5.58"/><rect class="cls-8" x="320.05" y="30.8" width="1.37" height="5.58"/><rect class="cls-8" x="325.44" y="30.8" width="1.37" height="5.58"/><rect class="cls-9" x="282.32" y="28.48" width="1.37" height="7.89"/><path class="cls-2" d="M294.46,59.26a7.87,7.87,0,0,0-6.18-7.68V48.66h-3.41v2.93a7.87,7.87,0,0,0,1.72,15.54h2.66v-.47A7.85,7.85,0,0,0,294.46,59.26Z"/><circle class="cls-10" cx="289.25" cy="59.26" r="7.86"/><rect class="cls-10" x="287.53" y="48.66" width="3.4" height="4.04"/><circle class="cls-2" cx="289.25" cy="59.26" r="3.24"/><path class="cls-2" d="M262.89,59.26a7.85,7.85,0,0,1-6.18,7.68v2.92h-3.4V66.93A7.86,7.86,0,0,1,255,51.4h2.65v.46A7.86,7.86,0,0,1,262.89,59.26Z"/><circle class="cls-10" cx="257.68" cy="59.26" r="7.86"/><rect class="cls-10" x="255.96" y="65.82" width="3.4" height="4.04"/><circle class="cls-2" cx="257.68" cy="59.26" r="3.24"/><path class="cls-2" d="M321.49,52.52a7.93,7.93,0,0,0-1.57-.72l.12-.4h-2.91A7.86,7.86,0,0,0,312,65l-1.51,2.5,2.92,1.75h2.61l.63-2.87c3,.58,5.8-.25,7.49-3A7.88,7.88,0,0,0,321.49,52.52Z"/><circle class="cls-10" cx="320.04" cy="59.26" r="7.86"/><rect class="cls-10" x="313.94" y="64.6" width="3.4" height="4.04" transform="translate(551.8 286.39) rotate(-148.98)"/><circle class="cls-2" cx="320.04" cy="59.26" r="3.24"/><rect class="cls-1" x="126.64" y="2.12" width="86.58" height="3.67"/><path class="cls-3" d="M129.21,3.48v7.11a18.09,18.09,0,0,0-7.84,6.66,3.52,3.52,0,0,1-.16-1V3.48A3.49,3.49,0,0,1,124.69,0h1A3.48,3.48,0,0,1,129.21,3.48Z"/><rect class="cls-1" x="271.54" y="1.54" width="14.15" height="4.54" rx="2.27"/><path class="cls-4" d="M246.78,78.9h82.36a2.3,2.3,0,0,1,2.3,2.3V86.4a2.3,2.3,0,0,1-2.3,2.3H246.77a2.29,2.29,0,0,1-2.29-2.29V81.19A2.3,2.3,0,0,1,246.78,78.9Z"/><path class="cls-5" d="M246.77,78.9h81a2.3,2.3,0,0,1,2.3,2.3V86.4a2.3,2.3,0,0,1-2.3,2.3h-81a2.29,2.29,0,0,1-2.29-2.29V81.19A2.29,2.29,0,0,1,246.77,78.9Z"/><path class="cls-4" d="M246.77,92h82.36a2.3,2.3,0,0,1,2.3,2.3V99.5a2.3,2.3,0,0,1-2.3,2.3H246.77a2.29,2.29,0,0,1-2.29-2.29V94.29A2.29,2.29,0,0,1,246.77,92Z"/><path class="cls-5" d="M246.77,92h81a2.3,2.3,0,0,1,2.3,2.3V99.5a2.3,2.3,0,0,1-2.3,2.3h-81a2.29,2.29,0,0,1-2.29-2.29V94.29A2.29,2.29,0,0,1,246.77,92Z"/><path class="cls-4" d="M246.78,104.32h82.36a2.3,2.3,0,0,1,2.3,2.3v5.21a2.3,2.3,0,0,1-2.3,2.3H246.77a2.29,2.29,0,0,1-2.29-2.29v-5.21A2.3,2.3,0,0,1,246.78,104.32Z"/><path class="cls-5" d="M246.77,104.32h81a2.3,2.3,0,0,1,2.3,2.3v5.21a2.3,2.3,0,0,1-2.3,2.3h-81a2.29,2.29,0,0,1-2.29-2.29v-5.22A2.29,2.29,0,0,1,246.77,104.32Z"/><path d="M22.19,106.51l-11.54,0,.07,23.21,11.54,0a3.48,3.48,0,0,0,3.46-3.49l0-16.25A3.49,3.49,0,0,0,22.19,106.51Z"/></g></g></svg>