<svg xmlns="http://www.w3.org/2000/svg" viewBox="0 0 234.18 233.83"><defs><style>.cls-1{fill:#59a3df;}.cls-2{opacity:0.22;}.cls-3{fill:#2a73c7;}.cls-4{fill:#2083c6;}.cls-5{fill:#28383d;}.cls-6{fill:#1c60a3;}</style></defs><g id="Camada_2" data-name="Camada 2"><g id="Layer_1" data-name="Layer 1"><path class="cls-1" d="M233.53,115.92c0,.72,0,1.44,0,2.17H1.72c0-.73,0-1.45,0-2.17a115.92,115.92,0,0,1,231.84,0Z"/><path class="cls-1" d="M44.32,26.11s-19.54,12-28.5-6.58C15.82,19.53,15.06,57.92,44.32,26.11Z"/><path class="cls-1" d="M40.21,26.51S23.83,50.69,3.68,33.81C3.68,33.81,22.92,78.77,40.21,26.51Z"/><path class="cls-1" d="M52.66,20.51S37.17,30,30.07,15.29C30.07,15.29,29.47,45.72,52.66,20.51Z"/><path class="cls-1" d="M191,26.11s19.54,12,28.51-6.58C219.5,19.53,220.26,57.92,191,26.11Z"/><path class="cls-1" d="M195.1,26.51s16.38,24.18,36.53,7.3C231.63,33.81,212.39,78.77,195.1,26.51Z"/><path class="cls-1" d="M182.65,20.51s15.49,9.52,22.59-5.22C205.24,15.29,205.85,45.72,182.65,20.51Z"/><ellipse class="cls-2" cx="117.09" cy="223.39" rx="117.09" ry="10.44"/><path class="cls-3" d="M233.53,118.09v29.07c0,1.41,0,2.8-.13,4.19-.06,1.2-.17,2.39-.3,3.57a1.23,1.23,0,0,1,0,.19c-.18,1.58-.41,3.14-.69,4.69-.07.38-.15.76-.22,1.14-.33,1.59-.7,3.17-1.13,4.72-.22.79-.45,1.56-.69,2.34-.41,1.33-.88,2.65-1.37,3.95-.16.43-.33.85-.5,1.27-.47,1.16-1,2.3-1.5,3.44a67,67,0,0,1-3.28,6.15A69.49,69.49,0,0,1,164,216.71H71.24a70.37,70.37,0,0,1-13-1.21,69.61,69.61,0,0,1-46.73-32.69,67.11,67.11,0,0,1-3.36-6.33c-.5-1.07-1-2.16-1.41-3.26-.73-1.77-1.37-3.57-1.94-5.41a69.09,69.09,0,0,1-1.75-6.87c-.08-.38-.15-.76-.22-1.14-.3-1.62-.54-3.26-.72-4.91-.13-1.17-.23-2.35-.29-3.54-.09-1.39-.13-2.78-.13-4.19V118.09Z"/><circle class="cls-1" cx="68.9" cy="207.68" r="20.51"/><circle class="cls-1" cx="167.22" cy="207.68" r="20.51"/><circle class="cls-4" cx="58.82" cy="80.48" r="6.16"/><circle class="cls-4" cx="177.05" cy="80.48" r="6.16"/><path class="cls-5" d="M137.66,64.88c-5.51,0-11.66-2-17.74-8.06A2,2,0,1,1,122.7,54c15.43,15.33,30.93.62,31.59,0A2,2,0,1,1,157,56.83C156.91,57,148.57,64.88,137.66,64.88Z"/><path class="cls-5" d="M95.41,64.75c-5.5,0-11.65-2-17.74-8.06a2,2,0,0,1,2.79-2.8c15.42,15.34,30.93.62,31.59,0a2,2,0,1,1,2.75,2.83C114.67,56.83,106.33,64.75,95.41,64.75Z"/><path class="cls-5" d="M118.47,94.54a56.54,56.54,0,0,1-12.35-1.38,59.76,59.76,0,0,1-18.85-7.61,3.72,3.72,0,0,1,4.15-6.18,53.75,53.75,0,0,0,16.39,6.54,50.46,50.46,0,0,0,10.84,1.22,45,45,0,0,0,25.16-7.77,3.66,3.66,0,0,1,2.05-.62,3.72,3.72,0,0,1,2.06,6.83A52.6,52.6,0,0,1,118.47,94.54Z"/><path class="cls-4" d="M145.86,81.37a1.09,1.09,0,0,1,.92.49,1.11,1.11,0,0,1-.31,1.52,50.06,50.06,0,0,1-28,8.53,54.69,54.69,0,0,1-11.78-1.31,57,57,0,0,1-18-7.23,1.09,1.09,0,0,1,.61-2,1.14,1.14,0,0,1,.61.18,55.84,55.84,0,0,0,17.28,6.92,52.68,52.68,0,0,0,11.41,1.29,47.45,47.45,0,0,0,26.61-8.21,1.08,1.08,0,0,1,.6-.18m0-5.26h0a6.31,6.31,0,0,0-3.5,1,42.42,42.42,0,0,1-23.71,7.34,47.71,47.71,0,0,1-10.27-1.16,51.53,51.53,0,0,1-15.52-6.17,6.36,6.36,0,0,0-8.79,1.75,6.38,6.38,0,0,0,1.73,8.82,62.23,62.23,0,0,0,19.74,8,60,60,0,0,0,12.93,1.44,55.18,55.18,0,0,0,30.9-9.41,6.35,6.35,0,0,0,2.72-4,6.36,6.36,0,0,0-6.23-7.62Z"/><rect class="cls-6" x="1.7" y="130.35" width="231.83" height="9.59"/><path class="cls-6" d="M233.4,151.35c-.06,1.2-.17,2.39-.3,3.57a1.23,1.23,0,0,1,0,.19c-.18,1.58-.41,3.14-.69,4.69-.07.38-.15.76-.22,1.14H3.06c-.08-.38-.15-.76-.22-1.14-.3-1.62-.54-3.26-.72-4.91-.13-1.17-.23-2.35-.29-3.54Z"/><path class="cls-6" d="M228.48,173.22c-.47,1.16-1,2.3-1.5,3.44a67,67,0,0,1-3.28,6.15H11.52l-4.77-9.59Z"/><path class="cls-2" d="M233.53,122.45v24.71a71.09,71.09,0,0,1-.43,7.76c0,.06,0,.13,0,.19-.18,1.58-.41,3.14-.7,4.69l-55.9,40-2.5,1.46a15.45,15.45,0,0,1-17.68-24.69l-.16-.22,2.33-1.67h0l73-52.24Z"/><circle class="cls-1" cx="167.46" cy="182.9" r="15.46"/><path class="cls-6" d="M233.53,118.09v29.07a71.09,71.09,0,0,1-.43,7.76l-59,42.21-18-25.14,77.39-53.9Z"/><path class="cls-2" d="M80.32,196.25a15.45,15.45,0,0,1-19.08,5l-2.5-1.45-55.9-40c-.3-1.62-.54-3.26-.73-4.91a73.12,73.12,0,0,1-.42-7.73V122.45H3.77l73,52.24h0l2.33,1.67-.16.22A15.44,15.44,0,0,1,80.32,196.25Z"/><circle class="cls-1" cx="67.75" cy="182.9" r="15.46"/><path class="cls-6" d="M1.69,118.09v29.07a71.09,71.09,0,0,0,.43,7.76l59,42.21,18-25.14L1.69,118.09Z"/></g></g></svg>