<svg xmlns="http://www.w3.org/2000/svg" xmlns:xlink="http://www.w3.org/1999/xlink" viewBox="0 0 258.5 258.06"><defs><style>.cls-1{fill:none;}.cls-2{fill:#f2b446;}.cls-13,.cls-3{opacity:0.22;}.cls-4{fill:#cc6e2e;}.cls-5{fill:#b7632a;}.cls-6{fill:#6d3b19;}.cls-7{fill:#fff;}.cls-8{fill:#bfbfbf;}.cls-9{fill:#e1e1e1;}.cls-10{fill:#383838;}.cls-11{isolation:isolate;}.cls-12{clip-path:url(#clip-path);}.cls-14{fill:#fffeff;}.cls-15{fill:#dc2819;}.cls-16{fill:#c02012;}.cls-17{fill:#332b33;}</style><clipPath id="clip-path"><polygon class="cls-1" points="149.18 246.91 139.1 245.22 145.89 242.78 155.97 244.47 149.18 246.91"/></clipPath></defs><g id="Camada_2" data-name="Camada 2"><g id="Layer_1" data-name="Layer 1"><path class="cls-2" d="M52.83,24.45S89.7,23.13,93.41,36.91l14.2-1.31S101.71,14.93,52.83,24.45Z"/><path class="cls-2" d="M78.19,1s29.66,21.93,24,35l11.93,7.82S122.35,24,78.19,1Z"/><path class="cls-2" d="M105.77,3.05s10.66,23.71,2.66,29.8l4.63,8.92S125,32.42,105.77,3.05Z"/><ellipse class="cls-3" cx="126.43" cy="247.64" rx="116.8" ry="10.42"/><path class="cls-4" d="M242.58,142.6v29c0,1.54-.05,3.08-.15,4.6,0,.5-.07,1-.11,1.49,0,.14,0,.29,0,.43,0,.41-.08.81-.13,1.22,0,.06,0,.12,0,.18l-.09.67a69.63,69.63,0,0,1-2,9.86q-.33,1.17-.69,2.34c-.41,1.32-.88,2.64-1.37,3.93-.61,1.6-1.28,3.16-2,4.7A69.29,69.29,0,0,1,173.2,241H80.69a69.35,69.35,0,0,1-68.23-56.77c-.24-1.31-.44-2.64-.61-4,0-.3-.07-.61-.11-.91l-.12-1.27,0-.35h0v0c-.05-.48-.08-1-.12-1.45v0c0-.48-.06-1-.08-1.44l0-.94c0-.18,0-.37,0-.55v-.18c0-.23,0-.46,0-.69s0-.52,0-.77v-29Z"/><path class="cls-5" d="M242.13,179.53l-28.74-19.08-28.93,19.16-28.79-19.12-28.86,19.12L98,160.45,69.09,179.61,40.23,160.45,11.75,179.31a70,70,0,0,1-.43-7.71v-2.88l28.91-19.1,28.86,19.11L98,149.62l28.82,19.09,28.83-19.09,28.86,19.11,28.93-19.11,28.86,19.11.33-.22Z"/><path class="cls-5" d="M213.39,175.15l-28.93,19.12L155.6,175.15l-28.83,19.09L98,175.15,69.09,194.27,40.23,175.15l-25.8,17a69.51,69.51,0,0,0,3.34,8.66L40.23,186l28.86,19.15L98,186l28.86,19.15L155.67,186l28.79,19.11L213.39,186l22.66,15a69.32,69.32,0,0,0,3.36-8.64Z"/><path class="cls-3" d="M170.64,176.16v30.75a15.42,15.42,0,1,1,0-30.75Z"/><path class="cls-3" d="M98.42,197.55a15.43,15.43,0,0,1-12.72,9.33v-30.7a15.58,15.58,0,0,1,4.54,1.16A15.42,15.42,0,0,1,98.42,197.55Z"/><circle class="cls-2" cx="78.36" cy="231.97" r="20.46"/><circle class="cls-2" cx="176.44" cy="231.97" r="20.46"/><path class="cls-2" d="M242.58,140.44c0,.72,0,1.44,0,2.16H11.34c0-.72,0-1.44,0-2.16a116.27,116.27,0,0,1,1.52-18.78,115.64,115.64,0,0,1,229.74,18.78Z"/><circle class="cls-4" cx="65.16" cy="106.73" r="6.14"/><circle class="cls-4" cx="183.09" cy="106.73" r="6.14"/><path class="cls-6" d="M126.28,130.47A56.27,56.27,0,0,1,114,129.09a59.37,59.37,0,0,1-18.8-7.59,3.71,3.71,0,0,1,2.07-6.79,3.67,3.67,0,0,1,2.06.62,53.62,53.62,0,0,0,16.36,6.53,50.19,50.19,0,0,0,10.81,1.22,44.83,44.83,0,0,0,25.09-7.76,3.72,3.72,0,0,1,4.1,6.2A52.4,52.4,0,0,1,126.28,130.47Z"/><path class="cls-4" d="M153.6,117.33a1.09,1.09,0,0,1,.61,2,49.92,49.92,0,0,1-27.93,8.52,53.74,53.74,0,0,1-11.75-1.32,56.85,56.85,0,0,1-17.91-7.2,1.09,1.09,0,0,1,.61-2,1.14,1.14,0,0,1,.61.18,55.59,55.59,0,0,0,17.24,6.91,52.32,52.32,0,0,0,11.38,1.28A47.34,47.34,0,0,0,153,117.51a1.13,1.13,0,0,1,.6-.18m0-5.25h0a6.31,6.31,0,0,0-3.49,1.06,42.29,42.29,0,0,1-23.65,7.32,47.6,47.6,0,0,1-10.25-1.16,51.28,51.28,0,0,1-15.47-6.16,6.42,6.42,0,0,0-3.51-1.06,6.34,6.34,0,0,0-3.54,11.6,61.47,61.47,0,0,0,19.69,8,59.11,59.11,0,0,0,12.9,1.44,55,55,0,0,0,30.82-9.38,6.34,6.34,0,0,0-3.5-11.63Z"/><circle class="cls-7" cx="105.1" cy="88.4" r="20.32"/><circle class="cls-6" cx="105.75" cy="98.54" r="9.18"/><circle class="cls-7" cx="146.04" cy="88.4" r="20.32"/><circle class="cls-6" cx="146.7" cy="98.54" r="9.18"/><path class="cls-3" d="M28.43,102.89c-2.06,6.47-6.35,3.93-6.35,3.93L16.9,120.45v-.37c1.52-9.29,4.43-16.24,8-24.65a4.23,4.23,0,0,1,2.06.14S30.49,96.42,28.43,102.89Z"/><path class="cls-3" d="M224.2,102.49c2.05,6.47,6.35,3.94,6.35,3.94l6,13.85v-.2c-1.52-9.29-5.21-16.63-8.8-25a4.15,4.15,0,0,0-2.07.14S222.14,96,224.2,102.49Z"/><path class="cls-7" d="M122.46,242.74l-.4.82c-.4-.19-9.74-4.77-8.75-11.18.49-3.11,3.37-6.06,8.58-8.78l.37.87,0,0c-5.58,2.93-7.65,5.72-8,8.08C113.32,238.27,122.37,242.7,122.46,242.74Z"/><path class="cls-8" d="M152.68,247.45l0,0h0l0,0h-.15l-.13,0h0l-.12,0h0l-.17,0h0l-.17,0h-.91L118,245.94h-.34l-.17,0h0l-.15,0h0l-.11,0h0l-.1,0h0l0,0h0l-.05,0h0l0,0h0s0,0,0,0v3.41h0l0,0h0l0,0h0l0,0h0l.09,0h0l.12,0h0l.15,0h0l.18,0H118L150.84,251H152l.17,0h0l.13,0h0l.12,0h.08l0,0h.09l.05,0,5.87-3.9v-3.38Z"/><path class="cls-9" d="M122.85,241.7a4.47,4.47,0,0,1,1.85-.2l32.83,1.71c.79,0,1.25.19,1,.34l-5.88,3.9a4.39,4.39,0,0,1-1.84.2L118,245.94c-.79,0-1.26-.19-1-.34Z"/><polygon class="cls-10" points="141.57 242.81 139.69 244.08 136.6 246.18 119.84 245.49 122.29 243.82 122.29 243.82 125.09 241.92 141.56 242.81 141.57 242.81"/><g class="cls-11"><g class="cls-12"><path class="cls-7" d="M149.52,245.18a7.93,7.93,0,0,1-3.13.18c-1.16-.16-1.59-.52-1-.8l.12-.05a8.15,8.15,0,0,1,3.13-.18c1.17.16,1.6.52,1,.8l-.12.05m-7-1.18-.31.12c-1.6.72-.51,1.63,2.44,2a20.14,20.14,0,0,0,7.94-.46l.31-.12c1.61-.72.52-1.63-2.43-2a20,20,0,0,0-7.95.45"/></g></g><path d="M240.44,73c-.85-2.73-1.67-5.36-2.5-8q-1.73-5.5-3.48-11a.72.72,0,0,1,.4-1q7.77-4.36,15.52-8.77c.17-.09.35-.16.61-.28l.26.83c2.33,7.33,4.57,14.7,7,22,1.14,3.38-2.29,7-5.54,6.55a3.08,3.08,0,0,1-2.7-3.64,5.56,5.56,0,0,1,5.09-4.54l.75,0-4.75-15.17c-1.09.6-2.12,1.16-3.15,1.74-3.3,1.85-6.6,3.73-9.92,5.56-.54.3-.68.55-.48,1.18,1.75,5.39,3.38,10.82,5.22,16.18,1.18,3.43-2.16,6.74-5.11,6.62a3.12,3.12,0,0,1-3.08-3.93A5.59,5.59,0,0,1,239.85,73Z"/><path d="M10.13,29.06c-.85-2.72-1.67-5.36-2.5-8-1.16-3.66-2.31-7.33-3.48-11a.72.72,0,0,1,.4-1Q12.32,4.68,20.06.28c.17-.09.36-.16.62-.28l.26.83c2.33,7.33,4.56,14.7,7,22,1.15,3.38-2.28,7-5.53,6.55a3.09,3.09,0,0,1-2.71-3.64,5.56,5.56,0,0,1,5.1-4.54l.75,0L20.81,6,17.67,7.74c-3.3,1.85-6.6,3.73-9.92,5.56-.54.3-.69.55-.48,1.18C9,19.87,10.65,25.3,12.49,30.66c1.17,3.44-2.16,6.75-5.11,6.62A3.12,3.12,0,0,1,4.3,33.35a5.59,5.59,0,0,1,5.24-4.28Z"/><path d="M240.31,31.6c.14-.43.25-.76.35-1.1l6.06-18.94c.08-.24.11-.56.27-.7s.61-.37.82-.29a.89.89,0,0,1,.42.75,5.17,5.17,0,0,1-.35,1.23c-2.32,7.23-4.72,14.44-6.91,21.7-1,3.28-6.26,4.59-8.87,1.88a3.16,3.16,0,0,1,.2-4.62,5.81,5.81,0,0,1,7.68-.17C240.05,31.41,240.14,31.46,240.31,31.6Z"/><path d="M9.13,67.83c.13-.43.24-.76.35-1.1l6.06-18.94c.07-.24.1-.55.27-.7a1.06,1.06,0,0,1,.82-.29.91.91,0,0,1,.41.75,5.12,5.12,0,0,1-.35,1.24C14.38,56,12,63.22,9.78,70.49c-1,3.27-6.26,4.58-8.87,1.87a3.16,3.16,0,0,1,.2-4.62,5.82,5.82,0,0,1,7.68-.17Z"/><path class="cls-7" d="M26.65,93.58s3.5.85,1.45,7.32-6.35,3.93-6.35,3.93L16.9,120.08,13.52,119l6.9-21.72S22.6,92.3,26.65,93.58Z"/><g class="cls-13"><path d="M139.45,209.59l-.69-.8c.15-.13,15.58-13.5,33.65-27.41,24.3-18.71,41.55-29.46,51.26-31.93,9.45-2.41,14-8.57,16.74-16.76,2-6.11-2.52-14-2.53-14.07l1.06-.15c0,.23,4.59,8.2,2.48,14.56-1.25,3.74-2.48,7-5.17,9.64-3.35,3.3-6.92,6.43-12.32,7.81-9.43,2.4-27,13.38-50.87,31.74C155,196.12,139.61,209.46,139.45,209.59Z"/></g><path class="cls-3" d="M242.58,146.51v25.1q0,3.07-.26,6.09a.94.94,0,0,0,0,.43c0,.41-.08.81-.13,1.22,0,.06,0,.12,0,.18l-.09.67-64.58,27.4-2.75.88a15.42,15.42,0,0,1-11.82-27.9l-.11-.25,2.63-1.11h0Z"/><path class="cls-3" d="M120.63,222l-.21,1c-20.9-4.24-37-10-48.9-17.5L11.85,180.23c0-.3-.07-.61-.11-.91l-.12-1.27a1.08,1.08,0,0,0,0-.35c-.09-1-.15-2-.2-3l0-.94c0-.18,0-.37,0-.55v-.18c0-.23,0-.46,0-.69s0-.52,0-.77v-25.1l31.52,13.36c-1.88-5.15-4.6-9-10.57-10.61-5.63-1.52-8.07-4.64-11.69-7.54-.26-.21-2.15-2.72-2.33-3-2.23-3.58-1.8-4-3.17-7.5a21.7,21.7,0,0,1-1.34-11.14l1,.21a21,21,0,0,0,1.3,10.59c1.57,4,2.48,8.1,6.28,10.84,3.35,2.41,5.27,5.19,10.18,6.52,6.82,1.84,9.63,6.29,11.63,12.2l44.3,18.78h0l2.63,1.11-.11.25a15.42,15.42,0,0,1-11.83,27.9l-1-.33C88.36,213.45,102,218.21,120.63,222Z"/><path class="cls-7" d="M120.42,220.78C92.15,215,72.57,206.5,60.55,194.69c-10.3-10.13-13.18-20.93-15.49-29.6S40.86,149.34,32.27,147c-6-1.63-8.3-2.76-11.14-6.19-2.51-3.06-4-6.78-5.32-10.26a21.7,21.7,0,0,1-1.34-11.14l1,.21a21,21,0,0,0,1.31,10.59c2.95,7.48,5.24,12.93,15.73,15.76,9.18,2.48,11.1,9.7,13.54,18.82,4.73,17.75,11.21,42.06,74.54,54.93Z"/><path class="cls-7" d="M139.45,207.35l-.69-.8c.15-.14,15.58-13.5,33.65-27.41,24.3-18.72,41.55-29.46,51.26-31.94,9.45-2.4,13.65-7.38,16.38-15.57,2-6.11-3.54-14.67-3.54-14.72l1.05-.15c0,.23,5.62,8.86,3.5,15.21a26.58,26.58,0,0,1-4.55,8.91c-2.85,3.74-7.18,6-12.58,7.36-9.43,2.4-27,13.38-50.87,31.74C155,193.87,139.61,207.22,139.45,207.35Z"/><path class="cls-14" d="M128.17,169.46s.79-3.69,9.35-7.22,21.84-7.9,21.84-7.9l10.13,3.16L133.6,171.65Z"/><path class="cls-14" d="M128.17,169.46s-.79-3.69-9.35-7.22S97,154.34,97,154.34L86.85,157.5l35.89,14.15Z"/><polygon class="cls-15" points="122.74 169.46 122.74 225.96 122.73 225.96 85.7 212.97 85.7 157.12 86.85 157.5 122.73 169.46 122.74 169.46"/><rect class="cls-16" x="122.73" y="169.46" width="5.43" height="56.49"/><polygon class="cls-15" points="170.64 157.12 170.64 212.97 133.6 225.96 133.59 225.96 133.59 169.46 133.6 169.46 169.48 157.5 170.64 157.12"/><rect class="cls-16" x="128.17" y="169.46" width="5.43" height="56.49"/><rect class="cls-17" x="122.73" y="174.84" width="10.87" height="2.35"/><circle class="cls-2" cx="81.52" cy="189.17" r="15.42"/><path class="cls-5" d="M90.16,176.09l-12,28.38-66.6-28.23-.06-.06c0-.48-.06-1-.08-1.44l0-.94c0-.18,0-.37,0-.55v-.18c0-.23,0-.46,0-.69s0-.52,0-.77V142.67Z"/><circle class="cls-2" cx="172.39" cy="189.17" r="15.42"/><path class="cls-5" d="M242.58,142.67v28.94c0,1.54-.05,3.08-.15,4.6l-.05,0-66.6,28.23-12-28.38Z"/><path class="cls-7" d="M226.75,93.58s-3.5.85-1.44,7.32,6.35,3.93,6.35,3.93l4.85,15.25,3.37-1.07L233,97.29S230.81,92.3,226.75,93.58Z"/></g></g></svg>