<svg xmlns="http://www.w3.org/2000/svg" viewBox="0 0 174.29 215.49"><defs><style>.cls-1{fill:#687f3b;}.cls-2{fill:#fefacb;}.cls-3{fill:#ffe692;}.cls-4{fill:#dc2819;}.cls-5{fill:#fe7e7f;}.cls-6{fill:none;stroke:#fe7e7f;stroke-miterlimit:10;stroke-width:0.93px;}.cls-7{fill:#c02012;}.cls-8{fill:#961710;}.cls-9{fill:#5e7434;}.cls-10{fill:#562b1b;}</style></defs><g id="Camada_2" data-name="Camada 2"><g id="Layer_1" data-name="Layer 1"><path class="cls-1" d="M43,13.91S58.38,27.7,74.3,28.23s21.57,2.83,21.57,2.83a117.26,117.26,0,0,1-5.66-12C86.7,10.63,62.27-16.16,43,13.91Z"/><path class="cls-2" d="M174.29,79.89a35.21,35.21,0,0,0-3.68,3.93c-2.91,3.59-6.41,9.21-5.9,15.07.86,9.83-4.7,16.46-2.35,25.86,1.81,7.25.92,14.48,3.13,21.15a20.77,20.77,0,0,0,2.93,5.76l-4.06,1.12-27,7.44-7.06-30.94-3.42-33.81L132,81.79l10.48-7.48,28.63,3.21.15.11Z"/><path class="cls-3" d="M174.29,79.89a35.21,35.21,0,0,0-3.68,3.93c-1,.27-2,.57-3,.9a46.7,46.7,0,0,0-8.17,3.49,14,14,0,0,0-5.32,5.29,36.36,36.36,0,0,0-4.38,9.54c-1.12,3.83-.17,7.78.6,11.6.82,4.08,2.39,7.66,3.88,11.52a19.23,19.23,0,0,1,1.24,5.86,9.47,9.47,0,0,0,1.06,4.53,13.17,13.17,0,0,0,3.4,3.34,12.34,12.34,0,0,1,2.63,3c-.27-.47.44.52.61.7.34.37.7.73,1,1.09l1.23,1.22a20.77,20.77,0,0,0,2.93,5.76l-4.06,1.12c-.82-.75-1.61-1.52-2.41-2.28-1-1-2-2-3-3-.74-.83-1.28-1.8-2-2.6-1.3-1.39-3-2.29-4.18-3.79a12.77,12.77,0,0,1-2.62-5.35c-.45-2.15-.23-4.36-.87-6.48-.59-2-1.53-3.78-2.3-5.67a57,57,0,0,1-3-12.69,22.07,22.07,0,0,1-.17-7.25,27,27,0,0,1,1.79-5.75A39.14,39.14,0,0,1,151.85,87a19.4,19.4,0,0,1,6.36-4.65,51.92,51.92,0,0,1,13.06-4.74Z"/><path class="cls-3" d="M174.29,83h0Z"/><path class="cls-4" d="M155,86c-6.09,7.05-10.9,9.3-7.38,26.29s1,27.26,10.9,33.33l9.91,6.08a190.21,190.21,0,0,1-15.13,27.09v0a169.17,169.17,0,0,1-11,14.86S122.42,222.31,89.72,214c-32.7,8.34-52.58-20.34-52.58-20.34S-17.68,129.68,5.88,78.23C15.59,57,31.53,48,46.92,44.71q2.23-.48,4.44-.81h.08C71.65,40.93,89.72,47,89.72,47S150,26.79,173.56,78.23c.25.55.49,1.11.73,1.66C174.29,79.89,161.08,78.91,155,86Z"/><path class="cls-5" d="M104.87,47.88c27.83-2.47,50.67,9.8,62.29,25.9-.12.1-2.21-7.53-11.81-16A51,51,0,0,0,135.13,47.4,56.62,56.62,0,0,0,104.87,47.88Z"/><path class="cls-6" d="M104.87,47.88c27.83-2.47,50.67,9.8,62.29,25.9-.12.1-2.21-7.53-11.81-16A51,51,0,0,0,135.13,47.4,56.62,56.62,0,0,0,104.87,47.88Z"/><path class="cls-7" d="M153.28,178.77a169.17,169.17,0,0,1-11,14.86S122.42,222.31,89.72,214c-32.7,8.34-52.58-20.34-52.58-20.34S-17.68,129.68,5.88,78.23C15.59,57,31.53,48,46.92,44.71l4.44-.81h.08c-.42.64-78.8,58.34-1.49,130.87C105.67,227,152.68,179.56,153.28,178.77Z"/><path class="cls-8" d="M77.75,48.13A7.59,7.59,0,0,0,73,50c-1.37,1.23-2.18,3,2.14,4.12,7.26,1.92,8,.69,14.75,3.42,2.82,1.12,12-.43,11.53-2.78C101.08,52.68,85.48,47.76,77.75,48.13Z"/><path class="cls-9" d="M94.28,31.59A87.93,87.93,0,0,0,78.16,21.8c-9.56-4.6-22.64-8.1-31.38-8a60,60,0,0,1,17.43.43c10.08,1.65,23.07,6.58,31.91,16.59Z"/><path class="cls-10" d="M85.43,50.6S89,25.44,93.77,24.8s7.85-1.12,7.69,1.6S89.28,47.4,89.28,53C89.28,53,84.31,53,85.43,50.6Z"/></g></g></svg>