<svg xmlns="http://www.w3.org/2000/svg" viewBox="0 0 617.13 307.6"><defs><style>.cls-1{opacity:0.22;}.cls-2{fill:#2d4b87;}.cls-3{fill:#162c51;}.cls-4{fill:#1b3760;}.cls-5{fill:#10213a;}.cls-6{fill:#426996;}.cls-7{fill:#6d3b19;}.cls-8{fill:#ce5a28;}.cls-9{fill:#4b6f9b;}.cls-10{fill:#fff;}.cls-11{fill:#f2b446;}.cls-12{fill:#b7632a;}.cls-13{fill:#cc6e2e;}</style></defs><g id="Camada_2" data-name="Camada 2"><g id="Layer_1" data-name="Layer 1"><ellipse class="cls-1" cx="151.45" cy="295.92" rx="131.03" ry="11.69"/><ellipse class="cls-1" cx="464.43" cy="295.92" rx="131.03" ry="11.69"/><path class="cls-2" d="M51,34.94c11.52-.16,25.73,1.31,29.81,9a1.48,1.48,0,0,0,1.59.77l12.34-2.54a1.46,1.46,0,0,0,.88-2.31c-3.21-4.31-14.13-14-44.93-7.79A1.47,1.47,0,0,0,51,34.94Z"/><circle class="cls-2" cx="17.37" cy="259.5" r="17.11" transform="translate(-131.87 46.5) rotate(-31.19)"/><path class="cls-3" d="M33.22,266.66,0,258.49l20.62-83.87c.68-2.78,3.83-4.41,7-3.64L44.3,196.77c3.17.78,5.2,3.69,4.52,6.46Z"/><path class="cls-2" d="M295.31,115.1a17.1,17.1,0,1,0,26.51,21.62"/><path class="cls-3" d="M323.82,134.27l-31.17-15.91-55.34,67.88a5.83,5.83,0,0,0,1,8.17l32-3.81a5.85,5.85,0,0,0,8.21-.68Z"/><rect class="cls-2" x="79.61" y="233.66" width="34.21" height="65.15" rx="13.44"/><rect class="cls-2" x="208.41" y="219.31" width="34.21" height="65.15" rx="13.44" transform="translate(-65.12 79.17) rotate(-17.44)"/><path class="cls-2" d="M272.75,135.82c.11.79.21,1.59.29,2.39L18.66,171.53q-.18-1.18-.33-2.37a128.3,128.3,0,1,1,254.42-33.34Z"/><path class="cls-4" d="M277.91,180a76.7,76.7,0,0,1-.88,11.69,75.34,75.34,0,0,1-2.49,10.93,76.85,76.85,0,0,1-63.62,53.78L109.14,269.77a78.77,78.77,0,0,1-14.43.54,77.09,77.09,0,0,1-60.9-36.13,76.79,76.79,0,0,1-10.94-30.39c0-.11,0-.23-.05-.34l-1.35-10.34-1.25-9.49-1.58-12.08L273.06,138.2l1.58,12.09h0l1.24,9.49,1.36,10.33c0,.11,0,.23,0,.35A77.5,77.5,0,0,1,277.91,180Z"/><path class="cls-3" d="M38.64,195a29.11,29.11,0,0,1-8.13-1.21,19.69,19.69,0,0,0-9-.66l-1.25-9.49a29.07,29.07,0,0,1,12.73.9,19.67,19.67,0,0,0,9,.66,19.72,19.72,0,0,0,8.57-3,29,29,0,0,1,12.07-4.14,28.88,28.88,0,0,1,12.72.89,19.72,19.72,0,0,0,9.05.66l1.24,9.49a29,29,0,0,1-12.72-.9,19.73,19.73,0,0,0-9.05-.66,19.77,19.77,0,0,0-8.57,3,28.92,28.92,0,0,1-12.06,4.14A34.8,34.8,0,0,1,38.64,195Z"/><path class="cls-3" d="M85.64,189.11l-1.24-9.49a19.64,19.64,0,0,0,8.57-3A29.06,29.06,0,0,1,105,172.51a28.92,28.92,0,0,1,12.73.9,22.46,22.46,0,0,0,17.61-2.31A28.83,28.83,0,0,1,147.44,167l1.24,9.48a19.64,19.64,0,0,0-8.57,3A28.92,28.92,0,0,1,128,183.55a28.88,28.88,0,0,1-12.72-.89,19.55,19.55,0,0,0-9-.66,19.73,19.73,0,0,0-8.57,3A29,29,0,0,1,85.64,189.11Z"/><path class="cls-3" d="M165.85,178.31a29.11,29.11,0,0,1-8.13-1.21,19.67,19.67,0,0,0-9-.66L147.44,167a28.88,28.88,0,0,1,12.72.89,22.48,22.48,0,0,0,17.62-2.31,32.07,32.07,0,0,1,24.79-3.25,19.53,19.53,0,0,0,9,.66l1.24,9.49a28.85,28.85,0,0,1-12.72-.9,22.59,22.59,0,0,0-17.62,2.31A28.78,28.78,0,0,1,170.45,178,34.8,34.8,0,0,1,165.85,178.31Z"/><path class="cls-3" d="M212.85,172.44,211.61,163a19.78,19.78,0,0,0,8.57-3A32,32,0,0,1,245,156.74a22.48,22.48,0,0,0,17.62-2.31,28.92,28.92,0,0,1,12.06-4.14l1.24,9.48a19.77,19.77,0,0,0-8.57,3A32.07,32.07,0,0,1,242.53,166a22.46,22.46,0,0,0-17.61,2.31A29.12,29.12,0,0,1,212.85,172.44Z"/><path class="cls-3" d="M88.28,209.27a28.88,28.88,0,0,1-12.72-.89,19.73,19.73,0,0,0-9-.66,19.69,19.69,0,0,0-8.57,3,28.78,28.78,0,0,1-12.06,4.14,34.91,34.91,0,0,1-4.6.32,29,29,0,0,1-8.12-1.21,19.28,19.28,0,0,0-8.42-.74,75.67,75.67,0,0,1-1.87-9.41,29,29,0,0,1,12.72.9,19.74,19.74,0,0,0,9,.65,19.83,19.83,0,0,0,8.57-3,28.92,28.92,0,0,1,12.06-4.14,28.88,28.88,0,0,1,12.72.89,19.73,19.73,0,0,0,9.05.66Z"/><path class="cls-3" d="M88.28,209.27,87,199.79a19.64,19.64,0,0,0,8.57-3,28.92,28.92,0,0,1,12.06-4.14,29.07,29.07,0,0,1,12.73.89,19.53,19.53,0,0,0,9,.66,19.73,19.73,0,0,0,8.57-3,29,29,0,0,1,12.07-4.15l1.24,9.49a19.64,19.64,0,0,0-8.57,3A32,32,0,0,1,118,202.82a19.81,19.81,0,0,0-9-.66,19.72,19.72,0,0,0-8.57,3A28.89,28.89,0,0,1,88.28,209.27Z"/><path class="cls-3" d="M168.5,198.48a29.11,29.11,0,0,1-8.13-1.21,19.59,19.59,0,0,0-9.05-.66l-1.24-9.49a29,29,0,0,1,12.72.9,22.48,22.48,0,0,0,17.62-2.31,32.07,32.07,0,0,1,24.79-3.25,19.67,19.67,0,0,0,9,.66l1.25,9.49a29,29,0,0,1-12.73-.9A22.46,22.46,0,0,0,185.16,194a29,29,0,0,1-12.07,4.14A34.65,34.65,0,0,1,168.5,198.48Z"/><path class="cls-3" d="M277.91,180a19.31,19.31,0,0,0-7.94,2.88,32.08,32.08,0,0,1-24.79,3.25,22.48,22.48,0,0,0-17.62,2.31,28.94,28.94,0,0,1-12.07,4.13l-1.24-9.48a19.69,19.69,0,0,0,8.58-3,32,32,0,0,1,24.78-3.25,22.48,22.48,0,0,0,17.62-2.31,28.94,28.94,0,0,1,12.06-4.13A77.5,77.5,0,0,1,277.91,180Z"/><path class="cls-3" d="M91,230a29,29,0,0,1-12.72-.89,19.58,19.58,0,0,0-9-.66,19.68,19.68,0,0,0-8.56,3,28.87,28.87,0,0,1-12.07,4.15,36.59,36.59,0,0,1-4.6.32,29.06,29.06,0,0,1-8.13-1.22c-.71-.18-1.37-.36-2.06-.51a75.36,75.36,0,0,1-5.22-9.91,28.44,28.44,0,0,1,9.72,1.18,19.83,19.83,0,0,0,9,.65,19.83,19.83,0,0,0,8.58-3A28.9,28.9,0,0,1,68,219a29.07,29.07,0,0,1,12.73.9,19.81,19.81,0,0,0,9,.66Z"/><path class="cls-3" d="M91,230l-1.24-9.48a19.77,19.77,0,0,0,8.57-3,28.78,28.78,0,0,1,12.06-4.14,28.91,28.91,0,0,1,12.73.89A22.46,22.46,0,0,0,140.73,212a29,29,0,0,1,12.07-4.14l1.24,9.49a19.78,19.78,0,0,0-8.57,3,28.78,28.78,0,0,1-12.06,4.14,29,29,0,0,1-12.73-.89,19.67,19.67,0,0,0-9-.66,19.59,19.59,0,0,0-8.57,3A29,29,0,0,1,91,230Z"/><path class="cls-3" d="M171.21,219.24a29.47,29.47,0,0,1-8.12-1.21,19.59,19.59,0,0,0-9.05-.66l-1.24-9.49a28.88,28.88,0,0,1,12.72.89,22.53,22.53,0,0,0,17.62-2.3,32.07,32.07,0,0,1,24.79-3.25,19.67,19.67,0,0,0,9,.66l1.25,9.48a28.93,28.93,0,0,1-12.73-.89,22.46,22.46,0,0,0-17.61,2.31,29,29,0,0,1-12.07,4.14A34.68,34.68,0,0,1,171.21,219.24Z"/><path class="cls-3" d="M277,191.72a75.34,75.34,0,0,1-2.49,10.93c-.62.31-1.22.66-1.86,1a32.07,32.07,0,0,1-24.79,3.25,22.51,22.51,0,0,0-17.61,2.3,28.83,28.83,0,0,1-12.06,4.14L217,203.88a19.59,19.59,0,0,0,8.57-3,32.08,32.08,0,0,1,24.79-3.25A22.48,22.48,0,0,0,268,195.35,28.78,28.78,0,0,1,277,191.72Z"/><path class="cls-5" d="M145.11,140.43a63.15,63.15,0,0,1-13.76.27,66.32,66.32,0,0,1-21.77-5.64,4.12,4.12,0,0,1,3.66-7.39,59.27,59.27,0,0,0,18.93,4.82,55,55,0,0,0,12.07-.21,49.79,49.79,0,0,0,26.49-12.15,4.22,4.22,0,0,1,2.17-1,4.12,4.12,0,0,1,3.24,7.2A58.12,58.12,0,0,1,145.11,140.43Z"/><path class="cls-4" d="M173.28,122a1.21,1.21,0,0,1,.95,2.12,55.38,55.38,0,0,1-29.5,13.39,60.33,60.33,0,0,1-13.12.25,62.89,62.89,0,0,1-20.74-5.35,1.2,1.2,0,0,1-.54-1.62,1.22,1.22,0,0,1,1.62-.55,61.71,61.71,0,0,0,20,5.11,57.67,57.67,0,0,0,12.7-.23,52.52,52.52,0,0,0,28-12.83,1.17,1.17,0,0,1,.64-.29m-.76-5.77h0a7,7,0,0,0-3.69,1.66,47,47,0,0,1-25,11.47,53.71,53.71,0,0,1-11.44.2,57.27,57.27,0,0,1-17.92-4.54,7,7,0,0,0-6.23,12.6,68.13,68.13,0,0,0,22.82,5.94,65.8,65.8,0,0,0,14.39-.28A61,61,0,0,0,178,128.55a7,7,0,0,0-5.52-12.28Z"/><path class="cls-5" d="M126.4,94.58a10.18,10.18,0,1,1-20.19,2.65A9.83,9.83,0,0,1,106.3,94a56.22,56.22,0,0,1,12-8.11A10.17,10.17,0,0,1,126.4,94.58Z"/><path class="cls-5" d="M171.45,88.68a10.19,10.19,0,1,1-15-7.58,57.21,57.21,0,0,1,14.5,5.35A10.25,10.25,0,0,1,171.45,88.68Z"/><path class="cls-6" d="M82.69,121.16A6.82,6.82,0,1,1,75,115.29,6.82,6.82,0,0,1,82.69,121.16Z"/><circle class="cls-6" cx="205.68" cy="105.05" r="6.82" transform="translate(-21.45 63.19) rotate(-16.61)"/><path class="cls-7" d="M112,127.17,174.82,120a7.45,7.45,0,0,1,6.55,12.2c-4.93,5.72-15,11.6-35.39,13.93s-31.53-1.13-37.63-5.6A7.44,7.44,0,0,1,112,127.17Z"/><path class="cls-8" d="M164.52,139.39c.4,3.47-7.79,7.24-18.28,8.44s-19.31-.64-19.7-4.1,7.78-7.24,18.27-8.44S164.12,135.93,164.52,139.39Z"/><path class="cls-5" d="M111.82,127.88l62.67-8.54a7.44,7.44,0,0,1,6.81,12c-4.8,5.83-14.75,11.93-35.08,14.7s-31.55-.45-37.74-4.78A7.44,7.44,0,0,1,111.82,127.88Z"/><path class="cls-9" d="M164.61,139c.47,3.45-7.62,7.41-18.08,8.84s-19.32-.22-19.8-3.68,7.63-7.41,18.09-8.83S164.14,135.51,164.61,139Z"/><path class="cls-6" d="M146.67,149.4c-18,2.45-31.51.65-40.1-5.35a10.64,10.64,0,0,1-4.25-11.29,10.77,10.77,0,0,1,9.05-8.19L174,116A10.75,10.75,0,0,1,185,121.5a10.62,10.62,0,0,1-1.07,12C177.21,141.6,164.69,146.94,146.67,149.4Zm-34.4-18.21a4,4,0,0,0-3.46,3.14,3.93,3.93,0,0,0,1.58,4.25c4.93,3.44,15.07,7,35.38,4.2s29.13-8.87,33-13.51a3.94,3.94,0,0,0,.39-4.52,4,4,0,0,0-4.17-2.1Z"/><path class="cls-5" d="M145.37,135.23a5.59,5.59,0,0,0-4.18,6.19s3.91-5.93,8.73-6.48.29-5.42.29-5.42Z"/><path class="cls-4" d="M53.77,55c-3.05-5.65-9.84-16.18-19.48-19.32a3.71,3.71,0,0,1-.44-6.88c11.37-5.35,30.77-10.11,55,1.15a3.71,3.71,0,0,1,.49,6.46L59.08,56.33A3.71,3.71,0,0,1,53.77,55Z"/><path class="cls-3" d="M99,36.34,58,62.86A5.1,5.1,0,0,1,51,61.36h0a5.1,5.1,0,0,1,1.51-7L93.42,27.79a5.1,5.1,0,0,1,7,1.5h0A5.1,5.1,0,0,1,99,36.34Z"/><path class="cls-3" d="M35.15,32A5.68,5.68,0,1,1,28,28.39,5.68,5.68,0,0,1,35.15,32Z"/><circle class="cls-10" cx="115.71" cy="96.57" r="22.55" transform="translate(-32.66 70.1) rotate(-29.73)"/><path class="cls-5" d="M126.43,94.16a10.19,10.19,0,1,1-11.25-9A10.18,10.18,0,0,1,126.43,94.16Z"/><circle class="cls-10" cx="160.87" cy="91.56" r="22.55" transform="translate(-11.13 159.95) rotate(-51.33)"/><circle class="cls-5" cx="161.46" cy="90.27" r="10.18" transform="translate(-9.91 159.93) rotate(-51.33)"/><path class="cls-11" d="M343.92,138.13c-.09.8-.17,1.59-.24,2.39l255,28.29c.1-.79.2-1.59.29-2.38a128.3,128.3,0,1,0-255-28.3Z"/><circle class="cls-11" cx="599.76" cy="259.55" r="17.11" transform="translate(67.14 638.22) rotate(-58.81)"/><path class="cls-12" d="M583.91,266.7l33.22-8.17-20.62-83.87c-.68-2.77-3.83-4.41-7-3.63l-16.68,25.79c-3.17.78-5.2,3.68-4.52,6.46Z"/><path class="cls-11" d="M319.62,112.86c6,7.32,7.08,20.39-.24,26.36s-19.88,2.23-25.85-5.09-3.1-15.46,4.23-21.43S313.65,105.54,319.62,112.86Z"/><path class="cls-12" d="M293.53,134.13l26.09-21.27,60.2,73.43a5.83,5.83,0,0,1-1,8.17l-31.95-3.81a5.84,5.84,0,0,1-8.21-.69Z"/><rect class="cls-11" x="503.31" y="233.71" width="34.21" height="65.15" rx="13.44" transform="translate(1040.83 532.57) rotate(180)"/><rect class="cls-11" x="374.51" y="219.36" width="34.21" height="65.15" rx="13.44" transform="translate(689.72 609.65) rotate(-162.56)"/><path class="cls-13" d="M343.66,140.52l-3.55,32a76.94,76.94,0,0,0-.48,8.8,76.7,76.7,0,0,0,4.08,24.45,76.85,76.85,0,0,0,64.42,51.75l102,11.32a77,77,0,0,0,79.05-45.69,76.67,76.67,0,0,0,4.53-13.88,78,78,0,0,0,1.41-8.45l3.55-32Z"/><path class="cls-11" d="M372.3,30.07s40.5-5.95,46.27,8.79l15.5-3.19S425,13.6,372.3,30.07Z"/><path class="cls-11" d="M397.39,1.1s35.4,20.56,30.74,35.69L442.24,44S448.91,21.06,397.39,1.1Z"/><path class="cls-11" d="M428.07,0s14.65,24.85,6.57,32.54l6.2,9.27S452.84,30,428.07,0Z"/><path class="cls-12" d="M340.49,169.09l.34.28L375,151.83l29.56,24.61,34.17-17.54,29.46,24.58L502.3,166l29.49,24.61L566,173l29.54,24.6-.36,3.19a78,78,0,0,1-1.41,8.45L564.63,185l-34.17,17.59L501,177.89l-34.17,17.6-29.48-24.61-34.1,17.56-29.55-24.67-34,17.53Z"/><path class="cls-12" d="M341.06,195.81a75.73,75.73,0,0,0,2.65,9.94l26.83-13.82L400.1,216.6l34.09-17.55,29.49,24.6,34.17-17.59,29.49,24.66,34.17-17.6,22.94,19.15a78.25,78.25,0,0,0,4.75-9.14l-26.37-21.95-34.16,17.54-29.5-24.61-34.12,17.53L435.6,187.06l-34.17,17.55L371.87,180Z"/><circle class="cls-10" cx="500.14" cy="96.41" r="22.55" transform="matrix(1, -0.02, 0.02, 1, -1.73, 9.48)"/><path class="cls-7" d="M490.65,95.38a10.19,10.19,0,1,0,11.25-9A10.18,10.18,0,0,0,490.65,95.38Z"/><circle class="cls-10" cx="454.99" cy="91.4" r="22.55" transform="translate(42.64 304.32) rotate(-38.67)"/><circle class="cls-7" cx="455.62" cy="91.49" r="10.18" transform="translate(-8.84 76.11) rotate(-9.46)"/><path class="cls-13" d="M533.66,119.72a6.82,6.82,0,1,0,7.53-6A6.82,6.82,0,0,0,533.66,119.72Z"/><path class="cls-13" d="M403.6,105.29a6.82,6.82,0,1,0,7.52-6A6.82,6.82,0,0,0,403.6,105.29Z"/><path class="cls-7" d="M469.75,139.64a62.46,62.46,0,0,0,13.75.25,66.06,66.06,0,0,0,21.78-5.66,4.12,4.12,0,0,0-3.67-7.38,59.59,59.59,0,0,1-18.93,4.84,55.68,55.68,0,0,1-12.07-.2,49.81,49.81,0,0,1-26.51-12.13,4.12,4.12,0,0,0-5.39,6.23A58.1,58.1,0,0,0,469.75,139.64Z"/><path class="cls-13" d="M441.56,121.28a1.23,1.23,0,0,1,.64.28,52.48,52.48,0,0,0,28,12.81,57.78,57.78,0,0,0,12.71.22,62,62,0,0,0,20-5.13,1.2,1.2,0,0,1,1.62.54,1.21,1.21,0,0,1-.54,1.63A63.38,63.38,0,0,1,483.24,137a60.29,60.29,0,0,1-13.12-.24,55.37,55.37,0,0,1-29.51-13.36,1.21,1.21,0,0,1,.95-2.12m.75-5.77a7,7,0,0,0-5.51,12.28,61.07,61.07,0,0,0,32.57,14.74,65.9,65.9,0,0,0,14.4.26,68.35,68.35,0,0,0,22.8-5.95,7,7,0,0,0-6.24-12.6,57,57,0,0,1-17.91,4.55A52.44,52.44,0,0,1,471,128.6a46.85,46.85,0,0,1-25-11.44,7,7,0,0,0-3.7-1.65Z"/><polygon class="cls-10" points="283.82 100.85 292.18 105.9 290.1 93.75 283.82 100.85"/><polygon class="cls-10" points="302.92 96.5 304.81 103.96 307.4 95.69 302.92 96.5"/><polygon class="cls-10" points="324.47 94.65 317.93 105.72 332.82 99.66 324.47 94.65"/></g></g></svg>