<svg xmlns="http://www.w3.org/2000/svg" viewBox="0 0 400.63 491.24"><defs><style>.cls-1{fill:#d63636;}.cls-2{fill:#f2b446;}.cls-3{fill:#a22;}.cls-4{opacity:0.22;}.cls-5{fill:#6d3b19;}.cls-6{fill:#b7632a;}.cls-7{fill:#cc6e2e;}.cls-8{fill:#fff;}.cls-9{fill:#ce5a28;}.cls-10{opacity:0.37;}.cls-11{fill:#e4e5e2;}.cls-12{fill:#a85e5e;}.cls-13{fill:#720e0e;}</style></defs><g id="Camada_2" data-name="Camada 2"><g id="Layer_1" data-name="Layer 1"><path class="cls-1" d="M42.26,187.38l-1.79-3c.65-.38,64.84-39.45,86.74-114.15,12.26-41.82,38.17-68,69.32-70.11,28.81-1.92,56.12,18.05,71.31,52.16C306,137.88,315.57,156.93,360,183.58l-1.79,3C313,159.45,302.39,138.42,264.66,53.7,250.08,21,224.06,1.76,196.76,3.6c-29.63,2-54.38,27.26-66.22,67.62C108.25,147.27,42.91,187,42.26,187.38Z"/><ellipse class="cls-2" cx="20.55" cy="208.05" rx="19.46" ry="17.83" transform="translate(-188.5 209.47) rotate(-84.75)"/><path class="cls-3" d="M11,195.89l.52.92,25.19-14.05-.52-.92a2.06,2.06,0,1,1,3.6-2l5.54,9.94a2.06,2.06,0,0,1-3.59,2l-.51-.92L16,204.91l.51.92a2.06,2.06,0,0,1-3.59,2l-5.55-10a2.05,2.05,0,1,1,3.59-2Z"/><g class="cls-4"><ellipse cx="205.49" cy="479.19" rx="135.1" ry="12.05"/></g><path class="cls-5" d="M198.23,278.62a5.82,5.82,0,0,0-5.06,5.92s4.75-5.68,9.8-5.68.95-5.57.95-5.57Z"/><path class="cls-6" d="M77.41,349.61q6.86-16.35,13.69-32.72A90.57,90.57,0,0,1,37.43,214.66L2.72,207.34A126,126,0,0,0,77.41,349.61Z"/><ellipse class="cls-2" cx="380.08" cy="208.05" rx="17.83" ry="19.46" transform="matrix(1, -0.09, 0.09, 1, -17.45, 35.67)"/><path class="cls-6" d="M323.22,349.61q-6.86-16.35-13.69-32.72A90.57,90.57,0,0,0,363.2,214.66l34.71-7.32A126,126,0,0,1,323.22,349.61Z"/><path class="cls-2" d="M331.43,299.91c0,.84,0,1.67,0,2.51H64c0-.84,0-1.67,0-2.51a133.21,133.21,0,0,1,28.19-82.14,134.9,134.9,0,0,1,16.93-18A133.75,133.75,0,0,1,285,198.6a134.77,134.77,0,0,1,18.09,19A133.09,133.09,0,0,1,331.43,299.91Z"/><rect class="cls-2" x="125.02" y="378.65" width="35.67" height="67.92" rx="14.01" transform="translate(188.61 -21.62) rotate(25.11)"/><rect class="cls-2" x="237.71" y="378.65" width="35.67" height="67.92" rx="14.01" transform="translate(-125.24 111.69) rotate(-19.91)"/><path class="cls-7" d="M331.43,302.42V336a81.5,81.5,0,0,1-.52,9.16,80.22,80.22,0,0,1-64.73,69.68,80.56,80.56,0,0,1-15,1.4h-107a80.17,80.17,0,0,1-79.75-71.33,82,82,0,0,1-.49-8.91V302.42Z"/><path class="cls-2" d="M111,166.17s42.64-1.52,46.94,14.42l16.42-1.52S167.54,155.17,111,166.17Z"/><path class="cls-2" d="M140.33,139s34.31,25.37,27.74,40.51l13.8,9S191.42,165.63,140.33,139Z"/><path class="cls-2" d="M172.24,141.42s12.33,27.43,3.07,34.47l5.36,10.32S194.46,175.39,172.24,141.42Z"/><path class="cls-6" d="M330.91,345.13l-33.25-22.07L264.2,345.22l-33.31-22.11-33.37,22.11-33.38-22.16-33.39,22.16L97.37,323.06,64.42,344.88a82,82,0,0,1-.49-8.91v-3.34l33.44-22.1,33.38,22.11,33.39-22.11,33.34,22.09,33.34-22.09,33.38,22.11,33.46-22.11L331,332.64l.39-.26Z"/><path class="cls-6" d="M297.66,340.07,264.2,362.18l-33.38-22.11-33.34,22.08-33.34-22.08-33.39,22.11L97.37,340.07,67.53,359.79a80,80,0,0,0,3.86,10l26-17.2,33.38,22.16,33.39-22.16,33.38,22.16,33.37-22.11,33.31,22.11,33.46-22.16L323.87,370a80.42,80.42,0,0,0,3.89-10Z"/><path class="cls-8" d="M197.87,238.73a23.48,23.48,0,0,1-4.1,13.28,48.7,48.7,0,0,0-14.52-4.75,41.06,41.06,0,0,0-9.07-.39,39.53,39.53,0,0,0-15.67,4.45,23.51,23.51,0,1,1,43.36-12.59Z"/><path class="cls-5" d="M185.74,237.47a10.63,10.63,0,0,1-6.49,9.79,41.06,41.06,0,0,0-9.07-.39,10.62,10.62,0,1,1,15.56-9.4Z"/><path class="cls-8" d="M245.23,238.73a23.4,23.4,0,0,1-3.78,12.79,47.82,47.82,0,0,0-14.53-4.4,40.79,40.79,0,0,0-9.19-.16,39.52,39.52,0,0,0-15.51,4.89,23.5,23.5,0,1,1,43-13.12Z"/><path class="cls-5" d="M233.1,237.47a10.62,10.62,0,0,1-6.18,9.65,40.79,40.79,0,0,0-9.19-.16,10.62,10.62,0,1,1,15.37-9.49Z"/><path class="cls-7" d="M137,259a7.11,7.11,0,1,1-7.11-7.11A7.11,7.11,0,0,1,137,259Z"/><path class="cls-7" d="M273.37,259a7.11,7.11,0,1,1-7.1-7.11A7.1,7.1,0,0,1,273.37,259Z"/><path class="cls-5" d="M164.59,266.33h65.94a7.76,7.76,0,0,1,5.34,13.4C230.09,285.07,219,290,197.56,290s-32.52-4.91-38.3-10.25A7.75,7.75,0,0,1,164.59,266.33Z"/><path class="cls-9" d="M217.57,285.2c0,3.64-8.93,6.58-19.93,6.58s-19.93-2.94-19.93-6.58,8.92-6.58,19.93-6.58S217.57,281.57,217.57,285.2Z"/><path class="cls-7" d="M197.56,293.45c-19,0-32.64-3.75-40.66-11.16A11.08,11.08,0,0,1,154.1,270a11.2,11.2,0,0,1,10.49-7.18h65.94A11.22,11.22,0,0,1,241,270a11.08,11.08,0,0,1-2.8,12.26C230.2,289.7,216.52,293.45,197.56,293.45Zm-33-23.65a4.26,4.26,0,0,0-4,2.77,4.13,4.13,0,0,0,1,4.61c4.61,4.25,14.59,9.32,35.95,9.32s31.34-5.07,35.95-9.32a4.1,4.1,0,0,0,1-4.61,4.23,4.23,0,0,0-4-2.77Z"/><g class="cls-10"><path d="M303.08,217.58a450.77,450.77,0,0,0-206.92.19,8.89,8.89,0,0,1-4,0,134.9,134.9,0,0,1,16.93-18A468.14,468.14,0,0,1,285,198.6,134.77,134.77,0,0,1,303.08,217.58Z"/></g><path class="cls-11" d="M295.35,191.73a5.6,5.6,0,0,1-.22,1.56,5.85,5.85,0,0,1-1.1,2.15,6.48,6.48,0,0,1-6.66,2.23,361,361,0,0,0-178.31,0,6.66,6.66,0,0,1-1.59.2,6.47,6.47,0,0,1-5.07-2.43,6,6,0,0,1-1.1-2.15,6.31,6.31,0,0,1,4.69-7.67,373.51,373.51,0,0,1,184.45,0A6.42,6.42,0,0,1,295.35,191.73Z"/><path class="cls-12" d="M294,195.44a6.48,6.48,0,0,1-6.66,2.23,361,361,0,0,0-178.31,0,6.66,6.66,0,0,1-1.59.2,6.47,6.47,0,0,1-5.07-2.43A6.58,6.58,0,0,1,106,193.1a373.27,373.27,0,0,1,184.45,0A6.51,6.51,0,0,1,294,195.44Z"/><path class="cls-11" d="M298.78,198.46a411.13,411.13,0,0,0-201.83,0,7.52,7.52,0,0,0-5.6,9.14,7.62,7.62,0,0,0,9.24,5.23,396.19,396.19,0,0,1,194.55,0,7.64,7.64,0,0,0,9.25-5.23A7.52,7.52,0,0,0,298.78,198.46Z"/><path class="cls-3" d="M393.26,197.89l-5.55,9.94a2.05,2.05,0,1,1-3.59-2l.52-.92-6.51-3.62L363.31,193l-3.87-2.16-.51.93a2.06,2.06,0,1,1-3.59-2l5.54-9.94a2.06,2.06,0,1,1,3.6,2l-.52.92,6.12,3.41,6.63,3.7,12.45,6.94.5-.93a2.09,2.09,0,0,1,2.81-.79A2.06,2.06,0,0,1,393.26,197.89Z"/><path class="cls-13" d="M378.13,201.29,363.31,193a11.25,11.25,0,0,1,5.86-6.44c.32-.15.62-.29.91-.41l6.63,3.7C377,193.08,376.71,197.47,378.13,201.29Z"/><path class="cls-13" d="M22.47,201.29,37.3,193a11.28,11.28,0,0,0-5.86-6.44c-.32-.15-.62-.29-.91-.41l-6.63,3.7C23.64,193.08,23.89,197.47,22.47,201.29Z"/><path class="cls-2" d="M362.7,212.17s-7.13-19.89,4.9-25.59,4.67,8.44,10.1,17l-6.32,8.89Z"/><path class="cls-2" d="M37.93,212.17s7.13-19.89-4.9-25.59-4.67,8.44-10.1,17l6.32,8.89Z"/><path class="cls-5" d="M199.13,278.17a6.15,6.15,0,0,0-5.35,6.26s5-6,10.38-6,1-5.9,1-5.9Z"/></g></g></svg>