<svg xmlns="http://www.w3.org/2000/svg" viewBox="0 0 309.72 328.03"><defs><style>.cls-1{opacity:0.22;}.cls-2{fill:#2d4b87;}.cls-3{fill:#1b3760;}.cls-4{fill:#426996;}.cls-5{fill:#10213a;}.cls-6{fill:#162c51;}</style></defs><g id="Camada_2" data-name="Camada 2"><g id="Layer_1" data-name="Layer 1"><g class="cls-1"><ellipse cx="154.86" cy="314.22" rx="154.86" ry="13.81"/></g><path class="cls-2" d="M308.86,172.08c0,1,0,1.91,0,2.87H2.27c0-1,0-1.91,0-2.87a153.31,153.31,0,0,1,306.62,0Z"/><path class="cls-3" d="M308.86,175v39.11h0a87.31,87.31,0,0,1-.56,9.61,1.79,1.79,0,0,1,0,.24c-.06.54-.13,1.07-.2,1.59-.21,1.56-.45,3.09-.72,4.62q-.74,3.93-1.78,7.76l-.39,1.34c-.16.59-.34,1.17-.52,1.75-.55,1.76-1.17,3.51-1.82,5.22-.72,1.91-1.52,3.78-2.37,5.63q-.12.3-.27.6a91.83,91.83,0,0,1-83.33,53H94.22A93.63,93.63,0,0,1,77,303.79a92.13,92.13,0,0,1-66.24-51.6c-.06-.13-.12-.25-.17-.38a89.28,89.28,0,0,1-4.26-11.1c-.15-.49-.3-1-.45-1.49a91.29,91.29,0,0,1-2.16-9.1c-.28-1.53-.52-3.06-.72-4.62-.08-.62-.16-1.24-.23-1.87a88.94,88.94,0,0,1-.55-9.57c0-.22,0-.44,0-.65V175Z"/><circle class="cls-2" cx="91.12" cy="293.44" r="27.12"/><circle class="cls-2" cx="221.16" cy="293.44" r="27.12"/><circle class="cls-4" cx="77.8" cy="125.21" r="8.15"/><circle class="cls-4" cx="234.17" cy="125.21" r="8.15"/><path class="cls-4" d="M182.06,104.57c-7.28,0-15.42-2.66-23.46-10.66a2.61,2.61,0,0,1,3.68-3.7c20.33,20.21,40.92.81,41.78,0a2.61,2.61,0,0,1,3.64,3.74C207.53,94.09,196.49,104.57,182.06,104.57Z"/><path class="cls-4" d="M126.19,104.41c-7.27,0-15.41-2.66-23.46-10.66a2.61,2.61,0,1,1,3.68-3.7c20.33,20.21,40.92.81,41.78,0a2.61,2.61,0,0,1,3.64,3.75C151.66,93.93,140.62,104.41,126.19,104.41Z"/><path class="cls-5" d="M156.69,143.81A75.16,75.16,0,0,1,140.35,142a79.07,79.07,0,0,1-24.93-10.06,4.93,4.93,0,0,1,5.49-8.18,71.25,71.25,0,0,0,21.68,8.65A66.18,66.18,0,0,0,156.93,134a59.45,59.45,0,0,0,33.27-10.29,4.93,4.93,0,0,1,5.43,8.22A69.53,69.53,0,0,1,156.69,143.81Z"/><path class="cls-4" d="M192.91,126.38a1.45,1.45,0,0,1,.81,2.66,66.13,66.13,0,0,1-37,11.29,71.91,71.91,0,0,1-15.59-1.74A75.19,75.19,0,0,1,117.36,129a1.45,1.45,0,1,1,1.62-2.4,73.89,73.89,0,0,0,22.86,9.15,69.43,69.43,0,0,0,15.09,1.71,62.71,62.71,0,0,0,35.19-10.87,1.43,1.43,0,0,1,.79-.24m0-6.95h0a8.31,8.31,0,0,0-4.63,1.4,56.08,56.08,0,0,1-31.35,9.7A63.06,63.06,0,0,1,143.34,129a67.76,67.76,0,0,1-20.52-8.17,8.41,8.41,0,0,0-9.34,14,81.91,81.91,0,0,0,26.11,10.57,79.09,79.09,0,0,0,17.1,1.9,72.9,72.9,0,0,0,40.86-12.44,8.4,8.4,0,0,0-4.64-15.41Z"/><path class="cls-6" d="M293.92,192.79a26.82,26.82,0,0,1-21.23,0,38.32,38.32,0,0,0-29.87,0,26.82,26.82,0,0,1-21.23,0,38.35,38.35,0,0,0-29.88,0,26.8,26.8,0,0,1-21.22,0,38.35,38.35,0,0,0-29.88,0A23.54,23.54,0,0,1,130,195a23.55,23.55,0,0,1-10.62-2.19,34.62,34.62,0,0,0-14.94-3,34.56,34.56,0,0,0-14.93,3A23.55,23.55,0,0,1,78.89,195a23.54,23.54,0,0,1-10.61-2.19,34.62,34.62,0,0,0-14.94-3,34.65,34.65,0,0,0-14.94,3A23.47,23.47,0,0,1,27.79,195a23.55,23.55,0,0,1-10.62-2.19,34.56,34.56,0,0,0-14.93-3v11.43a23.55,23.55,0,0,1,10.61,2.18,34.44,34.44,0,0,0,14.94,3,34.44,34.44,0,0,0,14.94-3,23.55,23.55,0,0,1,10.61-2.18A23.57,23.57,0,0,1,64,203.37a34.39,34.39,0,0,0,14.93,3,34.44,34.44,0,0,0,14.94-3,23.55,23.55,0,0,1,10.61-2.18,23.57,23.57,0,0,1,10.62,2.18,34.44,34.44,0,0,0,14.94,3,34.39,34.39,0,0,0,14.93-3,26.93,26.93,0,0,1,21.23,0,38.23,38.23,0,0,0,29.88,0,26.93,26.93,0,0,1,21.23,0,38.21,38.21,0,0,0,29.87,0,26.93,26.93,0,0,1,21.23,0,38.21,38.21,0,0,0,29.87,0,23.57,23.57,0,0,1,10.62-2.18V189.76A34.62,34.62,0,0,0,293.92,192.79Z"/><path class="cls-6" d="M308.85,214.06a92.52,92.52,0,0,1-.56,9.61,2.12,2.12,0,0,0,0,.24c-.07.54-.13,1.07-.2,1.59a23.38,23.38,0,0,0-9.83,2.18,38.32,38.32,0,0,1-29.87,0,26.82,26.82,0,0,0-21.23,0,38.32,38.32,0,0,1-29.87,0,26.82,26.82,0,0,0-21.23,0,38.35,38.35,0,0,1-29.88,0,26.8,26.8,0,0,0-21.22,0,34.65,34.65,0,0,1-14.94,3,34.62,34.62,0,0,1-14.94-3,23.55,23.55,0,0,0-10.62-2.19,23.54,23.54,0,0,0-10.61,2.19,34.56,34.56,0,0,1-14.93,3,34.7,34.7,0,0,1-15-3,23.54,23.54,0,0,0-10.61-2.19,23.47,23.47,0,0,0-10.61,2.19,34.62,34.62,0,0,1-14.94,3,34.62,34.62,0,0,1-14.94-3A23.15,23.15,0,0,0,3,225.5c-.08-.62-.16-1.24-.23-1.87a94.41,94.41,0,0,1-.55-9.57,34.48,34.48,0,0,1,14.94,3,23.55,23.55,0,0,0,10.61,2.18A23.49,23.49,0,0,0,38.4,217.1a34.44,34.44,0,0,1,14.94-3,34.44,34.44,0,0,1,14.94,3,23.57,23.57,0,0,0,10.62,2.18,23.55,23.55,0,0,0,10.61-2.18,34.39,34.39,0,0,1,14.93-3,34.44,34.44,0,0,1,14.94,3A23.57,23.57,0,0,0,130,219.28a23.52,23.52,0,0,0,10.61-2.18,38.21,38.21,0,0,1,29.87,0,27,27,0,0,0,21.24,0,38.21,38.21,0,0,1,29.87,0,26.93,26.93,0,0,0,21.23,0,38.21,38.21,0,0,1,29.87,0,26.93,26.93,0,0,0,21.23,0A34.42,34.42,0,0,1,308.85,214.06Z"/><path class="cls-6" d="M305.18,239.22c-.17.59-.34,1.17-.52,1.75-.56,1.76-1.17,3.51-1.82,5.22-.73,1.91-1.53,3.78-2.37,5.63-.74.26-1.46.56-2.23.87a38.21,38.21,0,0,1-29.87,0,26.93,26.93,0,0,0-21.23,0,38.21,38.21,0,0,1-29.87,0,26.93,26.93,0,0,0-21.23,0,38.23,38.23,0,0,1-29.88,0,26.91,26.91,0,0,0-21.22,0,34.48,34.48,0,0,1-14.94,3,34.44,34.44,0,0,1-14.94-3,23.57,23.57,0,0,0-10.62-2.18,23.55,23.55,0,0,0-10.61,2.18,34.39,34.39,0,0,1-14.93,3,34.53,34.53,0,0,1-15-3,23.55,23.55,0,0,0-10.61-2.18,23.49,23.49,0,0,0-10.61,2.18,34.44,34.44,0,0,1-14.94,3,34.44,34.44,0,0,1-14.94-3c-.76-.32-1.49-.61-2.24-.88a89.23,89.23,0,0,1-4.25-11.1c-.15-.49-.31-1-.45-1.49a34.57,34.57,0,0,1,11.27,2.89,23.55,23.55,0,0,0,10.61,2.18,23.49,23.49,0,0,0,10.61-2.18,34.62,34.62,0,0,1,14.94-3,34.62,34.62,0,0,1,14.94,3,23.57,23.57,0,0,0,10.62,2.18,23.55,23.55,0,0,0,10.61-2.18,34.56,34.56,0,0,1,14.93-3,34.62,34.62,0,0,1,14.94,3A23.57,23.57,0,0,0,130,244.29a23.52,23.52,0,0,0,10.61-2.18,38.32,38.32,0,0,1,29.87,0,27,27,0,0,0,21.24,0,38.32,38.32,0,0,1,29.87,0,26.93,26.93,0,0,0,21.23,0,38.32,38.32,0,0,1,29.87,0,26.93,26.93,0,0,0,21.23,0A34.5,34.5,0,0,1,305.18,239.22Z"/><g class="cls-1"><path d="M308.86,180.72v33.34h0a87.31,87.31,0,0,1-.56,9.61,1.79,1.79,0,0,1,0,.24c-.06.54-.13,1.07-.2,1.59-.21,1.56-.45,3.09-.72,4.62L233.4,283,230.1,285a20.43,20.43,0,0,1-23.38-32.66l-.21-.29,3.08-2.21,96.53-69.09Z"/></g><circle class="cls-2" cx="221.49" cy="260.66" r="20.44" transform="translate(-118.57 297.58) rotate(-55.84)"/><path class="cls-6" d="M308.86,175V213.4a91.81,91.81,0,0,1-.57,10.27l-78,55.82-23.8-33.24L306.12,175Z"/><g class="cls-1"><path d="M106.23,278.33A20.43,20.43,0,0,1,81,285L77.69,283,3.75,230.12c-.39-2.14-.71-4.31-1-6.49a93.39,93.39,0,0,1-.56-10.23V180.72H5l96.53,69.09h0l3.08,2.2-.21.29A20.44,20.44,0,0,1,106.23,278.33Z"/></g><circle class="cls-2" cx="89.61" cy="260.66" r="20.44" transform="translate(-186.03 260.79) rotate(-71.05)"/><path class="cls-6" d="M2.24,175V213.4a94.26,94.26,0,0,0,.56,10.27l78,55.82,23.8-33.24L5,175Z"/><path class="cls-3" d="M73.45,37.79c-2.07-7.38-7.23-21.44-17.64-27.63A4.43,4.43,0,0,1,57.1,2C71.76-1.23,95.62-1.7,120.87,17.76a4.44,4.44,0,0,1-1.12,7.67L79.29,40.75A4.43,4.43,0,0,1,73.45,37.79Z"/><path class="cls-6" d="M131,27.9,76.36,48.1a6.09,6.09,0,0,1-7.82-3.61h0a6.08,6.08,0,0,1,3.6-7.82l54.67-20.19a6.09,6.09,0,0,1,7.82,3.6h0A6.08,6.08,0,0,1,131,27.9Z"/><circle class="cls-6" cx="51.01" cy="6.79" r="6.79" transform="translate(13.35 41.86) rotate(-50.55)"/></g></g></svg>