<svg xmlns="http://www.w3.org/2000/svg" viewBox="0 0 311.66 336.95"><defs><style>.cls-1{opacity:0.22;}.cls-2{fill:#f2b446;}.cls-3{fill:#cc6e2e;}.cls-4{fill:#b7632a;}.cls-5{fill:#914e22;}.cls-6{fill:#ed9b5f;}.cls-7{opacity:0.37;}.cls-10,.cls-11,.cls-8,.cls-9{fill:none;stroke-linecap:round;stroke-miterlimit:10;}.cls-10,.cls-8,.cls-9{stroke:#fff;}.cls-8{stroke-width:7.94px;}.cls-9{stroke-width:4.09px;}.cls-10{stroke-width:2.45px;}.cls-11{stroke:#cc6e2e;stroke-width:5.16px;}.cls-12{fill:#6d3b19;}.cls-13{fill:#ce5a28;}</style></defs><g id="Camada_2" data-name="Camada 2"><g id="Layer_1" data-name="Layer 1"><ellipse class="cls-1" cx="158.58" cy="323.3" rx="153.09" ry="13.65"/><path class="cls-2" d="M310.81,182.78c0,.95,0,1.89,0,2.84H7.73c0-1,0-1.89,0-2.84a151.56,151.56,0,1,1,303.11,0Z"/><path class="cls-3" d="M7.7,185.62H310.81v38a90.44,90.44,0,0,1-3.25,24.19q-.42,1.55-.9,3.06c-.55,1.74-1.15,3.47-1.8,5.17-.79,2.09-1.67,4.14-2.61,6.15a90.75,90.75,0,0,1-82.37,52.36H98.62A90.78,90.78,0,0,1,16.15,262a90.25,90.25,0,0,1-7.9-28.23,93.71,93.71,0,0,1-.55-10.11Z"/><path class="cls-2" d="M62.11,30.75S110.43,29,115.29,47.08l18.61-1.72S126.17,18.28,62.11,30.75Z"/><path class="cls-2" d="M95.34,0s38.88,28.75,31.43,45.9l15.64,10.25S153.23,30.14,95.34,0Z"/><path class="cls-2" d="M131.5,2.7s14,31.08,3.48,39.06l6.07,11.69S156.67,41.2,131.5,2.7Z"/><path class="cls-4" d="M310.23,234l-37.68-25-37.91,25.11-37.75-25.05-37.82,25.05L121.24,209,83.41,234.12,45.59,209,8.25,233.73a93.53,93.53,0,0,1-.55-10.1v-3.78l37.89-25,37.82,25.05,37.83-25.05,37.78,25,37.79-25,37.83,25.05,37.91-25.05,37.83,25.05.43-.29Z"/><path class="cls-4" d="M272.55,228.28l-37.91,25.06-37.83-25.06-37.79,25-37.78-25L83.41,253.34,45.59,228.28,11.77,250.63A90.13,90.13,0,0,0,16.15,262l29.44-19.49,37.82,25.11,37.83-25.11,37.83,25.11,37.82-25,37.75,25,37.91-25.11,29.7,19.72a89.06,89.06,0,0,0,4.41-11.32Z"/><path class="cls-5" d="M130.09,212s-19.72,8.25-19.72,19.49S120.92,241,123.21,241,130.09,237.8,130.09,212Z"/><path class="cls-5" d="M179.54,212s19.72,8.25,19.72,19.49S188.71,241,186.42,241,179.54,237.8,179.54,212Z"/><ellipse class="cls-5" cx="135.79" cy="172.62" rx="11.09" ry="9.28" transform="translate(-68.11 91.02) rotate(-30)"/><path class="cls-6" d="M144.52,168.58c2.15,3.74.28,8.87-4.18,11.44s-9.84,1.64-12-2.1-.29-8.86,4.18-11.44S142.36,164.84,144.52,168.58Z"/><ellipse class="cls-5" cx="181.95" cy="172.62" rx="9.28" ry="11.09" transform="translate(-58.51 243.88) rotate(-60)"/><path class="cls-6" d="M173.5,168.58c-2.16,3.74-.29,8.87,4.18,11.44s9.83,1.64,12-2.1.29-8.86-4.17-11.44S175.66,164.84,173.5,168.58Z"/><path class="cls-5" d="M183.39,209.61l-24-10.66-24,10.66s-7.39,11-7.39,33.69,6.76,28.37,31.4,28.37,31.41-5.67,31.41-28.37S183.39,209.61,183.39,209.61Z"/><ellipse class="cls-5" cx="159.37" cy="193.85" rx="35.19" ry="26.65"/><ellipse class="cls-6" cx="159.37" cy="205.77" rx="18.11" ry="13.71"/><circle class="cls-6" cx="141.26" cy="186.85" r="4.47"/><circle class="cls-6" cx="177.48" cy="186.85" r="4.47"/><circle class="cls-5" cx="136.79" cy="262.21" r="12.89" transform="translate(-89.93 72.31) rotate(-22.5)"/><circle class="cls-5" cx="181.95" cy="262.21" r="12.89" transform="translate(-86.49 89.59) rotate(-22.5)"/><circle class="cls-6" cx="136.79" cy="262.21" r="9.94" transform="translate(-89.93 72.31) rotate(-22.5)"/><circle class="cls-6" cx="181.95" cy="262.21" r="9.94" transform="translate(-86.49 89.59) rotate(-22.5)"/><path class="cls-5" d="M159.37,195.85s-7.76-.26-7.76,4.82,7.76,7.13,7.76,7.13,7.77-2.06,7.77-7.13S159.37,195.85,159.37,195.85Z"/><circle class="cls-2" cx="95.57" cy="302.75" r="26.81" transform="translate(-218.58 348.59) rotate(-80.78)"/><circle class="cls-2" cx="224.12" cy="302.75" r="26.81" transform="translate(-110.62 475.49) rotate(-80.78)"/><path class="cls-7" d="M185.32,215.63H310.81v8a90.44,90.44,0,0,1-3.25,24.19q-.42,1.55-.9,3.06c-.55,1.74-1.15,3.47-1.8,5.17H185.32a20.6,20.6,0,0,1-16.46-20.21A20.2,20.2,0,0,1,185.32,216Z"/><path class="cls-7" d="M133.19,215.63H7.7v8A93.83,93.83,0,0,0,8.28,234,91,91,0,0,0,11,247.82q.42,1.55.9,3.06c.55,1.74,1.15,3.47,1.8,5.17H133.19a20.6,20.6,0,0,0,16.46-20.21A20.2,20.2,0,0,0,133.19,216Z"/><circle class="cls-2" cx="183.9" cy="228.28" r="20.21"/><path class="cls-4" d="M180.16,208.08H310.81v15.55a90.44,90.44,0,0,1-3.25,24.19,13.08,13.08,0,0,1-4.18.67H180.16Z"/><circle class="cls-2" cx="134.61" cy="228.28" r="20.21"/><path class="cls-4" d="M138.35,208.08H7.7v15.55A93.83,93.83,0,0,0,8.28,234,91,91,0,0,0,11,247.82a13.08,13.08,0,0,0,4.18.67H138.35Z"/><polyline class="cls-8" points="41.93 30.94 9.58 30.94 36.44 4.08 9.58 4.08"/><polyline class="cls-9" points="21.73 59.92 5.07 59.92 18.91 46.09 5.07 46.09"/><polyline class="cls-10" points="25.51 83.65 15.52 83.65 23.81 75.36 15.52 75.36"/><circle class="cls-3" cx="82.39" cy="136.45" r="8.05" transform="translate(-72.35 98.22) rotate(-45)"/><circle class="cls-3" cx="236.98" cy="136.45" r="8.05" transform="translate(64.33 348.51) rotate(-80.78)"/><path class="cls-11" d="M209,103.68s-22.72,22.07-44.92,0"/><path class="cls-11" d="M153.78,103.52s-22.72,22.06-44.92,0"/><ellipse class="cls-12" cx="159.37" cy="141.66" rx="28.05" ry="14.91"/><ellipse class="cls-13" cx="159.37" cy="149.12" rx="22.58" ry="7.46"/><path class="cls-3" d="M159.37,159.15c-17.17,0-30.63-7.68-30.63-17.49s13.46-17.49,30.63-17.49S190,131.85,190,141.66,176.55,159.15,159.37,159.15Zm0-29.82c-15.23,0-25.47,6.38-25.47,12.33S144.14,154,159.37,154s25.48-6.37,25.48-12.33S174.61,129.33,159.37,129.33Z"/><path class="cls-12" d="M160,141.66a6.6,6.6,0,0,0-5.74,6.71s5.39-6.44,11.12-6.44,1.07-6.31,1.07-6.31Z"/></g></g></svg>