<svg xmlns="http://www.w3.org/2000/svg" viewBox="0 0 486.03 175.54"><defs><style>.cls-1{opacity:0.22;}.cls-2{fill:#f2b446;}.cls-3{fill:#b7632a;}.cls-4{fill:#cc6e2e;}.cls-5{fill:#6d3b19;}.cls-6{fill:#fff;}.cls-7{fill:#2d4b87;}.cls-8{fill:#162c51;}.cls-9{fill:#1b3760;}.cls-10{fill:#10213a;}.cls-11{fill:#426996;}.cls-12{fill:#c33;}</style></defs><g id="Camada_2" data-name="Camada 2"><g id="Layer_1" data-name="Layer 1"><g class="cls-1"><path d="M237.56,77.6H223.2V75.47L229,69.68a42.55,42.55,0,0,0,3.47-3.79,9.3,9.3,0,0,0,1.25-2.22,6.24,6.24,0,0,0,.42-2.31A3.65,3.65,0,0,0,233,58.59a4,4,0,0,0-2.94-1,7.37,7.37,0,0,0-2.58.45,10.16,10.16,0,0,0-2.71,1.63L223.48,58a10.1,10.1,0,0,1,6.58-2.51A6.92,6.92,0,0,1,234.89,57a5.42,5.42,0,0,1,1.74,4.23,8.12,8.12,0,0,1-1.16,4.11,26.07,26.07,0,0,1-4.37,5.15l-4.78,4.67v.12h11.24Z"/><path d="M262.71,77.6V67a4.46,4.46,0,0,0-.83-2.94,3.26,3.26,0,0,0-2.6-1,4.23,4.23,0,0,0-3.43,1.33,6.38,6.38,0,0,0-1.1,4.1V77.6h-2.48V67a4.41,4.41,0,0,0-.84-2.94,3.27,3.27,0,0,0-2.62-1,4,4,0,0,0-3.41,1.4A7.58,7.58,0,0,0,244.32,69V77.6h-2.48V61.22h2l.41,2.24h.12a4.81,4.81,0,0,1,2-1.86,6,6,0,0,1,2.86-.68q3.84,0,5,2.78h.12a5.26,5.26,0,0,1,2.12-2,6.57,6.57,0,0,1,3.17-.75,5.55,5.55,0,0,1,4.16,1.43c.92.95,1.38,2.48,1.38,4.57V77.6Z"/></g><g class="cls-1"><ellipse cx="75.15" cy="168.84" rx="75.15" ry="6.7"/></g><path class="cls-2" d="M149.54,89.49c0,.46,0,.93,0,1.39H.77c0-.46,0-.93,0-1.39a74.4,74.4,0,1,1,148.79,0Z"/><circle class="cls-2" cx="10.67" cy="152.22" r="9.92"/><path class="cls-3" d="M20.59,154.05H.75V104a3.25,3.25,0,0,1,3.44-3l13,12.21a3.25,3.25,0,0,1,3.44,3Z"/><circle class="cls-2" cx="139.62" cy="153.27" r="9.92"/><path class="cls-3" d="M129.7,155.11h19.84V100.05a3.39,3.39,0,0,0-3.44-3.31l-13,13.42a3.39,3.39,0,0,0-3.44,3.31Z"/><rect class="cls-2" x="34.73" y="133.28" width="19.84" height="37.78" rx="7.79"/><rect class="cls-2" x="97.41" y="133.28" width="19.84" height="37.78" rx="7.79"/><path class="cls-4" d="M149.54,90.88v18.66a45.35,45.35,0,0,1-.28,5.1,44.6,44.6,0,0,1-44.35,39.53H45.38A44.51,44.51,0,0,1,4.9,128.36a46.14,46.14,0,0,1-2.15-5.57A44.7,44.7,0,0,1,1,114.5a45.25,45.25,0,0,1-.27-5V90.88Z"/><path class="cls-2" d="M26.93,15.09s23.72-.84,26.11,8l9.14-.84S58.38,9,26.93,15.09Z"/><path class="cls-2" d="M43.25,0S62.33,14.11,58.68,22.53l7.67,5S71.66,14.79,43.25,0Z"/><path class="cls-2" d="M61,1.33s6.85,15.25,1.7,19.17l3,5.74S73.35,20.22,61,1.33Z"/><path class="cls-3" d="M149.26,114.64l-18.5-12.28-18.61,12.33-18.53-12.3-18.56,12.3L56.49,102.36,37.92,114.69,19.35,102.36,1,114.5a47.87,47.87,0,0,1-.27-5v-1.86l18.6-12.29,18.57,12.3,18.57-12.3L75,107.68,93.58,95.39l18.57,12.3,18.61-12.3,18.57,12.3.21-.14Z"/><path class="cls-3" d="M130.76,111.82l-18.61,12.3-18.57-12.3L75,124.11,56.49,111.82l-18.57,12.3-18.57-12.3-16.6,11a46.14,46.14,0,0,0,2.15,5.57l14.45-9.57,18.57,12.33,18.57-12.33,18.57,12.33,18.56-12.3,18.53,12.3,18.61-12.33,14.58,9.68a44.44,44.44,0,0,0,2.16-5.56Z"/><circle class="cls-4" cx="37.42" cy="66.74" r="3.95"/><circle class="cls-4" cx="113.3" cy="66.74" r="3.95"/><path class="cls-5" d="M75.81,82.52a36.3,36.3,0,0,1-7.93-.88,38.52,38.52,0,0,1-12.1-4.88,2.39,2.39,0,0,1,1.34-4.38,2.37,2.37,0,0,1,1.33.41A34.6,34.6,0,0,0,69,77a31.67,31.67,0,0,0,7,.79,28.9,28.9,0,0,0,16.15-5,2.39,2.39,0,0,1,2.64,4A33.76,33.76,0,0,1,75.81,82.52Z"/><path class="cls-4" d="M93.39,74.07a.69.69,0,0,1,.58.32.69.69,0,0,1-.19,1,32.14,32.14,0,0,1-18,5.48A34.63,34.63,0,0,1,68.24,80a36.84,36.84,0,0,1-11.52-4.63.71.71,0,0,1,.79-1.17A35.86,35.86,0,0,0,68.6,78.63a33.89,33.89,0,0,0,7.32.83A30.43,30.43,0,0,0,93,74.19a.69.69,0,0,1,.39-.12m0-3.37h0a4.07,4.07,0,0,0-2.25.67,27.2,27.2,0,0,1-15.22,4.71,31,31,0,0,1-6.59-.74,33.21,33.21,0,0,1-10-4,4.08,4.08,0,0,0-5.64,1.12,4.09,4.09,0,0,0,1.11,5.66,40,40,0,0,0,12.67,5.13,38.52,38.52,0,0,0,8.3.92,35.38,35.38,0,0,0,19.83-6,4.07,4.07,0,0,0-2.25-7.47Z"/><circle class="cls-6" cx="62.18" cy="55.45" r="13.07"/><circle class="cls-5" cx="62.6" cy="54.75" r="5.9"/><circle class="cls-6" cx="88.52" cy="55.45" r="13.07"/><circle class="cls-5" cx="88.94" cy="54.75" r="5.9"/><g class="cls-1"><ellipse cx="410.88" cy="166.88" rx="75.15" ry="6.7"/></g><circle class="cls-7" cx="346.41" cy="150.26" r="9.92"/><path class="cls-8" d="M356.33,152.09H336.49V102a3.25,3.25,0,0,1,3.44-3l13,12.21a3.25,3.25,0,0,1,3.44,3Z"/><circle class="cls-7" cx="475.36" cy="151.31" r="9.92"/><path class="cls-8" d="M465.44,153.15h19.84V98.09a3.39,3.39,0,0,0-3.44-3.31l-13,13.42a3.39,3.39,0,0,0-3.44,3.31Z"/><path class="cls-7" d="M485.28,87.53c0,.46,0,.93,0,1.39H336.5c0-.46,0-.93,0-1.39a74.4,74.4,0,1,1,148.79,0Z"/><rect class="cls-7" x="370.47" y="131.32" width="19.84" height="37.78" rx="7.79"/><rect class="cls-7" x="433.15" y="131.32" width="19.84" height="37.78" rx="7.79"/><path class="cls-9" d="M485.28,88.92v18.66a44.54,44.54,0,0,1-44.64,44.63H381.12a44.54,44.54,0,0,1-44.63-44.63V88.92Z"/><path class="cls-8" d="M373.69,104.07a16.77,16.77,0,0,1-7.25-1.47,13,13,0,0,0-10.3,0,18.61,18.61,0,0,1-14.5,0,11.33,11.33,0,0,0-5.15-1.06V96a16.81,16.81,0,0,1,7.25,1.47,13,13,0,0,0,10.3,0,18.61,18.61,0,0,1,14.5,0,11.43,11.43,0,0,0,5.15,1.06Z"/><path class="cls-8" d="M398.48,104.07a16.75,16.75,0,0,1-7.24-1.47,13.06,13.06,0,0,0-10.31,0,16.72,16.72,0,0,1-7.24,1.47V98.52a11.46,11.46,0,0,0,5.15-1.06,18.59,18.59,0,0,1,14.49,0,13.06,13.06,0,0,0,10.31,0A16.72,16.72,0,0,1,410.88,96v5.55a11.33,11.33,0,0,0-5.15,1.06A16.77,16.77,0,0,1,398.48,104.07Z"/><path class="cls-8" d="M448.08,104.07a16.81,16.81,0,0,1-7.25-1.47,13,13,0,0,0-10.3,0,18.61,18.61,0,0,1-14.5,0,11.3,11.3,0,0,0-5.15-1.06V96a16.77,16.77,0,0,1,7.25,1.47,13,13,0,0,0,10.3,0,18.61,18.61,0,0,1,14.5,0,11.46,11.46,0,0,0,5.15,1.06Z"/><path class="cls-8" d="M472.88,104.07a16.81,16.81,0,0,1-7.25-1.47,13,13,0,0,0-10.3,0,16.77,16.77,0,0,1-7.25,1.47V98.52a11.43,11.43,0,0,0,5.15-1.06,18.61,18.61,0,0,1,14.5,0,13,13,0,0,0,10.3,0A16.77,16.77,0,0,1,485.28,96v5.55a11.3,11.3,0,0,0-5.15,1.06A16.81,16.81,0,0,1,472.88,104.07Z"/><path class="cls-8" d="M373.69,115.86a16.77,16.77,0,0,1-7.25-1.47,13,13,0,0,0-10.3,0,18.61,18.61,0,0,1-14.5,0,11.46,11.46,0,0,0-5.15-1.06v-5.55a16.78,16.78,0,0,1,7.25,1.48,13,13,0,0,0,10.3,0,18.5,18.5,0,0,1,14.5,0,11.43,11.43,0,0,0,5.15,1.06Z"/><path class="cls-8" d="M398.48,115.86a16.75,16.75,0,0,1-7.24-1.47,13.06,13.06,0,0,0-10.31,0,16.72,16.72,0,0,1-7.24,1.47v-5.54a11.46,11.46,0,0,0,5.15-1.06,18.47,18.47,0,0,1,14.49,0,13.06,13.06,0,0,0,10.31,0,16.69,16.69,0,0,1,7.24-1.48v5.55a11.46,11.46,0,0,0-5.15,1.06A16.77,16.77,0,0,1,398.48,115.86Z"/><path class="cls-8" d="M448.08,115.86a16.81,16.81,0,0,1-7.25-1.47,13,13,0,0,0-10.3,0,18.61,18.61,0,0,1-14.5,0,11.43,11.43,0,0,0-5.15-1.06v-5.55a16.74,16.74,0,0,1,7.25,1.48,13,13,0,0,0,10.3,0,18.5,18.5,0,0,1,14.5,0,11.46,11.46,0,0,0,5.15,1.06Z"/><path class="cls-8" d="M472.88,115.86a16.81,16.81,0,0,1-7.25-1.47,13,13,0,0,0-10.3,0,16.77,16.77,0,0,1-7.25,1.47v-5.54a11.43,11.43,0,0,0,5.15-1.06,18.5,18.5,0,0,1,14.5,0,13,13,0,0,0,10.3,0,16.74,16.74,0,0,1,7.25-1.48v5.55a11.43,11.43,0,0,0-5.15,1.06A16.81,16.81,0,0,1,472.88,115.86Z"/><path class="cls-8" d="M373.69,128a16.77,16.77,0,0,1-7.25-1.47,13,13,0,0,0-10.3,0,18.61,18.61,0,0,1-14.5,0,11.46,11.46,0,0,0-5.15-1.06v-5.55a16.81,16.81,0,0,1,7.25,1.47,12.93,12.93,0,0,0,10.3,0,18.61,18.61,0,0,1,14.5,0,11.28,11.28,0,0,0,5.15,1.07Z"/><path class="cls-8" d="M398.48,128a16.75,16.75,0,0,1-7.24-1.47,13.06,13.06,0,0,0-10.31,0,16.72,16.72,0,0,1-7.24,1.47v-5.54a11.32,11.32,0,0,0,5.15-1.07,18.59,18.59,0,0,1,14.49,0,13,13,0,0,0,10.31,0,16.72,16.72,0,0,1,7.24-1.47v5.55a11.46,11.46,0,0,0-5.15,1.06A16.77,16.77,0,0,1,398.48,128Z"/><path class="cls-8" d="M448.08,128a16.81,16.81,0,0,1-7.25-1.47,13,13,0,0,0-10.3,0,18.59,18.59,0,0,1-14.49,0,11.51,11.51,0,0,0-5.16-1.06v-5.55a16.77,16.77,0,0,1,7.25,1.47,12.93,12.93,0,0,0,10.3,0,18.61,18.61,0,0,1,14.5,0,11.32,11.32,0,0,0,5.15,1.07Z"/><path class="cls-8" d="M472.88,128a16.81,16.81,0,0,1-7.25-1.47,13,13,0,0,0-10.3,0,16.77,16.77,0,0,1-7.25,1.47v-5.54a11.28,11.28,0,0,0,5.15-1.07,18.61,18.61,0,0,1,14.5,0,12.93,12.93,0,0,0,10.3,0,16.77,16.77,0,0,1,7.25-1.47v5.55a11.43,11.43,0,0,0-5.15,1.06A16.81,16.81,0,0,1,472.88,128Z"/><path class="cls-10" d="M411.55,80.57a36.31,36.31,0,0,1-7.93-.89,38.52,38.52,0,0,1-12.1-4.88,2.39,2.39,0,0,1,1.33-4.38,2.32,2.32,0,0,1,1.33.41A34.9,34.9,0,0,0,404.7,75a32.42,32.42,0,0,0,7,.78,28.9,28.9,0,0,0,16.15-5,2.35,2.35,0,0,1,1.31-.4,2.39,2.39,0,0,1,1.32,4.39A33.71,33.71,0,0,1,411.55,80.57Z"/><path class="cls-11" d="M429.12,72.11a.7.7,0,0,1,.39,1.29,32.09,32.09,0,0,1-18,5.48A34.63,34.63,0,0,1,404,78a36.84,36.84,0,0,1-11.52-4.63.71.71,0,0,1,.39-1.29.69.69,0,0,1,.39.12,35.84,35.84,0,0,0,11.1,4.44,33.89,33.89,0,0,0,7.32.83,30.48,30.48,0,0,0,17.08-5.27.68.68,0,0,1,.38-.12m0-3.37h0a4,4,0,0,0-2.24.67,27.2,27.2,0,0,1-15.22,4.71,30.82,30.82,0,0,1-6.59-.74,32.91,32.91,0,0,1-10-4,4.08,4.08,0,0,0-4.53,6.78,39.5,39.5,0,0,0,12.67,5.13,38.38,38.38,0,0,0,8.3.92,35.33,35.33,0,0,0,19.82-6,4.07,4.07,0,0,0-2.25-7.47Z"/><path class="cls-10" d="M404.24,52.79a5.91,5.91,0,1,1-11.81,0,5.8,5.8,0,0,1,.3-1.83,32.61,32.61,0,0,1,7.48-3.77A5.92,5.92,0,0,1,404.24,52.79Z"/><path class="cls-10" d="M430.59,52.79a5.91,5.91,0,1,1-8.08-5.49,33.17,33.17,0,0,1,7.93,4.17A5.81,5.81,0,0,1,430.59,52.79Z"/><circle class="cls-11" cx="373.15" cy="64.78" r="3.95"/><circle class="cls-11" cx="449.03" cy="64.78" r="3.95"/><path class="cls-9" d="M370.19,22.25c-1-3.59-3.51-10.41-8.56-13.41a2.15,2.15,0,0,1,.63-3.95c7.11-1.58,18.69-1.8,30.94,7.64a2.15,2.15,0,0,1-.54,3.72L373,23.68A2.14,2.14,0,0,1,370.19,22.25Z"/><rect class="cls-8" x="366.75" y="16.62" width="34.19" height="5.91" rx="2.95" transform="translate(17 134.21) rotate(-20.27)"/><circle class="cls-8" cx="359.3" cy="7.2" r="3.3"/><g class="cls-1"><path d="M309.72,96.55a2.25,2.25,0,0,0-.05-.22.67.67,0,0,0-.05-.19,1.66,1.66,0,0,0-.12-.31h0l-4.64-8.62A1.94,1.94,0,0,0,301.44,89l3.11,5.77H187.28L190.39,89A1.94,1.94,0,0,0,187,87.2l-4.64,8.62h0a2.88,2.88,0,0,0-.13.31,1.29,1.29,0,0,0,0,.19,2.25,2.25,0,0,0,0,.22v.37a1.42,1.42,0,0,0,0,.22,1.77,1.77,0,0,0,0,.2,2.71,2.71,0,0,0,.13.3h0l4.64,8.63a2,2,0,0,0,1.7,1,1.9,1.9,0,0,0,.92-.23,1.94,1.94,0,0,0,.79-2.62l-3.11-5.77H304.55l-3.11,5.77a1.94,1.94,0,0,0,.79,2.62,1.9,1.9,0,0,0,.92.23,2,2,0,0,0,1.7-1l4.64-8.63h0a1.57,1.57,0,0,0,.12-.3.84.84,0,0,0,.05-.2,1.42,1.42,0,0,0,.05-.22v-.37Z"/></g><path class="cls-12" d="M309.72,94.59a1.6,1.6,0,0,0-.05-.21.65.65,0,0,0-.05-.2,1.66,1.66,0,0,0-.12-.31h0l-4.64-8.62a1.94,1.94,0,1,0-3.41,1.83l3.11,5.77H187.28l3.11-5.77A1.94,1.94,0,1,0,187,85.24l-4.64,8.62h0a2.88,2.88,0,0,0-.13.31,1.18,1.18,0,0,0,0,.2,1.6,1.6,0,0,0,0,.21V95a1.6,1.6,0,0,0,0,.21,1.77,1.77,0,0,0,0,.2c0,.1.08.21.13.31h0l4.64,8.63a1.93,1.93,0,0,0,1.7,1,1.9,1.9,0,0,0,.92-.23,1.94,1.94,0,0,0,.79-2.62l-3.11-5.77H304.55l-3.11,5.77a1.94,1.94,0,0,0,.79,2.62,1.9,1.9,0,0,0,.92.23,1.93,1.93,0,0,0,1.7-1l4.64-8.63h0a2,2,0,0,0,.12-.31.84.84,0,0,0,.05-.2,1.6,1.6,0,0,0,.05-.21v-.38Z"/><circle class="cls-6" cx="398.01" cy="54.29" r="13.07"/><circle class="cls-10" cx="398.43" cy="53.59" r="5.9"/><circle class="cls-6" cx="424.36" cy="54.29" r="13.07"/><circle class="cls-10" cx="424.78" cy="53.59" r="5.9"/><path class="cls-12" d="M237.56,75.56H223.2V73.43L229,67.64a42.55,42.55,0,0,0,3.47-3.79,9.3,9.3,0,0,0,1.25-2.22,6.28,6.28,0,0,0,.42-2.31A3.65,3.65,0,0,0,233,56.55a4,4,0,0,0-2.94-1,7.37,7.37,0,0,0-2.58.45,10.16,10.16,0,0,0-2.71,1.63l-1.32-1.69a10.1,10.1,0,0,1,6.58-2.51A6.92,6.92,0,0,1,234.89,55a5.42,5.42,0,0,1,1.74,4.23,8.12,8.12,0,0,1-1.16,4.11,25.79,25.79,0,0,1-4.37,5.14l-4.78,4.68v.12h11.24Z"/><path class="cls-12" d="M262.71,75.56V64.91a4.46,4.46,0,0,0-.83-2.94,3.26,3.26,0,0,0-2.6-1,4.2,4.2,0,0,0-3.43,1.33,6.38,6.38,0,0,0-1.1,4.1v9.14h-2.48V64.91a4.41,4.41,0,0,0-.84-2.94,3.27,3.27,0,0,0-2.62-1,4,4,0,0,0-3.41,1.4A7.58,7.58,0,0,0,244.32,67v8.59h-2.48V59.18h2l.41,2.24h.12a4.81,4.81,0,0,1,2-1.86,6,6,0,0,1,2.86-.68q3.84,0,5,2.78h.12a5.26,5.26,0,0,1,2.12-2,6.57,6.57,0,0,1,3.17-.75,5.55,5.55,0,0,1,4.16,1.43c.92.95,1.38,2.47,1.38,4.57V75.56Z"/></g></g></svg>