<svg xmlns="http://www.w3.org/2000/svg" viewBox="0 0 279.33 256"><defs><style>.cls-1{fill:#f2b446;}.cls-2{fill:#cc6e2e;}.cls-3{fill:#d6d6d6;}.cls-4{fill:#3f4c49;}.cls-5,.cls-8{fill:#9eafac;}.cls-6{fill:#9ae4fd;}.cls-7{fill:#686868;}.cls-8{opacity:0.61;}.cls-9{fill:#fff;opacity:0.53;}.cls-10{fill:#ccc;}.cls-11{fill:#0469ad;}.cls-12{fill:#b7632a;}</style></defs><g id="Camada_2" data-name="Camada 2"><g id="Layer_1" data-name="Layer 1"><path class="cls-1" d="M174.41,74.57s29.19-21,17.75-41-17.88,21.62-32.67,12.95l-9.05,29Z"/><path class="cls-2" d="M171.37,40a47,47,0,0,1,1.56,9.43c.15,3.21.21,6.43.31,9.64,0,1.25,2,1.26,1.95,0-.1-3.3-.15-6.62-.32-9.92a49.47,49.47,0,0,0-1.62-9.67,1,1,0,0,0-1.88.52Z"/><rect class="cls-3" x="47.04" y="-9.91" width="9.68" height="97.71" transform="translate(90.36 -13.28) rotate(89.49)"/><rect class="cls-4" x="51.99" y="-8.81" width="3.58" height="99.05" transform="translate(94.01 -13.42) rotate(89.49)"/><rect class="cls-5" x="-10.78" y="36.5" width="27.6" height="5.84" rx="2.06" transform="translate(42.42 36.05) rotate(89.49)"/><path class="cls-6" d="M196.48,52.69l-83.73.74L112.49,24l83.73-.75c5.07,0,5.56,4.7,7.68,8S216.32,34,216.32,34l.07,7.57s-10.32-.3-12.37,3S201.55,52.64,196.48,52.69Z"/><path class="cls-7" d="M108.78,24.22a2.56,2.56,0,0,1-3.44,0l.13,14.52,3.44,0Z"/><path class="cls-7" d="M109,53.25a2.57,2.57,0,0,0-3.44,0l-.13-14.51,3.44,0Z"/><rect x="94.82" y="36.53" width="32.56" height="4.38" rx="1.97" transform="translate(148.83 -72.73) rotate(89.49)"/><rect x="87" y="36.6" width="32.56" height="4.38" rx="1.97" transform="translate(141.15 -64.84) rotate(89.49)"/><path class="cls-8" d="M199.47,56,56.06,57.25l-.32-36.09,143.41-1.27c5.31-.05,5.84,5.75,8.06,9.77l0,0c2.25,4,9.07,2.66,9.07,2.66l.09,10.85s-6.89-1.2-9,2.86S204.79,55.94,199.47,56Z"/><path class="cls-9" d="M216.34,35.68,55.88,37.1,55.82,31,207.24,29.7c2.25,4,9.07,2.66,9.07,2.66Z"/><rect class="cls-5" x="30.59" y="36.06" width="44.76" height="5.84" rx="2.62" transform="translate(91.48 -14.34) rotate(89.49)"/><rect x="184.78" y="33.67" width="21.96" height="1.11" transform="translate(228.24 -161.84) rotate(89.49)"/><rect x="166.59" y="33.83" width="21.96" height="1.11" transform="translate(210.37 -143.48) rotate(89.49)"/><rect x="185.1" y="29.74" width="13.84" height="0.9" transform="matrix(0.01, 1, -1, 0.01, 220.51, -162.09)"/><rect x="181.51" y="29.78" width="13.84" height="0.9" transform="translate(216.98 -158.46) rotate(89.49)"/><rect x="177.91" y="29.81" width="13.84" height="0.9" transform="translate(213.45 -154.83) rotate(89.49)"/><rect x="174.31" y="29.84" width="13.84" height="0.9" transform="translate(209.91 -151.21) rotate(89.49)"/><rect x="148.39" y="33.99" width="21.96" height="1.11" transform="translate(192.5 -125.13) rotate(89.49)"/><rect x="166.91" y="29.91" width="13.84" height="0.9" transform="translate(202.64 -143.74) rotate(89.49)"/><rect x="163.31" y="29.94" width="13.84" height="0.9" transform="translate(199.11 -140.11) rotate(89.49)"/><rect x="159.72" y="29.97" width="13.84" height="0.9" transform="translate(195.58 -136.48) rotate(89.49)"/><rect x="156.12" y="30" width="13.84" height="0.9" transform="translate(192.04 -132.85) rotate(89.49)"/><rect x="129.68" y="34.16" width="21.96" height="1.11" transform="translate(174.12 -106.25) rotate(89.49)"/><rect x="148.19" y="30.07" width="13.84" height="0.9" transform="translate(184.26 -124.86) rotate(89.49)"/><rect x="144.6" y="30.1" width="13.84" height="0.9" transform="translate(180.73 -121.23) rotate(89.49)"/><rect x="141" y="30.13" width="13.84" height="0.9" transform="translate(177.19 -117.6) rotate(89.49)"/><rect x="137.4" y="30.17" width="13.84" height="0.9" transform="matrix(0.01, 1, -1, 0.01, 173.66, -113.97)"/><polygon class="cls-10" points="219.28 38.47 219.27 37.04 275.39 36.54 279.33 37.94 219.28 38.47"/><path class="cls-11" d="M228.66,37.67c0-5.55-10.17-6.05-10.17-6.05l0,6.14.06,6.15S228.71,43.23,228.66,37.67Z"/><rect class="cls-10" x="211.99" y="36.79" width="13.57" height="1.94" rx="0.87" transform="translate(254.59 -181.34) rotate(89.49)"/><rect class="cls-11" x="207.83" y="35.59" width="17.04" height="4.38" rx="1.91" transform="translate(252.22 -178.9) rotate(89.49)"/><path class="cls-1" d="M169.62,19.23C167.8,13.3,163.17,8.1,153.13,4.59,144.45,1.57,133-.18,120.54,0s-24,2.33-32.63,5.66c-9.8,3.82-14.85,9.94-15.83,15.07h0s-3.58,21.1-1.5,36.91c0,0,.23,16,.24,16.45.59,38.24,23.57,53.76,51.62,53.33,27.85-.44,50-31.33,49.71-69.19a7.73,7.73,0,0,0,.5-2.17C174.23,40.2,169.63,19.28,169.62,19.23Z"/><polygon class="cls-12" points="179.27 256 73.63 256 70.81 73.65 176.42 72.02 179.27 256"/></g></g></svg>