<svg xmlns="http://www.w3.org/2000/svg" viewBox="0 0 269.67 360.2"><defs><style>.cls-1{opacity:0.22;}.cls-2{fill:#2d4b87;}.cls-3{fill:#162c51;}.cls-4{fill:#1b3760;}.cls-5{fill:#10213a;}.cls-6{fill:#426996;}.cls-7{fill:#fff;}.cls-8{fill:#4e8cf9;}.cls-9{fill:#c12121;}.cls-10{fill:#a3c4a4;}.cls-11{fill:#ad80b9;}.cls-12{fill:#8b5b99;}.cls-13{fill:#6d1d61;}.cls-14{fill:#a8639e;}</style></defs><g id="Camada_2" data-name="Camada 2"><g id="Layer_1" data-name="Layer 1"><g class="cls-1"><ellipse cx="134.84" cy="348.17" rx="134.84" ry="12.03"/></g><path class="cls-2" d="M268.32,205.79c0,.83,0,1.67,0,2.5H1.37c0-.83,0-1.67,0-2.5A133.48,133.48,0,0,1,132.67,72.32l2.16,0A133.49,133.49,0,0,1,268.32,205.79Z"/><circle class="cls-2" cx="19.15" cy="318.35" r="17.8"/><path class="cls-3" d="M36.94,321.64H1.35V231.78c0-3,2.77-5.41,6.17-5.41l23.25,21.91c3.4,0,6.17,2.43,6.17,5.41Z"/><circle class="cls-2" cx="250.52" cy="320.24" r="17.8"/><path class="cls-3" d="M232.73,323.53h35.59V224.74a6.07,6.07,0,0,0-6.17-5.94l-23.26,24.08a6.08,6.08,0,0,0-6.16,6Z"/><rect class="cls-2" x="62.32" y="284.37" width="35.6" height="67.79" rx="13.98"/><rect class="cls-2" x="174.79" y="284.37" width="35.6" height="67.79" rx="13.98"/><path class="cls-4" d="M268.32,208.29v33.48a81.33,81.33,0,0,1-.51,9.15,79.31,79.31,0,0,1-3.14,14.85,80,80,0,0,1-76.43,56.09H81.43A80,80,0,0,1,1.84,250.67a81.68,81.68,0,0,1-.49-8.9V208.29Z"/><path class="cls-5" d="M134,179.67a65.75,65.75,0,0,1,14.23,1.59A69,69,0,0,1,170,190a4.29,4.29,0,1,1-4.78,7.12,62.33,62.33,0,0,0-18.87-7.53,58.34,58.34,0,0,0-12.49-1.41,51.76,51.76,0,0,0-29,9,4.29,4.29,0,0,1-4.73-7.16A60.56,60.56,0,0,1,134,179.67Z"/><path class="cls-6" d="M102.49,194.84a1.29,1.29,0,0,1-1.06-.56,1.27,1.27,0,0,1,.36-1.75A57.61,57.61,0,0,1,134,182.7a62.63,62.63,0,0,1,13.57,1.51,66,66,0,0,1,20.67,8.32,1.27,1.27,0,0,1,.35,1.75,1.25,1.25,0,0,1-1.05.56,1.27,1.27,0,0,1-.7-.21,64.17,64.17,0,0,0-19.91-8,60.67,60.67,0,0,0-13.14-1.49,54.7,54.7,0,0,0-30.64,9.46,1.24,1.24,0,0,1-.69.21Zm0,6.06h0a7.23,7.23,0,0,0,4-1.22,48.83,48.83,0,0,1,27.3-8.45,54.76,54.76,0,0,1,11.83,1.34,59.46,59.46,0,0,1,17.87,7.1,7.31,7.31,0,0,0,8.13-12.16,71.11,71.11,0,0,0-22.73-9.21A68.63,68.63,0,0,0,134,176.65a63.5,63.5,0,0,0-35.58,10.83,7.32,7.32,0,0,0,4,13.42Z"/><circle class="cls-6" cx="67.14" cy="164.98" r="7.09"/><circle class="cls-6" cx="203.29" cy="164.98" r="7.09"/><circle class="cls-7" cx="114.59" cy="148.66" r="2.78"/><path class="cls-8" d="M129.69,159.61a23.46,23.46,0,0,1-35.28,1.12A42.9,42.9,0,0,0,129.69,159.61Z"/><path class="cls-4" d="M88.81,153.1s8.29,24.64,29.81,19,18.66-31.77,11-40.7"/><path class="cls-7" d="M129.61,131.37a59,59,0,0,0-14.38,3.11A59.45,59.45,0,0,0,88.81,153.1a23.46,23.46,0,1,0,40.8-21.73Z"/><path class="cls-5" d="M122.46,144.53a10.6,10.6,0,1,1-20.67-3.3,59.8,59.8,0,0,1,13.44-6.75A10.61,10.61,0,0,1,122.46,144.53Z"/><path class="cls-4" d="M181.28,153.1s-8.3,24.64-29.82,19-18.66-31.77-11-40.7"/><path class="cls-7" d="M135.52,145.79a23.46,23.46,0,0,0,45.76,7.31,59.54,59.54,0,0,0-26.43-18.62,59,59,0,0,0-14.38-3.11A23.36,23.36,0,0,0,135.52,145.79Z"/><path class="cls-5" d="M147.63,144.53a10.6,10.6,0,1,0,20.66-3.3,59.8,59.8,0,0,0-13.44-6.75A10.6,10.6,0,0,0,147.63,144.53Z"/><path class="cls-9" d="M196.69,170.66a9.27,9.27,0,0,1-10.55,0L158,190.26l-7.58-2.73,6.37-4.43,1.26-.88,3.36-2.34,1.26-.88,3.27-2.27,1.25-.87,3.36-2.34,1.26-.88,3.09-2.15,1.25-.87,3.36-2.34,1.25-.88h0l1.58-1.09a9.28,9.28,0,1,1,14.3,5.35Z"/><path class="cls-7" d="M191.38,155.84A7.2,7.2,0,1,1,187.31,169l-1.18-.81L185,169l-29.31,20.41-2.77-1,5.15-3.59,1.26-.88,3.37-2.34,1.25-.88,3.27-2.27,1.25-.87,3.36-2.34,1.26-.88,3.09-2.15,1.25-.87,3.37-2.35.71-.49h0l.54-.38,1.58-1.09,1.18-.83-.35-1.39a7.16,7.16,0,0,1,2.86-7.67,7.1,7.1,0,0,1,4.11-1.29h0m0-2.09a9.29,9.29,0,0,0-9,11.56l-1.58,1.09h0l-1.25.88-3.36,2.34-1.25.87-3.09,2.15-1.26.88-3.36,2.34-1.25.87L162.71,179l-1.26.88-3.36,2.34-1.26.88-6.37,4.43,7.58,2.73,28.1-19.57a9.28,9.28,0,1,0,5.24-16.94Z"/><circle class="cls-7" cx="190.88" cy="158.77" r="3.93"/><polygon points="159.71 184.47 158.46 185.37 156.83 183.1 158.09 182.22 159.71 184.47"/><polygon points="156.03 187.06 154.78 187.95 153.15 185.68 154.41 184.81 156.03 187.06"/><polygon points="164.34 181.29 163.1 182.18 161.45 179.88 162.71 179 164.34 181.29"/><polygon points="167.23 175.86 168.79 178.02 167.54 178.92 165.98 176.73 167.23 175.86"/><polygon points="173.43 174.84 172.18 175.73 170.59 173.52 171.85 172.64 173.43 174.84"/><polygon points="177.78 171.83 176.54 172.73 174.94 170.49 176.19 169.62 177.78 171.83"/><polygon points="182.42 168.65 181.18 169.54 179.55 167.28 180.8 166.4 180.81 166.4 182.42 168.65"/><g class="cls-1"><path d="M235.27,117.86a22.08,22.08,0,0,1-1.69,2.93h0c-16.23,23.76-60.29-19.22-71-16.68-8.8,2.09-23.79-1-30.93-7.33-2.44-2.16-4-4.7-4-7.54,0-1.19,0-2.38-.12-3.57a16,16,0,0,1,5.15-13.35l2.16,0A133.17,133.17,0,0,1,235.27,117.86Z"/></g><circle class="cls-10" cx="260.05" cy="100.47" r="8.17"/><circle class="cls-10" cx="254.49" cy="77.74" r="2.6"/><circle class="cls-10" cx="243.45" cy="59.27" r="8.68"/><circle class="cls-10" cx="175.54" cy="12.65" r="12.65"/><circle class="cls-10" cx="159.87" cy="38.07" r="3.03"/><path class="cls-11" d="M232.34,117.69h0c-16.23,23.75-60.3-19.23-71-16.68-8.8,2.09-23.79-1-30.93-7.33-2.44-2.16-4-4.7-4-7.54,0-1.19,0-2.38-.12-3.57-.42-5.46,1-20.75,30-18.93,25.45,1.59,87.41-10.89,81.42,37.36C236.77,108.53,234.9,113.94,232.34,117.69Z"/><path class="cls-12" d="M232.34,117.69h0c-16.23,23.75-60.3-19.23-71-16.68-8.8,2.09-23.79-1-30.93-7.33,0,0,19.73,5.39,31.07-1.3,0,0,22,9.41,31.63,5.48C193.11,97.87,196.5,121.21,232.34,117.69Z"/><path class="cls-12" d="M205.44,68.09c-2.35-4.07-6.82-3.44-9.79-2.4a60.43,60.43,0,0,1-18.78,3.41,59,59,0,0,1-8.61-.43c-.48,0-1-.15-1.53-.26A2.08,2.08,0,0,0,165,67.35c-3.49-.3-8.57,2.65-5.56,6.62,1.22,1.61,3.46,2.11,5.32,2.59,3.44.87,6.87,1.32,10.16,2.71,4.66,2,9.23,3.54,14.39,2.86a11.82,11.82,0,0,0,7-3.15c1.81-1.81,6-2.77,8-4.47S207.71,72,205.44,68.09Z"/><path class="cls-13" d="M196.13,62.55l1.14,6.13a4.66,4.66,0,0,1-3,5.23,35.34,35.34,0,0,1-25.61-.28,4.65,4.65,0,0,1-2.86-4.31V62.76Z"/><path class="cls-14" d="M196.13,62.55c.31,3.71-6.25,6.76-14.63,6.8s-15.34-2.91-15.65-6.59S172,56,180.37,56,195.82,58.84,196.13,62.55Z"/><path class="cls-3" d="M68.54,235.25a29.87,29.87,0,0,1-12.87-2.61,20.1,20.1,0,0,0-9.14-1.89,20.14,20.14,0,0,0-9.14,1.89,29.87,29.87,0,0,1-12.87,2.61,29.79,29.79,0,0,1-12.86-2.61,20.18,20.18,0,0,0-9.15-1.89v-9.84a29.87,29.87,0,0,1,12.87,2.61,20.28,20.28,0,0,0,9.14,1.88,20.33,20.33,0,0,0,9.15-1.88,29.79,29.79,0,0,1,12.86-2.61,29.87,29.87,0,0,1,12.87,2.61,20.25,20.25,0,0,0,9.14,1.88Z"/><path class="cls-3" d="M112.56,235.25a29.87,29.87,0,0,1-12.87-2.61,20.14,20.14,0,0,0-9.14-1.89,20.1,20.1,0,0,0-9.14,1.89,29.87,29.87,0,0,1-12.87,2.61V225.4a20.25,20.25,0,0,0,9.14-1.88,29.87,29.87,0,0,1,12.87-2.61,29.79,29.79,0,0,1,12.86,2.61,20.33,20.33,0,0,0,9.15,1.88,20.28,20.28,0,0,0,9.14-1.88,29.87,29.87,0,0,1,12.87-2.61v9.84a20.18,20.18,0,0,0-9.15,1.89A29.82,29.82,0,0,1,112.56,235.25Z"/><path class="cls-3" d="M200.59,235.25a29.82,29.82,0,0,1-12.86-2.61,23.07,23.07,0,0,0-18.29,0,33,33,0,0,1-25.73,0,20.17,20.17,0,0,0-9.14-1.89v-9.84a29.82,29.82,0,0,1,12.86,2.61,23.18,23.18,0,0,0,18.29,0,33,33,0,0,1,25.73,0,20.28,20.28,0,0,0,9.14,1.88Z"/><path class="cls-3" d="M244.61,235.25a29.87,29.87,0,0,1-12.87-2.61,23,23,0,0,0-18.28,0,29.87,29.87,0,0,1-12.87,2.61V225.4a20.33,20.33,0,0,0,9.15-1.88,33,33,0,0,1,25.73,0,23.16,23.16,0,0,0,18.28,0,29.87,29.87,0,0,1,12.87-2.61v9.84a20.1,20.1,0,0,0-9.14,1.89A29.87,29.87,0,0,1,244.61,235.25Z"/><path class="cls-3" d="M68.54,256.18a29.73,29.73,0,0,1-12.87-2.61,20.25,20.25,0,0,0-9.14-1.88,20.28,20.28,0,0,0-9.14,1.88,29.73,29.73,0,0,1-12.87,2.61,29.64,29.64,0,0,1-12.86-2.61,20.33,20.33,0,0,0-9.15-1.88v-9.85a29.7,29.7,0,0,1,12.87,2.62,20.28,20.28,0,0,0,9.14,1.88,20.33,20.33,0,0,0,9.15-1.88,29.61,29.61,0,0,1,12.86-2.62,29.7,29.7,0,0,1,12.87,2.62,20.25,20.25,0,0,0,9.14,1.88Z"/><path class="cls-3" d="M112.56,256.18a29.73,29.73,0,0,1-12.87-2.61,20.28,20.28,0,0,0-9.14-1.88,20.25,20.25,0,0,0-9.14,1.88,29.73,29.73,0,0,1-12.87,2.61v-9.84a20.25,20.25,0,0,0,9.14-1.88,29.7,29.7,0,0,1,12.87-2.62,29.61,29.61,0,0,1,12.86,2.62,20.33,20.33,0,0,0,9.15,1.88,20.28,20.28,0,0,0,9.14-1.88,29.7,29.7,0,0,1,12.87-2.62v9.85a20.33,20.33,0,0,0-9.15,1.88A29.67,29.67,0,0,1,112.56,256.18Z"/><path class="cls-3" d="M200.59,256.18a29.67,29.67,0,0,1-12.86-2.61,23.18,23.18,0,0,0-18.29,0,33,33,0,0,1-25.73,0,20.32,20.32,0,0,0-9.14-1.88v-9.85a29.65,29.65,0,0,1,12.86,2.62,23.18,23.18,0,0,0,18.29,0,32.9,32.9,0,0,1,25.73,0,20.28,20.28,0,0,0,9.14,1.88Z"/><path class="cls-3" d="M244.61,256.18a29.73,29.73,0,0,1-12.87-2.61,23.16,23.16,0,0,0-18.28,0,29.73,29.73,0,0,1-12.87,2.61v-9.84a20.33,20.33,0,0,0,9.15-1.88,32.9,32.9,0,0,1,25.73,0,23.16,23.16,0,0,0,18.28,0,29.7,29.7,0,0,1,12.87-2.62v9.85a20.25,20.25,0,0,0-9.14,1.88A29.73,29.73,0,0,1,244.61,256.18Z"/><path class="cls-3" d="M68.54,277.73a29.87,29.87,0,0,1-12.87-2.61,20.25,20.25,0,0,0-9.14-1.88,20.28,20.28,0,0,0-9.14,1.88,29.87,29.87,0,0,1-12.87,2.61,29.79,29.79,0,0,1-12.86-2.61,20.33,20.33,0,0,0-9.15-1.88v-9.85A29.87,29.87,0,0,1,15.38,266a20.27,20.27,0,0,0,9.14,1.89A20.32,20.32,0,0,0,33.67,266a29.79,29.79,0,0,1,12.86-2.61A29.87,29.87,0,0,1,59.4,266a20.24,20.24,0,0,0,9.14,1.89Z"/><path class="cls-3" d="M112.56,277.73a29.87,29.87,0,0,1-12.87-2.61,20.28,20.28,0,0,0-9.14-1.88,20.25,20.25,0,0,0-9.14,1.88,29.87,29.87,0,0,1-12.87,2.61v-9.84A20.24,20.24,0,0,0,77.68,266a29.87,29.87,0,0,1,12.87-2.61A29.79,29.79,0,0,1,103.41,266a20.32,20.32,0,0,0,9.15,1.89A20.27,20.27,0,0,0,121.7,266a29.87,29.87,0,0,1,12.87-2.61v9.85a20.33,20.33,0,0,0-9.15,1.88A29.79,29.79,0,0,1,112.56,277.73Z"/><path class="cls-3" d="M200.59,277.73a29.82,29.82,0,0,1-12.86-2.61,23.18,23.18,0,0,0-18.29,0,33,33,0,0,1-25.73,0,20.32,20.32,0,0,0-9.14-1.88v-9.85A29.82,29.82,0,0,1,147.43,266a23.07,23.07,0,0,0,18.29,0,33,33,0,0,1,25.73,0,20.27,20.27,0,0,0,9.14,1.89Z"/><path class="cls-3" d="M244.61,277.73a29.87,29.87,0,0,1-12.87-2.61,23.16,23.16,0,0,0-18.28,0,29.87,29.87,0,0,1-12.87,2.61v-9.84a20.32,20.32,0,0,0,9.15-1.89,33,33,0,0,1,25.73,0,23,23,0,0,0,18.28,0,29.87,29.87,0,0,1,12.87-2.61v9.85a20.25,20.25,0,0,0-9.14,1.88A29.87,29.87,0,0,1,244.61,277.73Z"/><path class="cls-4" d="M60.31,90c-1.78-6.36-6.23-18.47-15.2-23.8a3.82,3.82,0,0,1,1.12-7c12.62-2.8,33.18-3.2,54.93,13.56a3.83,3.83,0,0,1-1,6.61L65.34,92.56A3.81,3.81,0,0,1,60.31,90Z"/><rect class="cls-3" x="54.2" y="80.03" width="60.69" height="10.49" rx="5.24" transform="translate(-24.31 34.58) rotate(-20.27)"/><circle class="cls-3" cx="40.98" cy="63.31" r="5.85"/></g></g></svg>