<svg xmlns="http://www.w3.org/2000/svg" viewBox="0 0 234.43 376.59"><defs><style>.cls-1{fill:#b7632a;}.cls-2{fill:#351e0e;}.cls-3{fill:#fee6bd;}.cls-4{fill:#cc6e2e;}.cls-5{fill:#8e4413;}.cls-6{fill:#f2b446;}.cls-7{fill:#6d3b19;}.cls-8{fill:#fff;}.cls-9{opacity:0.37;}</style></defs><g id="Camada_2" data-name="Camada 2"><g id="Layer_1" data-name="Layer 1"><rect class="cls-1" x="18.41" width="197.6" height="347.09"/><rect class="cls-2" x="26.33" width="181.76" height="347.09"/><rect class="cls-3" x="30.84" y="4.51" width="172.75" height="209.46"/><path class="cls-4" d="M199.08,9V209.46H35.34V9H199.08m9-9H26.33V218.47H208.09V0Z"/><rect class="cls-3" x="30.84" y="4.51" width="172.75" height="145.56"/><path class="cls-4" d="M199.08,9V145.55H35.34V9H199.08m9-9H26.33V154.57H208.09V0Z"/><rect class="cls-5" x="35.23" y="205.77" width="164.06" height="3.69"/><rect class="cls-5" x="35.23" y="142.07" width="164.06" height="3.69"/><path class="cls-6" d="M186.07,329.22c0,.42,0,.83,0,1.24H54.22c0-.41,0-.82,0-1.24a65.94,65.94,0,0,1,131.87,0Z"/><path class="cls-6" d="M66.08,376.59H59.91A8.78,8.78,0,0,1,63,376,8.68,8.68,0,0,1,66.08,376.59Z"/><path class="cls-1" d="M71.79,376.59V352.88a2.85,2.85,0,0,0-2.91-2.66h-.14l-3.31-3.12-1.85-1.74-3.87-3.64-2.46-2.32a2.88,2.88,0,0,0-3,2.67v34.53H71.79Z"/><path class="cls-1" d="M172.76,376.59h13.31v-38a3,3,0,0,0-3-2.93l-4.61,4.77-3.64,3.77-2.81,2.9-.43.45a3,3,0,0,0-2.88,2,2.77,2.77,0,0,0-.17,1v26.1Z"/><path class="cls-6" d="M101.9,374.94v1.65H84.32v-1.65a6.94,6.94,0,0,1,6.9-6.91H95A6.94,6.94,0,0,1,101.9,374.94Z"/><path class="cls-6" d="M157.46,374.94v1.65H139.87v-1.65a6.94,6.94,0,0,1,6.9-6.91h3.78A6.94,6.94,0,0,1,157.46,374.94Z"/><path class="cls-4" d="M71.79,376.59h101a39.53,39.53,0,0,0,9.59-12.82,39.81,39.81,0,0,0,3.47-12.25,40.4,40.4,0,0,0,.25-4.43V330.45H54.21v16.64a40.71,40.71,0,0,0,.23,4.3A41.32,41.32,0,0,0,56,358.74a43.15,43.15,0,0,0,1.91,4.94,40,40,0,0,0,9.62,12.91Z"/><path class="cls-6" d="M77.41,263.29s21-.75,23.14,7.11l8.09-.75S105.28,257.87,77.41,263.29Z"/><path class="cls-6" d="M91.87,249.91s16.91,12.51,13.67,20l6.81,4.46S117.05,263,91.87,249.91Z"/><path class="cls-6" d="M107.6,251.09s6.08,13.52,1.51,17l2.64,5.09S118.55,267.84,107.6,251.09Z"/><path class="cls-1" d="M185.89,345.36l-7.47-4.94-9-6-16.5,10.9-16.45-10.9L120,345.34,103.6,334.46l-16.46,10.9-16.45-10.9-11,7.25-5.5,3.64v1.74a40.71,40.71,0,0,0,.23,4.3l6.5-4.3,2.64-1.74,7.11-4.71,9.72,6.45,6.73,4.47,6.73-4.47,9.73-6.45,9.73,6.45,6.73,4.47,6.74-4.47,9.72-6.43,9.69,6.43,6.72,4.47,6.75-4.47,9.75-6.45,5.35,3.55,4.37,2.9,6.67,4.43.18-4.43.07-1.86Z"/><path class="cls-1" d="M169.43,349l-.77.51-15.73,10.39L136.48,349,120,359.91,103.6,349l-16.46,10.9L70.69,349l-1.81,1.2L56,358.74a43.15,43.15,0,0,0,1.91,4.94l12.81-8.48,1.1.73,15.35,10.19L103.6,355.2l16.46,10.92,16.46-10.9,16.41,10.9,15.56-10.31.94-.61,12.92,8.57a38.53,38.53,0,0,0,1.91-4.92Z"/><path class="cls-7" d="M120.72,323.05a32.27,32.27,0,0,1-7-.78A33.79,33.79,0,0,1,103,317.94a2.11,2.11,0,0,1,1.18-3.87,2.15,2.15,0,0,1,1.18.35,30.14,30.14,0,0,0,9.32,3.72,28.14,28.14,0,0,0,6.17.7,25.65,25.65,0,0,0,14.31-4.42,2.08,2.08,0,0,1,1.16-.35,2.11,2.11,0,0,1,1.17,3.88A29.86,29.86,0,0,1,120.72,323.05Z"/><path class="cls-4" d="M139.32,314.19a3.62,3.62,0,0,0-3-1.62,3.53,3.53,0,0,0-2,.6,24.09,24.09,0,0,1-13.48,4.18,26.44,26.44,0,0,1-5.84-.67,29.41,29.41,0,0,1-8.84-3.5,3.46,3.46,0,0,0-2-.61,3.62,3.62,0,0,0-2,6.61,35.32,35.32,0,0,0,11.23,4.55,34.14,34.14,0,0,0,7.35.82,31.33,31.33,0,0,0,17.57-5.35,3.63,3.63,0,0,0,1-5Zm-2.67,2.51a28.46,28.46,0,0,1-15.93,4.86,30.86,30.86,0,0,1-6.7-.75,32.61,32.61,0,0,1-10.21-4.11.61.61,0,0,1-.17-.86.63.63,0,0,1,.52-.28.58.58,0,0,1,.35.11,32,32,0,0,0,9.83,3.94,30.46,30.46,0,0,0,6.49.73A27.06,27.06,0,0,0,136,315.67a.57.57,0,0,1,.34-.11.65.65,0,0,1,.53.28A.63.63,0,0,1,136.65,316.7Z"/><circle class="cls-8" cx="108.64" cy="299.06" r="11.59"/><circle class="cls-7" cx="109.02" cy="298.44" r="5.23"/><circle class="cls-8" cx="131.99" cy="299.06" r="11.59"/><circle class="cls-7" cx="132.37" cy="298.44" r="5.23"/><circle class="cls-4" cx="86.7" cy="309.07" r="3.5"/><circle class="cls-4" cx="153.95" cy="309.07" r="3.5"/><rect class="cls-4" y="347.09" width="234.42" height="29.49"/><rect class="cls-5" y="367.03" width="234.43" height="9.56"/><circle class="cls-6" cx="109.14" cy="337.92" r="9.14"/><path class="cls-1" d="M109.18,347.05l-51.8.74a9.14,9.14,0,0,1-9.27-9h0a9.14,9.14,0,0,1,9-9.27l51.8-.74"/><circle class="cls-6" cx="131.51" cy="337.92" r="9.14"/><path class="cls-1" d="M131.47,347.05l51.8.74a9.14,9.14,0,0,0,9.27-9h0a9.14,9.14,0,0,0-9-9.27l-51.8-.74"/><polygon class="cls-8" points="176.25 8.74 35.23 117.59 35.23 85.62 134.43 9.05 176.25 8.74"/><polygon class="cls-8" points="199.25 48.22 77.65 142.07 43.86 142.07 199.09 22.26 199.25 48.22"/><rect class="cls-4" x="81.52" y="8.74" width="2.87" height="137.02"/><rect class="cls-4" x="150.95" y="8.74" width="2.87" height="137.02"/><rect class="cls-4" x="81.52" y="154.57" width="2.87" height="58.78"/><rect class="cls-4" x="150.95" y="154.57" width="2.87" height="58.78"/><rect class="cls-9" x="26.33" y="154.57" width="181.76" height="9.22"/></g></g></svg>