<svg xmlns="http://www.w3.org/2000/svg" viewBox="0 0 321.11 228.56"><defs><style>.cls-1{fill:#59a3df;}.cls-2{opacity:0.22;}.cls-3{fill:#2a73c7;}.cls-4{fill:#6d3b19;}.cls-5{fill:#cc6e2e;}.cls-6{fill:#fff;}.cls-7{fill:#28383d;}.cls-8{fill:#2083c6;}.cls-9{fill:#1c60a3;}.cls-10{fill:#e0f3ed;}.cls-11{fill:#798e86;}.cls-12{fill:#60c5bf;}.cls-13{fill:#afdcd9;}.cls-14{fill:#50bbb5;}.cls-15{fill:#3e938c;}</style></defs><g id="Camada_2" data-name="Camada 2"><g id="Layer_1" data-name="Layer 1"><path class="cls-1" d="M267,105.74c0,.66,0,1.26,0,1.92H54.07c0-.66,0-1.32,0-2C54.05,47.32,102.05,0,160.42,0S267,47.37,267,105.74Z"/><path class="cls-1" d="M93.6,23.8s-17.82,11-26-6C67.61,17.81,66.92,52.81,93.6,23.8Z"/><path class="cls-1" d="M89.85,24.17s-14.93,22-33.3,6.65C56.55,30.82,74.09,71.81,89.85,24.17Z"/><path class="cls-1" d="M101.2,18.7s-14.12,8.68-20.59-4.76C80.61,13.94,80.06,41.69,101.2,18.7Z"/><path class="cls-1" d="M227.32,23.8s17.82,11,26-6C253.31,17.81,254,52.81,227.32,23.8Z"/><path class="cls-1" d="M231.07,24.17s14.93,22,33.3,6.65C264.37,30.82,246.83,71.81,231.07,24.17Z"/><path class="cls-1" d="M219.72,18.7s14.12,8.68,20.59-4.76C240.31,13.94,240.86,41.69,219.72,18.7Z"/><g class="cls-2"><ellipse cx="160.5" cy="218.98" rx="107.52" ry="9.59"/></g><rect class="cls-1" x="102.68" y="168.1" width="28.38" height="54.05" rx="11.15"/><rect class="cls-1" x="192.36" y="168.1" width="28.38" height="54.05" rx="11.15"/><path class="cls-3" d="M54.06,107.44v26.69c0,1.05,0,2.1.08,3.13.06,1.34.17,2.66.31,4l.12,1a63.5,63.5,0,0,0,2,9.52c.12.45.25.89.39,1.33a64.28,64.28,0,0,0,2.79,7.35c.1.21.19.42.29.62A63.75,63.75,0,0,0,117.92,198h85.16a63.74,63.74,0,0,0,57.85-36.77l.3-.65a63.56,63.56,0,0,0,2.8-7.3c.15-.49.3-1,.44-1.48a62.78,62.78,0,0,0,2-9.54c0-.27.07-.55.1-.82.22-1.92.35-3.86.4-5.84,0-.43,0-.86,0-1.29a1,1,0,0,0,0-.17V107.44Z"/><path class="cls-4" d="M161.45,95.48a52.29,52.29,0,0,1-11.35-1.26,55,55,0,0,1-17.3-7,3.42,3.42,0,1,1,3.81-5.68,49.25,49.25,0,0,0,15,6,46.56,46.56,0,0,0,10,1.12,41.27,41.27,0,0,0,23.1-7.14,3.42,3.42,0,1,1,3.78,5.7A48.25,48.25,0,0,1,161.45,95.48Z"/><path class="cls-5" d="M186.6,83.39a1,1,0,0,1,.55,1.84,45.92,45.92,0,0,1-25.7,7.84,49.51,49.51,0,0,1-10.82-1.21,52.52,52.52,0,0,1-16.49-6.63,1,1,0,0,1-.27-1.4,1,1,0,0,1,.83-.44,1,1,0,0,1,.56.17,51.5,51.5,0,0,0,15.88,6.35,48.23,48.23,0,0,0,10.47,1.18A43.55,43.55,0,0,0,186,83.55a1.06,1.06,0,0,1,.56-.16m0-4.83h0a5.77,5.77,0,0,0-3.22,1,38.93,38.93,0,0,1-21.77,6.74,43.65,43.65,0,0,1-9.43-1.07,47.27,47.27,0,0,1-14.25-5.67,5.83,5.83,0,0,0-6.48,9.7,56.42,56.42,0,0,0,18.13,7.34,54.54,54.54,0,0,0,11.87,1.33,50.67,50.67,0,0,0,28.37-8.64,5.84,5.84,0,0,0-3.22-10.7Z"/><circle class="cls-6" cx="141.95" cy="54.2" r="18.71"/><circle class="cls-7" cx="142.55" cy="53.19" r="8.45"/><circle class="cls-6" cx="179.64" cy="54.2" r="18.71"/><circle class="cls-7" cx="180.24" cy="53.19" r="8.45"/><circle class="cls-8" cx="106.52" cy="72.9" r="5.66"/><circle class="cls-8" cx="215.09" cy="72.9" r="5.66"/><g class="cls-2"><path d="M262.52,75l-.27-.89c-7-.11-13.85-.18-16.25-.24h0l-.44-.28v0s-12.27-13.81-23.07-6.38c-2.65,1.83-3.25,3.23-2.72,4.43-6.83,2.35-13.48,7.66-15.53,9.39a29.57,29.57,0,0,0-11-4l-32.15-5L128.9,77a29.32,29.32,0,0,0-11.59,4.34c-1.33-1.16-8.54-7.2-16-9.76.53-1.2-.07-2.6-2.72-4.43-10.8-7.43-23.07,6.38-23.07,6.38v0l-.44.28h0c-2.41.06-9.33.14-16.36.25a105.79,105.79,0,0,0-4.33,22.57c6.13-.36,15-.63,20.21-.78h0c2.94,2.42,6.69,4.3,10.67,3.69a14.16,14.16,0,0,0,6.35-2.67,63.78,63.78,0,0,0,10,10.51c5.5,4.62,11.57,8.2,16.85,9.53l.35.08.12-.5a24.52,24.52,0,0,0,8.83,5.73,102.31,102.31,0,0,0,31.63,6.66c.54,0,1.09,0,1.63,0s1.09,0,1.63,0a102.17,102.17,0,0,0,31.62-6.66,24.64,24.64,0,0,0,8.46-5.35c5.25-1.35,11.26-4.91,16.71-9.49a63.78,63.78,0,0,0,10-10.51,14.16,14.16,0,0,0,6.35,2.67c4,.61,7.73-1.27,10.67-3.69h0c5.2.15,14,.42,20.1.78A106.32,106.32,0,0,0,262.52,75Zm-158,32.44A62.57,62.57,0,0,1,93,95.74,14.19,14.19,0,0,0,94.1,76.55c2-1.22,4.42-2.27,5.93-3.44,6.75,2.1,13.78,7.72,15.73,9.35a18.58,18.58,0,0,0-6.09,8,14.67,14.67,0,0,0,1,12.4l2.52,4.57,2.94,5.31a17.64,17.64,0,0,0,1.29,2A44,44,0,0,1,104.52,107.44Zm112.07,0A46.45,46.45,0,0,1,205,114.27a17.43,17.43,0,0,0,1-1.52l2.94-5.31,2.53-4.57a14.7,14.7,0,0,0,1-12.4,18.79,18.79,0,0,0-6.61-8.4c2.45-2,9-7,15.26-9,1.51,1.17,3.89,2.22,5.93,3.44a14.19,14.19,0,0,0,1.06,19.19A62,62,0,0,1,216.59,107.44Z"/></g><rect class="cls-9" x="54.06" y="117.68" width="212.88" height="8.71"/><path class="cls-9" d="M266.89,136.75v.07a63.08,63.08,0,0,1-.95,8.64H55.07a64.1,64.1,0,0,1-1-8.71Z"/><path class="cls-9" d="M263.13,155.82c-.3.81-.61,1.61-.94,2.4q-1.14,2.78-2.54,5.41c-.16.3-.32.6-.5.9H61.85c-.26-.47-.51-.93-.74-1.39a58.16,58.16,0,0,1-2.58-5.62c-.22-.57-.44-1.13-.65-1.7Z"/><path class="cls-1" d="M249,73.09s-12.27-13.82-23.06-6.38,12.33,7.83,7.87,16.22L250,85.6Z"/><path class="cls-10" d="M234.4,90.47c-4.85,11.85-20.2,25.57-31.78,28.47l-.35.09-.42-1.8c11.13-2.61,26.12-16,30.83-27.45,1.2-3,2.21-7,.73-10.53h0a7.91,7.91,0,0,0-.64-1.22,7.45,7.45,0,0,0-5.53-3.66c-9-1.27-22.28,10.4-22.41,10.52l-.32-.36-.91-1c.57-.5,14.07-12.36,23.9-11A9.38,9.38,0,0,1,234.33,77a9.25,9.25,0,0,1,.7,1.32C236.51,81.67,236.3,85.82,234.4,90.47Z"/><path class="cls-11" d="M234.4,90.47c-4.85,11.85-20.2,25.57-31.78,28.47l-.11-.47c11.13-2.6,26.12-15.94,30.83-27.45,1.34-3.29,2.45-8,.08-11.74,0,0,0,0,0,0h0a7.91,7.91,0,0,0-.64-1.22,7.45,7.45,0,0,0-5.53-3.66c-9-1.27-22.28,10.4-22.41,10.52l-.32-.36c2-1.69,14.42-12.06,23.65-10.75a9.4,9.4,0,0,1,6.84,4.5.3.3,0,0,1,0,.08C236.51,81.67,236.3,85.82,234.4,90.47Z"/><path class="cls-1" d="M226.21,78.84A14.19,14.19,0,0,0,238.08,95c4.42.68,8.56-1.71,11.62-4.51l1.16-18.92a14.19,14.19,0,0,0-24.65,7.25Z"/><path class="cls-9" d="M267,133.8V111c39.74-4,33.81-17.08-17.79-18.39q.45-11.41.89-22.84C338.79,72,344.42,125.1,267,133.8Z"/><path class="cls-1" d="M72.14,73.09S84.41,59.27,95.2,66.71s-12.33,7.83-7.87,16.22L71.09,85.6Z"/><path class="cls-10" d="M86.72,90.47c4.84,11.85,21.07,25.57,32.65,28.47l.35.09.42-1.8c-11.14-2.61-27-16-31.71-27.45-1.2-3-2.21-7-.72-10.53h0A7.91,7.91,0,0,1,88.35,78a7.45,7.45,0,0,1,5.53-3.66c9-1.27,22.28,10.4,22.41,10.52l.32-.36.91-1c-.57-.5-14.07-12.36-23.9-11A9.38,9.38,0,0,0,86.78,77a10.38,10.38,0,0,0-.7,1.32C84.6,81.67,84.81,85.82,86.72,90.47Z"/><path class="cls-11" d="M86.72,90.47c4.84,11.85,21.07,25.57,32.65,28.47l.11-.47c-11.14-2.6-27-15.94-31.71-27.45-1.34-3.29-2.45-8-.08-11.74,0,0,0,0,0,0h0A7.91,7.91,0,0,1,88.35,78a7.45,7.45,0,0,1,5.53-3.66c9-1.27,22.28,10.4,22.41,10.52l.32-.36c-2-1.69-14.42-12.06-23.65-10.75a9.42,9.42,0,0,0-6.84,4.5l0,.08C84.6,81.67,84.81,85.82,86.72,90.47Z"/><path class="cls-1" d="M94.9,78.84A14.19,14.19,0,0,1,83,95c-4.42.68-8.56-1.71-11.62-4.51L70.25,71.59A14.19,14.19,0,0,1,94.9,78.84Z"/><path class="cls-9" d="M54.17,133.8V111C14.43,107,20.35,93.94,72,92.63q-.45-11.41-.89-22.84C-17.67,72-23.3,125.1,54.17,133.8Z"/><path class="cls-12" d="M193,80l-32-5-32,5c-8.89,1.38-16,6.31-18.4,12.78h0a13.61,13.61,0,0,0,.93,11.53l5.47,9.88a21.18,21.18,0,0,0,11.11,9.06,101.36,101.36,0,0,0,31.3,6.59c1.05,0,2.11,0,3.16,0a101.36,101.36,0,0,0,31.3-6.59A21.18,21.18,0,0,0,205,114.22l5.47-9.88a13.61,13.61,0,0,0,.93-11.53h0C209,86.34,201.93,81.41,193,80Z"/><path class="cls-13" d="M161.05,131c-.54,0-1.09,0-1.63,0a102.46,102.46,0,0,1-31.62-6.66,22.3,22.3,0,0,1-11.66-9.53l-5.47-9.88a14.72,14.72,0,0,1-1-12.41c2.56-6.85,9.92-12,19.23-13.45l32.15-5,.16,0,32,5c9.31,1.44,16.67,6.6,19.23,13.45a14.72,14.72,0,0,1-1,12.41L206,114.73a22.3,22.3,0,0,1-11.66,9.53,102.46,102.46,0,0,1-31.62,6.66C162.14,130.94,161.59,131,161.05,131Zm0-54.84-31.83,4.94c-8.55,1.33-15.29,6-17.58,12.12a12.64,12.64,0,0,0,.87,10.65l5.47,9.88a20.17,20.17,0,0,0,10.57,8.59,100.41,100.41,0,0,0,31,6.52q1.53.08,3.06,0a100.41,100.41,0,0,0,31-6.52,20.17,20.17,0,0,0,10.57-8.59l5.47-9.88a12.64,12.64,0,0,0,.87-10.65c-2.29-6.14-9-10.79-17.58-12.12Z"/><path class="cls-14" d="M162.3,87.3s13.35,5.47,21.94,6.22,21.93.83,21.93.83Z"/><path class="cls-15" d="M162.3,87.3s32.84,3.23,43.87,7C206.17,94.35,173.41,91.86,162.3,87.3Z"/><path class="cls-14" d="M159.8,87.3s-13.35,5.47-21.94,6.22-21.93.83-21.93.83Z"/><path class="cls-15" d="M159.8,87.3s-32.84,3.23-43.87,7C115.93,94.35,148.69,91.86,159.8,87.3Z"/><path class="cls-14" d="M118.38,102.16s27.79,7.28,40.61,7.16,43.47-7.16,43.47-7.16l-54.76,3.33a16.5,16.5,0,0,1-3-.09Z"/><path class="cls-15" d="M118.38,102.16s28.11,5.35,84.08,0C202.46,102.16,154.11,111.72,118.38,102.16Z"/><path class="cls-14" d="M120.93,109.32s13.72,14.3,38.87,13.22,40.56-13.22,40.56-13.22-19.81,10.24-30,10.15S131,119.48,120.93,109.32Z"/><path class="cls-15" d="M120.93,109.32s39.47,20.27,79.43,0C200.36,109.32,161.64,134.57,120.93,109.32Z"/></g></g></svg>