<svg xmlns="http://www.w3.org/2000/svg" viewBox="0 0 427.01 254.88"><defs><style>.cls-1{fill:#dde8e3;}.cls-2{fill:#beccc7;}.cls-3{fill:#d0ddd8;}.cls-4{fill:#cfd0d2;}.cls-5{opacity:0.77;}.cls-6{fill:#b0dae6;}.cls-7{fill:#838489;}.cls-8{fill:#b7b8bd;}.cls-9{fill:#fefefe;}.cls-10{fill:#59a3df;}.cls-11{fill:#1c60a3;}.cls-12{opacity:0.22;}.cls-13{fill:#b7632a;}.cls-14,.cls-15,.cls-16,.cls-17{fill:none;stroke:#b0dae6;stroke-linecap:round;stroke-miterlimit:10;}.cls-14{stroke-width:0.79px;}.cls-15{stroke-width:0.53px;}.cls-16{stroke-width:0.64px;}.cls-17{stroke-width:0.45px;}.cls-18{fill:#fff5fd;}</style></defs><g id="Camada_2" data-name="Camada 2"><g id="Layer_1" data-name="Layer 1"><path class="cls-1" d="M6.47,152.34c4.41,10.87,173.45,98.1,216.56,102.17l.62.06,1.13.09c44.91,3.1,178-27.8,194.1-39.86,16.29-12.22,3.06-83.5,3.06-83.5C419.14,108,218.62,52.21,195.19,51.87S23.78,105.5,9.52,116.7l-.79.65C-4.48,128.42,2.14,141.69,6.47,152.34Z"/><path class="cls-2" d="M222.35,221.93l1.3,32.64c43.77,3.72,179-27.61,195.23-39.77s3.06-83.5,3.06-83.5S345.56,180.85,222.35,221.93Z"/><path class="cls-3" d="M6.47,152.34C18.52,168,179.92,250.44,223,254.51l.62.06,1.13.09-2.43-32.73S16.74,146.45,8.73,117.35C-4.48,128.42-.55,143.24,6.47,152.34Z"/><path class="cls-3" d="M42.54,124.44l3.1,1.47,16.23,7.73L158.73,99a6.1,6.1,0,0,1,1.33-.3v9.91L76.38,140.55,220.1,209a5.51,5.51,0,0,0,4.53.09l113.3-48.25,14.92-6.35,3.08-1.32a5.51,5.51,0,0,0-.32-10.27L160.06,74l-.36-.12a5.5,5.5,0,0,0-3.69,0L43.06,114.28A5.51,5.51,0,0,0,42.54,124.44Z"/><path class="cls-1" d="M76.38,140.55,220.1,209a5.51,5.51,0,0,0,4.53.09l113.3-48.25L162.42,99a5.59,5.59,0,0,0-2.36-.29v9.91Z"/><path class="cls-2" d="M42.54,124.44l3.1,1.47,16.23,7.73L158.73,99a6.1,6.1,0,0,1,1.33-.3V74l-.36-.12a5.5,5.5,0,0,0-3.69,0L43.06,114.28A5.51,5.51,0,0,0,42.54,124.44Z"/><path class="cls-4" d="M185.73,155.23a5.27,5.27,0,0,1,0-.56c0-3.78,5.09-6.84,11.37-6.84,6,0,10.86,2.77,11.33,6.28h0v4.12c0,3.78-5.09,6.84-11.37,6.84s-11.37-3.06-11.37-6.84a5.09,5.09,0,0,1,0-.55Z"/><g class="cls-5"><path class="cls-6" d="M156,86.47a5.56,5.56,0,0,1,3.69,0l.36.13,51.08,18,11.21-23.51,10.18,4.42L236,113.31l116.88,41.16-14.92,6.35-113.3,48.25a5.51,5.51,0,0,1-4.53-.09L76.38,140.55l-14.51-6.91-16.23-7.73Z"/></g><path class="cls-7" d="M229.86,71.09c5.06,0,9.16,2.5,9.16,5.6a3.64,3.64,0,0,1-.44,1.72,3.57,3.57,0,0,1,.44,1.71c0,3.1-4.1,5.6-9.16,5.6s-9.17-2.5-9.17-5.6V76.69C220.69,73.59,224.8,71.09,229.86,71.09Z"/><path class="cls-7" d="M223.45,79.37c1,.39,2,.74,2.89,1.06,8,2.8,12.6,3,15.15,2.74h.09c.16,0,.3,0,.44-.06h0a2.87,2.87,0,0,0,1.47-.55L265.3,74l9.32-3.81V84a14.76,14.76,0,0,0,14.77,14.76h3.15A14.75,14.75,0,0,0,307.21,84V43.55a14.76,14.76,0,0,0-14.77-14.76h-3.05A14.75,14.75,0,0,0,280,32.18l-.6.53c-.19.17-.36.34-.54.53a1.59,1.59,0,0,0-.13.13c-.15.15-.28.3-.43.46,0,0,0,0,0,0a5.81,5.81,0,0,0-.38.46s0,0,0,0a3.92,3.92,0,0,0-.25.32l0,0s0,0,0,0-.22.29-.33.44-.22.32-.32.48-.14.24-.22.36a2.54,2.54,0,0,0-.16.28,3.07,3.07,0,0,0-.17.31,13.38,13.38,0,0,0-.82,1.81c-.05.12-.09.24-.13.37s-.13.39-.19.59-.08.3-.12.45a12.59,12.59,0,0,0-.34,1.75,1.93,1.93,0,0,0,0,.27c0,.2,0,.41-.06.62s0,.31,0,.46,0,.41,0,.62l-.77.28-8.54,3L222.82,62.42l-.34.29C220.85,64.14,209.5,73.92,223.45,79.37Z"/><path class="cls-8" d="M223.45,79.37c1,.39,2,.74,2.89,1.06,7.67,2.66,12.5,2.95,15.15,2.74h.09l.38,0,.06,0h0L265.3,74l9.32-3.81V84a14.76,14.76,0,0,0,14.76,14.76h3.06l.17-.06a14.72,14.72,0,0,0,5.28-11.31V47A14.76,14.76,0,0,0,286.61,32.6h0a14.24,14.24,0,0,0-3.48-.42H280l-.6.53c-.19.17-.36.34-.54.53a1.59,1.59,0,0,0-.13.13c-.15.15-.28.3-.43.46,0,0,0,0,0,0a5.81,5.81,0,0,0-.38.46s0,0,0,0a3.92,3.92,0,0,0-.25.32l0,0s0,0,0,0-.22.29-.33.44-.22.32-.32.48-.14.24-.22.36a2.54,2.54,0,0,0-.16.28,3.07,3.07,0,0,0-.17.31,13.38,13.38,0,0,0-.82,1.81c-.05.12-.09.24-.13.37s-.13.39-.19.59-.08.3-.12.45a12.59,12.59,0,0,0-.34,1.75,1.93,1.93,0,0,0,0,.27c0,.2,0,.41-.06.62s0,.31,0,.46,0,.41,0,.62l-.77.28-8.54,3a.34.34,0,0,0,0,.1L225.69,61a14.56,14.56,0,0,0-7.87,6.45C215.69,71.2,215.17,76.13,223.45,79.37Z"/><path class="cls-7" d="M314.46,14.73l-5.07,23.72a4.22,4.22,0,0,1-.86,2.31,11.68,11.68,0,0,1-5.63,3.56,35.16,35.16,0,0,1-12.58,1.59,35.29,35.29,0,0,1-12.4-2.61A13.19,13.19,0,0,1,273.14,40l-.26-.34a4.33,4.33,0,0,1-.95-2.77l-7.75-22Z"/><ellipse class="cls-8" cx="289.15" cy="13.69" rx="11.97" ry="25.33" transform="translate(263.58 302.03) rotate(-87.64)"/><ellipse class="cls-7" cx="289.13" cy="12.41" rx="11.97" ry="6.7"/><circle class="cls-9" cx="194.16" cy="108.4" r="2.16"/><path class="cls-10" d="M185.67,119.8a30.53,30.53,0,0,1-61-.89,29.06,29.06,0,0,1,.27-4l32.35-24.82c8.86,1,18.59,4.36,23.72,12.49A30.31,30.31,0,0,1,185.67,119.8Z"/><polygon class="cls-11" points="171.56 94 165.87 98.2 161.32 101.55 126.06 127.52 57.28 34.14 92.18 7.68 96.69 4.27 102.32 0 171.56 94"/><path class="cls-12" d="M174.05,106.49a24,24,0,0,0-9.6-8.47l.19-.15-.34-.46L96.05,4.75,92.18,7.68,56.3,34.89l-5.59,4.24L118.82,131a30.61,30.61,0,0,0,3.61,8.13,29.94,29.94,0,0,0,2.55,3.48,30.53,30.53,0,0,0,39.56,6c.91-.58,1.77-1.19,2.6-1.84a30.55,30.55,0,0,0,6.91-40.28Z"/><path class="cls-10" d="M174.06,142.89a30.52,30.52,0,0,1-53,2.47,29,29,0,0,1-2.15-4,30.19,30.19,0,0,1-2.3-16.24l8-6.18,24.29-18.63c8.87,1,18.6,4.36,23.72,12.48a30.55,30.55,0,0,1,1.42,30.13Z"/><polygon class="cls-11" points="163.24 104.15 117.74 137.66 47.16 41.82 92.18 7.68 163.24 104.15"/><g class="cls-5"><path class="cls-6" d="M185.67,119.8a30.47,30.47,0,0,1-11.61,23.09,30.52,30.52,0,0,1-53,2.47,29,29,0,0,1-2.15-4c3.74-.87,8.32-1.85,13-2.64,7.65-1.28,15.64-2.05,20.89-1,10.79,2.09,19.13-5.57,24.55-9.74a22.34,22.34,0,0,1,2.94-2C182.83,124.6,184.23,121.89,185.67,119.8Z"/></g><circle class="cls-13" cx="173.36" cy="127.22" r="5.55"/><path class="cls-9" d="M191.46,117.37a5.91,5.91,0,0,0,.23-1.64,6.09,6.09,0,0,0-11.84-2,10.53,10.53,0,0,0-6.5,6.1,7.91,7.91,0,0,0-2.59-.43,8.11,8.11,0,0,0-7.86,6.1A12.73,12.73,0,0,0,146,129.73a10,10,0,0,0-3.21,1.23,6.42,6.42,0,0,0-10.44,5,6.54,6.54,0,0,0,.07.89,4.52,4.52,0,0,0-.53-.06,5,5,0,0,0-8.18,3.63c-.1.13-.21.27-.3.4a6.13,6.13,0,0,0,1.23,12,9.35,9.35,0,0,0,15.11-3.07,9,9,0,0,0,11.84-1.17l.4-.18.52.2a5,5,0,0,0-.22,1.46,5.16,5.16,0,1,0,9.92-2,12.7,12.7,0,0,0,6.81-8.23l.25.23a6,6,0,0,0-.58,2.57,6.06,6.06,0,1,0,10.19-4.43,6,6,0,0,0,.6-2.62,6.16,6.16,0,0,0-.43-2.24,10.39,10.39,0,0,0,4,.8,10.48,10.48,0,0,0,8.36-16.83Z"/><circle class="cls-9" cx="188.05" cy="98.22" r="3.44"/><circle class="cls-9" cx="158.84" cy="116.56" r="2.59"/><circle class="cls-9" cx="200.99" cy="118.64" r="4.67"/><g class="cls-5"><path class="cls-14" d="M126.9,152s6.71,3.85,10.87-2.53"/></g><g class="cls-5"><path class="cls-14" d="M140.43,148.52s6.71,3.85,10.86-2.53"/></g><g class="cls-5"><path class="cls-14" d="M179.25,131s6.7,3.85,10.86-2.53"/></g><g class="cls-5"><path class="cls-15" d="M160.81,145.29s5.22-.1,5.42-5.24"/></g><g class="cls-5"><path class="cls-14" d="M167.33,132s5,2.59,7.82-2.17"/></g><g class="cls-5"><path class="cls-16" d="M171.9,146.8s4,2.31,6.5-1.51"/></g><g class="cls-5"><path class="cls-17" d="M199.45,121.92a3,3,0,0,0,4-.93"/></g><path class="cls-18" d="M170.22,102.85l-.2,0Z"/><path class="cls-18" d="M175.15,98.83c0,3.38-4,3.94-4.93,4,.93,0,4.93.09,4.93,5.55,0-5.46,4-5.59,4.94-5.55C179.16,102.77,175.15,102.21,175.15,98.83Z"/><path class="cls-18" d="M180.09,102.85l.19,0Z"/><path class="cls-18" d="M139.66,118.21l-.26,0Z"/><path class="cls-18" d="M147.59,114.72c-1.22,4.42-6.67,3.71-7.93,3.49,1.24.28,6.45,1.89,4.48,9.06,2-7.17,7.27-5.89,8.48-5.5C151.42,121.32,146.37,119.14,147.59,114.72Z"/><path class="cls-18" d="M152.62,121.77l.25.09Z"/><path class="cls-18" d="M180.88,136.91l-.26-.08Z"/><path class="cls-18" d="M189.13,134.27c-1.68,4.27-7,3-8.25,2.64,1.2.41,6.21,2.56,3.5,9.48,2.71-6.92,7.85-5.09,9-4.57C192.25,141.24,187.45,138.54,189.13,134.27Z"/><path class="cls-18" d="M193.39,141.82l.24.11Z"/><path class="cls-18" d="M195.76,100.12a3.11,3.11,0,0,0-.32-.18Z"/><path class="cls-18" d="M207.48,98.77c-3.37,5.26-10.18,2.14-11.72,1.35,1.5.86,7.62,5.06,2.17,13.58,5.45-8.52,11.83-4.73,13.24-3.73C209.8,108.91,204.11,104,207.48,98.77Z"/><path class="cls-18" d="M211.17,110l.29.22Z"/></g></g></svg>