<svg xmlns="http://www.w3.org/2000/svg" viewBox="0 0 265.3 285"><defs><style>.cls-1{fill:#59a3df;}.cls-2{opacity:0.22;}.cls-3{fill:#2a73c7;}.cls-4{fill:#2083c6;}.cls-5{fill:#fff;}.cls-6{fill:#e4e5e2;}.cls-7{fill:#f2b446;}.cls-8{fill:#28383d;}.cls-9{opacity:0.37;}.cls-10{fill:#1c60a3;}</style></defs><g id="Camada_2" data-name="Camada 2"><g id="Layer_1" data-name="Layer 1"><path class="cls-1" d="M264,131.32q0,1.23,0,2.46H1.36q0-1.23,0-2.46a131.33,131.33,0,0,1,262.65,0Z"/><path class="cls-1" d="M49.63,29.58S27.49,43.19,17.34,22.12C17.34,22.12,16.47,65.62,49.63,29.58Z"/><path class="cls-1" d="M45,30S26.41,57.43,3.59,38.3C3.59,38.3,25.38,89.24,45,30Z"/><path class="cls-1" d="M59.08,23.23S41.53,34,33.48,17.33C33.48,17.33,32.8,51.8,59.08,23.23Z"/><path class="cls-1" d="M215.79,29.58s22.14,13.61,32.29-7.46C248.08,22.12,248.94,65.62,215.79,29.58Z"/><path class="cls-1" d="M220.44,30S239,57.43,261.83,38.3C261.83,38.3,240,89.24,220.44,30Z"/><path class="cls-1" d="M206.34,23.23s17.55,10.79,25.6-5.9C231.94,17.33,232.62,51.8,206.34,23.23Z"/><g class="cls-2"><ellipse cx="132.65" cy="273.17" rx="132.65" ry="11.83"/></g><rect class="cls-1" x="61.31" y="210.4" width="35.02" height="66.69" rx="13.75"/><rect class="cls-1" x="171.96" y="210.4" width="35.02" height="66.69" rx="13.75"/><path class="cls-3" d="M264,135.55v33.13q0,2.59-.18,5.13c-.08,1.24-.19,2.46-.33,3.68a78.52,78.52,0,0,1-3.09,14.61,77.55,77.55,0,0,1-3.82,9.81,78.66,78.66,0,0,1-71.37,45.37H80.12A78.68,78.68,0,0,1,8.65,201.72a81,81,0,0,1-3.8-9.84,79.47,79.47,0,0,1-3-14.63c-.15-1.37-.27-2.75-.35-4.14s-.12-2.9-.13-4.36v-33.2Z"/><circle class="cls-4" cx="66.05" cy="92.94" r="6.98"/><circle class="cls-4" cx="200" cy="92.94" r="6.98"/><path class="cls-5" d="M154.27,158.13s-4-4-8.56-2.53-10.18,5.36-16.48,4.93-10.35-4.31-14.55-4.16-9.05,2.6-9.2,2.67c.21-.58,12.9-35.35,14.9-53.45a27.77,27.77,0,0,0,.09-7s-2.77-6.16,7-7.29c4.9-.57,7.89.6,10.48,2.37a24.49,24.49,0,0,1,10,15.46C150.88,123.59,155.78,150.13,154.27,158.13Z"/><path class="cls-6" d="M121.69,124s-2.42,19.83-8.48,26c0,0,7.15-22,4.24-31.59S121.69,124,121.69,124Z"/><circle class="cls-7" cx="104.62" cy="120.67" r="17.51"/><path class="cls-6" d="M142.46,125.88a30.34,30.34,0,0,1-11.33,25.79s18.33-4.8,18-25.79l-4-2.56-2.86,1.89Z"/><circle class="cls-7" cx="159.18" cy="120.67" r="17.51"/><path class="cls-6" d="M120.38,105.59a27.77,27.77,0,0,0,.09-7s7.48,10.58,8.38,20.26C128.85,118.89,125,113,120.38,105.59Z"/><path class="cls-6" d="M129.23,160.53c-6.3-.45-10.35-4.31-14.55-4.16s-9.05,2.6-9.2,2.67,5.1-5.1,10-4.64S123.46,160.11,129.23,160.53Z"/><path class="cls-8" d="M173.8,87.44a2.55,2.55,0,0,1-.93-.17l-35.6-13.39L169.54,61a2.64,2.64,0,0,1,2,4.9l-19.63,7.8,22.87,8.6a2.64,2.64,0,0,1-.93,5.1Z"/><path class="cls-8" d="M90.87,87.44a2.63,2.63,0,0,1-.93-5.1l22.86-8.6-19.62-7.8A2.64,2.64,0,0,1,95.12,61l32.27,12.84L91.79,87.27A2.46,2.46,0,0,1,90.87,87.44Z"/><g class="cls-9"><path d="M123.83,123.32a17.5,17.5,0,0,1-11.89,16.59c2-6.41,4.14-13.63,5.79-20.4.19-.76.37-1.53.55-2.28h0c.43-1.9.82-3.75,1.16-5.51A17.46,17.46,0,0,1,123.83,123.32Z"/></g><g class="cls-9"><path d="M141.67,123.32a17.58,17.58,0,0,0,7.39,14.29,16.11,16.11,0,0,0,4.28,2.41c-1.29-10.86-3.91-13.74-5.56-20.51-.19-.76-.37-1.53-.55-2.28h0c-.43-1.9-.82-3.75-1.16-5.51A17.42,17.42,0,0,0,141.67,123.32Z"/></g><rect class="cls-10" x="1.32" y="147.5" width="262.65" height="10.82"/><path class="cls-10" d="M263.91,171.2v.09A77.41,77.41,0,0,1,262.73,182H2.56A80.12,80.12,0,0,1,1.39,171.2Z"/><path class="cls-10" d="M259.27,194.89c-.37,1-.76,2-1.16,3-.94,2.29-2,4.54-3.14,6.72-.19.37-.39.74-.61,1.11H10.93c-.32-.57-.62-1.15-.92-1.72-1.17-2.27-2.23-4.59-3.18-7-.27-.7-.54-1.4-.8-2.11Z"/><g class="cls-2"><path d="M264,138.15v30.34c0,1.79-.06,3.57-.18,5.32L155.37,142.86a18.25,18.25,0,0,1-2.45-.74c1.31,9,2.08,17.24,1.35,21.1,0,0-4-4-8.56-2.53s-10.18,5.36-16.48,4.92-10.35-4.3-14.55-4.15-9.05,2.6-9.2,2.67c.12-.31,3.92-10.73,7.69-23.08a17.75,17.75,0,0,1-4.74,1.81l-107,30.25c-.08-1.44-.12-2.9-.13-4.36V137.31a17.06,17.06,0,0,1,2.9-1.11l2.28-.65L99.64,109v0a17.5,17.5,0,0,1,19.83,7.54c.39-2.07.7-4,.9-5.84.31-2.78,2-5,1.75-6.83,0,0-4.43-6.29,5.36-7.42,4.9-.57,7.89.6,10.48,2.37a24.33,24.33,0,0,1,9.63,13.84A17.5,17.5,0,0,1,164.15,109v0l93.13,26.6,2.28.65A17,17,0,0,1,264,138.15Z"/></g><path class="cls-5" d="M154.27,158.13s-4-4-8.56-2.53-10.18,5.36-16.48,4.93-10.35-4.31-14.55-4.16-9.05,2.6-9.2,2.67c.11-.28,3.13-8.59,6.46-19.13,2-6.41,4.14-13.63,5.79-20.4.19-.76.37-1.53.55-2.28h0c.43-1.9.82-3.75,1.16-5.51.41-2.18.73-4.24.94-6.13a27.77,27.77,0,0,0,.09-7s-2.77-6.16,7-7.29c4.9-.57,7.89.6,10.48,2.37a24.49,24.49,0,0,1,10,15.46C150.88,123.59,155.78,150.13,154.27,158.13Z"/><path class="cls-6" d="M121.68,124a106.74,106.74,0,0,1-1.94,10.58c-1.36,5.73-3.48,12.28-6.53,15.38.09-.28,1.86-5.75,3.24-12.34,1.31-6.16,2.28-13.29,1.28-18.1.19-.76.37-1.53.55-2.28C119.73,119.83,121.68,124,121.68,124Z"/><path class="cls-6" d="M142.46,125.88a30.34,30.34,0,0,1-11.33,25.79s18.33-4.8,18-25.79l-4-2.56-2.86,1.89Z"/><path class="cls-6" d="M120.38,105.59a27.77,27.77,0,0,0,.09-7s7.48,10.58,8.38,20.26C128.85,118.89,125,113,120.38,105.59Z"/><circle class="cls-1" cx="159.18" cy="120.67" r="17.51"/><path class="cls-10" d="M264,135.55v33.13L154.54,137.52l.57-2,9-31.7L264,132.37v.72c0,.82,0,1.64,0,2.46Z"/><circle class="cls-1" cx="104.62" cy="120.67" r="17.51"/><path class="cls-10" d="M109.26,137.52l-107.93,31V135.55h0c0-.82,0-1.64,0-2.46,0-.29,0-.58,0-.87l98.3-28.37,9,31.7Z"/></g></g></svg>