<?xml version="1.0" encoding="UTF-8"?>
<svg xmlns="http://www.w3.org/2000/svg" xmlns:xlink="http://www.w3.org/1999/xlink" width="595.5pt" height="842.249979pt" viewBox="0 0 595.5 842.249979" version="1.2">
<defs>
<clipPath id="clip1">
  <path d="M 218.820312 205 L 376.082031 205 L 376.082031 520.714844 L 218.820312 520.714844 Z M 218.820312 205 "/>
</clipPath>
<clipPath id="clip2">
  <path d="M 241 138.78125 L 338 138.78125 L 338 528.011719 L 241 528.011719 Z M 241 138.78125 "/>
</clipPath>
</defs>
<g id="surface1">
<path style=" stroke:none;fill-rule:nonzero;fill:rgb(70.588684%,42.749023%,23.919678%);fill-opacity:1;" d="M 302.773438 194.328125 L 308.394531 208.472656 C 288.789062 218.246094 278.917969 205.308594 278.917969 205.308594 L 284.425781 193.21875 C 279.898438 190.253906 278.089844 184.96875 277.519531 179.820312 C 273.339844 176.773438 274.964844 170.574219 275.597656 170.015625 L 277.636719 170.074219 C 277.933594 167.515625 278.320312 165.828125 278.320312 165.828125 C 279.109375 158 289.457031 155.632812 297.613281 157.59375 C 305.769531 159.546875 308.210938 164.019531 308.90625 169.949219 C 309.03125 171.039062 309.054688 172.292969 308.996094 173.648438 L 310.855469 173.78125 C 311.4375 174.472656 312.125 181.308594 307.871094 181.761719 C 307.019531 185.753906 305.777344 189.722656 304.417969 192.644531 C 304.085938 193.355469 303.511719 193.90625 302.773438 194.328125 "/>
<g clip-path="url(#clip1)" clip-rule="nonzero">
<path style=" stroke:none;fill-rule:nonzero;fill:rgb(28.62854%,39.608765%,61.959839%);fill-opacity:1;" d="M 376.042969 275.804688 C 376.011719 275.304688 375.957031 274.769531 375.894531 274.226562 C 375.820312 273.683594 375.738281 273.117188 375.644531 272.53125 C 375.257812 270.207031 374.65625 267.664062 373.988281 265.28125 C 373.726562 264.378906 373.476562 263.5 373.214844 262.664062 C 373.039062 262.109375 372.871094 261.574219 372.695312 261.0625 L 372.445312 260.308594 C 371.863281 258.601562 371.332031 257.234375 370.953125 256.4375 C 366.308594 246.714844 360.261719 237.671875 353.050781 229.679688 C 352.058594 228.585938 351.046875 227.503906 349.976562 226.488281 C 348.910156 225.472656 347.785156 224.515625 346.578125 223.675781 C 346.085938 223.332031 344.785156 222.660156 342.941406 221.773438 C 338.136719 219.464844 329.652344 215.6875 322.148438 212.355469 C 320.996094 211.839844 319.867188 211.339844 318.777344 210.855469 C 312.242188 207.941406 307.167969 205.65625 307.230469 205.5 L 306.992188 206.082031 C 306.941406 206.199219 306.882812 206.332031 306.824219 206.476562 L 303.9375 213.425781 C 303.792969 213.769531 303.671875 214.117188 303.5625 214.46875 C 303.441406 214.871094 303.335938 215.273438 303.25 215.6875 C 303.230469 215.785156 303.207031 215.882812 303.191406 215.980469 C 302.953125 217.332031 302.945312 218.726562 303.175781 220.097656 C 304.53125 228.089844 307.375 275.378906 309.269531 308.871094 C 303.324219 307.101562 296.304688 305.417969 289.289062 304.664062 C 292.359375 267.527344 295.871094 218.472656 293.125 217.269531 C 290.910156 216.292969 287.363281 213.234375 284.371094 210.417969 C 283.621094 209.710938 282.910156 209.023438 282.261719 208.386719 C 281.773438 207.90625 281.320312 207.460938 280.921875 207.054688 C 280.652344 206.785156 280.40625 206.535156 280.1875 206.308594 C 279.410156 205.519531 278.945312 205.027344 278.945312 205.027344 C 272.863281 206.878906 267.414062 209.144531 262.601562 211.546875 C 261.609375 212.046875 260.652344 212.546875 259.714844 213.054688 C 258.949219 213.472656 258.191406 213.882812 257.464844 214.300781 C 256.710938 214.734375 255.980469 215.167969 255.265625 215.601562 C 254.632812 215.984375 254.015625 216.367188 253.414062 216.75 C 251.15625 218.179688 249.117188 219.597656 247.292969 220.949219 C 246.296875 221.691406 245.363281 222.414062 244.496094 223.105469 C 244.359375 223.214844 244.222656 223.328125 244.089844 223.433594 C 243.539062 223.875 243.019531 224.308594 242.527344 224.722656 C 239.773438 227.050781 237.886719 228.917969 236.875 229.929688 C 236.355469 230.453125 235.53125 231.894531 234.523438 233.984375 C 234.414062 234.214844 234.300781 234.457031 234.179688 234.703125 C 234.078125 234.921875 233.972656 235.148438 233.867188 235.378906 C 228.4375 247.175781 218.824219 274.140625 218.820312 284.207031 C 218.820312 285.253906 218.925781 286.125 219.152344 286.773438 C 220.070312 289.355469 223.273438 293.375 227.253906 297.675781 C 227.652344 298.113281 228.058594 298.542969 228.46875 298.972656 C 229.703125 300.28125 230.992188 301.597656 232.300781 302.90625 C 232.734375 303.347656 233.171875 303.777344 233.609375 304.203125 C 241.035156 311.519531 248.492188 317.996094 248.492188 317.996094 C 246.484375 324.035156 245.148438 334.320312 245.148438 334.320312 C 247.894531 338.140625 250.984375 340.933594 254.195312 342.972656 C 254.683594 354.597656 255.464844 373.601562 255.972656 388.40625 C 255.976562 388.628906 255.984375 388.847656 255.996094 389.066406 C 256.003906 389.339844 256.015625 389.621094 256.023438 389.894531 C 256.03125 390.144531 256.039062 390.386719 256.046875 390.636719 C 256.054688 390.929688 256.066406 391.222656 256.074219 391.515625 C 256.085938 391.703125 256.089844 391.890625 256.097656 392.082031 C 256.105469 392.363281 256.113281 392.644531 256.121094 392.929688 C 256.128906 393.128906 256.136719 393.335938 256.140625 393.546875 C 256.152344 393.839844 256.160156 394.132812 256.167969 394.425781 L 256.183594 394.863281 C 256.195312 395.1875 256.203125 395.503906 256.214844 395.816406 C 256.21875 395.953125 256.222656 396.078125 256.226562 396.214844 C 256.234375 396.515625 256.242188 396.820312 256.25 397.113281 C 256.253906 397.25 256.257812 397.375 256.261719 397.5 C 256.296875 398.566406 256.320312 399.574219 256.34375 400.523438 C 256.347656 400.585938 256.347656 400.660156 256.351562 400.722656 C 256.355469 401.015625 256.363281 401.289062 256.371094 401.570312 C 256.371094 401.65625 256.378906 401.738281 256.378906 401.824219 C 256.386719 402.09375 256.390625 402.347656 256.398438 402.597656 C 256.398438 402.703125 256.402344 402.796875 256.402344 402.890625 C 256.40625 403.109375 256.414062 403.328125 256.417969 403.539062 C 256.417969 403.675781 256.421875 403.800781 256.425781 403.9375 C 256.425781 404.125 256.429688 404.3125 256.433594 404.492188 C 256.4375 404.625 256.4375 404.753906 256.441406 404.878906 C 256.441406 405.046875 256.445312 405.210938 256.445312 405.371094 C 256.449219 405.496094 256.449219 405.632812 256.453125 405.746094 C 256.453125 405.902344 256.457031 406.058594 256.457031 406.21875 C 256.457031 406.320312 256.460938 406.417969 256.460938 406.519531 C 256.460938 406.667969 256.460938 406.824219 256.464844 406.960938 L 256.464844 407.621094 C 256.464844 414.421875 259.734375 442.277344 262.648438 467.671875 C 262.734375 468.414062 262.816406 469.15625 262.902344 469.910156 C 263.070312 471.386719 263.242188 472.863281 263.402344 474.316406 C 263.820312 477.957031 264.21875 481.503906 264.59375 484.875 C 264.96875 488.253906 265.3125 491.445312 265.621094 494.398438 C 265.683594 494.992188 265.746094 495.570312 265.800781 496.144531 C 266.742188 505.257812 267.273438 511.671875 267.015625 512.960938 C 265.976562 518.078125 267.304688 516.738281 273.496094 516.894531 C 274.726562 516.925781 285.578125 415.570312 285.578125 415.570312 C 285.578125 415.457031 285.585938 415.351562 285.597656 415.238281 C 285.597656 415.226562 285.601562 415.195312 285.601562 415.183594 C 285.621094 415.039062 285.644531 414.820312 285.679688 414.527344 C 285.6875 414.464844 285.695312 414.410156 285.699219 414.359375 C 285.738281 414.003906 285.792969 413.582031 285.847656 413.082031 C 285.859375 412.988281 285.878906 412.863281 285.890625 412.757812 C 285.910156 412.578125 285.929688 412.402344 285.953125 412.214844 C 285.964844 412.128906 285.976562 412.054688 285.984375 411.972656 C 286.011719 411.722656 286.042969 411.460938 286.078125 411.1875 C 286.085938 411.113281 286.09375 411.050781 286.101562 410.96875 C 286.324219 409.125 286.605469 406.792969 286.933594 404.136719 C 286.933594 404.09375 286.941406 404.039062 286.949219 404 C 287.203125 401.875 287.492188 399.542969 287.800781 397.09375 C 287.808594 397.039062 287.8125 396.988281 287.820312 396.9375 C 287.890625 396.328125 287.96875 395.722656 288.046875 395.09375 C 290.707031 373.90625 294.554688 345.359375 294.550781 357.6875 C 294.550781 366.675781 295.632812 380.558594 296.757812 392.636719 C 297.902344 404.847656 299.101562 415.175781 299.277344 416.691406 C 299.285156 416.753906 299.285156 416.816406 299.285156 416.878906 C 299.289062 416.941406 299.296875 417.003906 299.292969 417.078125 L 303.625 516.570312 C 303.605469 517.332031 303.851562 517.785156 304.273438 518.054688 L 304.359375 519.761719 C 304.324219 521.140625 304.359375 519.761719 305.589844 519.761719 L 310.941406 518.378906 C 310.789062 518.285156 310.738281 517.742188 310.777344 516.808594 L 311.601562 516.558594 C 310.695312 516.003906 311.789062 510.980469 311.882812 510.207031 C 312.515625 505.082031 313.351562 499.964844 314.179688 494.855469 C 316.515625 480.554688 319.101562 466.300781 321.703125 452.050781 C 325.074219 433.550781 328.753906 415.71875 328.808594 396.839844 C 328.847656 381.355469 328.878906 365.867188 328.464844 350.394531 C 328.433594 349.136719 328.390625 347.871094 328.347656 346.613281 C 333.445312 346.125 339.644531 344.460938 346.972656 340.652344 C 346.972656 340.652344 343.792969 331.316406 342.085938 324.253906 C 342 323.917969 341.917969 323.585938 341.84375 323.257812 C 341.625 322.277344 341.4375 321.367188 341.292969 320.539062 C 341.242188 320.265625 341.210938 319.996094 341.167969 319.742188 C 340.949219 318.214844 340.949219 317.105469 341.25 316.679688 C 343.148438 314.042969 349.984375 309.082031 357.425781 302.226562 C 357.863281 301.820312 358.3125 301.410156 358.75 300.992188 C 359.636719 300.164062 360.523438 299.308594 361.398438 298.417969 C 362.285156 297.527344 363.167969 296.628906 364.046875 295.6875 C 364.921875 294.757812 365.785156 293.792969 366.628906 292.808594 C 370.015625 288.886719 373.152344 284.5625 375.570312 279.898438 C 376.03125 279.019531 376.144531 277.5625 376.042969 275.804688 Z M 311.011719 518.390625 C 310.984375 518.402344 310.960938 518.390625 310.941406 518.378906 L 310.992188 518.359375 L 311.121094 518.328125 L 311.113281 518.328125 C 311.078125 518.371094 311.042969 518.378906 311.011719 518.390625 "/>
</g>
<path style=" stroke:none;fill-rule:nonzero;fill:rgb(39.219666%,53.729248%,77.648926%);fill-opacity:1;" d="M 347.421875 266.535156 C 346.640625 267.84375 345.242188 269.558594 343.628906 271.546875 C 341.230469 274.488281 338.53125 277.804688 336.71875 281.132812 L 336.71875 281.101562 C 336.71875 280.847656 336.707031 280.589844 336.707031 280.328125 L 336.707031 280.117188 C 336.707031 279.835938 336.707031 279.550781 336.695312 279.257812 L 336.695312 279.238281 C 336.6875 278.957031 336.6875 278.652344 336.675781 278.359375 L 336.675781 278.171875 C 336.664062 277.5625 336.644531 276.945312 336.632812 276.328125 L 336.632812 276.078125 L 336.601562 275.199219 L 336.601562 275.167969 C 336.59375 274.863281 336.59375 274.5625 336.582031 274.269531 C 336.570312 274.214844 336.570312 274.164062 336.570312 274.121094 C 336.570312 273.816406 336.5625 273.523438 336.550781 273.230469 L 336.550781 273.199219 C 336.539062 272.9375 336.53125 272.6875 336.53125 272.445312 C 336.519531 272.34375 336.519531 272.238281 336.519531 272.132812 C 336.507812 271.964844 336.5 271.796875 336.5 271.640625 C 336.5 271.503906 336.488281 271.378906 336.488281 271.253906 C 336.476562 271.097656 336.476562 270.960938 336.476562 270.816406 C 336.46875 270.742188 336.46875 270.65625 336.46875 270.585938 C 336.445312 270.164062 336.4375 269.800781 336.425781 269.484375 L 336.425781 269.320312 C 336.40625 268.867188 336.394531 268.585938 336.382812 268.511719 L 334.394531 268.585938 C 334.539062 272.363281 334.863281 282.554688 334.652344 284.261719 L 335.289062 284.335938 C 335.195312 284.59375 335.121094 284.847656 335.050781 285.109375 C 335.027344 285.160156 335.007812 285.222656 334.996094 285.277344 C 334.894531 285.664062 334.808594 286.050781 334.746094 286.4375 C 334.726562 286.582031 334.695312 286.730469 334.675781 286.875 C 334.652344 287.054688 334.644531 287.222656 334.632812 287.390625 C 334.613281 287.640625 334.601562 287.882812 334.613281 288.121094 C 334.613281 288.246094 334.613281 288.363281 334.621094 288.488281 C 334.632812 288.78125 334.664062 289.0625 334.707031 289.347656 C 334.726562 289.441406 334.738281 289.546875 334.757812 289.640625 C 334.820312 289.972656 334.902344 290.308594 335.019531 290.632812 C 337.332031 297.296875 337.164062 303.117188 334.519531 307.941406 L 336.269531 308.902344 C 339.199219 303.566406 339.40625 297.203125 336.90625 289.984375 C 335.195312 285.054688 340.96875 277.984375 345.179688 272.8125 C 346.847656 270.773438 348.277344 269.003906 349.140625 267.558594 Z M 337.78125 398.117188 C 337.675781 396.808594 334.644531 397.523438 334.757812 398.933594 C 336.8125 424.757812 334.777344 450.898438 328.808594 476.09375 C 327.109375 483.261719 325.085938 490.347656 322.753906 497.335938 C 322.21875 498.949219 325.222656 498.84375 325.628906 497.628906 C 333.976562 472.640625 338.394531 446.386719 338.582031 420.03125 C 338.636719 412.714844 338.363281 405.402344 337.78125 398.117188 Z M 340.25 473.363281 C 338.25 482.5 336.25 491.644531 334.246094 500.78125 C 333.964844 502.078125 337.03125 501.636719 337.28125 500.464844 C 339.292969 491.332031 341.28125 482.183594 343.285156 473.050781 C 343.574219 471.753906 340.5 472.191406 340.25 473.363281 Z M 336.457031 333.808594 C 335.863281 333.390625 334.851562 333.660156 334.300781 334.027344 C 328.910156 337.625 321.964844 337.09375 315.804688 336.632812 C 315.128906 336.589844 314.152344 336.851562 313.832031 337.523438 C 313.511719 338.179688 314.105469 338.609375 314.714844 338.664062 C 322.023438 339.195312 329.890625 339.480469 336.257812 335.230469 C 336.769531 334.886719 337.039062 334.214844 336.457031 333.808594 Z M 245.289062 422.246094 C 245.289062 414.609375 245.558594 406.972656 246.101562 399.34375 C 246.171875 398.347656 243.160156 398.976562 243.105469 399.804688 C 241.207031 426.589844 242.585938 453.566406 247.265625 480 C 248.582031 487.417969 250.160156 494.785156 251.980469 502.085938 C 252.191406 502.925781 255.21875 502.148438 255 501.28125 C 248.558594 475.457031 245.285156 448.867188 245.289062 422.246094 Z M 244.441406 263.710938 C 244.507812 263.742188 244.570312 263.773438 244.648438 263.824219 C 244.722656 263.867188 244.808594 263.917969 244.886719 263.972656 C 244.945312 264.011719 245.003906 264.042969 245.0625 264.085938 C 245.179688 264.160156 245.304688 264.253906 245.429688 264.347656 C 245.46875 264.367188 245.503906 264.390625 245.542969 264.421875 C 245.703125 264.535156 245.871094 264.671875 246.042969 264.808594 C 246.050781 264.820312 246.058594 264.820312 246.066406 264.820312 C 248.082031 266.429688 250.890625 269.265625 251.855469 271.695312 C 251.859375 272.550781 251.871094 273.441406 251.898438 274.339844 C 251.898438 274.363281 251.898438 274.382812 251.902344 274.414062 C 251.933594 275.304688 251.976562 276.214844 252.039062 277.125 L 252.039062 277.136719 C 252.160156 278.945312 252.347656 280.765625 252.621094 282.585938 C 252.632812 282.660156 252.640625 282.734375 252.652344 282.804688 C 252.777344 283.652344 252.929688 284.480469 253.097656 285.316406 C 253.121094 285.441406 253.144531 285.558594 253.171875 285.683594 C 253.339844 286.488281 253.527344 287.296875 253.738281 288.089844 C 253.769531 288.214844 253.808594 288.339844 253.839844 288.46875 C 254.058594 289.273438 254.296875 290.058594 254.558594 290.832031 C 254.589844 290.914062 254.625 291.011719 254.660156 291.105469 C 254.941406 291.910156 255.246094 292.707031 255.578125 293.480469 C 255.644531 293.605469 262.011719 306.382812 253.378906 313.757812 L 254.675781 315.285156 C 258.757812 311.792969 260.507812 306.738281 259.734375 300.65625 C 259.167969 296.148438 257.433594 292.707031 257.382812 292.621094 C 251.238281 278.546875 255.023438 256.269531 255.066406 256.050781 L 253.101562 255.703125 C 253.097656 255.734375 253.085938 255.777344 253.074219 255.851562 C 253.070312 255.863281 253.070312 255.871094 253.066406 255.882812 C 253.058594 255.933594 253.046875 256.007812 253.035156 256.09375 C 253.027344 256.144531 253.015625 256.21875 253.003906 256.28125 C 252.992188 256.332031 252.988281 256.386719 252.980469 256.4375 C 252.964844 256.519531 252.949219 256.625 252.933594 256.730469 C 252.929688 256.78125 252.921875 256.824219 252.914062 256.875 C 252.894531 256.992188 252.875 257.117188 252.859375 257.242188 C 252.851562 257.304688 252.84375 257.359375 252.835938 257.429688 C 252.816406 257.566406 252.792969 257.714844 252.773438 257.859375 C 252.765625 257.921875 252.757812 257.984375 252.75 258.046875 C 252.726562 258.214844 252.707031 258.382812 252.679688 258.5625 C 252.671875 258.636719 252.664062 258.699219 252.65625 258.761719 C 252.632812 258.949219 252.613281 259.136719 252.585938 259.335938 C 252.578125 259.410156 252.570312 259.492188 252.558594 259.566406 C 252.535156 259.765625 252.507812 259.984375 252.484375 260.203125 C 252.476562 260.277344 252.46875 260.351562 252.464844 260.425781 C 252.4375 260.65625 252.410156 260.894531 252.386719 261.136719 C 252.378906 261.207031 252.375 261.273438 252.367188 261.34375 C 252.34375 261.605469 252.320312 261.867188 252.289062 262.140625 C 252.285156 262.203125 252.28125 262.253906 252.277344 262.308594 C 252.25 262.601562 252.226562 262.902344 252.199219 263.207031 C 252.195312 263.226562 252.195312 263.261719 252.191406 263.28125 C 252.078125 264.695312 251.980469 266.242188 251.917969 267.90625 C 251.746094 267.675781 251.566406 267.445312 251.378906 267.226562 C 251.300781 267.132812 251.21875 267.039062 251.136719 266.933594 C 251.011719 266.785156 250.886719 266.648438 250.757812 266.492188 C 250.671875 266.398438 250.585938 266.304688 250.5 266.210938 C 250.347656 266.042969 250.195312 265.886719 250.046875 265.730469 C 249.972656 265.644531 249.898438 265.574219 249.824219 265.488281 C 249.628906 265.289062 249.425781 265.101562 249.234375 264.914062 L 248.976562 264.660156 C 248.832031 264.535156 248.6875 264.402344 248.542969 264.273438 C 248.460938 264.203125 248.375 264.128906 248.296875 264.042969 C 248.113281 263.898438 247.933594 263.742188 247.753906 263.59375 C 247.71875 263.5625 247.675781 263.519531 247.636719 263.5 C 247.425781 263.324219 247.21875 263.164062 247.007812 263.007812 C 246.941406 262.957031 246.875 262.902344 246.804688 262.863281 C 246.660156 262.757812 246.511719 262.652344 246.371094 262.558594 C 246.304688 262.515625 246.242188 262.464844 246.175781 262.421875 C 245.996094 262.308594 245.816406 262.203125 245.644531 262.109375 C 245.632812 262.097656 245.617188 262.085938 245.605469 262.078125 C 245.421875 261.972656 245.253906 261.890625 245.085938 261.816406 C 245.039062 261.792969 244.992188 261.785156 244.949219 261.761719 C 244.832031 261.710938 244.722656 261.667969 244.609375 261.636719 C 244.570312 261.628906 244.527344 261.617188 244.488281 261.605469 C 244.351562 261.566406 244.222656 261.542969 244.113281 261.542969 L 244.050781 263.542969 C 244.117188 263.5625 244.203125 263.59375 244.304688 263.636719 C 244.34375 263.65625 244.394531 263.6875 244.441406 263.710938 Z M 276.082031 336.957031 C 271.304688 336.390625 266.421875 336.066406 261.699219 335.15625 C 258.246094 334.488281 254.421875 333.210938 252.683594 329.871094 C 252.074219 328.699219 249.113281 329.632812 249.664062 330.679688 C 251.582031 334.363281 255.359375 336.035156 259.238281 336.882812 C 264.390625 338.003906 269.75 338.316406 274.980469 338.933594 C 275.625 339.019531 276.65625 338.695312 276.957031 338.054688 C 277.265625 337.375 276.679688 337.019531 276.082031 336.957031 Z M 244.386719 495.128906 C 244.847656 495.914062 241.949219 496.9375 241.371094 495.933594 C 232.410156 480.574219 227.527344 463.003906 227.277344 445.207031 C 227.261719 444.042969 230.285156 443.46875 230.296875 444.390625 C 230.546875 462.1875 235.425781 479.769531 244.386719 495.128906 "/>
<g clip-path="url(#clip2)" clip-rule="nonzero">
<path style=" stroke:none;fill-rule:nonzero;fill:rgb(11.369324%,11.369324%,13.729858%);fill-opacity:1;" d="M 277.347656 173.609375 C 277.546875 169.167969 278.320312 165.828125 278.320312 165.828125 C 279.109375 158 289.457031 155.632812 297.613281 157.59375 C 305.769531 159.546875 308.210938 164.019531 308.90625 169.949219 C 309.0625 171.328125 309.054688 172.96875 308.921875 174.738281 L 309.367188 175.183594 C 315.769531 176.964844 317.433594 171.105469 317.648438 168.128906 C 317.761719 166.585938 316.613281 164.96875 315.484375 163.78125 C 314.644531 162.898438 314.640625 161.484375 315.574219 160.703125 C 317.621094 158.972656 317.980469 156.242188 315.683594 153.027344 C 314.609375 151.515625 313.210938 150.605469 311.585938 150.21875 C 310.523438 149.96875 309.839844 149.046875 309.902344 147.988281 C 309.992188 146.410156 309.5 144.847656 308.429688 143.519531 C 306.703125 141.378906 303.984375 140.023438 301.195312 139.917969 C 299.242188 139.84375 297.285156 140.378906 295.640625 141.402344 C 294.710938 141.972656 293.503906 141.90625 292.746094 141.121094 C 291.242188 139.558594 288.464844 139.082031 286.445312 138.886719 C 283.324219 138.585938 279.84375 138.804688 277.597656 140.921875 C 275.242188 143.140625 275.214844 146.210938 275.253906 149.175781 C 275.273438 150.277344 275.386719 153.320312 274.269531 153.488281 C 269.320312 154.226562 268.234375 157.519531 268.050781 160.726562 C 267.746094 165.964844 272.953125 171.738281 277.347656 173.609375 Z M 301.527344 188.019531 C 298.011719 184.597656 295.441406 182.613281 291.667969 182.792969 C 288.605469 182.945312 286.75 185.445312 285.292969 187.296875 C 287.285156 188.550781 289.582031 189.578125 292.136719 189.957031 C 295.894531 190.519531 299.023438 189.5625 301.527344 188.019531 Z M 304.144531 186.015625 C 305.898438 184.394531 307.1875 182.59375 307.984375 181.226562 C 307.984375 181.226562 309.578125 199.167969 292.042969 197.882812 C 286.007812 197.4375 275.394531 196.761719 277.347656 179.59375 C 277.347656 179.59375 279.015625 182.132812 281.898438 184.71875 C 283.90625 183.058594 287.277344 180.9375 291.566406 180.726562 C 295.882812 180.515625 300.105469 182.3125 304.144531 186.015625 Z M 336.539062 344.960938 C 319.707031 350.027344 311.144531 342.859375 311.144531 342.859375 C 311.144531 342.859375 305.308594 232.683594 303.175781 220.097656 C 302.792969 217.847656 303.058594 215.539062 303.9375 213.425781 L 307.230469 205.503906 C 307.230469 205.507812 307.238281 205.507812 307.238281 205.511719 L 307.230469 205.480469 C 288.699219 213.550781 278.945312 205.027344 278.945312 205.027344 C 278.945312 205.027344 288.691406 215.320312 293.125 217.269531 C 297.558594 219.214844 285.695312 345.722656 285.695312 345.722656 C 285.695312 345.722656 266.535156 352.976562 251.574219 341.097656 C 248.019531 363.324219 246.371094 379.910156 248.882812 382.085938 C 282.921875 411.667969 299.28125 385.382812 332.507812 381.992188 C 339.144531 381.3125 338.167969 356.511719 336.539062 344.960938 Z M 310.570312 516.152344 L 303.625 516.570312 L 303.625 528.058594 C 303.625 528.058594 336.539062 528.917969 336.457031 527.609375 C 336.375 526.300781 310.570312 516.152344 310.570312 516.152344 Z M 266.984375 516.152344 L 273.925781 516.570312 L 273.925781 528.058594 C 273.925781 528.058594 241.003906 528.917969 241.089844 527.609375 C 241.175781 526.300781 266.984375 516.152344 266.984375 516.152344 "/>
</g>
</g>
</svg>
