<?xml version="1.0" encoding="UTF-8"?>
<svg xmlns="http://www.w3.org/2000/svg" xmlns:xlink="http://www.w3.org/1999/xlink" width="595.5pt" height="842.249979pt" viewBox="0 0 595.5 842.249979" version="1.2">
<defs>
<clipPath id="clip1">
  <path d="M 161.308594 198.414062 L 434.25 198.414062 L 434.25 744 L 161.308594 744 Z M 161.308594 198.414062 "/>
</clipPath>
<clipPath id="clip2">
  <path d="M 199.320312 84.574219 L 368 84.574219 L 368 757.277344 L 199.320312 757.277344 Z M 199.320312 84.574219 "/>
</clipPath>
</defs>
<g id="surface1">
<path style=" stroke:none;fill-rule:nonzero;fill:rgb(70.588684%,42.749023%,23.919678%);fill-opacity:1;" d="M 307.113281 180.5 L 316.878906 204.925781 C 282.824219 221.800781 265.6875 199.460938 265.6875 199.460938 L 275.253906 178.582031 C 267.390625 173.464844 264.242188 164.335938 263.253906 155.445312 C 255.992188 150.1875 258.820312 139.476562 259.917969 138.511719 L 263.460938 138.617188 C 263.976562 134.199219 264.648438 131.28125 264.648438 131.28125 C 266.019531 117.765625 283.984375 113.675781 298.15625 117.058594 C 312.316406 120.433594 316.5625 128.160156 317.761719 138.398438 C 317.980469 140.28125 318.023438 142.449219 317.917969 144.785156 L 321.148438 145.019531 C 322.160156 146.210938 323.355469 158.011719 315.964844 158.796875 C 314.488281 165.691406 312.332031 172.546875 309.96875 177.59375 C 309.394531 178.820312 308.394531 179.769531 307.113281 180.5 "/>
<g clip-path="url(#clip1)" clip-rule="nonzero">
<path style=" stroke:none;fill-rule:nonzero;fill:rgb(28.62854%,39.608765%,61.959839%);fill-opacity:1;" d="M 434.363281 321.199219 C 434.308594 320.332031 434.21875 319.410156 434.109375 318.472656 C 433.984375 317.53125 433.839844 316.554688 433.675781 315.542969 C 433.003906 311.53125 431.957031 307.140625 430.796875 303.023438 C 430.34375 301.46875 429.910156 299.949219 429.457031 298.503906 C 429.148438 297.546875 428.859375 296.625 428.550781 295.738281 L 428.117188 294.4375 C 427.105469 291.492188 426.179688 289.125 425.53125 287.753906 C 417.457031 270.964844 406.957031 255.351562 394.433594 241.542969 C 392.710938 239.660156 390.957031 237.789062 389.09375 236.035156 C 387.246094 234.28125 385.289062 232.628906 383.191406 231.175781 C 382.339844 230.582031 380.078125 229.421875 376.875 227.890625 C 368.527344 223.902344 353.792969 217.382812 340.765625 211.628906 C 338.761719 210.738281 336.804688 209.871094 334.90625 209.039062 C 323.558594 204.007812 314.742188 200.058594 314.855469 199.792969 L 314.4375 200.792969 C 314.355469 201 314.253906 201.226562 314.148438 201.480469 L 309.136719 213.480469 C 308.886719 214.070312 308.675781 214.671875 308.484375 215.277344 C 308.273438 215.96875 308.089844 216.667969 307.941406 217.382812 C 307.90625 217.550781 307.871094 217.722656 307.839844 217.890625 C 307.425781 220.226562 307.410156 222.632812 307.8125 225 C 310.167969 238.796875 315.105469 320.460938 318.398438 378.300781 C 308.066406 375.246094 295.878906 372.335938 283.695312 371.035156 C 289.027344 306.90625 295.128906 222.195312 290.355469 220.113281 C 286.507812 218.425781 280.351562 213.144531 275.15625 208.285156 C 273.851562 207.0625 272.613281 205.875 271.492188 204.777344 C 270.640625 203.949219 269.859375 203.171875 269.164062 202.472656 C 268.699219 202.007812 268.265625 201.578125 267.886719 201.1875 C 266.535156 199.828125 265.730469 198.972656 265.730469 198.972656 C 255.164062 202.171875 245.703125 206.082031 237.347656 210.230469 C 235.621094 211.09375 233.960938 211.960938 232.332031 212.835938 C 231.003906 213.554688 229.6875 214.269531 228.421875 214.988281 C 227.113281 215.738281 225.847656 216.484375 224.605469 217.234375 C 223.507812 217.898438 222.433594 218.554688 221.386719 219.21875 C 217.46875 221.6875 213.925781 224.136719 210.757812 226.472656 C 209.027344 227.75 207.410156 229 205.902344 230.191406 C 205.660156 230.382812 205.429688 230.574219 205.195312 230.757812 C 204.242188 231.519531 203.335938 232.269531 202.480469 232.988281 C 197.699219 237.003906 194.417969 240.230469 192.664062 241.980469 C 191.761719 242.882812 190.332031 245.367188 188.578125 248.980469 C 188.386719 249.378906 188.191406 249.796875 187.984375 250.21875 C 187.808594 250.597656 187.625 250.988281 187.441406 251.390625 C 178.007812 271.761719 161.3125 318.328125 161.308594 335.710938 C 161.308594 337.515625 161.492188 339.015625 161.886719 340.136719 C 163.476562 344.601562 169.042969 351.539062 175.957031 358.964844 C 176.644531 359.726562 177.351562 360.464844 178.066406 361.207031 C 180.207031 363.464844 182.449219 365.742188 184.71875 368 C 185.476562 368.761719 186.230469 369.5 186.996094 370.242188 C 199.890625 382.871094 212.839844 394.058594 212.839844 394.058594 C 209.351562 404.484375 207.035156 422.246094 207.035156 422.246094 C 211.804688 428.84375 217.164062 433.667969 222.746094 437.191406 C 223.59375 457.265625 224.949219 490.082031 225.835938 515.648438 C 225.839844 516.027344 225.855469 516.410156 225.871094 516.789062 C 225.882812 517.257812 225.90625 517.746094 225.917969 518.214844 C 225.933594 518.648438 225.949219 519.066406 225.960938 519.5 C 225.976562 520.003906 225.996094 520.511719 226.011719 521.015625 C 226.027344 521.339844 226.03125 521.667969 226.046875 521.992188 C 226.058594 522.480469 226.074219 522.96875 226.089844 523.457031 C 226.105469 523.800781 226.117188 524.160156 226.125 524.523438 C 226.144531 525.027344 226.160156 525.535156 226.175781 526.039062 L 226.195312 526.796875 C 226.214844 527.359375 226.230469 527.902344 226.253906 528.441406 C 226.257812 528.675781 226.265625 528.894531 226.273438 529.128906 C 226.285156 529.652344 226.300781 530.175781 226.316406 530.683594 C 226.324219 530.917969 226.328125 531.136719 226.335938 531.351562 C 226.394531 533.195312 226.433594 534.929688 226.476562 536.574219 C 226.484375 536.683594 226.484375 536.808594 226.492188 536.917969 C 226.5 537.421875 226.511719 537.894531 226.527344 538.382812 C 226.527344 538.527344 226.535156 538.671875 226.535156 538.816406 C 226.550781 539.285156 226.554688 539.71875 226.570312 540.152344 C 226.570312 540.332031 226.578125 540.496094 226.578125 540.65625 C 226.582031 541.039062 226.597656 541.417969 226.605469 541.777344 C 226.605469 542.011719 226.613281 542.230469 226.621094 542.464844 C 226.621094 542.789062 226.625 543.117188 226.632812 543.421875 C 226.640625 543.65625 226.640625 543.875 226.648438 544.089844 C 226.648438 544.378906 226.65625 544.667969 226.65625 544.941406 C 226.660156 545.15625 226.660156 545.390625 226.667969 545.589844 C 226.667969 545.863281 226.675781 546.132812 226.675781 546.402344 C 226.675781 546.585938 226.683594 546.746094 226.683594 546.929688 C 226.683594 547.179688 226.683594 547.453125 226.691406 547.6875 L 226.691406 548.824219 C 226.691406 560.570312 232.367188 608.671875 237.425781 652.527344 C 237.574219 653.8125 237.722656 655.09375 237.871094 656.394531 C 238.160156 658.941406 238.457031 661.492188 238.738281 664.003906 C 239.460938 670.289062 240.152344 676.417969 240.804688 682.234375 C 241.453125 688.070312 242.054688 693.582031 242.59375 698.679688 C 242.699219 699.707031 242.804688 700.703125 242.902344 701.695312 C 244.535156 717.433594 245.457031 728.511719 245.011719 730.734375 C 243.207031 739.570312 245.515625 737.257812 256.269531 737.527344 C 258.402344 737.582031 277.246094 562.558594 277.246094 562.558594 C 277.246094 562.359375 277.261719 562.179688 277.28125 561.980469 C 277.28125 561.960938 277.289062 561.90625 277.289062 561.890625 C 277.324219 561.636719 277.367188 561.257812 277.429688 560.75 C 277.4375 560.644531 277.453125 560.554688 277.457031 560.460938 C 277.527344 559.847656 277.621094 559.125 277.71875 558.257812 C 277.742188 558.09375 277.769531 557.878906 277.792969 557.699219 C 277.824219 557.390625 277.863281 557.082031 277.902344 556.757812 C 277.917969 556.613281 277.941406 556.488281 277.953125 556.34375 C 278.003906 555.910156 278.058594 555.457031 278.117188 554.988281 C 278.128906 554.859375 278.144531 554.753906 278.160156 554.609375 C 278.546875 551.425781 279.035156 547.398438 279.601562 542.808594 C 279.605469 542.734375 279.613281 542.644531 279.628906 542.574219 C 280.074219 538.90625 280.578125 534.875 281.109375 530.648438 C 281.121094 530.558594 281.128906 530.464844 281.140625 530.375 C 281.269531 529.328125 281.40625 528.28125 281.539062 527.195312 C 286.15625 490.605469 292.835938 441.308594 292.832031 462.597656 C 292.832031 478.117188 294.710938 502.097656 296.667969 522.949219 C 298.65625 544.039062 300.734375 561.871094 301.039062 564.492188 C 301.054688 564.601562 301.054688 564.707031 301.054688 564.816406 C 301.0625 564.925781 301.074219 565.035156 301.066406 565.160156 L 308.589844 736.96875 C 308.554688 738.289062 308.988281 739.066406 309.722656 739.535156 L 309.871094 742.480469 C 309.808594 744.863281 309.871094 742.480469 312.007812 742.480469 L 321.296875 740.09375 C 321.035156 739.933594 320.949219 738.992188 321.015625 737.382812 L 322.445312 736.949219 C 320.871094 735.992188 322.773438 727.320312 322.9375 725.980469 C 324.03125 717.128906 325.484375 708.292969 326.925781 699.472656 C 330.984375 674.773438 335.476562 650.160156 339.992188 625.550781 C 345.847656 593.601562 352.238281 562.8125 352.328125 530.214844 C 352.402344 503.46875 352.457031 476.726562 351.730469 450 C 351.675781 447.832031 351.605469 445.648438 351.53125 443.480469 C 360.382812 442.628906 371.152344 439.757812 383.878906 433.179688 C 383.878906 433.179688 378.359375 417.0625 375.390625 404.863281 C 375.246094 404.285156 375.101562 403.707031 374.972656 403.148438 C 374.59375 401.449219 374.265625 399.875 374.015625 398.449219 C 373.921875 397.980469 373.867188 397.507812 373.796875 397.074219 C 373.417969 394.4375 373.417969 392.523438 373.941406 391.78125 C 377.234375 387.226562 389.109375 378.664062 402.035156 366.828125 C 402.792969 366.121094 403.574219 365.417969 404.332031 364.695312 C 405.871094 363.265625 407.410156 361.785156 408.929688 360.25 C 410.46875 358.714844 412.007812 357.160156 413.527344 355.53125 C 415.050781 353.925781 416.550781 352.261719 418.019531 350.5625 C 423.902344 343.789062 429.347656 336.324219 433.546875 328.265625 C 434.34375 326.746094 434.542969 324.234375 434.363281 321.199219 Z M 321.425781 740.113281 C 321.375 740.128906 321.332031 740.113281 321.296875 740.09375 L 321.390625 740.058594 L 321.609375 740.003906 L 321.601562 740.003906 C 321.539062 740.078125 321.472656 740.09375 321.425781 740.113281 "/>
</g>
<path style=" stroke:none;fill-rule:nonzero;fill:rgb(39.219666%,53.729248%,77.648926%);fill-opacity:1;" d="M 384.65625 305.191406 C 383.300781 307.449219 380.875 310.414062 378.070312 313.84375 C 373.90625 318.921875 369.21875 324.652344 366.066406 330.398438 L 366.066406 330.34375 C 366.066406 329.910156 366.050781 329.457031 366.050781 329.007812 L 366.050781 328.644531 C 366.050781 328.15625 366.050781 327.667969 366.03125 327.164062 L 366.03125 327.128906 C 366.011719 326.640625 366.011719 326.113281 365.996094 325.609375 L 365.996094 325.285156 C 365.976562 324.234375 365.941406 323.167969 365.921875 322.105469 L 365.921875 321.667969 L 365.867188 320.152344 L 365.867188 320.097656 C 365.851562 319.574219 365.851562 319.050781 365.832031 318.542969 C 365.8125 318.453125 365.8125 318.363281 365.8125 318.289062 C 365.8125 317.765625 365.796875 317.261719 365.777344 316.753906 L 365.777344 316.699219 C 365.757812 316.25 365.742188 315.816406 365.742188 315.398438 C 365.722656 315.21875 365.722656 315.039062 365.722656 314.859375 C 365.707031 314.570312 365.6875 314.28125 365.6875 314.007812 C 365.6875 313.773438 365.667969 313.554688 365.667969 313.339844 C 365.652344 313.070312 365.652344 312.832031 365.652344 312.582031 C 365.632812 312.453125 365.632812 312.308594 365.632812 312.183594 C 365.597656 311.460938 365.578125 310.828125 365.5625 310.285156 L 365.5625 309.996094 C 365.523438 309.21875 365.507812 308.730469 365.488281 308.605469 L 362.03125 308.730469 C 362.285156 315.253906 362.84375 332.855469 362.484375 335.800781 L 363.585938 335.925781 C 363.425781 336.378906 363.296875 336.8125 363.171875 337.265625 C 363.136719 337.355469 363.097656 337.464844 363.082031 337.554688 C 362.898438 338.222656 362.753906 338.890625 362.644531 339.558594 C 362.609375 339.8125 362.554688 340.066406 362.519531 340.316406 C 362.484375 340.625 362.464844 340.914062 362.445312 341.203125 C 362.410156 341.636719 362.394531 342.050781 362.410156 342.46875 C 362.410156 342.683594 362.410156 342.882812 362.429688 343.101562 C 362.445312 343.605469 362.5 344.09375 362.574219 344.582031 C 362.609375 344.746094 362.628906 344.925781 362.664062 345.089844 C 362.773438 345.667969 362.917969 346.246094 363.117188 346.804688 C 367.136719 358.316406 366.847656 368.363281 362.25 376.691406 L 365.289062 378.355469 C 370.375 369.140625 370.738281 358.152344 366.394531 345.683594 C 363.425781 337.171875 373.453125 324.957031 380.765625 316.03125 C 383.660156 312.507812 386.140625 309.453125 387.644531 306.960938 Z M 367.914062 532.417969 C 367.734375 530.160156 362.464844 531.386719 362.664062 533.828125 C 366.230469 578.425781 362.699219 623.5625 352.328125 667.074219 C 349.378906 679.453125 345.867188 691.683594 341.816406 703.757812 C 340.882812 706.539062 346.101562 706.359375 346.808594 704.261719 C 361.308594 661.113281 368.980469 615.773438 369.308594 570.257812 C 369.398438 557.625 368.925781 544.996094 367.914062 532.417969 Z M 372.203125 662.359375 C 368.726562 678.132812 365.253906 693.925781 361.777344 709.699219 C 361.289062 711.941406 366.609375 711.183594 367.046875 709.160156 C 370.539062 693.382812 373.996094 677.589844 377.472656 661.816406 C 377.976562 659.574219 372.636719 660.335938 372.203125 662.359375 Z M 365.613281 421.359375 C 364.582031 420.636719 362.828125 421.109375 361.867188 421.742188 C 352.507812 427.957031 340.445312 427.035156 329.746094 426.238281 C 328.574219 426.167969 326.875 426.621094 326.316406 427.777344 C 325.765625 428.914062 326.796875 429.65625 327.851562 429.746094 C 340.550781 430.667969 354.210938 431.15625 365.269531 423.820312 C 366.15625 423.222656 366.628906 422.066406 365.613281 421.359375 Z M 207.273438 574.085938 C 207.273438 560.894531 207.746094 547.707031 208.6875 534.53125 C 208.808594 532.816406 203.582031 533.898438 203.484375 535.328125 C 200.1875 581.585938 202.578125 628.171875 210.710938 673.816406 C 212.996094 686.625 215.738281 699.347656 218.898438 711.960938 C 219.265625 713.40625 224.519531 712.066406 224.144531 710.570312 C 212.957031 665.972656 207.269531 620.058594 207.273438 574.085938 Z M 205.804688 300.3125 C 205.921875 300.367188 206.03125 300.417969 206.164062 300.511719 C 206.292969 300.582031 206.441406 300.671875 206.582031 300.761719 C 206.679688 300.835938 206.777344 300.890625 206.886719 300.960938 C 207.089844 301.089844 207.300781 301.25 207.519531 301.414062 C 207.589844 301.449219 207.648438 301.484375 207.71875 301.539062 C 207.996094 301.738281 208.285156 301.972656 208.589844 302.207031 C 208.605469 302.226562 208.609375 302.226562 208.625 302.226562 C 212.132812 305.007812 217.003906 309.90625 218.679688 314.097656 C 218.6875 315.582031 218.707031 317.117188 218.757812 318.671875 C 218.757812 318.707031 218.757812 318.742188 218.765625 318.796875 C 218.8125 320.332031 218.890625 321.90625 218.996094 323.476562 L 218.996094 323.496094 C 219.210938 326.621094 219.535156 329.765625 220.007812 332.910156 C 220.027344 333.035156 220.042969 333.164062 220.066406 333.289062 C 220.285156 334.753906 220.546875 336.179688 220.835938 337.625 C 220.878906 337.84375 220.921875 338.042969 220.96875 338.257812 C 221.261719 339.648438 221.585938 341.039062 221.953125 342.414062 C 222.007812 342.632812 222.074219 342.847656 222.128906 343.066406 C 222.511719 344.457031 222.921875 345.8125 223.375 347.148438 C 223.429688 347.292969 223.492188 347.457031 223.550781 347.617188 C 224.039062 349.007812 224.570312 350.382812 225.148438 351.71875 C 225.261719 351.9375 236.320312 374 221.332031 386.738281 L 223.578125 389.378906 C 230.671875 383.34375 233.710938 374.613281 232.367188 364.117188 C 231.378906 356.328125 228.367188 350.382812 228.28125 350.238281 C 217.609375 325.933594 224.1875 287.464844 224.257812 287.085938 L 220.84375 286.488281 C 220.835938 286.542969 220.820312 286.613281 220.800781 286.742188 C 220.792969 286.757812 220.792969 286.777344 220.785156 286.796875 C 220.773438 286.886719 220.75 287.011719 220.730469 287.15625 C 220.714844 287.246094 220.695312 287.375 220.671875 287.480469 C 220.660156 287.570312 220.652344 287.664062 220.636719 287.753906 C 220.609375 287.898438 220.582031 288.078125 220.550781 288.257812 C 220.546875 288.347656 220.53125 288.421875 220.519531 288.511719 C 220.488281 288.710938 220.453125 288.925781 220.425781 289.144531 C 220.410156 289.253906 220.398438 289.34375 220.382812 289.46875 C 220.347656 289.703125 220.3125 289.957031 220.277344 290.210938 C 220.261719 290.320312 220.246094 290.425781 220.234375 290.535156 C 220.191406 290.824219 220.15625 291.113281 220.113281 291.421875 C 220.097656 291.546875 220.085938 291.65625 220.074219 291.765625 C 220.027344 292.089844 219.996094 292.414062 219.949219 292.757812 C 219.9375 292.886719 219.925781 293.03125 219.902344 293.15625 C 219.859375 293.5 219.816406 293.878906 219.777344 294.257812 C 219.761719 294.382812 219.746094 294.511719 219.738281 294.636719 C 219.691406 295.035156 219.648438 295.449219 219.605469 295.867188 C 219.589844 295.992188 219.582031 296.101562 219.570312 296.226562 C 219.527344 296.679688 219.484375 297.132812 219.433594 297.601562 C 219.429688 297.710938 219.421875 297.800781 219.414062 297.890625 C 219.363281 298.394531 219.324219 298.921875 219.28125 299.445312 C 219.273438 299.480469 219.273438 299.535156 219.265625 299.570312 C 219.066406 302.011719 218.898438 304.683594 218.792969 307.558594 C 218.488281 307.160156 218.175781 306.761719 217.851562 306.382812 C 217.71875 306.21875 217.578125 306.058594 217.433594 305.878906 C 217.214844 305.625 216.996094 305.390625 216.777344 305.117188 C 216.628906 304.957031 216.480469 304.792969 216.324219 304.628906 C 216.0625 304.339844 215.800781 304.070312 215.539062 303.800781 C 215.414062 303.65625 215.285156 303.527344 215.152344 303.382812 C 214.8125 303.039062 214.464844 302.714844 214.125 302.390625 L 213.679688 301.957031 C 213.433594 301.738281 213.175781 301.503906 212.929688 301.289062 C 212.789062 301.160156 212.640625 301.035156 212.5 300.890625 C 212.179688 300.636719 211.871094 300.367188 211.558594 300.113281 C 211.496094 300.058594 211.425781 299.984375 211.351562 299.949219 C 210.984375 299.644531 210.625 299.371094 210.265625 299.101562 C 210.144531 299.011719 210.03125 298.921875 209.914062 298.847656 C 209.65625 298.667969 209.402344 298.488281 209.15625 298.324219 C 209.042969 298.25 208.929688 298.160156 208.816406 298.089844 C 208.503906 297.890625 208.191406 297.710938 207.894531 297.546875 C 207.875 297.527344 207.847656 297.511719 207.824219 297.492188 C 207.507812 297.3125 207.21875 297.167969 206.925781 297.039062 C 206.84375 297.003906 206.765625 296.988281 206.6875 296.949219 C 206.480469 296.859375 206.292969 296.789062 206.101562 296.734375 C 206.03125 296.714844 205.953125 296.699219 205.886719 296.679688 C 205.648438 296.605469 205.429688 296.570312 205.238281 296.570312 L 205.125 300.023438 C 205.242188 300.058594 205.390625 300.113281 205.570312 300.183594 C 205.632812 300.222656 205.726562 300.273438 205.804688 300.3125 Z M 260.757812 426.800781 C 252.460938 425.824219 243.980469 425.265625 235.777344 423.691406 C 229.78125 422.535156 223.140625 420.332031 220.121094 414.566406 C 219.0625 412.542969 213.917969 414.152344 214.875 415.957031 C 218.207031 422.320312 224.769531 425.210938 231.503906 426.671875 C 240.449219 428.605469 249.761719 429.148438 258.839844 430.214844 C 259.964844 430.359375 261.753906 429.800781 262.277344 428.699219 C 262.816406 427.523438 261.796875 426.910156 260.757812 426.800781 Z M 205.710938 699.945312 C 206.511719 701.296875 201.476562 703.070312 200.472656 701.335938 C 184.910156 674.808594 176.429688 644.46875 175.992188 613.730469 C 175.964844 611.726562 181.21875 610.734375 181.238281 612.324219 C 181.671875 643.058594 190.148438 673.417969 205.710938 699.941406 "/>
<g clip-path="url(#clip2)" clip-rule="nonzero">
<path style=" stroke:none;fill-rule:nonzero;fill:rgb(11.369324%,11.369324%,13.729858%);fill-opacity:1;" d="M 262.957031 144.722656 C 263.304688 137.046875 264.648438 131.28125 264.648438 131.28125 C 266.019531 117.765625 283.984375 113.675781 298.15625 117.058594 C 312.316406 120.433594 316.5625 128.160156 317.761719 138.398438 C 318.039062 140.777344 318.023438 143.613281 317.789062 146.667969 L 318.566406 147.4375 C 329.683594 150.515625 332.574219 140.394531 332.949219 135.257812 C 333.148438 132.585938 331.152344 129.800781 329.1875 127.746094 C 327.730469 126.222656 327.726562 123.777344 329.34375 122.429688 C 332.902344 119.445312 333.523438 114.730469 329.535156 109.175781 C 327.667969 106.5625 325.242188 104.996094 322.421875 104.328125 C 320.574219 103.894531 319.386719 102.300781 319.496094 100.472656 C 319.652344 97.746094 318.792969 95.050781 316.933594 92.757812 C 313.9375 89.058594 309.222656 86.722656 304.375 86.539062 C 300.984375 86.410156 297.582031 87.335938 294.726562 89.101562 C 293.113281 90.089844 291.011719 89.96875 289.699219 88.613281 C 287.089844 85.917969 282.265625 85.097656 278.753906 84.757812 C 273.335938 84.238281 267.292969 84.617188 263.386719 88.273438 C 259.300781 92.101562 259.25 97.410156 259.320312 102.527344 C 259.351562 104.429688 259.546875 109.683594 257.609375 109.972656 C 249.011719 111.25 247.125 116.933594 246.804688 122.472656 C 246.28125 131.519531 255.328125 141.488281 262.957031 144.722656 Z M 304.949219 169.601562 C 298.847656 163.695312 294.378906 160.265625 287.824219 160.582031 C 282.507812 160.84375 279.28125 165.15625 276.757812 168.351562 C 280.214844 170.519531 284.203125 172.292969 288.636719 172.949219 C 295.171875 173.921875 300.601562 172.269531 304.949219 169.601562 Z M 309.496094 166.144531 C 312.542969 163.34375 314.777344 160.234375 316.164062 157.871094 C 316.164062 157.871094 318.9375 188.859375 288.476562 186.632812 C 277.996094 185.867188 259.5625 184.699219 262.957031 155.054688 C 262.957031 155.054688 265.855469 159.4375 270.859375 163.90625 C 274.347656 161.039062 280.203125 157.378906 287.648438 157.011719 C 295.148438 156.644531 302.480469 159.75 309.496094 166.144531 Z M 365.757812 440.625 C 336.519531 449.371094 321.652344 436.992188 321.652344 436.992188 C 321.652344 436.992188 311.519531 246.734375 307.8125 225 C 307.148438 221.113281 307.609375 217.125 309.136719 213.480469 L 314.855469 199.792969 C 314.855469 199.800781 314.871094 199.800781 314.871094 199.808594 L 314.855469 199.757812 C 282.671875 213.691406 265.730469 198.976562 265.730469 198.976562 C 265.730469 198.976562 282.65625 216.75 290.355469 220.117188 C 298.054688 223.476562 277.453125 441.941406 277.453125 441.941406 C 277.453125 441.941406 244.175781 454.464844 218.191406 433.953125 C 212.019531 472.335938 209.15625 500.976562 213.519531 504.734375 C 272.636719 555.816406 301.046875 510.425781 358.753906 504.570312 C 370.285156 503.394531 368.582031 460.570312 365.761719 440.621094 Z M 320.652344 736.246094 L 308.589844 736.96875 L 308.589844 756.8125 C 308.589844 756.8125 365.757812 758.292969 365.613281 756.035156 C 365.46875 753.773438 320.652344 736.246094 320.652344 736.246094 Z M 244.953125 736.246094 L 257.007812 736.96875 L 257.007812 756.8125 C 257.007812 756.8125 199.835938 758.292969 199.984375 756.035156 C 200.132812 753.773438 244.953125 736.246094 244.953125 736.246094 "/>
</g>
</g>
</svg>
