<?xml version="1.0" encoding="UTF-8"?>
<svg xmlns="http://www.w3.org/2000/svg" xmlns:xlink="http://www.w3.org/1999/xlink" width="595.5pt" height="842.249979pt" viewBox="0 0 595.5 842.249979" version="1.2">
<defs>
<clipPath id="clip1">
  <path d="M 521 282 L 587.996094 282 L 587.996094 304 L 521 304 Z M 521 282 "/>
</clipPath>
</defs>
<g id="surface1">
<path style=" stroke:none;fill-rule:nonzero;fill:rgb(85.879517%,59.999084%,42.749023%);fill-opacity:1;" d="M 269.679688 288.890625 C 259.207031 289.867188 227.15625 292.808594 216.695312 293.886719 C 203.859375 295.210938 190.859375 297.519531 177.957031 297.859375 C 164.171875 298.21875 150.207031 296.300781 136.574219 294.441406 C 111.875 291.078125 87.351562 286.648438 62.824219 282.214844 C 51.769531 280.214844 45.777344 295.539062 55.835938 301.082031 C 65.421875 306.375 77.179688 309.433594 87.496094 313.015625 C 115.515625 322.738281 144.453125 331.960938 173.988281 335.554688 C 192.371094 337.796875 211.542969 335.652344 229.925781 335.007812 C 235.980469 334.8125 242.042969 334.589844 248.101562 334.355469 Z M 269.679688 288.890625 "/>
<path style=" stroke:none;fill-rule:nonzero;fill:rgb(85.879517%,59.999084%,42.749023%);fill-opacity:1;" d="M 12.019531 283.074219 C 18.613281 282.816406 25.085938 283.554688 31.746094 282.914062 C 39.992188 282.121094 47.878906 282.09375 56.253906 282.09375 C 62.429688 282.09375 66.945312 282.144531 72.878906 285.082031 C 74.695312 285.976562 74.246094 293.125 73.605469 295.261719 C 70.96875 303.964844 58.34375 301.335938 51.601562 299.953125 C 45.4375 301.53125 34.445312 304.089844 30.015625 303.429688 C 26.746094 302.945312 25.554688 300.828125 27.078125 298.484375 C 27.191406 298.355469 27.308594 298.253906 27.429688 298.140625 C 29.167969 297.453125 35.738281 299.160156 38.503906 296.742188 C 38.613281 296.644531 38.703125 296.542969 38.800781 296.445312 C 36.605469 295.773438 34.421875 295.144531 32.222656 294.6875 C 27.023438 293.59375 22.476562 293.140625 17.175781 293.503906 C 13.90625 293.726562 9.992188 294.019531 8.730469 289.703125 C 7.589844 285.816406 8.859375 283.195312 12.019531 283.074219 Z M 12.019531 283.074219 "/>
<path style=" stroke:none;fill-rule:nonzero;fill:rgb(85.879517%,59.999084%,42.749023%);fill-opacity:1;" d="M 74 617.613281 C 76.054688 615.398438 78.773438 617.996094 81.289062 617.957031 C 110.742188 617.507812 113.296875 601.316406 114.160156 593.519531 C 114.429688 595.308594 127.890625 592.515625 133.585938 595.070312 C 133.300781 598.425781 135.695312 602.449219 136.714844 605.539062 C 138.234375 610.15625 140.898438 615.320312 140.371094 620.316406 C 139.597656 627.507812 130.59375 628.527344 124.664062 628.222656 C 120.125 627.984375 115.828125 626.882812 111.140625 626.9375 C 106.164062 626.996094 101.199219 626.910156 96.210938 626.972656 C 90.730469 627.042969 76.390625 630.445312 73.007812 624.695312 C 71.8125 622.648438 72.359375 619.390625 74 617.613281 Z M 74 617.613281 "/>
<path style=" stroke:none;fill-rule:nonzero;fill:rgb(39.608765%,38.819885%,64.709473%);fill-opacity:1;" d="M 126.597656 630.167969 C 125.9375 630.167969 125.261719 630.148438 124.566406 630.113281 C 122.550781 630.007812 120.582031 629.742188 118.679688 629.480469 C 116.125 629.128906 113.753906 628.800781 111.160156 628.832031 C 108.6875 628.859375 106.207031 628.855469 103.726562 628.847656 C 101.230469 628.84375 98.734375 628.835938 96.234375 628.867188 C 95.074219 628.882812 93.421875 629.066406 91.511719 629.277344 C 84.371094 630.066406 74.609375 631.152344 71.378906 625.65625 C 69.800781 622.960938 70.351562 618.777344 72.609375 616.332031 C 74.777344 614 77.421875 614.917969 79.171875 615.527344 C 79.78125 615.738281 80.359375 615.9375 80.859375 616.015625 C 81.890625 616.171875 82.601562 617.140625 82.445312 618.171875 C 82.289062 619.207031 81.3125 619.917969 80.289062 619.761719 C 79.445312 619.632812 78.640625 619.351562 77.929688 619.105469 C 76.105469 618.46875 75.765625 618.496094 75.386719 618.90625 C 74.265625 620.125 73.902344 622.472656 74.644531 623.738281 C 76.625 627.113281 85.683594 626.113281 91.089844 625.511719 C 93.101562 625.289062 94.835938 625.097656 96.183594 625.078125 C 98.707031 625.050781 101.222656 625.058594 103.730469 625.0625 C 106.195312 625.066406 108.652344 625.074219 111.113281 625.042969 C 113.914062 625.03125 116.605469 625.375 119.1875 625.730469 C 121.097656 625.988281 122.898438 626.234375 124.757812 626.332031 C 128.539062 626.523438 137.429688 626.34375 138.40625 620.488281 C 138.578125 619.457031 139.554688 618.761719 140.582031 618.933594 C 141.613281 619.105469 142.308594 620.078125 142.136719 621.113281 C 141.175781 626.917969 135.550781 630.167969 126.597656 630.167969 Z M 126.597656 630.167969 "/>
<path style=" stroke:none;fill-rule:nonzero;fill:rgb(85.879517%,59.999084%,42.749023%);fill-opacity:1;" d="M 473.609375 621.917969 C 475.660156 619.703125 478.382812 622.300781 480.894531 622.261719 C 484.035156 622.210938 487.925781 622.40625 490.960938 621.683594 C 493.546875 621.0625 493.628906 618.945312 492.957031 616.695312 C 492.058594 613.683594 489.675781 610.707031 487.472656 608.46875 C 483.300781 604.222656 478.292969 603.304688 473.109375 600.9375 C 473.644531 598.695312 484.679688 585.867188 486.691406 586.097656 C 490.015625 586.476562 504.792969 590.304688 507.34375 591.304688 C 525.148438 598.300781 534.460938 613.441406 535.46875 619.660156 C 536.070312 623.335938 535.882812 627.476562 533.90625 630.601562 C 532.046875 633.546875 527.207031 632.675781 524.269531 632.523438 C 519.730469 632.285156 515.433594 631.1875 510.746094 631.238281 C 505.773438 631.300781 500.804688 631.210938 495.8125 631.273438 C 490.335938 631.339844 475.996094 634.746094 472.613281 628.996094 C 471.417969 626.953125 471.96875 623.695312 473.609375 621.917969 Z M 473.609375 621.917969 "/>
<path style=" stroke:none;fill-rule:nonzero;fill:rgb(39.608765%,38.819885%,64.709473%);fill-opacity:1;" d="M 527.667969 634.558594 C 526.707031 634.558594 525.761719 634.503906 524.871094 634.453125 L 524.167969 634.414062 C 522.148438 634.3125 520.179688 634.042969 518.273438 633.78125 C 515.722656 633.433594 513.335938 633.109375 510.765625 633.136719 C 508.257812 633.167969 505.746094 633.160156 503.234375 633.152344 C 500.769531 633.144531 498.308594 633.136719 495.835938 633.167969 C 494.675781 633.183594 493.023438 633.363281 491.109375 633.574219 C 483.972656 634.367188 474.210938 635.449219 470.980469 629.957031 C 469.402344 627.257812 469.957031 623.078125 472.21875 620.632812 C 474.375 618.304688 477.023438 619.21875 478.777344 619.824219 C 479.386719 620.039062 479.964844 620.238281 480.464844 620.316406 C 481.5 620.472656 482.207031 621.4375 482.050781 622.472656 C 481.894531 623.503906 480.925781 624.21875 479.894531 624.058594 C 479.054688 623.929688 478.25 623.648438 477.535156 623.402344 C 475.71875 622.773438 475.375 622.792969 474.996094 623.207031 C 473.871094 624.425781 473.503906 626.773438 474.246094 628.039062 C 476.230469 631.417969 485.285156 630.414062 490.6875 629.8125 C 492.699219 629.589844 494.441406 629.398438 495.785156 629.378906 C 498.277344 629.351562 500.761719 629.355469 503.242188 629.367188 C 505.730469 629.371094 508.222656 629.378906 510.714844 629.347656 C 513.535156 629.324219 516.203125 629.679688 518.78125 630.03125 C 520.691406 630.292969 522.5 630.539062 524.359375 630.632812 L 525.078125 630.671875 C 527.917969 630.832031 531.128906 631.015625 532.679688 629.226562 C 534.148438 627.527344 534.371094 623.867188 533.316406 618.644531 C 533.109375 617.617188 533.769531 616.617188 534.796875 616.414062 C 535.828125 616.203125 536.816406 616.867188 537.027344 617.894531 C 538.359375 624.492188 537.875 629.011719 535.539062 631.707031 C 533.480469 634.089844 530.507812 634.558594 527.667969 634.558594 Z M 527.667969 634.558594 "/>
<path style=" stroke:none;fill-rule:nonzero;fill:rgb(100%,63.919067%,7.449341%);fill-opacity:1;" d="M 313.023438 475.523438 C 311.996094 474.984375 287.464844 462.148438 257.222656 451.296875 C 212.230469 435.160156 178.789062 431.808594 154.988281 441.054688 C 139.328125 447.140625 128.101562 458.542969 122.519531 474.035156 C 119.566406 482.214844 117.5 490.6875 115.890625 499.226562 C 114.210938 508.128906 113.085938 517.132812 112.21875 526.148438 C 111.351562 535.058594 110.753906 543.996094 110.226562 552.9375 C 109.746094 561.039062 109.34375 569.144531 108.78125 577.238281 C 108.496094 581.390625 108.15625 585.539062 107.667969 589.671875 C 107.429688 591.738281 107.152344 593.800781 106.828125 595.855469 C 106.578125 597.414062 105.148438 600.738281 106.835938 601.816406 C 107.824219 602.457031 109.089844 602.488281 110.214844 602.683594 C 111.453125 602.90625 112.679688 603.210938 113.910156 603.476562 C 115.886719 603.898438 117.886719 604.246094 119.898438 604.46875 C 123.566406 604.867188 127.285156 604.707031 130.96875 604.65625 C 135.457031 604.59375 140.242188 605.613281 141.457031 600.011719 C 141.851562 598.179688 142.167969 596.328125 142.574219 594.492188 C 143.308594 591.164062 144.035156 587.832031 144.816406 584.515625 C 146.496094 577.398438 148.226562 570.300781 150.011719 563.210938 C 151.972656 555.433594 154.003906 547.675781 156.128906 539.941406 C 158.289062 532.074219 160.542969 524.234375 162.925781 516.429688 C 165.21875 508.921875 167.632812 501.449219 170.253906 494.046875 C 170.542969 493.21875 170.839844 492.390625 171.136719 491.566406 C 171.503906 490.539062 171.6875 490.023438 173.695312 489.242188 C 177.746094 487.667969 194.429688 483.773438 239.234375 499.765625 C 266.179688 509.375 288.777344 521.171875 289.003906 521.292969 C 301.625 527.921875 317.246094 523.058594 323.882812 510.429688 C 330.515625 497.789062 325.660156 482.160156 313.023438 475.523438 Z M 313.023438 475.523438 "/>
<path style=" stroke:none;fill-rule:nonzero;fill:rgb(100%,63.919067%,7.449341%);fill-opacity:1;" d="M 510.285156 584.183594 C 508.375 580.488281 499.226562 580.234375 496.269531 579.222656 C 490.902344 577.390625 485.652344 575.242188 480.324219 573.3125 C 466.664062 568.363281 453.175781 562.875 439.835938 557.128906 C 424.347656 550.453125 409.039062 543.414062 394.023438 535.730469 C 379.765625 528.441406 365.714844 520.542969 352.480469 511.511719 C 342.140625 504.457031 331.730469 496.671875 323.984375 486.71875 C 323.25 485.777344 322.496094 484.832031 321.820312 483.847656 C 313.78125 472.050781 259.703125 440.050781 247.914062 448.089844 C 236.125 456.132812 243.132812 486.710938 251.171875 498.507812 C 255.765625 505.242188 261.390625 511.890625 267.890625 518.398438 C 277.566406 528.078125 288.722656 536.863281 299.839844 544.800781 C 312.417969 553.78125 325.792969 561.589844 339.5 568.699219 C 354.035156 576.234375 368.949219 583.054688 384.074219 589.308594 C 399.539062 595.703125 415.273438 601.476562 431.3125 606.242188 C 445.804688 610.550781 460.710938 613.253906 475.355469 616.964844 C 479.121094 617.914062 482.910156 618.285156 486.257812 615.914062 C 490.523438 612.886719 493.351562 608.121094 496.804688 604.273438 C 499.65625 601.09375 502.390625 597.828125 505.003906 594.457031 C 506.921875 591.980469 510.195312 589.398438 510.601562 586.125 C 510.699219 585.386719 510.570312 584.746094 510.285156 584.183594 Z M 510.285156 584.183594 "/>
<path style=" stroke:none;fill-rule:nonzero;fill:rgb(85.879517%,59.999084%,42.749023%);fill-opacity:1;" d="M 263.238281 347.628906 L 322.503906 347.628906 C 324.820312 336.402344 327.917969 325.347656 332.035156 314.855469 C 343.082031 286.675781 311.265625 279.550781 292.242188 274.199219 C 290.417969 273.683594 265.582031 287.636719 263.804688 287.347656 C 256.253906 293.542969 246.183594 301.988281 238.519531 310.53125 L 263.242188 310.53125 L 263.242188 347.628906 Z M 263.238281 347.628906 "/>
<path style=" stroke:none;fill-rule:nonzero;fill:rgb(18.429565%,25.878906%,32.548523%);fill-opacity:1;" d="M 354.070312 224.347656 C 354.210938 229.570312 354.394531 236.261719 354.066406 224.324219 C 353.875 217.136719 353.957031 220.242188 354.066406 224.28125 C 353.414062 200.734375 341.492188 186.066406 317.253906 186.726562 C 316.058594 186.753906 314.691406 187.035156 313.25 187.484375 C 312.980469 191.46875 311.988281 195.398438 310.851562 199.257812 C 309.917969 202.421875 309.300781 205.832031 308.429688 209.136719 C 348.152344 223.8125 307.351562 308.019531 337.710938 342.515625 C 321.566406 302.101562 355.152344 264.753906 354.070312 224.347656 Z M 354.070312 224.347656 "/>
<path style=" stroke:none;fill-rule:nonzero;fill:rgb(85.879517%,59.999084%,42.749023%);fill-opacity:1;" d="M 309.46875 209.957031 C 310.160156 198.128906 302.773438 185.507812 287.5625 181.125 C 277.058594 178.101562 261.941406 178.730469 251.8125 182.113281 C 238.222656 186.652344 232.75 197.394531 231.753906 209.132812 C 231.261719 214.988281 232.050781 221.683594 230.429688 227.328125 C 228.734375 233.25 221.117188 235.796875 232.246094 238.960938 C 233.679688 241.0625 233.984375 241.519531 234.003906 243.929688 C 233.667969 244.875 233.875 245.464844 234.101562 245.765625 C 234.085938 246.550781 233.585938 255.472656 233.574219 256.175781 C 233.375 256.542969 233.449219 256.9375 233.5625 257.300781 C 233.585938 261.269531 234.40625 263.894531 240.242188 265.765625 C 246.199219 267.675781 255.75 266.933594 261.152344 269.285156 C 265.515625 271.179688 264.246094 281.375 263.738281 287.90625 L 292 277.34375 C 291.558594 275.777344 291.367188 274.207031 291.167969 272.613281 C 289.75 261.214844 290.199219 256.441406 296.421875 247.070312 C 304.105469 235.503906 308.679688 223.351562 309.46875 209.957031 Z M 309.46875 209.957031 "/>
<path style=" stroke:none;fill-rule:nonzero;fill:rgb(100%,100%,100%);fill-opacity:1;" d="M 234.101562 245.761719 C 233.898438 249.238281 233.511719 252.640625 233.574219 256.175781 C 234.851562 256.578125 236.714844 257.007812 238.144531 257.089844 C 245.726562 257.539062 252.1875 252.945312 252.539062 246.847656 Z M 234.101562 245.761719 "/>
<path style=" stroke:none;fill-rule:nonzero;fill:rgb(18.429565%,25.878906%,32.548523%);fill-opacity:1;" d="M 312.558594 198.820312 C 309.21875 183.632812 305.453125 171.90625 275.105469 170.117188 C 224.660156 167.144531 234.511719 197.097656 234.511719 197.101562 C 238.539062 199.351562 267.910156 206.367188 277.730469 224.507812 C 279.996094 228.699219 283.855469 224.222656 285.8125 226.925781 C 286.796875 228.277344 287.074219 229.667969 287.761719 231.144531 C 288.753906 233.296875 290.210938 235.121094 291.070312 237.382812 C 292.230469 240.410156 294.003906 244.539062 297.222656 244.601562 C 303.992188 244.730469 314.570312 207.992188 312.558594 198.820312 Z M 312.558594 198.820312 "/>
<path style=" stroke:none;fill-rule:nonzero;fill:rgb(85.879517%,59.999084%,42.749023%);fill-opacity:1;" d="M 292.925781 228.945312 C 290.667969 234.605469 285.511719 237.871094 281.410156 236.234375 C 277.300781 234.59375 275.8125 228.675781 278.066406 223.015625 C 280.328125 217.351562 285.480469 214.089844 289.585938 215.726562 C 293.6875 217.367188 295.1875 223.28125 292.925781 228.945312 Z M 292.925781 228.945312 "/>
<path style=" stroke:none;fill-rule:nonzero;fill:rgb(39.608765%,38.819885%,64.709473%);fill-opacity:1;" d="M 282.371094 235.308594 C 281.589844 235.308594 280.859375 234.824219 280.589844 234.042969 C 280.394531 233.476562 279.488281 230.566406 281.007812 228.585938 C 281.589844 227.824219 282.71875 226.953125 284.832031 227.101562 C 286.34375 227.207031 287.304688 227.71875 287.917969 228.300781 C 287.917969 228.292969 287.925781 228.28125 287.929688 228.265625 C 288.984375 225.625 288.453125 222.726562 286.792969 222.0625 C 285.824219 221.671875 284.796875 222.167969 284.273438 222.5 C 283.195312 223.179688 282.257812 224.375 281.695312 225.78125 C 281.3125 226.753906 280.210938 227.230469 279.238281 226.839844 C 278.265625 226.453125 277.792969 225.351562 278.179688 224.382812 C 279.042969 222.21875 280.488281 220.410156 282.25 219.296875 C 284.175781 218.078125 286.34375 217.804688 288.195312 218.546875 C 291.910156 220.03125 293.339844 224.914062 291.445312 229.667969 C 290.644531 231.675781 289.316406 233.402344 287.703125 234.53125 C 286.984375 235.035156 286.011719 234.976562 285.355469 234.390625 C 284.699219 233.800781 284.535156 232.84375 284.957031 232.070312 C 285.148438 231.710938 285.292969 231.136719 285.238281 230.949219 C 285.257812 231.003906 285.042969 230.90625 284.5625 230.875 C 284.1875 230.84375 284.011719 230.894531 283.972656 230.917969 C 283.867188 231.109375 283.910156 232.042969 284.167969 232.800781 C 284.5 233.789062 283.972656 234.867188 282.988281 235.203125 C 282.785156 235.273438 282.574219 235.308594 282.371094 235.308594 Z M 282.371094 235.308594 "/>
<path style=" stroke:none;fill-rule:nonzero;fill:rgb(39.608765%,38.819885%,64.709473%);fill-opacity:1;" d="M 245.558594 214.101562 C 244.324219 214.027344 243.15625 214.347656 242.164062 214.941406 C 242.042969 214.855469 241.875 214.726562 241.671875 214.550781 C 241.257812 214.195312 240.753906 213.667969 240.410156 213.042969 C 240.234375 212.730469 240.121094 212.390625 240.074219 212.0625 C 240.039062 211.730469 240.070312 211.40625 240.152344 211.136719 C 240.304688 210.585938 240.609375 210.289062 240.574219 210.273438 C 240.609375 210.292969 240.234375 210.488281 239.914062 211.027344 C 239.746094 211.289062 239.605469 211.644531 239.546875 212.050781 C 239.492188 212.453125 239.515625 212.898438 239.617188 213.324219 C 239.816406 214.179688 240.242188 214.945312 240.601562 215.476562 C 240.722656 215.664062 240.84375 215.820312 240.945312 215.953125 C 240.773438 216.136719 240.601562 216.316406 240.449219 216.515625 C 240.316406 216.488281 240.164062 216.453125 239.96875 216.394531 C 239.445312 216.25 238.761719 215.984375 238.1875 215.558594 C 237.902344 215.347656 237.65625 215.089844 237.476562 214.808594 C 237.300781 214.523438 237.195312 214.214844 237.15625 213.9375 C 237.066406 213.371094 237.214844 212.972656 237.179688 212.972656 C 237.21875 212.980469 236.964844 213.316406 236.894531 213.9375 C 236.855469 214.246094 236.878906 214.628906 236.992188 215.019531 C 237.113281 215.410156 237.320312 215.804688 237.59375 216.148438 C 238.128906 216.835938 238.839844 217.355469 239.390625 217.6875 C 239.511719 217.761719 239.617188 217.824219 239.726562 217.878906 C 239.644531 218.101562 239.546875 218.320312 239.492188 218.554688 C 239.367188 218.59375 239.226562 218.625 239.058594 218.664062 C 238.53125 218.785156 237.800781 218.875 237.09375 218.773438 C 236.738281 218.726562 236.402344 218.613281 236.109375 218.449219 C 235.824219 218.285156 235.582031 218.0625 235.417969 217.835938 C 235.066406 217.386719 235.011719 216.964844 234.980469 216.976562 C 235.011719 216.96875 234.953125 217.382812 235.183594 217.960938 C 235.296875 218.253906 235.5 218.578125 235.78125 218.867188 C 236.070312 219.15625 236.449219 219.40625 236.847656 219.578125 C 237.648438 219.925781 238.519531 220.046875 239.15625 220.078125 C 239.234375 220.082031 239.300781 220.082031 239.371094 220.085938 C 239.511719 220.460938 239.855469 220.738281 240.285156 220.761719 C 240.855469 220.796875 241.351562 220.359375 241.382812 219.785156 C 241.503906 217.671875 243.324219 216.054688 245.441406 216.175781 C 247.554688 216.300781 249.175781 218.121094 249.050781 220.238281 C 249.015625 220.808594 249.453125 221.304688 250.027344 221.335938 C 250.597656 221.371094 251.085938 220.933594 251.121094 220.359375 C 251.3125 217.097656 248.816406 214.292969 245.558594 214.101562 Z M 245.558594 214.101562 "/>
<path style=" stroke:none;fill-rule:nonzero;fill:rgb(39.608765%,38.819885%,64.709473%);fill-opacity:1;" d="M 308.941406 218.117188 C 307.484375 217.875 306.167969 216.875 305.433594 215.253906 C 300.320312 204.007812 306.214844 187.789062 306.898438 185.976562 C 308.0625 182.910156 311.0625 181.386719 313.605469 182.601562 C 316.144531 183.800781 317.257812 187.257812 316.09375 190.320312 C 314.890625 193.53125 312 203.863281 314.40625 209.160156 C 315.699219 211.996094 314.734375 215.65625 312.246094 217.335938 C 311.195312 218.058594 310.027344 218.296875 308.941406 218.117188 Z M 308.941406 218.117188 "/>
<path style=" stroke:none;fill-rule:nonzero;fill:rgb(39.608765%,38.819885%,64.709473%);fill-opacity:1;" d="M 300.496094 206.09375 C 286.390625 206.09375 271.328125 205.734375 256.75 203.125 C 256.195312 203.023438 255.542969 202.914062 254.828125 202.792969 C 246.601562 201.414062 238.316406 199.75 235.289062 195.945312 C 234.636719 195.125 234.773438 193.9375 235.589844 193.285156 C 236.402344 192.632812 237.597656 192.769531 238.246094 193.585938 C 240.625 196.574219 250.640625 198.253906 255.453125 199.0625 C 256.1875 199.183594 256.847656 199.296875 257.417969 199.398438 C 271.703125 201.957031 286.5625 202.308594 300.496094 202.308594 C 301.542969 202.308594 302.390625 203.15625 302.390625 204.203125 C 302.390625 205.246094 301.542969 206.09375 300.496094 206.09375 Z M 300.496094 206.09375 "/>
<path style=" stroke:none;fill-rule:nonzero;fill:rgb(39.608765%,38.819885%,64.709473%);fill-opacity:1;" d="M 281.242188 198.023438 C 263.050781 198.023438 244.441406 193.8125 237.984375 192.195312 C 236.96875 191.941406 236.351562 190.914062 236.605469 189.898438 C 236.859375 188.886719 237.882812 188.269531 238.902344 188.523438 C 247.15625 190.585938 275.734375 197.003906 296.859375 192.90625 C 297.894531 192.710938 298.878906 193.375 299.078125 194.402344 C 299.277344 195.429688 298.609375 196.421875 297.582031 196.621094 C 292.421875 197.625 286.851562 198.023438 281.242188 198.023438 Z M 281.242188 198.023438 "/>
<path style=" stroke:none;fill-rule:nonzero;fill:rgb(39.608765%,38.819885%,64.709473%);fill-opacity:1;" d="M 293.15625 190.996094 C 292.761719 190.996094 292.359375 190.871094 292.019531 190.613281 C 281.558594 182.726562 264.273438 181.941406 240.648438 188.28125 C 240.09375 188.429688 239.648438 188.550781 239.324219 188.632812 C 238.316406 188.882812 237.28125 188.273438 237.027344 187.253906 C 236.769531 186.242188 237.386719 185.210938 238.402344 184.957031 C 238.71875 184.882812 239.144531 184.765625 239.667969 184.625 C 264.46875 177.96875 282.855469 178.964844 294.296875 187.589844 C 295.128906 188.21875 295.296875 189.40625 294.667969 190.242188 C 294.296875 190.734375 293.730469 190.996094 293.15625 190.996094 Z M 293.15625 190.996094 "/>
<path style=" stroke:none;fill-rule:nonzero;fill:rgb(39.608765%,38.819885%,64.709473%);fill-opacity:1;" d="M 299.660156 186.171875 C 299.109375 186.171875 298.566406 185.9375 298.191406 185.476562 C 292.390625 178.363281 260.039062 170.617188 242.222656 182.5 C 241.351562 183.082031 240.175781 182.84375 239.597656 181.976562 C 239.015625 181.105469 239.25 179.929688 240.121094 179.347656 C 258.8125 166.882812 293.75 174.039062 301.121094 183.082031 C 301.785156 183.894531 301.664062 185.085938 300.851562 185.746094 C 300.503906 186.035156 300.078125 186.171875 299.660156 186.171875 Z M 299.660156 186.171875 "/>
<path style=" stroke:none;fill-rule:nonzero;fill:rgb(18.429565%,25.878906%,32.548523%);fill-opacity:1;" d="M 326.347656 331.804688 C 325.601562 332.792969 324.214844 334.914062 323.386719 335.816406 C 318.789062 340.796875 313.144531 343.5625 306.347656 344.183594 C 299.152344 344.832031 290.535156 345.496094 283.453125 343.675781 C 269.640625 340.121094 263.898438 324.15625 268.183594 311.308594 C 270.75 303.609375 275.007812 297.253906 280.246094 291.128906 C 284.832031 285.765625 301.589844 283.304688 305.941406 277.753906 C 305.53125 277.613281 295.113281 274.953125 294.695312 274.835938 C 293.761719 274.570312 271.277344 288.53125 255.289062 301.324219 C 251.644531 304.242188 250.777344 303.996094 248.929688 299.828125 C 227.613281 320.210938 207.011719 347.851562 229.542969 359.238281 C 246.402344 367.757812 233.792969 405.683594 235.328125 444.191406 C 237.304688 445.683594 313.011719 482.640625 322.90625 484.691406 C 322.441406 483.097656 306.488281 399.863281 326.347656 331.804688 Z M 326.347656 331.804688 "/>
<path style=" stroke:none;fill-rule:nonzero;fill:rgb(39.608765%,38.819885%,64.709473%);fill-opacity:1;" d="M 221.808594 337.132812 C 221.578125 337.132812 221.347656 337.089844 221.121094 337 C 220.148438 336.621094 219.664062 335.523438 220.046875 334.550781 C 225.007812 321.84375 237.59375 308.09375 247.277344 298.796875 C 248.027344 298.074219 249.230469 298.097656 249.953125 298.851562 C 250.675781 299.605469 250.652344 300.804688 249.898438 301.53125 C 240.492188 310.5625 228.285156 323.863281 223.574219 335.925781 C 223.277344 336.675781 222.5625 337.132812 221.808594 337.132812 Z M 221.808594 337.132812 "/>
<g clip-path="url(#clip1)" clip-rule="nonzero">
<path style=" stroke:none;fill-rule:nonzero;fill:rgb(85.879517%,59.999084%,42.749023%);fill-opacity:1;" d="M 583.6875 283.019531 C 577.089844 282.761719 570.625 283.503906 563.960938 282.859375 C 555.71875 282.066406 547.828125 282.039062 539.453125 282.039062 C 533.277344 282.039062 528.757812 282.09375 522.824219 285.023438 C 521.011719 285.921875 521.464844 293.070312 522.105469 295.207031 C 524.738281 303.910156 537.363281 301.28125 544.105469 299.894531 C 550.265625 301.476562 561.265625 304.03125 565.695312 303.375 C 568.960938 302.886719 570.160156 300.773438 568.628906 298.425781 C 568.519531 298.300781 568.398438 298.195312 568.273438 298.082031 C 566.542969 297.398438 559.96875 299.105469 557.203125 296.683594 C 557.09375 296.589844 557.011719 296.488281 556.910156 296.386719 C 559.097656 295.71875 561.289062 295.089844 563.484375 294.628906 C 568.6875 293.539062 573.234375 293.082031 578.527344 293.445312 C 581.800781 293.667969 585.71875 293.960938 586.976562 289.644531 C 588.117188 285.761719 586.847656 283.144531 583.6875 283.019531 Z M 583.6875 283.019531 "/>
</g>
<path style=" stroke:none;fill-rule:nonzero;fill:rgb(85.879517%,59.999084%,42.749023%);fill-opacity:1;" d="M 531.832031 282.21875 C 507.308594 286.652344 482.777344 291.078125 458.082031 294.445312 C 444.453125 296.300781 430.484375 298.21875 416.699219 297.859375 C 403.796875 297.519531 390.796875 295.210938 377.957031 293.890625 C 366.59375 292.71875 325.4375 286.328125 310.730469 284.691406 C 310.296875 284.632812 309.871094 284.585938 309.433594 284.550781 C 309.070312 284.515625 308.714844 284.476562 308.398438 284.449219 L 308.394531 284.496094 C 308.066406 284.484375 307.746094 284.449219 307.414062 284.449219 C 293.398438 284.449219 282.03125 295.816406 282.03125 309.839844 C 282.03125 323.863281 293.398438 335.230469 307.414062 335.230469 C 315.042969 335.542969 357.09375 334.769531 364.726562 335.015625 C 383.117188 335.65625 402.28125 337.800781 420.660156 335.5625 C 450.195312 331.964844 479.132812 322.742188 507.152344 313.019531 C 517.464844 309.4375 529.230469 306.378906 538.820312 301.089844 C 548.871094 295.539062 542.882812 280.21875 531.832031 282.21875 Z M 531.832031 282.21875 "/>
<path style=" stroke:none;fill-rule:nonzero;fill:rgb(39.608765%,38.819885%,64.709473%);fill-opacity:1;" d="M 310.832031 337.488281 C 309.628906 337.488281 308.335938 337.449219 306.820312 337.34375 C 300.703125 336.925781 294.773438 334.5 290.125 330.515625 C 283.78125 325.074219 280.140625 317.082031 280.140625 308.589844 C 280.140625 302.789062 283.179688 297.3125 285.828125 293.191406 C 286.394531 292.3125 287.5625 292.058594 288.445312 292.621094 C 289.320312 293.1875 289.578125 294.359375 289.015625 295.238281 C 286.644531 298.925781 283.925781 303.773438 283.925781 308.585938 C 283.925781 315.972656 287.085938 322.917969 292.589844 327.636719 C 296.625 331.097656 301.769531 333.203125 307.082031 333.566406 C 310.257812 333.785156 312.429688 333.6875 314.949219 333.582031 C 316.644531 333.507812 318.542969 333.429688 321.023438 333.433594 C 322.066406 333.433594 322.910156 334.285156 322.910156 335.332031 C 322.90625 336.375 322.058594 337.21875 321.015625 337.21875 C 320.9375 337.214844 320.84375 337.21875 320.757812 337.21875 C 318.511719 337.21875 316.78125 337.292969 315.109375 337.367188 C 313.65625 337.429688 312.3125 337.488281 310.832031 337.488281 Z M 310.832031 337.488281 "/>
<path style=" stroke:none;fill-rule:nonzero;fill:rgb(39.608765%,38.819885%,64.709473%);fill-opacity:1;" d="M 271.925781 524.203125 C 271.460938 524.203125 270.992188 524.03125 270.625 523.6875 C 260.132812 513.808594 235.503906 486.292969 233.433594 444.285156 C 233.382812 443.242188 234.1875 442.355469 235.234375 442.304688 C 236.226562 442.253906 237.164062 443.054688 237.214844 444.101562 C 239.21875 484.730469 263.0625 511.367188 273.222656 520.933594 C 273.984375 521.648438 274.019531 522.847656 273.304688 523.609375 C 272.933594 524.003906 272.429688 524.203125 271.925781 524.203125 Z M 271.925781 524.203125 "/>
</g>
</svg>
