<?xml version="1.0" encoding="UTF-8"?>
<svg xmlns="http://www.w3.org/2000/svg" xmlns:xlink="http://www.w3.org/1999/xlink" width="595.5pt" height="842.249979pt" viewBox="0 0 595.5 842.249979" version="1.2">
<defs>
<clipPath id="clip1">
  <path d="M 308 254 L 330 254 L 330 353 L 308 353 Z M 308 254 "/>
</clipPath>
<clipPath id="clip2">
  <path d="M 173.636719 152.128906 L 542.710938 273.375 L 421.464844 642.453125 L 52.390625 521.203125 Z M 173.636719 152.128906 "/>
</clipPath>
<clipPath id="clip3">
  <path d="M 173.636719 152.128906 L 542.710938 273.375 L 421.464844 642.453125 L 52.390625 521.203125 Z M 173.636719 152.128906 "/>
</clipPath>
<clipPath id="clip4">
  <path d="M 307 254 L 320 254 L 320 270 L 307 270 Z M 307 254 "/>
</clipPath>
<clipPath id="clip5">
  <path d="M 173.636719 152.128906 L 542.710938 273.375 L 421.464844 642.453125 L 52.390625 521.203125 Z M 173.636719 152.128906 "/>
</clipPath>
<clipPath id="clip6">
  <path d="M 173.636719 152.128906 L 542.710938 273.375 L 421.464844 642.453125 L 52.390625 521.203125 Z M 173.636719 152.128906 "/>
</clipPath>
<clipPath id="clip7">
  <path d="M 172 308 L 421 308 L 421 546 L 172 546 Z M 172 308 "/>
</clipPath>
<clipPath id="clip8">
  <path d="M 173.636719 152.128906 L 542.710938 273.375 L 421.464844 642.453125 L 52.390625 521.203125 Z M 173.636719 152.128906 "/>
</clipPath>
<clipPath id="clip9">
  <path d="M 173.636719 152.128906 L 542.710938 273.375 L 421.464844 642.453125 L 52.390625 521.203125 Z M 173.636719 152.128906 "/>
</clipPath>
<clipPath id="clip10">
  <path d="M 324 276 L 410 276 L 410 319 L 324 319 Z M 324 276 "/>
</clipPath>
<clipPath id="clip11">
  <path d="M 173.636719 152.128906 L 542.710938 273.375 L 421.464844 642.453125 L 52.390625 521.203125 Z M 173.636719 152.128906 "/>
</clipPath>
<clipPath id="clip12">
  <path d="M 173.636719 152.128906 L 542.710938 273.375 L 421.464844 642.453125 L 52.390625 521.203125 Z M 173.636719 152.128906 "/>
</clipPath>
</defs>
<g id="surface1">
<g clip-path="url(#clip1)" clip-rule="nonzero">
<g clip-path="url(#clip2)" clip-rule="nonzero">
<g clip-path="url(#clip3)" clip-rule="nonzero">
<path style=" stroke:none;fill-rule:nonzero;fill:rgb(30.589294%,3.138733%,4.309082%);fill-opacity:1;" d="M 317.183594 254.867188 C 317.183594 254.867188 317.480469 255.105469 318.035156 255.554688 C 326.058594 262.0625 328.898438 272.890625 329.136719 282.707031 C 329.425781 295.058594 328.078125 307.738281 325.101562 319.722656 C 322.722656 329.335938 319.59375 339.5625 314.789062 348.273438 C 314.117188 349.496094 312.167969 353.59375 310.253906 352.679688 C 307.445312 351.332031 311.757812 345.382812 312.382812 343.953125 C 314.308594 339.554688 315.632812 334.789062 316.515625 330.078125 C 318.445312 319.902344 318.558594 309.515625 318.339844 299.199219 C 318.152344 290.585938 317.640625 281.136719 312.964844 273.617188 C 310.136719 269.078125 308.53125 268.433594 308.53125 268.433594 C 308.929688 267.871094 317.320312 254.972656 317.183594 254.867188 "/>
</g>
</g>
</g>
<g clip-path="url(#clip4)" clip-rule="nonzero">
<g clip-path="url(#clip5)" clip-rule="nonzero">
<g clip-path="url(#clip6)" clip-rule="nonzero">
<path style=" stroke:none;fill-rule:nonzero;fill:rgb(19.60907%,1.568604%,1.568604%);fill-opacity:1;" d="M 317.695312 264.984375 C 320.191406 261.308594 320.3125 257.042969 317.980469 255.457031 C 315.636719 253.867188 311.714844 255.558594 309.226562 259.234375 C 306.730469 262.910156 306.609375 267.175781 308.945312 268.761719 C 311.289062 270.351562 315.199219 268.65625 317.695312 264.984375 "/>
</g>
</g>
</g>
<g clip-path="url(#clip7)" clip-rule="nonzero">
<g clip-path="url(#clip8)" clip-rule="nonzero">
<g clip-path="url(#clip9)" clip-rule="nonzero">
<path style=" stroke:none;fill-rule:nonzero;fill:rgb(49.409485%,30.198669%,44.709778%);fill-opacity:1;" d="M 418.949219 417.648438 C 406.683594 474.984375 358.539062 563.925781 284.578125 541.878906 C 270 537.539062 266.96875 529.140625 255.382812 525.332031 C 244.21875 521.667969 237.03125 526.710938 223.160156 521.046875 C 158.375 494.578125 166.457031 394.007812 186.671875 342.074219 C 210.105469 281.847656 286.839844 315.085938 314.84375 344.328125 C 365.042969 337.132812 432.265625 355.371094 418.949219 417.648438 "/>
</g>
</g>
</g>
<g clip-path="url(#clip10)" clip-rule="nonzero">
<g clip-path="url(#clip11)" clip-rule="nonzero">
<g clip-path="url(#clip12)" clip-rule="nonzero">
<path style=" stroke:none;fill-rule:nonzero;fill:rgb(49.409485%,65.098572%,73.728943%);fill-opacity:1;" d="M 409.589844 299.277344 C 409.632812 306.847656 390.605469 318.660156 367.039062 318.824219 C 343.472656 318.976562 324.285156 307.425781 324.234375 299.847656 C 324.183594 292.28125 343.1875 276.578125 366.753906 276.421875 C 390.328125 276.269531 409.535156 291.714844 409.589844 299.277344 "/>
</g>
</g>
</g>
</g>
</svg>
