<?xml version="1.0" encoding="UTF-8"?>
<svg xmlns="http://www.w3.org/2000/svg" xmlns:xlink="http://www.w3.org/1999/xlink" width="595.5pt" height="842.249979pt" viewBox="0 0 595.5 842.249979" version="1.2">
<defs>
<clipPath id="clip1">
  <path d="M 21.070312 192 L 574.121094 192 L 574.121094 688.980469 L 21.070312 688.980469 Z M 21.070312 192 "/>
</clipPath>
</defs>
<g id="surface1">
<path style=" stroke:none;fill-rule:nonzero;fill:rgb(89.019775%,65.879822%,43.139648%);fill-opacity:1;" d="M 370.289062 348.964844 C 370.289062 348.964844 334.554688 360.679688 324.078125 360.289062 L 324.078125 377.425781 C 305.929688 366.492188 261.1875 342.375 240.105469 349.089844 C 240.105469 349.089844 215.773438 361.578125 214.515625 389.03125 C 214.515625 389.03125 290.042969 367.816406 310.027344 392.777344 L 319.394531 413.359375 L 343.957031 429.488281 C 343.957031 429.488281 349.082031 440.632812 351.203125 443.65625 C 353.304688 446.675781 370.199219 445.773438 372 444.855469 C 373.804688 443.957031 374.121094 432.507812 374.121094 432.507812 C 374.121094 432.507812 373.183594 428.921875 371.84375 424.523438 C 372.515625 422.683594 373.273438 420.832031 374.121094 419.3125 C 376.738281 414.472656 376.332031 367.285156 370.289062 348.964844 Z M 221.390625 157.21875 C 218.421875 148.78125 226.460938 139.441406 234.890625 145.363281 C 234.890625 145.363281 240.8125 162.222656 241.785156 153.941406 C 242.753906 145.660156 238.054688 120.21875 245.847656 120.707031 C 253.640625 121.191406 276.292969 127.714844 284.085938 123.335938 C 284.085938 123.335938 297.816406 152.480469 297.816406 153.941406 C 297.816406 155.398438 290.023438 159.789062 290.023438 159.789062 L 289.371094 186.519531 C 289.300781 190.21875 287.144531 193.574219 283.839844 195.210938 L 280.5 196.851562 C 280.5 196.851562 276.753906 249.609375 247.527344 248.148438 C 218.296875 246.6875 221.390625 219.832031 221.390625 212.445312 C 221.390625 205.0625 224.925781 189.003906 224.925781 189.003906 L 228.777344 168.136719 C 228.777344 168.136719 223.652344 163.699219 221.390625 157.21875 "/>
<path style=" stroke:none;fill-rule:nonzero;fill:rgb(29.019165%,11.759949%,12.939453%);fill-opacity:1;" d="M 207.183594 174.90625 C 207.183594 182.257812 217.628906 169.113281 218.40625 174.90625 C 219.183594 180.710938 226.460938 180.59375 226.496094 180.394531 L 229.574219 167.640625 C 220.03125 160.886719 221.726562 151.175781 223.566406 147.257812 C 225.382812 143.34375 231.710938 145.117188 233.496094 146.144531 C 235.28125 147.179688 233.125 149.535156 238.585938 154.9375 C 244.046875 160.339844 244.644531 154.433594 244.082031 143.480469 C 243.496094 132.53125 244.929688 126.203125 246.128906 125.421875 C 247.332031 124.644531 272.902344 125.898438 282.65625 126.320312 C 292.429688 126.75 294.335938 121.945312 297.816406 117.789062 C 302.042969 112.710938 302.5 108.9375 301.476562 105.957031 C 300.824219 104.09375 299.710938 101.035156 297.941406 101.925781 C 287.320312 107.351562 261.488281 95.8125 226.496094 110.628906 C 188.394531 126.761719 212.996094 151.328125 214.515625 155.191406 C 216.054688 159.0625 207.183594 167.566406 207.183594 174.90625 Z M 392.996094 637.648438 C 392.996094 637.648438 380.820312 638.617188 374.121094 637.648438 C 371.117188 637.207031 368.433594 636.179688 366.363281 635.175781 C 363.800781 633.917969 362.265625 631.253906 362.371094 628.40625 C 363.253906 606.574219 367.070312 508.882812 366.207031 503.261719 C 365.234375 496.9375 311.691406 485.808594 311.671875 485.808594 C 306.160156 527.253906 299.867188 571.328125 300.875 577.371094 C 302.660156 588.058594 257.050781 590.550781 257.40625 581.648438 C 257.777344 572.742188 237.929688 506.195312 246.148438 481.765625 C 246.148438 481.765625 177.765625 490.03125 166.167969 458.761719 C 153.148438 423.695312 154.152344 409.015625 172.890625 378.4375 C 172.890625 378.4375 180.667969 374.003906 182.339844 378.4375 C 184.003906 382.886719 182.894531 401.226562 195.679688 400.113281 C 208.457031 399 214.515625 389.035156 214.515625 389.035156 C 214.515625 389.035156 269.84375 372.449219 298.878906 384.882812 C 298.878906 384.882812 318.632812 389.617188 319.394531 413.363281 L 343.957031 429.492188 C 343.957031 429.492188 350.160156 441.980469 351.609375 444.066406 C 353.039062 446.148438 373.484375 444.066406 373.484375 444.066406 C 428.742188 456.042969 434.34375 480.632812 435.300781 488.371094 C 438.902344 517.765625 392.996094 637.648438 392.996094 637.648438 "/>
<g clip-path="url(#clip1)" clip-rule="nonzero">
<path style=" stroke:none;fill-rule:nonzero;fill:rgb(74.899292%,15.289307%,21.569824%);fill-opacity:1;" d="M 531.324219 442.808594 L 445.707031 445.582031 C 444.699219 445.617188 442.828125 445.808594 441.589844 446.730469 C 440.652344 447.417969 440.617188 448.054688 440.757812 448.460938 C 440.953125 448.988281 441.449219 449.273438 442.277344 449.273438 C 442.3125 449.273438 442.367188 449.253906 442.402344 449.253906 L 528 446.5 C 529.007812 446.464844 530.882812 446.289062 532.117188 445.351562 C 533.074219 444.660156 533.089844 444.027344 532.96875 443.636719 C 532.753906 443.070312 532.226562 442.824219 531.324219 442.808594 Z M 130.613281 470.613281 L 56.28125 467.222656 C 55.015625 467.167969 52.777344 467.644531 52.070312 469.148438 C 51.664062 470.03125 51.902344 470.667969 52.089844 470.964844 C 52.46875 471.585938 53.25 471.972656 54.242188 472.027344 L 128.578125 475.417969 L 128.785156 475.417969 C 130.0625 475.417969 132.121094 474.921875 132.789062 473.476562 C 133.203125 472.609375 132.953125 471.972656 132.777344 471.671875 C 132.394531 471.035156 131.609375 470.648438 130.613281 470.613281 Z M 574.035156 416.839844 C 573.910156 416.484375 573.523438 415.902344 572.390625 415.867188 C 524.910156 413.816406 477.039062 413.640625 430.121094 415.320312 C 416.867188 415.796875 403.261719 416.433594 389.671875 417.226562 C 388.453125 417.296875 386.296875 417.632812 385.539062 418.992188 C 385.113281 419.804688 385.34375 420.390625 385.503906 420.671875 C 385.945312 421.34375 386.808594 421.484375 387.429688 421.484375 C 387.515625 421.484375 387.585938 421.484375 387.675781 421.464844 C 434.734375 418.710938 482.375 417.808594 529.21875 418.78125 C 542.507812 419.0625 555.921875 419.488281 569.085938 420.054688 C 569.953125 420.070312 572.109375 420.054688 573.363281 418.835938 C 574.015625 418.214844 574.265625 417.457031 574.035156 416.839844 Z M 140.105469 433.710938 C 111.050781 435.140625 81.90625 435.527344 53.488281 434.855469 C 44.796875 434.644531 36.113281 434.398438 27.4375 434.132812 L 25.511719 434.078125 C 24.257812 434.027344 22.011719 434.523438 21.308594 435.96875 C 20.894531 436.816406 21.121094 437.417969 21.292969 437.703125 C 21.667969 438.320312 22.425781 438.671875 23.449219 438.707031 C 43.175781 439.273438 63.359375 439.839844 83.703125 439.839844 C 92.515625 439.839844 101.359375 439.734375 110.207031 439.46875 C 118.617188 439.222656 127.507812 438.851562 138.183594 438.320312 C 139.40625 438.265625 141.582031 437.949219 142.3125 436.445312 C 142.746094 435.5625 142.472656 434.929688 142.273438 434.628906 C 141.863281 434.007812 141.050781 433.65625 140.105469 433.710938 Z M 388.171875 637.925781 C 384.019531 638.101562 378.117188 638.210938 374.121094 637.644531 C 372.214844 637.359375 370.480469 636.847656 368.910156 636.25 C 370.109375 649.144531 372.636719 669.070312 377.339844 680.113281 C 384.671875 697.320312 405.011719 690.519531 394.054688 652.042969 Z M 292.570312 584.558594 C 286.597656 586.429688 278.414062 587.277344 271.453125 587.011719 C 273.679688 598.496094 280.554688 629.605469 291.351562 641.125 C 304.726562 655.398438 307.394531 629.851562 300.714844 611.90625 C 295.980469 599.183594 293.578125 589.273438 292.570312 584.558594 Z M 327.539062 360.855469 L 327.539062 379.652344 C 305.167969 363.308594 250.300781 348.964844 250.300781 348.964844 C 219.128906 353.0625 219.429688 400.425781 219.429688 400.425781 C 205.609375 411.113281 179.488281 404.066406 180.378906 392.9375 C 181.269531 381.808594 172.890625 378.433594 172.890625 378.433594 C 169.246094 375.816406 165.824219 360.679688 160.902344 328.457031 C 155.988281 296.25 168.003906 240.542969 183.84375 221.972656 C 199.691406 203.40625 224.164062 192.574219 224.164062 192.574219 C 224.164062 192.574219 226.992188 190.660156 224.976562 216.878906 C 223 243.085938 241.570312 241.816406 241.570312 241.816406 C 282.355469 245.820312 278.820312 196.804688 278.820312 196.804688 C 305.488281 196.761719 337.894531 225.800781 348.816406 243.117188 C 359.738281 260.429688 367.355469 307.980469 368.554688 315.789062 C 369.757812 323.597656 386.578125 326.601562 379.972656 341.015625 C 373.363281 355.429688 327.539062 360.855469 327.539062 360.855469 "/>
</g>
<path style=" stroke:none;fill-rule:nonzero;fill:rgb(74.899292%,15.289307%,21.569824%);fill-opacity:1;" d="M 311.761719 162.480469 C 310.292969 161.488281 305.59375 163.613281 307.714844 165.046875 C 314.871094 169.910156 321.425781 175.625 327.257812 182.015625 C 328.53125 183.394531 333.425781 181.503906 332.011719 179.96875 C 325.96875 173.363281 319.164062 167.511719 311.761719 162.480469 Z M 338.195312 149.65625 C 331.992188 149.65625 325.828125 147.796875 320.597656 144.503906 C 319.5 143.808594 317.945312 144.011719 316.921875 144.792969 C 316.089844 145.4375 315.558594 146.808594 316.65625 147.5 C 323.015625 151.488281 330.28125 153.488281 337.753906 153.488281 C 338.902344 153.488281 340.441406 152.617188 340.582031 151.390625 C 340.707031 150.042969 339.222656 149.65625 338.195312 149.65625 Z M 309.214844 135.609375 C 313.882812 130.003906 319.199219 124.980469 325.101562 120.71875 C 326.109375 119.992188 327.46875 119.496094 328.726562 119.746094 C 329.679688 119.929688 330.066406 120.8125 329.183594 121.457031 C 323.546875 125.535156 318.421875 130.289062 313.96875 135.644531 C 313.175781 136.59375 311.796875 137 310.59375 137.007812 C 309.886719 137.015625 308.457031 136.535156 309.214844 135.609375 "/>
<path style=" stroke:none;fill-rule:nonzero;fill:rgb(70.588684%,42.749023%,23.919678%);fill-opacity:1;" d="M 243.285156 186.949219 C 243.957031 185.921875 245.476562 185.410156 246.660156 185.5 C 247.507812 185.5625 248.78125 186.167969 248.09375 187.203125 C 246.554688 189.570312 247.101562 192.585938 248.675781 194.816406 C 250.476562 197.390625 253.304688 198.613281 256.398438 198.804688 C 260.003906 199.035156 263.519531 198.066406 267 197.273438 C 270.800781 196.417969 274.652344 195.722656 278.558594 196.097656 C 279.492188 196.191406 280.589844 196.707031 280.003906 197.804688 C 279.457031 198.847656 277.742188 199.363281 276.628906 199.253906 C 272.125 198.8125 267.832031 200.199219 263.464844 201.097656 C 259.472656 201.925781 255.265625 202.441406 251.238281 201.503906 C 247.808594 200.703125 244.859375 198.777344 243.179688 195.636719 C 241.710938 192.871094 241.535156 189.625 243.285156 186.949219 "/>
</g>
</svg>
