<?xml version="1.0" encoding="UTF-8"?>
<svg xmlns="http://www.w3.org/2000/svg" xmlns:xlink="http://www.w3.org/1999/xlink" width="595.5pt" height="842.249979pt" viewBox="0 0 595.5 842.249979" version="1.2">
<defs>
<clipPath id="clip1">
  <path d="M 136.730469 279 L 458.214844 279 L 458.214844 567.933594 L 136.730469 567.933594 Z M 136.730469 279 "/>
</clipPath>
</defs>
<g id="surface1">
<path style=" stroke:none;fill-rule:nonzero;fill:rgb(89.019775%,65.879822%,43.139648%);fill-opacity:1;" d="M 339.726562 370.203125 C 339.726562 370.203125 318.957031 377.011719 312.867188 376.785156 L 312.867188 386.75 C 302.316406 380.390625 276.308594 366.371094 264.050781 370.273438 C 264.050781 370.273438 249.90625 377.535156 249.179688 393.5 C 249.179688 393.5 293.082031 381.164062 304.699219 395.679688 L 310.144531 407.648438 L 324.421875 417.027344 C 324.421875 417.027344 327.402344 423.511719 328.632812 425.265625 C 329.855469 427.023438 339.675781 426.5 340.722656 425.964844 C 341.769531 425.441406 341.957031 418.785156 341.957031 418.785156 C 341.957031 418.785156 341.410156 416.699219 340.632812 414.140625 C 341.019531 413.074219 341.464844 411.992188 341.957031 411.109375 C 343.476562 408.296875 343.238281 380.855469 339.726562 370.203125 Z M 253.175781 258.691406 C 251.449219 253.785156 256.121094 248.355469 261.023438 251.796875 C 261.023438 251.796875 264.464844 261.601562 265.027344 256.785156 C 265.59375 251.972656 262.859375 237.175781 267.390625 237.460938 C 271.921875 237.742188 285.089844 241.535156 289.621094 238.988281 C 289.621094 238.988281 297.601562 255.9375 297.601562 256.785156 C 297.601562 257.632812 293.070312 260.1875 293.070312 260.1875 L 292.691406 275.734375 C 292.648438 277.882812 291.398438 279.832031 289.476562 280.785156 L 287.535156 281.738281 C 287.535156 281.738281 285.355469 312.421875 268.367188 311.574219 C 251.375 310.722656 253.175781 295.101562 253.175781 290.808594 C 253.175781 286.515625 255.226562 277.175781 255.226562 277.175781 L 257.46875 265.042969 C 257.46875 265.042969 254.488281 262.460938 253.175781 258.691406 "/>
<path style=" stroke:none;fill-rule:nonzero;fill:rgb(29.019165%,11.759949%,12.939453%);fill-opacity:1;" d="M 244.914062 268.980469 C 244.914062 273.253906 250.984375 265.609375 251.4375 268.980469 C 251.890625 272.355469 256.121094 272.285156 256.144531 272.171875 L 257.929688 264.753906 C 252.382812 260.824219 253.371094 255.179688 254.4375 252.898438 C 255.496094 250.625 259.171875 251.65625 260.210938 252.253906 C 261.246094 252.855469 259.996094 254.222656 263.167969 257.367188 C 266.34375 260.507812 266.691406 257.070312 266.363281 250.703125 C 266.023438 244.335938 266.855469 240.65625 267.554688 240.203125 C 268.253906 239.746094 283.117188 240.476562 288.789062 240.722656 C 294.46875 240.972656 295.578125 238.179688 297.601562 235.761719 C 300.054688 232.808594 300.324219 230.613281 299.726562 228.878906 C 299.347656 227.796875 298.699219 226.019531 297.671875 226.539062 C 291.5 229.691406 276.480469 222.980469 256.144531 231.597656 C 233.992188 240.980469 248.292969 255.265625 249.179688 257.511719 C 250.070312 259.765625 244.914062 264.707031 244.914062 268.980469 Z M 352.925781 538.082031 C 352.925781 538.082031 345.847656 538.648438 341.957031 538.082031 C 340.210938 537.824219 338.648438 537.230469 337.445312 536.644531 C 335.957031 535.914062 335.0625 534.363281 335.125 532.707031 C 335.640625 520.011719 337.859375 463.199219 337.355469 459.929688 C 336.789062 456.253906 305.664062 449.78125 305.65625 449.78125 C 302.449219 473.882812 298.792969 499.515625 299.378906 503.027344 C 300.414062 509.246094 273.902344 510.691406 274.109375 505.515625 C 274.324219 500.335938 262.789062 461.636719 267.566406 447.429688 C 267.566406 447.429688 227.8125 452.238281 221.074219 434.054688 C 213.503906 413.660156 214.085938 405.121094 224.980469 387.339844 C 224.980469 387.339844 229.503906 384.761719 230.476562 387.339844 C 231.441406 389.929688 230.796875 400.59375 238.226562 399.945312 C 245.65625 399.296875 249.179688 393.503906 249.179688 393.503906 C 249.179688 393.503906 281.339844 383.855469 298.21875 391.089844 C 298.21875 391.089844 309.703125 393.84375 310.144531 407.648438 L 324.421875 417.03125 C 324.421875 417.03125 328.027344 424.292969 328.871094 425.503906 C 329.703125 426.71875 341.585938 425.503906 341.585938 425.503906 C 373.707031 432.472656 376.964844 446.769531 377.519531 451.269531 C 379.613281 468.367188 352.925781 538.082031 352.925781 538.082031 "/>
<g clip-path="url(#clip1)" clip-rule="nonzero">
<path style=" stroke:none;fill-rule:nonzero;fill:rgb(74.899292%,15.289307%,21.569824%);fill-opacity:1;" d="M 433.335938 424.773438 L 383.570312 426.386719 C 382.984375 426.40625 381.894531 426.519531 381.175781 427.054688 C 380.628906 427.457031 380.609375 427.824219 380.691406 428.0625 C 380.804688 428.371094 381.09375 428.535156 381.574219 428.535156 C 381.597656 428.535156 381.628906 428.523438 381.648438 428.523438 L 431.40625 426.921875 C 431.992188 426.902344 433.078125 426.796875 433.800781 426.253906 C 434.355469 425.851562 434.363281 425.484375 434.292969 425.257812 C 434.167969 424.929688 433.859375 424.785156 433.335938 424.773438 Z M 200.40625 440.945312 L 157.195312 438.972656 C 156.460938 438.941406 155.160156 439.21875 154.746094 440.089844 C 154.511719 440.605469 154.652344 440.976562 154.761719 441.148438 C 154.980469 441.507812 155.433594 441.734375 156.011719 441.765625 L 199.222656 443.738281 L 199.34375 443.738281 C 200.085938 443.738281 201.28125 443.449219 201.671875 442.609375 C 201.910156 442.105469 201.765625 441.734375 201.664062 441.5625 C 201.441406 441.191406 200.984375 440.964844 200.40625 440.945312 Z M 458.164062 409.671875 C 458.09375 409.464844 457.867188 409.128906 457.210938 409.105469 C 429.609375 407.914062 401.78125 407.8125 374.507812 408.789062 C 366.804688 409.066406 358.894531 409.4375 350.996094 409.898438 C 350.285156 409.9375 349.035156 410.132812 348.59375 410.925781 C 348.34375 411.398438 348.480469 411.738281 348.570312 411.902344 C 348.828125 412.292969 349.332031 412.375 349.691406 412.375 C 349.742188 412.375 349.785156 412.375 349.835938 412.363281 C 377.1875 410.761719 404.882812 410.238281 432.113281 410.800781 C 439.839844 410.964844 447.636719 411.210938 455.289062 411.542969 C 455.792969 411.550781 457.042969 411.542969 457.773438 410.832031 C 458.152344 410.472656 458.296875 410.03125 458.164062 409.671875 Z M 205.921875 419.484375 C 189.035156 420.316406 172.09375 420.542969 155.574219 420.152344 C 150.523438 420.027344 145.472656 419.882812 140.429688 419.730469 L 139.308594 419.699219 C 138.582031 419.667969 137.277344 419.957031 136.867188 420.796875 C 136.625 421.292969 136.757812 421.640625 136.859375 421.804688 C 137.074219 422.164062 137.515625 422.371094 138.109375 422.390625 C 149.578125 422.71875 161.3125 423.046875 173.136719 423.046875 C 178.261719 423.046875 183.402344 422.984375 188.542969 422.832031 C 193.429688 422.6875 198.597656 422.472656 204.804688 422.164062 C 205.515625 422.132812 206.78125 421.949219 207.207031 421.074219 C 207.457031 420.5625 207.296875 420.191406 207.183594 420.015625 C 206.945312 419.65625 206.472656 419.453125 205.921875 419.484375 Z M 350.121094 538.242188 C 347.707031 538.347656 344.277344 538.410156 341.957031 538.078125 C 340.847656 537.914062 339.839844 537.617188 338.925781 537.269531 C 339.625 544.769531 341.09375 556.355469 343.824219 562.777344 C 348.089844 572.785156 359.910156 568.828125 353.542969 546.453125 Z M 294.550781 507.207031 C 291.078125 508.296875 286.320312 508.789062 282.273438 508.636719 C 283.570312 515.3125 287.566406 533.40625 293.839844 540.105469 C 301.617188 548.40625 303.167969 533.550781 299.285156 523.109375 C 296.53125 515.714844 295.136719 509.949219 294.550781 507.207031 Z M 314.878906 377.117188 L 314.878906 388.046875 C 301.875 378.542969 269.980469 370.203125 269.980469 370.203125 C 251.859375 372.585938 252.035156 400.128906 252.035156 400.128906 C 244 406.34375 228.816406 402.246094 229.335938 395.773438 C 229.851562 389.300781 224.980469 387.335938 224.980469 387.335938 C 222.863281 385.816406 220.871094 377.011719 218.011719 358.273438 C 215.15625 339.546875 222.140625 307.148438 231.347656 296.347656 C 240.558594 285.554688 254.785156 279.253906 254.785156 279.253906 C 254.785156 279.253906 256.429688 278.140625 255.257812 293.386719 C 254.109375 308.628906 264.90625 307.890625 264.90625 307.890625 C 288.613281 310.21875 286.558594 281.714844 286.558594 281.714844 C 302.058594 281.6875 320.898438 298.574219 327.246094 308.644531 C 333.59375 318.710938 338.023438 346.367188 338.71875 350.90625 C 339.417969 355.449219 349.199219 357.195312 345.355469 365.578125 C 341.515625 373.960938 314.878906 377.117188 314.878906 377.117188 "/>
</g>
<path style=" stroke:none;fill-rule:nonzero;fill:rgb(74.899292%,15.289307%,21.569824%);fill-opacity:1;" d="M 305.707031 261.75 C 304.851562 261.175781 302.121094 262.410156 303.351562 263.246094 C 307.511719 266.074219 311.324219 269.398438 314.714844 273.113281 C 315.453125 273.914062 318.300781 272.816406 317.476562 271.921875 C 313.964844 268.078125 310.007812 264.675781 305.707031 261.75 Z M 321.074219 254.296875 C 317.46875 254.296875 313.882812 253.210938 310.839844 251.296875 C 310.203125 250.894531 309.300781 251.011719 308.707031 251.464844 C 308.222656 251.839844 307.914062 252.636719 308.550781 253.039062 C 312.25 255.359375 316.472656 256.523438 320.816406 256.523438 C 321.484375 256.523438 322.378906 256.015625 322.460938 255.304688 C 322.53125 254.519531 321.667969 254.296875 321.074219 254.296875 Z M 304.226562 246.125 C 306.9375 242.867188 310.03125 239.945312 313.460938 237.464844 C 314.046875 237.042969 314.835938 236.753906 315.566406 236.898438 C 316.121094 237.007812 316.347656 237.519531 315.835938 237.894531 C 312.558594 240.265625 309.578125 243.03125 306.988281 246.144531 C 306.527344 246.699219 305.726562 246.933594 305.027344 246.9375 C 304.617188 246.945312 303.785156 246.664062 304.226562 246.125 "/>
<path style=" stroke:none;fill-rule:nonzero;fill:rgb(70.588684%,42.749023%,23.919678%);fill-opacity:1;" d="M 265.902344 275.980469 C 266.292969 275.382812 267.175781 275.085938 267.863281 275.140625 C 268.355469 275.175781 269.097656 275.527344 268.695312 276.128906 C 267.800781 277.507812 268.121094 279.261719 269.035156 280.558594 C 270.082031 282.054688 271.726562 282.765625 273.523438 282.875 C 275.617188 283.007812 277.664062 282.449219 279.6875 281.984375 C 281.894531 281.488281 284.132812 281.082031 286.40625 281.304688 C 286.949219 281.355469 287.585938 281.65625 287.246094 282.292969 C 286.929688 282.902344 285.933594 283.203125 285.285156 283.136719 C 282.664062 282.882812 280.167969 283.6875 277.632812 284.210938 C 275.308594 284.691406 272.867188 284.992188 270.523438 284.445312 C 268.53125 283.980469 266.816406 282.859375 265.839844 281.035156 C 264.988281 279.425781 264.882812 277.539062 265.902344 275.980469 "/>
</g>
</svg>
