<?xml version="1.0" encoding="UTF-8"?>
<svg xmlns="http://www.w3.org/2000/svg" xmlns:xlink="http://www.w3.org/1999/xlink" width="595.5pt" height="842.249979pt" viewBox="0 0 595.5 842.249979" version="1.2">
<defs>
<clipPath id="clip1">
  <path d="M 164 176.132812 L 417.214844 176.132812 L 417.214844 510 L 164 510 Z M 164 176.132812 "/>
</clipPath>
<clipPath id="clip2">
  <path d="M 69.679688 178.769531 L 525.65625 178.769531 L 525.65625 613.613281 L 69.679688 613.613281 Z M 69.679688 178.769531 "/>
</clipPath>
</defs>
<g id="surface1">
<g clip-path="url(#clip1)" clip-rule="nonzero">
<path style=" stroke:none;fill-rule:nonzero;fill:rgb(100%,63.919067%,7.449341%);fill-opacity:1;" d="M 290.671875 509.582031 C 360.546875 509.582031 417.128906 452.886719 417.128906 383.066406 C 417.128906 345.09375 400.339844 310.972656 373.839844 287.785156 C 370.78125 289.972656 367.105469 291.285156 363.082031 291.285156 L 238.988281 291.285156 C 230.417969 291.285156 223.160156 285.335938 221.148438 277.375 C 186.867188 300.035156 164.214844 338.882812 164.214844 383.066406 C 164.214844 452.972656 220.796875 509.582031 290.671875 509.582031 Z M 231.816406 221.378906 C 240.300781 194.167969 265.75 175.707031 293.996094 176.144531 C 321.542969 176.582031 345.941406 194.953125 354.074219 221.464844 C 313.324219 221.464844 272.570312 221.464844 231.816406 221.378906 "/>
</g>
<path style=" stroke:none;fill-rule:nonzero;fill:rgb(100%,100%,100%);fill-opacity:1;" d="M 234.179688 227.941406 L 372.964844 227.941406 C 377.6875 227.941406 381.535156 231.789062 381.535156 236.515625 L 381.535156 247.886719 C 381.535156 252.613281 377.6875 256.460938 372.964844 256.460938 L 234.179688 256.460938 C 229.457031 256.460938 225.609375 252.613281 225.609375 247.886719 L 225.609375 236.515625 C 225.519531 231.875 229.457031 227.941406 234.179688 227.941406 Z M 225.519531 265.300781 L 225.519531 276.671875 C 225.519531 281.398438 229.367188 285.25 234.089844 285.25 L 372.964844 285.25 C 377.6875 285.25 381.535156 281.398438 381.535156 276.671875 L 381.535156 265.300781 C 381.535156 260.574219 377.6875 256.726562 372.964844 256.726562 L 234.179688 256.726562 C 229.457031 256.636719 225.519531 260.574219 225.519531 265.300781 Z M 262.425781 386.480469 C 265.3125 389.367188 269.160156 391.027344 273.53125 391.027344 L 274.929688 391.027344 C 283.589844 391.027344 290.5 384.117188 290.585938 375.453125 L 290.671875 359.707031 L 273.53125 359.707031 C 264.875 359.707031 257.878906 366.703125 257.878906 375.367188 C 257.878906 379.742188 259.628906 383.679688 262.425781 386.480469 Z M 310.699219 376.066406 L 310.699219 359.792969 L 331.164062 359.792969 C 335.625 359.792969 339.734375 361.628906 342.707031 364.605469 C 345.679688 367.578125 347.429688 371.605469 347.429688 376.066406 C 347.429688 385.078125 340.171875 392.339844 331.164062 392.339844 L 326.964844 392.339844 C 318.046875 392.339844 310.699219 385.078125 310.699219 376.066406 "/>
<g clip-path="url(#clip2)" clip-rule="nonzero">
<path style=" stroke:none;fill-rule:nonzero;fill:rgb(18.03894%,21.569824%,49.798584%);fill-opacity:1;" d="M 275.804688 270.988281 C 275.804688 270.199219 276.417969 269.5 277.292969 269.5 L 333.261719 269.5 C 334.050781 269.5 334.75 270.113281 334.75 270.988281 C 334.75 271.863281 334.136719 272.472656 333.261719 272.472656 L 277.292969 272.472656 C 276.417969 272.386719 275.804688 271.773438 275.804688 270.988281 Z M 119.878906 539.332031 L 170.164062 488.324219 C 170.425781 488.0625 170.863281 487.886719 171.214844 487.886719 C 171.5625 487.886719 171.914062 488.0625 172.261719 488.324219 C 172.875 488.847656 172.875 489.8125 172.261719 490.421875 L 121.976562 541.433594 C 121.453125 542.042969 120.492188 542.042969 119.878906 541.433594 C 119.265625 540.820312 119.265625 539.945312 119.878906 539.332031 Z M 480.53125 536.445312 C 481.058594 537.058594 481.058594 537.933594 480.53125 538.542969 C 479.921875 539.070312 479.046875 539.070312 478.433594 538.542969 L 428.148438 487.535156 C 427.625 486.921875 427.625 486.046875 428.148438 485.4375 C 428.414062 485.171875 428.761719 485 429.199219 485 C 429.550781 485 429.988281 485.171875 430.25 485.4375 Z M 305.015625 540.558594 L 305.015625 612.128906 C 305.015625 612.914062 304.402344 613.613281 303.527344 613.613281 C 302.652344 613.613281 302.042969 613.003906 302.042969 612.128906 L 302.042969 540.558594 C 302.042969 539.769531 302.652344 539.070312 303.527344 539.070312 C 304.402344 539.070312 305.015625 539.769531 305.015625 540.558594 Z M 69.679688 380.707031 C 69.679688 379.917969 70.292969 379.21875 71.167969 379.21875 L 142.703125 379.21875 C 143.492188 379.21875 144.191406 379.832031 144.191406 380.707031 C 144.191406 381.582031 143.578125 382.191406 142.703125 382.191406 L 71.167969 382.191406 C 70.378906 382.191406 69.679688 381.492188 69.679688 380.707031 Z M 452.984375 380.617188 C 452.984375 379.832031 453.601562 379.132812 454.476562 379.132812 L 524.171875 379.132812 C 524.957031 379.132812 525.660156 379.742188 525.660156 380.617188 C 525.660156 381.492188 525.046875 382.105469 524.171875 382.105469 L 454.386719 382.105469 C 453.601562 382.105469 452.984375 381.40625 452.984375 380.617188 Z M 403.488281 359.621094 C 403.3125 358.832031 403.75 358.042969 404.539062 357.871094 C 404.625 357.871094 404.800781 357.78125 404.886719 357.78125 C 405.5 357.78125 406.113281 358.21875 406.285156 358.832031 C 407.773438 364.433594 408.910156 370.117188 409.523438 375.894531 C 409.609375 376.679688 408.996094 377.382812 408.210938 377.46875 C 407.421875 377.554688 406.722656 376.945312 406.636719 376.15625 C 406.023438 370.644531 404.976562 365.042969 403.488281 359.621094 Z M 325.480469 491.210938 C 325.304688 490.421875 325.742188 489.636719 326.53125 489.460938 C 370.867188 478.960938 403.136719 441.425781 406.8125 395.929688 C 406.898438 395.140625 407.511719 394.617188 408.296875 394.617188 L 408.386719 394.617188 C 409.171875 394.703125 409.785156 395.40625 409.699219 396.191406 C 405.9375 442.914062 372.792969 481.5 327.230469 492.261719 C 326.53125 492.523438 325.742188 492 325.480469 491.210938 Z M 285.078125 354.457031 L 284.992188 366.792969 C 284.992188 373.53125 279.480469 378.957031 272.746094 378.957031 L 271.523438 378.957031 C 268.285156 378.957031 265.136719 377.644531 262.863281 375.367188 C 260.589844 373.09375 259.277344 370.03125 259.277344 366.707031 C 259.277344 359.96875 264.789062 354.457031 271.523438 354.457031 Z M 235.667969 286.476562 L 235.929688 286.210938 C 237.152344 286.5625 238.464844 286.738281 239.863281 286.738281 L 285.515625 286.738281 L 285.164062 351.484375 L 271.609375 351.484375 C 263.300781 351.484375 256.480469 358.308594 256.480469 366.621094 C 256.480469 370.644531 258.054688 374.492188 260.941406 377.292969 C 263.828125 380.179688 267.585938 381.753906 271.699219 381.753906 L 272.921875 381.753906 C 281.230469 381.753906 288.050781 375.019531 288.050781 366.707031 L 288.136719 354.371094 L 316.996094 354.371094 L 316.996094 366.621094 C 316.996094 374.929688 323.820312 381.753906 332.128906 381.753906 L 335.625 381.753906 C 343.933594 381.753906 350.753906 374.929688 350.753906 366.621094 C 350.753906 362.59375 349.179688 358.746094 346.292969 355.945312 C 343.410156 353.058594 339.648438 351.484375 335.539062 351.484375 L 319.796875 351.484375 L 319.796875 286.738281 L 367.28125 286.738281 C 368.683594 286.738281 369.992188 286.5625 371.21875 286.210938 L 371.480469 286.476562 C 406.722656 309.574219 427.800781 348.421875 427.800781 390.503906 C 427.800781 459.011719 372.09375 514.746094 303.617188 514.746094 C 235.140625 514.746094 179.433594 459.011719 179.433594 390.503906 C 179.347656 348.507812 200.421875 309.574219 235.667969 286.476562 Z M 288.402344 286.738281 L 316.910156 286.738281 L 316.910156 351.484375 L 288.050781 351.484375 Z M 319.796875 354.457031 L 335.539062 354.457031 C 338.773438 354.457031 341.921875 355.769531 344.195312 358.042969 C 346.46875 360.320312 347.78125 363.382812 347.78125 366.707031 C 347.78125 373.445312 342.273438 378.957031 335.539062 378.957031 L 332.039062 378.957031 C 325.304688 378.957031 319.796875 373.445312 319.796875 366.707031 Z M 227.097656 272.386719 L 261.289062 272.386719 C 262.078125 272.386719 262.777344 271.777344 262.777344 270.902344 C 262.777344 270.027344 262.164062 269.414062 261.289062 269.414062 L 227.097656 269.414062 C 227.796875 263.027344 233.304688 258.039062 239.863281 258.039062 L 367.28125 258.039062 C 373.84375 258.039062 379.351562 263.027344 380.050781 269.414062 L 350.578125 269.414062 C 349.792969 269.414062 349.09375 270.027344 349.09375 270.902344 C 349.09375 271.777344 349.703125 272.386719 350.578125 272.386719 L 380.050781 272.386719 C 379.351562 278.773438 373.84375 283.761719 367.28125 283.761719 L 239.863281 283.761719 C 233.304688 283.851562 227.796875 278.863281 227.097656 272.386719 Z M 227.097656 243.777344 L 300.558594 243.777344 C 301.34375 243.777344 302.042969 243.164062 302.042969 242.289062 C 302.042969 241.503906 301.429688 240.804688 300.558594 240.804688 L 227.097656 240.804688 C 227.796875 234.414062 233.21875 229.429688 239.863281 229.429688 L 368.855469 229.515625 C 374.714844 230.214844 379.351562 234.941406 380.050781 240.804688 L 321.808594 240.804688 C 321.019531 240.804688 320.320312 241.414062 320.320312 242.289062 C 320.320312 243.078125 320.933594 243.777344 321.808594 243.777344 L 380.050781 243.777344 C 379.351562 250.164062 373.84375 255.152344 367.28125 255.152344 L 239.863281 255.152344 C 233.304688 255.152344 227.796875 250.164062 227.097656 243.777344 Z M 304.578125 181.65625 C 332.5625 182.09375 356.964844 200.03125 366.058594 226.542969 L 241 226.542969 C 250.273438 199.503906 276.15625 181.21875 304.578125 181.65625 Z M 303.53125 517.722656 C 373.578125 517.722656 430.597656 460.675781 430.597656 390.59375 C 430.597656 348.070312 409.609375 308.785156 374.367188 285.074219 C 379.4375 282.449219 382.9375 277.199219 382.9375 271.074219 C 382.9375 264.6875 379.175781 259.175781 373.667969 256.726562 C 379.089844 254.277344 382.9375 248.765625 382.9375 242.378906 C 382.9375 234.328125 376.902344 227.679688 369.03125 226.714844 C 359.847656 198.457031 334.050781 179.292969 304.578125 178.769531 L 303.53125 178.769531 C 273.882812 178.769531 247.125 198.28125 237.851562 226.714844 C 230.070312 227.679688 224.035156 234.328125 224.035156 242.378906 C 224.035156 248.765625 227.796875 254.277344 233.304688 256.726562 C 227.882812 259.175781 224.035156 264.6875 224.035156 271.074219 C 224.035156 277.199219 227.535156 282.449219 232.605469 285.074219 C 197.363281 308.785156 176.375 348.15625 176.375 390.59375 C 176.460938 460.675781 233.480469 517.722656 303.53125 517.722656 "/>
</g>
</g>
</svg>
