<svg width="88" height="24" viewBox="0 0 88 24" fill="none" xmlns="http://www.w3.org/2000/svg">
<path d="M32.6692 14.2177C35.0101 14.2177 36.9522 13.4365 38.2787 11.9522C39.5272 10.5634 40.1341 8.62781 40.0127 6.45783C40.0041 6.31896 39.8914 6.2148 39.7526 6.2148H32.4524C32.3137 6.2148 32.1923 6.32764 32.1923 6.47519V8.35873C32.1923 8.49761 32.305 8.61913 32.4524 8.61913H35.8338L35.6517 9.0184C35.1662 10.086 34.0997 10.7023 32.7299 10.7023C30.675 10.7023 29.2965 9.26144 29.2965 7.11751C29.2965 4.99093 30.649 3.55875 32.6692 3.55875C33.6662 3.55875 34.5592 3.92331 35.1315 4.54826C35.2008 4.6177 35.2962 4.65242 35.3916 4.62638L38.8943 3.66291C39.059 3.61951 39.1371 3.42855 39.0417 3.281C37.7932 1.24122 35.4349 0 32.6085 0C28.2301 0 25.2822 2.85568 25.2822 7.10883C25.2822 11.362 28.2474 14.2177 32.6692 14.2177Z" fill="white"/>
<path d="M10.0573 9.36551L10.2654 9.22663C11.5486 8.36732 12.2249 6.98722 12.2249 5.22521C12.2249 2.14385 10.17 0.303711 6.71934 0.303711H0.260103C0.112711 0.303711 0 0.416549 0 0.564107V13.6621C0 13.8009 0.112711 13.9138 0.260103 13.9138H4.04027C4.17899 13.9138 4.30037 13.8009 4.30037 13.6621V10.4331C4.30037 10.2769 4.4391 10.1554 4.59516 10.1814C5.37547 10.2943 7.48231 10.8498 7.59502 13.6794C7.60369 13.8183 7.7164 13.9225 7.84645 13.9225H12.0775C12.2249 13.9225 12.3376 13.8009 12.3376 13.6534C12.1815 10.9973 10.0573 9.36551 10.0573 9.36551ZM5.97371 7.10874H4.55181C4.41309 7.10874 4.2917 6.9959 4.2917 6.85702V3.76699C4.2917 3.62811 4.40442 3.50659 4.55181 3.50659H5.97371C7.18752 3.50659 7.8898 4.16626 7.8898 5.30333C7.8898 6.43171 7.17018 7.10874 5.97371 7.10874Z" fill="white"/>
<path d="M85.5994 5.11253C84.5416 3.99282 82.9897 3.40259 81.1082 3.40259C77.5275 3.40259 75.1172 5.57256 75.1172 8.81016C75.1172 12.0478 77.5101 14.2177 81.0649 14.2177C83.2064 14.2177 84.9318 13.4626 86.0242 12.0998C86.1369 11.961 86.0675 11.744 85.8941 11.6919L83.111 10.928C83.0243 10.902 82.9376 10.928 82.8683 10.9888C82.4608 11.336 81.8625 11.5443 81.2123 11.5443C80.0852 11.5443 79.2962 10.9367 79.0361 9.8691L78.9494 9.52191H86.8305C86.9692 9.52191 87.0906 9.40907 87.0906 9.27019C87.0906 7.56893 86.5791 6.14543 85.5994 5.11253ZM83.0677 7.95953H79.2962C79.1228 7.95953 79.0014 7.79461 79.0534 7.62969L79.0621 7.59497C79.2702 6.88322 79.7297 6.38847 80.3626 6.17147C80.614 6.08467 80.8915 6.03259 81.1949 6.03259C81.2643 6.03259 81.325 6.03259 81.3857 6.04127C82.3307 6.10203 83.007 6.64886 83.3018 7.58629L83.3104 7.62101C83.3625 7.79461 83.2411 7.95953 83.0677 7.95953Z" fill="white"/>
<path d="M60.4303 3.40259C59.043 3.40259 57.8899 3.86262 57.0749 4.73061L57.0489 4.75665C56.9189 4.89553 56.6934 4.85213 56.6241 4.67853L56.2946 3.84526C56.2599 3.74978 56.1646 3.68034 56.0605 3.68034H53.6849C53.5462 3.68034 53.4248 3.79318 53.4248 3.94074V13.6622C53.4248 13.8011 53.5375 13.9139 53.6849 13.9139H57.2223C57.361 13.9139 57.4824 13.8011 57.4824 13.6622V8.4022C57.4824 7.2391 58.0807 6.54471 59.0777 6.54471C60.0574 6.54471 60.6123 7.20438 60.6123 8.34144V13.6535C60.6123 13.7924 60.725 13.9053 60.8724 13.9053H64.4098C64.5486 13.9053 64.6699 13.7924 64.6699 13.6535V7.77725C64.6613 5.03441 63.0833 3.40259 60.4303 3.40259Z" fill="white"/>
<path d="M73.7828 10.711H73.2886C72.0487 10.711 71.4505 10.1382 71.4505 8.94901V6.9266C71.4505 6.78772 71.5632 6.6662 71.7106 6.6662H73.6701C73.8088 6.6662 73.9302 6.55336 73.9302 6.40581V3.94072C73.9302 3.80184 73.8174 3.68032 73.6701 3.68032H71.4592V0.555563C71.4592 0.416684 71.3465 0.295166 71.2077 0.295166H68.6241C68.5027 0.295166 68.39 0.381965 68.3726 0.512163L68.2252 1.9617C68.0171 3.28973 67.5576 3.67164 66.1704 3.67164H65.7542C65.6155 3.67164 65.4941 3.78448 65.4941 3.93204V6.42317C65.4941 6.56204 65.6068 6.68356 65.7542 6.68356H67.1675C67.3062 6.68356 67.4189 6.7964 67.4189 6.94396V9.88644C67.4189 12.6032 68.8928 13.9139 71.9274 13.9139H73.8001C73.9388 13.9139 74.0602 13.8011 74.0602 13.6622V10.9714C74.0342 10.8239 73.9215 10.711 73.7828 10.711Z" fill="white"/>
<path d="M46.6707 3.40259C43.09 3.40259 40.6797 5.57256 40.6797 8.81016C40.6797 12.0478 43.0726 14.2177 46.6274 14.2177C48.7689 14.2177 50.4943 13.4626 51.5867 12.0998C51.6994 11.961 51.63 11.744 51.4566 11.6919L48.6735 10.928C48.5868 10.902 48.5001 10.928 48.4308 10.9888C48.0233 11.336 47.425 11.5443 46.7748 11.5443C45.6477 11.5443 44.8587 10.9367 44.5986 9.8691L44.5119 9.52191H52.393C52.5317 9.52191 52.6531 9.40907 52.6531 9.27019C52.6444 7.57761 52.1329 6.14543 51.1619 5.11253C50.1041 3.99282 48.5435 3.40259 46.6707 3.40259ZM48.6215 7.95953H44.85C44.6766 7.95953 44.5552 7.79461 44.6073 7.62969L44.6159 7.59497C44.824 6.88322 45.2748 6.38847 45.9164 6.17147C46.1679 6.08467 46.4453 6.03259 46.7488 6.03259C46.8181 6.03259 46.8788 6.03259 46.9395 6.04127C47.8846 6.10203 48.5608 6.64886 48.8556 7.58629L48.8643 7.62101C48.9163 7.79461 48.7949 7.95953 48.6215 7.95953Z" fill="white"/>
<path d="M23.5134 12.0998C23.6262 11.961 23.5568 11.744 23.3834 11.6919L20.6003 10.928C20.5136 10.902 20.4269 10.928 20.3575 10.9888C19.95 11.336 19.3518 11.5443 18.7015 11.5443C17.5744 11.5443 16.7854 10.9367 16.5253 9.8691L16.4386 9.52191H24.3198C24.4585 9.52191 24.5799 9.40907 24.5799 9.27019C24.5712 7.57761 24.0597 6.14543 23.0886 5.11253C22.0309 3.99282 20.4789 3.40259 18.5975 3.40259C15.0167 3.40259 12.6064 5.57256 12.6064 8.81016C12.6064 12.0478 14.9994 14.2177 18.5541 14.2177C20.6957 14.2177 22.421 13.4626 23.5134 12.0998ZM16.534 7.62969L16.5427 7.59497C16.7508 6.88322 17.2103 6.38847 17.8432 6.17147C18.0946 6.08467 18.3721 6.03259 18.6755 6.03259C18.7449 6.03259 18.8056 6.03259 18.8663 6.04127C19.8113 6.10203 20.4876 6.64886 20.7824 7.58629L20.791 7.62101C20.8431 7.78593 20.7217 7.95085 20.5483 7.95085H16.7768C16.612 7.95953 16.4907 7.79461 16.534 7.62969Z" fill="white"/>
<path d="M45.5007 17.3164C45.2579 17.3164 45.0151 17.3858 44.8071 17.5247C41.1916 19.9204 37.2727 21.1356 33.1458 21.1356C31.5158 21.1356 29.8251 20.9446 28.1344 20.5714C23.6433 19.5819 20.5741 17.5594 20.5481 17.5334C20.34 17.3945 20.0973 17.3251 19.8545 17.3251C19.4383 17.3251 19.0482 17.5334 18.8141 17.8806C18.4326 18.4535 18.58 19.2347 19.1522 19.6166C19.2909 19.7121 22.5856 21.8994 27.5535 23.0104C29.3829 23.4184 31.2383 23.6267 33.0677 23.6267C37.7669 23.6267 42.18 22.2813 46.1943 19.6253C46.4717 19.443 46.6625 19.1565 46.7318 18.8267C46.8012 18.4969 46.7318 18.167 46.5498 17.8893C46.307 17.5247 45.9168 17.3164 45.5007 17.3164Z" fill="white"/>
</svg>
