<svg xmlns="http://www.w3.org/2000/svg" viewBox="0 0 295.42 274.61"><defs><style>.cls-1{fill:#f2b446;}.cls-2{fill:#6d3b19;}.cls-3{fill:#ce5a28;}.cls-4{fill:#cc6e2e;}.cls-5{opacity:0.22;}.cls-6{fill:#b7632a;}.cls-7{fill:#fff;}</style></defs><g id="Camada_2" data-name="Camada 2"><g id="Layer_1" data-name="Layer 1"><path class="cls-1" d="M247.83,121.8c.08.72.15,1.45.22,2.17L16.75,149.63q-.15-1.08-.27-2.16A116.38,116.38,0,1,1,247.83,121.8Z"/><path class="cls-2" d="M101.58,111.9l57-6.51a6.75,6.75,0,0,1,5.94,11.06c-4.47,5.19-13.62,10.53-32.11,12.64s-28.6-1-34.13-5.08A6.75,6.75,0,0,1,101.58,111.9Z"/><ellipse class="cls-3" cx="132.01" cy="124.96" rx="17.34" ry="5.73" transform="translate(-13.32 15.78) rotate(-6.51)"/><path class="cls-4" d="M132.76,132.1c-16.39,1.87-28.59,0-36.26-5.64a9.63,9.63,0,0,1-3.63-10.32,9.76,9.76,0,0,1,8.36-7.25l57-6.51a9.76,9.76,0,0,1,9.79,5.18,9.65,9.65,0,0,1-1.22,10.87C160.61,125.63,149.15,130.23,132.76,132.1Zm-30.84-17.19a3.68,3.68,0,0,0-3.2,2.78,3.57,3.57,0,0,0,1.35,3.88c4.4,3.22,13.53,6.62,32,4.51s26.6-7.47,30.16-11.6a3.59,3.59,0,0,0,.45-4.09,3.69,3.69,0,0,0-3.75-2Z"/><path class="cls-2" d="M101.58,111.9l57-6.51a6.75,6.75,0,0,1,5.94,11.06c-4.47,5.19-13.62,10.53-32.11,12.64s-28.6-1-34.13-5.08A6.75,6.75,0,0,1,101.58,111.9Z"/><ellipse class="cls-3" cx="132.01" cy="124.96" rx="17.34" ry="5.73" transform="translate(-13.32 15.78) rotate(-6.51)"/><path class="cls-4" d="M132.76,132.1c-16.39,1.87-28.59,0-36.26-5.64a9.63,9.63,0,0,1-3.63-10.32,9.76,9.76,0,0,1,8.36-7.25l57-6.51a9.76,9.76,0,0,1,9.79,5.18,9.65,9.65,0,0,1-1.22,10.87C160.61,125.63,149.15,130.23,132.76,132.1Zm-30.84-17.19a3.68,3.68,0,0,0-3.2,2.78,3.57,3.57,0,0,0,1.35,3.88c4.4,3.22,13.53,6.62,32,4.51s26.6-7.47,30.16-11.6a3.59,3.59,0,0,0,.45-4.09,3.69,3.69,0,0,0-3.75-2Z"/><ellipse class="cls-5" cx="147.08" cy="264.13" rx="117.56" ry="10.49"/><circle class="cls-1" cx="15.75" cy="231.94" r="15.52"/><path class="cls-6" d="M30.14,238.43,0,231l18.7-76.08c.62-2.52,3.48-4,6.35-3.29L40.18,175c2.88.7,4.72,3.34,4.1,5.86Z"/><circle class="cls-1" cx="279.9" cy="110.76" r="15.52"/><path class="cls-6" d="M293.74,118.34,269.69,98.73l-54.43,66.75a5.31,5.31,0,0,0,.89,7.42l29-3.46a5.29,5.29,0,0,0,7.44-.62Z"/><rect class="cls-1" x="72.21" y="208.5" width="31.04" height="59.1" rx="12.19"/><rect class="cls-1" x="189.05" y="195.48" width="31.04" height="59.1" rx="12.19" transform="translate(-58.04 71.66) rotate(-17.44)"/><path class="cls-4" d="M248.07,124l3.22,29a70.07,70.07,0,0,1-.86,21.14,69.75,69.75,0,0,1-60.84,56L97,240.35a71,71,0,0,1-13.1.23,69.76,69.76,0,0,1-62.72-54.27,71.15,71.15,0,0,1-1.28-7.66l-3.21-29Z"/><path class="cls-1" d="M44.36,27.28s36.73-5.4,42,8l14.07-2.89S92.2,12.34,44.36,27.28Z"/><path class="cls-1" d="M67.12,1S99.23,19.65,95,33.37l12.8,6.5S113.85,19.1,67.12,1Z"/><path class="cls-1" d="M95,0s13.29,22.54,6,29.51l5.63,8.41S117.42,27.25,95,0Z"/><path class="cls-6" d="M251.72,161l-30.87-15.9L194,167.43l-30.93-15.92-26.75,22.32-31-16L78.62,180.24l-31-16-26.4,22a71.15,71.15,0,0,1-1.28-7.66l-.32-2.89,26.8-22.32,31,15.92L104.16,147l31,15.89,26.72-22.29,31,15.91,26.81-22.33,31,15.92.31-.26Z"/><path class="cls-6" d="M222.48,159.77,195.66,182.1l-31-15.92L138,188.48,107,172.58,80.25,194.91,49.25,179,25.34,198.91a69.72,69.72,0,0,0,4.3,8.28l20.82-17.37,31,16,26.75-22.36,31,16,26.74-22.32L196.87,193l26.81-22.38L248,183.14a70,70,0,0,0,2.41-9Z"/><circle class="cls-7" cx="106.12" cy="83.96" r="20.45"/><circle class="cls-2" cx="106.66" cy="82.79" r="9.24"/><circle class="cls-7" cx="147.08" cy="79.41" r="20.45"/><circle class="cls-2" cx="147.62" cy="78.25" r="9.24"/><circle class="cls-4" cx="69.57" cy="105.78" r="6.18"/><circle class="cls-4" cx="187.55" cy="92.69" r="6.18"/><path class="cls-2" d="M131.87,119.21a5.06,5.06,0,0,0-3.79,5.62s3.54-5.38,7.91-5.88.27-4.92.27-4.92Z"/></g></g></svg>