<svg xmlns="http://www.w3.org/2000/svg" viewBox="0 0 235.11 274.61"><defs><style>.cls-1{opacity:0.22;}.cls-2{fill:#f2b446;}.cls-3{fill:#b7632a;}.cls-4{fill:#cc6e2e;}.cls-5{fill:#6d3b19;}.cls-6{fill:#fff;}</style></defs><g id="Camada_2" data-name="Camada 2"><g id="Layer_1" data-name="Layer 1"><ellipse class="cls-1" cx="117.56" cy="264.13" rx="117.56" ry="10.49"/><path class="cls-2" d="M233.94,140c0,.73,0,1.45,0,2.18H1.2c0-.73,0-1.45,0-2.18a116.38,116.38,0,0,1,232.76,0Z"/><circle class="cls-2" cx="16.69" cy="238.12" r="15.52"/><path class="cls-3" d="M32.21,241h-31V162.65c0-2.59,2.42-4.72,5.38-4.72L26.83,177c3,0,5.38,2.13,5.38,4.72Z"/><circle class="cls-2" cx="218.42" cy="239.77" r="15.52"/><path class="cls-3" d="M202.9,242.64h31V156.51a5.3,5.3,0,0,0-5.38-5.18l-20.28,21a5.3,5.3,0,0,0-5.38,5.18Z"/><rect class="cls-2" x="54.33" y="208.5" width="31.04" height="59.1" rx="12.19"/><rect class="cls-2" x="152.39" y="208.5" width="31.04" height="59.1" rx="12.19"/><path class="cls-4" d="M233.94,142.17v29.19a70.1,70.1,0,0,1-.45,8,69.36,69.36,0,0,1-2.74,12.94,69.76,69.76,0,0,1-66.64,48.91H71A69.75,69.75,0,0,1,7.67,200.8a68.24,68.24,0,0,1-3.37-8.71,69.6,69.6,0,0,1-3.12-20.73V142.17Z"/><path class="cls-2" d="M42.14,23.61S79.24,22.29,83,36.16l14.3-1.33S91.33,14,42.14,23.61Z"/><path class="cls-2" d="M67.65,0S97.51,22.07,91.79,35.25l12,7.87S112.11,23.14,67.65,0Z"/><path class="cls-2" d="M95.42,2.07s10.73,23.87,2.67,30l4.67,9S114.75,31.63,95.42,2.07Z"/><path class="cls-3" d="M233.49,179.34l-28.93-19.21-29.12,19.28-29-19.23-29,19.23-29-19.28L59.32,179.41l-29-19.28-28.67,19a71.09,71.09,0,0,1-.42-7.76v-2.91l29.09-19.22,29.05,19.24,29.05-19.24,29,19.21,29-19.21,29.05,19.24,29.12-19.24,29,19.24.34-.23Z"/><path class="cls-3" d="M204.56,174.93l-29.12,19.24-29.05-19.24-29,19.22-29-19.22L59.32,194.17l-29-19.24-26,17.16a68.24,68.24,0,0,0,3.37,8.71l22.6-15,29.05,19.29,29.05-19.29,29.05,19.29,29-19.24,29,19.24,29.12-19.29L227.37,201a70.27,70.27,0,0,0,3.38-8.7Z"/><path class="cls-5" d="M118.59,129.1a57.61,57.61,0,0,1-12.4-1.38,60.53,60.53,0,0,1-18.93-7.64,3.75,3.75,0,0,1,2.09-6.85,3.7,3.7,0,0,1,2.08.64,54.14,54.14,0,0,0,16.46,6.56,50.22,50.22,0,0,0,10.88,1.23A45.09,45.09,0,0,0,144,113.85a3.77,3.77,0,0,1,2.06-.62,3.74,3.74,0,0,1,2.07,6.86A52.79,52.79,0,0,1,118.59,129.1Z"/><path class="cls-4" d="M146.09,115.87a1.1,1.1,0,0,1,.92.5,1.09,1.09,0,0,1-.31,1.52,50.22,50.22,0,0,1-28.11,8.57,54.51,54.51,0,0,1-11.83-1.32,57.36,57.36,0,0,1-18-7.25,1.1,1.1,0,0,1-.3-1.53,1.09,1.09,0,0,1,.91-.49,1.07,1.07,0,0,1,.61.19,56.08,56.08,0,0,0,17.36,7,53,53,0,0,0,11.45,1.29,47.65,47.65,0,0,0,26.72-8.24,1,1,0,0,1,.6-.19m0-5.28h0a6.49,6.49,0,0,0-3.52,1.06,42.56,42.56,0,0,1-23.8,7.37,48.14,48.14,0,0,1-10.31-1.16,51.5,51.5,0,0,1-15.58-6.2,6.38,6.38,0,0,0-7.09,10.61,62,62,0,0,0,19.82,8,59.84,59.84,0,0,0,13,1.45,55.34,55.34,0,0,0,31-9.45,6.38,6.38,0,0,0-3.52-11.7Z"/><circle class="cls-6" cx="97.27" cy="86.75" r="20.45"/><circle class="cls-5" cx="97.93" cy="85.65" r="9.24"/><circle class="cls-6" cx="138.48" cy="86.75" r="20.45"/><circle class="cls-5" cx="139.14" cy="85.65" r="9.24"/><circle class="cls-4" cx="58.53" cy="104.41" r="6.18"/><circle class="cls-4" cx="177.24" cy="104.41" r="6.18"/></g></g></svg>