<svg xmlns="http://www.w3.org/2000/svg" viewBox="0 0 239.33 258.75"><defs><style>.cls-1{opacity:0.22;}.cls-2{fill:#f2b446;}.cls-3{fill:#cc6e2e;}.cls-4{fill:#b7632a;}.cls-5{fill:#6d3b19;}.cls-6{fill:#ce5a28;}.cls-7{fill:#914e22;}.cls-8{fill:#ed9b5f;}.cls-9{opacity:0.37;}</style></defs><g id="Camada_2" data-name="Camada 2"><g id="Layer_1" data-name="Layer 1"><ellipse class="cls-1" cx="121.77" cy="248.26" rx="117.56" ry="10.49"/><path class="cls-2" d="M238.67,140.36c0,.72,0,1.45,0,2.18H5.93c0-.73,0-1.46,0-2.18a116.38,116.38,0,0,1,232.76,0Z"/><path class="cls-3" d="M238.67,142.54v29.19c0,.44,0,.89,0,1.33,0,1.95-.14,3.89-.34,5.8l-.09.85a68.59,68.59,0,0,1-2.05,10.59c-.21.79-.44,1.58-.69,2.35-.42,1.34-.88,2.67-1.38,4-.61,1.61-1.28,3.18-2,4.73a69.76,69.76,0,0,1-63.25,40.21H75.73a69.8,69.8,0,0,1-69.4-62.07l-.06-.63c-.2-2-.32-3.93-.34-5.92,0-.4,0-.81,0-1.21V142.54Z"/><path class="cls-2" d="M47.69,23.61S84.8,22.29,88.53,36.16l14.3-1.33S96.89,14,47.69,23.61Z"/><path class="cls-2" d="M73.21,0s29.86,22.07,24.14,35.25l12,7.87S117.66,23.14,73.21,0Z"/><path class="cls-2" d="M101,2.07s10.73,23.87,2.67,30l4.66,9S120.31,31.63,101,2.07Z"/><path class="cls-4" d="M238.23,179.7l-28.94-19.2-29.11,19.28-29-19.24-29,19.24L93.1,160.5l-29,19.28L35,160.5l-28.67,19a71.09,71.09,0,0,1-.43-7.76v-2.91L35,149.6l29,19.23L93.1,149.6l29,19.21,29-19.21,29.05,19.23,29.11-19.23,29.05,19.23.34-.22Z"/><path class="cls-4" d="M209.29,175.3l-29.11,19.24L151.13,175.3l-29,19.21-29-19.21-29,19.24L35,175.3,9,192.46a70.93,70.93,0,0,0,3.36,8.71L35,186.2l29,19.28L93.1,186.2l29.05,19.28,29-19.23,29,19.23,29.11-19.28,22.81,15.14a68.63,68.63,0,0,0,3.39-8.69Z"/><circle class="cls-2" cx="73.39" cy="232.48" r="20.59"/><circle class="cls-2" cx="172.11" cy="232.48" r="20.59"/><path class="cls-3" d="M32.2,26.81H0L20.63,6.18H7.36a3,3,0,1,1,0-6.09h28L14.71,20.71H32.2a3,3,0,0,1,0,6.1Z"/><path class="cls-3" d="M16.69,47.58H.11L10.73,37H3.9a1.57,1.57,0,0,1,0-3.14H18.31L7.68,44.44h9a1.57,1.57,0,0,1,0,3.14Z"/><path class="cls-3" d="M19.59,65.17H9.65L16,58.81H11.92a.94.94,0,1,1,0-1.88h8.64l-6.37,6.36h5.4a.94.94,0,0,1,0,1.88Z"/><circle class="cls-3" cx="63.27" cy="96.5" r="6.18"/><circle class="cls-3" cx="181.97" cy="96.5" r="6.18"/><path class="cls-5" d="M142.42,80.83c-5.52,0-11.7-2-17.81-8.09a2,2,0,0,1,2.79-2.81c15.49,15.39,31.06.62,31.72,0a2,2,0,0,1,2.76,2.85C161.75,72.88,153.38,80.83,142.42,80.83Z"/><path class="cls-5" d="M100,80.71c-5.52,0-11.7-2-17.81-8.09A2,2,0,1,1,85,69.81c15.49,15.39,31.06.62,31.72,0a2,2,0,0,1,2.76,2.84C119.34,72.75,111,80.71,100,80.71Z"/><ellipse class="cls-5" cx="122.38" cy="100.5" rx="21.54" ry="11.45"/><ellipse class="cls-6" cx="122.38" cy="106.23" rx="17.34" ry="5.73"/><path class="cls-3" d="M122.38,113.93c-13.19,0-23.52-5.89-23.52-13.43s10.33-13.43,23.52-13.43,23.53,5.9,23.53,13.43S135.57,113.93,122.38,113.93Zm0-22.9c-11.7,0-19.56,4.9-19.56,9.47s7.86,9.47,19.56,9.47,19.56-4.89,19.56-9.47S134.08,91,122.38,91Z"/><path class="cls-5" d="M122.89,100.5a5.07,5.07,0,0,0-4.4,5.16s4.14-5,8.53-5,.83-4.85.83-4.85Z"/><ellipse class="cls-7" cx="104.27" cy="114.79" rx="8.52" ry="7.13" transform="translate(-43.43 67.52) rotate(-30)"/><ellipse class="cls-8" cx="104.76" cy="115.28" rx="7.17" ry="6" transform="translate(-43.6 67.83) rotate(-30)"/><ellipse class="cls-7" cx="139.72" cy="114.79" rx="7.13" ry="8.52" transform="translate(-29.55 178.4) rotate(-60)"/><ellipse class="cls-8" cx="139.44" cy="115.28" rx="6" ry="7.17" transform="matrix(0.5, -0.87, 0.87, 0.5, -30.12, 178.4)"/><path class="cls-7" d="M140.82,143.2,122.38,135l-18.44,8.19s-5.67,8.44-5.67,25.87,5.19,21.79,24.11,21.79,24.12-4.36,24.12-21.79S140.82,143.2,140.82,143.2Z"/><ellipse class="cls-7" cx="122.38" cy="131.09" rx="27.02" ry="20.46"/><ellipse class="cls-8" cx="122.38" cy="140.25" rx="13.91" ry="10.53"/><circle class="cls-8" cx="108.48" cy="125.72" r="3.43"/><circle class="cls-8" cx="136.29" cy="125.72" r="3.43"/><circle class="cls-7" cx="105.04" cy="183.59" r="9.9"/><circle class="cls-7" cx="139.72" cy="183.59" r="9.9"/><circle class="cls-8" cx="105.04" cy="183.59" r="7.64"/><circle class="cls-8" cx="139.72" cy="183.59" r="7.64"/><path class="cls-7" d="M122.38,132.63s-6-.19-6,3.7,6,5.48,6,5.48,6-1.59,6-5.48S122.38,132.63,122.38,132.63Z"/><path class="cls-9" d="M238.67,147.82v23.91c0,.44,0,.89,0,1.33,0,1.95-.14,3.89-.34,5.8h-96a15.34,15.34,0,0,1-9-5.42,15.92,15.92,0,0,1-3.63-10.1,15.49,15.49,0,0,1,8.69-13.93,15.13,15.13,0,0,1,4-1.32v-.27Z"/><path class="cls-9" d="M114.92,163.34a15.92,15.92,0,0,1-3.63,10.1,15.34,15.34,0,0,1-9,5.42h-96c-.2-2-.32-3.93-.34-5.92,0-.4,0-.81,0-1.21v-7.8a3.44,3.44,0,0,0,.45-2,69.79,69.79,0,0,1-.45-8v-6.15h96.36v.27a15.13,15.13,0,0,1,4,1.32A15.49,15.49,0,0,1,114.92,163.34Z"/><circle class="cls-2" cx="141.22" cy="157.54" r="15.52"/><path class="cls-3" d="M238.68,148.54v23.19c0,.44,0,.89,0,1.33H138.35V142H238.67Z"/><path class="cls-2" d="M106.23,142.54c-8.57,0-18.38,6.43-18.38,15a15.52,15.52,0,1,0,31,0C118.88,149,114.8,142.54,106.23,142.54Z"/><path class="cls-3" d="M106.23,142.54v30.52H11.61c-.54,0-3,0-5.68-.12,0-.4,0-.81,0-1.21V142.54Z"/></g></g></svg>