<?xml version="1.0" encoding="UTF-8"?>
<svg xmlns="http://www.w3.org/2000/svg" xmlns:xlink="http://www.w3.org/1999/xlink" width="595.5pt" height="842.249979pt" viewBox="0 0 595.5 842.249979" version="1.2">
<defs>
<clipPath id="clip1">
  <path d="M 75.777344 490.527344 L 519.753906 490.527344 L 519.753906 594.234375 L 75.777344 594.234375 Z M 75.777344 490.527344 "/>
</clipPath>
<clipPath id="clip2">
  <path d="M 354 565 L 483 565 L 483 669.140625 L 354 669.140625 Z M 354 565 "/>
</clipPath>
</defs>
<g id="surface1">
<g clip-path="url(#clip1)" clip-rule="nonzero">
<path style=" stroke:none;fill-rule:nonzero;fill:rgb(100%,63.919067%,7.449341%);fill-opacity:1;" d="M 519.800781 555.90625 C 519.800781 577.066406 420.402344 594.210938 297.792969 594.210938 C 175.175781 594.210938 75.777344 577.066406 75.777344 555.90625 C 75.777344 534.75 174.753906 490.695312 297.371094 490.695312 C 419.980469 490.695312 519.800781 534.75 519.800781 555.90625 "/>
</g>
<path style="fill:none;stroke-width:20;stroke-linecap:round;stroke-linejoin:miter;stroke:rgb(75.289917%,49.01886%,38.819885%);stroke-opacity:1;stroke-miterlimit:10;" d="M 2223.084018 892.351516 C 2223.084018 892.351516 2386.66668 899.575961 2446.680345 806.923775 " transform="matrix(0.148339,0,0,-0.148152,75.777679,669.140736)"/>
<path style="fill:none;stroke-width:20;stroke-linecap:round;stroke-linejoin:miter;stroke:rgb(75.289917%,49.01886%,38.819885%);stroke-opacity:1;stroke-miterlimit:10;" d="M 2279.253016 928.948339 C 2279.253016 928.948339 2437.042346 972.74324 2516.279343 895.884639 " transform="matrix(0.148339,0,0,-0.148152,75.777679,669.140736)"/>
<path style="fill:none;stroke-width:20;stroke-linecap:round;stroke-linejoin:miter;stroke:rgb(75.289917%,49.01886%,38.819885%);stroke-opacity:1;stroke-miterlimit:10;" d="M 721.452057 892.351516 C 721.452057 892.351516 557.843061 899.575961 497.85573 806.923775 " transform="matrix(0.148339,0,0,-0.148152,75.777679,669.140736)"/>
<path style="fill:none;stroke-width:20;stroke-linecap:round;stroke-linejoin:miter;stroke:rgb(75.289917%,49.01886%,38.819885%);stroke-opacity:1;stroke-miterlimit:10;" d="M 665.309392 928.948339 C 665.309392 928.948339 507.546396 972.74324 428.230398 895.884639 " transform="matrix(0.148339,0,0,-0.148152,75.777679,669.140736)"/>
<path style=" stroke:none;fill-rule:nonzero;fill:rgb(100%,63.919067%,7.449341%);fill-opacity:1;" d="M 478.066406 357.308594 L 465.875 322.914062 C 458.933594 303.347656 448.570312 285.175781 435.265625 269.226562 L 428 260.523438 C 418.53125 249.167969 405.785156 241.0625 391.554688 237.257812 C 388.042969 236.320312 384.578125 235.1875 381.179688 233.890625 L 359.164062 225.488281 C 345.476562 220.269531 330.617188 218.890625 316.203125 221.507812 L 290.515625 226.171875 L 264.824219 221.507812 C 250.410156 218.890625 235.554688 220.269531 221.863281 225.488281 L 199.847656 233.890625 C 196.449219 235.1875 192.988281 236.320312 189.472656 237.257812 C 175.238281 241.0625 162.496094 249.167969 153.023438 260.523438 L 145.757812 269.226562 C 132.453125 285.175781 122.09375 303.347656 115.15625 322.914062 L 102.960938 357.308594 C 94.742188 380.480469 104.308594 406.203125 125.679688 418.398438 L 134.324219 423.335938 L 290.515625 479.660156 L 446.707031 423.335938 L 455.351562 418.398438 C 476.714844 406.203125 486.28125 380.480469 478.066406 357.308594 "/>
<path style=" stroke:none;fill-rule:nonzero;fill:rgb(47.44873%,27.839661%,24.708557%);fill-opacity:1;" d="M 117.316406 454.855469 C 117.316406 454.855469 150.921875 572.054688 241.703125 545.746094 C 332.492188 519.429688 229.773438 477.496094 173.367188 460.164062 C 116.96875 442.832031 117.316406 454.855469 117.316406 454.855469 "/>
<path style=" stroke:none;fill-rule:nonzero;fill:rgb(47.44873%,27.839661%,24.708557%);fill-opacity:1;" d="M 460.601562 451.125 C 447.585938 500.957031 426.503906 569.558594 337.15625 552.242188 C 247.804688 534.929688 460.601562 451.125 460.601562 451.125 "/>
<path style=" stroke:none;fill-rule:nonzero;fill:rgb(78.42865%,34.899902%,70.588684%);fill-opacity:1;" d="M 386.679688 396.898438 L 344.734375 424.542969 C 315.691406 443.675781 289.925781 467.339844 268.398438 494.632812 L 214.71875 562.683594 C 214.382812 563.515625 210.226562 574.449219 217.117188 584.378906 C 224.453125 594.945312 237.242188 594.230469 237.824219 594.1875 C 254.097656 588.945312 270.367188 583.695312 286.632812 578.453125 C 325.3125 565.980469 361.214844 546.167969 392.363281 520.089844 L 436.9375 482.78125 C 450.894531 471.097656 460.78125 455.296875 465.179688 437.644531 C 469.789062 419.117188 460.402344 399.949219 442.921875 392.21875 C 424.597656 384.109375 403.410156 385.875 386.679688 396.898438 "/>
<path style=" stroke:none;fill-rule:nonzero;fill:rgb(18.429565%,25.878906%,32.548523%);fill-opacity:1;" d="M 370.773438 253.253906 C 384.878906 307.417969 334.355469 334.5 289.425781 334.5 C 244.5 334.5 198.3125 320.421875 208.078125 253.253906 C 214.53125 208.851562 244.5 172.007812 289.425781 172.007812 C 334.355469 172.007812 359.46875 209.828125 370.773438 253.253906 "/>
<path style=" stroke:none;fill-rule:nonzero;fill:rgb(18.429565%,25.878906%,32.548523%);fill-opacity:1;" d="M 211.699219 422.148438 C 211.699219 422.148438 160.355469 347.5 169.027344 317.167969 C 177.707031 286.839844 255.800781 276.003906 279.667969 286.839844 C 303.53125 297.667969 353.425781 265.171875 388.128906 293.335938 C 422.84375 321.503906 431.519531 341 425.011719 362.667969 C 418.503906 384.335938 429.566406 474.746094 287.367188 468.539062 C 287.367188 468.539062 217.488281 427.460938 211.699219 422.148438 "/>
<path style="fill:none;stroke-width:20;stroke-linecap:butt;stroke-linejoin:miter;stroke:rgb(75.289917%,49.01886%,38.819885%);stroke-opacity:1;stroke-miterlimit:10;" d="M 916.292385 1667.160038 C 916.292385 1667.160038 570.167061 2171.025514 628.62706 2375.762061 C 687.139725 2580.472241 1213.595711 2653.613153 1374.492373 2580.472241 C 1535.362702 2507.384063 1871.71836 2726.727699 2105.663688 2536.624607 C 2339.688015 2346.495149 2398.174347 2214.899514 2354.303014 2068.644057 C 2310.431682 1922.388599 2385.00768 1312.133946 1426.395372 1354.030453 C 1426.395372 1354.030453 955.318384 1631.30148 916.292385 1667.160038 Z M 916.292385 1667.160038 " transform="matrix(0.148339,0,0,-0.148152,75.777679,669.140736)"/>
<path style=" stroke:none;fill-rule:nonzero;fill:rgb(55.288696%,41.178894%,29.798889%);fill-opacity:1;" d="M 246.042969 237.003906 C 246.042969 242.394531 241.671875 246.757812 236.277344 246.757812 C 230.890625 246.757812 226.515625 242.394531 226.515625 237.003906 C 226.515625 231.621094 230.890625 227.253906 236.277344 227.253906 C 241.671875 227.253906 246.042969 231.621094 246.042969 237.003906 "/>
<path style=" stroke:none;fill-rule:nonzero;fill:rgb(55.288696%,41.178894%,29.798889%);fill-opacity:1;" d="M 356.675781 282.503906 C 356.675781 287.886719 352.308594 292.253906 346.914062 292.253906 C 341.523438 292.253906 337.15625 287.886719 337.15625 282.503906 C 337.15625 277.117188 341.523438 272.753906 346.914062 272.753906 C 352.308594 272.753906 356.675781 277.117188 356.675781 282.503906 "/>
<path style="fill:none;stroke-width:20;stroke-linecap:round;stroke-linejoin:miter;stroke:rgb(75.289917%,49.01886%,38.819885%);stroke-opacity:1;stroke-miterlimit:10;" d="M 1537.495702 2094.456945 C 1537.495702 2094.456945 1508.450037 1988.252333 1411.122039 1958.985422 " transform="matrix(0.148339,0,0,-0.148152,75.777679,669.140736)"/>
<path style="fill:none;stroke-width:20;stroke-linecap:round;stroke-linejoin:miter;stroke:rgb(75.289917%,49.01886%,38.819885%);stroke-opacity:1;stroke-miterlimit:10;" d="M 1284.564042 2444.262454 C 1284.564042 2444.262454 1349.133374 2355.090657 1311.055375 2260.909208 " transform="matrix(0.148339,0,0,-0.148152,75.777679,669.140736)"/>
<path style="fill:none;stroke-width:20;stroke-linecap:round;stroke-linejoin:miter;stroke:rgb(75.289917%,49.01886%,38.819885%);stroke-opacity:1;stroke-miterlimit:10;" d="M 1621.920367 2025.90382 C 1621.920367 2025.90382 1517.535036 1990.862626 1493.835037 1892.093391 " transform="matrix(0.148339,0,0,-0.148152,75.777679,669.140736)"/>
<path style="fill:none;stroke-width:20;stroke-linecap:round;stroke-linejoin:miter;stroke:rgb(75.289917%,49.01886%,38.819885%);stroke-opacity:1;stroke-miterlimit:10;" d="M 1284.564042 2490.64128 C 1284.564042 2490.64128 1175.702045 2474.03033 1135.43838 2380.798079 " transform="matrix(0.148339,0,0,-0.148152,75.777679,669.140736)"/>
<path style="fill:none;stroke-width:20;stroke-linecap:round;stroke-linejoin:miter;stroke:rgb(75.289917%,49.01886%,38.819885%);stroke-opacity:1;stroke-miterlimit:10;" d="M 1240.69271 2492.012342 C 1240.69271 2492.012342 1134.01638 2519.196293 1060.520048 2449.113906 " transform="matrix(0.148339,0,0,-0.148152,75.777679,669.140736)"/>
<path style=" stroke:none;fill-rule:nonzero;fill:rgb(55.288696%,41.178894%,29.798889%);fill-opacity:1;" d="M 242.15625 396.996094 C 242.15625 396.996094 252.933594 394.851562 275.308594 396.851562 C 297.695312 398.855469 290.957031 399.75 275.902344 402.96875 C 260.851562 406.191406 332.042969 422.835938 314.027344 422.308594 C 296.019531 421.785156 284.90625 418.402344 284.90625 418.402344 C 284.90625 418.402344 328.542969 427.363281 314.523438 428.839844 C 300.5 430.3125 280.507812 423.269531 280.507812 423.269531 C 280.507812 423.269531 318.976562 432.542969 309.542969 433.496094 C 300.109375 434.453125 278.398438 430.769531 278.398438 430.769531 C 278.398438 430.769531 317.945312 438.515625 304.101562 439.820312 C 290.261719 441.136719 230.496094 430 222.359375 425.777344 C 208.640625 418.648438 236.703125 397.027344 242.15625 396.996094 "/>
<path style=" stroke:none;fill-rule:nonzero;fill:rgb(100%,63.919067%,7.449341%);fill-opacity:1;" d="M 242.160156 397.007812 C 240.125 397.863281 233.28125 401.042969 229.046875 408.890625 C 224.523438 417.273438 226.0625 425.273438 226.515625 427.316406 C 224.09375 427.042969 221.671875 426.773438 219.25 426.496094 L 204.15625 417.808594 C 188.46875 408.773438 170.308594 404.914062 152.304688 406.800781 L 177.4375 367.003906 C 180.441406 377.667969 190.988281 385.816406 201.824219 388.183594 L 242.160156 397.007812 "/>
<path style=" stroke:none;fill-rule:nonzero;fill:rgb(78.42865%,34.899902%,70.588684%);fill-opacity:1;" d="M 377.289062 566.324219 C 377.421875 569.253906 377.390625 577.289062 372.222656 585.460938 C 366.53125 594.457031 358.246094 597.859375 355.59375 598.824219 C 328.117188 589.824219 300.636719 580.828125 273.160156 571.828125 C 240.121094 561.015625 209.011719 544.964844 181.050781 524.292969 L 140.660156 494.441406 C 125.605469 483.300781 116.8125 465.773438 116.8125 447.230469 C 116.8125 445.925781 116.859375 444.609375 116.949219 443.28125 C 117.574219 433.773438 121.589844 425.152344 127.8125 418.671875 C 134.058594 412.195312 142.523438 407.84375 152.027344 406.824219 C 152.109375 406.824219 152.21875 406.800781 152.304688 406.800781 C 170.308594 404.914062 188.46875 408.773438 204.15625 417.808594 L 219.25 426.496094 L 254.550781 446.820312 C 289.75 467.074219 320.734375 493.9375 345.726562 525.941406 L 377.289062 566.324219 "/>
<path style="fill:none;stroke-width:20;stroke-linecap:round;stroke-linejoin:miter;stroke:rgb(18.429565%,25.878906%,32.548523%);stroke-opacity:1;stroke-miterlimit:10;" d="M 1914.615359 845.128959 C 1992.298691 894.619043 2063.293355 946.613952 2134.20902 1006.070606 L 2397.779347 1226.96987 " transform="matrix(0.148339,0,0,-0.148152,75.777679,669.140736)"/>
<path style="fill:none;stroke-width:20;stroke-linecap:round;stroke-linejoin:miter;stroke:rgb(18.429565%,25.878906%,32.548523%);stroke-opacity:1;stroke-miterlimit:10;" d="M 936.648052 718.569342 C 934.383385 712.953259 906.364719 639.153182 952.816718 572.129319 C 1002.270716 500.807701 1088.486048 505.632787 1092.409714 505.922819 C 1202.114378 541.306779 1311.792708 576.743471 1421.444705 612.127431 C 1428.291372 614.342224 1435.085372 616.583384 1441.879372 618.850911 " transform="matrix(0.148339,0,0,-0.148152,75.777679,669.140736)"/>
<path style="fill:none;stroke-width:20;stroke-linecap:round;stroke-linejoin:miter;stroke:rgb(18.429565%,25.878906%,32.548523%);stroke-opacity:1;stroke-miterlimit:10;" d="M 1160.771046 1552.228086 C 1398.113373 1415.517333 1651.334699 1182.594905 1819.815362 966.573458 L 2032.588689 693.995683 C 2033.484023 674.220743 2033.273356 619.984674 1998.434357 564.825774 C 1960.066691 504.103524 1904.213693 481.138227 1886.33336 474.62568 C 1701.104698 535.374297 1515.849703 596.096546 1330.621041 656.845162 C 1107.893714 729.827875 898.175053 838.16818 709.681057 977.700158 L 679.266058 1000.217223 " transform="matrix(0.148339,0,0,-0.148152,75.777679,669.140736)"/>
<path style=" stroke:none;fill-rule:nonzero;fill:rgb(55.288696%,41.178894%,29.798889%);fill-opacity:1;" d="M 348.644531 270.042969 C 342.976562 301.242188 309.824219 328.246094 278.585938 322.585938 C 247.339844 316.925781 229.851562 280.75 235.519531 249.550781 C 241.1875 218.351562 271.105469 197.644531 302.339844 203.304688 C 333.578125 208.964844 354.3125 238.84375 348.644531 270.042969 "/>
<path style=" stroke:none;fill-rule:nonzero;fill:rgb(18.429565%,25.878906%,32.548523%);fill-opacity:1;" d="M 262.371094 210.316406 C 262.371094 210.316406 321.386719 269.621094 348.25 250.0625 C 375.113281 230.507812 346.914062 189.34375 305.695312 191.507812 C 264.480469 193.675781 262.371094 210.316406 262.371094 210.316406 "/>
<path style="fill:none;stroke-width:20;stroke-linecap:round;stroke-linejoin:miter;stroke:rgb(18.429565%,25.878906%,32.548523%);stroke-opacity:1;stroke-miterlimit:10;" d="M 1390.89804 2786.500751 C 1378.837373 2753.252485 1336.361708 2738.223531 1296.124375 2752.856986 C 1255.887043 2767.516809 1233.082377 2806.354791 1245.19571 2839.550324 " transform="matrix(0.148339,0,0,-0.148152,75.777679,669.140736)"/>
<path style="fill:none;stroke-width:20;stroke-linecap:round;stroke-linejoin:miter;stroke:rgb(18.429565%,25.878906%,32.548523%);stroke-opacity:1;stroke-miterlimit:10;" d="M 1673.560032 2683.565596 C 1661.446699 2650.31733 1619.0237 2635.288376 1578.786368 2649.948198 C 1538.549036 2664.581654 1515.74437 2703.419636 1527.857703 2736.615169 " transform="matrix(0.148339,0,0,-0.148152,75.777679,669.140736)"/>
<path style="fill:none;stroke-width:20;stroke-linecap:round;stroke-linejoin:miter;stroke:rgb(18.429565%,25.878906%,32.548523%);stroke-opacity:1;stroke-miterlimit:10;" d="M 1526.119703 2563.096661 C 1506.211703 2508.491459 1434.032038 2484.629698 1364.854374 2509.862522 C 1295.703042 2535.016246 1255.729043 2599.693483 1275.637043 2654.298685 " transform="matrix(0.148339,0,0,-0.148152,75.777679,669.140736)"/>
<path style="fill:none;stroke-width:20;stroke-linecap:round;stroke-linejoin:miter;stroke:rgb(18.429565%,25.878906%,32.548523%);stroke-opacity:1;stroke-miterlimit:10;" d="M 1441.879372 2721.269815 L 1435.928038 2642.618287 C 1435.322372 2634.471011 1431.398705 2626.930167 1425.026039 2621.762316 L 1406.434706 2606.680629 " transform="matrix(0.148339,0,0,-0.148152,75.777679,669.140736)"/>
<path style=" stroke:none;fill-rule:nonzero;fill:rgb(78.42865%,34.899902%,70.588684%);fill-opacity:1;" d="M 247.292969 265.246094 C 246.183594 266.28125 244.4375 266.21875 243.398438 265.109375 C 242.363281 263.996094 242.421875 262.253906 243.539062 261.21875 C 244.652344 260.175781 246.394531 260.242188 247.433594 261.351562 C 248.46875 262.460938 248.414062 264.203125 247.292969 265.246094 "/>
<path style=" stroke:none;fill-rule:nonzero;fill:rgb(78.42865%,34.899902%,70.588684%);fill-opacity:1;" d="M 249.613281 274.59375 C 248.5 275.632812 246.753906 275.570312 245.71875 274.460938 C 244.675781 273.347656 244.738281 271.605469 245.851562 270.566406 C 246.96875 269.527344 248.714844 269.59375 249.75 270.703125 C 250.789062 271.816406 250.722656 273.5625 249.613281 274.59375 "/>
<path style=" stroke:none;fill-rule:nonzero;fill:rgb(78.42865%,34.899902%,70.588684%);fill-opacity:1;" d="M 316.273438 302 C 315.160156 303.035156 313.414062 302.980469 312.378906 301.863281 C 311.339844 300.75 311.398438 299.007812 312.515625 297.972656 C 313.628906 296.9375 315.375 296.996094 316.410156 298.113281 C 317.449219 299.222656 317.390625 300.964844 316.273438 302 "/>
<path style=" stroke:none;fill-rule:nonzero;fill:rgb(78.42865%,34.899902%,70.588684%);fill-opacity:1;" d="M 326.285156 297.554688 C 325.171875 298.59375 323.429688 298.535156 322.390625 297.417969 C 321.351562 296.304688 321.410156 294.5625 322.53125 293.527344 C 323.640625 292.492188 325.386719 292.550781 326.421875 293.667969 C 327.460938 294.777344 327.402344 296.519531 326.285156 297.554688 "/>
<path style=" stroke:none;fill-rule:nonzero;fill:rgb(78.42865%,34.899902%,70.588684%);fill-opacity:1;" d="M 316.734375 291.515625 C 315.621094 292.550781 313.878906 292.488281 312.839844 291.375 C 311.796875 290.265625 311.863281 288.523438 312.972656 287.488281 C 314.09375 286.445312 315.835938 286.507812 316.875 287.621094 C 317.910156 288.738281 317.847656 290.476562 316.734375 291.515625 "/>
<path style=" stroke:none;fill-rule:nonzero;fill:rgb(78.42865%,34.899902%,70.588684%);fill-opacity:1;" d="M 258.328125 269.777344 C 257.214844 270.820312 255.46875 270.753906 254.433594 269.644531 C 253.390625 268.535156 253.453125 266.792969 254.566406 265.75 C 255.683594 264.714844 257.429688 264.777344 258.464844 265.890625 C 259.503906 267 259.4375 268.746094 258.328125 269.777344 "/>
<path style=" stroke:none;fill-rule:nonzero;fill:rgb(18.429565%,25.878906%,32.548523%);fill-opacity:1;" d="M 355.59375 598.824219 C 355.59375 598.824219 384.59375 620 388.054688 623.796875 L 392.21875 629.710938 C 403.140625 645.207031 420.277344 656.128906 439.910156 660.109375 L 466.34375 667.558594 C 476.257812 669.574219 484.421875 660.34375 480.25 651.851562 L 462.941406 626.410156 C 456.394531 616.8125 441.46875 608.332031 426.460938 602.742188 C 410.867188 600.027344 377.289062 566.324219 377.289062 566.324219 C 377.421875 569.253906 377.390625 577.289062 372.222656 585.460938 C 366.53125 594.457031 358.246094 597.859375 355.59375 598.824219 "/>
<g clip-path="url(#clip2)" clip-rule="nonzero">
<path style="fill:none;stroke-width:17.573999;stroke-linecap:round;stroke-linejoin:round;stroke:rgb(18.429565%,25.878906%,32.548523%);stroke-opacity:1;stroke-miterlimit:10;" d="M 1886.33336 474.62568 C 1886.33336 474.62568 2081.832021 331.692413 2105.163354 306.06409 L 2133.234687 266.145078 C 2206.862685 161.548828 2322.387015 87.827851 2454.738345 60.960299 L 2632.936007 10.679218 C 2699.770005 -2.925941 2754.80667 59.378304 2726.682671 116.699263 L 2609.999674 288.424844 C 2565.865009 353.207548 2465.245345 410.449408 2364.072681 448.179994 C 2258.950017 466.504772 2032.588689 693.995683 2032.588689 693.995683 C 2033.484023 674.220743 2033.273356 619.984674 1998.434357 564.825774 C 1960.066691 504.103524 1904.213693 481.138227 1886.33336 474.62568 Z M 1886.33336 474.62568 " transform="matrix(0.148339,0,0,-0.148152,75.777679,669.140736)"/>
</g>
<path style=" stroke:none;fill-rule:nonzero;fill:rgb(18.429565%,25.878906%,32.548523%);fill-opacity:1;" d="M 237.355469 595.179688 C 237.355469 595.179688 208.347656 616.355469 204.894531 620.148438 L 200.722656 626.066406 C 189.800781 641.5625 172.671875 652.484375 153.035156 656.460938 L 126.601562 663.914062 C 116.691406 665.921875 108.527344 656.695312 112.695312 648.207031 L 130.003906 622.765625 C 136.550781 613.164062 151.476562 604.6875 166.488281 599.097656 C 182.078125 596.382812 214.71875 562.683594 214.71875 562.683594 C 214.585938 565.613281 215.550781 573.644531 220.722656 581.816406 C 226.410156 590.808594 234.703125 594.210938 237.355469 595.179688 "/>
<path style="fill:none;stroke-width:17.573999;stroke-linecap:round;stroke-linejoin:round;stroke:rgb(18.429565%,25.878906%,32.548523%);stroke-opacity:1;stroke-miterlimit:10;" d="M 1089.249714 499.225706 C 1089.249714 499.225706 893.698386 356.292438 870.41972 330.690483 L 842.295721 290.745103 C 768.667723 186.148853 653.196059 112.427876 520.818396 85.613058 L 342.620734 35.279243 C 275.813069 21.726818 220.776404 84.004696 248.87407 141.299289 L 365.557067 313.024869 C 409.691732 377.83394 510.311396 435.049433 611.510393 472.780019 C 716.606724 491.104797 936.648052 718.569342 936.648052 718.569342 C 935.752718 698.794402 942.257051 644.584699 977.122384 589.4258 C 1015.463716 528.729917 1071.369381 505.764619 1089.249714 499.225706 Z M 1089.249714 499.225706 " transform="matrix(0.148339,0,0,-0.148152,75.777679,669.140736)"/>
<path style=" stroke:none;fill-rule:nonzero;fill:rgb(55.288696%,41.178894%,29.798889%);fill-opacity:1;" d="M 382.015625 368.714844 C 382.015625 368.714844 371.238281 366.566406 348.859375 368.570312 C 326.476562 370.574219 333.214844 371.46875 348.261719 374.691406 C 363.316406 377.910156 292.125 394.554688 310.136719 394.027344 C 328.148438 393.507812 339.265625 390.121094 339.265625 390.121094 C 339.265625 390.121094 295.621094 399.082031 309.644531 400.554688 C 323.664062 402.03125 343.664062 394.988281 343.664062 394.988281 C 343.664062 394.988281 305.1875 404.265625 314.625 405.214844 C 324.058594 406.167969 345.769531 402.488281 345.769531 402.488281 C 345.769531 402.488281 306.222656 410.230469 320.066406 411.546875 C 333.910156 412.855469 393.675781 401.71875 401.808594 397.496094 C 415.53125 390.363281 387.46875 368.742188 382.015625 368.714844 "/>
<path style=" stroke:none;fill-rule:nonzero;fill:rgb(100%,63.919067%,7.449341%);fill-opacity:1;" d="M 382.011719 368.726562 C 384.042969 369.582031 390.886719 372.761719 395.117188 380.609375 C 399.640625 388.992188 398.105469 396.992188 397.648438 399.035156 C 397.679688 399.035156 397.703125 399.027344 397.722656 399.027344 C 402.480469 398.488281 407.296875 398.808594 411.9375 399.976562 C 418.398438 402.808594 426.066406 405.660156 434.855469 408 C 445.484375 410.824219 455.125 412.210938 463.226562 412.847656 C 458.058594 397.09375 460.816406 385.539062 466.046875 379.792969 C 467.042969 378.703125 468.851562 378.207031 471.863281 378.519531 L 444.832031 338.71875 C 444.832031 348.21875 438.214844 356.429688 428.929688 358.464844 C 423.851562 360.046875 418.492188 361.550781 412.871094 362.941406 C 401.902344 365.648438 391.554688 367.488281 382.011719 368.726562 "/>
</g>
</svg>
