<svg xmlns="http://www.w3.org/2000/svg" viewBox="0 0 235.11 251"><defs><style>.cls-1{opacity:0.22;}.cls-2{fill:#59a3df;}.cls-3{fill:#1c60a3;}.cls-4{fill:#2a73c7;}.cls-5{fill:#28383d;}.cls-6{fill:#2083c6;}.cls-7{fill:#fff;}</style></defs><g id="Camada_2" data-name="Camada 2"><g id="Layer_1" data-name="Layer 1"><ellipse class="cls-1" cx="117.56" cy="240.52" rx="117.56" ry="10.49"/><circle class="cls-2" cx="16.69" cy="214.51" r="15.52"/><path class="cls-3" d="M32.21,217.38h-31V139c0-2.59,2.42-4.72,5.38-4.72l20.28,19.11c3,0,5.38,2.12,5.38,4.71Z"/><circle class="cls-2" cx="218.42" cy="216.17" r="15.52"/><path class="cls-3" d="M202.9,219h31V132.91a5.3,5.3,0,0,0-5.38-5.19l-20.28,21a5.3,5.3,0,0,0-5.38,5.18Z"/><path class="cls-2" d="M233.94,116.38c0,.73,0,1.45,0,2.18H1.2c0-.73,0-1.45,0-2.18a116.38,116.38,0,0,1,232.76,0Z"/><rect class="cls-2" x="54.33" y="184.89" width="31.04" height="59.1" rx="12.19"/><rect class="cls-2" x="152.39" y="184.89" width="31.04" height="59.1" rx="12.19"/><path class="cls-4" d="M233.94,118.56v29.19c0,.95,0,1.9-.06,2.84v.08a69.17,69.17,0,0,1-1,9.51,70,70,0,0,1-3.07,11.41c-.33.89-.67,1.78-1,2.65-.83,2-1.76,4-2.78,5.95q-.26.5-.54,1a69.73,69.73,0,0,1-61.31,36.4H71a69.75,69.75,0,0,1-61.32-36.4q-.42-.77-.81-1.53a67.8,67.8,0,0,1-2.82-6.19c-.24-.62-.48-1.24-.71-1.87a69.39,69.39,0,0,1-4.11-21,1.21,1.21,0,0,1,0-.19c0-.88-.05-1.76-.05-2.65V118.56Z"/><path class="cls-5" d="M118.59,105.49a57.61,57.61,0,0,1-12.4-1.38,60.26,60.26,0,0,1-18.93-7.64,3.74,3.74,0,0,1-1-5.19,3.74,3.74,0,0,1,5.18-1,54.14,54.14,0,0,0,16.46,6.56,50.22,50.22,0,0,0,10.88,1.23A45.15,45.15,0,0,0,144,90.25a3.74,3.74,0,0,1,4.13,6.23A52.79,52.79,0,0,1,118.59,105.49Z"/><path class="cls-6" d="M146.09,92.26a1.1,1.1,0,0,1,.92.5,1.09,1.09,0,0,1-.31,1.52,50.22,50.22,0,0,1-28.11,8.57,54.51,54.51,0,0,1-11.83-1.32,57.36,57.36,0,0,1-18-7.25,1.1,1.1,0,0,1-.3-1.53,1.11,1.11,0,0,1,.91-.49,1.07,1.07,0,0,1,.61.19,56.08,56.08,0,0,0,17.36,7,53,53,0,0,0,11.45,1.29,47.65,47.65,0,0,0,26.72-8.24,1,1,0,0,1,.6-.19m0-5.27h0A6.4,6.4,0,0,0,142.57,88a42.56,42.56,0,0,1-23.8,7.37,48.14,48.14,0,0,1-10.31-1.16,51.5,51.5,0,0,1-15.58-6.2,6.38,6.38,0,0,0-7.09,10.61,62,62,0,0,0,19.82,8,59.84,59.84,0,0,0,13,1.45,55.34,55.34,0,0,0,31-9.45A6.37,6.37,0,0,0,146.09,87Z"/><circle class="cls-6" cx="58.53" cy="80.8" r="6.18"/><circle class="cls-6" cx="177.24" cy="80.8" r="6.18"/><circle class="cls-7" cx="97.42" cy="63.23" r="20.45"/><circle class="cls-5" cx="98.08" cy="62.13" r="9.24"/><circle class="cls-7" cx="138.63" cy="63.23" r="20.45"/><circle class="cls-5" cx="139.29" cy="62.13" r="9.24"/><path class="cls-2" d="M44,26.21s-19.62,12.06-28.62-6.6C15.36,19.61,14.59,58.15,44,26.21Z"/><path class="cls-2" d="M39.85,26.61S23.4,50.89,3.17,33.94C3.17,33.94,22.49,79.08,39.85,26.61Z"/><path class="cls-2" d="M52.35,20.59S36.8,30.15,29.67,15.35C29.67,15.35,29.06,45.91,52.35,20.59Z"/><path class="cls-2" d="M191.23,26.21s19.62,12.06,28.62-6.6C219.85,19.61,220.62,58.15,191.23,26.21Z"/><path class="cls-2" d="M195.36,26.61S211.81,50.89,232,33.94C232,33.94,212.72,79.08,195.36,26.61Z"/><path class="cls-2" d="M182.86,20.59s15.55,9.56,22.68-5.24C205.54,15.35,206.15,45.91,182.86,20.59Z"/><rect class="cls-3" x="1.17" y="129.59" width="232.77" height="9.59"/><path class="cls-3" d="M233.88,150.59v.08a69.17,69.17,0,0,1-1,9.51H2.27a70.33,70.33,0,0,1-1-9.59Z"/><path class="cls-3" d="M229.77,171.59c-.33.89-.67,1.78-1,2.65-.83,2-1.76,4-2.78,5.95q-.26.5-.54,1H9.68q-.42-.77-.81-1.53a67.8,67.8,0,0,1-2.82-6.19c-.24-.62-.48-1.24-.71-1.87Z"/></g></g></svg>