<svg xmlns="http://www.w3.org/2000/svg" viewBox="0 0 237.42 293.03"><defs><style>.cls-1{opacity:0.22;}.cls-2{fill:#59a3df;}.cls-3{fill:#2a73c7;}.cls-4{fill:#2083c6;}.cls-5{fill:#1c60a3;}.cls-6{fill:#28383d;}.cls-7{fill:#1a6c99;}.cls-8{fill:#914e22;}.cls-9{fill:#ed9b5f;}.cls-10{opacity:0.37;}</style></defs><g id="Camada_2" data-name="Camada 2"><g id="Layer_1" data-name="Layer 1"><ellipse class="cls-1" cx="119.87" cy="282.54" rx="117.56" ry="10.49"/><path class="cls-2" d="M236.25,174.76c0,.72,0,1.45,0,2.18H3.51c0-.73,0-1.46,0-2.18a116.38,116.38,0,0,1,232.76,0Z"/><path class="cls-3" d="M236.25,176.93v29.19c0,.69,0,1.38,0,2.07,0,.26,0,.52,0,.77V209c-.07,1.67-.19,3.33-.38,5s-.39,3.05-.66,4.55A70,70,0,0,1,232.08,230c-.33.89-.67,1.78-1,2.65-.83,2-1.76,4-2.78,5.95q-.26.49-.54,1A69.73,69.73,0,0,1,166.42,276H73.31A69.75,69.75,0,0,1,12,239.55q-.42-.77-.81-1.53a67.8,67.8,0,0,1-2.82-6.19c-.24-.62-.48-1.24-.71-1.87a70,70,0,0,1-3.07-11.41c-.27-1.5-.49-3-.66-4.55s-.31-3.34-.38-5a1.21,1.21,0,0,1,0-.19c0-.2,0-.4,0-.6,0-.68,0-1.36,0-2V176.93Z"/><circle class="cls-4" cx="60.85" cy="131.19" r="6.18"/><circle class="cls-4" cx="179.55" cy="131.19" r="6.18"/><path class="cls-2" d="M46.29,84.59S26.67,96.65,17.67,78C17.67,78,16.91,116.53,46.29,84.59Z"/><path class="cls-2" d="M42.17,85S25.72,109.27,5.49,92.32C5.49,92.32,24.8,137.46,42.17,85Z"/><path class="cls-2" d="M54.66,79S39.12,88.52,32,73.73C32,73.73,31.38,104.28,54.66,79Z"/><path class="cls-2" d="M193.55,84.59S213.17,96.65,222.17,78C222.17,78,222.93,116.53,193.55,84.59Z"/><path class="cls-2" d="M197.67,85s16.45,24.28,36.68,7.33C234.35,92.32,215,137.46,197.67,85Z"/><path class="cls-2" d="M185.18,79s15.54,9.55,22.68-5.24C207.86,73.73,208.46,104.28,185.18,79Z"/><rect class="cls-5" x="3.48" y="187.97" width="232.77" height="9.59"/><path class="cls-5" d="M236.19,209v.08a69.17,69.17,0,0,1-1,9.51H4.58a70.33,70.33,0,0,1-1-9.59Z"/><path class="cls-5" d="M232.08,230.84c-.33.89-.67,1.78-1,2.65-.83,2-1.76,4-2.78,5.95q-.26.5-.54,1H12q-.42-.77-.81-1.53a67.8,67.8,0,0,1-2.82-6.19c-.24-.62-.48-1.24-.71-1.87Z"/><circle class="cls-2" cx="70.51" cy="266.76" r="20.59"/><circle class="cls-2" cx="169.23" cy="266.76" r="20.59"/><path class="cls-6" d="M140.24,115.41c-5.52,0-11.7-2-17.81-8.1a2,2,0,0,1,2.79-2.81c15.44,15.35,31.07.62,31.72,0a2,2,0,0,1,2.76,2.85C159.57,107.45,151.19,115.41,140.24,115.41Z"/><path class="cls-6" d="M97.83,115.28c-5.52,0-11.7-2-17.81-8.09a2,2,0,0,1,2.79-2.81c15.49,15.39,31.06.62,31.72,0a2,2,0,0,1,2.76,2.85C117.16,107.33,108.78,115.28,97.83,115.28Z"/><ellipse class="cls-6" cx="120.2" cy="135.08" rx="21.54" ry="11.45"/><ellipse class="cls-7" cx="120.2" cy="140.8" rx="17.34" ry="5.73"/><path class="cls-6" d="M120.71,135.08a5.06,5.06,0,0,0-4.4,5.15s4.14-4.95,8.53-4.95.83-4.85.83-4.85Z"/><path class="cls-4" d="M120.2,148.51c-13.19,0-23.52-5.9-23.52-13.43S107,121.64,120.2,121.64s23.53,5.9,23.53,13.44S133.39,148.51,120.2,148.51Zm0-22.9c-11.7,0-19.56,4.89-19.56,9.47s7.86,9.47,19.56,9.47,19.56-4.9,19.56-9.47S131.9,125.61,120.2,125.61Z"/><ellipse class="cls-8" cx="101.85" cy="149.93" rx="8.52" ry="7.13" transform="translate(-61.32 71.01) rotate(-30)"/><ellipse class="cls-9" cx="102.34" cy="150.42" rx="7.17" ry="6" transform="translate(-61.5 71.32) rotate(-30)"/><ellipse class="cls-8" cx="137.3" cy="149.93" rx="7.13" ry="8.52" transform="translate(-61.19 193.87) rotate(-60)"/><ellipse class="cls-9" cx="137.02" cy="150.42" rx="6" ry="7.17" transform="translate(-61.76 193.87) rotate(-60)"/><path class="cls-8" d="M138.4,178.34,120,170.15l-18.44,8.19s-5.67,8.45-5.67,25.87S101,226,120,226s24.12-4.36,24.12-21.79S138.4,178.34,138.4,178.34Z"/><ellipse class="cls-8" cx="119.96" cy="166.23" rx="27.02" ry="20.46"/><ellipse class="cls-9" cx="119.96" cy="175.39" rx="13.91" ry="10.53"/><circle class="cls-9" cx="106.06" cy="160.87" r="3.43"/><circle class="cls-9" cx="133.87" cy="160.87" r="3.43"/><circle class="cls-8" cx="102.62" cy="218.74" r="9.9"/><circle class="cls-8" cx="137.3" cy="218.74" r="9.9"/><circle class="cls-9" cx="102.62" cy="218.74" r="7.64"/><circle class="cls-9" cx="137.3" cy="218.74" r="7.64"/><path class="cls-8" d="M120,167.77s-6-.19-6,3.7,6,5.48,6,5.48,6-1.58,6-5.48S120,167.77,120,167.77Z"/><path class="cls-10" d="M236.25,183v23.16c0,.69,0,1.38,0,2.07,0,.26,0,.52,0,.77V209c-.07,1.67-.19,3.33-.38,5H139.89a15.39,15.39,0,0,1-9-5.42,15.9,15.9,0,0,1-3.63-10.1,15.52,15.52,0,0,1,12.65-15.25V183Z"/><path class="cls-10" d="M112.5,198.48a15.9,15.9,0,0,1-3.63,10.1,15.39,15.39,0,0,1-9,5.42H3.92c-.18-1.66-.31-3.34-.38-5a1.21,1.21,0,0,1,0-.19c0-.2,0-.4,0-.6,0-.68,0-1.36,0-2V199.3a4,4,0,0,0,.45-2.22,72.48,72.48,0,0,1-.44-8V183H99.85v.27A15.52,15.52,0,0,1,112.5,198.48Z"/><circle class="cls-2" cx="138.84" cy="192.68" r="15.51"/><path class="cls-5" d="M236.25,177.17v29c0,.69,0,1.38,0,2.07H136v-31Z"/><circle class="cls-2" cx="101.01" cy="192.68" r="15.51"/><path class="cls-5" d="M103.81,177.16v31H4a3.39,3.39,0,0,1-.45,0c0-.68,0-1.36,0-2v-29Z"/><path class="cls-5" d="M32.2,26.72H0L20.63,6.09H7.36A3,3,0,1,1,7.36,0h28L14.71,20.63H32.2a3,3,0,1,1,0,6.09Z"/><path class="cls-5" d="M16.69,47.5H.11L10.73,36.87H3.9a1.57,1.57,0,0,1,0-3.14H18.31L7.68,44.36h9a1.57,1.57,0,0,1,0,3.14Z"/><path class="cls-5" d="M19.59,65.09H9.65L16,58.72H11.92a.94.94,0,0,1,0-1.88h8.64l-6.37,6.37h5.4a.94.94,0,0,1,0,1.88Z"/></g></g></svg>