<?xml version="1.0" encoding="UTF-8"?>
<svg xmlns="http://www.w3.org/2000/svg" xmlns:xlink="http://www.w3.org/1999/xlink" width="595.5pt" height="842.249979pt" viewBox="0 0 595.5 842.249979" version="1.2">
<defs>
<clipPath id="clip1">
  <path d="M 42.636719 292 L 535.644531 292 L 535.644531 718.390625 L 42.636719 718.390625 Z M 42.636719 292 "/>
</clipPath>
<clipPath id="clip2">
  <path d="M 128 146.171875 L 473 146.171875 L 473 718 L 128 718 Z M 128 146.171875 "/>
</clipPath>
</defs>
<g id="surface1">
<g clip-path="url(#clip1)" clip-rule="nonzero">
<path style=" stroke:none;fill-rule:nonzero;fill:rgb(49.409485%,65.098572%,73.728943%);fill-opacity:1;" d="M 432.410156 659.609375 L 441.808594 718.390625 L 174.476562 717.328125 C 174.476562 717.328125 186.0625 656.066406 186.886719 635.359375 C 188.238281 601.292969 179.21875 549.367188 172.433594 498.195312 C 146.828125 523.972656 116.964844 546.667969 96.875 541.960938 C 42.152344 529.144531 36.164062 468.046875 47.28125 448.820312 C 87.992188 378.410156 204.554688 334.152344 204.554688 334.152344 C 214.511719 329.953125 228.257812 325.28125 244.25 321.433594 C 251.3125 314.453125 275.808594 293.425781 315.214844 292.660156 C 344.941406 292.078125 369.445312 312.429688 383.539062 327.613281 C 415.738281 338.128906 442.136719 351.074219 447.664062 353.851562 C 455.113281 356.90625 482.980469 370.234375 504.03125 405.953125 C 516.101562 426.429688 533.613281 487.820312 535.527344 526.15625 C 539.167969 598.882812 456.703125 651.40625 432.410156 659.609375 "/>
</g>
<path style=" stroke:none;fill-rule:nonzero;fill:rgb(86.669922%,48.629761%,24.708557%);fill-opacity:1;" d="M 309.722656 327.214844 C 309.722656 327.214844 301.542969 328.445312 298.699219 330.621094 C 295.859375 332.796875 290.910156 334.554688 290.910156 334.554688 L 293.25 340.492188 L 294.007812 342.421875 L 295.519531 341.980469 L 295.597656 341.984375 L 305.445312 339.074219 L 309.386719 337.925781 L 309.382812 337.914062 L 310.480469 337.589844 L 310.488281 337.605469 L 311.988281 337.164062 L 312.578125 336.96875 L 312.902344 336.863281 Z M 395.726562 544.097656 C 387.046875 533.550781 361.492188 539.847656 341.109375 546.234375 C 329.347656 549.921875 323.363281 555.742188 327.746094 569.09375 C 327.746094 569.09375 317.421875 575.058594 325.585938 585.523438 C 325.585938 585.523438 320.335938 595.613281 332.605469 599.335938 C 332.605469 599.335938 324.921875 613.617188 363.195312 608.390625 C 363.195312 608.390625 401.425781 603.800781 420.515625 597.304688 C 420.515625 597.304688 409.320312 560.625 395.726562 544.097656 Z M 232.992188 348.988281 C 227.257812 348.753906 171.976562 365.792969 171.976562 365.792969 C 136.5625 388.101562 176.257812 439.847656 176.257812 439.847656 L 206.695312 406.476562 C 206.695312 406.476562 209.527344 413.160156 218.65625 411.980469 C 224.25 411.257812 234.097656 405.1875 234.097656 405.1875 C 239.390625 404.957031 244.242188 399.097656 244.242188 399.097656 C 250.199219 397.695312 254.390625 389.96875 254.390625 389.96875 C 254.390625 389.96875 260.121094 397.230469 263.4375 393.246094 C 266.742188 389.265625 266.300781 372.171875 263.4375 366.546875 C 260.566406 360.925781 238.730469 349.222656 232.992188 348.988281 Z M 330.027344 360.296875 L 297.773438 361.03125 C 285.1875 361.316406 275.265625 350.386719 276.773438 337.894531 L 281.117188 303.972656 C 270.40625 299.523438 264.710938 283.453125 263.820312 264.527344 C 263.695312 264.582031 263.578125 264.652344 263.449219 264.699219 C 257.121094 266.9375 253.769531 251.597656 257.328125 244.730469 C 259.335938 240.863281 262.382812 240.839844 264.894531 242.023438 C 265.972656 223.558594 272.511719 211.625 284.582031 204.550781 C 296.730469 197.429688 312.664062 195.65625 324.996094 202.449219 C 337.726562 209.460938 347.597656 223.527344 351.011719 239.902344 C 353.683594 237.734375 359.183594 241.996094 361.785156 247.019531 C 365.34375 253.882812 360.847656 266.9375 354.519531 264.699219 C 354.441406 264.675781 354.375 264.632812 354.300781 264.601562 C 354.71875 283.535156 346.546875 300.378906 338.203125 303.972656 L 344.246094 343.351562 C 345.59375 352.128906 338.914062 360.089844 330.027344 360.296875 "/>
<g clip-path="url(#clip2)" clip-rule="nonzero">
<path style=" stroke:none;fill-rule:nonzero;fill:rgb(16.468811%,13.729858%,17.248535%);fill-opacity:1;" d="M 324.722656 288.644531 C 323.167969 284.886719 319.300781 282.921875 309.492188 282.921875 C 299.6875 282.921875 295.523438 284.386719 292.761719 287.746094 C 290.578125 290.398438 292.761719 300.09375 294.03125 302.339844 C 294.839844 303.769531 297.484375 305.832031 301.140625 307.144531 C 302.421875 303.589844 304.824219 298.164062 307.929688 297.132812 C 311.054688 296.089844 314.417969 302.703125 316.300781 307.214844 C 319.828125 306.195312 322.480469 304.746094 323.222656 303.792969 C 325.070312 301.441406 326.183594 292.160156 324.722656 288.644531 Z M 308.097656 314.980469 C 297.347656 314.980469 288.679688 309.089844 286.769531 305.621094 C 284.863281 302.15625 281.554688 287.207031 284.863281 283.089844 C 288.96875 277.984375 295.269531 275.640625 310.007812 275.640625 C 324.746094 275.640625 330.597656 278.796875 332.898438 284.476562 C 335.109375 289.925781 333.421875 304.238281 330.644531 307.875 C 328.761719 310.339844 318.851562 314.980469 308.097656 314.980469 Z M 427.667969 647.878906 C 427.621094 648.195312 427.835938 648.488281 428.148438 648.53125 C 428.175781 648.535156 428.203125 648.535156 428.234375 648.535156 C 428.511719 648.535156 428.757812 648.335938 428.796875 648.054688 C 432.019531 626.460938 415.386719 567.808594 396.171875 543.746094 C 395.976562 543.496094 395.613281 543.457031 395.367188 543.652344 C 395.121094 543.847656 395.082031 544.210938 395.277344 544.457031 C 414.34375 568.339844 430.859375 626.488281 427.667969 647.878906 Z M 432.203125 659.078125 C 428.507812 660.511719 424.753906 660.28125 421.058594 658.390625 C 403.101562 649.21875 391.175781 604.3125 391.0625 603.863281 C 390.980469 603.554688 390.667969 603.367188 390.363281 603.453125 C 390.054688 603.53125 389.875 603.84375 389.953125 604.148438 C 390.441406 606.015625 402.125 650.007812 420.535156 659.402344 C 422.808594 660.570312 425.109375 661.152344 427.398438 661.152344 C 429.140625 661.152344 430.886719 660.816406 432.621094 660.140625 C 432.910156 660.03125 433.058594 659.695312 432.945312 659.402344 C 432.832031 659.109375 432.496094 658.957031 432.203125 659.078125 Z M 190.039062 457.542969 C 191.273438 458.585938 193.597656 460.175781 196.34375 460.175781 C 196.753906 460.175781 197.179688 460.140625 197.613281 460.058594 C 200.183594 459.582031 202.421875 457.636719 204.253906 454.28125 C 204.40625 454.003906 204.308594 453.65625 204.03125 453.503906 C 203.75 453.351562 203.40625 453.457031 203.253906 453.734375 C 201.589844 456.773438 199.621094 458.523438 197.402344 458.933594 C 194.484375 459.476562 191.796875 457.53125 190.777344 456.667969 C 176.847656 444.878906 163.855469 420.710938 159.351562 404.152344 C 150.738281 372.523438 175.667969 365.230469 176.730469 364.933594 C 177.035156 364.855469 177.214844 364.539062 177.128906 364.234375 C 177.042969 363.929688 176.730469 363.753906 176.425781 363.832031 C 176.152344 363.90625 149.328125 371.707031 158.246094 404.453125 C 162.796875 421.179688 175.933594 445.609375 190.039062 457.542969 Z M 366.703125 571.53125 C 366.601562 571.234375 366.273438 571.074219 365.980469 571.179688 L 324.976562 585.300781 C 324.675781 585.402344 324.519531 585.722656 324.621094 586.027344 C 324.703125 586.265625 324.925781 586.414062 325.164062 586.414062 C 325.226562 586.414062 325.285156 586.398438 325.347656 586.382812 L 366.351562 572.261719 C 366.652344 572.15625 366.808594 571.832031 366.703125 571.53125 Z M 369.148438 587.46875 L 331.742188 598.628906 C 331.4375 598.722656 331.265625 599.042969 331.355469 599.34375 C 331.433594 599.589844 331.660156 599.75 331.90625 599.75 C 331.960938 599.75 332.011719 599.742188 332.070312 599.730469 L 369.476562 588.566406 C 369.78125 588.472656 369.957031 588.15625 369.859375 587.851562 C 369.773438 587.546875 369.453125 587.378906 369.148438 587.46875 Z M 328.386719 569.238281 C 328.453125 569.238281 328.519531 569.226562 328.589844 569.203125 C 328.851562 569.105469 354.933594 559.351562 364.261719 556.070312 C 364.5625 555.96875 364.71875 555.636719 364.613281 555.34375 C 364.507812 555.042969 364.183594 554.886719 363.882812 554.988281 C 354.546875 558.273438 328.449219 568.03125 328.183594 568.132812 C 327.890625 568.242188 327.742188 568.570312 327.851562 568.867188 C 327.941406 569.097656 328.152344 569.238281 328.386719 569.238281 Z M 214.824219 413.960938 C 214.53125 414.070312 214.375 414.394531 214.480469 414.691406 C 216.210938 419.523438 219.722656 432.449219 214.972656 448.011719 C 207.9375 471.042969 172.453125 497.476562 172.09375 497.742188 C 171.839844 497.929688 171.785156 498.289062 171.972656 498.539062 C 172.089844 498.691406 172.257812 498.773438 172.433594 498.773438 C 172.554688 498.773438 172.675781 498.738281 172.773438 498.660156 C 173.136719 498.394531 208.921875 471.738281 216.0625 448.347656 C 220.917969 432.457031 217.328125 419.246094 215.558594 414.304688 C 215.449219 414.007812 215.121094 413.855469 214.824219 413.960938 Z M 183.980469 362.476562 C 184.226562 362.679688 184.582031 362.644531 184.785156 362.402344 C 184.984375 362.160156 184.953125 361.796875 184.707031 361.597656 C 181.769531 359.167969 177.804688 359.589844 174.308594 360.332031 C 150.164062 365.445312 129.167969 386.898438 128.957031 387.113281 C 128.738281 387.339844 128.742188 387.703125 128.96875 387.921875 C 129.082031 388.03125 129.222656 388.082031 129.367188 388.082031 C 129.519531 388.082031 129.667969 388.023438 129.777344 387.910156 C 129.984375 387.695312 150.742188 366.492188 174.542969 361.449219 C 177.773438 360.769531 181.414062 360.355469 183.980469 362.476562 Z M 214.980469 386.515625 C 214.707031 386.34375 214.359375 386.433594 214.195312 386.707031 C 214.035156 386.976562 214.117188 387.328125 214.390625 387.488281 C 214.527344 387.574219 228.253906 395.945312 232.542969 405.8125 C 232.636719 406.023438 232.847656 406.15625 233.070312 406.15625 C 233.144531 406.15625 233.222656 406.136719 233.296875 406.105469 C 233.582031 405.980469 233.71875 405.640625 233.59375 405.351562 C 229.15625 395.152344 215.558594 386.859375 214.980469 386.515625 Z M 253.828125 388.964844 C 253.871094 389.246094 254.113281 389.445312 254.390625 389.445312 C 254.421875 389.445312 254.449219 389.445312 254.480469 389.441406 C 254.792969 389.394531 255.003906 389.097656 254.957031 388.785156 C 254.921875 388.570312 254.105469 383.480469 252.242188 380.164062 C 247.230469 371.246094 238.308594 365.523438 237.933594 365.289062 C 237.660156 365.113281 237.3125 365.195312 237.144531 365.460938 C 236.972656 365.730469 237.054688 366.082031 237.320312 366.253906 C 237.410156 366.308594 246.371094 372.054688 251.242188 380.726562 C 253.003906 383.859375 253.816406 388.914062 253.828125 388.964844 Z M 204.171875 408.050781 C 204.292969 408.050781 204.417969 408.011719 204.523438 407.933594 L 212.867188 401.582031 C 213.117188 401.390625 213.167969 401.035156 212.972656 400.777344 C 212.78125 400.527344 212.421875 400.480469 212.167969 400.671875 L 203.828125 407.023438 C 203.578125 407.214844 203.53125 407.574219 203.71875 407.824219 C 203.832031 407.972656 204.003906 408.050781 204.171875 408.050781 Z M 229.226562 378.382812 C 228.949219 378.230469 228.601562 378.328125 228.449219 378.605469 C 228.296875 378.882812 228.394531 379.226562 228.667969 379.382812 C 228.78125 379.445312 239.683594 385.675781 243.105469 398.234375 C 243.171875 398.492188 243.402344 398.660156 243.652344 398.660156 C 243.703125 398.660156 243.757812 398.652344 243.804688 398.636719 C 244.109375 398.558594 244.289062 398.242188 244.207031 397.9375 C 240.65625 384.898438 229.34375 378.449219 229.226562 378.382812 Z M 305.085938 340.375 C 305.148438 340.375 305.207031 340.367188 305.269531 340.34375 C 305.566406 340.242188 305.730469 339.917969 305.628906 339.621094 L 302.425781 330.074219 C 302.320312 329.777344 301.996094 329.609375 301.699219 329.71875 C 301.402344 329.816406 301.234375 330.140625 301.335938 330.441406 L 304.542969 339.980469 C 304.625 340.222656 304.847656 340.375 305.085938 340.375 Z M 307.058594 328.359375 C 306.753906 328.453125 306.582031 328.769531 306.675781 329.074219 L 309.597656 338.613281 C 309.671875 338.859375 309.902344 339.023438 310.148438 339.023438 C 310.199219 339.023438 310.257812 339.011719 310.3125 338.996094 C 310.617188 338.902344 310.785156 338.582031 310.691406 338.28125 L 307.773438 328.738281 C 307.679688 328.441406 307.359375 328.265625 307.058594 328.359375 Z M 297.980469 331.929688 C 297.683594 332.03125 297.527344 332.363281 297.636719 332.65625 L 300.554688 340.777344 C 300.640625 341.011719 300.859375 341.15625 301.097656 341.15625 C 301.160156 341.15625 301.226562 341.144531 301.289062 341.121094 C 301.589844 341.015625 301.742188 340.6875 301.636719 340.390625 L 298.714844 332.273438 C 298.605469 331.972656 298.277344 331.824219 297.980469 331.929688 Z M 320.261719 466.253906 C 330.46875 435.726562 338.707031 405.105469 343.441406 378.234375 C 344.222656 374.34375 344.925781 370.507812 345.554688 366.742188 C 347.148438 357.160156 347.734375 348.75 347.71875 341.519531 C 347.777344 340.09375 347.820312 338.6875 347.839844 337.308594 C 347.769531 337.328125 347.699219 337.347656 347.632812 337.363281 C 346.957031 318.378906 342.152344 308.695312 342.078125 308.5625 C 341.9375 308.285156 341.585938 308.175781 341.308594 308.316406 C 341.027344 308.460938 340.917969 308.804688 341.058594 309.085938 C 341.132812 309.21875 345.875 318.808594 346.5 337.667969 C 345.503906 337.945312 344.503906 338.226562 343.5 338.480469 C 328.613281 342.242188 313.28125 343.195312 299.054688 341.390625 L 298.578125 341.546875 L 295.421875 334.164062 C 295.296875 333.875 294.960938 333.738281 294.671875 333.859375 C 294.378906 333.984375 294.246094 334.320312 294.371094 334.609375 L 297.488281 341.902344 L 294.222656 342.96875 L 293.25 340.492188 C 287.585938 339.445312 282.136719 337.949219 277.019531 335.984375 C 276.367188 335.734375 275.734375 335.464844 275.089844 335.207031 C 272.933594 322.425781 278.71875 312.078125 278.792969 311.960938 C 278.949219 311.683594 278.855469 311.332031 278.578125 311.175781 C 278.304688 311.019531 277.957031 311.113281 277.800781 311.386719 C 277.722656 311.515625 271.9375 321.824219 273.847656 334.703125 C 273.832031 334.699219 273.808594 334.691406 273.792969 334.683594 C 278.277344 379.886719 295.699219 429.652344 314.734375 481.214844 C 294.09375 552.730469 273.160156 632.574219 280.148438 716.332031 C 280.171875 716.628906 280.425781 716.855469 280.714844 716.855469 C 280.734375 716.855469 280.75 716.855469 280.765625 716.855469 C 281.082031 716.828125 281.3125 716.550781 281.285156 716.234375 C 273.820312 626.675781 298.367188 541.511719 320.261719 466.253906 Z M 243.253906 327.199219 C 242.933594 327.160156 242.652344 327.371094 242.605469 327.683594 C 242.585938 327.824219 241.375 336.566406 241.640625 351.859375 C 242.023438 352.035156 242.402344 352.214844 242.789062 352.394531 C 242.492188 336.867188 243.722656 327.988281 243.738281 327.84375 C 243.785156 327.53125 243.570312 327.246094 243.253906 327.199219 Z M 472.394531 500.820312 C 459.648438 497.585938 445.414062 501.039062 436.179688 506.570312 C 440.667969 491.503906 462.007812 481.914062 462.222656 481.8125 C 462.511719 481.6875 462.644531 481.347656 462.511719 481.0625 C 462.386719 480.773438 462.046875 480.644531 461.761719 480.769531 C 460.839844 481.175781 439.230469 490.890625 434.933594 506.78125 C 434.882812 506.964844 434.929688 507.148438 435.035156 507.285156 C 434.160156 507.851562 433.332031 508.441406 432.566406 509.042969 C 425.238281 514.792969 403.679688 532.773438 403.460938 532.957031 C 403.21875 533.160156 403.1875 533.519531 403.390625 533.761719 C 403.5 533.898438 403.667969 533.96875 403.828125 533.96875 C 403.957031 533.96875 404.085938 533.921875 404.195312 533.835938 C 404.414062 533.65625 425.960938 515.683594 433.273438 509.941406 C 441.617188 503.394531 458.0625 498.355469 472.113281 501.925781 C 472.414062 502.007812 472.730469 501.820312 472.808594 501.515625 C 472.886719 501.207031 472.699219 500.898438 472.394531 500.820312 Z M 388.019531 339.257812 C 387.898438 338.964844 387.570312 338.820312 387.273438 338.945312 C 386.984375 339.0625 386.84375 339.398438 386.960938 339.6875 C 387.128906 340.113281 403.363281 383.75 337.066406 519.070312 C 295.710938 603.472656 303.574219 715.628906 303.660156 716.75 C 303.679688 717.054688 303.9375 717.28125 304.230469 717.28125 C 304.246094 717.28125 304.261719 717.28125 304.277344 717.28125 C 304.589844 717.253906 304.824219 716.984375 304.804688 716.664062 C 304.71875 715.546875 296.875 603.699219 338.09375 519.570312 C 372.875 448.585938 384.609375 403.398438 388.324219 377.992188 C 392.371094 350.359375 388.199219 339.695312 388.019531 339.257812 Z M 432.90625 504.511719 C 432.910156 504.511719 432.914062 504.511719 432.921875 504.511719 C 433.230469 504.511719 433.484375 504.261719 433.492188 503.953125 C 433.511719 503.183594 435.199219 426.648438 435.199219 392.851562 C 435.199219 392.535156 434.945312 392.28125 434.628906 392.28125 C 434.316406 392.28125 434.054688 392.535156 434.054688 392.851562 C 434.054688 426.632812 432.367188 503.15625 432.347656 503.925781 C 432.339844 504.242188 432.589844 504.5 432.90625 504.511719 Z M 298.671875 537.410156 C 298.769531 537.410156 298.875 537.382812 298.964844 537.328125 C 299.234375 537.171875 299.324219 536.820312 299.167969 536.546875 C 266.914062 481.328125 253.097656 432.027344 247.246094 397.820312 C 246.898438 398.03125 246.546875 398.222656 246.179688 398.398438 C 252.089844 432.699219 265.96875 481.976562 298.179688 537.121094 C 298.285156 537.304688 298.476562 537.410156 298.671875 537.410156 Z M 234.921875 249.960938 C 235.5 251.359375 236.886719 252.382812 237.371094 253.886719 C 238.179688 256.414062 237.144531 259.152344 238.089844 261.582031 C 239.507812 265.238281 242.785156 266.554688 244.671875 269.808594 C 246.859375 273.578125 246.09375 276.773438 249.320312 280.046875 C 250.945312 281.703125 253.601562 282.015625 255.265625 283.757812 C 256.457031 285.011719 256.578125 286.550781 257.597656 287.777344 C 260.996094 291.871094 262.367188 291.605469 266.609375 294.0625 C 269.953125 295.996094 271.820312 299.949219 275.152344 301.582031 C 276.21875 302.101562 277.351562 302.371094 278.515625 302.546875 C 270.027344 296.703125 268.070312 281.808594 267.253906 264.527344 C 267.128906 264.582031 267.011719 264.652344 266.882812 264.699219 C 266.410156 264.867188 265.949219 264.941406 265.496094 264.949219 C 259.929688 265.011719 256.328125 253.371094 259.617188 247.019531 C 262.117188 242.195312 266.234375 243.347656 268.921875 245.371094 C 270.945312 240.660156 270.363281 235.105469 272.382812 229.667969 C 273.675781 226.199219 276.242188 225.535156 278.21875 222.890625 C 280.433594 219.925781 278.675781 217.363281 280.476562 214.933594 C 283.238281 211.21875 287.8125 214.214844 290.832031 213.410156 C 295.636719 212.132812 295.921875 207.125 299.5625 205.105469 C 308.484375 200.160156 312.898438 214.480469 320.773438 214.335938 C 325.027344 214.253906 329.136719 211.789062 333.027344 213.144531 C 335.050781 215.167969 336.878906 217.4375 338.53125 219.910156 C 339.328125 222.90625 339.464844 226.238281 340.621094 228.921875 C 341.992188 232.097656 344.386719 233.417969 346.148438 235.9375 C 347.074219 238.746094 347.847656 241.636719 348.496094 244.566406 C 348.507812 244.972656 348.511719 245.378906 348.519531 245.785156 C 351.164062 243.53125 355.683594 241.867188 358.351562 247.019531 C 361.621094 253.324219 358.085938 264.839844 352.589844 264.945312 C 352.105469 264.953125 351.597656 264.882812 351.085938 264.699219 C 351.007812 264.675781 350.941406 264.632812 350.867188 264.601562 C 351.230469 281.179688 347.644531 296.15625 341.144531 302.039062 C 343.054688 301.796875 344.6875 301.65625 346.730469 300.21875 C 348.023438 299.308594 348.511719 297.492188 349.742188 296.542969 C 352.875 294.128906 357.035156 294.027344 360 291.613281 C 362.6875 289.433594 363.191406 285.457031 365.734375 283.066406 C 368.488281 280.472656 371.511719 280.054688 373.449219 276.539062 C 374.554688 274.523438 374.203125 271.851562 375.429688 269.808594 C 376.667969 267.746094 379.179688 266.855469 380.417969 264.898438 C 382.699219 261.289062 381.5 257.734375 382.730469 253.894531 C 384.207031 249.289062 387.28125 248.0625 387.359375 242.945312 C 387.390625 240.9375 386.210938 238.855469 386.433594 236.769531 C 386.773438 233.636719 389.3125 231.21875 389.3125 228.007812 C 389.3125 223.855469 386.65625 220.53125 386.683594 216.175781 C 386.695312 213.949219 387.898438 212.503906 387.40625 210.070312 C 386.894531 207.53125 384.734375 206.359375 383.761719 204.128906 C 382.761719 201.808594 382.914062 199.808594 382.316406 197.484375 C 380.734375 191.355469 378.53125 191.21875 375.429688 186.195312 C 373.277344 182.714844 373.792969 179.113281 370.78125 175.960938 C 368.917969 174.007812 366.042969 173.496094 364.1875 171.316406 C 362.90625 169.808594 362.714844 167.574219 361.425781 166.125 C 358.539062 162.867188 354.796875 163.292969 351.429688 160.992188 C 349.457031 159.644531 348.613281 157.101562 346.730469 155.792969 C 343.832031 153.769531 342.128906 154.351562 338.847656 153.585938 C 334.65625 152.605469 331.980469 149.085938 327.992188 148.1875 C 324.875 147.488281 321.898438 149.375 318.804688 149.003906 C 316.175781 148.691406 314.144531 146.582031 311.527344 146.421875 C 306.890625 146.136719 302.984375 148.753906 298.230469 148.796875 C 291.292969 148.855469 292.136719 149.121094 286.269531 151.980469 C 282.40625 153.855469 277.835938 152.851562 274.265625 155.109375 C 271.941406 156.578125 270.988281 159.460938 268.675781 160.992188 C 267.351562 161.871094 265.628906 161.84375 264.3125 162.589844 C 259.875 165.121094 259.890625 166.441406 256.566406 170.382812 C 254.46875 172.867188 251.429688 173.75 249.324219 175.953125 C 246.238281 179.179688 246.816406 182.625 244.671875 186.195312 C 241.863281 190.882812 239.265625 191.734375 237.785156 197.484375 C 236.699219 201.699219 234.988281 204.128906 233.5625 207.984375 C 231.847656 212.625 233.851562 217.292969 232.78125 222.144531 C 232.300781 224.339844 230.789062 225.484375 230.789062 228.007812 C 230.789062 230.773438 232.882812 232.707031 233.226562 235.316406 C 234.027344 241.386719 232.558594 244.273438 234.921875 249.960938 Z M 334.777344 241.25 C 334.96875 241 334.925781 240.644531 334.675781 240.453125 C 334.433594 240.261719 328.574219 235.882812 319.550781 241.316406 C 319.28125 241.480469 319.191406 241.832031 319.359375 242.101562 C 319.464844 242.277344 319.652344 242.378906 319.847656 242.378906 C 319.949219 242.378906 320.050781 242.355469 320.144531 242.296875 C 328.460938 237.28125 333.757812 241.1875 333.976562 241.359375 C 334.226562 241.550781 334.585938 241.5 334.777344 241.25 Z M 306.472656 275.011719 C 306.738281 275.011719 306.980469 274.820312 307.03125 274.542969 L 309.535156 261.195312 C 309.59375 260.886719 309.390625 260.585938 309.078125 260.527344 C 308.769531 260.472656 308.46875 260.675781 308.410156 260.984375 L 305.90625 274.332031 C 305.851562 274.644531 306.050781 274.941406 306.363281 275 C 306.398438 275.007812 306.433594 275.011719 306.472656 275.011719 Z M 299.035156 244.707031 C 299.230469 244.707031 299.429688 244.601562 299.53125 244.414062 C 299.6875 244.136719 299.589844 243.789062 299.316406 243.632812 C 289.667969 238.21875 283.066406 242.953125 282.792969 243.15625 C 282.539062 243.34375 282.484375 243.699219 282.671875 243.953125 C 282.859375 244.210938 283.21875 244.261719 283.472656 244.074219 C 283.726562 243.890625 289.773438 239.597656 298.753906 244.628906 C 298.84375 244.683594 298.941406 244.707031 299.035156 244.707031 Z M 288.433594 252.53125 C 288.433594 254.289062 289.863281 255.722656 291.628906 255.722656 C 293.390625 255.722656 294.824219 254.289062 294.824219 252.53125 C 294.824219 250.765625 293.390625 249.339844 291.628906 249.339844 C 289.863281 249.339844 288.433594 250.765625 288.433594 252.53125 Z M 327.589844 255.722656 C 325.828125 255.722656 324.398438 254.289062 324.398438 252.53125 C 324.398438 250.765625 325.828125 249.339844 327.589844 249.339844 C 329.355469 249.339844 330.789062 250.765625 330.789062 252.53125 C 330.789062 254.289062 329.355469 255.722656 327.589844 255.722656 "/>
</g>
<path style=" stroke:none;fill-rule:nonzero;fill:rgb(100%,100%,100%);fill-opacity:1;" d="M 382.226562 504.507812 L 331.265625 504.507812 C 329.613281 504.507812 328.273438 505.875 328.316406 507.53125 L 329.007812 537.375 L 329.074219 540.332031 L 329.367188 552.761719 C 330.949219 550.96875 333.125 549.515625 335.769531 548.277344 L 335.324219 531.417969 C 352.496094 528.503906 363.757812 534.386719 378.167969 531.417969 L 377.980469 538.472656 C 380.269531 538.414062 382.441406 538.507812 384.457031 538.773438 L 385.179688 507.53125 C 385.21875 505.875 383.882812 504.507812 382.226562 504.507812 Z M 376.136719 608.140625 C 376.0625 610.761719 373.917969 612.859375 371.289062 612.859375 L 342.207031 612.859375 C 339.578125 612.859375 337.429688 610.761719 337.363281 608.140625 L 337.355469 608.074219 C 330.4375 605.609375 331.972656 600.796875 332.476562 599.609375 L 332.070312 599.730469 C 332.011719 599.742188 331.960938 599.75 331.90625 599.75 C 331.660156 599.75 331.433594 599.589844 331.355469 599.34375 C 331.316406 599.203125 331.332031 599.050781 331.394531 598.925781 C 331.054688 598.800781 330.734375 598.664062 330.425781 598.53125 L 330.734375 611.824219 C 330.847656 616.53125 334.695312 620.292969 339.410156 620.292969 L 374.085938 620.292969 C 378.800781 620.292969 382.648438 616.53125 382.757812 611.824219 L 382.90625 605.574219 C 380.53125 605.953125 378.261719 606.304688 376.175781 606.609375 Z M 312.929688 336.890625 L 311.988281 337.164062 L 310.488281 337.605469 L 309.386719 337.925781 L 305.445312 339.074219 L 304.347656 339.398438 L 301.570312 340.210938 L 300.46875 340.53125 L 298.40625 341.136719 L 297.300781 341.460938 L 294.007812 342.421875 L 275.4375 347.851562 L 260.792969 352.132812 C 260.015625 352.359375 259.25 352.632812 258.5 352.949219 L 250.375 356.363281 C 253.507812 358.164062 256.492188 360.097656 258.847656 361.90625 L 276.660156 355.367188 L 312.34375 342.269531 L 314.449219 341.496094 C 315.851562 340.984375 316.460938 339.328125 315.722656 338.023438 C 315.167969 337.042969 314.011719 336.574219 312.929688 336.890625 Z M 294.898438 288.519531 L 322.472656 288.714844 C 322.472656 288.714844 319.207031 295.066406 308.679688 294.914062 C 298.382812 294.773438 294.898438 288.519531 294.898438 288.519531 "/>
<path style=" stroke:none;fill-rule:nonzero;fill:rgb(33.329773%,44.709778%,50.979614%);fill-opacity:1;" d="M 176.441406 439.648438 C 177.121094 440.785156 177.800781 441.894531 178.488281 442.964844 C 182.355469 448.308594 186.519531 453.066406 190.777344 456.667969 C 191.796875 457.53125 194.484375 459.476562 197.402344 458.933594 C 199.621094 458.523438 201.589844 456.773438 203.253906 453.734375 C 203.40625 453.457031 203.75 453.351562 204.03125 453.503906 C 204.03125 453.507812 204.035156 453.515625 204.039062 453.515625 C 209.15625 444.128906 209.136719 425.503906 205.605469 407.667969 Z M 428.050781 648.496094 C 427.796875 650.945312 427.242188 652.960938 426.332031 654.40625 C 425.023438 656.503906 423.511719 657.539062 421.851562 657.707031 C 421.003906 657.789062 420.109375 657.648438 419.1875 657.289062 C 403.058594 646.628906 392.207031 608.074219 391.144531 604.179688 C 400.402344 602.535156 410.261719 600.480469 417.878906 598.152344 C 422.929688 613.132812 427.132812 629.070312 428.046875 640.582031 C 428.09375 643.320312 427.980469 645.785156 427.667969 647.878906 C 427.625 648.160156 427.796875 648.410156 428.050781 648.496094 "/>
</g>
</svg>
