<?xml version="1.0" encoding="UTF-8"?>
<svg xmlns="http://www.w3.org/2000/svg" xmlns:xlink="http://www.w3.org/1999/xlink" width="595.5pt" height="842.249979pt" viewBox="0 0 595.5 842.249979" version="1.2">
<defs>
<clipPath id="clip1">
  <path d="M 9.261719 283.210938 L 586.675781 283.210938 L 586.675781 558.996094 L 9.261719 558.996094 Z M 9.261719 283.210938 "/>
</clipPath>
<clipPath id="clip2">
  <path d="M 24.285156 291.304688 L 586.675781 291.304688 L 586.675781 558.996094 L 24.285156 558.996094 Z M 24.285156 291.304688 "/>
</clipPath>
<clipPath id="clip3">
  <path d="M 53 283.039062 L 581 283.039062 L 581 524 L 53 524 Z M 53 283.039062 "/>
</clipPath>
</defs>
<g id="surface1">
<g clip-path="url(#clip1)" clip-rule="nonzero">
<path style=" stroke:none;fill-rule:nonzero;fill:rgb(80.778503%,47.059631%,31.369019%);fill-opacity:1;" d="M 584.179688 514.394531 C 581.300781 513.15625 578.378906 512.011719 575.410156 510.980469 C 576.644531 510.691406 577.824219 510.277344 578.816406 509.535156 C 580.34375 508.414062 581.277344 506.273438 580.457031 504.585938 C 579.949219 503.53125 578.921875 502.859375 577.90625 502.304688 C 566.636719 496.105469 553.0625 496.558594 540.328125 494.648438 C 530.574219 493.15625 521.132812 490.21875 511.820312 486.886719 C 508.632812 485.742188 505.453125 484.5625 502.277344 483.371094 C 476.242188 473.617188 450.21875 463.648438 425.203125 451.535156 C 414.539062 446.34375 404.066406 440.789062 393.820312 434.867188 C 368.90625 414.625 345.472656 391.945312 317.371094 378.273438 C 317.3125 378.066406 317.253906 377.84375 317.195312 377.652344 C 313.707031 365.710938 306.125 354.328125 294.652344 349.066406 C 284.183594 344.261719 271.472656 344.855469 261.339844 339.878906 C 260 339.234375 258.714844 338.492188 257.492188 337.625 C 254.613281 335.578125 252.164062 332.953125 248.976562 331.449219 C 241.394531 327.875 232.460938 331.648438 224.050781 331.277344 C 208.277344 330.605469 196.988281 315.902344 182.023438 310.960938 C 172.988281 307.980469 163.121094 308.722656 153.714844 310.277344 C 136.949219 313.023438 120.289062 318.390625 106.109375 327.378906 C 102.007812 324.589844 98.183594 321.417969 94.707031 317.925781 C 95.308594 317.21875 95.886719 316.5 96.441406 315.75 C 99.191406 311.984375 100.976562 306.785156 98.726562 302.691406 C 96.773438 299.164062 92.546875 297.695312 88.671875 296.609375 C 84.398438 295.40625 80.050781 294.308594 75.6875 293.4375 C 74.785156 291.023438 73.769531 288.636719 72.65625 286.3125 C 72.082031 285.089844 71.339844 283.746094 70.035156 283.339844 C 69.191406 283.074219 68.28125 283.273438 67.421875 283.503906 C 62.199219 284.933594 57.371094 287.722656 53.488281 291.519531 C 51.917969 291.585938 50.332031 291.726562 48.761719 291.910156 C 40.109375 292.972656 31.496094 296.078125 24.554688 301.210938 C 23.964844 301.648438 23.386719 302.089844 22.820312 302.566406 C 18.925781 304.878906 15.621094 308.269531 13.355469 312.191406 C 9.460938 318.980469 8.480469 327.230469 9.84375 334.933594 C 12.089844 347.5625 20.855469 358.773438 32.332031 364.382812 C 31.730469 366.617188 31.53125 368.953125 31.578125 371.371094 C 31.707031 378.265625 33.84375 385.746094 34.363281 392.753906 C 35.296875 405.558594 30.421875 417.957031 26.660156 430.242188 C 22.902344 442.503906 20.265625 456.140625 25.445312 467.882812 C 30.023438 478.246094 39.808594 485.1875 49.140625 491.582031 C 50.253906 492.347656 51.535156 493.132812 52.84375 492.832031 C 53.660156 492.648438 54.308594 492.035156 54.816406 491.363281 C 60.027344 484.503906 51.199219 474.046875 54.957031 466.285156 C 55.960938 464.226562 57.738281 462.664062 59.042969 460.765625 C 62.140625 456.246094 62.164062 450.230469 60.933594 444.886719 C 59.703125 439.542969 57.371094 434.488281 56.050781 429.164062 C 52.84375 416.023438 56.042969 401.902344 52.289062 388.90625 C 50.867188 384.011719 48.472656 379.1875 46.4375 374.367188 C 45.5625 372.238281 44.753906 370.09375 44.117188 367.964844 C 54.167969 369.265625 64.664062 366.617188 73.003906 360.863281 C 74.820312 359.625 76.539062 358.214844 78.125 356.675781 C 71.433594 369.085938 68.472656 383.257812 71.167969 396.957031 C 74.496094 413.886719 85.785156 428.507812 89.296875 445.382812 C 91.472656 455.886719 90.53125 466.726562 90.058594 477.425781 C 89.042969 500.410156 90.210938 523.460938 93.539062 546.226562 C 94.242188 550.980469 97.722656 554.902344 102.390625 556.035156 C 118.902344 560.085938 136.425781 559.992188 152.894531 555.664062 C 154.105469 555.351562 155.402344 554.960938 156.175781 553.964844 C 158.140625 551.523438 155.46875 548.019531 152.730469 546.46875 C 143.878906 541.449219 133.066406 542.015625 122.886719 542.234375 C 121.152344 542.257812 119.308594 542.246094 117.871094 541.289062 C 115.863281 539.933594 115.367188 537.238281 115.144531 534.820312 C 114.140625 523.683594 115.207031 512.660156 117.019531 501.632812 C 118.472656 506.621094 120.542969 511.410156 123.210938 515.875 C 124.65625 518.292969 126.386719 520.722656 128.90625 521.992188 C 130.949219 523.023438 133.308594 523.183594 135.59375 523.277344 C 147.554688 523.773438 159.574219 522.90625 171.335938 520.710938 C 173.183594 520.375 175.320312 519.75 175.96875 517.96875 C 176.859375 515.492188 174.050781 513.28125 171.542969 512.449219 C 160.496094 508.691406 147.277344 512.460938 137.445312 506.191406 C 136.230469 505.429688 135.085938 504.503906 134.464844 503.230469 C 133.6875 501.667969 133.804688 499.832031 133.929688 498.070312 C 135.953125 471.558594 137.964844 445.070312 139.996094 418.570312 C 156.105469 421.9375 173.53125 422.292969 187.535156 430.832031 C 198.457031 437.472656 206.011719 448.320312 215.359375 457.054688 C 217.023438 458.617188 218.757812 460.109375 220.5625 461.484375 C 238.496094 475.191406 262.585938 477.191406 285.132812 476.765625 C 307.6875 476.3125 330.855469 474.070312 352.289062 481.054688 C 371.644531 487.359375 387.832031 500.664062 405.929688 509.964844 C 430.03125 522.351562 457.789062 527.523438 484.722656 524.640625 C 491.195312 523.9375 497.804688 522.816406 504.296875 522.640625 C 505.105469 523.671875 505.847656 524.828125 506.585938 525.984375 C 509.011719 529.882812 511.265625 534.183594 514.871094 536.777344 C 521.78125 541.761719 531.464844 539.125 539.136719 535.410156 C 546.808594 531.699219 554.816406 526.96875 563.230469 528.320312 C 565.96875 528.75 568.648438 529.835938 571.410156 529.675781 C 575.246094 529.464844 578.503906 526.910156 581.488281 524.46875 C 582.722656 523.449219 583.960938 522.433594 585.207031 521.425781 C 587.621094 519.449219 587.054688 515.632812 584.179688 514.394531 "/>
</g>
<path style=" stroke:none;fill-rule:nonzero;fill:rgb(49.409485%,30.198669%,44.709778%);fill-opacity:1;" d="M 248.976562 331.449219 C 241.394531 327.875 232.460938 331.648438 224.050781 331.277344 C 208.277344 330.605469 196.988281 315.902344 182.023438 310.960938 C 172.988281 307.980469 163.121094 308.722656 153.714844 310.277344 C 136.949219 313.023438 120.289062 318.390625 106.109375 327.378906 C 101.5 330.292969 97.132812 333.589844 93.125 337.300781 C 91.25 339.058594 89.449219 340.886719 87.761719 342.832031 C 86.429688 344.335938 85.160156 345.90625 83.96875 347.515625 C 85.367188 346.253906 86.871094 345.085938 88.453125 344.035156 C 93.398438 340.769531 99.140625 338.738281 105.011719 339.105469 C 119.332031 339.996094 129.273438 354.769531 131.089844 369.019531 C 132.902344 383.257812 128.972656 397.535156 127.597656 411.835938 C 127.507812 412.890625 127.402344 413.917969 127.332031 414.960938 C 131.390625 416.546875 135.640625 417.65625 140 418.570312 C 156.105469 421.9375 173.53125 422.292969 187.535156 430.832031 C 198.457031 437.472656 206.011719 448.320312 215.359375 457.054688 C 216.839844 455.34375 218.226562 453.574219 219.519531 451.804688 C 243.40625 419.332031 258.070312 380.089844 261.339844 339.878906 C 260 339.234375 258.714844 338.492188 257.492188 337.625 C 254.613281 335.578125 252.164062 332.953125 248.976562 331.449219 Z M 510.746094 497.277344 C 506.703125 495.808594 502.714844 494.175781 498.761719 492.535156 C 470.441406 480.886719 441.898438 469.121094 416.535156 451.957031 C 408.726562 446.683594 401.214844 440.875 393.820312 434.871094 C 404.066406 440.792969 414.539062 446.347656 425.203125 451.539062 C 450.21875 463.652344 476.242188 473.621094 502.277344 483.375 C 505.453125 484.566406 508.632812 485.746094 511.820312 486.890625 C 512.003906 490.394531 511.648438 493.898438 510.746094 497.277344 "/>
<g clip-path="url(#clip2)" clip-rule="nonzero">
<path style=" stroke:none;fill-rule:nonzero;fill:rgb(80.778503%,47.059631%,31.369019%);fill-opacity:1;" d="M 83.554688 338.097656 C 85.175781 339.433594 86.628906 341.050781 87.761719 342.832031 C 89.449219 340.886719 91.25 339.058594 93.125 337.300781 C 97.132812 333.589844 101.5 330.292969 106.109375 327.378906 C 102.007812 324.589844 98.183594 321.417969 94.707031 317.925781 C 95.308594 317.21875 95.886719 316.5 96.441406 315.75 C 99.191406 311.984375 100.976562 306.785156 98.726562 302.691406 C 96.773438 299.164062 92.546875 297.695312 88.671875 296.609375 C 84.398438 295.40625 80.050781 294.308594 75.6875 293.4375 C 68.335938 291.96875 60.910156 291.148438 53.488281 291.519531 C 51.917969 291.585938 50.332031 291.726562 48.761719 291.910156 C 40.109375 292.972656 31.496094 296.078125 24.554688 301.210938 C 24.726562 301.261719 24.925781 301.304688 25.109375 301.359375 C 36.628906 304.566406 46.84375 312.339844 53.050781 322.574219 L 52.792969 322.726562 C 50.183594 327.644531 53.347656 334.617188 58.757812 335.902344 C 62.84375 336.863281 67.25 334.308594 69.074219 330.59375 C 69.734375 330.855469 70.390625 331.136719 71.066406 331.417969 C 75.441406 333.230469 79.890625 335.09375 83.554688 338.097656 Z M 152.730469 546.472656 C 143.878906 541.453125 133.066406 542.019531 122.886719 542.238281 C 121.152344 542.261719 119.308594 542.25 117.871094 541.289062 C 115.863281 539.9375 115.367188 537.242188 115.144531 534.824219 C 114.140625 523.683594 115.207031 512.660156 117.019531 501.636719 C 119.9375 484.03125 124.796875 466.472656 126.179688 448.648438 C 127.042969 437.453125 126.535156 426.171875 127.332031 414.964844 C 127.402344 413.921875 127.507812 412.894531 127.597656 411.839844 C 128.972656 397.539062 132.902344 383.261719 131.089844 369.023438 C 129.273438 354.773438 119.332031 340 105.011719 339.109375 C 99.140625 338.742188 93.398438 340.773438 88.453125 344.039062 C 86.871094 345.089844 85.367188 346.257812 83.96875 347.519531 C 81.785156 350.425781 79.835938 353.496094 78.125 356.679688 C 71.433594 369.089844 68.472656 383.261719 71.167969 396.960938 C 74.496094 413.886719 85.785156 428.507812 89.296875 445.386719 C 91.472656 455.890625 90.53125 466.726562 90.058594 477.429688 C 89.042969 500.410156 90.210938 523.464844 93.539062 546.230469 C 94.242188 550.984375 97.722656 554.90625 102.390625 556.039062 C 118.902344 560.085938 136.425781 559.996094 152.894531 555.667969 C 154.105469 555.355469 155.402344 554.964844 156.175781 553.96875 C 158.140625 551.527344 155.46875 548.023438 152.730469 546.472656 Z M 585.207031 521.429688 C 583.960938 522.4375 582.722656 523.453125 581.488281 524.472656 C 578.503906 526.914062 575.246094 529.46875 571.410156 529.675781 C 568.648438 529.839844 565.96875 528.753906 563.230469 528.324219 C 554.816406 526.96875 546.808594 531.703125 539.136719 535.414062 C 531.464844 539.128906 521.78125 541.765625 514.871094 536.78125 C 511.265625 534.1875 509.011719 529.886719 506.585938 525.988281 C 507.3125 524.921875 508.007812 523.8125 508.652344 522.679688 C 512.824219 515.507812 515.402344 507.386719 516.074219 499.117188 C 519.46875 500.226562 522.914062 501.128906 526.425781 501.8125 C 533.046875 503.074219 539.808594 503.40625 546.484375 504.21875 C 556.332031 505.433594 566.058594 507.699219 575.410156 510.984375 C 578.378906 512.015625 581.300781 513.160156 584.179688 514.398438 C 587.054688 515.632812 587.621094 519.453125 585.207031 521.429688 "/>
</g>
<g clip-path="url(#clip3)" clip-rule="nonzero">
<path style=" stroke:none;fill-rule:nonzero;fill:rgb(74.508667%,32.939148%,23.139954%);fill-opacity:1;" d="M 70.035156 283.339844 C 69.191406 283.074219 68.28125 283.273438 67.421875 283.503906 C 62.199219 284.933594 57.371094 287.722656 53.488281 291.519531 C 60.910156 291.148438 68.335938 291.96875 75.6875 293.4375 C 74.785156 291.023438 73.769531 288.636719 72.65625 286.3125 C 72.082031 285.089844 71.339844 283.746094 70.035156 283.339844 Z M 171.542969 512.453125 C 160.496094 508.695312 147.277344 512.464844 137.445312 506.195312 C 136.230469 505.433594 135.085938 504.507812 134.464844 503.234375 C 133.6875 501.671875 133.804688 499.835938 133.929688 498.074219 C 135.953125 471.5625 137.964844 445.074219 139.996094 418.574219 C 135.640625 417.660156 131.390625 416.550781 127.332031 414.964844 C 126.535156 426.171875 127.042969 437.453125 126.179688 448.648438 C 124.796875 466.472656 119.9375 484.03125 117.019531 501.636719 C 118.472656 506.625 120.542969 511.414062 123.210938 515.878906 C 124.65625 518.296875 126.386719 520.722656 128.90625 521.996094 C 130.949219 523.027344 133.308594 523.1875 135.59375 523.28125 C 147.554688 523.777344 159.574219 522.910156 171.335938 520.714844 C 173.183594 520.378906 175.320312 519.753906 175.96875 517.972656 C 176.859375 515.496094 174.050781 513.285156 171.542969 512.453125 Z M 578.816406 509.539062 C 577.824219 510.28125 576.644531 510.695312 575.410156 510.984375 C 566.058594 507.699219 556.332031 505.433594 546.484375 504.21875 C 539.808594 503.410156 533.046875 503.074219 526.425781 501.8125 C 522.914062 501.128906 519.46875 500.226562 516.074219 499.117188 C 514.28125 498.550781 512.511719 497.9375 510.746094 497.277344 C 511.648438 493.898438 512.003906 490.394531 511.820312 486.890625 C 521.132812 490.222656 530.574219 493.160156 540.328125 494.652344 C 553.0625 496.558594 566.636719 496.109375 577.902344 502.308594 C 578.921875 502.863281 579.949219 503.535156 580.457031 504.589844 C 581.277344 506.277344 580.34375 508.417969 578.816406 509.539062 "/>
</g>
<path style=" stroke:none;fill-rule:nonzero;fill:rgb(73.329163%,56.079102%,69.018555%);fill-opacity:1;" d="M 39.472656 367.0625 C 37 366.410156 34.621094 365.511719 32.332031 364.382812 C 31.730469 366.617188 31.53125 368.953125 31.578125 371.371094 C 36.339844 373.113281 41.378906 374.132812 46.4375 374.367188 C 45.5625 372.238281 44.753906 370.09375 44.117188 367.964844 C 42.554688 367.757812 41 367.460938 39.472656 367.0625 Z M 516.078125 499.117188 C 515.40625 507.386719 512.832031 515.507812 508.660156 522.679688 C 508.011719 523.8125 507.320312 524.921875 506.589844 525.984375 C 505.851562 524.828125 505.113281 523.671875 504.304688 522.644531 C 497.808594 522.816406 491.199219 523.9375 484.730469 524.644531 C 457.792969 527.523438 430.039062 522.355469 405.933594 509.964844 C 387.839844 500.664062 371.648438 487.363281 352.296875 481.058594 C 330.859375 474.070312 307.691406 476.316406 285.136719 476.765625 C 262.59375 477.195312 238.5 475.195312 220.566406 461.488281 C 218.765625 460.109375 217.03125 458.617188 215.367188 457.054688 C 216.84375 455.34375 218.230469 453.574219 219.527344 451.804688 C 243.410156 419.335938 258.074219 380.09375 261.34375 339.882812 C 271.476562 344.855469 284.1875 344.265625 294.65625 349.070312 C 306.132812 354.332031 313.710938 365.714844 317.203125 377.652344 C 317.261719 377.847656 317.316406 378.066406 317.375 378.277344 C 345.476562 391.949219 368.910156 414.628906 393.824219 434.871094 C 401.21875 440.875 408.730469 446.679688 416.542969 451.957031 C 441.90625 469.121094 470.445312 480.886719 498.769531 492.535156 C 502.71875 494.175781 506.707031 495.808594 510.75 497.277344 C 512.519531 497.933594 514.289062 498.546875 516.078125 499.117188 "/>
<path style=" stroke:none;fill-rule:nonzero;fill:rgb(16.468811%,9.408569%,7.449341%);fill-opacity:1;" d="M 53.007812 312.746094 C 53.984375 313.609375 56.222656 312.476562 55.105469 311.320312 C 50.871094 306.953125 50.011719 301.113281 51.335938 295.34375 C 51.660156 293.917969 49.160156 293.855469 48.675781 294.925781 C 45.847656 301.164062 48.011719 308.296875 53.007812 312.746094 Z M 60.523438 305.140625 C 60.945312 306.714844 60.863281 308.3125 61.066406 309.917969 C 61.199219 310.960938 62.777344 310.789062 63.203125 310.082031 C 65.453125 306.328125 62.917969 301.101562 59.308594 299.242188 C 58.550781 298.851562 56.929688 299.546875 57.777344 300.488281 C 58.992188 301.835938 60.050781 303.367188 60.523438 305.140625 Z M 78.066406 312.402344 C 81.402344 309.773438 84.746094 304.789062 83.417969 300.339844 C 83.097656 299.277344 81.484375 299.378906 81.171875 300.40625 C 79.949219 304.441406 79.230469 307.863281 76.148438 310.980469 C 75.039062 312.105469 77.101562 313.164062 78.066406 312.402344 Z M 56.050781 429.164062 C 52.84375 416.023438 56.042969 401.898438 52.289062 388.902344 C 50.867188 384.011719 48.472656 379.183594 46.4375 374.363281 C 41.378906 374.132812 36.339844 373.113281 31.578125 371.367188 C 31.707031 378.261719 33.84375 385.746094 34.363281 392.753906 C 35.296875 405.554688 30.421875 417.953125 26.660156 430.238281 C 22.902344 442.5 20.265625 456.136719 25.445312 467.878906 C 30.023438 478.242188 39.808594 485.183594 49.140625 491.582031 C 50.253906 492.34375 51.535156 493.128906 52.84375 492.828125 C 53.660156 492.644531 54.308594 492.03125 54.816406 491.359375 C 60.03125 484.5 51.199219 474.042969 54.957031 466.28125 C 55.960938 464.222656 57.742188 462.664062 59.042969 460.765625 C 62.140625 456.242188 62.164062 450.226562 60.933594 444.882812 C 59.703125 439.539062 57.371094 434.484375 56.050781 429.164062 Z M 87.761719 342.828125 C 86.429688 344.332031 85.160156 345.90625 83.96875 347.515625 C 81.785156 350.417969 79.835938 353.492188 78.125 356.671875 C 76.539062 358.214844 74.820312 359.621094 73.003906 360.863281 C 64.664062 366.613281 54.167969 369.261719 44.117188 367.964844 C 42.554688 367.757812 41 367.457031 39.472656 367.0625 C 37 366.40625 34.621094 365.511719 32.332031 364.382812 C 20.855469 358.769531 12.089844 347.558594 9.84375 334.929688 C 8.480469 327.226562 9.460938 318.980469 13.355469 312.1875 C 15.621094 308.265625 18.925781 304.878906 22.820312 302.5625 C 23.386719 302.089844 23.964844 301.644531 24.554688 301.207031 C 24.726562 301.257812 24.925781 301.304688 25.109375 301.355469 C 36.628906 304.566406 46.84375 312.339844 53.050781 322.570312 L 52.792969 322.726562 C 50.183594 327.640625 53.347656 334.613281 58.757812 335.902344 C 62.84375 336.859375 67.25 334.308594 69.074219 330.59375 C 69.734375 330.855469 70.390625 331.136719 71.066406 331.414062 C 75.441406 333.226562 79.890625 335.09375 83.554688 338.097656 C 85.175781 339.429688 86.628906 341.046875 87.761719 342.828125 "/>
</g>
</svg>
