<?xml version="1.0" encoding="UTF-8"?>
<svg xmlns="http://www.w3.org/2000/svg" xmlns:xlink="http://www.w3.org/1999/xlink" width="595.5pt" height="842.249979pt" viewBox="0 0 595.5 842.249979" version="1.2">
<defs>
<clipPath id="clip1">
  <path d="M 210.082031 170 L 338 170 L 338 277.734375 L 210.082031 277.734375 Z M 210.082031 170 "/>
</clipPath>
<clipPath id="clip2">
  <path d="M 299 187 L 356.242188 187 L 356.242188 277.734375 L 299 277.734375 Z M 299 187 "/>
</clipPath>
<clipPath id="clip3">
  <path d="M 313 116.492188 L 338 116.492188 L 338 144 L 313 144 Z M 313 116.492188 "/>
</clipPath>
<clipPath id="clip4">
  <path d="M 268 371 L 378 371 L 378 477.09375 L 268 477.09375 Z M 268 371 "/>
</clipPath>
<clipPath id="clip5">
  <path d="M 214.199219 405 L 312 405 L 312 477 L 214.199219 477 Z M 214.199219 405 "/>
</clipPath>
<clipPath id="clip6">
  <path d="M 360 315.101562 L 385 315.101562 L 385 342 L 360 342 Z M 360 315.101562 "/>
</clipPath>
<clipPath id="clip7">
  <path d="M 345 719 L 351 719 L 351 725.664062 L 345 725.664062 Z M 345 719 "/>
</clipPath>
<clipPath id="clip8">
  <path d="M 329 719 L 336 719 L 336 725.664062 L 329 725.664062 Z M 329 719 "/>
</clipPath>
<clipPath id="clip9">
  <path d="M 314 719 L 320 719 L 320 725.664062 L 314 725.664062 Z M 314 719 "/>
</clipPath>
<clipPath id="clip10">
  <path d="M 220.089844 613 L 295 613 L 295 723 L 220.089844 723 Z M 220.089844 613 "/>
</clipPath>
<clipPath id="clip11">
  <path d="M 276 505.175781 L 336 505.175781 L 336 546 L 276 546 Z M 276 505.175781 "/>
</clipPath>
<clipPath id="clip12">
  <path d="M 361 585 L 370.082031 585 L 370.082031 588 L 361 588 Z M 361 585 "/>
</clipPath>
<clipPath id="clip13">
  <path d="M 361 657 L 370.082031 657 L 370.082031 660 L 361 660 Z M 361 657 "/>
</clipPath>
</defs>
<g id="surface1">
<path style=" stroke:none;fill-rule:nonzero;fill:rgb(30.589294%,3.138733%,4.309082%);fill-opacity:1;" d="M 291.210938 149.175781 C 290.238281 149.402344 289.296875 149.722656 288.382812 150.136719 C 287.472656 150.546875 286.613281 151.042969 285.800781 151.628906 C 284.988281 152.210938 284.238281 152.867188 283.554688 153.59375 C 282.871094 154.324219 282.265625 155.113281 281.738281 155.964844 C 281.210938 156.8125 280.769531 157.707031 280.417969 158.640625 C 280.0625 159.578125 279.804688 160.539062 279.644531 161.523438 C 279.480469 162.511719 279.414062 163.503906 279.445312 164.503906 C 279.480469 165.503906 279.609375 166.492188 279.835938 167.464844 C 280.0625 168.4375 280.382812 169.382812 280.792969 170.292969 C 281.207031 171.203125 281.703125 172.066406 282.285156 172.878906 C 282.867188 173.691406 283.523438 174.441406 284.253906 175.125 C 284.980469 175.808594 285.769531 176.414062 286.621094 176.941406 C 287.46875 177.472656 288.359375 177.910156 289.296875 178.265625 C 290.230469 178.617188 291.191406 178.875 292.179688 179.039062 C 293.164062 179.199219 294.15625 179.265625 295.15625 179.234375 C 296.15625 179.199219 297.144531 179.070312 298.117188 178.84375 C 299.089844 178.617188 300.03125 178.296875 300.941406 177.886719 C 301.851562 177.472656 302.714844 176.976562 303.527344 176.394531 C 304.339844 175.8125 305.089844 175.15625 305.773438 174.425781 C 306.457031 173.695312 307.0625 172.90625 307.589844 172.058594 C 308.117188 171.207031 308.558594 170.316406 308.910156 169.378906 C 309.261719 168.441406 309.519531 167.480469 309.683594 166.496094 C 309.847656 165.507812 309.914062 164.515625 309.878906 163.515625 C 309.847656 162.515625 309.71875 161.53125 309.492188 160.554688 C 309.265625 159.582031 308.945312 158.640625 308.53125 157.726562 C 308.121094 156.816406 307.625 155.953125 307.042969 155.140625 C 306.460938 154.328125 305.804688 153.578125 305.074219 152.894531 C 304.34375 152.210938 303.554688 151.605469 302.707031 151.078125 C 301.859375 150.550781 300.964844 150.109375 300.03125 149.757812 C 299.09375 149.402344 298.132812 149.144531 297.148438 148.984375 C 296.160156 148.820312 295.167969 148.753906 294.167969 148.785156 C 293.171875 148.820312 292.183594 148.949219 291.210938 149.175781 Z M 291.210938 149.175781 "/>
<g clip-path="url(#clip1)" clip-rule="nonzero">
<path style=" stroke:none;fill-rule:nonzero;fill:rgb(30.589294%,3.138733%,4.309082%);fill-opacity:1;" d="M 333.226562 182.742188 C 337.832031 196.402344 338.824219 205.296875 337.074219 220.339844 C 334.957031 231.242188 327.488281 232.359375 321.285156 232.28125 C 319.699219 232.261719 318.34375 232.203125 317.203125 231.96875 C 316.832031 231.933594 316.460938 231.878906 316.089844 231.792969 L 294.808594 226.757812 L 300.753906 254.089844 C 301.746094 258.65625 298.851562 263.167969 294.285156 264.160156 C 293.679688 264.292969 293.074219 264.355469 292.476562 264.355469 C 288.582031 264.355469 285.082031 261.652344 284.21875 257.6875 L 275.421875 217.226562 C 275.152344 215.996094 275.179688 214.753906 275.449219 213.566406 L 227.507812 213.566406 L 227.507812 277.558594 L 220.402344 277.558594 L 220.402344 213.566406 L 210.136719 213.566406 L 210.136719 206.792969 L 290.484375 206.792969 L 305.761719 210.546875 C 306.179688 210.652344 306.605469 210.703125 307.039062 210.722656 L 307.039062 212.253906 L 313.25 213.722656 C 313.191406 211.796875 313.054688 209.859375 312.855469 207.929688 C 312.980469 207.75 313.113281 207.574219 313.222656 207.382812 L 325.070312 187.070312 C 326.949219 183.84375 325.855469 179.691406 322.632812 177.808594 C 321.597656 177.203125 320.417969 176.882812 319.226562 176.882812 C 316.824219 176.882812 314.582031 178.171875 313.375 180.242188 L 309.269531 187.285156 C 307.375 180.5625 309.917969 172.5625 315.667969 171.128906 C 321.445312 169.683594 329.820312 172.824219 333.230469 182.742188 Z M 333.226562 182.742188 "/>
</g>
<g clip-path="url(#clip2)" clip-rule="nonzero">
<path style=" stroke:none;fill-rule:nonzero;fill:rgb(30.589294%,3.138733%,4.309082%);fill-opacity:1;" d="M 351.988281 263.496094 L 352.269531 263.976562 L 352.269531 267.011719 C 354.480469 267.71875 356.082031 269.792969 356.082031 272.242188 C 356.082031 275.273438 353.625 277.734375 350.59375 277.734375 C 347.558594 277.734375 345.101562 275.273438 345.101562 272.242188 C 345.101562 270.0625 346.371094 268.1875 348.207031 267.296875 L 348.210938 265.222656 C 347.121094 264.011719 342.847656 260.074219 330.730469 259.484375 L 329.980469 267.078125 C 332.09375 267.839844 333.609375 269.859375 333.609375 272.242188 C 333.609375 275.273438 331.152344 277.734375 328.121094 277.734375 C 325.089844 277.734375 322.628906 275.273438 322.628906 272.242188 C 322.628906 270.121094 323.828125 268.289062 325.585938 267.371094 L 324.800781 259.480469 C 317.710938 259.816406 313.296875 261.328125 310.652344 262.746094 C 309.152344 263.550781 308.210938 264.328125 307.664062 264.863281 C 307.527344 265 307.414062 265.117188 307.324219 265.21875 L 307.324219 267.203125 C 309.265625 268.046875 310.625 269.984375 310.625 272.242188 C 310.625 275.273438 308.167969 277.734375 305.136719 277.734375 C 302.101562 277.734375 299.644531 275.273438 299.644531 272.242188 C 299.644531 269.867188 301.152344 267.847656 303.265625 267.082031 L 303.265625 263.972656 L 303.546875 263.496094 C 303.820312 262.929688 308.386719 256.210938 324.398438 255.421875 L 323.582031 247.183594 L 307.894531 247.183594 C 305.089844 247.183594 302.820312 244.910156 302.820312 242.105469 C 302.820312 239.300781 305.089844 237.027344 307.894531 237.027344 L 343.066406 237.027344 L 345.964844 192.242188 C 346.148438 189.441406 348.5625 187.320312 351.359375 187.5 C 354.15625 187.683594 356.277344 190.097656 356.097656 192.898438 L 352.890625 242.433594 C 352.71875 245.109375 350.503906 247.183594 347.824219 247.183594 L 331.949219 247.183594 L 331.132812 255.421875 C 347.144531 256.214844 351.710938 262.933594 351.988281 263.492188 Z M 351.988281 263.496094 "/>
</g>
<path style=" stroke:none;fill-rule:nonzero;fill:rgb(30.589294%,3.138733%,4.309082%);fill-opacity:1;" d="M 227.792969 200.695312 L 239.917969 200.695312 L 239.917969 172.933594 L 249.84375 172.933594 L 249.84375 149.910156 L 255.261719 149.910156 L 255.261719 195.960938 L 249.84375 195.960938 L 249.84375 176.320312 L 243.300781 176.320312 L 243.300781 200.695312 L 255.429688 200.695312 L 255.429688 203.402344 L 227.792969 203.402344 Z M 227.792969 200.695312 "/>
<path style=" stroke:none;fill-rule:nonzero;fill:rgb(30.589294%,3.138733%,4.309082%);fill-opacity:1;" d="M 278.097656 203.402344 L 263.835938 203.402344 L 263.835938 200.695312 L 275.621094 200.695312 C 275.699219 200.851562 275.777344 201.003906 275.871094 201.15625 C 276.429688 202.089844 277.195312 202.847656 278.097656 203.40625 Z M 278.097656 203.402344 "/>
<path style=" stroke:none;fill-rule:nonzero;fill:rgb(30.589294%,3.138733%,4.309082%);fill-opacity:1;" d="M 314.542969 180.925781 C 316.050781 178.339844 319.367188 177.46875 321.949219 178.976562 C 324.53125 180.484375 325.402344 183.800781 323.898438 186.386719 L 312.054688 206.699219 C 311.066406 208.394531 309.273438 209.390625 307.378906 209.390625 C 306.949219 209.390625 306.515625 209.339844 306.082031 209.234375 L 280.363281 202.910156 C 277.460938 202.199219 275.683594 199.265625 276.398438 196.359375 C 277.113281 193.453125 280.042969 191.675781 282.949219 192.390625 L 304.738281 197.742188 L 314.542969 180.921875 Z M 314.542969 180.925781 "/>
<g clip-path="url(#clip3)" clip-rule="nonzero">
<path style=" stroke:none;fill-rule:nonzero;fill:rgb(30.589294%,3.138733%,4.309082%);fill-opacity:1;" d="M 336.160156 143.253906 C 335.53125 143.253906 335 143.144531 334.566406 142.929688 C 334.136719 142.714844 333.824219 142.445312 333.628906 142.125 C 333.4375 141.804688 333.136719 141.097656 332.726562 140.003906 C 332.382812 138.972656 330.703125 136.871094 327.683594 133.699219 C 326.59375 132.546875 325.898438 131.808594 325.613281 131.476562 C 324.992188 132.195312 324.015625 133.417969 322.675781 135.140625 C 321.085938 137.222656 319.820312 138.644531 318.882812 139.414062 C 317.941406 140.183594 316.972656 140.566406 315.980469 140.566406 C 315.480469 140.566406 315.046875 140.386719 314.675781 140.027344 C 314.308594 139.671875 314.121094 139.28125 314.121094 138.859375 C 314.121094 138.648438 314.375 138.222656 314.875 137.574219 C 315.378906 136.925781 316.0625 136.335938 316.925781 135.804688 C 317.753906 135.308594 318.988281 134.097656 320.628906 132.171875 C 322.273438 130.25 323.09375 129.1875 323.09375 128.988281 C 323.09375 128.601562 321.75 127.140625 319.0625 124.609375 L 318.398438 123.960938 C 317.097656 122.589844 315.953125 121.46875 314.96875 120.59375 C 313.796875 119.585938 313.210938 118.890625 313.210938 118.503906 C 313.210938 118.0625 313.476562 117.617188 314.007812 117.175781 C 314.535156 116.734375 315.011719 116.511719 315.433594 116.511719 C 315.730469 116.511719 316.277344 116.847656 317.066406 117.523438 C 317.855469 118.199219 320.410156 120.914062 324.734375 125.667969 C 324.976562 125.980469 325.109375 126.132812 325.132812 126.132812 C 327.210938 123.578125 328.859375 121.082031 330.074219 118.632812 C 330.515625 117.738281 330.925781 117.160156 331.300781 116.894531 C 331.675781 116.625 332.101562 116.492188 332.578125 116.492188 C 333.007812 116.492188 333.425781 116.769531 333.828125 117.324219 C 334.234375 117.875 334.4375 118.433594 334.4375 119 C 334.4375 119.484375 333.628906 120.839844 332.015625 123.054688 C 330.402344 125.273438 329.238281 126.792969 328.53125 127.609375 C 328.167969 128.039062 327.890625 128.417969 327.703125 128.738281 C 327.792969 128.859375 327.933594 129.019531 328.132812 129.21875 L 329.972656 131.144531 C 332.683594 133.875 334.699219 136.078125 336.019531 137.753906 C 337.339844 139.429688 338 140.6875 338 141.53125 C 338 142.679688 337.386719 143.253906 336.160156 143.253906 Z M 336.160156 143.253906 "/>
</g>
<path style=" stroke:none;fill-rule:nonzero;fill:rgb(30.589294%,3.138733%,4.309082%);fill-opacity:1;" d="M 327.214844 341.246094 C 326.234375 341.472656 325.289062 341.792969 324.371094 342.207031 C 323.457031 342.621094 322.589844 343.121094 321.773438 343.707031 C 320.957031 344.292969 320.207031 344.953125 319.519531 345.683594 C 318.832031 346.417969 318.222656 347.210938 317.691406 348.0625 C 317.160156 348.917969 316.71875 349.8125 316.363281 350.753906 C 316.007812 351.695312 315.75 352.660156 315.585938 353.652344 C 315.421875 354.644531 315.355469 355.640625 315.390625 356.644531 C 315.421875 357.648438 315.550781 358.640625 315.78125 359.621094 C 316.007812 360.597656 316.328125 361.542969 316.742188 362.460938 C 317.15625 363.375 317.65625 364.242188 318.242188 365.058594 C 318.828125 365.875 319.488281 366.628906 320.21875 367.3125 C 320.953125 368 321.746094 368.609375 322.597656 369.140625 C 323.453125 369.671875 324.347656 370.113281 325.289062 370.46875 C 326.230469 370.824219 327.195312 371.082031 328.1875 371.246094 C 329.179688 371.410156 330.175781 371.476562 331.179688 371.441406 C 332.1875 371.410156 333.175781 371.28125 334.15625 371.050781 C 335.136719 370.824219 336.082031 370.503906 336.996094 370.089844 C 337.914062 369.671875 338.777344 369.171875 339.597656 368.589844 C 340.414062 368.003906 341.164062 367.34375 341.851562 366.613281 C 342.539062 365.878906 343.148438 365.085938 343.679688 364.230469 C 344.210938 363.378906 344.652344 362.480469 345.007812 361.542969 C 345.363281 360.601562 345.621094 359.636719 345.785156 358.644531 C 345.949219 357.652344 346.015625 356.65625 345.980469 355.652344 C 345.949219 354.648438 345.820312 353.65625 345.589844 352.675781 C 345.363281 351.699219 345.042969 350.75 344.628906 349.835938 C 344.210938 348.921875 343.714844 348.054688 343.128906 347.238281 C 342.542969 346.421875 341.882812 345.667969 341.152344 344.980469 C 340.417969 344.296875 339.625 343.6875 338.769531 343.15625 C 337.917969 342.625 337.019531 342.183594 336.082031 341.828125 C 335.140625 341.472656 334.175781 341.214844 333.183594 341.050781 C 332.191406 340.886719 331.191406 340.820312 330.1875 340.855469 C 329.183594 340.886719 328.191406 341.015625 327.214844 341.246094 Z M 327.214844 341.246094 "/>
<g clip-path="url(#clip4)" clip-rule="nonzero">
<path style=" stroke:none;fill-rule:nonzero;fill:rgb(30.589294%,3.138733%,4.309082%);fill-opacity:1;" d="M 346.222656 425.914062 C 341.015625 433.851562 334.898438 433.730469 329.65625 432.015625 L 316.644531 436.199219 L 349.386719 436.199219 L 367.296875 391.78125 C 368.351562 389.167969 371.328125 387.902344 373.941406 388.957031 C 376.554688 390.011719 377.816406 392.984375 376.761719 395.597656 L 376.765625 395.597656 L 357.5625 443.207031 C 356.785156 445.136719 354.910156 446.402344 352.828125 446.402344 L 336.871094 446.402344 L 336.050781 454.679688 C 352.144531 455.472656 356.734375 462.222656 357.011719 462.792969 L 357.296875 463.273438 L 357.296875 466.320312 C 359.519531 467.035156 361.132812 469.117188 361.132812 471.578125 C 361.132812 474.625 358.660156 477.09375 355.613281 477.09375 C 352.5625 477.09375 350.09375 474.625 350.09375 471.578125 C 350.09375 469.386719 351.371094 467.503906 353.214844 466.609375 L 353.214844 464.527344 C 352.121094 463.308594 347.824219 459.347656 335.648438 458.761719 L 334.890625 466.386719 C 337.015625 467.152344 338.539062 469.183594 338.539062 471.574219 C 338.539062 474.625 336.070312 477.09375 333.023438 477.09375 C 329.972656 477.09375 327.5 474.625 327.5 471.574219 C 327.5 469.449219 328.707031 467.605469 330.472656 466.683594 L 329.6875 458.757812 C 322.558594 459.09375 318.121094 460.613281 315.460938 462.039062 C 313.953125 462.84375 313.007812 463.625 312.457031 464.164062 C 312.320312 464.300781 312.207031 464.421875 312.113281 464.523438 L 312.113281 466.511719 C 314.070312 467.363281 315.4375 469.308594 315.4375 471.574219 C 315.4375 474.621094 312.964844 477.09375 309.917969 477.09375 C 306.867188 477.09375 304.398438 474.621094 304.398438 471.574219 C 304.398438 469.1875 305.914062 467.164062 308.035156 466.390625 L 308.035156 463.269531 L 308.320312 462.789062 C 308.59375 462.222656 313.1875 455.472656 329.28125 454.679688 L 328.460938 446.402344 L 312.6875 446.402344 C 309.871094 446.402344 307.585938 444.117188 307.585938 441.300781 C 307.585938 440.441406 307.800781 439.632812 308.175781 438.921875 L 302.832031 440.640625 L 283.59375 466.359375 C 281.921875 468.59375 279.363281 469.773438 276.773438 469.773438 C 275 469.773438 273.214844 469.21875 271.6875 468.078125 C 267.925781 465.265625 267.15625 459.933594 269.96875 456.171875 L 290.835938 428.28125 C 291.902344 426.855469 293.351562 425.820312 295.042969 425.277344 L 324.351562 415.859375 C 326.796875 410.910156 328.507812 405.324219 329.820312 399.871094 C 341.777344 396.253906 347.515625 391.289062 347.601562 391.207031 C 350.402344 388.785156 350.71875 384.480469 348.265625 381.640625 C 346.972656 380.144531 345.09375 379.289062 343.117188 379.289062 C 341.484375 379.289062 339.90625 379.875 338.675781 380.941406 C 338.664062 380.945312 338.589844 381.003906 338.476562 381.089844 C 338.085938 381.375 337.625 381.691406 337.132812 382 C 336.222656 382.570312 334.839844 383.363281 332.988281 384.21875 C 333.933594 377.394531 339.253906 371.164062 345.046875 372.007812 C 350.96875 372.867188 357.566406 378.976562 356.960938 389.492188 C 356.042969 403.9375 353.578125 412.585938 346.222656 425.90625 Z M 346.222656 425.914062 "/>
</g>
<g clip-path="url(#clip5)" clip-rule="nonzero">
<path style=" stroke:none;fill-rule:nonzero;fill:rgb(30.589294%,3.138733%,4.309082%);fill-opacity:1;" d="M 311.824219 412.621094 L 231.882812 412.621094 L 231.882812 476.914062 L 224.738281 476.914062 L 224.738281 412.621094 L 214.414062 412.621094 L 214.414062 405.816406 L 311.824219 405.816406 Z M 311.824219 412.621094 "/>
</g>
<path style=" stroke:none;fill-rule:nonzero;fill:rgb(30.589294%,3.138733%,4.309082%);fill-opacity:1;" d="M 232.167969 399.695312 L 244.351562 399.695312 L 244.351562 371.804688 L 254.332031 371.804688 L 254.332031 348.671875 L 259.777344 348.671875 L 259.777344 394.9375 L 254.332031 394.9375 L 254.332031 375.207031 L 247.753906 375.207031 L 247.753906 399.695312 L 259.945312 399.695312 L 259.945312 402.414062 L 232.167969 402.414062 Z M 232.167969 399.695312 "/>
<path style=" stroke:none;fill-rule:nonzero;fill:rgb(30.589294%,3.138733%,4.309082%);fill-opacity:1;" d="M 289.148438 401.574219 L 289.148438 402.414062 L 268.398438 402.414062 L 268.398438 399.695312 L 287.609375 399.695312 C 288.003906 400.410156 288.527344 401.046875 289.148438 401.574219 Z M 289.148438 401.574219 "/>
<path style=" stroke:none;fill-rule:nonzero;fill:rgb(30.589294%,3.138733%,4.309082%);fill-opacity:1;" d="M 337.847656 383.148438 C 338.523438 382.726562 338.996094 382.390625 339.277344 382.179688 C 339.417969 382.078125 339.511719 382.003906 339.558594 381.964844 L 339.558594 381.96875 C 341.832031 380.003906 345.265625 380.257812 347.230469 382.527344 C 349.199219 384.804688 348.949219 388.238281 346.671875 390.207031 C 345.949219 390.875 332.203125 402.222656 302.917969 402.222656 L 302.816406 402.222656 C 299.753906 402.222656 296.53125 402.097656 293.132812 401.832031 C 290.136719 401.597656 287.898438 398.976562 288.132812 395.980469 C 288.371094 392.980469 290.988281 390.746094 293.984375 390.980469 C 297.105469 391.226562 300.046875 391.335938 302.816406 391.335938 C 316.085938 391.332031 325.429688 388.808594 331.390625 386.390625 C 334.371094 385.1875 336.503906 384.003906 337.847656 383.152344 Z M 337.847656 383.148438 "/>
<g clip-path="url(#clip6)" clip-rule="nonzero">
<path style=" stroke:none;fill-rule:nonzero;fill:rgb(30.589294%,3.138733%,4.309082%);fill-opacity:1;" d="M 383.125 341.988281 C 382.488281 341.988281 381.957031 341.878906 381.523438 341.664062 C 381.089844 341.445312 380.773438 341.175781 380.582031 340.855469 C 380.386719 340.53125 380.085938 339.820312 379.671875 338.71875 C 379.328125 337.6875 377.640625 335.574219 374.605469 332.386719 C 373.503906 331.230469 372.8125 330.488281 372.519531 330.152344 C 371.898438 330.875 370.917969 332.105469 369.570312 333.835938 C 367.96875 335.925781 366.699219 337.355469 365.753906 338.128906 C 364.808594 338.902344 363.835938 339.289062 362.835938 339.289062 C 362.335938 339.289062 361.902344 339.105469 361.527344 338.746094 C 361.15625 338.386719 360.96875 337.992188 360.96875 337.570312 C 360.96875 337.359375 361.222656 336.929688 361.726562 336.28125 C 362.234375 335.628906 362.921875 335.039062 363.785156 334.503906 C 364.621094 334.003906 365.863281 332.789062 367.511719 330.855469 C 369.164062 328.921875 369.988281 327.855469 369.988281 327.652344 C 369.988281 327.265625 368.636719 325.800781 365.9375 323.253906 L 365.269531 322.605469 C 363.960938 321.226562 362.808594 320.097656 361.820312 319.222656 C 360.644531 318.210938 360.054688 317.507812 360.054688 317.121094 C 360.054688 316.675781 360.320312 316.230469 360.851562 315.789062 C 361.386719 315.34375 361.863281 315.121094 362.285156 315.121094 C 362.585938 315.121094 363.132812 315.460938 363.929688 316.136719 C 364.722656 316.816406 367.292969 319.542969 371.636719 324.320312 C 371.882812 324.632812 372.015625 324.785156 372.039062 324.785156 C 374.128906 322.21875 375.78125 319.710938 377.003906 317.253906 C 377.449219 316.351562 377.859375 315.769531 378.238281 315.503906 C 378.617188 315.234375 379.046875 315.101562 379.523438 315.101562 C 379.957031 315.101562 380.375 315.378906 380.78125 315.933594 C 381.1875 316.492188 381.390625 317.050781 381.390625 317.617188 C 381.390625 318.109375 380.578125 319.464844 378.957031 321.695312 C 377.332031 323.921875 376.167969 325.445312 375.457031 326.269531 C 375.089844 326.703125 374.8125 327.082031 374.621094 327.402344 C 374.710938 327.527344 374.855469 327.6875 375.054688 327.886719 L 376.90625 329.820312 C 379.628906 332.5625 381.652344 334.777344 382.980469 336.460938 C 384.308594 338.144531 384.972656 339.410156 384.972656 340.253906 C 384.972656 341.410156 384.355469 341.988281 383.125 341.988281 Z M 383.125 341.988281 "/>
</g>
<path style=" stroke:none;fill-rule:evenodd;fill:rgb(99.21875%,98.039246%,96.078491%);fill-opacity:1;" d="M 344.871094 673.679688 C 343.671875 677.089844 343.207031 676.265625 339.394531 678.929688 C 338.199219 679.757812 336.960938 681.117188 335.828125 684.21875 C 334.457031 687.988281 333.089844 713.128906 335.84375 716.261719 C 337.59375 718.25 344.1875 716.804688 345.816406 717.222656 C 347.828125 717.742188 350.121094 718.601562 349.472656 722.136719 C 349.023438 721.78125 348.4375 721.566406 347.84375 721.566406 C 347.246094 721.566406 346.734375 721.75 346.304688 722.066406 C 345.722656 720.621094 337.464844 720.667969 336.140625 720.542969 C 334.148438 720.355469 334.753906 721.492188 334.667969 722.585938 C 334.140625 721.730469 333.132812 721.164062 332.105469 721.164062 C 331.074219 721.164062 330.265625 721.621094 329.714844 722.335938 C 329.691406 721.730469 329.683594 720.878906 329.585938 720.613281 C 328.257812 720.152344 319.363281 719.703125 319.167969 722.515625 C 318.691406 721.9375 317.757812 721.566406 317.15625 721.566406 C 316.550781 721.566406 316.375 721.660156 316.035156 721.820312 C 315.878906 721.554688 315.796875 721.238281 315.800781 720.90625 C 315.8125 720.246094 315.730469 718.941406 316.703125 718.007812 C 318.242188 716.527344 325.5 717.34375 327.714844 716.992188 C 330.332031 716.574219 329.734375 712.125 329.957031 709.738281 C 330.722656 701.429688 331.191406 682.042969 328.316406 679.570312 C 326.449219 677.964844 322.460938 677.890625 321.558594 673.988281 C 322.652344 674.226562 323.710938 674.382812 324.664062 674.46875 C 330.328125 674.96875 338.769531 674.828125 344.871094 673.667969 Z M 344.871094 673.679688 "/>
<g clip-path="url(#clip7)" clip-rule="nonzero">
<path style=" stroke:none;fill-rule:evenodd;fill:rgb(99.21875%,98.039246%,96.078491%);fill-opacity:1;" d="M 347.84375 725.066406 C 349.273438 725.066406 350.4375 723.910156 350.4375 722.492188 C 350.4375 721.078125 349.273438 719.921875 347.84375 719.921875 C 346.414062 719.921875 345.246094 721.078125 345.246094 722.492188 C 345.246094 723.910156 346.410156 725.0625 347.84375 725.0625 Z M 347.84375 725.066406 "/>
</g>
<g clip-path="url(#clip8)" clip-rule="nonzero">
<path style=" stroke:none;fill-rule:evenodd;fill:rgb(99.21875%,98.039246%,96.078491%);fill-opacity:1;" d="M 332.101562 725.46875 C 333.757812 725.46875 335.105469 724.132812 335.105469 722.492188 C 335.105469 720.855469 333.757812 719.519531 332.101562 719.519531 C 330.445312 719.519531 329.097656 720.855469 329.097656 722.492188 C 329.101562 724.128906 330.453125 725.46875 332.105469 725.46875 Z M 332.101562 725.46875 "/>
</g>
<g clip-path="url(#clip9)" clip-rule="nonzero">
<path style=" stroke:none;fill-rule:evenodd;fill:rgb(99.21875%,98.039246%,96.078491%);fill-opacity:1;" d="M 317.152344 725.066406 C 318.585938 725.066406 319.75 723.910156 319.75 722.492188 C 319.75 721.078125 318.585938 719.921875 317.152344 719.921875 C 315.722656 719.921875 314.558594 721.078125 314.558594 722.492188 C 314.558594 723.910156 315.722656 725.0625 317.15625 725.0625 Z M 317.152344 725.066406 "/>
</g>
<path style=" stroke:none;fill-rule:nonzero;fill:rgb(99.21875%,98.039246%,96.078491%);fill-opacity:1;" d="M 260.589844 627.8125 L 286.734375 627.8125 L 286.734375 632.75 L 260.589844 632.75 Z M 260.589844 627.8125 "/>
<g clip-path="url(#clip10)" clip-rule="nonzero">
<path style=" stroke:none;fill-rule:evenodd;fill:rgb(99.21875%,98.039246%,96.078491%);fill-opacity:1;" d="M 264.636719 613.242188 L 220.089844 613.242188 L 220.089844 722.617188 L 253.179688 722.617188 L 253.179688 679.765625 C 253.179688 667.03125 260.742188 655.96875 271.601562 650.847656 L 271.601562 637.628906 L 290.832031 637.628906 C 292.585938 637.628906 294.023438 636.1875 294.023438 634.433594 L 294.023438 634.429688 C 294.023438 632.675781 292.585938 631.238281 290.832031 631.238281 L 271.605469 631.238281 L 271.605469 620.21875 C 271.605469 616.40625 268.46875 613.246094 264.636719 613.246094 Z M 264.636719 613.242188 "/>
</g>
<path style=" stroke:none;fill-rule:evenodd;fill:rgb(99.21875%,98.039246%,96.078491%);fill-opacity:1;" d="M 351 661.796875 C 344.992188 663.753906 315.261719 663.582031 307.960938 663.582031 C 307.960938 671.933594 317.617188 674.582031 323.515625 675.089844 C 333.246094 675.929688 350.070312 675.175781 354.496094 671.5 C 356.628906 669.730469 358.667969 666.792969 358.535156 664.730469 C 358.355469 662 355.148438 660.4375 350.996094 661.792969 Z M 351 661.796875 "/>
<path style=" stroke:none;fill-rule:evenodd;fill:rgb(99.21875%,98.039246%,96.078491%);fill-opacity:1;" d="M 340.679688 581.65625 C 348.390625 581.65625 354.679688 575.367188 354.679688 567.660156 C 354.679688 559.949219 348.390625 553.664062 340.679688 553.664062 C 332.964844 553.664062 326.675781 559.949219 326.675781 567.660156 C 326.675781 575.367188 332.964844 581.65625 340.675781 581.65625 Z M 340.679688 581.65625 "/>
<path style=" stroke:none;fill-rule:evenodd;fill:rgb(99.21875%,98.039246%,96.078491%);fill-opacity:1;" d="M 293.476562 724.003906 C 293.71875 724.039062 294.066406 724.035156 294.308594 724.039062 C 294.832031 724.050781 295.359375 724.050781 295.878906 724.050781 C 296.382812 724.050781 296.890625 724.039062 297.394531 724.03125 C 297.636719 724.023438 298 724.023438 298.238281 723.976562 C 298.453125 723.9375 298.558594 723.6875 298.558594 723.488281 C 298.566406 721.867188 298.722656 720.242188 298.683594 718.617188 C 298.640625 717.160156 298.511719 715.6875 298.367188 714.230469 C 298.253906 714.304688 298.152344 714.375 298.082031 714.410156 C 295.113281 716.230469 291.980469 716.988281 288.667969 715.636719 C 286.574219 714.789062 286.222656 712.496094 283.757812 712.027344 C 279.3125 716.898438 272.722656 718.171875 266.691406 720.058594 C 266.441406 720.136719 265.5 720.363281 265.332031 720.53125 C 265.210938 720.65625 265.207031 720.996094 265.207031 721.152344 L 265.207031 722.921875 C 266.050781 723.457031 267.777344 723.789062 268.636719 723.925781 C 271.007812 724.3125 273.511719 724.421875 275.914062 724.433594 C 278.121094 724.453125 280.335938 724.378906 282.542969 724.230469 C 283.378906 724.167969 284.1875 724.050781 285.011719 723.898438 C 286.066406 723.699219 287.101562 723.480469 288.15625 723.304688 C 289.628906 723.074219 291.105469 722.941406 292.59375 722.890625 L 293 722.875 L 293.144531 723.253906 C 293.199219 723.363281 293.359375 723.957031 293.484375 723.996094 Z M 293.476562 724.003906 "/>
<path style=" stroke:none;fill-rule:evenodd;fill:rgb(99.21875%,98.039246%,96.078491%);fill-opacity:1;" d="M 298.40625 667.765625 C 298.988281 679.019531 300.824219 684.707031 297.890625 701.96875 C 297.324219 705.277344 296.765625 708.871094 296.585938 712.660156 C 294.148438 713.816406 291.609375 714.171875 288.945312 713.179688 C 284.078125 701.667969 283.832031 688.625 284.855469 676.621094 C 285.453125 669.644531 284.019531 663.523438 286.542969 661.160156 C 286.929688 660.425781 287.503906 659.699219 288.320312 659.007812 C 296.023438 652.46875 318.421875 648.8125 335.144531 651.03125 L 335.085938 650.925781 C 331.800781 645.664062 330.507812 627.460938 330.113281 614.398438 L 328.613281 616.023438 C 320.785156 624.265625 321.238281 627.800781 309.972656 627.800781 C 304.777344 627.800781 289.796875 627.304688 289.46875 627.277344 C 289.46875 626.679688 289.414062 626.035156 289.332031 625.367188 L 288.484375 625.476562 C 286.023438 625.824219 286.664062 626.222656 284.550781 626.894531 C 272.039062 630.871094 278.351562 626.1875 278.527344 624.507812 C 274.582031 624.023438 275.074219 627.308594 272.324219 627.582031 C 270.875 627.722656 273.925781 623.492188 274.164062 622.917969 C 274.753906 621.46875 276.1875 620.535156 276.753906 620.234375 C 279.550781 618.726562 285.03125 619.242188 287.027344 619.648438 C 287.628906 619.773438 288.128906 619.960938 288.582031 620.15625 C 288.550781 619.8125 288.535156 619.484375 288.535156 619.175781 C 288.535156 616.675781 301.523438 618.832031 303.867188 618.660156 C 312.605469 618.027344 315.105469 615.132812 317.609375 612.308594 C 321.003906 608.484375 326.613281 601.214844 331.160156 595.074219 C 332.648438 590.050781 335.679688 585.386719 340.964844 584.90625 C 351.367188 583.957031 350.808594 596.210938 350.230469 604.222656 C 349.214844 618.253906 349.945312 633.15625 352.730469 649.523438 C 353.585938 654.554688 353.191406 658.898438 350.996094 661.796875 C 343.507812 671.675781 310.03125 667.992188 298.398438 667.761719 Z M 298.40625 667.765625 "/>
<path style=" stroke:none;fill-rule:evenodd;fill:rgb(99.21875%,98.039246%,96.078491%);fill-opacity:1;" d="M 358.441406 664.699219 C 357.722656 659.523438 356.699219 656.835938 357.140625 651.152344 C 357.765625 643.148438 359.199219 627.523438 360.761719 619.234375 C 361.769531 613.859375 357.261719 616.632812 355.550781 618.996094 C 349.890625 626.804688 348.394531 651.1875 348.335938 653.839844 L 348.324219 654.320312 C 348.21875 658.988281 347.128906 668.109375 358.125 665.03125 C 358.382812 664.957031 358.476562 664.929688 358.445312 664.699219 Z M 358.441406 664.699219 "/>
<path style=" stroke:none;fill-rule:evenodd;fill:rgb(99.21875%,98.039246%,96.078491%);fill-opacity:1;" d="M 252.113281 613.242188 L 224.253906 613.242188 L 224.253906 613.238281 C 224.253906 611.679688 225.527344 610.402344 227.089844 610.402344 L 230.871094 610.402344 C 231.464844 602.113281 237.058594 569.75 252.058594 567.722656 L 252.058594 537.992188 C 252.058594 536.304688 253.433594 534.921875 255.128906 534.921875 L 255.132812 534.921875 C 256.820312 534.921875 258.199219 536.304688 258.199219 537.992188 L 258.199219 594.101562 C 258.199219 595.796875 256.820312 597.175781 255.132812 597.175781 L 255.128906 597.175781 C 253.433594 597.175781 252.058594 595.796875 252.058594 594.101562 L 252.058594 577.894531 C 244.703125 580.40625 240.910156 602.578125 242.96875 608.945312 C 243.535156 609.929688 243.113281 609.429688 244.25 610.414062 L 249.277344 610.414062 C 250.839844 610.414062 252.113281 611.6875 252.113281 613.25 L 252.113281 613.253906 Z M 252.113281 613.242188 "/>
<g clip-path="url(#clip11)" clip-rule="nonzero">
<path style=" stroke:none;fill-rule:evenodd;fill:rgb(99.21875%,98.039246%,96.078491%);fill-opacity:1;" d="M 276.089844 523.117188 L 278.890625 520.363281 L 298.109375 539.851562 L 332.605469 505.367188 L 335.382812 508.144531 L 298.082031 545.429688 C 291.886719 539.230469 282.265625 529.394531 276.089844 523.117188 Z M 276.089844 523.117188 "/>
</g>
<path style=" stroke:none;fill-rule:nonzero;fill:rgb(99.21875%,98.039246%,96.078491%);fill-opacity:1;" d="M 364.75 587.101562 L 366.933594 587.101562 L 366.933594 658.203125 L 364.75 658.203125 Z M 364.75 587.101562 "/>
<g clip-path="url(#clip12)" clip-rule="nonzero">
<path style=" stroke:none;fill-rule:nonzero;fill:rgb(99.21875%,98.039246%,96.078491%);fill-opacity:1;" d="M 361.597656 585.617188 L 370.078125 585.617188 L 370.078125 587.351562 L 361.597656 587.351562 Z M 361.597656 585.617188 "/>
</g>
<g clip-path="url(#clip13)" clip-rule="nonzero">
<path style=" stroke:none;fill-rule:nonzero;fill:rgb(99.21875%,98.039246%,96.078491%);fill-opacity:1;" d="M 361.597656 657.644531 L 370.078125 657.644531 L 370.078125 659.378906 L 361.597656 659.378906 Z M 361.597656 657.644531 "/>
</g>
<path style=" stroke:none;fill-rule:nonzero;fill:rgb(99.21875%,98.039246%,96.078491%);fill-opacity:1;" d="M 263.363281 565.679688 L 321.820312 565.679688 L 321.820312 567.863281 L 263.363281 567.863281 Z M 263.363281 565.679688 "/>
<path style=" stroke:none;fill-rule:nonzero;fill:rgb(99.21875%,98.039246%,96.078491%);fill-opacity:1;" d="M 261.875 562.539062 L 263.609375 562.539062 L 263.609375 571.015625 L 261.875 571.015625 Z M 261.875 562.539062 "/>
<path style=" stroke:none;fill-rule:nonzero;fill:rgb(99.21875%,98.039246%,96.078491%);fill-opacity:1;" d="M 321.546875 562.539062 L 323.28125 562.539062 L 323.28125 571.015625 L 321.546875 571.015625 Z M 321.546875 562.539062 "/>
</g>
</svg>
