<?xml version="1.0" encoding="UTF-8"?>
<svg xmlns="http://www.w3.org/2000/svg" xmlns:xlink="http://www.w3.org/1999/xlink" width="595.5pt" height="842.249979pt" viewBox="0 0 595.5 842.249979" version="1.2">
<defs>
<clipPath id="clip1">
  <path d="M 404 330 L 482 330 L 482 440 L 404 440 Z M 404 330 "/>
</clipPath>
<clipPath id="clip2">
  <path d="M -17.496094 321.382812 L 366.167969 92.058594 L 595.492188 475.726562 L 211.824219 705.046875 Z M -17.496094 321.382812 "/>
</clipPath>
<clipPath id="clip3">
  <path d="M -17.496094 321.382812 L 366.167969 92.058594 L 595.492188 475.726562 L 211.824219 705.046875 Z M -17.496094 321.382812 "/>
</clipPath>
<clipPath id="clip4">
  <path d="M -17.496094 321.382812 L 366.320312 91.96875 L 595.730469 475.789062 L 211.914062 705.199219 Z M -17.496094 321.382812 "/>
</clipPath>
<clipPath id="clip5">
  <path d="M 395 337 L 475 337 L 475 445 L 395 445 Z M 395 337 "/>
</clipPath>
<clipPath id="clip6">
  <path d="M -17.496094 321.382812 L 366.167969 92.058594 L 595.492188 475.726562 L 211.824219 705.046875 Z M -17.496094 321.382812 "/>
</clipPath>
<clipPath id="clip7">
  <path d="M -17.496094 321.382812 L 366.167969 92.058594 L 595.492188 475.726562 L 211.824219 705.046875 Z M -17.496094 321.382812 "/>
</clipPath>
<clipPath id="clip8">
  <path d="M -17.496094 321.382812 L 366.320312 91.96875 L 595.730469 475.789062 L 211.914062 705.199219 Z M -17.496094 321.382812 "/>
</clipPath>
<clipPath id="clip9">
  <path d="M 401 335 L 480 335 L 480 442 L 401 442 Z M 401 335 "/>
</clipPath>
<clipPath id="clip10">
  <path d="M -17.496094 321.382812 L 366.167969 92.058594 L 595.492188 475.726562 L 211.824219 705.046875 Z M -17.496094 321.382812 "/>
</clipPath>
<clipPath id="clip11">
  <path d="M -17.496094 321.382812 L 366.167969 92.058594 L 595.492188 475.726562 L 211.824219 705.046875 Z M -17.496094 321.382812 "/>
</clipPath>
<clipPath id="clip12">
  <path d="M -17.496094 321.382812 L 366.320312 91.96875 L 595.730469 475.789062 L 211.914062 705.199219 Z M -17.496094 321.382812 "/>
</clipPath>
<clipPath id="clip13">
  <path d="M 486 458 L 498 458 L 498 467 L 486 467 Z M 486 458 "/>
</clipPath>
<clipPath id="clip14">
  <path d="M -17.496094 321.382812 L 366.167969 92.058594 L 595.492188 475.726562 L 211.824219 705.046875 Z M -17.496094 321.382812 "/>
</clipPath>
<clipPath id="clip15">
  <path d="M -17.496094 321.382812 L 366.167969 92.058594 L 595.492188 475.726562 L 211.824219 705.046875 Z M -17.496094 321.382812 "/>
</clipPath>
<clipPath id="clip16">
  <path d="M -17.496094 321.382812 L 366.320312 91.96875 L 595.730469 475.789062 L 211.914062 705.199219 Z M -17.496094 321.382812 "/>
</clipPath>
<clipPath id="clip17">
  <path d="M 482 441 L 497 441 L 497 461 L 482 461 Z M 482 441 "/>
</clipPath>
<clipPath id="clip18">
  <path d="M -17.496094 321.382812 L 366.167969 92.058594 L 595.492188 475.726562 L 211.824219 705.046875 Z M -17.496094 321.382812 "/>
</clipPath>
<clipPath id="clip19">
  <path d="M -17.496094 321.382812 L 366.167969 92.058594 L 595.492188 475.726562 L 211.824219 705.046875 Z M -17.496094 321.382812 "/>
</clipPath>
<clipPath id="clip20">
  <path d="M -17.496094 321.382812 L 366.320312 91.96875 L 595.730469 475.789062 L 211.914062 705.199219 Z M -17.496094 321.382812 "/>
</clipPath>
<clipPath id="clip21">
  <path d="M 475 446 L 491 446 L 491 466 L 475 466 Z M 475 446 "/>
</clipPath>
<clipPath id="clip22">
  <path d="M -17.496094 321.382812 L 366.167969 92.058594 L 595.492188 475.726562 L 211.824219 705.046875 Z M -17.496094 321.382812 "/>
</clipPath>
<clipPath id="clip23">
  <path d="M -17.496094 321.382812 L 366.167969 92.058594 L 595.492188 475.726562 L 211.824219 705.046875 Z M -17.496094 321.382812 "/>
</clipPath>
<clipPath id="clip24">
  <path d="M -17.496094 321.382812 L 366.320312 91.96875 L 595.730469 475.789062 L 211.914062 705.199219 Z M -17.496094 321.382812 "/>
</clipPath>
<clipPath id="clip25">
  <path d="M 478 443 L 495 443 L 495 464 L 478 464 Z M 478 443 "/>
</clipPath>
<clipPath id="clip26">
  <path d="M -17.496094 321.382812 L 366.167969 92.058594 L 595.492188 475.726562 L 211.824219 705.046875 Z M -17.496094 321.382812 "/>
</clipPath>
<clipPath id="clip27">
  <path d="M -17.496094 321.382812 L 366.167969 92.058594 L 595.492188 475.726562 L 211.824219 705.046875 Z M -17.496094 321.382812 "/>
</clipPath>
<clipPath id="clip28">
  <path d="M -17.496094 321.382812 L 366.320312 91.96875 L 595.730469 475.789062 L 211.914062 705.199219 Z M -17.496094 321.382812 "/>
</clipPath>
<clipPath id="clip29">
  <path d="M 475 438 L 483 438 L 483 447 L 475 447 Z M 475 438 "/>
</clipPath>
<clipPath id="clip30">
  <path d="M -17.496094 321.382812 L 366.167969 92.058594 L 595.492188 475.726562 L 211.824219 705.046875 Z M -17.496094 321.382812 "/>
</clipPath>
<clipPath id="clip31">
  <path d="M -17.496094 321.382812 L 366.167969 92.058594 L 595.492188 475.726562 L 211.824219 705.046875 Z M -17.496094 321.382812 "/>
</clipPath>
<clipPath id="clip32">
  <path d="M -17.496094 321.382812 L 366.320312 91.96875 L 595.730469 475.789062 L 211.914062 705.199219 Z M -17.496094 321.382812 "/>
</clipPath>
<clipPath id="clip33">
  <path d="M 479 437 L 485 437 L 485 444 L 479 444 Z M 479 437 "/>
</clipPath>
<clipPath id="clip34">
  <path d="M -17.496094 321.382812 L 366.167969 92.058594 L 595.492188 475.726562 L 211.824219 705.046875 Z M -17.496094 321.382812 "/>
</clipPath>
<clipPath id="clip35">
  <path d="M -17.496094 321.382812 L 366.167969 92.058594 L 595.492188 475.726562 L 211.824219 705.046875 Z M -17.496094 321.382812 "/>
</clipPath>
<clipPath id="clip36">
  <path d="M -17.496094 321.382812 L 366.320312 91.96875 L 595.730469 475.789062 L 211.914062 705.199219 Z M -17.496094 321.382812 "/>
</clipPath>
<clipPath id="clip37">
  <path d="M 471 441 L 479 441 L 479 449 L 471 449 Z M 471 441 "/>
</clipPath>
<clipPath id="clip38">
  <path d="M -17.496094 321.382812 L 366.167969 92.058594 L 595.492188 475.726562 L 211.824219 705.046875 Z M -17.496094 321.382812 "/>
</clipPath>
<clipPath id="clip39">
  <path d="M -17.496094 321.382812 L 366.167969 92.058594 L 595.492188 475.726562 L 211.824219 705.046875 Z M -17.496094 321.382812 "/>
</clipPath>
<clipPath id="clip40">
  <path d="M -17.496094 321.382812 L 366.320312 91.96875 L 595.730469 475.789062 L 211.914062 705.199219 Z M -17.496094 321.382812 "/>
</clipPath>
<clipPath id="clip41">
  <path d="M 388 317 L 402 317 L 402 339 L 388 339 Z M 388 317 "/>
</clipPath>
<clipPath id="clip42">
  <path d="M -17.496094 321.382812 L 366.167969 92.058594 L 595.492188 475.726562 L 211.824219 705.046875 Z M -17.496094 321.382812 "/>
</clipPath>
<clipPath id="clip43">
  <path d="M -17.496094 321.382812 L 366.167969 92.058594 L 595.492188 475.726562 L 211.824219 705.046875 Z M -17.496094 321.382812 "/>
</clipPath>
<clipPath id="clip44">
  <path d="M -17.496094 321.382812 L 366.320312 91.96875 L 595.730469 475.789062 L 211.914062 705.199219 Z M -17.496094 321.382812 "/>
</clipPath>
<clipPath id="clip45">
  <path d="M 388 317 L 406 317 L 406 339 L 388 339 Z M 388 317 "/>
</clipPath>
<clipPath id="clip46">
  <path d="M -17.496094 321.382812 L 366.167969 92.058594 L 595.492188 475.726562 L 211.824219 705.046875 Z M -17.496094 321.382812 "/>
</clipPath>
<clipPath id="clip47">
  <path d="M -17.496094 321.382812 L 366.167969 92.058594 L 595.492188 475.726562 L 211.824219 705.046875 Z M -17.496094 321.382812 "/>
</clipPath>
<clipPath id="clip48">
  <path d="M -17.496094 321.382812 L 366.320312 91.96875 L 595.730469 475.789062 L 211.914062 705.199219 Z M -17.496094 321.382812 "/>
</clipPath>
<clipPath id="clip49">
  <path d="M 389 317 L 407 317 L 407 336 L 389 336 Z M 389 317 "/>
</clipPath>
<clipPath id="clip50">
  <path d="M -17.496094 321.382812 L 366.167969 92.058594 L 595.492188 475.726562 L 211.824219 705.046875 Z M -17.496094 321.382812 "/>
</clipPath>
<clipPath id="clip51">
  <path d="M -17.496094 321.382812 L 366.167969 92.058594 L 595.492188 475.726562 L 211.824219 705.046875 Z M -17.496094 321.382812 "/>
</clipPath>
<clipPath id="clip52">
  <path d="M -17.496094 321.382812 L 366.320312 91.96875 L 595.730469 475.789062 L 211.914062 705.199219 Z M -17.496094 321.382812 "/>
</clipPath>
<clipPath id="clip53">
  <path d="M 388 316 L 393 316 L 393 323 L 388 323 Z M 388 316 "/>
</clipPath>
<clipPath id="clip54">
  <path d="M -17.496094 321.382812 L 366.167969 92.058594 L 595.492188 475.726562 L 211.824219 705.046875 Z M -17.496094 321.382812 "/>
</clipPath>
<clipPath id="clip55">
  <path d="M -17.496094 321.382812 L 366.167969 92.058594 L 595.492188 475.726562 L 211.824219 705.046875 Z M -17.496094 321.382812 "/>
</clipPath>
<clipPath id="clip56">
  <path d="M -17.496094 321.382812 L 366.320312 91.96875 L 595.730469 475.789062 L 211.914062 705.199219 Z M -17.496094 321.382812 "/>
</clipPath>
<clipPath id="clip57">
  <path d="M 99 225 L 467 225 L 467 618 L 99 618 Z M 99 225 "/>
</clipPath>
<clipPath id="clip58">
  <path d="M -17.496094 321.382812 L 366.167969 92.058594 L 595.492188 475.726562 L 211.824219 705.046875 Z M -17.496094 321.382812 "/>
</clipPath>
<clipPath id="clip59">
  <path d="M -17.496094 321.382812 L 366.167969 92.058594 L 595.492188 475.726562 L 211.824219 705.046875 Z M -17.496094 321.382812 "/>
</clipPath>
<clipPath id="clip60">
  <path d="M -17.496094 321.382812 L 366.320312 91.96875 L 595.730469 475.789062 L 211.914062 705.199219 Z M -17.496094 321.382812 "/>
</clipPath>
<clipPath id="clip61">
  <path d="M 256 250 L 264 250 L 264 262 L 256 262 Z M 256 250 "/>
</clipPath>
<clipPath id="clip62">
  <path d="M -17.496094 321.382812 L 366.167969 92.058594 L 595.492188 475.726562 L 211.824219 705.046875 Z M -17.496094 321.382812 "/>
</clipPath>
<clipPath id="clip63">
  <path d="M -17.496094 321.382812 L 366.167969 92.058594 L 595.492188 475.726562 L 211.824219 705.046875 Z M -17.496094 321.382812 "/>
</clipPath>
<clipPath id="clip64">
  <path d="M -17.496094 321.382812 L 366.320312 91.96875 L 595.730469 475.789062 L 211.914062 705.199219 Z M -17.496094 321.382812 "/>
</clipPath>
<clipPath id="clip65">
  <path d="M 123 244 L 445 244 L 445 591 L 123 591 Z M 123 244 "/>
</clipPath>
<clipPath id="clip66">
  <path d="M -17.496094 321.382812 L 366.167969 92.058594 L 595.492188 475.726562 L 211.824219 705.046875 Z M -17.496094 321.382812 "/>
</clipPath>
<clipPath id="clip67">
  <path d="M -17.496094 321.382812 L 366.167969 92.058594 L 595.492188 475.726562 L 211.824219 705.046875 Z M -17.496094 321.382812 "/>
</clipPath>
<clipPath id="clip68">
  <path d="M -17.496094 321.382812 L 366.320312 91.96875 L 595.730469 475.789062 L 211.914062 705.199219 Z M -17.496094 321.382812 "/>
</clipPath>
<clipPath id="clip69">
  <path d="M 120 242 L 440 242 L 440 589 L 120 589 Z M 120 242 "/>
</clipPath>
<clipPath id="clip70">
  <path d="M -17.496094 321.382812 L 366.167969 92.058594 L 595.492188 475.726562 L 211.824219 705.046875 Z M -17.496094 321.382812 "/>
</clipPath>
<clipPath id="clip71">
  <path d="M -17.496094 321.382812 L 366.167969 92.058594 L 595.492188 475.726562 L 211.824219 705.046875 Z M -17.496094 321.382812 "/>
</clipPath>
<clipPath id="clip72">
  <path d="M -17.496094 321.382812 L 366.320312 91.96875 L 595.730469 475.789062 L 211.914062 705.199219 Z M -17.496094 321.382812 "/>
</clipPath>
<clipPath id="clip73">
  <path d="M 171 338 L 185 338 L 185 355 L 171 355 Z M 171 338 "/>
</clipPath>
<clipPath id="clip74">
  <path d="M -17.496094 321.382812 L 366.167969 92.058594 L 595.492188 475.726562 L 211.824219 705.046875 Z M -17.496094 321.382812 "/>
</clipPath>
<clipPath id="clip75">
  <path d="M -17.496094 321.382812 L 366.167969 92.058594 L 595.492188 475.726562 L 211.824219 705.046875 Z M -17.496094 321.382812 "/>
</clipPath>
<clipPath id="clip76">
  <path d="M -17.496094 321.382812 L 366.320312 91.96875 L 595.730469 475.789062 L 211.914062 705.199219 Z M -17.496094 321.382812 "/>
</clipPath>
<clipPath id="clip77">
  <path d="M 184 334 L 195 334 L 195 349 L 184 349 Z M 184 334 "/>
</clipPath>
<clipPath id="clip78">
  <path d="M -17.496094 321.382812 L 366.167969 92.058594 L 595.492188 475.726562 L 211.824219 705.046875 Z M -17.496094 321.382812 "/>
</clipPath>
<clipPath id="clip79">
  <path d="M -17.496094 321.382812 L 366.167969 92.058594 L 595.492188 475.726562 L 211.824219 705.046875 Z M -17.496094 321.382812 "/>
</clipPath>
<clipPath id="clip80">
  <path d="M -17.496094 321.382812 L 366.320312 91.96875 L 595.730469 475.789062 L 211.914062 705.199219 Z M -17.496094 321.382812 "/>
</clipPath>
<clipPath id="clip81">
  <path d="M 205 313 L 220 313 L 220 338 L 205 338 Z M 205 313 "/>
</clipPath>
<clipPath id="clip82">
  <path d="M -17.496094 321.382812 L 366.167969 92.058594 L 595.492188 475.726562 L 211.824219 705.046875 Z M -17.496094 321.382812 "/>
</clipPath>
<clipPath id="clip83">
  <path d="M -17.496094 321.382812 L 366.167969 92.058594 L 595.492188 475.726562 L 211.824219 705.046875 Z M -17.496094 321.382812 "/>
</clipPath>
<clipPath id="clip84">
  <path d="M -17.496094 321.382812 L 366.320312 91.96875 L 595.730469 475.789062 L 211.914062 705.199219 Z M -17.496094 321.382812 "/>
</clipPath>
<clipPath id="clip85">
  <path d="M 218 314 L 229 314 L 229 329 L 218 329 Z M 218 314 "/>
</clipPath>
<clipPath id="clip86">
  <path d="M -17.496094 321.382812 L 366.167969 92.058594 L 595.492188 475.726562 L 211.824219 705.046875 Z M -17.496094 321.382812 "/>
</clipPath>
<clipPath id="clip87">
  <path d="M -17.496094 321.382812 L 366.167969 92.058594 L 595.492188 475.726562 L 211.824219 705.046875 Z M -17.496094 321.382812 "/>
</clipPath>
<clipPath id="clip88">
  <path d="M -17.496094 321.382812 L 366.320312 91.96875 L 595.730469 475.789062 L 211.914062 705.199219 Z M -17.496094 321.382812 "/>
</clipPath>
<clipPath id="clip89">
  <path d="M 235 297 L 245 297 L 245 318 L 235 318 Z M 235 297 "/>
</clipPath>
<clipPath id="clip90">
  <path d="M -17.496094 321.382812 L 366.167969 92.058594 L 595.492188 475.726562 L 211.824219 705.046875 Z M -17.496094 321.382812 "/>
</clipPath>
<clipPath id="clip91">
  <path d="M -17.496094 321.382812 L 366.167969 92.058594 L 595.492188 475.726562 L 211.824219 705.046875 Z M -17.496094 321.382812 "/>
</clipPath>
<clipPath id="clip92">
  <path d="M -17.496094 321.382812 L 366.320312 91.96875 L 595.730469 475.789062 L 211.914062 705.199219 Z M -17.496094 321.382812 "/>
</clipPath>
<clipPath id="clip93">
  <path d="M 241 294 L 251 294 L 251 314 L 241 314 Z M 241 294 "/>
</clipPath>
<clipPath id="clip94">
  <path d="M -17.496094 321.382812 L 366.167969 92.058594 L 595.492188 475.726562 L 211.824219 705.046875 Z M -17.496094 321.382812 "/>
</clipPath>
<clipPath id="clip95">
  <path d="M -17.496094 321.382812 L 366.167969 92.058594 L 595.492188 475.726562 L 211.824219 705.046875 Z M -17.496094 321.382812 "/>
</clipPath>
<clipPath id="clip96">
  <path d="M -17.496094 321.382812 L 366.320312 91.96875 L 595.730469 475.789062 L 211.914062 705.199219 Z M -17.496094 321.382812 "/>
</clipPath>
<clipPath id="clip97">
  <path d="M 249 295 L 261 295 L 261 312 L 249 312 Z M 249 295 "/>
</clipPath>
<clipPath id="clip98">
  <path d="M -17.496094 321.382812 L 366.167969 92.058594 L 595.492188 475.726562 L 211.824219 705.046875 Z M -17.496094 321.382812 "/>
</clipPath>
<clipPath id="clip99">
  <path d="M -17.496094 321.382812 L 366.167969 92.058594 L 595.492188 475.726562 L 211.824219 705.046875 Z M -17.496094 321.382812 "/>
</clipPath>
<clipPath id="clip100">
  <path d="M -17.496094 321.382812 L 366.320312 91.96875 L 595.730469 475.789062 L 211.914062 705.199219 Z M -17.496094 321.382812 "/>
</clipPath>
<clipPath id="clip101">
  <path d="M 256 287 L 270 287 L 270 305 L 256 305 Z M 256 287 "/>
</clipPath>
<clipPath id="clip102">
  <path d="M -17.496094 321.382812 L 366.167969 92.058594 L 595.492188 475.726562 L 211.824219 705.046875 Z M -17.496094 321.382812 "/>
</clipPath>
<clipPath id="clip103">
  <path d="M -17.496094 321.382812 L 366.167969 92.058594 L 595.492188 475.726562 L 211.824219 705.046875 Z M -17.496094 321.382812 "/>
</clipPath>
<clipPath id="clip104">
  <path d="M -17.496094 321.382812 L 366.320312 91.96875 L 595.730469 475.789062 L 211.914062 705.199219 Z M -17.496094 321.382812 "/>
</clipPath>
<clipPath id="clip105">
  <path d="M 268 287 L 276 287 L 276 299 L 268 299 Z M 268 287 "/>
</clipPath>
<clipPath id="clip106">
  <path d="M -17.496094 321.382812 L 366.167969 92.058594 L 595.492188 475.726562 L 211.824219 705.046875 Z M -17.496094 321.382812 "/>
</clipPath>
<clipPath id="clip107">
  <path d="M -17.496094 321.382812 L 366.167969 92.058594 L 595.492188 475.726562 L 211.824219 705.046875 Z M -17.496094 321.382812 "/>
</clipPath>
<clipPath id="clip108">
  <path d="M -17.496094 321.382812 L 366.320312 91.96875 L 595.730469 475.789062 L 211.914062 705.199219 Z M -17.496094 321.382812 "/>
</clipPath>
<clipPath id="clip109">
  <path d="M 157 380 L 171 380 L 171 394 L 157 394 Z M 157 380 "/>
</clipPath>
<clipPath id="clip110">
  <path d="M -17.496094 321.382812 L 366.167969 92.058594 L 595.492188 475.726562 L 211.824219 705.046875 Z M -17.496094 321.382812 "/>
</clipPath>
<clipPath id="clip111">
  <path d="M -17.496094 321.382812 L 366.167969 92.058594 L 595.492188 475.726562 L 211.824219 705.046875 Z M -17.496094 321.382812 "/>
</clipPath>
<clipPath id="clip112">
  <path d="M -17.496094 321.382812 L 366.320312 91.96875 L 595.730469 475.789062 L 211.914062 705.199219 Z M -17.496094 321.382812 "/>
</clipPath>
<clipPath id="clip113">
  <path d="M 167 396 L 181 396 L 181 410 L 167 410 Z M 167 396 "/>
</clipPath>
<clipPath id="clip114">
  <path d="M -17.496094 321.382812 L 366.167969 92.058594 L 595.492188 475.726562 L 211.824219 705.046875 Z M -17.496094 321.382812 "/>
</clipPath>
<clipPath id="clip115">
  <path d="M -17.496094 321.382812 L 366.167969 92.058594 L 595.492188 475.726562 L 211.824219 705.046875 Z M -17.496094 321.382812 "/>
</clipPath>
<clipPath id="clip116">
  <path d="M -17.496094 321.382812 L 366.320312 91.96875 L 595.730469 475.789062 L 211.914062 705.199219 Z M -17.496094 321.382812 "/>
</clipPath>
<clipPath id="clip117">
  <path d="M 176 412 L 190 412 L 190 426 L 176 426 Z M 176 412 "/>
</clipPath>
<clipPath id="clip118">
  <path d="M -17.496094 321.382812 L 366.167969 92.058594 L 595.492188 475.726562 L 211.824219 705.046875 Z M -17.496094 321.382812 "/>
</clipPath>
<clipPath id="clip119">
  <path d="M -17.496094 321.382812 L 366.167969 92.058594 L 595.492188 475.726562 L 211.824219 705.046875 Z M -17.496094 321.382812 "/>
</clipPath>
<clipPath id="clip120">
  <path d="M -17.496094 321.382812 L 366.320312 91.96875 L 595.730469 475.789062 L 211.914062 705.199219 Z M -17.496094 321.382812 "/>
</clipPath>
<clipPath id="clip121">
  <path d="M 186 428 L 200 428 L 200 442 L 186 442 Z M 186 428 "/>
</clipPath>
<clipPath id="clip122">
  <path d="M -17.496094 321.382812 L 366.167969 92.058594 L 595.492188 475.726562 L 211.824219 705.046875 Z M -17.496094 321.382812 "/>
</clipPath>
<clipPath id="clip123">
  <path d="M -17.496094 321.382812 L 366.167969 92.058594 L 595.492188 475.726562 L 211.824219 705.046875 Z M -17.496094 321.382812 "/>
</clipPath>
<clipPath id="clip124">
  <path d="M -17.496094 321.382812 L 366.320312 91.96875 L 595.730469 475.789062 L 211.914062 705.199219 Z M -17.496094 321.382812 "/>
</clipPath>
<clipPath id="clip125">
  <path d="M 195 444 L 209 444 L 209 458 L 195 458 Z M 195 444 "/>
</clipPath>
<clipPath id="clip126">
  <path d="M -17.496094 321.382812 L 366.167969 92.058594 L 595.492188 475.726562 L 211.824219 705.046875 Z M -17.496094 321.382812 "/>
</clipPath>
<clipPath id="clip127">
  <path d="M -17.496094 321.382812 L 366.167969 92.058594 L 595.492188 475.726562 L 211.824219 705.046875 Z M -17.496094 321.382812 "/>
</clipPath>
<clipPath id="clip128">
  <path d="M -17.496094 321.382812 L 366.320312 91.96875 L 595.730469 475.789062 L 211.914062 705.199219 Z M -17.496094 321.382812 "/>
</clipPath>
<clipPath id="clip129">
  <path d="M 205 460 L 219 460 L 219 474 L 205 474 Z M 205 460 "/>
</clipPath>
<clipPath id="clip130">
  <path d="M -17.496094 321.382812 L 366.167969 92.058594 L 595.492188 475.726562 L 211.824219 705.046875 Z M -17.496094 321.382812 "/>
</clipPath>
<clipPath id="clip131">
  <path d="M -17.496094 321.382812 L 366.167969 92.058594 L 595.492188 475.726562 L 211.824219 705.046875 Z M -17.496094 321.382812 "/>
</clipPath>
<clipPath id="clip132">
  <path d="M -17.496094 321.382812 L 366.320312 91.96875 L 595.730469 475.789062 L 211.914062 705.199219 Z M -17.496094 321.382812 "/>
</clipPath>
<clipPath id="clip133">
  <path d="M 214 477 L 228 477 L 228 490 L 214 490 Z M 214 477 "/>
</clipPath>
<clipPath id="clip134">
  <path d="M -17.496094 321.382812 L 366.167969 92.058594 L 595.492188 475.726562 L 211.824219 705.046875 Z M -17.496094 321.382812 "/>
</clipPath>
<clipPath id="clip135">
  <path d="M -17.496094 321.382812 L 366.167969 92.058594 L 595.492188 475.726562 L 211.824219 705.046875 Z M -17.496094 321.382812 "/>
</clipPath>
<clipPath id="clip136">
  <path d="M -17.496094 321.382812 L 366.320312 91.96875 L 595.730469 475.789062 L 211.914062 705.199219 Z M -17.496094 321.382812 "/>
</clipPath>
<clipPath id="clip137">
  <path d="M 224 493 L 238 493 L 238 506 L 224 506 Z M 224 493 "/>
</clipPath>
<clipPath id="clip138">
  <path d="M -17.496094 321.382812 L 366.167969 92.058594 L 595.492188 475.726562 L 211.824219 705.046875 Z M -17.496094 321.382812 "/>
</clipPath>
<clipPath id="clip139">
  <path d="M -17.496094 321.382812 L 366.167969 92.058594 L 595.492188 475.726562 L 211.824219 705.046875 Z M -17.496094 321.382812 "/>
</clipPath>
<clipPath id="clip140">
  <path d="M -17.496094 321.382812 L 366.320312 91.96875 L 595.730469 475.789062 L 211.914062 705.199219 Z M -17.496094 321.382812 "/>
</clipPath>
<clipPath id="clip141">
  <path d="M 234 509 L 247 509 L 247 523 L 234 523 Z M 234 509 "/>
</clipPath>
<clipPath id="clip142">
  <path d="M -17.496094 321.382812 L 366.167969 92.058594 L 595.492188 475.726562 L 211.824219 705.046875 Z M -17.496094 321.382812 "/>
</clipPath>
<clipPath id="clip143">
  <path d="M -17.496094 321.382812 L 366.167969 92.058594 L 595.492188 475.726562 L 211.824219 705.046875 Z M -17.496094 321.382812 "/>
</clipPath>
<clipPath id="clip144">
  <path d="M -17.496094 321.382812 L 366.320312 91.96875 L 595.730469 475.789062 L 211.914062 705.199219 Z M -17.496094 321.382812 "/>
</clipPath>
<clipPath id="clip145">
  <path d="M 243 525 L 257 525 L 257 539 L 243 539 Z M 243 525 "/>
</clipPath>
<clipPath id="clip146">
  <path d="M -17.496094 321.382812 L 366.167969 92.058594 L 595.492188 475.726562 L 211.824219 705.046875 Z M -17.496094 321.382812 "/>
</clipPath>
<clipPath id="clip147">
  <path d="M -17.496094 321.382812 L 366.167969 92.058594 L 595.492188 475.726562 L 211.824219 705.046875 Z M -17.496094 321.382812 "/>
</clipPath>
<clipPath id="clip148">
  <path d="M -17.496094 321.382812 L 366.320312 91.96875 L 595.730469 475.789062 L 211.914062 705.199219 Z M -17.496094 321.382812 "/>
</clipPath>
<clipPath id="clip149">
  <path d="M 253 541 L 266 541 L 266 555 L 253 555 Z M 253 541 "/>
</clipPath>
<clipPath id="clip150">
  <path d="M -17.496094 321.382812 L 366.167969 92.058594 L 595.492188 475.726562 L 211.824219 705.046875 Z M -17.496094 321.382812 "/>
</clipPath>
<clipPath id="clip151">
  <path d="M -17.496094 321.382812 L 366.167969 92.058594 L 595.492188 475.726562 L 211.824219 705.046875 Z M -17.496094 321.382812 "/>
</clipPath>
<clipPath id="clip152">
  <path d="M -17.496094 321.382812 L 366.320312 91.96875 L 595.730469 475.789062 L 211.914062 705.199219 Z M -17.496094 321.382812 "/>
</clipPath>
<clipPath id="clip153">
  <path d="M 262 557 L 276 557 L 276 571 L 262 571 Z M 262 557 "/>
</clipPath>
<clipPath id="clip154">
  <path d="M -17.496094 321.382812 L 366.167969 92.058594 L 595.492188 475.726562 L 211.824219 705.046875 Z M -17.496094 321.382812 "/>
</clipPath>
<clipPath id="clip155">
  <path d="M -17.496094 321.382812 L 366.167969 92.058594 L 595.492188 475.726562 L 211.824219 705.046875 Z M -17.496094 321.382812 "/>
</clipPath>
<clipPath id="clip156">
  <path d="M -17.496094 321.382812 L 366.320312 91.96875 L 595.730469 475.789062 L 211.914062 705.199219 Z M -17.496094 321.382812 "/>
</clipPath>
<clipPath id="clip157">
  <path d="M 173 300 L 309 300 L 309 383 L 173 383 Z M 173 300 "/>
</clipPath>
<clipPath id="clip158">
  <path d="M -17.496094 321.382812 L 366.167969 92.058594 L 595.492188 475.726562 L 211.824219 705.046875 Z M -17.496094 321.382812 "/>
</clipPath>
<clipPath id="clip159">
  <path d="M -17.496094 321.382812 L 366.167969 92.058594 L 595.492188 475.726562 L 211.824219 705.046875 Z M -17.496094 321.382812 "/>
</clipPath>
<clipPath id="clip160">
  <path d="M -17.496094 321.382812 L 366.320312 91.96875 L 595.730469 475.789062 L 211.914062 705.199219 Z M -17.496094 321.382812 "/>
</clipPath>
<clipPath id="clip161">
  <path d="M 182 329 L 298 329 L 298 400 L 182 400 Z M 182 329 "/>
</clipPath>
<clipPath id="clip162">
  <path d="M -17.496094 321.382812 L 366.167969 92.058594 L 595.492188 475.726562 L 211.824219 705.046875 Z M -17.496094 321.382812 "/>
</clipPath>
<clipPath id="clip163">
  <path d="M -17.496094 321.382812 L 366.167969 92.058594 L 595.492188 475.726562 L 211.824219 705.046875 Z M -17.496094 321.382812 "/>
</clipPath>
<clipPath id="clip164">
  <path d="M -17.496094 321.382812 L 366.320312 91.96875 L 595.730469 475.789062 L 211.914062 705.199219 Z M -17.496094 321.382812 "/>
</clipPath>
<clipPath id="clip165">
  <path d="M 192 334 L 325 334 L 325 415 L 192 415 Z M 192 334 "/>
</clipPath>
<clipPath id="clip166">
  <path d="M -17.496094 321.382812 L 366.167969 92.058594 L 595.492188 475.726562 L 211.824219 705.046875 Z M -17.496094 321.382812 "/>
</clipPath>
<clipPath id="clip167">
  <path d="M -17.496094 321.382812 L 366.167969 92.058594 L 595.492188 475.726562 L 211.824219 705.046875 Z M -17.496094 321.382812 "/>
</clipPath>
<clipPath id="clip168">
  <path d="M -17.496094 321.382812 L 366.320312 91.96875 L 595.730469 475.789062 L 211.914062 705.199219 Z M -17.496094 321.382812 "/>
</clipPath>
<clipPath id="clip169">
  <path d="M 201 357 L 322 357 L 322 431 L 201 431 Z M 201 357 "/>
</clipPath>
<clipPath id="clip170">
  <path d="M -17.496094 321.382812 L 366.167969 92.058594 L 595.492188 475.726562 L 211.824219 705.046875 Z M -17.496094 321.382812 "/>
</clipPath>
<clipPath id="clip171">
  <path d="M -17.496094 321.382812 L 366.167969 92.058594 L 595.492188 475.726562 L 211.824219 705.046875 Z M -17.496094 321.382812 "/>
</clipPath>
<clipPath id="clip172">
  <path d="M -17.496094 321.382812 L 366.320312 91.96875 L 595.730469 475.789062 L 211.914062 705.199219 Z M -17.496094 321.382812 "/>
</clipPath>
<clipPath id="clip173">
  <path d="M 210 418 L 254 418 L 254 448 L 210 448 Z M 210 418 "/>
</clipPath>
<clipPath id="clip174">
  <path d="M -17.496094 321.382812 L 366.167969 92.058594 L 595.492188 475.726562 L 211.824219 705.046875 Z M -17.496094 321.382812 "/>
</clipPath>
<clipPath id="clip175">
  <path d="M -17.496094 321.382812 L 366.167969 92.058594 L 595.492188 475.726562 L 211.824219 705.046875 Z M -17.496094 321.382812 "/>
</clipPath>
<clipPath id="clip176">
  <path d="M -17.496094 321.382812 L 366.320312 91.96875 L 595.730469 475.789062 L 211.914062 705.199219 Z M -17.496094 321.382812 "/>
</clipPath>
<clipPath id="clip177">
  <path d="M 258 399 L 288 399 L 288 420 L 258 420 Z M 258 399 "/>
</clipPath>
<clipPath id="clip178">
  <path d="M -17.496094 321.382812 L 366.167969 92.058594 L 595.492188 475.726562 L 211.824219 705.046875 Z M -17.496094 321.382812 "/>
</clipPath>
<clipPath id="clip179">
  <path d="M -17.496094 321.382812 L 366.167969 92.058594 L 595.492188 475.726562 L 211.824219 705.046875 Z M -17.496094 321.382812 "/>
</clipPath>
<clipPath id="clip180">
  <path d="M -17.496094 321.382812 L 366.320312 91.96875 L 595.730469 475.789062 L 211.914062 705.199219 Z M -17.496094 321.382812 "/>
</clipPath>
<clipPath id="clip181">
  <path d="M 293 370 L 337 370 L 337 399 L 293 399 Z M 293 370 "/>
</clipPath>
<clipPath id="clip182">
  <path d="M -17.496094 321.382812 L 366.167969 92.058594 L 595.492188 475.726562 L 211.824219 705.046875 Z M -17.496094 321.382812 "/>
</clipPath>
<clipPath id="clip183">
  <path d="M -17.496094 321.382812 L 366.167969 92.058594 L 595.492188 475.726562 L 211.824219 705.046875 Z M -17.496094 321.382812 "/>
</clipPath>
<clipPath id="clip184">
  <path d="M -17.496094 321.382812 L 366.320312 91.96875 L 595.730469 475.789062 L 211.914062 705.199219 Z M -17.496094 321.382812 "/>
</clipPath>
<clipPath id="clip185">
  <path d="M 220 378 L 359 378 L 359 463 L 220 463 Z M 220 378 "/>
</clipPath>
<clipPath id="clip186">
  <path d="M -17.496094 321.382812 L 366.167969 92.058594 L 595.492188 475.726562 L 211.824219 705.046875 Z M -17.496094 321.382812 "/>
</clipPath>
<clipPath id="clip187">
  <path d="M -17.496094 321.382812 L 366.167969 92.058594 L 595.492188 475.726562 L 211.824219 705.046875 Z M -17.496094 321.382812 "/>
</clipPath>
<clipPath id="clip188">
  <path d="M -17.496094 321.382812 L 366.320312 91.96875 L 595.730469 475.789062 L 211.914062 705.199219 Z M -17.496094 321.382812 "/>
</clipPath>
<clipPath id="clip189">
  <path d="M 230 407 L 347 407 L 347 479 L 230 479 Z M 230 407 "/>
</clipPath>
<clipPath id="clip190">
  <path d="M -17.496094 321.382812 L 366.167969 92.058594 L 595.492188 475.726562 L 211.824219 705.046875 Z M -17.496094 321.382812 "/>
</clipPath>
<clipPath id="clip191">
  <path d="M -17.496094 321.382812 L 366.167969 92.058594 L 595.492188 475.726562 L 211.824219 705.046875 Z M -17.496094 321.382812 "/>
</clipPath>
<clipPath id="clip192">
  <path d="M -17.496094 321.382812 L 366.320312 91.96875 L 595.730469 475.789062 L 211.914062 705.199219 Z M -17.496094 321.382812 "/>
</clipPath>
<clipPath id="clip193">
  <path d="M 240 416 L 370 416 L 370 496 L 240 496 Z M 240 416 "/>
</clipPath>
<clipPath id="clip194">
  <path d="M -17.496094 321.382812 L 366.167969 92.058594 L 595.492188 475.726562 L 211.824219 705.046875 Z M -17.496094 321.382812 "/>
</clipPath>
<clipPath id="clip195">
  <path d="M -17.496094 321.382812 L 366.167969 92.058594 L 595.492188 475.726562 L 211.824219 705.046875 Z M -17.496094 321.382812 "/>
</clipPath>
<clipPath id="clip196">
  <path d="M -17.496094 321.382812 L 366.320312 91.96875 L 595.730469 475.789062 L 211.914062 705.199219 Z M -17.496094 321.382812 "/>
</clipPath>
<clipPath id="clip197">
  <path d="M 249 427 L 388 427 L 388 512 L 249 512 Z M 249 427 "/>
</clipPath>
<clipPath id="clip198">
  <path d="M -17.496094 321.382812 L 366.167969 92.058594 L 595.492188 475.726562 L 211.824219 705.046875 Z M -17.496094 321.382812 "/>
</clipPath>
<clipPath id="clip199">
  <path d="M -17.496094 321.382812 L 366.167969 92.058594 L 595.492188 475.726562 L 211.824219 705.046875 Z M -17.496094 321.382812 "/>
</clipPath>
<clipPath id="clip200">
  <path d="M -17.496094 321.382812 L 366.320312 91.96875 L 595.730469 475.789062 L 211.914062 705.199219 Z M -17.496094 321.382812 "/>
</clipPath>
<clipPath id="clip201">
  <path d="M 258 471 L 349 471 L 349 528 L 258 528 Z M 258 471 "/>
</clipPath>
<clipPath id="clip202">
  <path d="M -17.496094 321.382812 L 366.167969 92.058594 L 595.492188 475.726562 L 211.824219 705.046875 Z M -17.496094 321.382812 "/>
</clipPath>
<clipPath id="clip203">
  <path d="M -17.496094 321.382812 L 366.167969 92.058594 L 595.492188 475.726562 L 211.824219 705.046875 Z M -17.496094 321.382812 "/>
</clipPath>
<clipPath id="clip204">
  <path d="M -17.496094 321.382812 L 366.320312 91.96875 L 595.730469 475.789062 L 211.914062 705.199219 Z M -17.496094 321.382812 "/>
</clipPath>
<clipPath id="clip205">
  <path d="M 277 530 L 322 530 L 322 560 L 277 560 Z M 277 530 "/>
</clipPath>
<clipPath id="clip206">
  <path d="M -17.496094 321.382812 L 366.167969 92.058594 L 595.492188 475.726562 L 211.824219 705.046875 Z M -17.496094 321.382812 "/>
</clipPath>
<clipPath id="clip207">
  <path d="M -17.496094 321.382812 L 366.167969 92.058594 L 595.492188 475.726562 L 211.824219 705.046875 Z M -17.496094 321.382812 "/>
</clipPath>
<clipPath id="clip208">
  <path d="M -17.496094 321.382812 L 366.320312 91.96875 L 595.730469 475.789062 L 211.914062 705.199219 Z M -17.496094 321.382812 "/>
</clipPath>
<clipPath id="clip209">
  <path d="M 328 499 L 373 499 L 373 529 L 328 529 Z M 328 499 "/>
</clipPath>
<clipPath id="clip210">
  <path d="M -17.496094 321.382812 L 366.167969 92.058594 L 595.492188 475.726562 L 211.824219 705.046875 Z M -17.496094 321.382812 "/>
</clipPath>
<clipPath id="clip211">
  <path d="M -17.496094 321.382812 L 366.167969 92.058594 L 595.492188 475.726562 L 211.824219 705.046875 Z M -17.496094 321.382812 "/>
</clipPath>
<clipPath id="clip212">
  <path d="M -17.496094 321.382812 L 366.320312 91.96875 L 595.730469 475.789062 L 211.914062 705.199219 Z M -17.496094 321.382812 "/>
</clipPath>
<clipPath id="clip213">
  <path d="M 268 459 L 406 459 L 406 544 L 268 544 Z M 268 459 "/>
</clipPath>
<clipPath id="clip214">
  <path d="M -17.496094 321.382812 L 366.167969 92.058594 L 595.492188 475.726562 L 211.824219 705.046875 Z M -17.496094 321.382812 "/>
</clipPath>
<clipPath id="clip215">
  <path d="M -17.496094 321.382812 L 366.167969 92.058594 L 595.492188 475.726562 L 211.824219 705.046875 Z M -17.496094 321.382812 "/>
</clipPath>
<clipPath id="clip216">
  <path d="M -17.496094 321.382812 L 366.320312 91.96875 L 595.730469 475.789062 L 211.914062 705.199219 Z M -17.496094 321.382812 "/>
</clipPath>
<clipPath id="clip217">
  <path d="M 164 389 L 176 389 L 176 407 L 164 407 Z M 164 389 "/>
</clipPath>
<clipPath id="clip218">
  <path d="M -17.496094 321.382812 L 366.167969 92.058594 L 595.492188 475.726562 L 211.824219 705.046875 Z M -17.496094 321.382812 "/>
</clipPath>
<clipPath id="clip219">
  <path d="M -17.496094 321.382812 L 366.167969 92.058594 L 595.492188 475.726562 L 211.824219 705.046875 Z M -17.496094 321.382812 "/>
</clipPath>
<clipPath id="clip220">
  <path d="M -17.496094 321.382812 L 366.320312 91.96875 L 595.730469 475.789062 L 211.914062 705.199219 Z M -17.496094 321.382812 "/>
</clipPath>
<clipPath id="clip221">
  <path d="M 174 405 L 186 405 L 186 423 L 174 423 Z M 174 405 "/>
</clipPath>
<clipPath id="clip222">
  <path d="M -17.496094 321.382812 L 366.167969 92.058594 L 595.492188 475.726562 L 211.824219 705.046875 Z M -17.496094 321.382812 "/>
</clipPath>
<clipPath id="clip223">
  <path d="M -17.496094 321.382812 L 366.167969 92.058594 L 595.492188 475.726562 L 211.824219 705.046875 Z M -17.496094 321.382812 "/>
</clipPath>
<clipPath id="clip224">
  <path d="M -17.496094 321.382812 L 366.320312 91.96875 L 595.730469 475.789062 L 211.914062 705.199219 Z M -17.496094 321.382812 "/>
</clipPath>
<clipPath id="clip225">
  <path d="M 183 421 L 195 421 L 195 439 L 183 439 Z M 183 421 "/>
</clipPath>
<clipPath id="clip226">
  <path d="M -17.496094 321.382812 L 366.167969 92.058594 L 595.492188 475.726562 L 211.824219 705.046875 Z M -17.496094 321.382812 "/>
</clipPath>
<clipPath id="clip227">
  <path d="M -17.496094 321.382812 L 366.167969 92.058594 L 595.492188 475.726562 L 211.824219 705.046875 Z M -17.496094 321.382812 "/>
</clipPath>
<clipPath id="clip228">
  <path d="M -17.496094 321.382812 L 366.320312 91.96875 L 595.730469 475.789062 L 211.914062 705.199219 Z M -17.496094 321.382812 "/>
</clipPath>
<clipPath id="clip229">
  <path d="M 193 437 L 205 437 L 205 455 L 193 455 Z M 193 437 "/>
</clipPath>
<clipPath id="clip230">
  <path d="M -17.496094 321.382812 L 366.167969 92.058594 L 595.492188 475.726562 L 211.824219 705.046875 Z M -17.496094 321.382812 "/>
</clipPath>
<clipPath id="clip231">
  <path d="M -17.496094 321.382812 L 366.167969 92.058594 L 595.492188 475.726562 L 211.824219 705.046875 Z M -17.496094 321.382812 "/>
</clipPath>
<clipPath id="clip232">
  <path d="M -17.496094 321.382812 L 366.320312 91.96875 L 595.730469 475.789062 L 211.914062 705.199219 Z M -17.496094 321.382812 "/>
</clipPath>
<clipPath id="clip233">
  <path d="M 155 373 L 166 373 L 166 391 L 155 391 Z M 155 373 "/>
</clipPath>
<clipPath id="clip234">
  <path d="M -17.496094 321.382812 L 366.167969 92.058594 L 595.492188 475.726562 L 211.824219 705.046875 Z M -17.496094 321.382812 "/>
</clipPath>
<clipPath id="clip235">
  <path d="M -17.496094 321.382812 L 366.167969 92.058594 L 595.492188 475.726562 L 211.824219 705.046875 Z M -17.496094 321.382812 "/>
</clipPath>
<clipPath id="clip236">
  <path d="M -17.496094 321.382812 L 366.320312 91.96875 L 595.730469 475.789062 L 211.914062 705.199219 Z M -17.496094 321.382812 "/>
</clipPath>
<clipPath id="clip237">
  <path d="M 145 247 L 267 247 L 267 335 L 145 335 Z M 145 247 "/>
</clipPath>
<clipPath id="clip238">
  <path d="M -17.496094 321.382812 L 366.167969 92.058594 L 595.492188 475.726562 L 211.824219 705.046875 Z M -17.496094 321.382812 "/>
</clipPath>
<clipPath id="clip239">
  <path d="M -17.496094 321.382812 L 366.167969 92.058594 L 595.492188 475.726562 L 211.824219 705.046875 Z M -17.496094 321.382812 "/>
</clipPath>
<clipPath id="clip240">
  <path d="M -17.496094 321.382812 L 366.320312 91.96875 L 595.730469 475.789062 L 211.914062 705.199219 Z M -17.496094 321.382812 "/>
</clipPath>
<clipPath id="clip241">
  <path d="M 143 247 L 266 247 L 266 335 L 143 335 Z M 143 247 "/>
</clipPath>
<clipPath id="clip242">
  <path d="M -17.496094 321.382812 L 366.167969 92.058594 L 595.492188 475.726562 L 211.824219 705.046875 Z M -17.496094 321.382812 "/>
</clipPath>
<clipPath id="clip243">
  <path d="M -17.496094 321.382812 L 366.167969 92.058594 L 595.492188 475.726562 L 211.824219 705.046875 Z M -17.496094 321.382812 "/>
</clipPath>
<clipPath id="clip244">
  <path d="M -17.496094 321.382812 L 366.320312 91.96875 L 595.730469 475.789062 L 211.914062 705.199219 Z M -17.496094 321.382812 "/>
</clipPath>
<clipPath id="clip245">
  <path d="M 215 248 L 253 248 L 253 272 L 215 272 Z M 215 248 "/>
</clipPath>
<clipPath id="clip246">
  <path d="M -17.496094 321.382812 L 366.167969 92.058594 L 595.492188 475.726562 L 211.824219 705.046875 Z M -17.496094 321.382812 "/>
</clipPath>
<clipPath id="clip247">
  <path d="M -17.496094 321.382812 L 366.167969 92.058594 L 595.492188 475.726562 L 211.824219 705.046875 Z M -17.496094 321.382812 "/>
</clipPath>
<clipPath id="clip248">
  <path d="M -17.496094 321.382812 L 366.320312 91.96875 L 595.730469 475.789062 L 211.914062 705.199219 Z M -17.496094 321.382812 "/>
</clipPath>
<clipPath id="clip249">
  <path d="M 146 290 L 183 290 L 183 314 L 146 314 Z M 146 290 "/>
</clipPath>
<clipPath id="clip250">
  <path d="M -17.496094 321.382812 L 366.167969 92.058594 L 595.492188 475.726562 L 211.824219 705.046875 Z M -17.496094 321.382812 "/>
</clipPath>
<clipPath id="clip251">
  <path d="M -17.496094 321.382812 L 366.167969 92.058594 L 595.492188 475.726562 L 211.824219 705.046875 Z M -17.496094 321.382812 "/>
</clipPath>
<clipPath id="clip252">
  <path d="M -17.496094 321.382812 L 366.320312 91.96875 L 595.730469 475.789062 L 211.914062 705.199219 Z M -17.496094 321.382812 "/>
</clipPath>
</defs>
<g id="surface1">
<g clip-path="url(#clip1)" clip-rule="nonzero">
<g clip-path="url(#clip2)" clip-rule="nonzero">
<g clip-path="url(#clip3)" clip-rule="nonzero">
<g clip-path="url(#clip4)" clip-rule="nonzero">
<path style=" stroke:none;fill-rule:nonzero;fill:rgb(45.489502%,16.079712%,57.649231%);fill-opacity:1;" d="M 405.476562 330.320312 L 481.535156 437.210938 L 478.964844 439.039062 L 404.785156 334.574219 L 405.476562 330.320312 "/>
</g>
</g>
</g>
</g>
<g clip-path="url(#clip5)" clip-rule="nonzero">
<g clip-path="url(#clip6)" clip-rule="nonzero">
<g clip-path="url(#clip7)" clip-rule="nonzero">
<g clip-path="url(#clip8)" clip-rule="nonzero">
<path style=" stroke:none;fill-rule:nonzero;fill:rgb(40.779114%,13.328552%,51.368713%);fill-opacity:1;" d="M 401.164062 338.164062 L 474.972656 441.882812 L 471.746094 444.175781 L 395.6875 337.289062 L 401.164062 338.164062 "/>
</g>
</g>
</g>
</g>
<g clip-path="url(#clip9)" clip-rule="nonzero">
<g clip-path="url(#clip10)" clip-rule="nonzero">
<g clip-path="url(#clip11)" clip-rule="nonzero">
<g clip-path="url(#clip12)" clip-rule="nonzero">
<path style=" stroke:none;fill-rule:nonzero;fill:rgb(52.159119%,39.608765%,57.249451%);fill-opacity:1;" d="M 405.140625 335.035156 L 479.089844 438.953125 L 474.972656 441.882812 L 401.035156 338.253906 L 405.140625 335.035156 "/>
</g>
</g>
</g>
</g>
<g clip-path="url(#clip13)" clip-rule="nonzero">
<g clip-path="url(#clip14)" clip-rule="nonzero">
<g clip-path="url(#clip15)" clip-rule="nonzero">
<g clip-path="url(#clip16)" clip-rule="nonzero">
<path style=" stroke:none;fill-rule:nonzero;fill:rgb(48.629761%,29.798889%,13.729858%);fill-opacity:1;" d="M 496.234375 458.707031 C 496.492188 458.527344 496.625 458.414062 496.667969 458.476562 L 497.105469 459.082031 C 497.144531 459.140625 497.070312 459.34375 496.816406 459.527344 L 488.246094 465.621094 C 487.371094 466.25 487.351562 466.109375 487.3125 466.050781 L 486.878906 465.445312 C 486.835938 465.382812 487.40625 464.988281 487.664062 464.808594 L 496.234375 458.707031 "/>
</g>
</g>
</g>
</g>
<g clip-path="url(#clip17)" clip-rule="nonzero">
<g clip-path="url(#clip18)" clip-rule="nonzero">
<g clip-path="url(#clip19)" clip-rule="nonzero">
<g clip-path="url(#clip20)" clip-rule="nonzero">
<path style=" stroke:none;fill-rule:nonzero;fill:rgb(60.389709%,35.688782%,12.939453%);fill-opacity:1;" d="M 484.875 441.902344 L 496.925781 458.835938 L 494.480469 460.574219 L 482.433594 443.644531 L 484.875 441.902344 "/>
</g>
</g>
</g>
</g>
<g clip-path="url(#clip21)" clip-rule="nonzero">
<g clip-path="url(#clip22)" clip-rule="nonzero">
<g clip-path="url(#clip23)" clip-rule="nonzero">
<g clip-path="url(#clip24)" clip-rule="nonzero">
<path style=" stroke:none;fill-rule:nonzero;fill:rgb(48.629761%,29.798889%,13.729858%);fill-opacity:1;" d="M 478.386719 446.46875 L 490.378906 463.492188 L 487.121094 465.808594 L 475.125 448.851562 L 478.386719 446.46875 "/>
</g>
</g>
</g>
</g>
<g clip-path="url(#clip25)" clip-rule="nonzero">
<g clip-path="url(#clip26)" clip-rule="nonzero">
<g clip-path="url(#clip27)" clip-rule="nonzero">
<g clip-path="url(#clip28)" clip-rule="nonzero">
<path style=" stroke:none;fill-rule:nonzero;fill:rgb(76.469421%,44.709778%,18.03894%);fill-opacity:1;" d="M 482.433594 443.644531 L 494.480469 460.574219 L 490.273438 463.664062 L 478.347656 446.546875 L 482.433594 443.644531 "/>
</g>
</g>
</g>
</g>
<g clip-path="url(#clip29)" clip-rule="nonzero">
<g clip-path="url(#clip30)" clip-rule="nonzero">
<g clip-path="url(#clip31)" clip-rule="nonzero">
<g clip-path="url(#clip32)" clip-rule="nonzero">
<path style=" stroke:none;fill-rule:nonzero;fill:rgb(79.998779%,79.998779%,79.998779%);fill-opacity:1;" d="M 479.089844 438.953125 L 482.433594 443.644531 L 478.347656 446.546875 L 475.011719 441.855469 L 479.089844 438.953125 "/>
</g>
</g>
</g>
</g>
<g clip-path="url(#clip33)" clip-rule="nonzero">
<g clip-path="url(#clip34)" clip-rule="nonzero">
<g clip-path="url(#clip35)" clip-rule="nonzero">
<g clip-path="url(#clip36)" clip-rule="nonzero">
<path style=" stroke:none;fill-rule:nonzero;fill:rgb(69.799805%,69.799805%,69.799805%);fill-opacity:1;" d="M 481.535156 437.210938 L 484.875 441.902344 L 482.433594 443.644531 L 479.089844 438.953125 L 481.535156 437.210938 "/>
</g>
</g>
</g>
</g>
<g clip-path="url(#clip37)" clip-rule="nonzero">
<g clip-path="url(#clip38)" clip-rule="nonzero">
<g clip-path="url(#clip39)" clip-rule="nonzero">
<g clip-path="url(#clip40)" clip-rule="nonzero">
<path style=" stroke:none;fill-rule:nonzero;fill:rgb(59.609985%,59.609985%,59.609985%);fill-opacity:1;" d="M 475.011719 441.855469 L 478.347656 446.546875 L 475.085938 448.871094 L 471.746094 444.175781 L 475.011719 441.855469 "/>
</g>
</g>
</g>
</g>
<g clip-path="url(#clip41)" clip-rule="nonzero">
<g clip-path="url(#clip42)" clip-rule="nonzero">
<g clip-path="url(#clip43)" clip-rule="nonzero">
<g clip-path="url(#clip44)" clip-rule="nonzero">
<path style=" stroke:none;fill-rule:nonzero;fill:rgb(73.728943%,54.119873%,37.249756%);fill-opacity:1;" d="M 388.945312 317.261719 L 394.996094 327.445312 L 401.203125 338.429688 C 401.203125 338.429688 401.0625 338.789062 399.074219 338.773438 C 397.78125 338.765625 395.652344 337.3125 395.652344 337.3125 L 388.945312 317.261719 "/>
</g>
</g>
</g>
</g>
<g clip-path="url(#clip45)" clip-rule="nonzero">
<g clip-path="url(#clip46)" clip-rule="nonzero">
<g clip-path="url(#clip47)" clip-rule="nonzero">
<g clip-path="url(#clip48)" clip-rule="nonzero">
<path style=" stroke:none;fill-rule:nonzero;fill:rgb(90.19928%,70.199585%,53.329468%);fill-opacity:1;" d="M 388.929688 317.410156 L 396.914062 325.433594 L 405.363281 334.875 C 405.363281 334.875 405.339844 335.582031 403.730469 337.042969 C 402.6875 337.984375 401.183594 338.460938 401.183594 338.460938 L 388.929688 317.410156 "/>
</g>
</g>
</g>
</g>
<g clip-path="url(#clip49)" clip-rule="nonzero">
<g clip-path="url(#clip50)" clip-rule="nonzero">
<g clip-path="url(#clip51)" clip-rule="nonzero">
<g clip-path="url(#clip52)" clip-rule="nonzero">
<path style=" stroke:none;fill-rule:nonzero;fill:rgb(83.139038%,60.778809%,41.958618%);fill-opacity:1;" d="M 389.574219 317.980469 L 405.476562 330.320312 C 405.476562 330.320312 406.519531 331.464844 406.269531 333.0625 C 406.105469 334.097656 405.265625 335.1875 405.265625 335.1875 L 389.574219 317.980469 "/>
</g>
</g>
</g>
</g>
<g clip-path="url(#clip53)" clip-rule="nonzero">
<g clip-path="url(#clip54)" clip-rule="nonzero">
<g clip-path="url(#clip55)" clip-rule="nonzero">
<g clip-path="url(#clip56)" clip-rule="nonzero">
<path style=" stroke:none;fill-rule:nonzero;fill:rgb(45.489502%,16.079712%,57.649231%);fill-opacity:1;" d="M 388.6875 316.945312 L 392.847656 320.507812 C 392.847656 320.507812 392.542969 321.128906 392.121094 321.515625 C 391.839844 321.765625 390.589844 322.179688 390.589844 322.179688 L 388.6875 316.945312 "/>
</g>
</g>
</g>
</g>
<g clip-path="url(#clip57)" clip-rule="nonzero">
<g clip-path="url(#clip58)" clip-rule="nonzero">
<g clip-path="url(#clip59)" clip-rule="nonzero">
<g clip-path="url(#clip60)" clip-rule="nonzero">
<path style=" stroke:none;fill-rule:nonzero;fill:rgb(94.898987%,64.309692%,16.079712%);fill-opacity:1;" d="M 464.65625 487.453125 C 467.558594 492.308594 465.960938 498.65625 461.105469 501.558594 L 269.195312 616.261719 C 264.339844 619.164062 257.992188 617.566406 255.089844 612.710938 L 101.273438 355.371094 C 98.375 350.519531 99.972656 344.167969 104.828125 341.265625 L 296.734375 226.558594 C 301.589844 223.65625 307.941406 225.257812 310.839844 230.109375 L 464.65625 487.453125 "/>
</g>
</g>
</g>
</g>
<g clip-path="url(#clip61)" clip-rule="nonzero">
<g clip-path="url(#clip62)" clip-rule="nonzero">
<g clip-path="url(#clip63)" clip-rule="nonzero">
<g clip-path="url(#clip64)" clip-rule="nonzero">
<path style=" stroke:none;fill-rule:nonzero;fill:rgb(64.709473%,45.489502%,13.729858%);fill-opacity:1;" d="M 263.0625 260.867188 L 262.296875 261.324219 L 256.050781 250.878906 L 256.816406 250.417969 L 263.0625 260.867188 "/>
</g>
</g>
</g>
</g>
<g clip-path="url(#clip65)" clip-rule="nonzero">
<g clip-path="url(#clip66)" clip-rule="nonzero">
<g clip-path="url(#clip67)" clip-rule="nonzero">
<g clip-path="url(#clip68)" clip-rule="nonzero">
<path style=" stroke:none;fill-rule:nonzero;fill:rgb(81.959534%,57.249451%,18.03894%);fill-opacity:1;" d="M 444.320312 483.199219 C 444.777344 483.945312 444.539062 484.9375 443.792969 485.394531 L 271.789062 590.550781 C 271.042969 591.007812 270.046875 590.769531 269.589844 590.015625 L 123.902344 351.714844 C 123.445312 350.964844 123.683594 349.976562 124.433594 349.519531 L 296.433594 244.363281 C 297.183594 243.90625 298.175781 244.144531 298.632812 244.890625 L 444.320312 483.199219 "/>
</g>
</g>
</g>
</g>
<g clip-path="url(#clip69)" clip-rule="nonzero">
<g clip-path="url(#clip70)" clip-rule="nonzero">
<g clip-path="url(#clip71)" clip-rule="nonzero">
<g clip-path="url(#clip72)" clip-rule="nonzero">
<path style=" stroke:none;fill-rule:nonzero;fill:rgb(100%,100%,100%);fill-opacity:1;" d="M 439.125 482.984375 C 439.578125 483.742188 439.324219 484.726562 438.570312 485.175781 L 265.304688 588.238281 C 264.550781 588.683594 263.5625 588.433594 263.113281 587.679688 L 120.324219 347.628906 C 119.878906 346.871094 120.128906 345.886719 120.882812 345.4375 L 294.144531 242.375 C 294.902344 241.925781 295.890625 242.175781 296.339844 242.933594 L 439.125 482.984375 "/>
</g>
</g>
</g>
</g>
<g clip-path="url(#clip73)" clip-rule="nonzero">
<g clip-path="url(#clip74)" clip-rule="nonzero">
<g clip-path="url(#clip75)" clip-rule="nonzero">
<g clip-path="url(#clip76)" clip-rule="nonzero">
<path style=" stroke:none;fill-rule:nonzero;fill:rgb(9.799194%,5.879211%,3.529358%);fill-opacity:1;" d="M 176.253906 342.710938 C 176.917969 342.242188 177.546875 341.78125 178.121094 341.339844 C 178.699219 340.90625 179.191406 340.570312 179.601562 340.332031 C 180.121094 340.019531 180.480469 339.875 180.671875 339.890625 C 180.863281 339.90625 181.03125 340.03125 181.171875 340.265625 C 181.5 340.824219 181.292969 341.351562 180.550781 341.859375 C 179.59375 342.507812 178.730469 343.132812 177.960938 343.734375 C 177.191406 344.339844 176.796875 344.695312 176.773438 344.804688 C 176.75 344.914062 177.023438 345.851562 177.597656 347.613281 C 178.167969 349.375 178.59375 350.488281 178.867188 350.953125 C 179.308594 351.707031 179.703125 352.148438 180.050781 352.277344 C 180.398438 352.410156 180.769531 352.359375 181.164062 352.128906 C 181.753906 351.777344 182.3125 350.855469 182.832031 349.355469 C 183.023438 348.75 183.226562 348.382812 183.449219 348.257812 C 183.738281 348.082031 183.980469 348.152344 184.167969 348.46875 C 184.460938 348.960938 184.359375 349.878906 183.875 351.222656 C 183.394531 352.566406 182.65625 353.53125 181.667969 354.113281 C 180.011719 355.09375 178.605469 354.609375 177.457031 352.65625 C 177.035156 351.953125 176.558594 350.765625 176.03125 349.085938 C 175.496094 347.417969 175.144531 346.433594 174.96875 346.140625 C 174.90625 346.039062 174.796875 346.035156 174.628906 346.132812 L 173.617188 346.855469 C 172.742188 347.375 172.097656 347.285156 171.6875 346.585938 C 171.449219 346.191406 171.535156 345.875 171.941406 345.632812 L 174.054688 344.386719 C 174.195312 344.300781 174.285156 344.160156 174.316406 343.964844 C 174.347656 343.773438 174.25 343.242188 174.027344 342.371094 C 173.800781 341.503906 173.550781 340.660156 173.292969 339.839844 C 173.027344 339.023438 173.136719 338.476562 173.613281 338.195312 C 173.910156 338.019531 174.199219 337.984375 174.488281 338.09375 C 174.769531 338.203125 174.964844 338.34375 175.070312 338.523438 C 175.128906 338.617188 175.289062 339.175781 175.570312 340.210938 L 176.253906 342.710938 "/>
</g>
</g>
</g>
</g>
<g clip-path="url(#clip77)" clip-rule="nonzero">
<g clip-path="url(#clip78)" clip-rule="nonzero">
<g clip-path="url(#clip79)" clip-rule="nonzero">
<g clip-path="url(#clip80)" clip-rule="nonzero">
<path style=" stroke:none;fill-rule:nonzero;fill:rgb(9.799194%,5.879211%,3.529358%);fill-opacity:1;" d="M 191.34375 348.445312 C 190.402344 349 189.421875 349.101562 188.390625 348.753906 C 187.359375 348.398438 186.539062 347.703125 185.917969 346.65625 C 184.875 344.894531 184.441406 342.800781 184.613281 340.386719 C 184.789062 337.976562 185.699219 336.273438 187.355469 335.296875 C 188.449219 334.652344 189.582031 334.546875 190.765625 334.988281 C 191.941406 335.425781 192.871094 336.222656 193.5625 337.382812 C 194.613281 339.160156 194.890625 341.226562 194.375 343.574219 C 193.871094 345.921875 192.859375 347.550781 191.34375 348.445312 Z M 187.570312 345.320312 C 187.976562 346.015625 188.453125 346.488281 189.003906 346.753906 C 189.554688 347.019531 190.070312 347.011719 190.546875 346.730469 C 191.566406 346.125 192.257812 344.960938 192.621094 343.238281 C 192.984375 341.511719 192.765625 339.964844 191.953125 338.601562 C 191.457031 337.757812 190.859375 337.191406 190.152344 336.902344 C 189.453125 336.609375 188.765625 336.664062 188.109375 337.054688 C 187.003906 337.707031 186.457031 338.941406 186.46875 340.757812 C 186.476562 342.578125 186.84375 344.097656 187.570312 345.320312 "/>
</g>
</g>
</g>
</g>
<g clip-path="url(#clip81)" clip-rule="nonzero">
<g clip-path="url(#clip82)" clip-rule="nonzero">
<g clip-path="url(#clip83)" clip-rule="nonzero">
<g clip-path="url(#clip84)" clip-rule="nonzero">
<path style=" stroke:none;fill-rule:nonzero;fill:rgb(9.799194%,5.879211%,3.529358%);fill-opacity:1;" d="M 213.160156 329.113281 C 213.117188 331.125 212.8125 332.832031 212.261719 334.234375 C 211.703125 335.640625 211 336.597656 210.140625 337.105469 C 209.472656 337.5 208.796875 337.554688 208.109375 337.273438 C 207.425781 336.996094 206.828125 336.429688 206.324219 335.578125 C 205.300781 333.851562 204.957031 331.660156 205.285156 329.011719 C 205.613281 326.363281 206.589844 324.554688 208.21875 323.589844 C 208.929688 323.171875 209.769531 323.085938 210.742188 323.332031 L 208.207031 315.773438 C 208.039062 315.257812 208.042969 314.839844 208.226562 314.515625 C 208.414062 314.195312 208.585938 313.988281 208.742188 313.894531 C 209.21875 313.613281 209.710938 313.894531 210.210938 314.742188 C 210.300781 314.890625 210.472656 315.546875 210.734375 316.707031 C 211.125 318.503906 211.746094 320.632812 212.59375 323.085938 C 213.441406 325.542969 214.257812 327.4375 215.042969 328.761719 C 215.851562 330.128906 216.554688 330.636719 217.152344 330.285156 C 217.53125 330.058594 217.859375 329.695312 218.117188 329.203125 C 218.214844 328.976562 218.335938 328.820312 218.488281 328.730469 C 218.710938 328.601562 218.902344 328.679688 219.066406 328.96875 C 219.277344 329.316406 219.210938 329.902344 218.871094 330.722656 C 218.523438 331.542969 218.039062 332.140625 217.394531 332.519531 C 216.265625 333.1875 215.058594 332.4375 213.773438 330.261719 C 213.554688 329.894531 213.347656 329.511719 213.160156 329.113281 Z M 208.976562 325.105469 C 207.871094 325.761719 207.21875 327.164062 207.019531 329.308594 C 206.820312 331.449219 207.097656 333.160156 207.847656 334.429688 C 208.351562 335.285156 208.886719 335.546875 209.457031 335.210938 C 209.992188 334.890625 210.472656 334.230469 210.90625 333.222656 C 211.332031 332.210938 211.589844 330.847656 211.671875 329.144531 C 211.75 327.4375 211.609375 326.277344 211.246094 325.660156 C 211.066406 325.363281 210.746094 325.136719 210.285156 324.980469 C 209.816406 324.828125 209.382812 324.871094 208.976562 325.105469 "/>
</g>
</g>
</g>
</g>
<g clip-path="url(#clip85)" clip-rule="nonzero">
<g clip-path="url(#clip86)" clip-rule="nonzero">
<g clip-path="url(#clip87)" clip-rule="nonzero">
<g clip-path="url(#clip88)" clip-rule="nonzero">
<path style=" stroke:none;fill-rule:nonzero;fill:rgb(9.799194%,5.879211%,3.529358%);fill-opacity:1;" d="M 225.507812 328.234375 C 224.566406 328.789062 223.585938 328.890625 222.558594 328.542969 C 221.527344 328.191406 220.703125 327.492188 220.085938 326.441406 C 219.042969 324.679688 218.605469 322.589844 218.777344 320.175781 C 218.953125 317.765625 219.867188 316.066406 221.519531 315.089844 C 222.617188 314.4375 223.746094 314.335938 224.929688 314.773438 C 226.105469 315.210938 227.039062 316.015625 227.726562 317.175781 C 228.777344 318.953125 229.050781 321.015625 228.542969 323.367188 C 228.035156 325.710938 227.023438 327.339844 225.507812 328.234375 Z M 221.730469 325.109375 C 222.140625 325.800781 222.617188 326.277344 223.167969 326.542969 C 223.71875 326.808594 224.234375 326.800781 224.710938 326.523438 C 225.730469 325.914062 226.421875 324.753906 226.785156 323.027344 C 227.152344 321.300781 226.925781 319.753906 226.117188 318.386719 C 225.621094 317.550781 225.019531 316.980469 224.316406 316.691406 C 223.613281 316.402344 222.933594 316.453125 222.265625 316.84375 C 221.171875 317.496094 220.621094 318.730469 220.628906 320.546875 C 220.640625 322.367188 221.011719 323.882812 221.730469 325.109375 "/>
</g>
</g>
</g>
</g>
<g clip-path="url(#clip89)" clip-rule="nonzero">
<g clip-path="url(#clip90)" clip-rule="nonzero">
<g clip-path="url(#clip91)" clip-rule="nonzero">
<g clip-path="url(#clip92)" clip-rule="nonzero">
<path style=" stroke:none;fill-rule:nonzero;fill:rgb(9.799194%,5.879211%,3.529358%);fill-opacity:1;" d="M 235.800781 298.011719 C 236.292969 297.71875 236.722656 297.890625 237.101562 298.519531 C 237.429688 299.078125 237.917969 300.585938 238.570312 303.046875 C 238.980469 304.59375 239.554688 306.230469 240.292969 307.949219 C 241.039062 309.671875 241.679688 310.988281 242.214844 311.898438 C 242.882812 313.023438 243.617188 314.105469 244.421875 315.136719 C 244.574219 315.332031 244.679688 315.476562 244.734375 315.574219 C 244.941406 315.914062 244.996094 316.277344 244.914062 316.660156 C 244.824219 317.042969 244.648438 317.308594 244.386719 317.464844 C 244.027344 317.679688 243.640625 317.601562 243.234375 317.238281 C 242.824219 316.867188 242.328125 316.179688 241.730469 315.175781 C 240.378906 312.886719 238.976562 309.886719 237.523438 306.171875 C 236.070312 302.460938 235.335938 300.222656 235.320312 299.457031 C 235.304688 298.691406 235.464844 298.207031 235.800781 298.011719 "/>
</g>
</g>
</g>
</g>
<g clip-path="url(#clip93)" clip-rule="nonzero">
<g clip-path="url(#clip94)" clip-rule="nonzero">
<g clip-path="url(#clip95)" clip-rule="nonzero">
<g clip-path="url(#clip96)" clip-rule="nonzero">
<path style=" stroke:none;fill-rule:nonzero;fill:rgb(9.799194%,5.879211%,3.529358%);fill-opacity:1;" d="M 249.105469 310.507812 C 249.414062 311.027344 249.832031 311.570312 250.359375 312.136719 C 250.460938 312.242188 250.53125 312.335938 250.582031 312.417969 C 250.65625 312.542969 250.636719 312.765625 250.527344 313.09375 C 250.414062 313.425781 250.234375 313.664062 249.980469 313.8125 C 249.316406 314.207031 248.625 313.792969 247.90625 312.574219 C 247.160156 311.316406 246.246094 309.175781 245.152344 306.144531 C 244.765625 305.089844 244.515625 304.449219 244.386719 304.234375 C 244.128906 303.804688 243.988281 303.386719 243.964844 302.988281 C 243.945312 302.589844 244.078125 302.308594 244.367188 302.140625 C 244.710938 301.933594 245.039062 301.855469 245.339844 301.902344 C 245.636719 301.949219 245.851562 302.074219 245.976562 302.28125 C 246.089844 302.484375 246.203125 302.789062 246.308594 303.179688 C 246.863281 305.285156 247.308594 306.769531 247.648438 307.617188 C 247.984375 308.46875 248.472656 309.433594 249.105469 310.507812 Z M 243.675781 298.257812 C 243.527344 298.34375 243.328125 298.25 243.074219 297.992188 C 242.988281 297.910156 242.886719 297.828125 242.769531 297.738281 C 242.324219 297.402344 242 297.070312 241.808594 296.742188 C 241.644531 296.46875 241.640625 296.097656 241.800781 295.621094 C 241.957031 295.140625 242.234375 294.789062 242.632812 294.550781 C 242.828125 294.433594 243.09375 294.378906 243.433594 294.386719 C 243.773438 294.394531 243.980469 294.472656 244.066406 294.617188 C 244.203125 294.84375 244.34375 295.273438 244.492188 295.914062 C 244.648438 296.554688 244.59375 297.078125 244.339844 297.484375 C 244.085938 297.886719 243.867188 298.140625 243.675781 298.257812 "/>
</g>
</g>
</g>
</g>
<g clip-path="url(#clip97)" clip-rule="nonzero">
<g clip-path="url(#clip98)" clip-rule="nonzero">
<g clip-path="url(#clip99)" clip-rule="nonzero">
<g clip-path="url(#clip100)" clip-rule="nonzero">
<path style=" stroke:none;fill-rule:nonzero;fill:rgb(9.799194%,5.879211%,3.529358%);fill-opacity:1;" d="M 258.339844 304.953125 C 258.074219 304.507812 257.226562 304.328125 255.796875 304.402344 C 253.988281 304.515625 252.710938 304.496094 251.96875 304.363281 C 251.230469 304.222656 250.703125 303.890625 250.394531 303.363281 C 249.585938 302.003906 249.601562 300.46875 250.433594 298.769531 C 251.265625 297.066406 252.117188 295.960938 252.976562 295.453125 C 253.535156 295.125 253.992188 294.980469 254.355469 295.023438 C 254.714844 295.070312 255.039062 295.324219 255.316406 295.800781 C 255.441406 296.011719 255.457031 296.246094 255.367188 296.503906 C 255.277344 296.761719 255.175781 296.921875 255.074219 296.980469 C 254.996094 297.023438 254.820312 297.058594 254.546875 297.089844 C 254.269531 297.125 254.09375 297.160156 254.023438 297.203125 C 253.6875 297.402344 253.136719 298.0625 252.386719 299.179688 C 251.632812 300.296875 251.449219 301.167969 251.820312 301.800781 C 252.046875 302.179688 252.4375 302.421875 252.992188 302.511719 C 253.542969 302.605469 254.429688 302.597656 255.652344 302.480469 C 256.648438 302.390625 257.496094 302.417969 258.207031 302.570312 C 258.917969 302.714844 259.441406 303.074219 259.773438 303.640625 C 260.394531 304.6875 260.15625 305.933594 259.066406 307.378906 C 257.972656 308.824219 256.769531 309.933594 255.457031 310.710938 C 254.347656 311.367188 253.574219 311.316406 253.132812 310.566406 C 252.976562 310.304688 252.984375 310.039062 253.160156 309.769531 C 253.339844 309.496094 253.554688 309.289062 253.808594 309.140625 C 253.910156 309.082031 254.125 308.996094 254.453125 308.898438 C 254.773438 308.796875 254.976562 308.722656 255.066406 308.675781 C 255.824219 308.222656 256.566406 307.613281 257.285156 306.847656 C 258.003906 306.082031 258.355469 305.449219 258.339844 304.953125 "/>
</g>
</g>
</g>
</g>
<g clip-path="url(#clip101)" clip-rule="nonzero">
<g clip-path="url(#clip102)" clip-rule="nonzero">
<g clip-path="url(#clip103)" clip-rule="nonzero">
<g clip-path="url(#clip104)" clip-rule="nonzero">
<path style=" stroke:none;fill-rule:nonzero;fill:rgb(9.799194%,5.879211%,3.529358%);fill-opacity:1;" d="M 261.53125 292.261719 C 262.203125 291.789062 262.824219 291.332031 263.40625 290.890625 C 263.980469 290.457031 264.472656 290.117188 264.882812 289.878906 C 265.402344 289.566406 265.757812 289.421875 265.953125 289.4375 C 266.144531 289.453125 266.3125 289.582031 266.453125 289.820312 C 266.785156 290.371094 266.574219 290.902344 265.828125 291.40625 C 264.878906 292.054688 264.011719 292.679688 263.242188 293.285156 C 262.472656 293.886719 262.078125 294.242188 262.054688 294.355469 C 262.035156 294.460938 262.308594 295.398438 262.882812 297.160156 C 263.449219 298.921875 263.875 300.035156 264.148438 300.5 C 264.59375 301.25 264.988281 301.691406 265.335938 301.828125 C 265.683594 301.960938 266.054688 301.910156 266.449219 301.671875 C 267.039062 301.328125 267.59375 300.398438 268.117188 298.902344 C 268.304688 298.304688 268.511719 297.933594 268.730469 297.804688 C 269.023438 297.632812 269.265625 297.703125 269.445312 298.015625 C 269.742188 298.507812 269.644531 299.425781 269.160156 300.773438 C 268.675781 302.113281 267.9375 303.074219 266.949219 303.660156 C 265.292969 304.640625 263.886719 304.160156 262.738281 302.210938 C 262.320312 301.503906 261.847656 300.3125 261.3125 298.632812 C 260.78125 296.964844 260.425781 295.984375 260.246094 295.691406 C 260.191406 295.589844 260.078125 295.582031 259.914062 295.683594 L 258.898438 296.40625 C 258.027344 296.925781 257.382812 296.835938 256.972656 296.136719 C 256.738281 295.742188 256.820312 295.421875 257.222656 295.179688 L 259.335938 293.933594 C 259.480469 293.847656 259.566406 293.707031 259.597656 293.515625 C 259.632812 293.320312 259.539062 292.785156 259.308594 291.921875 C 259.082031 291.054688 258.835938 290.210938 258.574219 289.386719 C 258.308594 288.570312 258.417969 288.019531 258.898438 287.742188 C 259.195312 287.5625 259.480469 287.53125 259.765625 287.644531 C 260.054688 287.75 260.25 287.890625 260.355469 288.066406 C 260.410156 288.164062 260.578125 288.726562 260.851562 289.753906 L 261.53125 292.261719 "/>
</g>
</g>
</g>
</g>
<g clip-path="url(#clip105)" clip-rule="nonzero">
<g clip-path="url(#clip106)" clip-rule="nonzero">
<g clip-path="url(#clip107)" clip-rule="nonzero">
<g clip-path="url(#clip108)" clip-rule="nonzero">
<path style=" stroke:none;fill-rule:nonzero;fill:rgb(9.799194%,5.879211%,3.529358%);fill-opacity:1;" d="M 274.761719 298.125 C 274.367188 298.363281 274.042969 298.417969 273.789062 298.292969 C 273.535156 298.171875 273.285156 297.90625 273.046875 297.496094 C 272.847656 297.160156 272.714844 296.902344 272.640625 296.722656 C 272.574219 296.542969 272.609375 296.289062 272.75 295.960938 C 272.886719 295.632812 273.042969 295.421875 273.210938 295.320312 C 273.535156 295.128906 273.878906 295.019531 274.25 294.992188 C 274.617188 294.960938 274.886719 295.078125 275.039062 295.347656 C 275.378906 295.910156 275.441406 296.503906 275.226562 297.121094 C 275.015625 297.738281 274.855469 298.070312 274.761719 298.125 Z M 270.300781 290.496094 C 270.128906 290.589844 269.851562 290.542969 269.46875 290.335938 C 269.082031 290.128906 268.824219 289.917969 268.699219 289.707031 C 268.644531 289.613281 268.613281 289.308594 268.605469 288.804688 C 268.589844 288.296875 268.824219 287.910156 269.289062 287.632812 C 269.332031 287.601562 269.5625 287.585938 269.964844 287.585938 C 270.371094 287.578125 270.632812 287.613281 270.75 287.6875 C 270.867188 287.761719 271.007812 287.9375 271.171875 288.21875 C 271.316406 288.464844 271.339844 288.824219 271.246094 289.304688 C 271.148438 289.777344 270.835938 290.179688 270.300781 290.496094 "/>
</g>
</g>
</g>
</g>
<g clip-path="url(#clip109)" clip-rule="nonzero">
<g clip-path="url(#clip110)" clip-rule="nonzero">
<g clip-path="url(#clip111)" clip-rule="nonzero">
<g clip-path="url(#clip112)" clip-rule="nonzero">
<path style=" stroke:none;fill-rule:nonzero;fill:rgb(17.649841%,16.079712%,14.118958%);fill-opacity:1;" d="M 170.296875 389.261719 L 163.441406 393.3125 C 162.988281 393.582031 162.394531 393.429688 162.132812 392.980469 L 158.074219 386.121094 C 157.804688 385.671875 157.953125 385.082031 158.40625 384.8125 L 165.265625 380.757812 C 165.71875 380.488281 166.304688 380.640625 166.574219 381.089844 L 170.632812 387.949219 C 170.898438 388.40625 170.75 388.988281 170.296875 389.261719 Z M 169.808594 388.4375 L 170.050781 388.851562 Z M 158.898438 385.632812 L 162.953125 392.496094 L 169.808594 388.4375 L 165.753906 381.578125 L 158.898438 385.632812 "/>
</g>
</g>
</g>
</g>
<g clip-path="url(#clip113)" clip-rule="nonzero">
<g clip-path="url(#clip114)" clip-rule="nonzero">
<g clip-path="url(#clip115)" clip-rule="nonzero">
<g clip-path="url(#clip116)" clip-rule="nonzero">
<path style=" stroke:none;fill-rule:nonzero;fill:rgb(17.649841%,16.079712%,14.118958%);fill-opacity:1;" d="M 179.800781 405.328125 L 172.949219 409.382812 C 172.496094 409.652344 171.90625 409.507812 171.640625 409.050781 L 167.582031 402.191406 C 167.316406 401.738281 167.464844 401.152344 167.917969 400.886719 L 174.773438 396.832031 C 175.226562 396.558594 175.8125 396.710938 176.082031 397.164062 L 180.136719 404.019531 C 180.40625 404.472656 180.257812 405.0625 179.800781 405.328125 Z M 179.316406 404.507812 L 179.554688 404.917969 Z M 168.40625 401.707031 L 172.457031 408.566406 L 179.316406 404.507812 L 175.257812 397.652344 L 168.40625 401.707031 "/>
</g>
</g>
</g>
</g>
<g clip-path="url(#clip117)" clip-rule="nonzero">
<g clip-path="url(#clip118)" clip-rule="nonzero">
<g clip-path="url(#clip119)" clip-rule="nonzero">
<g clip-path="url(#clip120)" clip-rule="nonzero">
<path style=" stroke:none;fill-rule:nonzero;fill:rgb(17.649841%,16.079712%,14.118958%);fill-opacity:1;" d="M 189.3125 421.402344 L 182.453125 425.457031 C 182.003906 425.726562 181.414062 425.570312 181.144531 425.121094 L 177.089844 418.269531 C 176.824219 417.8125 176.972656 417.222656 177.425781 416.953125 L 184.28125 412.898438 C 184.734375 412.632812 185.324219 412.78125 185.59375 413.238281 L 189.648438 420.09375 C 189.917969 420.546875 189.765625 421.132812 189.3125 421.402344 Z M 188.824219 420.582031 L 189.0625 420.988281 Z M 177.910156 417.78125 L 181.96875 424.636719 L 188.824219 420.582031 L 184.769531 413.726562 L 177.910156 417.78125 "/>
</g>
</g>
</g>
</g>
<g clip-path="url(#clip121)" clip-rule="nonzero">
<g clip-path="url(#clip122)" clip-rule="nonzero">
<g clip-path="url(#clip123)" clip-rule="nonzero">
<g clip-path="url(#clip124)" clip-rule="nonzero">
<path style=" stroke:none;fill-rule:nonzero;fill:rgb(17.649841%,16.079712%,14.118958%);fill-opacity:1;" d="M 198.820312 437.476562 L 191.960938 441.527344 C 191.507812 441.796875 190.925781 441.648438 190.652344 441.195312 L 186.597656 434.335938 C 186.324219 433.882812 186.480469 433.296875 186.929688 433.03125 L 193.789062 428.972656 C 194.242188 428.703125 194.832031 428.855469 195.101562 429.3125 L 199.15625 436.164062 C 199.417969 436.617188 199.273438 437.207031 198.820312 437.476562 Z M 198.332031 436.652344 L 198.574219 437.066406 Z M 187.421875 433.847656 L 191.476562 440.707031 L 198.332031 436.652344 L 194.273438 429.792969 L 187.421875 433.847656 "/>
</g>
</g>
</g>
</g>
<g clip-path="url(#clip125)" clip-rule="nonzero">
<g clip-path="url(#clip126)" clip-rule="nonzero">
<g clip-path="url(#clip127)" clip-rule="nonzero">
<g clip-path="url(#clip128)" clip-rule="nonzero">
<path style=" stroke:none;fill-rule:nonzero;fill:rgb(17.649841%,16.079712%,14.118958%);fill-opacity:1;" d="M 208.324219 453.546875 L 201.472656 457.601562 C 201.015625 457.871094 200.433594 457.71875 200.160156 457.265625 L 196.105469 450.414062 C 195.839844 449.957031 195.988281 449.367188 196.441406 449.101562 L 203.296875 445.046875 C 203.75 444.78125 204.339844 444.925781 204.605469 445.378906 L 208.664062 452.238281 C 208.933594 452.691406 208.777344 453.277344 208.324219 453.546875 Z M 207.839844 452.722656 L 208.085938 453.132812 Z M 196.925781 449.921875 L 200.984375 456.777344 L 207.839844 452.722656 L 203.785156 445.871094 L 196.925781 449.921875 "/>
</g>
</g>
</g>
</g>
<g clip-path="url(#clip129)" clip-rule="nonzero">
<g clip-path="url(#clip130)" clip-rule="nonzero">
<g clip-path="url(#clip131)" clip-rule="nonzero">
<g clip-path="url(#clip132)" clip-rule="nonzero">
<path style=" stroke:none;fill-rule:nonzero;fill:rgb(17.649841%,16.079712%,14.118958%);fill-opacity:1;" d="M 217.832031 469.621094 L 210.980469 473.675781 C 210.523438 473.941406 209.933594 473.792969 209.667969 473.339844 L 205.613281 466.484375 C 205.34375 466.03125 205.496094 465.441406 205.949219 465.171875 L 212.804688 461.117188 C 213.257812 460.847656 213.847656 461 214.113281 461.449219 L 218.167969 468.308594 C 218.441406 468.761719 218.285156 469.347656 217.832031 469.621094 Z M 217.347656 468.796875 L 217.585938 469.207031 Z M 206.4375 465.996094 L 210.492188 472.851562 L 217.347656 468.796875 L 213.292969 461.941406 L 206.4375 465.996094 "/>
</g>
</g>
</g>
</g>
<g clip-path="url(#clip133)" clip-rule="nonzero">
<g clip-path="url(#clip134)" clip-rule="nonzero">
<g clip-path="url(#clip135)" clip-rule="nonzero">
<g clip-path="url(#clip136)" clip-rule="nonzero">
<path style=" stroke:none;fill-rule:nonzero;fill:rgb(17.649841%,16.079712%,14.118958%);fill-opacity:1;" d="M 227.339844 485.691406 L 220.488281 489.746094 C 220.03125 490.011719 219.445312 489.863281 219.175781 489.410156 L 215.121094 482.554688 C 214.855469 482.101562 215.003906 481.515625 215.457031 481.246094 L 222.3125 477.191406 C 222.765625 476.921875 223.355469 477.070312 223.621094 477.527344 L 227.675781 484.378906 C 227.949219 484.832031 227.796875 485.425781 227.339844 485.691406 Z M 226.851562 484.867188 L 227.097656 485.277344 Z M 215.945312 482.070312 L 220 488.921875 L 226.851562 484.867188 L 222.796875 478.011719 L 215.945312 482.070312 "/>
</g>
</g>
</g>
</g>
<g clip-path="url(#clip137)" clip-rule="nonzero">
<g clip-path="url(#clip138)" clip-rule="nonzero">
<g clip-path="url(#clip139)" clip-rule="nonzero">
<g clip-path="url(#clip140)" clip-rule="nonzero">
<path style=" stroke:none;fill-rule:nonzero;fill:rgb(17.649841%,16.079712%,14.118958%);fill-opacity:1;" d="M 236.847656 501.761719 L 229.992188 505.816406 C 229.539062 506.085938 228.953125 505.933594 228.683594 505.480469 L 224.632812 498.625 C 224.359375 498.171875 224.511719 497.585938 224.964844 497.316406 L 231.820312 493.261719 C 232.273438 492.996094 232.863281 493.144531 233.128906 493.597656 L 237.183594 500.453125 C 237.457031 500.90625 237.304688 501.496094 236.847656 501.761719 Z M 236.359375 500.941406 L 236.605469 501.351562 Z M 225.453125 498.140625 L 229.507812 505 L 236.359375 500.941406 L 232.304688 494.085938 L 225.453125 498.140625 "/>
</g>
</g>
</g>
</g>
<g clip-path="url(#clip141)" clip-rule="nonzero">
<g clip-path="url(#clip142)" clip-rule="nonzero">
<g clip-path="url(#clip143)" clip-rule="nonzero">
<g clip-path="url(#clip144)" clip-rule="nonzero">
<path style=" stroke:none;fill-rule:nonzero;fill:rgb(17.649841%,16.079712%,14.118958%);fill-opacity:1;" d="M 246.355469 517.835938 L 239.5 521.890625 C 239.050781 522.160156 238.460938 522.007812 238.195312 521.550781 L 234.136719 514.699219 C 233.867188 514.246094 234.019531 513.660156 234.472656 513.390625 L 241.328125 509.335938 C 241.785156 509.0625 242.371094 509.214844 242.636719 509.671875 L 246.695312 516.523438 C 246.960938 516.976562 246.808594 517.566406 246.355469 517.835938 Z M 245.867188 517.011719 L 246.113281 517.421875 Z M 234.957031 514.210938 L 239.015625 521.066406 L 245.867188 517.011719 L 241.8125 510.15625 L 234.957031 514.210938 "/>
</g>
</g>
</g>
</g>
<g clip-path="url(#clip145)" clip-rule="nonzero">
<g clip-path="url(#clip146)" clip-rule="nonzero">
<g clip-path="url(#clip147)" clip-rule="nonzero">
<g clip-path="url(#clip148)" clip-rule="nonzero">
<path style=" stroke:none;fill-rule:nonzero;fill:rgb(17.649841%,16.079712%,14.118958%);fill-opacity:1;" d="M 255.867188 533.90625 L 249.007812 537.960938 C 248.554688 538.230469 247.96875 538.078125 247.699219 537.625 L 243.644531 530.769531 C 243.375 530.316406 243.53125 529.730469 243.980469 529.460938 L 250.832031 525.40625 C 251.292969 525.136719 251.878906 525.285156 252.148438 525.738281 L 256.199219 532.597656 C 256.46875 533.050781 256.320312 533.632812 255.867188 533.90625 Z M 255.378906 533.085938 L 255.621094 533.492188 Z M 244.464844 530.285156 L 248.519531 537.136719 L 255.378906 533.085938 L 251.320312 526.230469 L 244.464844 530.285156 "/>
</g>
</g>
</g>
</g>
<g clip-path="url(#clip149)" clip-rule="nonzero">
<g clip-path="url(#clip150)" clip-rule="nonzero">
<g clip-path="url(#clip151)" clip-rule="nonzero">
<g clip-path="url(#clip152)" clip-rule="nonzero">
<path style=" stroke:none;fill-rule:nonzero;fill:rgb(17.649841%,16.079712%,14.118958%);fill-opacity:1;" d="M 265.371094 549.980469 L 258.515625 554.035156 C 258.066406 554.300781 257.476562 554.148438 257.203125 553.695312 L 253.152344 546.839844 C 252.882812 546.386719 253.035156 545.804688 253.488281 545.53125 L 260.34375 541.480469 C 260.800781 541.207031 261.386719 541.363281 261.65625 541.8125 L 265.710938 548.667969 C 265.980469 549.125 265.828125 549.710938 265.371094 549.980469 Z M 264.882812 549.15625 L 265.128906 549.566406 Z M 253.972656 546.355469 L 258.027344 553.210938 L 264.882812 549.15625 L 260.832031 542.296875 L 253.972656 546.355469 "/>
</g>
</g>
</g>
</g>
<g clip-path="url(#clip153)" clip-rule="nonzero">
<g clip-path="url(#clip154)" clip-rule="nonzero">
<g clip-path="url(#clip155)" clip-rule="nonzero">
<g clip-path="url(#clip156)" clip-rule="nonzero">
<path style=" stroke:none;fill-rule:nonzero;fill:rgb(17.649841%,16.079712%,14.118958%);fill-opacity:1;" d="M 274.878906 566.050781 L 268.023438 570.105469 C 267.574219 570.375 266.984375 570.226562 266.71875 569.769531 L 262.660156 562.914062 C 262.390625 562.460938 262.542969 561.871094 262.992188 561.605469 L 269.851562 557.554688 C 270.308594 557.28125 270.894531 557.433594 271.164062 557.882812 L 275.21875 564.742188 C 275.484375 565.191406 275.332031 565.785156 274.878906 566.050781 Z M 274.394531 565.226562 L 274.636719 565.640625 Z M 263.480469 562.429688 L 267.535156 569.28125 L 274.394531 565.226562 L 270.339844 558.371094 L 263.480469 562.429688 "/>
</g>
</g>
</g>
</g>
<g clip-path="url(#clip157)" clip-rule="nonzero">
<g clip-path="url(#clip158)" clip-rule="nonzero">
<g clip-path="url(#clip159)" clip-rule="nonzero">
<g clip-path="url(#clip160)" clip-rule="nonzero">
<path style=" stroke:none;fill-rule:nonzero;fill:rgb(74.508667%,68.629456%,63.529968%);fill-opacity:1;" d="M 308.074219 302.519531 C 308.582031 303.386719 308.289062 304.515625 307.429688 305.023438 L 176.863281 382.441406 C 175.996094 382.953125 174.871094 382.664062 174.363281 381.796875 L 173.585938 380.480469 C 173.074219 379.613281 173.363281 378.488281 174.230469 377.976562 L 304.792969 300.5625 C 305.660156 300.050781 306.785156 300.339844 307.292969 301.207031 L 308.074219 302.519531 "/>
</g>
</g>
</g>
</g>
<g clip-path="url(#clip161)" clip-rule="nonzero">
<g clip-path="url(#clip162)" clip-rule="nonzero">
<g clip-path="url(#clip163)" clip-rule="nonzero">
<g clip-path="url(#clip164)" clip-rule="nonzero">
<path style=" stroke:none;fill-rule:nonzero;fill:rgb(74.508667%,68.629456%,63.529968%);fill-opacity:1;" d="M 296.777344 331.496094 C 297.246094 332.289062 296.976562 333.320312 296.1875 333.792969 L 186.410156 398.878906 C 185.617188 399.347656 184.585938 399.082031 184.121094 398.289062 L 183.1875 396.714844 C 182.71875 395.917969 182.988281 394.882812 183.78125 394.414062 L 293.554688 329.328125 C 294.347656 328.859375 295.375 329.125 295.84375 329.917969 L 296.777344 331.496094 "/>
</g>
</g>
</g>
</g>
<g clip-path="url(#clip165)" clip-rule="nonzero">
<g clip-path="url(#clip166)" clip-rule="nonzero">
<g clip-path="url(#clip167)" clip-rule="nonzero">
<g clip-path="url(#clip168)" clip-rule="nonzero">
<path style=" stroke:none;fill-rule:nonzero;fill:rgb(74.508667%,68.629456%,63.529968%);fill-opacity:1;" d="M 324.664062 336.257812 C 325.167969 337.117188 324.882812 338.234375 324.027344 338.742188 L 195.921875 414.691406 C 195.0625 415.199219 193.953125 414.914062 193.445312 414.054688 L 192.652344 412.707031 C 192.144531 411.855469 192.429688 410.734375 193.289062 410.226562 L 321.394531 334.277344 C 322.25 333.765625 323.363281 334.054688 323.871094 334.914062 L 324.664062 336.257812 "/>
</g>
</g>
</g>
</g>
<g clip-path="url(#clip169)" clip-rule="nonzero">
<g clip-path="url(#clip170)" clip-rule="nonzero">
<g clip-path="url(#clip171)" clip-rule="nonzero">
<g clip-path="url(#clip172)" clip-rule="nonzero">
<path style=" stroke:none;fill-rule:nonzero;fill:rgb(74.508667%,68.629456%,63.529968%);fill-opacity:1;" d="M 321.375 359.878906 C 321.855469 360.691406 321.582031 361.75 320.765625 362.238281 L 205.289062 430.703125 C 204.476562 431.183594 203.414062 430.914062 202.9375 430.097656 L 202.050781 428.597656 C 201.574219 427.78125 201.839844 426.71875 202.65625 426.238281 L 318.136719 357.773438 C 318.949219 357.285156 320.007812 357.558594 320.492188 358.375 L 321.375 359.878906 "/>
</g>
</g>
</g>
</g>
<g clip-path="url(#clip173)" clip-rule="nonzero">
<g clip-path="url(#clip174)" clip-rule="nonzero">
<g clip-path="url(#clip175)" clip-rule="nonzero">
<g clip-path="url(#clip176)" clip-rule="nonzero">
<path style=" stroke:none;fill-rule:nonzero;fill:rgb(74.508667%,68.629456%,63.529968%);fill-opacity:1;" d="M 253.839844 422.21875 C 254.121094 422.695312 253.964844 423.320312 253.484375 423.601562 L 214.085938 446.964844 C 213.601562 447.246094 212.980469 447.085938 212.699219 446.609375 L 211.097656 443.890625 C 210.8125 443.40625 210.972656 442.78125 211.453125 442.5 L 250.851562 419.140625 C 251.332031 418.851562 251.953125 419.015625 252.234375 419.492188 L 253.839844 422.21875 "/>
</g>
</g>
</g>
</g>
<g clip-path="url(#clip177)" clip-rule="nonzero">
<g clip-path="url(#clip178)" clip-rule="nonzero">
<g clip-path="url(#clip179)" clip-rule="nonzero">
<g clip-path="url(#clip180)" clip-rule="nonzero">
<path style=" stroke:none;fill-rule:nonzero;fill:rgb(74.508667%,68.629456%,63.529968%);fill-opacity:1;" d="M 287.3125 402.648438 C 287.539062 403.03125 287.414062 403.542969 287.023438 403.769531 L 261.527344 418.890625 C 261.140625 419.121094 260.632812 418.992188 260.402344 418.601562 L 258.605469 415.550781 C 258.375 415.160156 258.507812 414.65625 258.890625 414.425781 L 284.390625 399.304688 C 284.78125 399.078125 285.285156 399.207031 285.511719 399.59375 L 287.3125 402.648438 "/>
</g>
</g>
</g>
</g>
<g clip-path="url(#clip181)" clip-rule="nonzero">
<g clip-path="url(#clip182)" clip-rule="nonzero">
<g clip-path="url(#clip183)" clip-rule="nonzero">
<g clip-path="url(#clip184)" clip-rule="nonzero">
<path style=" stroke:none;fill-rule:nonzero;fill:rgb(74.508667%,68.629456%,63.529968%);fill-opacity:1;" d="M 336.171875 373.511719 C 336.453125 373.988281 336.292969 374.617188 335.816406 374.898438 L 296.417969 398.257812 C 295.9375 398.542969 295.3125 398.382812 295.03125 397.90625 L 293.425781 395.179688 C 293.144531 394.703125 293.304688 394.078125 293.78125 393.796875 L 333.179688 370.433594 C 333.660156 370.148438 334.28125 370.3125 334.570312 370.792969 L 336.171875 373.511719 "/>
</g>
</g>
</g>
</g>
<g clip-path="url(#clip185)" clip-rule="nonzero">
<g clip-path="url(#clip186)" clip-rule="nonzero">
<g clip-path="url(#clip187)" clip-rule="nonzero">
<g clip-path="url(#clip188)" clip-rule="nonzero">
<path style=" stroke:none;fill-rule:nonzero;fill:rgb(74.508667%,68.629456%,63.529968%);fill-opacity:1;" d="M 358.050781 381.074219 C 358.570312 381.949219 358.277344 383.085938 357.402344 383.605469 L 224.265625 462.539062 C 223.394531 463.054688 222.257812 462.765625 221.746094 461.890625 L 220.984375 460.605469 C 220.46875 459.730469 220.761719 458.59375 221.632812 458.074219 L 354.769531 379.140625 C 355.644531 378.621094 356.777344 378.914062 357.292969 379.789062 L 358.050781 381.074219 "/>
</g>
</g>
</g>
</g>
<g clip-path="url(#clip189)" clip-rule="nonzero">
<g clip-path="url(#clip190)" clip-rule="nonzero">
<g clip-path="url(#clip191)" clip-rule="nonzero">
<g clip-path="url(#clip192)" clip-rule="nonzero">
<path style=" stroke:none;fill-rule:nonzero;fill:rgb(74.508667%,68.629456%,63.529968%);fill-opacity:1;" d="M 345.996094 410.039062 C 346.472656 410.84375 346.203125 411.886719 345.398438 412.363281 L 233.617188 478.636719 C 232.8125 479.113281 231.773438 478.847656 231.300781 478.046875 L 230.386719 476.496094 C 229.914062 475.695312 230.179688 474.648438 230.980469 474.175781 L 342.765625 407.898438 C 343.570312 407.421875 344.609375 407.691406 345.085938 408.492188 L 345.996094 410.039062 "/>
</g>
</g>
</g>
</g>
<g clip-path="url(#clip193)" clip-rule="nonzero">
<g clip-path="url(#clip194)" clip-rule="nonzero">
<g clip-path="url(#clip195)" clip-rule="nonzero">
<g clip-path="url(#clip196)" clip-rule="nonzero">
<path style=" stroke:none;fill-rule:nonzero;fill:rgb(74.508667%,68.629456%,63.529968%);fill-opacity:1;" d="M 369.476562 418.410156 C 369.972656 419.261719 369.691406 420.367188 368.84375 420.867188 L 243.511719 495.175781 C 242.667969 495.679688 241.566406 495.394531 241.0625 494.546875 L 240.25 493.167969 C 239.746094 492.320312 240.03125 491.210938 240.878906 490.710938 L 366.210938 416.402344 C 367.058594 415.902344 368.160156 416.1875 368.664062 417.03125 L 369.476562 418.410156 "/>
</g>
</g>
</g>
</g>
<g clip-path="url(#clip197)" clip-rule="nonzero">
<g clip-path="url(#clip198)" clip-rule="nonzero">
<g clip-path="url(#clip199)" clip-rule="nonzero">
<g clip-path="url(#clip200)" clip-rule="nonzero">
<path style=" stroke:none;fill-rule:nonzero;fill:rgb(74.508667%,68.629456%,63.529968%);fill-opacity:1;" d="M 386.847656 429.746094 C 387.363281 430.617188 387.070312 431.753906 386.195312 432.273438 L 253.058594 511.207031 C 252.1875 511.730469 251.050781 511.433594 250.535156 510.558594 L 249.777344 509.273438 C 249.257812 508.398438 249.550781 507.261719 250.425781 506.742188 L 383.5625 427.808594 C 384.433594 427.292969 385.570312 427.585938 386.089844 428.460938 L 386.847656 429.746094 "/>
</g>
</g>
</g>
</g>
<g clip-path="url(#clip201)" clip-rule="nonzero">
<g clip-path="url(#clip202)" clip-rule="nonzero">
<g clip-path="url(#clip203)" clip-rule="nonzero">
<g clip-path="url(#clip204)" clip-rule="nonzero">
<path style=" stroke:none;fill-rule:nonzero;fill:rgb(74.508667%,68.629456%,63.529968%);fill-opacity:1;" d="M 348.703125 473.679688 C 349.121094 474.386719 348.882812 475.308594 348.179688 475.722656 L 261.914062 526.871094 C 261.210938 527.289062 260.292969 527.054688 259.875 526.34375 L 258.753906 524.449219 C 258.339844 523.742188 258.574219 522.824219 259.277344 522.40625 L 345.546875 471.257812 C 346.25 470.84375 347.167969 471.074219 347.582031 471.78125 L 348.703125 473.679688 "/>
</g>
</g>
</g>
</g>
<g clip-path="url(#clip205)" clip-rule="nonzero">
<g clip-path="url(#clip206)" clip-rule="nonzero">
<g clip-path="url(#clip207)" clip-rule="nonzero">
<g clip-path="url(#clip208)" clip-rule="nonzero">
<path style=" stroke:none;fill-rule:nonzero;fill:rgb(74.508667%,68.629456%,63.529968%);fill-opacity:1;" d="M 321.683594 533.332031 C 321.972656 533.824219 321.8125 534.460938 321.320312 534.746094 L 280.394531 559.011719 C 279.910156 559.304688 279.273438 559.140625 278.984375 558.652344 L 277.402344 555.960938 C 277.109375 555.476562 277.277344 554.839844 277.765625 554.546875 L 318.6875 530.285156 C 319.179688 529.996094 319.8125 530.160156 320.101562 530.648438 L 321.683594 533.332031 "/>
</g>
</g>
</g>
</g>
<g clip-path="url(#clip209)" clip-rule="nonzero">
<g clip-path="url(#clip210)" clip-rule="nonzero">
<g clip-path="url(#clip211)" clip-rule="nonzero">
<g clip-path="url(#clip212)" clip-rule="nonzero">
<path style=" stroke:none;fill-rule:nonzero;fill:rgb(74.508667%,68.629456%,63.529968%);fill-opacity:1;" d="M 372.828125 503.082031 C 373.113281 503.566406 372.953125 504.203125 372.464844 504.496094 L 331.539062 528.753906 C 331.050781 529.046875 330.417969 528.882812 330.128906 528.394531 L 328.546875 525.710938 C 328.257812 525.21875 328.417969 524.582031 328.90625 524.289062 L 369.832031 500.027344 C 370.320312 499.738281 370.957031 499.902344 371.242188 500.390625 L 372.828125 503.082031 "/>
</g>
</g>
</g>
</g>
<g clip-path="url(#clip213)" clip-rule="nonzero">
<g clip-path="url(#clip214)" clip-rule="nonzero">
<g clip-path="url(#clip215)" clip-rule="nonzero">
<g clip-path="url(#clip216)" clip-rule="nonzero">
<path style=" stroke:none;fill-rule:nonzero;fill:rgb(74.508667%,68.629456%,63.529968%);fill-opacity:1;" d="M 405.574219 461.398438 C 406.085938 462.277344 405.796875 463.414062 404.925781 463.929688 L 271.789062 542.867188 C 270.917969 543.378906 269.78125 543.089844 269.265625 542.21875 L 268.503906 540.929688 C 267.988281 540.058594 268.28125 538.917969 269.15625 538.402344 L 402.289062 459.46875 C 403.160156 458.949219 404.296875 459.238281 404.816406 460.113281 L 405.574219 461.398438 "/>
</g>
</g>
</g>
</g>
<g clip-path="url(#clip217)" clip-rule="nonzero">
<g clip-path="url(#clip218)" clip-rule="nonzero">
<g clip-path="url(#clip219)" clip-rule="nonzero">
<g clip-path="url(#clip220)" clip-rule="nonzero">
<path style=" stroke:none;fill-rule:nonzero;fill:rgb(45.489502%,16.079712%,57.649231%);fill-opacity:1;" d="M 174.074219 389.976562 C 173.890625 392.683594 173.28125 399.273438 173.039062 401.785156 C 173.007812 402.136719 172.703125 401.96875 172.703125 401.96875 L 164.984375 397.714844 C 164.984375 397.714844 164.523438 397.488281 164.902344 397.796875 C 168.140625 400.460938 173.335938 404.753906 175.007812 406.136719 C 175.257812 406.339844 175.386719 406.28125 175.363281 405.960938 C 175.199219 403.777344 174.554688 394.910156 174.257812 390.019531 C 174.222656 389.484375 174.136719 389.101562 174.074219 389.976562 "/>
</g>
</g>
</g>
</g>
<g clip-path="url(#clip221)" clip-rule="nonzero">
<g clip-path="url(#clip222)" clip-rule="nonzero">
<g clip-path="url(#clip223)" clip-rule="nonzero">
<g clip-path="url(#clip224)" clip-rule="nonzero">
<path style=" stroke:none;fill-rule:nonzero;fill:rgb(45.489502%,16.079712%,57.649231%);fill-opacity:1;" d="M 183.816406 406.308594 C 183.632812 409.019531 183.023438 415.609375 182.78125 418.121094 C 182.746094 418.472656 182.445312 418.304688 182.445312 418.304688 L 174.722656 414.046875 C 174.722656 414.046875 174.261719 413.824219 174.640625 414.132812 C 177.882812 416.796875 183.082031 421.089844 184.75 422.46875 C 185 422.679688 185.121094 422.617188 185.101562 422.292969 C 184.941406 420.109375 184.296875 411.242188 183.996094 406.351562 C 183.960938 405.816406 183.871094 405.4375 183.816406 406.308594 "/>
</g>
</g>
</g>
</g>
<g clip-path="url(#clip225)" clip-rule="nonzero">
<g clip-path="url(#clip226)" clip-rule="nonzero">
<g clip-path="url(#clip227)" clip-rule="nonzero">
<g clip-path="url(#clip228)" clip-rule="nonzero">
<path style=" stroke:none;fill-rule:nonzero;fill:rgb(45.489502%,16.079712%,57.649231%);fill-opacity:1;" d="M 193.164062 421.992188 C 192.984375 424.699219 192.375 431.289062 192.132812 433.800781 C 192.097656 434.152344 191.796875 433.984375 191.796875 433.984375 L 184.074219 429.726562 C 184.074219 429.726562 183.613281 429.503906 183.996094 429.816406 C 187.234375 432.476562 192.433594 436.769531 194.097656 438.152344 C 194.351562 438.359375 194.476562 438.300781 194.453125 437.976562 C 194.292969 435.789062 193.648438 426.921875 193.34375 422.035156 C 193.3125 421.503906 193.222656 421.117188 193.164062 421.992188 "/>
</g>
</g>
</g>
</g>
<g clip-path="url(#clip229)" clip-rule="nonzero">
<g clip-path="url(#clip230)" clip-rule="nonzero">
<g clip-path="url(#clip231)" clip-rule="nonzero">
<g clip-path="url(#clip232)" clip-rule="nonzero">
<path style=" stroke:none;fill-rule:nonzero;fill:rgb(45.489502%,16.079712%,57.649231%);fill-opacity:1;" d="M 202.734375 438.039062 C 202.550781 440.746094 201.941406 447.335938 201.703125 449.847656 C 201.664062 450.199219 201.363281 450.03125 201.363281 450.03125 L 193.644531 445.773438 C 193.644531 445.773438 193.183594 445.546875 193.558594 445.859375 C 196.800781 448.523438 201.996094 452.816406 203.667969 454.195312 C 203.921875 454.40625 204.046875 454.34375 204.019531 454.023438 C 203.859375 451.835938 203.210938 442.972656 202.914062 438.082031 C 202.878906 437.542969 202.792969 437.164062 202.734375 438.039062 "/>
</g>
</g>
</g>
</g>
<g clip-path="url(#clip233)" clip-rule="nonzero">
<g clip-path="url(#clip234)" clip-rule="nonzero">
<g clip-path="url(#clip235)" clip-rule="nonzero">
<g clip-path="url(#clip236)" clip-rule="nonzero">
<path style=" stroke:none;fill-rule:nonzero;fill:rgb(45.489502%,16.079712%,57.649231%);fill-opacity:1;" d="M 164.515625 373.941406 C 164.332031 376.648438 163.71875 383.242188 163.480469 385.75 C 163.445312 386.105469 163.144531 385.933594 163.144531 385.933594 L 155.425781 381.679688 C 155.425781 381.679688 154.960938 381.453125 155.339844 381.765625 C 158.578125 384.429688 163.777344 388.722656 165.449219 390.101562 C 165.699219 390.308594 165.824219 390.25 165.796875 389.925781 C 165.636719 387.742188 164.996094 378.875 164.695312 373.984375 C 164.660156 373.449219 164.574219 373.070312 164.515625 373.941406 "/>
</g>
</g>
</g>
</g>
<g clip-path="url(#clip237)" clip-rule="nonzero">
<g clip-path="url(#clip238)" clip-rule="nonzero">
<g clip-path="url(#clip239)" clip-rule="nonzero">
<g clip-path="url(#clip240)" clip-rule="nonzero">
<path style=" stroke:none;fill-rule:nonzero;fill:rgb(59.609985%,59.21936%,59.21936%);fill-opacity:1;" d="M 250.710938 248.042969 C 250.710938 248.042969 217.222656 268.136719 214.566406 269.644531 C 212.683594 270.722656 211.371094 269.105469 210.808594 268.164062 C 206.335938 260.675781 196.636719 258.234375 189.148438 262.707031 C 181.660156 267.183594 179.222656 276.882812 183.695312 284.367188 C 184.257812 285.3125 184.753906 287.464844 182.964844 288.535156 L 147.078125 309.984375 C 145.179688 311.121094 144.554688 313.601562 145.6875 315.503906 L 155.855469 332.511719 C 156.996094 334.417969 159.476562 335.039062 161.375 333.902344 L 265.007812 271.960938 C 266.90625 270.828125 267.535156 268.347656 266.394531 266.441406 L 256.230469 249.433594 C 255.09375 247.53125 252.609375 246.90625 250.710938 248.042969 Z M 192.632812 268.539062 C 195.488281 266.832031 199.1875 267.761719 200.894531 270.617188 C 202.597656 273.46875 201.667969 277.167969 198.8125 278.875 C 195.957031 280.582031 192.257812 279.652344 190.554688 276.800781 C 188.847656 273.941406 189.777344 270.246094 192.632812 268.539062 "/>
</g>
</g>
</g>
</g>
<g clip-path="url(#clip241)" clip-rule="nonzero">
<g clip-path="url(#clip242)" clip-rule="nonzero">
<g clip-path="url(#clip243)" clip-rule="nonzero">
<g clip-path="url(#clip244)" clip-rule="nonzero">
<path style=" stroke:none;fill-rule:nonzero;fill:rgb(71.369934%,70.979309%,70.979309%);fill-opacity:1;" d="M 249.484375 247.734375 C 249.484375 247.734375 215.996094 267.828125 213.339844 269.335938 C 211.457031 270.414062 210.144531 268.796875 209.582031 267.851562 C 205.109375 260.367188 195.410156 257.925781 187.921875 262.398438 C 180.433594 266.875 177.996094 276.574219 182.46875 284.058594 C 183.03125 285.003906 183.527344 287.15625 181.738281 288.226562 L 145.851562 309.675781 C 143.953125 310.808594 143.328125 313.292969 144.460938 315.195312 L 154.628906 332.203125 C 155.769531 334.109375 158.25 334.730469 160.148438 333.59375 L 263.78125 271.652344 C 265.679688 270.519531 266.308594 268.039062 265.167969 266.132812 L 255.003906 249.125 C 253.867188 247.222656 251.382812 246.597656 249.484375 247.734375 Z M 191.40625 268.230469 C 194.261719 266.523438 197.960938 267.453125 199.667969 270.308594 C 201.371094 273.160156 200.441406 276.859375 197.585938 278.566406 C 194.730469 280.273438 191.03125 279.34375 189.328125 276.488281 C 187.621094 273.632812 188.550781 269.9375 191.40625 268.230469 "/>
</g>
</g>
</g>
</g>
<g clip-path="url(#clip245)" clip-rule="nonzero">
<g clip-path="url(#clip246)" clip-rule="nonzero">
<g clip-path="url(#clip247)" clip-rule="nonzero">
<g clip-path="url(#clip248)" clip-rule="nonzero">
<path style=" stroke:none;fill-rule:nonzero;fill:rgb(79.998779%,79.60968%,79.60968%);fill-opacity:1;" d="M 252.46875 249.972656 L 216.96875 271.195312 C 216.96875 271.195312 215.949219 271.804688 215.484375 271.027344 C 215.027344 270.261719 215.644531 269.890625 216.078125 269.632812 C 220.878906 266.757812 249.414062 249.671875 250.398438 249.125 C 251.097656 248.734375 251.910156 248.960938 252.460938 249.394531 C 252.972656 249.796875 252.46875 249.972656 252.46875 249.972656 "/>
</g>
</g>
</g>
</g>
<g clip-path="url(#clip249)" clip-rule="nonzero">
<g clip-path="url(#clip250)" clip-rule="nonzero">
<g clip-path="url(#clip251)" clip-rule="nonzero">
<g clip-path="url(#clip252)" clip-rule="nonzero">
<path style=" stroke:none;fill-rule:nonzero;fill:rgb(79.998779%,79.60968%,79.60968%);fill-opacity:1;" d="M 146.648438 313.21875 L 182.148438 292.007812 C 182.148438 292.007812 183.171875 291.394531 182.707031 290.621094 C 182.25 289.851562 181.628906 290.222656 181.195312 290.480469 C 176.394531 293.347656 147.832031 310.386719 146.882812 310.996094 C 146.207031 311.425781 146.023438 312.25 146.140625 312.941406 C 146.253906 313.582031 146.648438 313.21875 146.648438 313.21875 "/>
</g>
</g>
</g>
</g>
</g>
</svg>
