<?xml version="1.0" encoding="UTF-8"?>
<svg xmlns="http://www.w3.org/2000/svg" xmlns:xlink="http://www.w3.org/1999/xlink" width="595.5pt" height="842.249979pt" viewBox="0 0 595.5 842.249979" version="1.2">
<defs>
<clipPath id="clip1">
  <path d="M 137.492188 335.804688 L 237.28125 335.804688 L 237.28125 429.65625 L 137.492188 429.65625 Z M 137.492188 335.804688 "/>
</clipPath>
<clipPath id="clip2">
  <path d="M 163 294.445312 L 219 294.445312 L 219 580.898438 L 163 580.898438 Z M 163 294.445312 "/>
</clipPath>
<clipPath id="clip3">
  <path d="M 398.097656 334 L 442.429688 334 L 442.429688 442 L 398.097656 442 Z M 398.097656 334 "/>
</clipPath>
<clipPath id="clip4">
  <path d="M 400.421875 534.296875 L 429.097656 534.296875 L 429.097656 592.710938 L 400.421875 592.710938 Z M 400.421875 534.296875 "/>
</clipPath>
</defs>
<g id="surface1">
<path style=" stroke:none;fill-rule:nonzero;fill:rgb(77.648926%,54.899597%,35.688782%);fill-opacity:1;" d="M 208.609375 322.890625 C 208.167969 323.617188 207.03125 323.808594 206.316406 323.855469 C 205.929688 323.878906 205.605469 324.136719 205.484375 324.507812 L 202.824219 332.886719 C 202.710938 333.25 202.820312 333.644531 203.113281 333.890625 L 206.804688 337.003906 C 207.214844 337.34375 207.257812 337.949219 206.902344 338.34375 C 205.066406 340.386719 199.929688 346.019531 199.710938 345.417969 C 199.445312 344.6875 195.195312 348.589844 194.53125 348.589844 C 193.867188 348.589844 192.007812 346.273438 190.945312 345.417969 C 190.59375 345.136719 190.367188 345.175781 190.230469 345.355469 C 189.878906 345.824219 189.144531 345.765625 188.757812 345.328125 C 187.820312 344.269531 186.535156 342.640625 185.5 340.671875 C 184.804688 339.34375 180.730469 337.945312 181.824219 337.414062 C 183.210938 336.742188 187.199219 334.523438 187.988281 334 C 188.398438 333.71875 188.179688 331.261719 187.917969 330.835938 C 186.25 328.097656 184.277344 324.246094 183.785156 322.257812 C 183.699219 321.929688 183.441406 321.699219 183.121094 321.585938 C 181.863281 321.152344 181.175781 319.078125 180.585938 315.949219 C 180.285156 314.355469 180.445312 313.460938 180.710938 312.949219 C 180.960938 312.472656 181.59375 312.347656 182.042969 312.648438 C 182.667969 313.066406 183.507812 312.621094 183.507812 311.867188 L 183.507812 311.195312 C 183.507812 310.773438 183.78125 310.394531 184.183594 310.292969 C 184.832031 310.136719 185.992188 310.085938 187.890625 310.710938 C 191.210938 311.804688 190.40625 308.902344 190.539062 307.683594 C 190.671875 306.464844 192.40625 306.328125 196.65625 307.179688 C 200.90625 308.03125 199.8125 304.4375 199.941406 303.339844 C 200.074219 302.246094 206.882812 304.5 207.414062 304.988281 C 207.925781 305.457031 208.066406 314.152344 208.078125 314.808594 C 208.085938 314.644531 208.246094 314.035156 210.070312 313.511719 C 212.195312 312.902344 209.273438 321.796875 208.609375 322.890625 "/>
<g clip-path="url(#clip1)" clip-rule="nonzero">
<path style=" stroke:none;fill-rule:nonzero;fill:rgb(95.689392%,41.569519%,38.038635%);fill-opacity:1;" d="M 210.835938 408.515625 C 210.835938 408.515625 211.484375 406.84375 211.273438 403.519531 C 211.070312 400.195312 218.914062 376.660156 218.914062 376.660156 L 221.046875 401.652344 Z M 162.519531 404.855469 C 162.519531 404.855469 155.847656 392.582031 153.871094 388.035156 C 153.871094 388.035156 154.480469 385.839844 155.480469 384.917969 C 156.441406 384.035156 163.367188 377.972656 163.761719 375.269531 Z M 231.320312 357.488281 C 228.597656 339.261719 207.546875 336.628906 207.546875 336.628906 L 196.582031 346.707031 C 195.460938 347.738281 193.707031 347.632812 192.710938 346.480469 L 183.632812 335.988281 C 183.632812 335.988281 172.21875 336.003906 164.53125 339.21875 C 156.839844 342.433594 139.390625 379.800781 137.613281 391.351562 C 135.835938 402.90625 154.195312 420.085938 155.085938 422.304688 C 155.972656 424.523438 159.246094 427.90625 159.5 428.261719 C 161.699219 431.414062 166.617188 418.648438 166.617188 418.648438 L 173.699219 421.375 L 174.371094 419.863281 L 201.785156 417.320312 C 201.785156 417.320312 200.796875 418.566406 199.855469 420.085938 C 199.664062 419.910156 199.449219 419.753906 199.199219 419.625 C 198.773438 419.402344 198.132812 419.601562 197.714844 419.753906 C 197.613281 419.785156 196.667969 420.222656 197.027344 420.414062 C 197.878906 420.851562 198.296875 421.660156 198.582031 422.519531 C 198.179688 423.523438 198.007812 424.445312 198.34375 425.027344 C 198.886719 425.957031 199.484375 426.511719 200.355469 427.109375 C 200.375 427.125 200.394531 427.140625 200.414062 427.148438 C 201.21875 428.207031 202.300781 428.996094 203.617188 429.257812 C 205.230469 429.566406 207.082031 429.203125 208.433594 428.269531 C 208.515625 428.207031 208.742188 428.0625 208.703125 427.921875 C 208.667969 427.777344 208.394531 427.761719 208.296875 427.753906 C 207.78125 427.722656 207.097656 427.898438 206.667969 428.191406 C 206.578125 428.253906 206.492188 428.3125 206.398438 428.367188 C 206.410156 428.359375 206.347656 428.382812 206.304688 428.390625 C 206.269531 428.398438 206.210938 428.40625 206.203125 428.40625 C 206.074219 428.40625 205.941406 428.414062 205.808594 428.398438 C 205.382812 428.359375 204.964844 428.238281 204.574219 428.054688 C 204.929688 427.960938 205.289062 427.839844 205.667969 427.707031 C 207.222656 427.15625 208.742188 426.511719 210.257812 425.859375 C 213.617188 424.414062 216.929688 422.863281 220.203125 421.222656 C 224.296875 419.171875 228.417969 417.082031 232.3125 414.640625 C 233.265625 414.042969 234.210938 413.429688 235.09375 412.722656 C 240.726562 408.210938 234.039062 375.714844 231.320312 357.488281 "/>
</g>
<g clip-path="url(#clip2)" clip-rule="nonzero">
<path style=" stroke:none;fill-rule:nonzero;fill:rgb(14.509583%,11.759949%,37.649536%);fill-opacity:1;" d="M 197.0625 331.957031 C 194.515625 332.511719 191.65625 333.039062 189.5625 331.054688 C 189.335938 330.839844 188.792969 330.933594 188.519531 330.988281 C 188.421875 331.011719 187.769531 331.179688 187.980469 331.378906 C 190.535156 333.800781 194.472656 333.082031 197.5625 332.414062 C 197.714844 332.378906 198.25 332.269531 198.101562 332.023438 C 197.964844 331.800781 197.242188 331.917969 197.0625 331.957031 Z M 163.984375 580.359375 C 168.402344 582.292969 196.273438 578.429688 196.273438 578.429688 L 196.75 569.824219 L 188.554688 569.824219 C 188.554688 569.824219 159.570312 578.429688 163.984375 580.359375 Z M 208.078125 314.855469 L 210.070312 313.519531 C 210.238281 312.71875 210.464844 311.917969 210.746094 311.140625 C 211.117188 310.125 212.3125 309.316406 212.359375 308.222656 C 212.382812 307.652344 212.042969 307.125 211.652344 306.683594 C 211.277344 306.265625 210.847656 305.886719 210.375 305.566406 C 210.207031 305.449219 210.015625 305.339844 209.804688 305.328125 C 209.664062 305.324219 209.515625 305.390625 209.433594 305.492188 C 209.925781 304.359375 211.566406 302.898438 210.441406 301.75 C 209.605469 300.894531 208.417969 300.054688 208.339844 298.824219 C 208.238281 297.097656 205.308594 297.289062 204.265625 297.480469 C 203.21875 297.671875 203.011719 295.949219 201.546875 295.183594 C 200.085938 294.414062 199.144531 296.617188 197.472656 295.0625 C 195.796875 293.503906 192.453125 295.371094 191.09375 295.851562 C 189.738281 296.332031 189.839844 294.605469 187.855469 295.183594 C 185.867188 295.757812 187.542969 296.808594 184.511719 297.289062 C 181.480469 297.769531 183.152344 300.070312 183.152344 300.933594 C 183.152344 301.792969 181.515625 302.367188 181.515625 302.367188 C 178.414062 303.515625 181.058594 307.832031 181.515625 308.40625 C 181.96875 308.984375 181.515625 312.300781 181.515625 312.300781 C 181.515625 312.300781 183.03125 313.320312 183.507812 313.640625 C 183.984375 313.960938 184.195312 313.773438 184.71875 312.335938 C 185.242188 310.898438 186.335938 310.316406 188.511719 310.910156 C 190.6875 311.503906 190.296875 311.054688 190.78125 308.945312 C 191.265625 306.839844 194.761719 307.613281 198.007812 307.347656 C 208.214844 306.515625 208.078125 314.855469 208.078125 314.855469 Z M 216.855469 579.660156 C 216.113281 578.699219 215.1875 577.5 214.039062 575.988281 C 209.441406 569.910156 202.398438 558.488281 200.605469 555.5625 C 200.332031 555.117188 200.402344 554.550781 200.757812 554.171875 C 201.351562 553.550781 202.355469 552.667969 203.5625 552.363281 C 203.5625 552.363281 209.886719 549.742188 212.550781 555.691406 C 214.4375 559.898438 217.347656 571.984375 218.882812 578.699219 C 219.160156 579.898438 217.609375 580.625 216.855469 579.660156 "/>
</g>
<path style=" stroke:none;fill-rule:nonzero;fill:rgb(14.509583%,11.759949%,37.649536%);fill-opacity:1;" d="M 161.527344 532 C 164.429688 534.703125 167.554688 537.171875 170.855469 539.390625 C 171.355469 539.722656 172.992188 539 172.265625 538.507812 C 160.597656 530.664062 151.277344 519.425781 145.625 506.558594 C 144.046875 502.960938 142.761719 499.242188 141.773438 495.445312 C 141.609375 494.800781 139.824219 495.269531 139.996094 495.921875 C 143.570312 509.675781 151.148438 522.304688 161.527344 532 Z M 176.902344 555.621094 C 164.960938 551.480469 153.949219 544.871094 144.648438 536.304688 C 144.296875 535.976562 142.683594 536.644531 142.972656 536.917969 C 152.332031 545.539062 163.421875 552.15625 175.445312 556.332031 C 175.855469 556.472656 177.445312 555.8125 176.902344 555.621094 Z M 169.375 566.949219 C 162.992188 567.511719 156.554688 566.542969 150.605469 564.164062 C 150.222656 564.011719 149.683594 564.109375 149.347656 564.339844 C 149.140625 564.476562 148.773438 564.847656 149.183594 565.007812 C 155.515625 567.535156 162.332031 568.507812 169.125 567.902344 C 169.984375 567.824219 170.613281 566.835938 169.375 566.949219 Z M 222.0625 400.289062 C 222.175781 400.21875 222.261719 400.140625 222.253906 400.058594 C 221.371094 389.066406 220.496094 378.078125 219.613281 367.082031 C 219.597656 366.851562 217.96875 367.125 218 367.515625 C 218.882812 378.507812 219.757812 389.496094 220.640625 400.488281 C 220.640625 400.511719 220.671875 400.519531 220.695312 400.539062 C 218.691406 402.070312 216.695312 403.597656 214.699219 405.132812 C 214.414062 405.347656 214.507812 405.667969 214.824219 405.777344 C 215.199219 405.90625 215.671875 405.785156 215.980469 405.554688 C 218.015625 403.988281 220.050781 402.429688 222.085938 400.871094 C 222.332031 400.6875 222.277344 400.425781 222.0625 400.289062 Z M 208.703125 427.921875 C 208.667969 427.777344 208.394531 427.761719 208.296875 427.753906 C 207.78125 427.722656 207.097656 427.898438 206.667969 428.191406 C 206.578125 428.253906 206.492188 428.3125 206.398438 428.367188 C 206.410156 428.359375 206.347656 428.382812 206.304688 428.390625 C 206.269531 428.398438 206.210938 428.40625 206.203125 428.40625 C 206.074219 428.40625 205.941406 428.414062 205.808594 428.398438 C 205.257812 428.351562 204.714844 428.160156 204.238281 427.882812 C 203.175781 427.269531 202.40625 426.265625 201.902344 425.167969 C 201.085938 423.386719 201.160156 420.636719 199.199219 419.625 C 198.773438 419.402344 198.132812 419.601562 197.714844 419.753906 C 197.613281 419.785156 196.667969 420.222656 197.027344 420.414062 C 198.164062 421 198.535156 422.25 198.839844 423.402344 C 199.179688 424.699219 199.539062 425.964844 200.34375 427.0625 C 201.152344 428.160156 202.257812 428.988281 203.617188 429.257812 C 205.230469 429.566406 207.082031 429.203125 208.433594 428.269531 C 208.515625 428.207031 208.742188 428.0625 208.703125 427.921875 Z M 187.179688 510.765625 C 187.105469 501.03125 187.035156 493.933594 187.035156 493.933594 L 182.699219 472.761719 C 180.984375 485.027344 179.703125 496.105469 180.421875 497.570312 C 180.949219 498.644531 183.679688 503.917969 187.179688 510.765625 Z M 200.960938 538.316406 C 204.207031 545.078125 206.46875 550.183594 206.300781 550.992188 C 205.777344 553.625 200.363281 556.257812 200.363281 556.257812 C 200.363281 556.257812 199.804688 555.574219 198.824219 554.390625 C 197.558594 563.839844 196.75 569.820312 196.75 569.820312 L 187.097656 569.820312 C 187.097656 569.820312 187.375 554.113281 187.339844 540.464844 C 175.792969 526.410156 160.480469 507.632812 158.710938 504.71875 C 155.832031 499.988281 153.722656 485.042969 155.796875 465.515625 C 157.679688 447.835938 158.980469 429.617188 159.199219 426.042969 C 160.5625 424.445312 167.925781 410.851562 170.179688 412.109375 L 185.121094 413.660156 C 190.53125 412.839844 200.027344 413.566406 200.027344 413.566406 C 200.027344 413.566406 203.484375 425.742188 205.46875 425.359375 C 207.453125 424.976562 212.722656 424.652344 212.722656 424.652344 L 213.367188 433.59375 C 213.804688 439.644531 206.027344 499.996094 200.960938 538.316406 Z M 153.058594 387.4375 C 153.058594 387.46875 153.046875 387.5 153.054688 387.542969 C 154.105469 391.296875 155.738281 394.875 157.902344 398.121094 C 158.316406 398.738281 159.882812 398.191406 159.417969 397.484375 C 157.308594 394.324219 155.710938 390.867188 154.695312 387.199219 C 154.664062 387.097656 154.597656 387.015625 154.515625 386.945312 C 157.203125 383.835938 159.886719 380.710938 162.574219 377.589844 C 162.800781 377.328125 162.390625 377.296875 162.199219 377.304688 C 161.894531 377.304688 161.328125 377.390625 161.105469 377.648438 C 158.378906 380.820312 155.648438 383.992188 152.917969 387.160156 C 152.765625 387.335938 152.898438 387.40625 153.058594 387.4375 Z M 199.363281 352.628906 C 200.398438 353.046875 201.496094 353.285156 202.609375 353.3125 C 203.578125 353.34375 204.710938 353.3125 205.558594 352.78125 C 206.320312 352.3125 206.359375 351.5625 206.058594 350.777344 C 205.816406 350.152344 205.496094 349.539062 205.171875 348.933594 C 206.152344 349.246094 207.136719 349.558594 208.121094 349.871094 C 209.335938 350.261719 210.921875 350.820312 212.039062 349.824219 C 212.550781 349.371094 212.367188 348.738281 212.238281 348.148438 C 212.050781 347.3125 211.835938 346.480469 211.589844 345.65625 C 211.117188 344.074219 210.527344 342.53125 209.839844 341.03125 C 209.652344 340.621094 208.089844 341.164062 208.226562 341.464844 C 209.328125 343.859375 210.226562 346.40625 210.714844 349.003906 C 210.734375 349.121094 210.765625 349.242188 210.769531 349.363281 C 210.773438 349.46875 210.746094 349.554688 210.722656 349.625 C 210.664062 349.605469 210.601562 349.59375 210.539062 349.574219 C 209.875 349.378906 209.21875 349.15625 208.5625 348.949219 C 207.167969 348.503906 205.773438 348.0625 204.382812 347.617188 C 204.175781 347.554688 202.734375 347.796875 202.917969 348.15625 C 203.289062 348.894531 203.664062 349.628906 204.039062 350.363281 C 204.300781 350.882812 204.652344 351.472656 204.632812 352.082031 C 204.628906 352.214844 204.609375 352.382812 204.53125 352.496094 C 204.535156 352.53125 204.535156 352.5625 204.539062 352.597656 C 204.433594 352.605469 204.328125 352.613281 204.21875 352.621094 C 203.816406 352.644531 203.414062 352.628906 203.011719 352.589844 C 202.210938 352.507812 201.429688 352.289062 200.683594 351.988281 C 200.367188 351.859375 199.84375 352.039062 199.558594 352.1875 C 199.375 352.28125 199.035156 352.5 199.363281 352.628906 Z M 195.234375 381.988281 C 195.085938 381.917969 194.863281 381.917969 194.703125 381.933594 C 194.496094 381.964844 194.273438 382.03125 194.097656 382.148438 C 193.96875 382.226562 193.832031 382.324219 193.789062 382.484375 C 193.582031 383.199219 193.375 383.921875 193.171875 384.644531 C 193.132812 384.773438 193.230469 384.875 193.332031 384.925781 C 193.480469 385.003906 193.703125 385.003906 193.863281 384.980469 C 194.074219 384.949219 194.296875 384.894531 194.476562 384.773438 C 194.601562 384.6875 194.738281 384.589844 194.78125 384.4375 C 194.988281 383.714844 195.191406 383 195.402344 382.277344 C 195.433594 382.148438 195.339844 382.046875 195.234375 381.988281 Z M 186.835938 402.46875 C 186.777344 403.304688 188.417969 403.082031 188.472656 402.351562 C 189.519531 388.144531 191.378906 374.011719 194.058594 360.023438 C 194.8125 356.085938 195.636719 352.15625 196.519531 348.242188 C 196.695312 347.457031 195.046875 347.648438 194.886719 348.363281 C 191.753906 362.253906 189.421875 376.328125 187.914062 390.484375 C 187.488281 394.476562 187.132812 398.46875 186.835938 402.46875 Z M 180.550781 349.082031 C 182.035156 348.851562 183.523438 348.617188 185.007812 348.390625 C 184.765625 349.476562 184.621094 350.582031 184.613281 351.699219 C 184.605469 352.59375 184.691406 353.644531 185.640625 354.027344 C 186.667969 354.449219 187.742188 353.886719 188.5625 353.28125 C 189.699219 352.457031 190.800781 351.585938 191.917969 350.738281 C 192.789062 350.078125 191.480469 349.558594 190.855469 350.035156 C 190.085938 350.613281 189.320312 351.199219 188.546875 351.78125 C 188.148438 352.085938 187.75 352.414062 187.335938 352.699219 C 187.023438 352.914062 186.730469 353.15625 186.453125 352.792969 C 186.027344 352.238281 186.242188 351.066406 186.296875 350.441406 C 186.375 349.484375 186.546875 348.539062 186.789062 347.609375 C 186.890625 347.226562 186.3125 347.058594 186.050781 347.101562 C 184.625 347.320312 183.195312 347.542969 181.773438 347.765625 C 181.148438 347.863281 180.527344 347.980469 179.902344 348.058594 C 179.5 348.105469 179.472656 348.023438 179.609375 347.628906 C 179.714844 347.320312 180.003906 347.027344 180.191406 346.765625 C 181.785156 344.511719 183.378906 342.257812 184.96875 340.003906 C 185.558594 339.175781 184.042969 338.964844 183.625 339.554688 C 182.625 340.96875 181.621094 342.386719 180.617188 343.804688 C 180.132812 344.492188 179.644531 345.1875 179.15625 345.875 C 178.738281 346.464844 178.144531 347.089844 177.941406 347.800781 C 177.472656 349.472656 179.578125 349.234375 180.550781 349.082031 Z M 196.308594 364.910156 C 196.5 364.808594 196.707031 364.746094 196.921875 364.714844 C 197.113281 364.679688 197.632812 364.628906 197.585938 364.945312 C 197.351562 366.589844 197.117188 368.234375 196.882812 369.878906 C 196.863281 370.007812 196.660156 370.109375 196.558594 370.164062 C 196.371094 370.269531 196.160156 370.328125 195.949219 370.363281 C 195.757812 370.394531 195.234375 370.445312 195.28125 370.128906 C 195.515625 368.484375 195.75 366.839844 195.988281 365.195312 C 196.007812 365.070312 196.207031 364.964844 196.308594 364.910156 "/>
<path style=" stroke:none;fill-rule:nonzero;fill:rgb(90.19928%,66.668701%,47.059631%);fill-opacity:1;" d="M 361.878906 408.101562 C 362.398438 408.566406 354.167969 428.878906 354.34375 430.558594 C 354.519531 432.238281 360.476562 438.710938 360.300781 439.238281 C 360.125 439.761719 361.003906 447.289062 360.300781 447.8125 C 359.601562 448.332031 358.109375 447.8125 358.109375 447.8125 L 356.972656 443.609375 C 356.972656 443.609375 354.871094 444.484375 355.394531 446.589844 C 355.921875 448.6875 358.109375 456.730469 358.109375 456.730469 C 358.109375 456.730469 352.941406 458.132812 351.015625 452.882812 C 349.089844 447.636719 349.613281 447.289062 349.964844 444.832031 C 350.316406 442.386719 349.628906 435.210938 349.628906 435.210938 C 349.628906 435.210938 347.472656 429.566406 347.472656 428.632812 L 347.472656 411.585938 C 347.472656 411.585938 355.359375 411.996094 357.503906 410.875 C 359.167969 410.007812 360.832031 407.15625 361.878906 408.101562 "/>
<path style=" stroke:none;fill-rule:nonzero;fill:rgb(90.19928%,66.668701%,47.059631%);fill-opacity:1;" d="M 427.191406 407.910156 C 427.191406 407.910156 429.929688 418.453125 430.84375 419.820312 C 431.75 421.183594 428.410156 422.246094 427.191406 424.070312 C 425.976562 425.890625 426.121094 437.585938 426.121094 437.585938 C 426.121094 437.585938 427.796875 438.648438 428.554688 436.070312 C 429.316406 433.484375 430.082031 430.449219 430.082031 430.449219 C 430.082031 430.449219 432.507812 430.296875 432.058594 431.664062 C 431.601562 433.027344 427.191406 442.292969 427.191406 442.292969 C 427.191406 442.292969 428.097656 445.785156 437.679688 441.382812 C 437.679688 441.382812 438.816406 438.160156 438.507812 432.410156 C 438.398438 430.234375 438.097656 425.132812 437.941406 420.140625 C 437.695312 411.910156 439.507812 403.261719 439.507812 403.261719 C 439.507812 403.261719 436.332031 404.480469 433.277344 404.175781 C 430.230469 403.875 427.191406 407.910156 427.191406 407.910156 "/>
<path style=" stroke:none;fill-rule:nonzero;fill:rgb(90.19928%,66.668701%,47.059631%);fill-opacity:1;" d="M 382.199219 317.230469 C 382.46875 317.484375 384.792969 322.199219 385.027344 319.410156 C 385.257812 316.613281 384.050781 313.105469 387.195312 312.988281 C 390.34375 312.871094 395.121094 311.242188 395.238281 309.613281 C 395.351562 307.984375 408.140625 309.613281 408.140625 309.613281 C 408.140625 309.613281 408.984375 326.644531 408.140625 330.507812 C 407.289062 334.367188 403.929688 335.875 403.257812 335.710938 C 402.585938 335.539062 403.257812 345.109375 403.257812 345.109375 C 403.257812 345.109375 403.535156 362.902344 394.824219 362.730469 C 394.824219 362.730469 389.980469 361.558594 389.480469 359.207031 C 388.972656 356.855469 388.300781 349.976562 388.300781 349.976562 C 388.300781 349.976562 386.621094 343.765625 383.425781 341.917969 L 383.597656 328.492188 C 383.597656 328.492188 379.226562 327.316406 378.21875 324.464844 C 377.210938 321.609375 379.523438 314.671875 382.199219 317.230469 "/>
<path style=" stroke:none;fill-rule:nonzero;fill:rgb(14.509583%,11.759949%,37.649536%);fill-opacity:1;" d="M 371.402344 454.214844 C 371.402344 454.214844 379.308594 467.335938 377.871094 476.75 C 376.4375 486.15625 383.808594 563.875 384.21875 563.875 C 384.625 563.875 398.105469 564.285156 397.714844 557.746094 C 397.324219 551.195312 397.722656 513.566406 397.722656 513.566406 C 397.722656 513.566406 410.488281 485.421875 411.621094 482.03125 C 412.753906 478.640625 416.746094 449.617188 416.746094 449.617188 C 416.746094 449.617188 408.808594 456.257812 396.160156 454.214844 C 383.515625 452.164062 371.402344 454.214844 371.402344 454.214844 "/>
<path style=" stroke:none;fill-rule:nonzero;fill:rgb(18.03894%,21.569824%,49.798584%);fill-opacity:1;" d="M 347.039062 410.097656 C 347.039062 410.097656 344.40625 412.453125 354.6875 412.445312 C 361.902344 412.4375 361.902344 410.980469 361.902344 410.980469 L 367.09375 395.191406 C 367.09375 395.191406 363.160156 432.285156 363.378906 432.410156 C 363.597656 432.53125 366 437.117188 384.582031 441.480469 C 384.582031 441.480469 386.355469 444.4375 385.875 436.257812 C 385.390625 428.074219 389.488281 371.742188 389.488281 371.742188 L 389.488281 347.671875 C 389.488281 347.671875 383.449219 340.269531 383.492188 336.839844 C 383.535156 333.410156 383.519531 334.601562 383.519531 334.601562 C 383.519531 334.601562 379.4375 335.886719 377.046875 339.171875 C 374.652344 342.457031 362.332031 346.101562 358.898438 350.726562 C 355.457031 355.355469 345.144531 399.402344 344.996094 401.792969 C 344.929688 402.867188 345.421875 403.09375 345.988281 403.023438 C 346.398438 402.96875 346.695312 403.394531 346.457031 403.734375 C 345.335938 405.375 343.964844 407.910156 346.304688 407.910156 C 347.472656 407.910156 347.039062 410.097656 347.039062 410.097656 "/>
<g clip-path="url(#clip3)" clip-rule="nonzero">
<path style=" stroke:none;fill-rule:nonzero;fill:rgb(18.03894%,21.569824%,49.798584%);fill-opacity:1;" d="M 402.984375 336.914062 C 402.984375 336.914062 403.128906 354.992188 399.246094 360.390625 C 395.988281 364.921875 403.589844 434.910156 403.589844 434.910156 C 403.589844 434.910156 403.082031 442.488281 406.371094 440.976562 C 409.660156 439.453125 417 437.9375 417 437.9375 L 417 442 C 417 442 421.300781 442.039062 422.820312 432.410156 C 424.339844 422.769531 422.820312 409.625 422.820312 409.625 C 422.820312 409.625 435.65625 404.046875 439.734375 403.835938 C 443.800781 403.628906 442.375 401.660156 441.238281 399.394531 C 440.105469 397.117188 442.105469 396.550781 440.4375 394.664062 C 438.773438 392.773438 437.835938 386.90625 437.835938 386.90625 C 437.835938 386.90625 430.953125 352.703125 427.347656 348.683594 C 423.75 344.664062 405.878906 334.402344 405.878906 334.402344 L 402.929688 335.875 L 402.984375 336.914062 "/>
</g>
<path style=" stroke:none;fill-rule:nonzero;fill:rgb(98.429871%,91.758728%,58.428955%);fill-opacity:1;" d="M 389.488281 359.269531 C 389.488281 359.269531 394.914062 363.078125 399.246094 360.390625 C 399.246094 360.390625 402.3125 439.125 405.273438 439.683594 C 408.238281 440.242188 417.125 435.535156 417.746094 436.570312 C 418.363281 437.609375 417.746094 448.191406 417.746094 448.191406 C 417.746094 448.191406 410.46875 459.796875 401.949219 456.898438 C 393.429688 454.003906 374.933594 453.386719 371.402344 454.214844 C 367.867188 455.042969 365.582031 455.042969 366.207031 451.511719 C 366.828125 447.984375 368.015625 435.859375 368.015625 435.859375 C 368.015625 435.859375 379.804688 440.296875 382.832031 436.363281 C 385.859375 432.429688 385.984375 363.332031 389.488281 359.265625 "/>
<path style=" stroke:none;fill-rule:nonzero;fill:rgb(14.509583%,11.759949%,37.649536%);fill-opacity:1;" d="M 385.632812 561.253906 C 385.632812 561.253906 388.582031 584.320312 394.074219 587.285156 C 399.5625 590.25 403.917969 585.707031 402.730469 579.171875 C 401.542969 572.648438 396.09375 561.253906 396.09375 561.253906 C 396.09375 561.253906 390.191406 561.933594 385.632812 561.253906 "/>
<path style=" stroke:none;fill-rule:nonzero;fill:rgb(14.509583%,11.759949%,37.649536%);fill-opacity:1;" d="M 380.421875 524.644531 C 380.421875 524.644531 371.671875 535.890625 371.402344 538.128906 C 371.136719 540.375 382.078125 543.425781 382.078125 543.425781 L 380.421875 524.644531 "/>
<path style=" stroke:none;fill-rule:nonzero;fill:rgb(14.509583%,11.759949%,37.649536%);fill-opacity:1;" d="M 408.46875 299.820312 C 407.957031 299.554688 407.429688 299.3125 406.898438 299.089844 C 396.375 294.632812 382.535156 296.167969 374.382812 304.46875 C 360.429688 318.6875 372.429688 318.132812 369.640625 322.3125 C 366.847656 326.492188 355.125 330.820312 357.636719 335.070312 C 360.148438 339.316406 351.777344 341.546875 350.9375 347.957031 C 350.101562 354.371094 353.171875 351.859375 352.894531 354.925781 C 352.613281 357.992188 343.285156 364.605469 347.472656 369.019531 C 351.660156 373.429688 351.660156 373.429688 351.660156 373.429688 L 358.25 351.886719 C 358.25 351.886719 360.644531 348.628906 363.289062 347.238281 C 365.933594 345.847656 375.175781 341.125 375.175781 341.125 C 375.175781 341.125 378.101562 337.910156 379.582031 336.917969 C 381.066406 335.929688 383.519531 334.601562 383.519531 334.601562 L 384.078125 328.71875 C 384.078125 328.71875 378.558594 326.691406 378.21875 324.464844 C 377.878906 322.234375 378.753906 320.09375 380.535156 319.171875 C 381.5625 318.648438 383.035156 320.078125 384.570312 321.207031 C 385.34375 321.773438 387.707031 319.664062 387.609375 318.402344 C 387.132812 312.4375 395.511719 314.328125 395.753906 310.914062 C 395.941406 308.335938 403.398438 309.503906 404.800781 310.445312 C 406.203125 311.390625 408.4375 315.976562 408.476562 319.636719 C 408.515625 323.296875 407.890625 333.179688 405.878906 334.402344 L 421.355469 343.984375 C 421.355469 343.984375 426.542969 342.855469 421.355469 338.261719 C 421.355469 338.261719 418.699219 336.761719 419.707031 336.09375 C 420.710938 335.425781 420.371094 334.359375 416.820312 331.617188 C 413.28125 328.875 412.71875 329.152344 413.652344 324.257812 C 414.90625 317.667969 416.386719 306.417969 410.769531 301.378906 C 410.078125 300.757812 409.292969 300.253906 408.46875 299.820312 "/>
<path style=" stroke:none;fill-rule:nonzero;fill:rgb(46.269226%,25.878906%,17.649841%);fill-opacity:1;" d="M 388.140625 332.554688 C 391.636719 335.429688 396.121094 336.84375 400.636719 336.667969 C 401.085938 336.652344 401.84375 336.503906 402.132812 336.113281 C 402.425781 335.714844 401.878906 335.648438 401.578125 335.660156 C 397.46875 335.816406 393.414062 334.359375 390.25 331.753906 C 389.742188 331.335938 387.71875 332.203125 388.140625 332.554688 "/>
<path style=" stroke:none;fill-rule:nonzero;fill:rgb(18.03894%,21.569824%,49.798584%);fill-opacity:1;" d="M 336.097656 472.769531 C 342.734375 484.683594 349.367188 496.597656 356.003906 508.503906 C 357.878906 511.878906 359.757812 515.246094 361.632812 518.621094 C 361.914062 519.117188 364.023438 518.273438 363.878906 518.019531 C 357.246094 506.113281 350.609375 494.199219 343.976562 482.285156 C 342.097656 478.910156 340.21875 475.542969 338.34375 472.175781 C 338.066406 471.671875 335.953125 472.515625 336.097656 472.769531 "/>
<path style=" stroke:none;fill-rule:nonzero;fill:rgb(18.03894%,21.569824%,49.798584%);fill-opacity:1;" d="M 353.320312 484.460938 C 357.90625 492.6875 362.492188 500.925781 367.085938 509.15625 C 367.507812 509.914062 369.675781 509.15625 369.152344 508.21875 C 364.566406 499.988281 359.976562 491.753906 355.386719 483.523438 C 354.964844 482.765625 352.796875 483.523438 353.320312 484.460938 "/>
<path style=" stroke:none;fill-rule:nonzero;fill:rgb(18.03894%,21.569824%,49.798584%);fill-opacity:1;" d="M 356.808594 474.148438 C 360.792969 481.386719 364.777344 488.617188 368.761719 495.847656 C 369.078125 496.421875 371.210938 495.609375 371.007812 495.242188 C 367.023438 488.011719 363.039062 480.785156 359.054688 473.554688 C 358.738281 472.980469 356.605469 473.792969 356.808594 474.148438 "/>
<g clip-path="url(#clip4)" clip-rule="nonzero">
<path style=" stroke:none;fill-rule:nonzero;fill:rgb(18.03894%,21.569824%,49.798584%);fill-opacity:1;" d="M 400.722656 535.898438 C 407.503906 550.585938 414.289062 565.261719 421.0625 579.949219 C 422.984375 584.097656 424.898438 588.253906 426.820312 592.402344 C 427.152344 593.128906 429.347656 592.417969 429.066406 591.808594 C 422.285156 577.121094 415.503906 562.445312 408.722656 547.757812 C 406.804688 543.609375 404.886719 539.453125 402.96875 535.304688 C 402.632812 534.578125 400.4375 535.289062 400.722656 535.898438 "/>
</g>
<path style=" stroke:none;fill-rule:nonzero;fill:rgb(18.03894%,21.569824%,49.798584%);fill-opacity:1;" d="M 408.492188 536.148438 C 415.242188 549.933594 421.984375 563.730469 428.734375 577.523438 C 429.207031 578.492188 431.324219 577.617188 430.78125 576.511719 C 424.03125 562.714844 417.285156 548.921875 410.539062 535.125 C 410.070312 534.160156 407.949219 535.035156 408.492188 536.148438 "/>
<path style=" stroke:none;fill-rule:nonzero;fill:rgb(18.03894%,21.569824%,49.798584%);fill-opacity:1;" d="M 414.96875 530.730469 C 418.015625 538.003906 421.054688 545.289062 424.09375 552.574219 C 424.464844 553.449219 426.679688 552.792969 426.339844 551.972656 C 423.300781 544.6875 420.253906 537.410156 417.21875 530.125 C 416.851562 529.242188 414.628906 529.910156 414.96875 530.730469 "/>
<path style=" stroke:none;fill-rule:nonzero;fill:rgb(74.899292%,15.289307%,21.569824%);fill-opacity:1;" d="M 337.539062 427.664062 L 326.875 420.410156 C 326.152344 419.941406 325.21875 420.097656 324.703125 420.828125 C 324.183594 421.558594 324.390625 422.496094 325.117188 423.019531 L 331.484375 427.351562 L 250.933594 427.351562 L 257.402344 422.96875 C 258.128906 422.496094 258.28125 421.507812 257.816406 420.777344 C 257.351562 420.046875 256.417969 419.835938 255.695312 420.304688 L 244.980469 427.558594 C 244.566406 427.871094 244.308594 428.34375 244.308594 428.863281 C 244.308594 429.386719 244.566406 429.855469 244.980469 430.167969 L 255.695312 437.421875 C 255.953125 437.578125 256.265625 437.683594 256.574219 437.683594 C 257.09375 437.683594 257.558594 437.421875 257.867188 437.003906 C 258.335938 436.273438 258.179688 435.332031 257.453125 434.8125 L 250.984375 430.429688 L 331.742188 430.429688 L 325.167969 434.917969 C 324.445312 435.386719 324.289062 436.378906 324.753906 437.109375 C 325.066406 437.578125 325.53125 437.785156 326.046875 437.785156 C 326.359375 437.785156 326.667969 437.683594 326.929688 437.523438 L 337.640625 430.273438 C 338.054688 429.960938 338.316406 429.488281 338.316406 428.96875 C 338.316406 428.445312 338.003906 427.925781 337.539062 427.664062 Z M 337.539062 427.664062 "/>
</g>
</svg>
