<?xml version="1.0" encoding="UTF-8"?>
<svg xmlns="http://www.w3.org/2000/svg" xmlns:xlink="http://www.w3.org/1999/xlink" width="595.5pt" height="842.249979pt" viewBox="0 0 595.5 842.249979" version="1.2">
<defs>
<clipPath id="clip1">
  <path d="M 12.3125 112.335938 L 550.742188 112.335938 L 550.742188 724.738281 L 12.3125 724.738281 Z M 12.3125 112.335938 "/>
</clipPath>
</defs>
<g id="surface1">
<path style=" stroke:none;fill-rule:nonzero;fill:rgb(70.588684%,42.749023%,23.919678%);fill-opacity:1;" d="M 469.09375 379.160156 L 474.457031 399.300781 C 474.457031 399.300781 482.210938 394.171875 483.046875 393.269531 C 483.867188 392.382812 481.898438 376.816406 481.898438 376.816406 Z M 476.933594 292.304688 L 476.210938 294.238281 C 476.210938 294.238281 466.570312 315.3125 477.949219 315.574219 C 477.949219 315.574219 485.636719 317.035156 487.128906 310.644531 L 488.636719 304.25 L 492.835938 304.449219 L 492.328125 292.304688 Z M 442.503906 643.867188 C 445.371094 645.785156 449.847656 642.917969 449.847656 638.460938 L 449.847656 612.011719 L 437.09375 612.011719 C 437.09375 612.011719 439.632812 641.949219 442.503906 643.867188 Z M 385.792969 612.011719 L 385.808594 614.433594 C 385.808594 614.433594 383.875 631.28125 386.5625 636 C 393.023438 647.308594 410.21875 647.652344 410.21875 647.652344 L 395.597656 612.011719 Z M 509.804688 273.917969 C 509.804688 273.917969 498.539062 287.125 499.949219 292.304688 C 501.359375 297.46875 497.066406 317.246094 497.066406 317.246094 L 499.410156 317.246094 C 522.921875 313.691406 509.804688 273.917969 509.804688 273.917969 Z M 477.308594 271.917969 C 478.210938 272.230469 479.308594 266.003906 479.980469 261.46875 C 480.816406 259.050781 481.324219 257.199219 481.324219 257.199219 C 481.324219 257.199219 474.308594 243.476562 469.128906 242.675781 C 463.929688 241.882812 456.980469 240.578125 455.996094 243.957031 C 455.996094 243.957031 455.71875 244.898438 455.289062 246.40625 C 454.453125 246.875 453.929688 247.515625 453.816406 248.398438 C 453.816406 248.398438 453.289062 251.816406 452.929688 256.105469 C 452.042969 260.574219 451.535156 265.0625 452.421875 267.207031 C 452.488281 267.398438 452.601562 267.578125 452.734375 267.75 C 452.914062 269.527344 453.257812 271 453.816406 271.917969 C 456.636719 276.621094 475.898438 271.460938 477.308594 271.917969 Z M 504.441406 175.589844 C 504.441406 175.589844 511.425781 172.773438 510.984375 159.648438 C 510.984375 159.648438 507.902344 153.886719 505.035156 161.378906 C 502.164062 168.867188 499.296875 162.234375 500 158.363281 C 500.722656 154.492188 499.050781 149.84375 499.050781 149.84375 C 499.050781 149.84375 493.277344 151.660156 488.738281 151.128906 C 488.738281 151.128906 486.390625 156.550781 482.097656 152.167969 C 477.785156 147.777344 467.046875 154.492188 467.046875 154.492188 C 467.046875 154.492188 460.863281 178.738281 471.40625 182.476562 L 470.375 186.261719 C 470.375 186.261719 458.453125 202.851562 471.832031 203.71875 C 484.113281 204.511719 490.410156 199.824219 490.410156 199.824219 C 490.410156 199.824219 498.902344 201.398438 500.574219 199.332031 C 502.246094 197.269531 504.441406 175.589844 504.441406 175.589844 Z M 403.1875 141.984375 C 403.1875 141.984375 382.875 143.664062 382.085938 165.40625 C 380.9375 197.550781 393.808594 200.164062 395.480469 202.027344 C 395.480469 202.027344 395.171875 238.042969 391.824219 243.726562 C 391.824219 243.726562 407.203125 248.726562 409.875 248.390625 C 412.546875 248.050781 419.910156 246.382812 419.582031 242.703125 C 419.253906 239.019531 410.875 236.34375 411.21875 231.992188 C 411.546875 227.644531 427.632812 199.070312 428.648438 194.710938 C 429.648438 190.355469 430.601562 169.566406 430.601562 169.566406 C 430.601562 169.566406 429.960938 138.300781 403.1875 141.984375 Z M 372.5625 262.378906 C 372.5625 262.378906 368.316406 262.027344 365.824219 260.964844 C 363.363281 259.910156 367.59375 251.421875 366.886719 243.996094 C 366.183594 236.570312 354.511719 238.335938 353.101562 238.6875 C 351.691406 239.046875 320.554688 278.292969 312.425781 301.992188 C 304.277344 325.671875 360.527344 354.660156 360.527344 354.660156 L 353.183594 381.011719 L 362.394531 397.25 C 366.839844 397.25 372.691406 362.804688 372.5625 354.660156 C 372.414062 346.300781 334.738281 301.546875 333.292969 299.859375 C 348.855469 291.371094 372.5625 262.378906 372.5625 262.378906 Z M 320.015625 189.914062 L 318.015625 172.996094 C 321.164062 170.136719 322.308594 156.371094 322.308594 156.371094 C 328.328125 157.519531 329.769531 149.203125 328.621094 140.597656 C 327.476562 132.003906 322.308594 137.160156 322.308594 137.160156 C 322.308594 137.160156 321.164062 132.289062 320.015625 124.839844 C 318.867188 117.386719 313.996094 119.097656 305.09375 119.671875 C 296.210938 120.242188 298.503906 110.78125 285.027344 112.792969 C 271.535156 114.800781 277.125 136.316406 277.273438 137.160156 C 277.960938 141.003906 276.304688 141.957031 276.304688 141.957031 C 269.960938 138.65625 269.566406 149.351562 271.011719 158.601562 C 272.46875 167.84375 281.042969 165.347656 281.042969 165.347656 C 282.125 170.597656 288.160156 174.800781 288.160156 174.800781 C 288.160156 174.800781 287.601562 183.605469 287.601562 191.640625 C 287.601562 199.664062 297.929688 201.957031 297.929688 201.957031 C 321.164062 203.105469 320.015625 189.917969 320.015625 189.917969 Z M 176.3125 644.210938 C 176.3125 644.210938 182.820312 646.292969 182.820312 644.210938 C 182.820312 642.128906 192.804688 591.410156 192.804688 587.9375 C 192.804688 587.9375 177.605469 586.871094 169.8125 583.707031 C 169.8125 583.707031 175.449219 636.753906 176.3125 644.210938 Z M 141.6875 644.210938 L 149.171875 644.210938 L 161.65625 583.707031 C 161.65625 583.707031 141.390625 586.199219 138.894531 588.691406 Z M 138.894531 473.175781 C 135.0625 471.847656 132.824219 465.242188 128.882812 464.457031 C 125.457031 471.09375 122.84375 485.398438 121.730469 492.789062 C 119.996094 504.261719 119.777344 515.832031 118.304688 527.320312 L 104.175781 547.507812 C 104.175781 547.507812 108.859375 549.917969 113.128906 548.179688 C 117.40625 546.460938 120.988281 542.738281 124.125 538.054688 L 130.835938 518.8125 L 138.894531 494.640625 Z M 221.875 399.300781 C 221.875 399.300781 217.988281 414.113281 214.199219 424.636719 C 212.316406 429.878906 213.265625 434.515625 214.675781 437.828125 C 208.054688 430.109375 197.167969 427.421875 197.167969 427.421875 L 197.378906 458.917969 C 197.378906 458.917969 211.265625 476.371094 217.578125 474.683594 C 223.890625 473.011719 231.464844 443.136719 231.464844 443.136719 L 238.1875 436.351562 L 232.726562 424.207031 L 235.5 421.683594 L 239.875 429.683594 L 249.140625 429.683594 L 238.1875 396.023438 Z M 159.253906 435.566406 L 155.371094 426.40625 L 156.433594 420.40625 C 149.980469 419.570312 144.792969 405.9375 144.792969 405.9375 C 141.96875 382.667969 157.84375 380.550781 157.84375 380.550781 C 173.015625 379.144531 177.605469 390.777344 181.476562 389.367188 C 185.363281 387.960938 185.363281 403.476562 185.363281 403.476562 C 185.363281 403.476562 178.65625 408.773438 178.65625 414.066406 C 178.65625 419.339844 181.835938 423.929688 181.835938 423.929688 C 172.3125 440.859375 159.253906 435.566406 159.253906 435.566406 "/>
<g clip-path="url(#clip1)" clip-rule="nonzero">
<path style=" stroke:none;fill-rule:nonzero;fill:rgb(90.979004%,56.469727%,21.958923%);fill-opacity:1;" d="M 181.804688 422.667969 L 182 422.71875 C 181.9375 422.617188 181.804688 422.667969 181.804688 422.667969 Z M 197.378906 448.296875 C 197.378906 448.296875 198.050781 428.847656 198.050781 427.75 C 198.050781 426.75 183.835938 423.175781 182 422.71875 C 182.179688 422.945312 181.96875 424.09375 178.082031 429.355469 C 172.695312 436.613281 153.550781 434.023438 153.550781 434.023438 C 143.25 431.714844 138.894531 443.136719 138.894531 443.136719 L 138.894531 494.640625 C 138.894531 494.640625 136.519531 524.238281 136.519531 533.023438 C 136.519531 541.789062 129.691406 553.980469 124.816406 571.515625 C 119.9375 589.066406 133.589844 590.035156 133.589844 590.035156 C 159.917969 582.726562 173.085938 588.574219 192.804688 587.9375 C 212.511719 587.3125 206.726562 511.570312 201.363281 497.445312 C 196.003906 483.300781 197.378906 448.296875 197.378906 448.296875 Z M 550.511719 180.378906 C 542.382812 174.578125 534.789062 168.046875 527.824219 160.871094 C 526.804688 159.808594 522.3125 161.53125 523.394531 162.640625 C 530.347656 169.816406 537.9375 176.34375 546.085938 182.144531 C 546.9375 182.753906 548.300781 182.433594 549.183594 182.074219 C 549.5625 181.925781 551.347656 180.964844 550.511719 180.378906 Z M 121.09375 552.800781 C 111.871094 565.273438 98.160156 573.171875 83.589844 577.890625 C 76.277344 580.265625 68.734375 581.921875 61.128906 583.054688 C 52.144531 584.363281 42.558594 585.183594 33.816406 582.117188 C 25.882812 579.332031 18.914062 573.15625 17.089844 564.714844 C 16.601562 562.4375 11.84375 563.667969 12.34375 565.976562 C 14.046875 573.890625 19.929688 580.003906 26.96875 583.625 C 35.570312 588.050781 45.664062 588.328125 55.097656 587.378906 C 71.933594 585.625 89.265625 581.347656 103.988281 572.777344 C 112.152344 568.027344 119.460938 561.914062 125.097656 554.292969 C 126.902344 551.851562 122.445312 550.984375 121.09375 552.800781 Z M 57.1875 558.40625 C 63.980469 558.570312 70.808594 557.488281 77.230469 555.242188 C 78.191406 554.914062 79.464844 554.097656 79.140625 552.867188 C 78.839844 551.753906 77.257812 551.441406 76.296875 551.769531 C 70.25 553.882812 63.957031 554.867188 57.550781 554.71875 C 56.480469 554.6875 55.058594 555.570312 54.949219 556.703125 C 54.839844 557.996094 56.1875 558.375 57.1875 558.40625 Z M 520.050781 126.445312 C 520.691406 126.375 521.3125 126.242188 521.902344 126.027344 C 522.347656 125.859375 522.886719 125.679688 523.230469 125.335938 C 527.265625 121.3125 531.28125 117.300781 535.296875 113.28125 C 536.035156 112.554688 534.660156 112.539062 534.214844 112.582031 C 533.578125 112.652344 532.953125 112.785156 532.363281 113.003906 C 531.90625 113.171875 531.363281 113.351562 531.019531 113.695312 C 527.003906 117.714844 522.96875 121.730469 518.953125 125.75 C 518.230469 126.480469 519.609375 126.492188 520.050781 126.445312 Z M 99.894531 588.296875 C 98.921875 587.640625 97.410156 588.199219 96.519531 588.691406 C 85.363281 594.738281 73.21875 599 60.730469 601.242188 C 59.839844 601.40625 58.183594 601.832031 58.0625 602.964844 C 57.941406 604.027344 59.367188 604.308594 60.160156 604.160156 C 73.976562 601.6875 87.195312 597.046875 99.535156 590.363281 C 100.355469 589.917969 100.773438 588.886719 99.894531 588.296875 Z M 525.101562 142.113281 C 524.378906 142.816406 524.578125 143.695312 525.59375 143.929688 C 531.921875 145.398438 538.460938 145.722656 544.90625 144.902344 C 545.824219 144.78125 547.398438 144.296875 547.59375 143.222656 C 547.792969 142.140625 546.203125 141.992188 545.511719 142.082031 C 539.808594 142.8125 534.070312 142.511719 528.460938 141.210938 C 527.347656 140.953125 525.9375 141.3125 525.101562 142.113281 Z M 470.980469 688.097656 C 473.09375 686.292969 475.160156 684.441406 477.179688 682.507812 C 479.40625 680.363281 481.851562 678.167969 483.753906 675.726562 C 484.589844 674.625 483.734375 673.546875 482.898438 672.578125 C 482.226562 671.808594 481.40625 671.152344 480.523438 670.660156 C 478.671875 669.660156 476.359375 669.1875 474.277344 669.59375 C 469.160156 670.5625 467.457031 676.773438 468.128906 681.230469 C 468.503906 683.769531 469.523438 686.097656 470.980469 688.097656 Z M 521.738281 539.265625 C 534.886719 563.535156 539.542969 592.015625 536.003906 619.300781 C 534.214844 633.050781 530.316406 646.539062 524.3125 659.042969 C 521.378906 665.171875 517.917969 671.070312 514.019531 676.625 C 509.738281 682.671875 504.804688 688.34375 498.441406 692.226562 C 490.082031 697.339844 477.195312 699.042969 469.390625 692.882812 C 458.75 701.09375 446.976562 707.84375 434.566406 712.972656 C 408.777344 723.640625 380.054688 727.425781 352.460938 722.886719 C 351.460938 722.722656 351.394531 722.117188 352.101562 721.496094 C 352.886719 720.773438 354.410156 720.429688 355.445312 720.59375 C 358.558594 721.101562 361.691406 721.527344 364.824219 721.824219 C 389.890625 724.230469 415.484375 719.5625 438.289062 708.992188 C 448.667969 704.191406 458.472656 698.144531 467.40625 691.015625 C 466.195312 689.652344 465.144531 688.03125 464.355469 686.097656 C 462.308594 680.984375 462.914062 674.644531 467.195312 670.839844 C 471.09375 667.382812 477.179688 666.300781 482.128906 667.695312 C 484.359375 668.316406 486.492188 669.578125 487.851562 671.496094 C 488.492188 672.367188 489.359375 673.628906 488.949219 674.675781 C 488.492188 675.839844 486.621094 677.25 485.769531 678.148438 C 481.6875 682.425781 477.34375 686.441406 472.785156 690.179688 C 474.421875 691.75 476.390625 692.980469 478.636719 693.71875 C 492.554688 698.324219 503.804688 685.34375 510.722656 675.167969 C 524.886719 654.371094 532.152344 629.101562 532.378906 604.027344 C 532.625 578.890625 525.902344 553.589844 512.164062 532.449219 C 511.261719 531.039062 515.886719 529.582031 516.609375 530.695312 C 518.429688 533.480469 520.148438 536.332031 521.738281 539.265625 Z M 368.117188 379.160156 C 368.117188 379.160156 370.414062 368.394531 372.542969 354.660156 C 374.660156 340.945312 387.023438 317.246094 387.023438 317.246094 C 378.199219 300.5 376.300781 265.726562 376.300781 265.726562 C 386.398438 261.648438 392.628906 238.253906 392.628906 238.253906 C 392.628906 238.253906 400.121094 244.800781 405.023438 246.472656 C 415.566406 250.078125 419.566406 242.703125 419.566406 242.703125 C 419.566406 242.703125 414.484375 255.582031 423.796875 259.523438 C 433.109375 263.476562 445.125 230.214844 445.125 230.214844 C 445.125 230.214844 455.472656 222.578125 452.535156 238.253906 C 449.601562 253.933594 442.914062 278.605469 442.914062 278.605469 L 452.535156 282.03125 C 439.617188 304.089844 447.324219 342.320312 447.324219 342.320312 L 463.011719 374.652344 C 412.023438 397.203125 368.117188 379.160156 368.117188 379.160156 "/>
</g>
<path style=" stroke:none;fill-rule:nonzero;fill:rgb(93.328857%,84.709167%,65.098572%);fill-opacity:1;" d="M 387.039062 317.246094 L 368.132812 285.109375 C 368.132812 285.109375 373.003906 352.285156 372.5625 354.660156 C 372.101562 357.035156 333.296875 299.859375 333.296875 299.859375 L 369.347656 266.195312 L 376.316406 265.726562 Z M 360.527344 354.660156 L 353.183594 381.011719 C 282.75 407.902344 253.796875 389.023438 253.796875 389.023438 L 249.140625 357.25 L 238.1875 396.023438 L 221.875 399.300781 C 221.875 399.300781 222.742188 255 227.644531 228.015625 C 227.875 226.792969 228.1875 225.589844 228.578125 224.421875 C 231.679688 215.09375 239.15625 207.640625 246.648438 201.613281 C 255.105469 194.792969 264.617188 188.980469 274.402344 184.265625 C 276.945312 183.035156 279.519531 181.882812 282.140625 180.8125 C 282.421875 180.699219 287.929688 178.96875 287.929688 179.371094 C 287.914062 179.695312 287.898438 180.011719 287.898438 180.332031 C 287.847656 183.347656 287.898438 186.371094 288.175781 189.371094 C 288.324219 190.953125 288.503906 192.558594 288.945312 194.097656 C 289.503906 196.066406 290.863281 197.308594 292.601562 198.339844 C 296.519531 200.65625 301.160156 201.464844 305.667969 201.117188 C 309.980469 200.785156 314.507812 199.589844 317.488281 196.253906 C 318.390625 195.242188 319.128906 194.058594 319.605469 192.769531 C 319.734375 192.386719 320.144531 191.445312 319.933594 191.023438 C 319.671875 190.492188 318.472656 176.921875 318.472656 176.921875 L 333.867188 180.460938 C 349.265625 183.925781 372.5625 205.496094 372.5625 205.496094 C 372.5625 205.496094 359.132812 221.878906 355.855469 225.75 C 352.574219 229.621094 354.363281 238.253906 354.363281 238.253906 L 353.101562 238.6875 C 353.101562 238.6875 305.867188 297.550781 313.703125 315.347656 C 321.539062 333.160156 360.527344 354.660156 360.527344 354.660156 Z M 479.980469 261.46875 C 478.128906 267.167969 475.585938 272.460938 474.6875 272.148438 C 473.800781 271.855469 474.949219 272.148438 474.078125 272.28125 C 471.882812 272.640625 469.683594 273.035156 467.472656 273.328125 C 463.882812 273.820312 456.800781 275.3125 454.042969 272.132812 C 453.339844 271.3125 453.011719 270.246094 452.765625 269.199219 C 451.421875 263.230469 452.472656 257.015625 453.535156 250.996094 C 453.832031 249.339844 453.667969 247.324219 455.289062 246.40625 C 455.71875 244.898438 455.996094 243.957031 455.996094 243.957031 C 456.980469 240.578125 463.929688 241.882812 469.128906 242.675781 C 474.308594 243.476562 481.324219 257.199219 481.324219 257.199219 C 481.324219 257.199219 480.816406 259.050781 479.980469 261.46875 Z M 517.492188 196.59375 C 513.886719 186.496094 503.738281 181.863281 503.738281 181.863281 C 503.6875 183.949219 499.558594 190.625 499.113281 191.382812 C 495.867188 196.855469 490.867188 200.085938 484.523438 200.753906 C 479.113281 201.328125 473.160156 199.574219 471.175781 194.011719 C 470.292969 191.554688 470.292969 188.871094 470.324219 186.261719 C 469.0625 186.6875 454.683594 190.753906 454.683594 191.5625 L 454.503906 212.132812 C 454.421875 216.496094 452.503906 220.90625 451.324219 225.050781 C 449.960938 229.738281 448.585938 234.417969 447.175781 239.085938 C 443.914062 249.902344 437.09375 259.585938 439.46875 271.363281 C 439.960938 273.722656 440.714844 277.328125 442.355469 279.164062 C 443.832031 280.800781 446.519531 281.03125 448.550781 281.046875 C 453.832031 281.078125 473.078125 282.160156 473.078125 282.160156 L 470.160156 289.699219 C 470.160156 289.699219 471.734375 291.289062 478.03125 292.535156 C 484.308594 293.796875 501.296875 291.191406 501.296875 291.191406 L 509.804688 273.917969 C 529.003906 253.71875 521.101562 206.695312 517.492188 196.59375 "/>
<path style=" stroke:none;fill-rule:nonzero;fill:rgb(16.859436%,16.079712%,15.289307%);fill-opacity:1;" d="M 473.769531 396.234375 C 473.769531 396.234375 452.632812 419.441406 463.734375 414.917969 C 474.832031 410.394531 484.703125 401.28125 484.703125 401.28125 L 483.046875 393.269531 Z M 463.488281 148.4375 L 463.488281 149.15625 C 463.554688 151.308594 464.078125 157.464844 468.585938 155.917969 C 474.03125 154.046875 478.800781 151.5 480.671875 153.882812 C 482.539062 156.257812 488.308594 155.78125 489.671875 154.558594 C 491.046875 153.34375 498.6875 149.96875 498.523438 154.898438 C 498.34375 159.828125 500.261719 167.574219 500.621094 167.488281 C 500.984375 167.40625 508.902344 157.191406 510.527344 159.699219 C 512.117188 162.210938 510.984375 160.421875 510.984375 160.421875 L 510.886719 163.789062 C 510.886719 163.789062 515.96875 153.527344 512.363281 143.234375 C 508.769531 132.949219 491.964844 134.035156 477.914062 135.507812 C 463.863281 136.972656 463.488281 148.714844 463.488281 148.714844 M 395.480469 202.023438 C 384.792969 191.574219 384.316406 185.496094 382.9375 171.503906 C 381.578125 157.507812 400.089844 134.582031 417.664062 144.84375 C 438.976562 157.265625 426.484375 197.261719 425.125 198.425781 C 423.351562 199.925781 398.171875 222.632812 408.648438 238.25 C 411.382812 242.320312 416.417969 248.492188 415.582031 258.382812 C 414.746094 268.261719 428.433594 270.03125 437.011719 259.523438 C 445.601562 249.011719 443.289062 247.78125 451.40625 236.484375 C 459.535156 225.183594 454.570312 182.816406 449.617188 153.628906 C 444.683594 124.449219 418.53125 122.921875 418.53125 122.921875 C 352.476562 119.179688 374.019531 189.875 374.726562 195.054688 C 375.429688 200.234375 363.773438 210.351562 363.773438 210.351562 C 343.296875 231.191406 350 242.136719 353.183594 243.550781 C 356.363281 244.960938 364.132812 245.316406 361.660156 253.855469 C 359.183594 262.394531 364.476562 265.445312 364.476562 265.445312 C 392.039062 271.640625 396.597656 241.433594 396.597656 241.433594 C 398.53125 234.523438 395.480469 202.023438 395.480469 202.023438 Z M 435.273438 613.613281 C 435.273438 613.613281 434.320312 650.996094 437.09375 654.714844 C 439.863281 658.417969 452.847656 658.566406 453.570312 654.714844 C 454.308594 650.847656 451.453125 612.007812 451.453125 612.007812 L 449.175781 612.351562 C 449.175781 612.351562 451.734375 642.277344 444.796875 642.292969 C 444.796875 642.292969 441.125 643.847656 439.828125 634.722656 C 438.519531 625.59375 437.238281 613.582031 437.238281 613.582031 Z M 383.9375 612.746094 L 381.710938 647.226562 L 383.875 647.226562 L 385.792969 640.128906 C 385.792969 640.128906 392.496094 652.273438 401.644531 656.125 C 410.792969 659.976562 418.089844 658.992188 414.859375 652.386719 C 412.730469 648.042969 407.335938 639.980469 408.433594 643.570312 C 409.546875 647.226562 399.5 644.519531 397.5625 643.339844 C 395.300781 641.949219 393.269531 640.128906 391.660156 638 C 388.726562 634.066406 387.054688 629.265625 386.300781 624.414062 C 385.972656 622.332031 385.808594 620.21875 385.808594 618.105469 L 385.792969 613.007812 Z M 276.46875 132.902344 C 274.371094 119.574219 280.519531 116.660156 286.945312 114.394531 C 293.371094 112.121094 297.210938 116.996094 299.652344 118.921875 C 302.09375 120.839844 316.636719 119.554688 318.195312 120.527344 C 319.589844 121.40625 319.71875 125.707031 319.949219 127.101562 C 320.539062 130.699219 320.917969 134.324219 321.34375 137.941406 C 321.375 138.253906 321.425781 138.582031 321.589844 138.847656 C 322.144531 139.761719 323.34375 139.707031 323.753906 138.96875 C 323.949219 138.605469 323.917969 137.890625 323.984375 137.480469 C 324.6875 132.910156 325.230469 128.304688 325.539062 123.683594 C 325.867188 119.105469 326.34375 113.832031 324.851562 109.402344 C 322.210938 101.574219 285.550781 103.269531 274.519531 109.402344 C 263.484375 115.535156 274.503906 142.734375 275.386719 143.085938 C 281.160156 145.417969 276.46875 132.902344 276.46875 132.902344 Z M 348.296875 633.933594 L 348.3125 641.6875 C 348.3125 641.6875 385.285156 665.316406 386.5625 662.316406 C 387.839844 659.304688 360.820312 632.492188 360.820312 632.492188 Z M 274.355469 634.65625 C 274.355469 634.65625 243.203125 660.007812 244.023438 663.171875 C 244.84375 666.347656 286.929688 645.652344 286.929688 645.652344 L 285.519531 635.3125 Z M 176.3125 644.210938 L 176.3125 648.75 C 176.3125 648.75 204.085938 656.582031 201.332031 653.042969 C 198.558594 649.503906 182.820312 644.210938 182.820312 644.210938 Z M 141.6875 644.210938 C 141.6875 644.210938 126.527344 649.503906 123.761719 653.042969 C 121 656.582031 149.21875 648.914062 149.21875 648.914062 L 149.171875 644.210938 Z M 159.253906 435.5625 C 159.253906 435.5625 159.359375 435.84375 159.523438 436.351562 C 161.867188 443.691406 162.6875 451.097656 157.671875 457.457031 C 155.140625 460.652344 152.054688 463.601562 150.765625 467.46875 C 149.507812 471.238281 150.109375 475.53125 148.339844 479.105469 C 146.554688 482.726562 142.28125 484.9375 138.292969 484.316406 C 132.46875 483.429688 128.742188 477.382812 127.78125 471.582031 C 126.371094 463.046875 129.160156 454.457031 131.027344 446.003906 C 131.867188 442.199219 132.515625 438.167969 131.246094 434.5 C 130.125 431.238281 127.636719 428.664062 125.707031 425.796875 C 119.304688 416.242188 119.539062 403.230469 124.472656 392.824219 C 129.402344 382.433594 138.441406 374.4375 148.40625 368.6875 C 157.683594 363.328125 169.019531 359.640625 179.066406 363.394531 C 185.082031 365.636719 189.96875 370.375 193.183594 375.945312 C 196.414062 381.5 198.070312 387.84375 198.9375 394.21875 C 200.414062 405.117188 199.640625 416.339844 196.640625 426.945312 C 192.691406 426.222656 188.722656 425.5 184.753906 424.78125 C 183.625 424.582031 182.445312 424.371094 181.558594 423.632812 C 180.507812 422.78125 180.066406 421.386719 179.691406 420.078125 C 178.691406 416.554688 177.753906 412.605469 179.476562 409.375 C 180.753906 406.949219 183.34375 405.328125 184.265625 402.738281 C 185.296875 399.824219 183.871094 396.609375 182.117188 394.054688 C 179.671875 390.515625 176.542969 387.449219 172.953125 385.105469 C 169.308594 382.714844 164.933594 381.027344 160.636719 381.746094 C 154.777344 382.746094 150.484375 387.957031 148.210938 393.449219 C 146.417969 397.757812 145.527344 402.558594 146.417969 407.148438 C 147.316406 411.734375 150.164062 416.0625 154.386719 418.0625 C 155.367188 418.519531 156.472656 418.914062 157.023438 419.847656 C 157.394531 420.46875 157.441406 421.222656 157.480469 421.945312 C 157.726562 426.582031 157.621094 431.449219 159.363281 435.84375 "/>
<path style=" stroke:none;fill-rule:nonzero;fill:rgb(17.248535%,23.919678%,33.329773%);fill-opacity:1;" d="M 497.066406 317.246094 C 497.066406 317.246094 502 301.15625 501.296875 291.191406 L 492.328125 292.304688 L 492.835938 304.285156 L 488.636719 304.25 L 487.128906 310.644531 C 485.636719 317.035156 477.949219 315.574219 477.949219 315.574219 C 469.226562 310.773438 476.933594 292.304688 476.933594 292.304688 L 470.160156 289.699219 L 473.078125 282.160156 L 448.550781 281.046875 C 448.550781 281.046875 435.335938 317.574219 447.339844 342.320312 C 454.71875 357.511719 459.636719 368.621094 462.339844 374.949219 C 456.355469 377.390625 410.84375 394.875 368.132812 379.160156 C 368.132812 379.160156 366.296875 383.222656 364.707031 393.269531 C 364.707031 393.269531 362.394531 394.300781 358.214844 389.023438 L 353.183594 381.011719 C 353.183594 381.011719 293.355469 397.792969 253.796875 389.023438 C 253.796875 389.023438 255.402344 549.214844 274.355469 634.65625 L 285.519531 635.3125 L 313.589844 429.027344 L 348.296875 633.9375 L 360.820312 632.496094 L 368.296875 502.03125 C 369.496094 510.570312 370.90625 519.632812 372.5625 529.253906 L 379.054688 589.773438 C 379.054688 589.773438 375.890625 609.207031 381.234375 612.011719 C 386.578125 614.828125 402.644531 612.011719 402.644531 612.011719 C 402.644531 612.011719 404.828125 613.8125 402.644531 591.527344 C 400.464844 569.238281 421.453125 423.765625 421.453125 423.765625 L 430.699219 590.035156 C 430.699219 590.035156 426.699219 610.976562 428.878906 613.273438 C 431.058594 615.550781 453.355469 612.011719 453.355469 612.011719 C 453.355469 612.011719 486.980469 416.769531 485.785156 409.015625 C 485.359375 406.214844 483.246094 392.136719 483.246094 392.136719 L 474.457031 399.300781 L 469.359375 380.125 L 497.066406 374.652344 C 497.066406 374.652344 485.65625 356.59375 486.980469 349.171875 C 488.308594 341.761719 497.066406 317.246094 497.066406 317.246094 Z M 475.800781 274.96875 C 477.03125 275.148438 478.261719 274.523438 478.898438 273.507812 C 487.492188 259.75 490.457031 242.945312 487.210938 227.070312 C 486.753906 224.855469 482 226.078125 482.457031 228.34375 C 485.589844 243.648438 482.507812 260.09375 474.339844 272.953125 C 473.703125 273.96875 474.914062 274.835938 475.800781 274.96875 Z M 173.871094 475.257812 C 174.242188 475.140625 174.082031 475.15625 173.871094 475.257812 Z M 173.703125 481.449219 C 173.605469 479.976562 173.292969 478.15625 172.589844 476.8125 C 172.554688 476.863281 172.523438 476.894531 172.5 476.960938 C 171.371094 478.976562 170.117188 480.8125 168.605469 482.464844 C 170.058594 482.023438 171.890625 482.058594 171.664062 482.859375 C 171.46875 483.597656 171.75 484.335938 172.292969 484.859375 C 172.429688 484.988281 172.570312 485.089844 172.714844 485.171875 C 172.992188 484.777344 173.261719 484.285156 173.304688 484.1875 C 173.664062 483.320312 173.761719 482.382812 173.703125 481.449219 Z M 172.351562 485.644531 C 172.230469 485.679688 172.132812 485.710938 172.164062 485.742188 C 172.199219 485.777344 172.269531 485.726562 172.351562 485.644531 Z M 162.464844 484.398438 C 161.804688 483.484375 161.628906 482.351562 161.914062 481.304688 C 161.488281 480.992188 161.066406 480.695312 160.652344 480.402344 C 160.605469 481.484375 160.5625 482.566406 160.523438 483.664062 C 160.492188 484.449219 160.5625 485.023438 160.832031 485.679688 C 161.007812 485.546875 161.195312 485.433594 161.375 485.300781 C 161.757812 485.023438 162.097656 484.695312 162.464844 484.398438 Z M 177.535156 475.960938 C 178.878906 479.386719 179.140625 483.910156 175.753906 486.203125 C 173.964844 487.414062 171.21875 488.203125 169.125 487.351562 C 167.785156 486.824219 166.78125 485.628906 166.855469 484.21875 C 166.742188 484.316406 166.640625 484.433594 166.519531 484.53125 C 165.25 485.628906 163.839844 486.660156 162.34375 487.398438 C 160.773438 488.167969 157.660156 489.183594 156.320312 487.515625 C 155.375 486.316406 155.789062 484.398438 155.847656 483.007812 C 155.925781 481.023438 156.007812 479.058594 156.085938 477.074219 C 156.117188 476.238281 157.238281 475.863281 157.902344 475.632812 C 158.671875 475.386719 159.945312 475.058594 160.683594 475.582031 C 161.984375 476.484375 163.28125 477.402344 164.582031 478.304688 C 164.703125 478.386719 164.828125 478.484375 164.949219 478.566406 C 165.324219 478.484375 165.699219 478.417969 166.058594 478.402344 C 166.332031 478.386719 166.882812 478.453125 167.210938 478.664062 C 167.523438 478.125 167.832031 477.597656 168.164062 477.058594 C 169.324219 475.207031 170.992188 474.058594 173.183594 473.714844 C 175.1875 473.402344 176.761719 474.042969 177.535156 475.960938 Z M 259.65625 376.273438 C 259.148438 377.144531 260.082031 377.242188 260.804688 377.210938 C 283.691406 376.160156 306.546875 375.113281 329.417969 374.0625 C 330.304688 374.011719 332.105469 373.71875 332.597656 372.882812 C 333.089844 372.03125 332.171875 371.933594 331.433594 371.964844 L 262.820312 375.113281 C 261.953125 375.144531 260.132812 375.4375 259.65625 376.273438 Z M 259.640625 329.832031 C 259.164062 330.734375 260.066406 330.964844 260.851562 330.929688 C 275.757812 330.355469 290.59375 328.769531 305.285156 326.144531 C 305.921875 326.03125 307.988281 325.589844 308.023438 324.6875 C 308.070312 323.753906 306.695312 323.835938 306.054688 323.949219 C 291.757812 326.507812 277.3125 328.0625 262.804688 328.621094 C 261.902344 328.652344 260.132812 328.949219 259.640625 329.832031 Z M 261.984375 311.644531 C 274.804688 310.398438 287.625 309.152344 300.449219 307.890625 C 301.152344 307.824219 303.070312 307.332031 303.203125 306.449219 C 303.347656 305.496094 301.757812 305.695312 301.234375 305.742188 C 288.414062 307.003906 275.574219 308.25 262.753906 309.511719 C 262.066406 309.578125 260.148438 310.070312 260.015625 310.953125 C 259.871094 311.90625 261.460938 311.707031 261.984375 311.644531 Z M 309.496094 264.769531 C 309.597656 263.683594 308.203125 263.332031 307.367188 263.480469 C 295.003906 265.707031 282.640625 267.941406 270.28125 270.164062 C 269.363281 270.328125 267.738281 270.773438 267.609375 271.9375 C 267.511719 273.015625 268.902344 273.378906 269.738281 273.230469 C 282.101562 270.984375 294.464844 268.757812 306.839844 266.535156 C 307.757812 266.367188 309.367188 265.925781 309.496094 264.769531 Z M 265.691406 262.589844 C 280.773438 260.652344 295.855469 258.710938 310.941406 256.773438 C 311.875 256.65625 313.480469 256.117188 313.597656 254.980469 C 313.710938 253.859375 312.316406 253.53125 311.449219 253.640625 C 296.363281 255.582031 281.28125 257.519531 266.199219 259.460938 C 265.261719 259.582031 263.65625 260.113281 263.542969 261.257812 C 263.425781 262.378906 264.835938 262.707031 265.691406 262.589844 Z M 258.476562 291.339844 C 256.492188 312.117188 253.902344 332.800781 250.6875 353.347656 C 250.507812 354.511719 247.558594 355.117188 247.753906 353.855469 C 248.671875 348.023438 249.523438 342.1875 250.34375 336.339844 C 253.214844 315.722656 255.441406 294.976562 257.066406 274.148438 C 257.164062 273 260.117188 272.296875 260 273.640625 C 259.542969 279.539062 259.035156 285.4375 258.476562 291.339844 "/>
</g>
</svg>
