<?xml version="1.0" encoding="UTF-8"?>
<svg xmlns="http://www.w3.org/2000/svg" xmlns:xlink="http://www.w3.org/1999/xlink" width="595.5pt" height="842.249979pt" viewBox="0 0 595.5 842.249979" version="1.2">
<defs>
<clipPath id="clip1">
  <path d="M 6 563 L 437 563 L 437 649.046875 L 6 649.046875 Z M 6 563 "/>
</clipPath>
<clipPath id="clip2">
  <path d="M 57 262.128906 L 583.476562 262.128906 L 583.476562 649.046875 L 57 649.046875 Z M 57 262.128906 "/>
</clipPath>
<clipPath id="clip3">
  <path d="M 0.015625 334 L 538 334 L 538 649.046875 L 0.015625 649.046875 Z M 0.015625 334 "/>
</clipPath>
<clipPath id="clip4">
  <path d="M 57 303 L 583.476562 303 L 583.476562 649.046875 L 57 649.046875 Z M 57 303 "/>
</clipPath>
<clipPath id="clip5">
  <path d="M 0.015625 200 L 359 200 L 359 649.046875 L 0.015625 649.046875 Z M 0.015625 200 "/>
</clipPath>
</defs>
<g id="surface1">
<g clip-path="url(#clip1)" clip-rule="nonzero">
<path style=" stroke:none;fill-rule:nonzero;fill:rgb(49.409485%,30.198669%,44.709778%);fill-opacity:1;" d="M 433.917969 771.976562 C 433.917969 771.976562 359.144531 785.773438 317.507812 784.1875 C 275.878906 782.597656 227.035156 792.929688 227.035156 792.929688 C 223.835938 797.703125 215.027344 797.703125 215.027344 797.703125 C 210.226562 802.476562 204.621094 856.539062 203.765625 885.171875 C 202.917969 913.792969 164.585938 1027.496094 163.789062 1033.066406 C 162.984375 1038.632812 157.386719 1041.8125 157.386719 1041.8125 C 157.386719 1041.8125 157.386719 1041.8125 158.183594 1046.585938 C 158.988281 1051.351562 156.582031 1067.253906 156.582031 1067.253906 C 126.15625 1071.230469 70.117188 1039.429688 70.117188 1039.429688 C 70.117188 1039.429688 68.515625 1030.675781 69.3125 1024.316406 C 70.117188 1017.957031 92.53125 970.246094 92.53125 936.855469 C 92.53125 903.453125 113.351562 728.519531 113.351562 728.519531 C 45.296875 705.46875 6.066406 612.433594 6.867188 596.53125 C 7.664062 580.632812 25.277344 567.113281 47.699219 563.933594 C 70.117188 560.753906 204.773438 587.019531 203.765625 585.886719 C 203.765625 585.886719 221.796875 584.34375 247.398438 582.757812 L 265.203125 603.257812 C 265.203125 603.257812 280.300781 605.582031 284.628906 609.597656 C 288.960938 613.617188 311.683594 621.679688 323.054688 619.53125 L 323.054688 580.828125 C 323.054688 580.828125 318.730469 580.828125 313.234375 579.726562 C 355.167969 578.613281 396.644531 579.445312 411.984375 585.886719 C 447.210938 600.691406 433.917969 771.976562 433.917969 771.976562 "/>
</g>
<g clip-path="url(#clip2)" clip-rule="nonzero">
<path style=" stroke:none;fill-rule:nonzero;fill:rgb(100%,84.709167%,81.17981%);fill-opacity:1;" d="M 169.921875 935.375 C 152.445312 939.019531 124.71875 928.984375 124.71875 928.984375 C 146.8125 949.503906 169.921875 935.375 169.921875 935.375 Z M 148.652344 1025.1875 C 127.230469 1022.453125 99.832031 986.921875 100.796875 988.710938 C 124.046875 1032.03125 148.652344 1025.1875 148.652344 1025.1875 Z M 157.386719 1041.8125 C 157.386719 1041.8125 123.90625 1042.972656 106.425781 1027.921875 C 106.425781 1027.921875 120.765625 1043.808594 158.183594 1046.585938 Z M 193.550781 684.679688 C 187.082031 681.636719 161.714844 684.355469 154.601562 687.757812 C 147.5 691.15625 146.394531 694.890625 135.335938 696.449219 C 124.28125 698.007812 92.523438 699.261719 113.351562 728.519531 C 113.351562 728.519531 118.785156 733.9375 129.148438 736.511719 L 130.929688 720.105469 C 130.929688 720.105469 133.335938 719.640625 137.195312 713.613281 C 141.058594 707.589844 141.796875 703.101562 152.59375 701.707031 C 163.386719 700.308594 185.511719 696.449219 185.511719 696.449219 C 185.511719 696.449219 188.566406 698.914062 195.171875 700.308594 C 195.171875 700.308594 195.199219 700.222656 195.253906 700.105469 C 195.777344 698.839844 196.105469 697.683594 196.261719 696.625 C 196.28125 696.523438 196.304688 696.425781 196.328125 696.324219 C 197.203125 692.363281 197.648438 686.617188 193.550781 684.679688 Z M 151.496094 624.429688 C 151.496094 624.429688 155.121094 645.574219 156.957031 655.054688 C 156.957031 655.054688 160.71875 640.105469 151.496094 624.429688 Z M 130.929688 640.703125 C 141.871094 659.523438 191.546875 683.355469 191.546875 683.355469 C 189.652344 681.84375 185.394531 678.792969 179.867188 674.714844 C 193.332031 666.605469 286.300781 641.296875 285.074219 641.558594 C 238.984375 651.617188 180.875 669.589844 175.300781 671.320312 C 160.582031 660.289062 140.132812 643.992188 129.058594 629.167969 C 116.445312 612.285156 104.277344 608.347656 98.917969 607.441406 C 105.765625 610.320312 121.78125 624.957031 130.929688 640.703125 Z M 96.070312 607.167969 C 96.070312 607.167969 97.105469 607.132812 98.917969 607.441406 C 97.582031 606.878906 96.585938 606.753906 96.070312 607.167969 Z M 345.792969 292.71875 C 348.085938 290.238281 346.691406 286.269531 346.691406 286.269531 C 346.691406 286.269531 344.441406 266.136719 337.035156 263.253906 C 329.632812 260.382812 321.914062 277.320312 323.84375 284.347656 C 323.84375 284.347656 311.238281 276.941406 298.574219 270.742188 C 298.566406 270.734375 298.558594 270.734375 298.558594 270.734375 C 289.730469 266.238281 278.296875 270.734375 278.296875 270.734375 C 266.386719 287.980469 234.292969 295.035156 234.292969 295.035156 C 234.292969 295.035156 241.019531 310.949219 243.4375 313.582031 C 245.847656 316.214844 249.816406 319.210938 250.621094 321.976562 C 251.242188 324.101562 251.492188 341.109375 251.570312 348.746094 C 251.59375 351.226562 253.902344 353.234375 256.292969 352.578125 C 256.488281 352.527344 256.664062 352.460938 256.828125 352.378906 C 258.441406 351.539062 264.089844 349.625 264.761719 349.457031 C 267.300781 348.84375 271.011719 355.347656 272.019531 358.03125 C 273.027344 360.714844 275.265625 360.355469 278.253906 359.480469 C 278.253906 359.480469 278.664062 364.976562 280.667969 365.882812 C 282.660156 366.789062 286.6875 365.527344 288.011719 367.148438 C 289.335938 368.777344 293.417969 378.445312 296.445312 379.472656 C 302.707031 381.601562 312.613281 366.039062 321.953125 366.667969 C 326.554688 366.972656 339.652344 406.21875 339.652344 406.21875 C 339.652344 406.21875 361.84375 351.699219 386.984375 337.933594 C 386.984375 337.933594 388.917969 337.789062 391.191406 337.027344 C 360.753906 318.269531 345.792969 292.71875 345.792969 292.71875 Z M 779.925781 537.722656 C 779.925781 520.644531 766.929688 506.375 749.929688 504.78125 L 268.066406 459.746094 C 265.773438 459.535156 263.507812 459.449219 261.253906 459.476562 L 224.726562 476.832031 C 224.726562 476.832031 212.777344 490.816406 203.808594 499.160156 C 201.429688 505.199219 199.929688 511.703125 199.519531 518.546875 L 195.917969 584.746094 C 201.011719 585.609375 203.914062 586.054688 203.765625 585.886719 C 203.765625 585.886719 221.796875 584.34375 247.398438 582.757812 L 265.203125 603.257812 C 265.203125 603.257812 280.300781 605.582031 284.628906 609.597656 C 288.960938 613.617188 311.683594 621.679688 323.054688 619.53125 L 323.054688 580.828125 C 323.054688 580.828125 318.730469 580.828125 313.234375 579.726562 C 355.167969 578.613281 396.644531 579.445312 411.984375 585.886719 C 447.210938 600.691406 433.917969 771.976562 433.917969 771.976562 C 433.917969 771.976562 359.144531 785.773438 317.507812 784.1875 C 275.878906 782.597656 227.035156 792.929688 227.035156 792.929688 C 225.730469 794.882812 223.492188 796.023438 221.300781 796.710938 L 614.074219 837.015625 C 636.386719 839.300781 658.925781 837.839844 680.753906 832.6875 L 777.730469 809.789062 C 779.054688 809.480469 779.988281 808.296875 779.988281 806.9375 Z M 106.839844 784.960938 L 59.761719 780.128906 C 57.78125 779.921875 56.96875 778.242188 57.203125 776.734375 C 57.195312 776.734375 57.171875 776.734375 57.171875 776.734375 L 57.128906 744.101562 C 57.128906 744.101562 84.953125 744.949219 111.335938 745.6875 C 110.175781 755.695312 108.59375 769.394531 106.839844 784.960938 "/>
</g>
<g clip-path="url(#clip3)" clip-rule="nonzero">
<path style=" stroke:none;fill-rule:nonzero;fill:rgb(49.409485%,65.098572%,73.728943%);fill-opacity:1;" d="M 172.0625 487.851562 L 167.1875 484.625 L 135.257812 498.597656 L 139.589844 455.0625 L 133.632812 459.902344 L 130.929688 505.042969 Z M 246.902344 582.1875 C 246.652344 587.613281 246.863281 591.328125 247.683594 591.816406 C 253.128906 595.0625 259.09375 598.996094 265.203125 603.257812 Z M 537.320312 667.484375 C 534.898438 639.257812 530.082031 452.269531 520.386719 426.671875 C 506.105469 388.972656 464.21875 346.160156 437.996094 336.875 C 423.117188 331.597656 400.472656 335.1875 391.191406 337.027344 C 388.917969 337.789062 386.984375 337.933594 386.984375 337.933594 C 361.84375 351.699219 339.652344 406.21875 339.652344 406.21875 C 339.652344 406.21875 326.554688 366.972656 321.953125 366.667969 C 312.613281 366.039062 302.707031 381.601562 296.445312 379.472656 C 293.417969 378.445312 289.335938 368.777344 288.011719 367.148438 C 271.507812 386.894531 259.777344 451.296875 261.589844 472.3125 C 263.402344 493.332031 262.796875 514.351562 256.328125 529.359375 C 253.523438 535.875 250.957031 548.148438 249.195312 560.109375 C 256.636719 556.234375 265.09375 552.769531 268.804688 552.015625 C 275.71875 550.613281 286.25 561.484375 295.453125 571.15625 C 304.652344 580.828125 323.054688 580.828125 323.054688 580.828125 L 323.054688 619.53125 C 311.683594 621.679688 288.960938 613.617188 284.628906 609.597656 C 280.300781 605.582031 265.210938 603.257812 265.203125 603.257812 C 292.980469 622.609375 323.875 648.78125 323.875 648.78125 C 336.570312 651.101562 374.660156 654.273438 374.660156 654.273438 C 420.015625 683.097656 433.917969 771.976562 433.917969 771.976562 C 433.917969 771.976562 490.757812 777.378906 503.457031 771.976562 C 516.152344 766.566406 539.738281 695.710938 537.320312 667.484375 Z M 251.898438 720.164062 C 251.621094 720.238281 250.839844 720.457031 249.738281 720.773438 C 239.613281 725.085938 212.929688 751.519531 204.652344 759 C 195.691406 767.085938 167.179688 757.785156 130.929688 762.230469 C 94.679688 766.683594 83.273438 792.167969 83.273438 792.167969 C 83.273438 792.167969 78.097656 818.464844 121.210938 823.722656 C 164.328125 828.980469 192.429688 807.132812 205.058594 799.851562 C 217.683594 792.570312 235.199219 789.332031 251.898438 776.792969 C 268.601562 764.257812 273.027344 714.492188 251.898438 720.164062 Z M 201.777344 701.707031 C 189.867188 699.730469 185.511719 696.449219 185.511719 696.449219 C 185.496094 696.449219 163.386719 700.308594 152.59375 701.707031 C 141.796875 703.101562 141.058594 707.589844 137.195312 713.613281 C 133.335938 719.640625 130.929688 720.105469 130.929688 720.105469 C 130.929688 720.105469 130.03125 728.390625 129.152344 736.511719 C 127.707031 743.800781 125.089844 750.914062 120.390625 751.652344 C 120.390625 751.652344 179.941406 752.304688 188.542969 746.390625 C 197.144531 740.480469 228.90625 713.535156 232.875 712.882812 C 232.875 712.882812 213.683594 703.679688 201.777344 701.707031 Z M 150.335938 1067.597656 C 160.683594 1077.128906 158.503906 1112.199219 158.503906 1112.199219 C 140.527344 1108.414062 70.226562 1127.355469 22.246094 1126.8125 C -25.734375 1126.273438 -31.136719 1110.035156 -31.136719 1110.035156 C -27.867188 1088.386719 5.917969 1086.21875 25.535156 1082.972656 C 45.15625 1079.726562 75.625 1042.410156 75.625 1042.410156 C 89.285156 1049.589844 125.417969 1067.28125 150.3125 1067.589844 C 150.3125 1067.589844 150.335938 1067.597656 150.335938 1067.597656 "/>
</g>
<g clip-path="url(#clip4)" clip-rule="nonzero">
<path style=" stroke:none;fill-rule:nonzero;fill:rgb(49.409485%,30.198669%,44.709778%);fill-opacity:1;" d="M 249.203125 560.101562 C 250.957031 548.148438 253.523438 535.882812 256.328125 529.359375 C 262.796875 514.351562 263.402344 493.332031 261.589844 472.3125 C 261.511719 471.378906 261.46875 470.324219 261.4375 469.230469 L 260.371094 469.132812 C 226.296875 465.945312 196.371094 491.621094 194.324219 525.785156 L 190.839844 583.871094 C 199.039062 585.296875 203.957031 586.105469 203.765625 585.886719 C 203.765625 585.886719 221.554688 584.367188 246.878906 582.789062 C 246.886719 582.597656 246.894531 582.386719 246.910156 582.1875 L 235.925781 569.546875 C 237.171875 567.0625 242.816406 563.429688 249.203125 560.101562 Z M 517.089844 751.753906 C 516.921875 752.136719 516.753906 752.5 516.585938 752.875 C 516.753906 752.5 516.921875 752.136719 517.089844 751.753906 Z M 515.757812 754.648438 C 516.027344 754.074219 516.308594 753.464844 516.585938 752.875 C 516.308594 753.464844 516.027344 754.074219 515.757812 754.648438 Z M 517.089844 751.753906 C 517.351562 751.171875 517.613281 750.578125 517.878906 749.972656 C 517.613281 750.578125 517.351562 751.171875 517.089844 751.753906 Z M 424.445312 560.988281 C 423.605469 554.136719 432.828125 554.246094 432.828125 554.246094 C 432.828125 554.246094 432.828125 515.8125 430.738281 498.597656 C 428.640625 481.378906 429.023438 453.4375 429.023438 453.4375 C 423.453125 463.730469 424.160156 527.421875 423.789062 535.253906 C 423.414062 543.082031 415.027344 553.710938 410.925781 554.246094 C 406.824219 554.78125 396.015625 559.679688 381.472656 563.664062 C 366.9375 567.648438 327.652344 563.664062 327.652344 563.664062 C 321.929688 568.203125 323.054688 577.019531 323.054688 577.019531 C 323.054688 571.425781 327.652344 567.1875 327.652344 567.1875 C 329.429688 566.953125 375.792969 573.292969 392.144531 567.1875 C 408.5 561.082031 424.445312 560.988281 424.445312 560.988281 Z M 474.496094 657.710938 C 516.707031 649.792969 524.777344 613.128906 524.777344 613.128906 C 524.777344 613.128906 514.144531 638.648438 476.703125 651.40625 C 439.253906 664.164062 380.515625 653.59375 379.417969 653.59375 C 379.417969 653.59375 432.28125 665.625 474.496094 657.710938 Z M 520.515625 743.660156 C 520.28125 744.238281 520.046875 744.796875 519.820312 745.359375 C 520.046875 744.796875 520.28125 744.238281 520.515625 743.660156 Z M 724.65625 512.523438 L 528.546875 494.195312 C 533.019531 559.277344 535.703125 648.664062 537.320312 667.484375 C 538.824219 685.050781 530.257812 719.128906 520.515625 743.660156 C 520.515625 743.65625 520.515625 743.65625 520.515625 743.648438 C 628.636719 755.5625 724.421875 772.125 724.421875 772.125 L 515.757812 754.648438 C 511.34375 763.921875 506.980469 770.472656 503.457031 771.976562 C 490.757812 777.378906 433.917969 771.976562 433.917969 771.976562 C 433.917969 771.976562 411.394531 776.128906 384.191406 779.617188 L 593.695312 801.117188 C 615.191406 803.324219 636.902344 801.914062 657.9375 796.949219 L 751.382812 774.894531 C 752.65625 774.585938 753.554688 773.445312 753.554688 772.144531 L 753.554688 544.265625 C 753.554688 527.8125 741.035156 514.058594 724.65625 512.523438 Z M 519.195312 746.894531 C 519.40625 746.390625 519.609375 745.878906 519.820312 745.359375 C 519.609375 745.878906 519.40625 746.390625 519.195312 746.894531 Z M 327.457031 649.359375 C 327.457031 649.359375 329.09375 627.265625 323.054688 619.53125 C 323.054688 619.53125 322.246094 644.242188 327.457031 649.359375 Z M 519.195312 746.894531 C 518.945312 747.492188 518.695312 748.078125 518.441406 748.671875 C 518.695312 748.085938 518.945312 747.492188 519.195312 746.894531 Z M 518.441406 748.671875 C 518.257812 749.109375 518.066406 749.546875 517.878906 749.972656 C 518.066406 749.546875 518.257812 749.109375 518.441406 748.671875 Z M 59.59375 746.308594 L 110.65625 751.550781 C 111.300781 745.988281 111.855469 741.234375 112.285156 737.527344 L 59.714844 740.679688 C 56.246094 740.882812 56.140625 745.957031 59.59375 746.308594 Z M 135.257812 498.597656 L 161.859375 486.957031 L 139.589844 455.0625 Z M 254.496094 589.980469 L 265.203125 587.695312 L 252.644531 587.695312 Z M 436.382812 554.789062 C 447.082031 557.347656 464.21875 567.1875 464.21875 567.1875 C 459.082031 556.25 436.382812 554.789062 436.382812 554.789062 Z M 262.753906 577.019531 L 245.503906 578.847656 C 245.453125 579.527344 247.027344 580.023438 246.988281 580.667969 Z M 446.964844 591.976562 C 446.964844 591.976562 445.277344 564.511719 429.050781 563.664062 C 428.371094 563.625 442.929688 574.117188 446.964844 591.976562 Z M 294.984375 453.4375 C 294.984375 453.4375 288.378906 492.082031 291.679688 503.386719 C 294.984375 514.6875 304.171875 565.367188 303.425781 570.835938 C 303.425781 570.835938 304.894531 551.871094 301.226562 527.445312 C 297.554688 503.019531 293.148438 484.429688 294.984375 453.4375 Z M 344.71875 321.699219 C 344.71875 315.59375 341.890625 303.652344 341.890625 303.652344 C 341.890625 303.652344 341.890625 306.226562 341.890625 321.699219 C 341.890625 337.175781 322.960938 362.132812 322.960938 362.132812 C 345.417969 334.535156 344.71875 327.808594 344.71875 321.699219 Z M 239.828125 571.8125 L 265.203125 567.1875 C 265.203125 567.1875 248.515625 571.894531 241.347656 573.691406 C 241.398438 573.203125 239.777344 572.3125 239.828125 571.8125 "/>
</g>
<g clip-path="url(#clip5)" clip-rule="nonzero">
<path style=" stroke:none;fill-rule:nonzero;fill:rgb(29.019165%,26.669312%,29.019165%);fill-opacity:1;" d="M 88.703125 1063.582031 C 84.851562 1061.769531 76.074219 1058.320312 64.480469 1057.820312 C 65.320312 1055.234375 65.738281 1053.550781 65.738281 1053.550781 L 56.128906 1063.050781 L 52.011719 1066.953125 C 52.011719 1066.953125 53.035156 1066.652344 54.753906 1066.191406 L 48.6875 1080.132812 C 44.929688 1079.117188 40.742188 1078.300781 36.980469 1078.300781 C 36.980469 1078.300781 34.742188 1079.5 32.074219 1080.699219 C 28.070312 1082 23.628906 1083.277344 23.628906 1083.277344 L 15.191406 1088.257812 C 12.480469 1087.429688 9.132812 1086.699219 4.917969 1086.21875 L -4.714844 1088.367188 C -4.714844 1088.367188 3.8125 1088.78125 11.957031 1090.171875 L 3.265625 1095.296875 C 5.960938 1094.929688 10.382812 1093.066406 15.046875 1090.757812 C 20.058594 1091.800781 24.46875 1093.265625 25.949219 1095.296875 C 25.949219 1095.296875 24.863281 1091.992188 18.035156 1089.242188 C 22.378906 1086.984375 26.644531 1084.558594 29.765625 1082.730469 C 34.152344 1082.511719 41.246094 1082.261719 47.671875 1082.464844 L 46.035156 1086.21875 C 47.664062 1085.207031 49.171875 1083.964844 50.582031 1082.597656 C 54.402344 1082.816406 57.765625 1083.242188 59.820312 1084.007812 C 59.820312 1084.007812 56.53125 1082.554688 51.992188 1081.113281 C 56.492188 1076.171875 59.796875 1069.839844 62.03125 1064.46875 C 70.429688 1062.699219 82.085938 1061.039062 88.703125 1063.582031 Z M 88.703125 1063.582031 C 90.105469 1064.234375 90.863281 1064.679688 90.863281 1064.679688 C 90.230469 1064.25 89.5 1063.882812 88.703125 1063.582031 Z M 142.527344 739.875 C 142.527344 739.875 139.691406 738.734375 134.570312 740.144531 C 133.480469 737.191406 131.976562 734.1875 130.953125 732.273438 C 132.097656 731.015625 133.671875 729.660156 135.207031 728.449219 L 137.53125 730.230469 L 135.980469 727.847656 C 138.203125 726.152344 140.125 724.875 140.125 724.875 C 138.261719 724.542969 136.410156 725.144531 134.804688 726.050781 L 130.929688 720.105469 L 130.425781 724.777344 L 133.320312 727 C 131.238281 728.507812 129.832031 730.230469 129.832031 730.230469 L 129.328125 734.867188 C 130.113281 736.035156 131.683594 738.449219 133.09375 740.605469 C 131.390625 741.191406 129.484375 742.039062 127.363281 743.28125 L 125.886719 746.726562 C 125.886719 746.726562 129.191406 743.71875 133.796875 741.679688 C 134.957031 743.472656 135.863281 744.875 135.863281 744.875 C 135.71875 743.757812 135.382812 742.5 134.941406 741.199219 C 137.28125 740.292969 139.882812 739.699219 142.527344 739.875 Z M 276.398438 308.925781 C 265.867188 307.617188 254.011719 318.671875 254.011719 318.671875 C 256 319.972656 258.1875 318.738281 259.039062 318.128906 C 259.324219 318.472656 259.648438 318.808594 259.992188 319.125 C 262.730469 321.699219 266.195312 322.472656 267.722656 320.863281 C 269.25 319.25 268.257812 315.863281 265.507812 313.296875 C 265.5 313.289062 265.492188 313.28125 265.480469 313.273438 C 271.019531 310.058594 276.398438 308.925781 276.398438 308.925781 Z M 243.855469 308.195312 C 243.855469 308.195312 249.460938 310.386719 251.609375 309.117188 C 253.757812 307.84375 257.726562 303.640625 261.882812 301.496094 C 263.402344 300.714844 268.804688 298.925781 268.804688 298.925781 C 268.804688 298.925781 260.664062 296.964844 257.300781 298.214844 C 253.945312 299.457031 243.855469 308.195312 243.855469 308.195312 Z M 234.292969 295.035156 C 234.292969 295.035156 266.386719 287.980469 278.296875 270.734375 C 278.296875 270.734375 289.730469 266.238281 298.558594 270.734375 C 298.566406 270.734375 298.566406 270.734375 298.574219 270.742188 C 311.238281 276.941406 323.84375 284.347656 323.84375 284.347656 C 321.914062 277.320312 329.632812 260.382812 337.035156 263.253906 C 344.441406 266.136719 346.691406 286.269531 346.691406 286.269531 C 346.691406 286.269531 348.085938 290.238281 345.792969 292.71875 C 345.792969 292.71875 350.015625 299.933594 358.546875 309.511719 C 358.546875 309.511719 356.125 298.769531 355.636719 279.734375 C 355.15625 260.695312 351.925781 229.894531 339.84375 215.128906 C 327.761719 200.359375 312.246094 208.203125 312.246094 208.203125 C 312.246094 208.203125 304.527344 192.976562 265.203125 204.972656 C 225.882812 216.96875 221.820312 256.199219 212.523438 265.425781 C 203.234375 274.660156 198.066406 272.808594 198.066406 272.808594 C 203.589844 301.886719 234.292969 295.035156 234.292969 295.035156 Z M 130.929688 505.042969 L 222.929688 607.167969 L 265.203125 603.257812 L 172.0625 487.851562 Z M 130.929688 762.230469 C 167.179688 757.785156 195.691406 767.085938 204.652344 759 C 212.929688 751.519531 239.613281 725.085938 249.738281 720.773438 C 250.839844 720.457031 251.621094 720.238281 251.898438 720.164062 C 253.597656 719.703125 255.101562 719.644531 256.476562 719.851562 C 256.503906 719.851562 256.542969 719.84375 256.570312 719.84375 C 256.570312 719.84375 243.175781 712.066406 232.875 712.882812 C 228.90625 713.535156 197.144531 740.480469 188.542969 746.390625 C 179.941406 752.304688 120.390625 751.652344 120.390625 751.652344 C 120.390625 751.652344 104.78125 754.417969 93.027344 761.089844 C 86.898438 764.570312 83.273438 771.238281 83.273438 778.292969 L 83.273438 792.167969 C 83.273438 792.167969 94.679688 766.683594 130.929688 762.230469 Z M 158.503906 1112.199219 L 158.621094 1125.269531 C 158.664062 1129.9375 155.164062 1133.867188 150.503906 1134.394531 C 141.039062 1135.460938 124.980469 1136.699219 111.09375 1134.929688 C 89.84375 1132.222656 5.371094 1138.714844 -16.421875 1134.929688 C -38.226562 1131.140625 -31.144531 1110.035156 -31.144531 1110.035156 C -31.144531 1110.035156 -25.734375 1126.273438 22.246094 1126.8125 C 70.226562 1127.355469 140.527344 1108.414062 158.503906 1112.199219 "/>
</g>
</g>
</svg>
