<?xml version="1.0" encoding="UTF-8"?>
<svg xmlns="http://www.w3.org/2000/svg" xmlns:xlink="http://www.w3.org/1999/xlink" width="595.5pt" height="842.249979pt" viewBox="0 0 595.5 842.249979" version="1.2">
<defs>
<clipPath id="clip1">
  <path d="M 217 146.0625 L 369 146.0625 L 369 337 L 217 337 Z M 217 146.0625 "/>
</clipPath>
<clipPath id="clip2">
  <path d="M 74 526 L 397 526 L 397 695.785156 L 74 695.785156 Z M 74 526 "/>
</clipPath>
<clipPath id="clip3">
  <path d="M 198 526 L 521 526 L 521 695.785156 L 198 695.785156 Z M 198 526 "/>
</clipPath>
<clipPath id="clip4">
  <path d="M 474 522.472656 L 525.71875 522.472656 L 525.71875 586 L 474 586 Z M 474 522.472656 "/>
</clipPath>
</defs>
<g id="surface1">
<g clip-path="url(#clip1)" clip-rule="nonzero">
<path style=" stroke:none;fill-rule:nonzero;fill:rgb(24.308777%,18.03894%,9.408569%);fill-opacity:1;" d="M 271.667969 150.714844 C 231.644531 146.070312 217.386719 190.40625 217.386719 220.238281 C 217.386719 223.671875 217.03125 232.9375 218.816406 244.667969 C 223.085938 272.816406 238.210938 289.308594 248.050781 293.878906 C 248.050781 293.878906 257.34375 327.40625 277.320312 334.375 C 297.316406 341.34375 338.042969 336.109375 340.859375 285.605469 C 365.542969 269.5 379.46875 214.878906 355.921875 178.308594 C 331.445312 140.339844 294.359375 143.136719 271.667969 150.714844 "/>
</g>
<path style=" stroke:none;fill-rule:nonzero;fill:rgb(89.7995%,89.7995%,89.7995%);fill-opacity:1;" d="M 248.050781 293.878906 C 238.210938 289.308594 223.085938 272.8125 218.816406 244.664062 C 217.542969 236.28125 217.359375 229.15625 217.359375 224.519531 C 217.359375 229.15625 217.542969 236.28125 218.816406 244.664062 C 223.085938 272.8125 238.210938 289.308594 248.050781 293.878906 "/>
<path style=" stroke:none;fill-rule:nonzero;fill:rgb(22.349548%,16.079712%,8.239746%);fill-opacity:1;" d="M 259.355469 318.59375 C 251.726562 307.085938 248.070312 293.964844 248.050781 293.878906 C 238.210938 289.308594 223.085938 272.8125 218.816406 244.664062 C 217.542969 236.28125 217.359375 229.15625 217.359375 224.519531 C 217.359375 222.671875 217.386719 221.214844 217.386719 220.238281 C 217.386719 191.863281 230.277344 150.378906 265.964844 150.378906 C 267.804688 150.378906 269.710938 150.488281 271.667969 150.714844 L 268.03125 192.425781 C 252.847656 199.613281 255.960938 214.5 247.859375 221.449219 C 245.164062 223.78125 243.253906 226.851562 242.527344 230.214844 L 240.929688 224.648438 C 238.65625 224.648438 236.828125 226.515625 236.878906 228.792969 C 237.035156 236.242188 237.644531 251.3125 239.917969 253.46875 C 241.242188 254.726562 243.476562 255.945312 245.570312 256.921875 C 246.285156 260.921875 247.019531 264.621094 247.808594 267.835938 C 249.328125 274.003906 252.636719 279.59375 257.359375 283.859375 C 260.054688 286.300781 263.34375 289.148438 266.929688 291.941406 C 266.28125 300.613281 265.355469 310.640625 264.234375 317.097656 C 262.609375 317.457031 260.980469 317.945312 259.355469 318.59375 "/>
<path style=" stroke:none;fill-rule:nonzero;fill:rgb(82.749939%,47.44873%,23.529053%);fill-opacity:1;" d="M 395.335938 340.710938 C 373.1875 326.601562 350.515625 327.511719 332.148438 319.054688 C 318.570312 312.800781 304.488281 318.519531 295.445312 319.585938 C 286.277344 318.5 272.003906 312.90625 258.09375 319.121094 C 240.042969 327.195312 217.449219 326.757812 195.554688 340.710938 C 175.359375 353.5625 125.769531 446.175781 111.90625 460.496094 C 82.332031 491.046875 73.875 522.507812 74.195312 532.101562 C 74.671875 546.285156 82.082031 537.863281 87.082031 532.101562 C 95.734375 522.125 126.089844 513.964844 141.226562 489.261719 C 168.347656 445.019531 179.832031 449.835938 203.488281 414.609375 C 213.425781 412.683594 220.558594 463.230469 223.710938 473.996094 C 240.894531 532.679688 223.402344 559.167969 213.101562 579.058594 C 209.671875 585.691406 206.058594 596.199219 202.714844 603.253906 C 200.707031 607.488281 189.28125 640.457031 208.058594 660.941406 C 220.492188 674.492188 245.550781 679.09375 297.4375 678.746094 C 344.324219 678.414062 369.65625 680.25 383.089844 668.695312 C 406.953125 648.089844 392.449219 607.542969 389.894531 597.089844 C 388.601562 591.875 385.46875 582.453125 381.898438 575.589844 C 371.910156 556.261719 359.421875 536.253906 369.550781 476.988281 C 378.996094 421.824219 383.808594 415.589844 387.410156 414.609375 C 411.0625 449.835938 422.539062 445.019531 449.65625 489.261719 C 464.804688 513.964844 495.15625 522.125 503.816406 532.101562 C 508.820312 537.863281 517.96875 546.285156 518.441406 532.101562 C 518.773438 522.507812 508.558594 491.046875 478.992188 460.496094 C 465.121094 446.175781 415.523438 353.5625 395.335938 340.710938 "/>
<path style=" stroke:none;fill-rule:nonzero;fill:rgb(100%,100%,100%);fill-opacity:1;" d="M 351.671875 325.269531 C 348.90625 341.796875 342.695312 414.191406 294.605469 414.191406 C 246.53125 414.191406 241.953125 341.253906 239.261719 325.078125 C 232.074219 326.8125 224.542969 328.4375 216.886719 330.90625 C 216.886719 330.90625 212.5 422.417969 212.671875 427.425781 C 217.84375 442.675781 221.636719 466.921875 223.710938 473.996094 C 225.566406 480.332031 227.003906 486.285156 228.101562 491.90625 C 262.207031 499.523438 337.621094 499.136719 367.519531 490.75 C 368.0625 486.410156 368.726562 481.839844 369.550781 476.988281 C 372.910156 457.347656 375.691406 443.933594 378.035156 434.726562 C 378.367188 425.675781 374.082031 330.996094 374.082031 330.996094 C 366.417969 328.542969 358.878906 326.984375 351.671875 325.269531 "/>
<path style=" stroke:none;fill-rule:nonzero;fill:rgb(100%,100%,100%);fill-opacity:1;" d="M 379.765625 570.480469 C 375.007812 571.40625 331.429688 592.574219 294.410156 592.574219 C 257.410156 592.574219 221.632812 573.035156 217.386719 570.898438 C 216.886719 570.65625 208.191406 585.9375 208.191406 585.9375 C 207.984375 586.324219 208.03125 586.777344 208.304688 587.113281 L 278.71875 679.128906 C 278.71875 679.128906 300.78125 682.160156 318.027344 678.535156 L 388.214844 588.109375 C 388.460938 587.792969 388.496094 587.390625 388.355469 587.042969 C 388.355469 587.042969 384.332031 577.34375 379.765625 570.480469 "/>
<path style=" stroke:none;fill-rule:nonzero;fill:rgb(94.509888%,94.898987%,94.898987%);fill-opacity:1;" d="M 479.253906 530.441406 C 460.097656 537.179688 366.714844 565.417969 350.601562 586.777344 C 324.605469 621.304688 323.398438 658.175781 318.027344 678.535156 C 332.652344 684.855469 373.679688 678.535156 388.441406 671.410156 C 417.957031 657.160156 507.019531 580.160156 515.921875 561.289062 C 519.683594 553.285156 510.238281 519.515625 479.253906 530.441406 "/>
<path style=" stroke:none;fill-rule:nonzero;fill:rgb(94.509888%,94.898987%,94.898987%);fill-opacity:1;" d="M 116.097656 530.441406 C 85.117188 519.515625 75.671875 553.285156 79.445312 561.289062 C 88.335938 580.160156 177.402344 657.160156 206.917969 671.410156 C 221.671875 678.535156 262.695312 684.855469 277.320312 678.535156 C 274.820312 659.75 267.382812 611.5 244.746094 586.777344 C 226.683594 567.046875 135.269531 537.179688 116.097656 530.441406 "/>
<g clip-path="url(#clip2)" clip-rule="nonzero">
<path style=" stroke:none;fill-rule:nonzero;fill:rgb(85.879517%,50.588989%,26.669312%);fill-opacity:1;" d="M 378.296875 660.046875 C 350.148438 658.804688 325.308594 654.023438 313.621094 651.453125 C 284.773438 634.066406 108.363281 528.285156 108.363281 528.285156 C 78.625 520.40625 69.1875 542.117188 78.1875 557.960938 C 101.621094 599.226562 134.113281 624.578125 200.582031 633.925781 C 225.300781 637.410156 272.105469 659.871094 297.507812 669.34375 C 299.207031 675.15625 305.1875 681.6875 319.0625 683.070312 C 326.445312 683.804688 354.382812 697.269531 373.921875 695.65625 C 383.929688 694.835938 395.84375 680.285156 395.984375 673.824219 C 396.121094 667.382812 402.492188 661.117188 378.296875 660.046875 "/>
</g>
<path style=" stroke:none;fill-rule:nonzero;fill:rgb(83.139038%,47.839355%,23.919678%);fill-opacity:1;" d="M 335.3125 655.546875 C 334.929688 655.496094 334.5625 655.425781 334.175781 655.371094 C 333.265625 655.214844 332.355469 655.058594 331.464844 654.917969 C 331.167969 654.863281 330.886719 654.8125 330.589844 654.761719 C 329.664062 654.601562 328.734375 654.445312 327.859375 654.289062 C 327.617188 654.234375 327.40625 654.199219 327.179688 654.148438 C 326.25 653.988281 325.359375 653.832031 324.484375 653.65625 C 324.238281 653.621094 323.996094 653.570312 323.730469 653.515625 C 322.945312 653.359375 322.140625 653.21875 321.386719 653.0625 C 321.039062 652.992188 320.722656 652.9375 320.390625 652.871094 C 319.761719 652.746094 319.132812 652.625 318.535156 652.5 C 318.117188 652.398438 317.75 652.328125 317.363281 652.238281 C 316.875 652.152344 316.382812 652.046875 315.929688 651.941406 C 315.109375 651.785156 314.335938 651.609375 313.621094 651.453125 C 309.140625 648.753906 301.113281 643.921875 290.753906 637.707031 C 283.476562 641.71875 276.148438 645.761719 274.363281 646.566406 C 272.28125 647.023438 265.441406 649.492188 255.734375 652.222656 C 271.320312 658.628906 286.453125 665.230469 297.507812 669.34375 C 297.613281 669.746094 297.769531 670.167969 297.929688 670.570312 L 298.035156 670.832031 C 298.191406 671.164062 298.332031 671.515625 298.503906 671.847656 L 298.609375 672.058594 C 298.820312 672.425781 299.03125 672.808594 299.277344 673.179688 L 299.34375 673.28125 C 299.609375 673.703125 299.90625 674.105469 300.21875 674.507812 C 310.035156 670.515625 324.292969 663.355469 339.160156 656.160156 C 338.792969 656.089844 338.425781 656.039062 338.042969 655.96875 C 337.132812 655.828125 336.207031 655.6875 335.3125 655.546875 "/>
<path style=" stroke:none;fill-rule:nonzero;fill:rgb(100%,100%,100%);fill-opacity:1;" d="M 81.269531 570.214844 C 104.175781 616.699219 138.433594 633.679688 191.351562 650.101562 C 288.777344 681.003906 275.761719 662.5 286.292969 663.320312 C 288.167969 663.480469 290.335938 663.863281 293.273438 664.722656 C 298.941406 657.753906 302.722656 652.5 305.746094 644.027344 C 253.160156 614.335938 111.441406 528.285156 111.441406 528.285156 C 81.707031 520.40625 73.210938 553.863281 81.269531 570.214844 "/>
<path style=" stroke:none;fill-rule:nonzero;fill:rgb(94.509888%,94.898987%,94.898987%);fill-opacity:1;" d="M 286.292969 663.320312 C 288.167969 663.480469 290.335938 663.863281 293.273438 664.722656 C 298.941406 657.753906 302.722656 652.5 305.75 644.027344 C 304 643.046875 302.179688 641.996094 300.238281 640.894531 C 298.121094 645.742188 293.328125 655.53125 286.292969 663.320312 "/>
<path style=" stroke:none;fill-rule:nonzero;fill:rgb(94.509888%,94.898987%,94.898987%);fill-opacity:1;" d="M 274.363281 646.566406 C 270.304688 647.476562 248.226562 655.96875 221.945312 659.222656 C 232.75 662.183594 241.484375 664.25 248.578125 665.632812 C 258.636719 666.105469 268.714844 666.472656 277.199219 666.964844 C 281.695312 665.457031 282.304688 663.007812 286.292969 663.320312 C 288.167969 663.480469 290.335938 663.863281 293.273438 664.722656 C 298.941406 657.753906 302.722656 652.5 305.75 644.027344 C 301.863281 641.839844 297.507812 639.335938 292.75 636.605469 C 284.878906 640.945312 276.304688 645.691406 274.363281 646.566406 "/>
<g clip-path="url(#clip3)" clip-rule="nonzero">
<path style=" stroke:none;fill-rule:nonzero;fill:rgb(85.879517%,50.588989%,26.669312%);fill-opacity:1;" d="M 486.988281 528.285156 C 486.988281 528.285156 297.859375 643.136719 275.5 653.238281 C 262.800781 656.089844 241.914062 659.730469 217.058594 660.046875 C 192.839844 660.34375 199.230469 667.382812 199.367188 673.824219 C 199.511719 680.285156 211.421875 694.835938 221.433594 695.65625 C 240.964844 697.269531 268.921875 683.804688 276.289062 683.070312 C 291.648438 681.546875 297.332031 673.703125 298.261719 667.523438 C 321.894531 657.894531 373.34375 636.957031 394.777344 633.925781 C 461.234375 624.578125 493.742188 599.226562 517.164062 557.960938 C 526.175781 542.117188 516.726562 520.40625 486.988281 528.285156 "/>
</g>
<path style=" stroke:none;fill-rule:nonzero;fill:rgb(100%,100%,100%);fill-opacity:1;" d="M 486.988281 528.285156 C 486.988281 528.285156 345.285156 614.335938 292.699219 644.027344 C 295.722656 652.5 299.484375 657.753906 305.152344 664.722656 C 308.109375 663.863281 310.277344 663.480469 312.152344 663.320312 C 322.683594 662.5 309.648438 681.003906 407.074219 650.101562 C 460.011719 633.679688 494.265625 616.699219 517.164062 570.214844 C 525.230469 553.863281 516.726562 520.40625 486.988281 528.285156 "/>
<g clip-path="url(#clip4)" clip-rule="nonzero">
<path style=" stroke:none;fill-rule:nonzero;fill:rgb(82.749939%,47.44873%,23.529053%);fill-opacity:1;" d="M 503.972656 522.910156 C 503.972656 522.910156 477.925781 532.347656 476.019531 532.101562 C 474.09375 531.875 472.886719 534.238281 476.492188 537.40625 C 480.09375 540.558594 497.800781 534.167969 501.648438 535.359375 C 505.496094 536.566406 502.960938 577.535156 502.925781 581.125 C 502.871094 585.675781 508.734375 587.863281 510.902344 584.011719 C 513.070312 580.160156 525.84375 558.398438 525.703125 554.300781 C 525.421875 545.53125 517.585938 524.347656 517.585938 524.347656 L 503.972656 522.910156 "/>
</g>
<path style=" stroke:none;fill-rule:nonzero;fill:rgb(82.749939%,47.44873%,23.529053%);fill-opacity:1;" d="M 117.171875 532.101562 C 115.253906 532.347656 89.214844 522.910156 89.214844 522.910156 L 75.609375 524.347656 C 75.609375 524.347656 69.515625 545.53125 69.226562 554.300781 C 69.089844 558.398438 86.777344 582.4375 88.941406 586.289062 C 91.109375 590.140625 96.125 587.953125 95.183594 583.398438 C 94.445312 579.878906 87.691406 536.566406 91.539062 535.359375 C 95.386719 534.167969 113.09375 540.558594 116.695312 537.40625 C 120.300781 534.238281 119.101562 531.875 117.171875 532.101562 "/>
<path style=" stroke:none;fill-rule:nonzero;fill:rgb(100%,100%,100%);fill-opacity:1;" d="M 355.695312 400.550781 C 347.855469 421.457031 306.957031 448.015625 306.957031 448.015625 C 306.957031 448.015625 304.875 457.117188 309.578125 464.996094 C 322.628906 484.148438 375.199219 484.394531 383.089844 452.8125 C 389.738281 426.253906 367.433594 402.304688 367.433594 402.304688 C 367.433594 402.304688 361.765625 391.710938 355.695312 400.550781 "/>
<path style=" stroke:none;fill-rule:nonzero;fill:rgb(100%,100%,100%);fill-opacity:1;" d="M 237.054688 400.550781 C 230.980469 391.710938 225.308594 402.304688 225.308594 402.304688 C 225.308594 402.304688 203.003906 426.253906 209.644531 452.8125 C 217.550781 484.394531 270.128906 484.148438 283.179688 464.996094 C 287.886719 457.117188 285.789062 448.015625 285.789062 448.015625 C 285.789062 448.015625 244.886719 421.457031 237.054688 400.550781 "/>
<path style=" stroke:none;fill-rule:nonzero;fill:rgb(94.898987%,94.898987%,94.898987%);fill-opacity:1;" d="M 370.722656 470.320312 C 376.652344 466.238281 381.183594 460.445312 383.089844 452.8125 C 384.542969 447.050781 384.628906 441.414062 383.859375 436.128906 C 384.628906 441.414062 384.542969 447.050781 383.089844 452.8125 C 381.183594 460.445312 376.652344 466.238281 370.722656 470.320312 M 383.859375 436.109375 L 383.859375 436.09375 L 383.859375 436.109375 "/>
<path style=" stroke:none;fill-rule:nonzero;fill:rgb(94.898987%,94.898987%,94.898987%);fill-opacity:1;" d="M 342.609375 478.199219 C 328.734375 478.199219 315.316406 473.4375 309.578125 464.996094 C 308.566406 463.296875 307.863281 461.566406 307.410156 459.851562 C 313.183594 468.234375 326.546875 472.980469 340.386719 472.980469 C 358.039062 472.980469 376.441406 465.257812 380.867188 447.578125 C 383.441406 437.316406 381.671875 427.460938 378.558594 419.214844 C 380.921875 424.132812 382.96875 429.878906 383.859375 436.074219 L 383.859375 436.128906 C 384.628906 441.414062 384.542969 447.050781 383.089844 452.8125 C 381.183594 460.445312 376.652344 466.238281 370.722656 470.320312 C 362.902344 475.710938 352.632812 478.199219 342.609375 478.199219 "/>
<path style=" stroke:none;fill-rule:nonzero;fill:rgb(94.898987%,94.898987%,94.898987%);fill-opacity:1;" d="M 209.640625 452.757812 C 209.632812 452.757812 209.632812 452.757812 209.632812 452.742188 C 209.632812 452.757812 209.632812 452.757812 209.640625 452.757812 M 209.625 452.722656 C 209.625 452.707031 209.617188 452.707031 209.617188 452.6875 C 209.617188 452.707031 209.625 452.707031 209.625 452.722656 M 209.609375 452.6875 C 209.609375 452.671875 209.609375 452.652344 209.605469 452.652344 C 209.609375 452.652344 209.609375 452.671875 209.609375 452.6875 M 209.605469 452.636719 C 207.964844 445.984375 208.148438 439.488281 209.332031 433.5 C 208.148438 439.488281 207.964844 445.984375 209.605469 452.636719 "/>
<path style=" stroke:none;fill-rule:nonzero;fill:rgb(94.898987%,94.898987%,94.898987%);fill-opacity:1;" d="M 250.132812 478.199219 C 232.488281 478.199219 214.066406 470.496094 209.644531 452.8125 C 209.644531 452.792969 209.640625 452.777344 209.640625 452.757812 C 209.632812 452.757812 209.632812 452.757812 209.632812 452.742188 L 209.625 452.722656 C 209.625 452.707031 209.617188 452.707031 209.617188 452.6875 L 209.609375 452.6875 C 209.609375 452.671875 209.609375 452.652344 209.605469 452.652344 L 209.605469 452.636719 C 207.964844 445.984375 208.148438 439.488281 209.332031 433.5 C 211.03125 424.90625 214.8125 417.339844 218.269531 411.808594 C 213.398438 421.160156 209.25 434.027344 212.640625 447.578125 C 217.058594 465.257812 235.476562 472.980469 253.125 472.980469 C 266 472.980469 278.476562 468.867188 284.808594 461.546875 C 284.371094 462.703125 283.84375 463.859375 283.179688 464.996094 C 277.425781 473.4375 264.023438 478.199219 250.132812 478.199219 "/>
<path style=" stroke:none;fill-rule:nonzero;fill:rgb(78.42865%,44.709778%,22.349548%);fill-opacity:1;" d="M 296.964844 565.578125 C 295.148438 565.578125 293.695312 564.125 293.695312 562.304688 C 293.695312 560.519531 295.148438 559.046875 296.964844 559.046875 C 298.75 559.046875 300.21875 560.519531 300.21875 562.304688 C 300.21875 564.125 298.75 565.578125 296.964844 565.578125 "/>
<path style=" stroke:none;fill-rule:nonzero;fill:rgb(82.749939%,47.44873%,23.529053%);fill-opacity:1;" d="M 268.03125 274.722656 C 268.03125 274.722656 266.300781 309.328125 263.550781 320.441406 C 260.804688 331.554688 329.242188 323.484375 329.242188 323.484375 C 329.242188 323.484375 322.28125 296.054688 320.984375 281.683594 C 319.671875 267.316406 268.03125 274.722656 268.03125 274.722656 "/>
<path style=" stroke:none;fill-rule:nonzero;fill:rgb(85.879517%,50.588989%,26.669312%);fill-opacity:1;" d="M 346.457031 224.648438 L 336.589844 259.046875 C 336.589844 259.046875 344.429688 256.355469 347.472656 253.46875 C 349.746094 251.3125 350.359375 236.242188 350.515625 228.792969 C 350.550781 226.515625 348.730469 224.648438 346.457031 224.648438 "/>
<path style=" stroke:none;fill-rule:nonzero;fill:rgb(23.529053%,17.248535%,8.628845%);fill-opacity:1;" d="M 343.0625 236.484375 C 342.589844 234.75 341.855469 233.09375 340.910156 231.570312 C 341.609375 230.734375 342.363281 230.257812 343.117188 230.257812 C 343.203125 230.257812 343.273438 230.265625 343.34375 230.269531 C 343.816406 230.332031 344.253906 230.578125 344.636719 230.988281 L 343.0625 236.484375 "/>
<path style=" stroke:none;fill-rule:nonzero;fill:rgb(81.568909%,48.239136%,25.099182%);fill-opacity:1;" d="M 342.695312 248.167969 C 342.941406 246.765625 343.1875 245.355469 343.414062 243.949219 C 343.851562 241.390625 343.691406 238.859375 343.0625 236.484375 L 344.636719 230.988281 C 346.019531 232.460938 346.703125 235.988281 346.210938 239.976562 C 345.738281 243.804688 344.324219 246.957031 342.695312 248.167969 "/>
<path style=" stroke:none;fill-rule:nonzero;fill:rgb(85.879517%,50.588989%,26.669312%);fill-opacity:1;" d="M 236.878906 228.792969 C 237.035156 236.242188 237.644531 251.3125 239.917969 253.46875 C 242.964844 256.355469 250.800781 259.046875 250.800781 259.046875 L 240.929688 224.648438 C 238.65625 224.648438 236.828125 226.515625 236.878906 228.792969 "/>
<path style=" stroke:none;fill-rule:nonzero;fill:rgb(81.568909%,48.239136%,25.099182%);fill-opacity:1;" d="M 244.222656 248.613281 C 242.28125 248.015625 240.421875 244.453125 239.871094 239.976562 C 239.261719 235.070312 240.4375 230.859375 242.5 230.3125 C 242.171875 231.890625 242.105469 233.539062 242.324219 235.203125 C 242.933594 239.699219 243.558594 244.242188 244.222656 248.613281 "/>
<path style=" stroke:none;fill-rule:nonzero;fill:rgb(85.879517%,50.588989%,26.669312%);fill-opacity:1;" d="M 332.933594 224.519531 C 322.523438 219.519531 318.730469 203.367188 296.964844 206.957031 C 284.40625 209.03125 278.527344 199.921875 268.03125 192.421875 C 252.847656 199.613281 255.960938 214.5 247.859375 221.449219 C 243.859375 224.894531 241.621094 229.964844 242.324219 235.203125 C 243.921875 247.085938 245.707031 259.226562 247.808594 267.835938 C 249.328125 274.003906 252.636719 279.59375 257.359375 283.859375 C 266.542969 292.167969 282.585938 305.09375 293.695312 305.09375 C 304.453125 305.09375 318.921875 294.460938 327.582031 287.171875 C 332.445312 283.074219 335.976562 277.644531 337.746094 271.527344 C 339.757812 264.546875 341.714844 254.132812 343.414062 243.949219 C 344.777344 235.835938 340.351562 228.074219 332.933594 224.519531 "/>
<path style=" stroke:none;fill-rule:nonzero;fill:rgb(83.529663%,49.798584%,26.269531%);fill-opacity:1;" d="M 328.421875 274.121094 C 327.789062 274.121094 327.511719 273.601562 327.722656 272.375 C 328.226562 269.382812 335.734375 260.15625 341.820312 253.058594 C 341.015625 257.488281 340.160156 261.75 339.285156 265.523438 C 334.910156 269.914062 330.238281 274.121094 328.421875 274.121094 "/>
<path style=" stroke:none;fill-rule:nonzero;fill:rgb(83.529663%,49.798584%,26.269531%);fill-opacity:1;" d="M 257.308594 274.121094 C 255.664062 274.121094 251.304688 269.824219 247.246094 265.394531 C 246.425781 261.710938 245.65625 257.539062 244.921875 253.070312 C 250.519531 260.171875 257.410156 269.382812 257.917969 272.375 C 258.128906 273.601562 257.882812 274.121094 257.308594 274.121094 "/>
<path style=" stroke:none;fill-rule:nonzero;fill:rgb(62.348938%,36.079407%,18.03894%);fill-opacity:1;" d="M 303.175781 226.71875 C 303.894531 228.78125 306.1875 229.828125 308.199219 229.011719 L 318.464844 224.882812 C 321.824219 223.527344 325.570312 223.5625 328.894531 224.957031 L 333.757812 227 L 327.929688 223 C 324.710938 220.792969 320.707031 220.054688 316.925781 220.976562 L 304.664062 223.972656 C 303.457031 224.273438 302.773438 225.542969 303.175781 226.71875 "/>
<path style=" stroke:none;fill-rule:nonzero;fill:rgb(62.348938%,36.079407%,18.03894%);fill-opacity:1;" d="M 284.214844 223.21875 C 283.496094 225.277344 281.203125 226.324219 279.191406 225.511719 L 268.921875 221.382812 C 265.5625 220.027344 261.820312 220.0625 258.496094 221.453125 L 253.632812 223.5 L 259.457031 219.5 C 262.675781 217.292969 266.683594 216.550781 270.480469 217.476562 L 282.726562 220.46875 C 283.933594 220.773438 284.617188 222.042969 284.214844 223.21875 "/>
<path style=" stroke:none;fill-rule:nonzero;fill:rgb(81.568909%,48.239136%,25.099182%);fill-opacity:1;" d="M 292.925781 291.9375 L 292.664062 291.929688 L 292.191406 291.929688 C 286.835938 291.65625 284.808594 287.449219 285.980469 287.449219 C 286.085938 287.449219 286.207031 287.476562 286.363281 287.550781 C 287.78125 288.207031 290.773438 288.289062 292.171875 288.289062 C 292.644531 288.289062 292.925781 288.277344 292.925781 288.277344 C 292.925781 288.277344 293.222656 288.289062 293.675781 288.289062 C 295.09375 288.289062 298.066406 288.207031 299.484375 287.550781 C 299.644531 287.476562 299.78125 287.449219 299.886719 287.449219 C 301.058594 287.449219 299.03125 291.65625 293.660156 291.929688 L 293.203125 291.929688 L 292.925781 291.9375 "/>
<path style=" stroke:none;fill-rule:nonzero;fill:rgb(97.648621%,67.059326%,18.429565%);fill-opacity:1;" d="M 343.554688 251.558594 C 342.066406 251.558594 340.859375 252.769531 340.859375 254.253906 C 340.859375 255.746094 342.066406 256.949219 343.554688 256.949219 C 345.039062 256.949219 346.246094 255.746094 346.246094 254.253906 C 346.246094 252.769531 345.039062 251.558594 343.554688 251.558594 "/>
<path style=" stroke:none;fill-rule:nonzero;fill:rgb(97.648621%,67.059326%,18.429565%);fill-opacity:1;" d="M 243.835938 251.558594 C 242.351562 251.558594 241.148438 252.769531 241.148438 254.253906 C 241.148438 255.746094 242.351562 256.949219 243.835938 256.949219 C 245.324219 256.949219 246.53125 255.746094 246.53125 254.253906 C 246.53125 252.769531 245.324219 251.558594 243.835938 251.558594 "/>
<path style=" stroke:none;fill-rule:nonzero;fill:rgb(79.998779%,45.878601%,23.139954%);fill-opacity:1;" d="M 310.105469 333.902344 C 303.28125 338.066406 312.921875 329.140625 316.417969 316.082031 C 319.902344 303.023438 315.335938 291.703125 313.636719 310.859375 C 311.957031 330.015625 295.742188 346.121094 300.21875 341.78125 C 304.699219 337.421875 327.074219 333.0625 327.074219 333.0625 C 323.15625 330.890625 319.132812 328.386719 310.105469 333.902344 "/>
<path style=" stroke:none;fill-rule:nonzero;fill:rgb(79.998779%,45.878601%,23.139954%);fill-opacity:1;" d="M 276.480469 330.257812 C 268.554688 327.6875 263.429688 327.25 259.511719 329.417969 C 259.511719 329.417969 280.539062 335.878906 286.363281 338.136719 C 294.21875 341.183594 284.074219 332.746094 276.480469 330.257812 "/>
<path style=" stroke:none;fill-rule:nonzero;fill:rgb(94.509888%,94.898987%,94.898987%);fill-opacity:1;" d="M 292.699219 644.027344 C 295.722656 652.5 299.484375 657.753906 305.152344 664.722656 C 308.109375 663.863281 310.277344 663.480469 312.152344 663.320312 C 305.117188 655.53125 300.308594 645.742188 298.191406 640.894531 C 296.265625 641.996094 294.429688 643.046875 292.699219 644.027344 "/>
<path style=" stroke:none;fill-rule:nonzero;fill:rgb(62.348938%,36.079407%,18.03894%);fill-opacity:1;" d="M 305.589844 238.957031 C 312.675781 239.996094 319.605469 238.640625 325.394531 235.46875 C 326.179688 235.035156 327.195312 235.25 327.6875 235.996094 C 328.175781 236.734375 327.894531 237.765625 327.003906 238.257812 L 326.882812 238.320312 C 320.25 241.371094 312.695312 242.265625 305.3125 240.6875 C 304.769531 240.570312 304.402344 240.070312 304.507812 239.597656 C 304.609375 239.15625 305.082031 238.882812 305.589844 238.957031 "/>
<path style=" stroke:none;fill-rule:nonzero;fill:rgb(62.348938%,36.079407%,18.03894%);fill-opacity:1;" d="M 281.132812 238.957031 C 274.03125 239.996094 267.105469 238.640625 261.3125 235.46875 C 260.527344 235.035156 259.527344 235.25 259.039062 235.996094 C 258.550781 236.734375 258.828125 237.765625 259.722656 238.257812 L 259.84375 238.320312 C 266.457031 241.371094 274.015625 242.265625 281.394531 240.6875 C 281.957031 240.570312 282.324219 240.070312 282.21875 239.597656 C 282.097656 239.15625 281.625 238.882812 281.132812 238.957031 "/>
<path style=" stroke:none;fill-rule:nonzero;fill:rgb(81.568909%,48.239136%,25.099182%);fill-opacity:1;" d="M 299.941406 268.875 L 285.925781 268.875 C 285.035156 268.875 284.316406 268.15625 284.316406 267.269531 C 284.316406 266.386719 285.035156 265.667969 285.925781 265.667969 C 287.992188 267.21875 290.457031 268 292.925781 268 C 295.390625 268 297.859375 267.21875 299.941406 265.667969 C 300.816406 265.667969 301.53125 266.386719 301.53125 267.269531 C 301.53125 268.15625 300.816406 268.875 299.941406 268.875 "/>
<path style=" stroke:none;fill-rule:nonzero;fill:rgb(81.568909%,48.239136%,25.099182%);fill-opacity:1;" d="M 292.925781 282.628906 C 288.375 282.628906 283.84375 282.183594 279.367188 281.300781 C 276.8125 280.804688 274.957031 280.425781 275.132812 280.425781 C 275.660156 280.425781 286.664062 277.1875 288.621094 277.1875 C 288.65625 277.1875 288.707031 277.191406 288.742188 277.191406 C 289.25 277.253906 289.882812 277.546875 290.511719 277.914062 C 291.246094 278.367188 292.085938 278.585938 292.925781 278.585938 C 293.765625 278.585938 294.605469 278.367188 295.355469 277.914062 C 295.96875 277.546875 296.597656 277.253906 297.105469 277.191406 C 297.160156 277.191406 297.195312 277.1875 297.246094 277.1875 C 299.207031 277.1875 310.191406 280.425781 310.714844 280.425781 C 310.890625 280.425781 309.054688 280.804688 306.484375 281.300781 C 302.023438 282.183594 297.472656 282.628906 292.925781 282.628906 "/>
</g>
</svg>
