<?xml version="1.0" encoding="UTF-8"?>
<svg xmlns="http://www.w3.org/2000/svg" xmlns:xlink="http://www.w3.org/1999/xlink" width="595.5pt" height="842.249979pt" viewBox="0 0 595.5 842.249979" version="1.2">
<defs>
<clipPath id="clip1">
  <path d="M 28 197 L 567 197 L 567 607.242188 L 28 607.242188 Z M 28 197 "/>
</clipPath>
</defs>
<g id="surface1">
<path style=" stroke:none;fill-rule:nonzero;fill:rgb(50.979614%,83.139038%,92.939758%);fill-opacity:1;" d="M 386.503906 362.636719 C 388.863281 359.449219 391.105469 356.5 393.699219 352.839844 C 391.695312 352.960938 390.277344 353.195312 388.863281 353.078125 C 388.15625 353.078125 387.328125 352.605469 386.621094 352.25 C 384.144531 350.601562 381.664062 348.828125 379.070312 347.179688 C 378.597656 346.941406 378.007812 346.707031 377.535156 346.707031 C 374.703125 346.46875 371.753906 346.351562 368.921875 346.234375 C 366.445312 346.117188 365.382812 344.9375 365.382812 342.457031 C 365.382812 341.160156 365.617188 339.863281 365.855469 338.683594 C 366.445312 335.734375 364.320312 332.78125 361.371094 332.191406 C 355.589844 331.011719 349.925781 329.714844 344.144531 328.652344 C 341.3125 328.179688 338.480469 327.828125 335.648438 327.472656 C 334.707031 329.359375 333.40625 331.25 332.9375 333.253906 C 331.992188 337.03125 331.519531 341.042969 330.929688 344.9375 C 330.339844 348.59375 330.105469 352.371094 326.800781 355.910156 C 326.210938 354.257812 325.386719 352.960938 325.265625 351.542969 C 324.914062 346.46875 324.914062 341.394531 324.675781 336.203125 C 324.675781 335.613281 324.558594 334.90625 324.558594 334.082031 C 321.726562 334.082031 319.132812 334.082031 316.417969 334.082031 C 315.121094 334.082031 314.058594 333.84375 312.878906 332.902344 C 310.398438 331.011719 307.449219 329.832031 304.617188 328.417969 C 301.195312 326.648438 297.777344 324.996094 294.355469 323.460938 C 293.527344 323.105469 292.347656 323.578125 291.402344 323.695312 C 291.757812 324.875 291.875 326.292969 292.585938 327 C 294.472656 328.652344 296.714844 329.832031 298.835938 331.367188 C 300.488281 332.546875 302.140625 333.84375 303.558594 335.378906 C 304.027344 335.851562 303.910156 337.148438 303.675781 337.855469 C 301.078125 342.695312 299.074219 347.769531 298.246094 353.195312 C 297.894531 355.320312 297.65625 357.445312 297.304688 359.683594 C 290.460938 358.625 283.5 357.914062 276.773438 356.265625 C 270.167969 354.613281 263.675781 352.015625 259.429688 346.351562 C 253.058594 337.972656 252.585938 329.125 263.203125 320.984375 C 269.222656 316.382812 276.183594 313.429688 282.792969 310.007812 C 295.0625 303.636719 308.160156 299.035156 321.253906 294.90625 C 327.863281 292.898438 334.117188 289.949219 340.605469 287.589844 C 341.3125 287.355469 342.609375 287.589844 343.082031 288.0625 C 344.027344 289.125 344.972656 290.539062 345.441406 291.839844 C 346.742188 295.378906 349.101562 297.5 352.757812 298.328125 C 356.535156 299.273438 357.476562 300.804688 358.1875 304.816406 C 358.894531 308.710938 359.835938 312.488281 363.023438 315.199219 C 363.496094 315.554688 364.320312 315.671875 364.910156 315.554688 C 365.855469 315.320312 366.917969 314.964844 367.742188 314.375 C 369.394531 313.3125 370.929688 313.3125 372.816406 314.140625 C 375.53125 315.320312 378.480469 314.375 380.484375 311.660156 C 382.492188 308.949219 383.90625 306.234375 383.90625 302.695312 C 383.90625 300.6875 385.441406 298.683594 386.265625 296.675781 C 386.621094 295.730469 387.210938 294.90625 387.445312 294.078125 C 387.917969 292.429688 388.980469 292.78125 390.042969 293.253906 C 397.359375 296.675781 404.910156 299.742188 411.988281 303.753906 C 422.960938 309.890625 432.636719 317.796875 441.25 326.882812 C 450.214844 336.324219 456.707031 347.296875 459.417969 360.039062 C 460.480469 364.757812 460.480469 370.070312 459.417969 374.671875 C 458.359375 379.273438 454.9375 383.402344 449.863281 384.582031 C 443.964844 386 437.828125 387.0625 431.691406 387.53125 C 423.90625 388.121094 416.589844 385.527344 410.21875 381.277344 C 404.199219 377.265625 398.65625 372.546875 392.992188 368.0625 C 390.75 366.648438 388.746094 364.640625 386.503906 362.636719 Z M 199.726562 263.753906 C 198.429688 264.226562 197.132812 264.582031 196.070312 265.289062 C 194.183594 266.46875 192.53125 268.003906 190.640625 269.300781 C 182.617188 274.730469 176.128906 281.691406 171.292969 290.066406 C 165.390625 300.332031 166.101562 311.308594 168.695312 322.164062 C 170.464844 329.832031 173.179688 337.148438 175.539062 344.699219 C 176.246094 346.824219 176.957031 349.066406 178.136719 350.953125 C 179.316406 352.84375 181.085938 352.722656 182.382812 350.71875 C 184.035156 348.121094 185.804688 345.644531 186.75 342.8125 C 189.816406 333.371094 192.648438 323.816406 195.480469 314.140625 C 198.429688 304.109375 200.554688 293.960938 200.789062 283.460938 C 200.789062 281.101562 201.261719 278.859375 201.378906 276.5 C 201.496094 274.847656 202.085938 272.957031 201.496094 271.542969 C 200.90625 270.125 199.019531 269.417969 197.839844 268.355469 C 198.664062 267.296875 199.609375 265.996094 200.554688 264.699219 C 200.199219 264.464844 199.964844 264.109375 199.726562 263.753906 Z M 165.746094 356.855469 C 160.789062 352.722656 155.007812 349.773438 148.636719 348.949219 C 144.863281 348.476562 140.96875 348.710938 137.191406 348.949219 C 131.648438 349.300781 126.101562 349.539062 120.675781 350.480469 C 116.664062 351.191406 112.414062 352.015625 110.054688 356.027344 C 108.757812 358.386719 106.753906 360.039062 104.511719 361.457031 C 103.921875 361.808594 103.449219 362.398438 102.859375 362.871094 C 102.976562 363.109375 103.09375 363.226562 103.210938 363.460938 C 104.984375 363.226562 106.871094 363.226562 108.523438 362.515625 C 110.765625 361.691406 112.769531 363.816406 112.886719 364.167969 C 113.242188 366.882812 115.128906 366.175781 116.546875 366.058594 C 118.316406 365.9375 119.96875 365.703125 121.738281 365.230469 C 127.519531 363.933594 133.300781 361.925781 139.433594 362.636719 C 140.144531 362.753906 140.851562 362.28125 142.382812 361.925781 C 140.851562 360.746094 139.90625 360.039062 138.84375 359.332031 C 142.382812 359.332031 145.925781 359.214844 149.464844 359.332031 C 154.539062 359.566406 159.609375 359.921875 164.683594 360.15625 C 165.511719 360.15625 166.335938 359.921875 167.632812 359.6875 C 166.691406 358.386719 166.335938 357.445312 165.746094 356.855469 Z M 235.359375 310.480469 C 234.652344 310.480469 233.707031 310.246094 233.472656 310.597656 C 232.054688 312.605469 229.695312 312.960938 227.691406 313.902344 C 222.382812 316.382812 217.425781 319.449219 213.414062 323.816406 C 209.402344 328.0625 205.625 332.664062 201.734375 336.914062 C 197.367188 341.632812 194.652344 346.824219 195.007812 353.433594 C 195.007812 354.140625 195.125 354.730469 195.242188 355.910156 C 195.832031 354.613281 196.1875 353.902344 196.660156 353.195312 C 197.25 353.785156 197.601562 354.375 198.074219 354.847656 C 199.136719 355.910156 200.316406 355.792969 201.144531 354.730469 C 202.324219 353.195312 203.621094 351.660156 204.210938 350.011719 C 206.097656 344.582031 209.636719 340.453125 213.53125 336.558594 C 218.488281 331.601562 223.5625 326.765625 228.28125 321.691406 C 231.113281 318.503906 233.355469 314.847656 235.832031 311.425781 C 235.714844 311.070312 235.59375 310.835938 235.359375 310.480469 Z M 157.371094 332.429688 C 157.015625 331.25 156.78125 330.070312 156.1875 329.007812 C 153.476562 323.933594 150.527344 319.09375 147.929688 313.902344 C 143.800781 305.761719 138.253906 298.5625 131.410156 292.546875 C 128.34375 289.832031 124.097656 288.417969 120.4375 286.527344 C 119.847656 286.175781 118.90625 286.527344 118.195312 286.644531 C 118.316406 287.355469 118.195312 288.179688 118.433594 288.769531 C 120.320312 294.078125 123.742188 298.210938 127.753906 301.984375 C 132 306.117188 136.25 310.363281 140.144531 314.730469 C 144.980469 320.15625 149.347656 325.703125 154.066406 331.25 C 154.65625 331.957031 155.71875 332.429688 156.660156 333.019531 C 156.78125 332.78125 157.015625 332.546875 157.371094 332.429688 Z M 157.371094 332.429688 "/>
<path style=" stroke:none;fill-rule:nonzero;fill:rgb(100%,67.059326%,0%);fill-opacity:1;" d="M 357.59375 372.3125 C 357.476562 371.722656 357.242188 371.25 357.242188 370.777344 C 357.242188 369.242188 356.886719 367.355469 357.714844 366.410156 C 358.777344 365.113281 363.378906 366.765625 364.792969 367.710938 C 367.152344 369.480469 369.75 371.132812 372.460938 372.3125 C 373.289062 372.664062 375.058594 371.601562 376 370.894531 C 378.714844 368.769531 381.074219 369.007812 383.671875 371.484375 C 387.09375 374.789062 390.632812 377.976562 394.054688 381.277344 C 396.179688 383.402344 398.066406 385.644531 400.070312 387.769531 C 400.660156 388.476562 401.488281 389.183594 402.3125 389.539062 C 411.398438 392.960938 420.484375 396.5 429.6875 399.6875 C 432.398438 400.628906 435.46875 400.984375 438.300781 401.457031 C 443.964844 402.519531 448.445312 399.921875 452.8125 396.734375 C 456.941406 393.785156 461.191406 391.191406 465.320312 388.242188 C 466.144531 387.652344 466.972656 386.589844 467.207031 385.644531 C 467.914062 382.695312 468.386719 379.746094 468.742188 376.796875 C 469.210938 373.492188 469.332031 370.1875 469.800781 366.765625 C 470.039062 365.230469 473.460938 364.40625 474.875 365.703125 C 476.765625 367.472656 478.886719 367.828125 481.246094 367.945312 C 482.425781 368.0625 483.726562 368.535156 484.789062 369.242188 C 491.75 373.726562 498.59375 378.328125 502.722656 385.878906 C 503.074219 386.589844 503.664062 387.296875 504.253906 387.769531 C 511.453125 393.3125 515.464844 401.101562 517.941406 409.597656 C 520.300781 418.09375 522.542969 426.707031 523.25 435.4375 C 524.195312 447.828125 524.429688 460.453125 523.722656 472.84375 C 523.132812 483.34375 521.007812 493.847656 519.59375 504.347656 C 519.359375 506.472656 519.476562 508.597656 519.59375 510.71875 C 519.949219 516.972656 518.886719 522.992188 517.589844 529.007812 C 517.46875 529.71875 517.707031 530.425781 517.824219 531.132812 C 517.824219 531.25 518.179688 531.371094 518.179688 531.488281 C 517.824219 533.609375 519.359375 534.910156 520.417969 536.441406 C 521.480469 537.976562 518.414062 541.398438 516.054688 541.753906 C 509.328125 542.578125 502.367188 542.816406 495.761719 544.230469 C 481.601562 547.417969 467.441406 550.957031 454.816406 558.746094 C 450.804688 561.222656 446.558594 563.582031 442.429688 565.941406 C 438.652344 568.066406 435.820312 567.949219 433.816406 565.824219 C 430.511719 562.402344 428.625 558.273438 428.742188 553.316406 C 428.742188 552.84375 428.742188 552.371094 428.742188 551.902344 C 428.742188 551.78125 428.625 551.664062 428.390625 551.3125 C 422.84375 553.082031 417.886719 555.675781 413.167969 559.214844 C 403.964844 566.179688 395.117188 573.730469 384.734375 579.039062 C 379.1875 581.871094 373.40625 581.515625 367.625 581.28125 C 364.792969 581.164062 361.960938 580.808594 359.011719 580.457031 C 352.640625 579.628906 346.269531 578.6875 339.898438 577.859375 C 336.476562 577.386719 333.054688 576.796875 329.632812 576.679688 C 317.953125 576.089844 306.152344 575.972656 294.472656 575.144531 C 285.621094 574.4375 276.890625 573.023438 268.160156 571.84375 C 260.609375 570.898438 253.175781 569.953125 245.625 568.890625 C 237.835938 567.828125 230.050781 566.53125 222.144531 565.589844 C 216.953125 564.878906 211.761719 564.527344 206.6875 564.054688 C 198.546875 563.226562 190.289062 562.402344 182.148438 561.695312 C 177.425781 561.222656 172.707031 560.984375 167.988281 560.75 C 160.910156 560.394531 153.828125 560.160156 146.867188 559.804688 C 137.546875 559.335938 128.109375 558.863281 118.785156 558.390625 C 114.65625 558.15625 110.410156 557.683594 106.28125 557.917969 C 99.082031 558.390625 92.003906 559.335938 84.804688 559.925781 C 81.382812 560.160156 77.964844 559.925781 74.542969 559.804688 C 72.535156 559.6875 70.058594 560.160156 68.761719 559.214844 C 67.578125 558.390625 67.699219 555.792969 67.226562 553.90625 C 64.628906 542.578125 61.796875 531.371094 59.675781 520.042969 C 58.257812 512.726562 57.90625 505.175781 57.078125 497.742188 C 56.960938 496.679688 56.726562 495.734375 56.605469 494.671875 C 55.308594 486.648438 57.550781 478.980469 59.792969 471.546875 C 61.328125 466.472656 64.160156 461.75 66.046875 456.679688 C 70.292969 445.703125 76.3125 435.792969 83.625 426.589844 C 94.71875 412.664062 109.703125 404.40625 125.984375 398.152344 C 139.433594 393.078125 153.238281 389.539062 167.164062 386.117188 C 181.320312 382.695312 195.363281 378.566406 208.929688 372.902344 C 220.847656 367.945312 233 363.578125 244.796875 358.625 C 249.398438 356.734375 253.53125 353.667969 257.894531 351.070312 C 258.484375 350.71875 259.191406 350.363281 259.78125 350.128906 C 259.902344 350.246094 260.019531 350.480469 260.136719 350.601562 C 259.664062 351.308594 259.074219 352.015625 258.601562 352.722656 C 259.546875 352.722656 260.609375 352.84375 261.90625 352.84375 C 261.433594 353.902344 261.199219 354.492188 260.964844 355.203125 C 269.105469 356.617188 277.246094 358.035156 285.503906 359.332031 C 288.925781 359.921875 292.347656 360.984375 295.886719 360.867188 C 299.074219 360.867188 302.257812 359.6875 305.328125 358.859375 C 308.394531 357.914062 311.460938 357.207031 314.292969 359.566406 C 314.53125 359.6875 315.710938 359.214844 315.945312 358.625 C 318.1875 354.492188 319.367188 354.257812 323.023438 357.324219 C 324.675781 358.742188 326.328125 360.277344 328.214844 361.457031 C 331.046875 363.460938 330.929688 366.648438 331.992188 369.480469 C 332.226562 370.070312 332.699219 371.011719 333.171875 371.132812 C 341.195312 372.902344 349.21875 373.019531 357.359375 372.664062 C 357.125 372.78125 357.242188 372.546875 357.59375 372.3125 Z M 408.09375 355.792969 C 407.03125 356.027344 405.617188 356.027344 404.910156 356.734375 C 404.4375 357.207031 404.671875 358.976562 405.261719 359.6875 C 406.089844 360.746094 407.269531 361.457031 408.449219 362.046875 C 410.335938 363.109375 412.695312 362.164062 413.167969 360.039062 C 413.640625 357.796875 413.757812 355.554688 413.996094 353.195312 C 413.757812 352.960938 413.523438 352.84375 413.167969 352.605469 C 411.515625 353.667969 409.863281 354.847656 408.332031 356.027344 C 408.210938 355.910156 408.210938 355.910156 408.09375 355.792969 Z M 307.921875 318.976562 C 309.101562 320.273438 310.519531 320.394531 311.460938 319.332031 C 313.703125 316.851562 315.59375 314.140625 317.597656 311.542969 C 317.363281 311.308594 317.125 310.953125 316.890625 310.71875 C 314.292969 311.898438 311.816406 312.960938 309.457031 314.019531 C 308.394531 313.429688 307.449219 312.839844 306.035156 312.015625 C 305.796875 315.199219 306.390625 317.207031 307.921875 318.976562 Z M 394.171875 310.953125 C 392.402344 312.25 390.632812 313.550781 388.980469 314.847656 C 388.625 314.375 388.15625 314.019531 387.800781 313.550781 C 387.328125 314.019531 386.621094 314.492188 386.503906 315.082031 C 386.148438 316.5 385.792969 317.914062 386.03125 319.332031 C 386.148438 320.273438 387.210938 321.335938 388.035156 321.808594 C 388.507812 322.164062 389.804688 321.808594 390.398438 321.335938 C 393.109375 318.742188 394.761719 315.554688 394.878906 311.78125 C 394.644531 311.425781 394.40625 311.1875 394.171875 310.953125 Z M 275.476562 338.683594 C 276.773438 340.214844 278.425781 340.453125 279.488281 338.800781 C 280.902344 336.675781 281.964844 334.316406 283.144531 331.957031 C 283.382812 331.484375 283.144531 330.660156 283.144531 330.070312 C 282.4375 330.1875 281.492188 330.070312 280.902344 330.421875 C 279.132812 331.601562 277.363281 332.902344 275.710938 334.082031 C 275.949219 334.433594 276.300781 334.671875 276.539062 335.023438 C 275.949219 333.960938 275.359375 332.78125 274.648438 331.484375 C 273.351562 333.253906 273.941406 336.914062 275.476562 338.683594 Z M 337.539062 310.128906 C 338.597656 312.132812 340.960938 312.371094 342.140625 310.597656 C 343.554688 308.476562 344.617188 305.996094 345.796875 303.753906 C 345.5625 303.636719 345.324219 303.402344 345.089844 303.285156 C 343.671875 303.875 342.019531 304.226562 340.839844 305.054688 C 339.308594 306.117188 338.597656 305.761719 337.890625 304.34375 C 337.183594 303.164062 336.359375 302.222656 334.46875 303.402344 C 335.53125 305.644531 336.359375 307.886719 337.539062 310.128906 Z M 445.851562 341.632812 C 445.023438 343.875 447.03125 344.699219 448.328125 345.527344 C 449.625 346.351562 451.042969 346 451.867188 344.699219 C 452.929688 342.695312 453.757812 340.570312 455.054688 337.855469 C 453.757812 338.210938 453.046875 338.328125 452.457031 338.445312 C 451.75 338.5625 451.160156 338.800781 450.453125 339.035156 C 449.980469 337.972656 449.625 337.148438 449.15625 335.96875 C 446.324219 337.148438 446.558594 339.625 445.851562 341.632812 Z M 454.582031 383.875 C 455.054688 384.347656 457.058594 384.347656 457.648438 383.757812 C 459.300781 382.457031 459.066406 377.03125 457.414062 375.261719 C 456.351562 376.203125 455.289062 377.148438 454.347656 377.976562 C 453.757812 377.386719 453.285156 376.796875 452.695312 376.203125 C 451.867188 376.675781 451.277344 377.03125 450.097656 377.738281 C 451.75 379.863281 452.929688 381.988281 454.582031 383.875 Z M 430.039062 367.472656 C 429.214844 368.535156 430.628906 370.894531 432.28125 371.722656 C 433.816406 372.546875 435.230469 372.3125 435.820312 370.660156 C 436.882812 367.710938 437.355469 364.757812 435.585938 361.101562 C 433.460938 363.460938 431.691406 365.347656 430.039062 367.472656 Z M 291.875 308.003906 C 291.050781 308.949219 290.695312 309.773438 289.28125 309.066406 C 288.925781 308.949219 288.21875 309.539062 287.746094 309.773438 C 288.574219 311.308594 289.042969 312.960938 290.222656 314.140625 C 290.578125 314.492188 292.703125 314.140625 293.175781 313.550781 C 294.945312 311.1875 296.476562 308.59375 298.128906 305.878906 C 295.0625 304.933594 293.292969 306.46875 291.875 308.003906 Z M 428.152344 391.664062 C 429.449219 393.195312 431.457031 392.722656 431.574219 391.191406 C 431.929688 388.59375 431.808594 385.878906 432.046875 382.578125 C 430.160156 383.992188 428.859375 385.171875 427.445312 386.234375 C 426.738281 385.527344 426.148438 383.640625 423.789062 385.410156 C 425.320312 387.53125 426.5 389.773438 428.152344 391.664062 Z M 416 307.765625 C 416.824219 308.476562 418.359375 309.066406 419.539062 308.828125 C 421.898438 308.355469 424.257812 304.464844 424.140625 301.984375 C 422.136719 303.046875 420.128906 304.109375 418.125 305.171875 C 417.652344 303.753906 417.179688 302.339844 416.707031 300.804688 C 414.464844 302.105469 414.113281 306.234375 416 307.765625 Z M 370.929688 335.851562 C 372.34375 338.328125 374.230469 338.683594 375.882812 336.324219 C 377.183594 334.550781 378.007812 332.429688 379.070312 330.304688 C 376.472656 329.359375 374.941406 330.304688 373.289062 331.367188 C 372.460938 331.957031 371.398438 332.308594 369.867188 333.136719 C 370.101562 333.726562 370.339844 334.789062 370.929688 335.851562 Z M 265.328125 332.308594 C 264.148438 332.902344 262.851562 333.492188 261.789062 334.199219 C 260.492188 335.140625 259.664062 336.558594 257.777344 336.324219 C 257.660156 336.324219 256.953125 337.855469 257.070312 338.5625 C 257.1875 339.273438 258.132812 339.746094 258.601562 340.335938 C 259.902344 342.339844 261.199219 342.339844 262.261719 340.335938 C 263.441406 337.855469 264.503906 335.378906 265.683594 332.902344 C 265.445312 332.664062 265.328125 332.429688 265.328125 332.308594 Z M 419.894531 333.371094 C 419.777344 333.492188 419.65625 333.84375 419.777344 334.082031 C 420.601562 335.851562 421.308594 337.621094 422.488281 339.273438 C 423.078125 339.980469 424.496094 340.214844 424.96875 338.800781 C 425.792969 335.96875 426.265625 333.136719 424.378906 330.1875 C 422.726562 331.367188 421.308594 332.308594 419.894531 333.371094 Z M 290.105469 351.308594 C 290.460938 353.078125 291.640625 354.613281 292.585938 356.144531 C 292.820312 356.382812 294.589844 356.144531 294.824219 355.792969 C 296.003906 353.667969 296.832031 351.308594 297.777344 349.066406 C 297.539062 348.828125 297.304688 348.710938 297.066406 348.476562 C 295.769531 349.421875 294.472656 350.363281 292.9375 351.425781 C 291.167969 350.011719 289.871094 350.011719 290.105469 351.308594 Z M 322.789062 299.863281 C 323.378906 300.214844 324.675781 299.980469 325.03125 299.507812 C 326.683594 297.738281 327.625 295.730469 327.390625 292.78125 C 324.792969 294.078125 322.554688 295.140625 319.957031 296.441406 C 320.3125 297.621094 321.253906 299.035156 322.789062 299.863281 Z M 322.789062 299.863281 "/>
<path style=" stroke:none;fill-rule:nonzero;fill:rgb(95.689392%,79.998779%,75.689697%);fill-opacity:1;" d="M 168.34375 385.527344 C 173.179688 384.109375 177.546875 383.046875 181.910156 381.515625 C 185.804688 380.21875 189.582031 378.445312 193.355469 377.148438 C 194.417969 376.796875 195.714844 377.03125 196.777344 377.265625 C 207.160156 379.035156 217.660156 380.808594 228.042969 382.578125 C 249.871094 386.351562 271.9375 389.183594 293.527344 394.496094 C 304.5 397.207031 315.710938 398.859375 326.445312 402.046875 C 341.667969 406.410156 356.0625 412.902344 369.277344 421.75 C 378.007812 427.652344 384.378906 435.792969 390.277344 444.289062 C 396.296875 453.019531 401.488281 462.105469 405.734375 471.78125 C 408.332031 477.800781 410.101562 484.171875 410.808594 490.777344 C 412.695312 508.832031 413.523438 526.886719 413.050781 544.9375 C 412.8125 552.019531 411.871094 558.980469 411.042969 565.941406 C 410.925781 567.121094 409.511719 568.65625 408.332031 569.128906 C 402.078125 571.84375 395.707031 574.4375 389.335938 576.914062 C 385.792969 578.332031 382.253906 579.511719 378.363281 580.925781 C 378.953125 577.152344 379.542969 573.730469 380.011719 570.308594 C 380.601562 565.707031 381.664062 560.984375 381.785156 556.382812 C 382.019531 544.585938 382.136719 532.902344 381.785156 521.105469 C 381.546875 512.253906 380.839844 503.523438 379.777344 494.789062 C 378.242188 482.636719 372.699219 472.136719 365.972656 462.105469 C 358.65625 451.25 348.984375 443.109375 337.417969 437.089844 C 320.664062 428.242188 302.96875 422.578125 284.679688 418.210938 C 272.644531 415.378906 260.84375 411.839844 248.808594 408.652344 C 233.472656 404.523438 218.015625 400.75 202.792969 396.5 C 192.292969 393.550781 182.027344 390.128906 171.644531 386.824219 C 170.464844 386.46875 169.640625 386.117188 168.34375 385.527344 Z M 355.824219 304.226562 C 355.472656 306.117188 358.304688 309.890625 360.074219 309.773438 C 365.855469 309.300781 371.28125 307.414062 376.355469 304.699219 C 376.710938 304.464844 377.183594 304.34375 377.300781 303.992188 C 378.597656 300.332031 380.484375 296.675781 381.074219 292.78125 C 381.785156 288.179688 381.429688 283.460938 381.785156 278.859375 C 381.785156 277.914062 382.375 276.734375 383.082031 276.261719 C 388.980469 272.605469 390.75 266.585938 392.402344 260.449219 C 392.992188 258.445312 391.929688 257.621094 389.804688 258.328125 C 388.273438 258.800781 386.738281 259.507812 384.96875 260.214844 C 383.789062 256.910156 382.375 253.960938 381.429688 250.777344 C 379.894531 245.582031 377.417969 241.101562 373.171875 237.679688 C 367.035156 232.722656 361.84375 232.722656 358.1875 238.386719 C 354.175781 244.757812 348.746094 249.59375 344.027344 255.257812 C 343.082031 256.320312 342.375 258.089844 342.375 259.507812 C 342.375 265.171875 342.257812 270.953125 342.847656 276.617188 C 343.320312 281.101562 344.382812 285.585938 345.796875 289.832031 C 346.859375 292.898438 348.273438 296.085938 352.640625 295.96875 C 353.820312 295.96875 354.882812 297.03125 354.292969 298.328125 C 353.230469 300.570312 354.410156 301.160156 356.414062 301.394531 C 356.0625 302.457031 355.945312 303.285156 355.824219 304.226562 Z M 346.503906 353.550781 C 345.441406 356.027344 348.863281 355.554688 349.21875 357.445312 C 348.863281 357.796875 348.390625 358.035156 348.15625 358.386719 C 346.859375 359.804688 347.332031 361.21875 349.21875 361.691406 C 350.042969 361.925781 350.988281 362.28125 351.8125 362.164062 C 357.125 361.574219 361.605469 363.460938 365.972656 366.410156 C 367.980469 367.828125 370.457031 369.242188 372.699219 369.242188 C 378.597656 369.359375 384.023438 367.472656 388.273438 363.109375 C 390.632812 360.628906 390.75 357.679688 387.917969 355.792969 C 383.433594 352.722656 378.832031 349.539062 373.878906 347.179688 C 367.035156 343.875 359.71875 343.285156 352.402344 345.40625 C 350.398438 346 348.746094 347.414062 346.503906 348.59375 C 347.921875 349.183594 348.628906 349.421875 348.746094 349.421875 C 347.921875 350.953125 347.09375 352.25 346.503906 353.550781 Z M 325.03125 339.863281 C 325.148438 339.15625 325.386719 338.09375 325.148438 337.972656 C 322.433594 336.441406 320.785156 332.78125 316.773438 333.726562 C 315.59375 333.960938 314.175781 333.726562 313.351562 334.316406 C 311.460938 335.613281 309.101562 337.148438 308.511719 339.15625 C 306.742188 345.527344 307.214844 352.132812 307.804688 358.625 C 307.921875 360.039062 308.511719 361.21875 310.164062 361.574219 C 313.351562 362.164062 316.773438 360.15625 318.421875 357.445312 C 319.367188 355.910156 319.957031 353.078125 323.023438 353.902344 C 323.734375 349.066406 324.324219 344.464844 325.03125 339.863281 Z M 325.03125 339.863281 "/>
<g clip-path="url(#clip1)" clip-rule="nonzero">
<path style=" stroke:none;fill-rule:nonzero;fill:rgb(14.898682%,19.999695%,23.919678%);fill-opacity:1;" d="M 61.328125 573.140625 C 63.214844 582.109375 64.867188 590.722656 66.636719 599.335938 C 66.871094 600.75 64.628906 604.171875 63.214844 604.054688 C 62.386719 603.9375 61.328125 602.875 61.089844 602.046875 C 60.148438 598.15625 59.320312 594.144531 58.613281 590.132812 C 57.316406 582.933594 55.898438 575.734375 54.835938 568.539062 C 53.894531 562.636719 53.539062 556.621094 52.714844 550.71875 C 52.003906 545.410156 51.296875 540.101562 50.472656 534.910156 C 49.765625 529.71875 49.054688 524.527344 48.347656 519.332031 C 47.523438 512.960938 46.8125 506.472656 45.988281 500.101562 C 45.28125 494.671875 44.691406 489.363281 43.980469 483.933594 C 43.15625 478.035156 42.449219 472.136719 41.621094 466.234375 C 40.5625 458.800781 39.378906 451.484375 38.199219 444.050781 C 37.964844 442.871094 37.964844 441.574219 37.609375 440.511719 C 37.375 439.804688 36.667969 438.859375 35.960938 438.625 C 30.179688 437.207031 27.9375 432.015625 28.054688 428.359375 C 28.171875 424.464844 32.65625 419.863281 37.019531 418.800781 C 40.5625 417.976562 43.863281 418.683594 47.050781 419.980469 C 52.949219 422.460938 53.304688 430.363281 47.640625 434.496094 C 45.398438 436.148438 42.800781 437.207031 40.324219 438.742188 C 41.503906 444.171875 42.921875 449.953125 43.980469 455.734375 C 45.042969 461.632812 45.871094 467.652344 46.8125 473.667969 C 47.757812 479.332031 48.703125 484.996094 49.527344 490.660156 C 50.355469 495.96875 50.945312 501.28125 51.652344 506.472656 C 52.476562 512.726562 53.304688 518.980469 54.246094 525.117188 C 55.308594 532.078125 56.488281 539.039062 57.433594 546.117188 C 58.496094 553.316406 59.320312 560.632812 60.382812 567.949219 C 60.5 568.539062 61.5625 569.363281 62.269531 569.480469 C 65.808594 569.835938 69.351562 569.953125 72.890625 570.070312 C 83.746094 570.308594 94.597656 570.425781 105.453125 570.542969 C 113.714844 570.660156 122.089844 570.78125 130.351562 571.015625 C 138.726562 571.25 147.222656 571.605469 155.597656 571.960938 C 163.621094 572.3125 171.527344 572.785156 179.550781 573.375 C 187.101562 573.964844 194.652344 574.671875 202.203125 575.261719 C 209.519531 575.855469 216.835938 576.207031 224.269531 576.679688 C 232.292969 577.152344 240.195312 577.625 248.21875 578.09375 C 253.53125 578.449219 258.722656 578.804688 264.03125 579.039062 C 272.761719 579.394531 281.492188 579.628906 290.222656 580.101562 C 297.304688 580.457031 304.265625 581.046875 311.34375 581.515625 C 317.832031 581.988281 324.203125 582.699219 330.695312 582.933594 C 336.710938 583.167969 342.730469 582.933594 348.746094 583.050781 C 349.808594 583.050781 351.578125 582.34375 351.695312 584.46875 C 351.8125 586.121094 350.042969 588.242188 348.390625 588.242188 C 346.269531 588.242188 344.261719 587.890625 342.140625 587.769531 C 338.480469 587.652344 334.707031 587.890625 331.046875 587.769531 C 323.378906 587.535156 315.828125 587.179688 308.160156 586.828125 C 301.195312 586.472656 294.234375 586.121094 287.273438 585.882812 C 276.65625 585.648438 266.035156 585.648438 255.417969 585.292969 C 248.21875 585.058594 241.140625 584.703125 233.945312 584.347656 C 227.21875 583.996094 220.492188 583.878906 213.769531 583.40625 C 206.335938 582.933594 198.902344 582.109375 191.585938 581.515625 C 186.75 581.164062 181.792969 580.925781 176.957031 580.574219 C 168.578125 579.984375 160.199219 579.277344 151.824219 578.6875 C 148.875 578.449219 145.925781 578.332031 142.976562 578.214844 C 138.375 577.976562 133.773438 577.976562 129.289062 577.742188 C 121.148438 577.269531 113.003906 576.796875 104.746094 576.324219 C 101.089844 576.089844 97.550781 576.089844 93.890625 575.855469 C 85.867188 575.265625 77.84375 574.554688 69.820312 573.964844 C 67.226562 573.492188 64.394531 573.375 61.328125 573.140625 Z M 31.359375 427.769531 C 31.238281 427.886719 31.003906 427.886719 30.886719 428.003906 C 31.238281 428.949219 31.476562 429.894531 31.949219 430.835938 C 33.128906 433.316406 35.960938 435.203125 38.082031 434.375 C 40.679688 433.316406 43.390625 432.136719 45.632812 430.484375 C 48.347656 428.476562 47.757812 426.351562 44.574219 425.171875 C 40.679688 423.875 37.140625 425.410156 33.597656 426.351562 C 33.480469 427.414062 33.480469 428.242188 33.480469 429.421875 C 32.417969 428.59375 31.828125 428.125 31.359375 427.769531 Z M 176.835938 372.074219 C 176.601562 371.132812 176.367188 370.542969 176.367188 369.949219 C 176.128906 365.113281 176.128906 360.15625 175.777344 355.320312 C 175.777344 354.257812 175.421875 353.195312 174.832031 352.25 C 171.292969 346.589844 169.757812 340.214844 168.105469 333.960938 C 165.984375 325.703125 164.566406 317.207031 165.15625 308.59375 C 165.746094 298.5625 168.8125 289.359375 174.59375 281.21875 C 181.792969 271.1875 190.40625 262.457031 200.671875 255.496094 C 202.324219 254.433594 204.445312 253.84375 206.453125 253.488281 C 208.8125 253.136719 210.109375 254.550781 209.992188 256.910156 C 209.636719 263.519531 209.285156 270.125 208.578125 276.734375 C 207.160156 290.65625 203.503906 303.875 197.722656 316.617188 C 192.292969 328.652344 186.394531 340.335938 180.378906 352.015625 C 179.195312 354.375 178.84375 356.617188 178.605469 358.976562 C 178.136719 362.988281 177.898438 367.121094 177.546875 371.132812 C 177.546875 371.25 177.308594 371.484375 176.835938 372.074219 Z M 201.96875 261.984375 C 201.734375 262.101562 201.496094 262.222656 201.378906 262.339844 C 193.472656 268.355469 186.511719 275.320312 180.140625 282.988281 C 172.707031 291.957031 169.285156 302.574219 169.167969 313.902344 C 169.050781 322.636719 170.820312 331.25 172.945312 339.746094 C 173.652344 342.339844 174.476562 345.054688 175.304688 347.648438 C 176.246094 332.429688 178.488281 317.5625 183.089844 303.164062 C 187.691406 288.769531 194.652344 275.320312 201.96875 261.984375 Z M 204.683594 260.804688 C 191.230469 280.980469 176.957031 327.355469 179.90625 341.042969 C 194.417969 316.261719 204.09375 290.066406 204.683594 260.804688 Z M 427.445312 563.816406 C 429.921875 568.066406 433.226562 571.722656 438.652344 570.660156 C 441.957031 569.953125 445.144531 568.183594 447.976562 566.296875 C 454.9375 561.8125 461.542969 556.972656 468.503906 552.492188 C 476.054688 547.652344 485.023438 546.238281 493.519531 543.40625 C 498.121094 541.871094 500.832031 538.804688 502.484375 534.4375 C 503.074219 533.019531 502.839844 532.785156 501.304688 533.019531 C 499.417969 533.257812 497.410156 533.019531 495.523438 533.019531 C 494.933594 533.019531 494.34375 532.902344 493.753906 533.019531 C 490.6875 533.847656 487.617188 534.792969 484.550781 535.617188 C 473.105469 538.683594 462.722656 543.757812 453.046875 550.601562 C 448.445312 553.90625 443.964844 557.328125 439.242188 560.632812 C 436.53125 562.519531 434.996094 562.046875 433.582031 558.980469 C 432.636719 556.972656 432.28125 554.734375 431.691406 552.726562 C 430.867188 550.011719 428.859375 548.597656 426.148438 549.304688 C 424.96875 549.539062 423.667969 550.128906 422.726562 550.839844 C 420.367188 552.726562 418.242188 555.085938 415.882812 556.855469 C 410.453125 560.867188 404.910156 564.761719 399.363281 568.773438 C 390.632812 575.027344 381.546875 579.628906 370.339844 576.914062 C 369.867188 576.796875 369.160156 577.269531 368.570312 577.503906 C 368.804688 578.09375 368.804688 578.804688 369.277344 579.15625 C 370.21875 579.746094 371.164062 580.335938 372.226562 580.574219 C 381.785156 582.34375 390.75 580.574219 399.007812 575.382812 C 407.621094 569.835938 416.355469 564.40625 425.203125 558.980469 C 425.792969 560.277344 426.5 562.167969 427.445312 563.816406 Z M 354.882812 579.746094 C 354.882812 562.875 354.765625 546 354.882812 529.246094 C 355 515.558594 355.472656 501.871094 355.824219 488.183594 C 355.945312 482.519531 356.296875 476.972656 356.769531 471.308594 C 356.886719 469.894531 356.179688 469.539062 355.117188 469.1875 C 354.054688 468.832031 353.113281 468.359375 352.167969 467.769531 C 351.105469 467.0625 350.515625 466.117188 348.863281 466 C 346.859375 465.882812 345.914062 463.875 345.679688 461.988281 C 345.089844 456.089844 347.683594 451.484375 352.285156 448.183594 C 355.945312 445.46875 362.195312 447.472656 365.5 451.839844 C 368.921875 456.324219 368.332031 460.570312 364.558594 464.9375 C 364.085938 465.527344 363.613281 466.117188 363.023438 466.472656 C 358.421875 468.59375 359.484375 472.609375 359.71875 476.382812 C 359.835938 478.152344 360.074219 479.921875 360.074219 481.691406 C 360.191406 500.101562 360.425781 518.625 360.425781 537.03125 C 360.425781 554.496094 360.308594 571.84375 360.074219 589.304688 C 360.074219 593.554688 359.957031 597.800781 359.484375 602.046875 C 359.367188 603.347656 358.421875 604.761719 357.714844 605.941406 C 357.359375 606.53125 356.414062 606.886719 355.824219 607.242188 C 355.355469 606.414062 354.527344 605.46875 354.527344 604.644531 C 354.292969 601.695312 354.292969 598.625 354.292969 595.675781 C 354.292969 590.367188 354.292969 585.058594 354.292969 579.746094 C 354.527344 579.746094 354.765625 579.746094 354.882812 579.746094 Z M 358.066406 456.089844 C 357.125 456.089844 356.296875 455.851562 355.589844 456.089844 C 354.410156 456.558594 352.875 456.914062 352.167969 457.859375 C 351.222656 458.921875 352.167969 462.578125 353.9375 463.523438 C 355.117188 464.230469 357.125 464.230469 358.539062 463.640625 C 359.835938 463.167969 360.898438 461.75 361.726562 460.453125 C 362.195312 459.628906 362.316406 458.09375 361.84375 457.386719 C 361.015625 456.207031 359.601562 455.261719 358.066406 453.964844 C 358.066406 455.144531 358.066406 455.5 358.066406 456.089844 Z M 80.324219 538.683594 C 83.507812 540.925781 83.035156 543.523438 82.917969 546.472656 C 82.800781 548.125 82.683594 549.777344 82.917969 551.3125 C 83.507812 554.378906 84.453125 557.445312 85.394531 560.394531 C 85.632812 561.105469 86.695312 561.929688 87.402344 561.929688 C 88.109375 561.929688 88.9375 560.984375 89.171875 560.277344 C 89.40625 559.6875 88.582031 558.863281 88.699219 558.15625 C 89.054688 552.136719 89.761719 546.238281 89.996094 540.21875 C 90.234375 535.972656 88.9375 534.554688 84.335938 533.257812 C 86.105469 531.605469 87.636719 530.070312 89.289062 528.773438 C 91.058594 527.359375 92.710938 523.816406 91.769531 522.753906 C 90.117188 520.867188 88.109375 521.695312 86.222656 522.402344 C 84.925781 522.875 83.625 523.34375 82.328125 523.464844 C 80.324219 523.699219 78.199219 523.464844 76.191406 523.464844 C 78.90625 520.277344 82.210938 518.980469 85.394531 519.097656 C 89.054688 519.214844 91.058594 517.445312 91.414062 513.789062 C 91.648438 510.601562 91.886719 507.417969 91.886719 504.230469 C 91.886719 489.835938 91.886719 475.558594 91.886719 461.160156 C 91.886719 460.335938 91.886719 459.390625 91.886719 458.449219 C 90.46875 458.09375 89.644531 458.210938 89.527344 459.863281 C 89.289062 467.769531 88.9375 475.792969 88.582031 483.699219 C 88.226562 491.015625 87.992188 498.332031 87.519531 505.527344 C 87.402344 508.007812 86.8125 510.367188 86.457031 513.078125 C 80.792969 512.371094 76.191406 514.140625 71.945312 517.328125 C 70.175781 518.625 68.171875 520.160156 68.523438 522.753906 C 68.996094 525.824219 70.292969 528.65625 73.597656 529.71875 C 75.132812 530.1875 76.664062 530.542969 78.082031 531.015625 C 77.375 533.964844 78.199219 537.152344 80.324219 538.683594 Z M 317.480469 329.007812 C 318.777344 327.238281 320.074219 325.464844 321.375 323.695312 C 323.851562 320.15625 326.445312 316.734375 328.804688 313.195312 C 329.277344 312.488281 329.042969 311.308594 329.160156 310.363281 C 328.097656 310.480469 327.15625 310.597656 326.09375 310.71875 C 325.855469 310.71875 325.503906 311.070312 325.265625 311.308594 C 321.253906 315.671875 317.597656 320.394531 316.417969 326.410156 C 316.183594 327.355469 316.535156 328.296875 316.652344 329.242188 C 317.007812 329.242188 317.242188 329.125 317.480469 329.007812 Z M 552.277344 253.726562 C 551.332031 255.257812 551.332031 255.496094 552.984375 257.382812 C 553.457031 257.027344 553.808594 256.675781 554.28125 256.320312 C 554.636719 256.792969 555.109375 257.148438 555.34375 257.621094 C 556.289062 260.097656 557.820312 260.449219 559.945312 258.800781 C 560.300781 258.5625 560.417969 258.210938 561.125 257.5 C 557.941406 256.085938 555.109375 254.90625 552.277344 253.726562 Z M 560.183594 249.242188 C 561.125 246.527344 560.890625 246.054688 558.058594 246.171875 C 556.523438 246.292969 554.992188 246.527344 553.457031 246.882812 C 552.039062 247.234375 549.5625 246.882812 550.742188 249.832031 C 550.859375 250.066406 550.507812 250.539062 550.269531 250.894531 C 547.4375 254.90625 547.910156 258.800781 551.449219 261.984375 C 552.160156 262.574219 552.75 263.753906 552.75 264.699219 C 552.75 270.714844 552.511719 276.734375 552.277344 282.753906 C 552.160156 288.769531 551.921875 294.789062 551.6875 300.6875 C 550.035156 299.273438 548.265625 298.09375 546.730469 296.675781 C 542.367188 292.664062 538.355469 288.0625 533.515625 284.640625 C 520.773438 275.554688 508.148438 266.351562 494.699219 258.5625 C 482.425781 251.367188 469.332031 245.582031 456.351562 239.800781 C 443.726562 234.257812 430.277344 231.070312 416.234375 231.1875 C 415.644531 231.1875 415.054688 231.070312 414.230469 230.953125 C 415.175781 229.773438 415.882812 228.828125 416.589844 227.882812 C 419.421875 224.109375 421.191406 219.859375 421.308594 215.023438 C 421.425781 208.0625 418.242188 202.75 412.105469 199.566406 C 405.851562 196.261719 399.246094 196.261719 393.226562 200.15625 C 386.621094 204.402344 383.671875 211.011719 383.433594 218.5625 C 378.832031 218.5625 374.351562 217.972656 369.984375 218.679688 C 361.488281 219.980469 354.765625 224.582031 349.335938 231.1875 C 344.617188 236.851562 342.019531 243.460938 340.25 250.421875 C 340.015625 251.128906 339.308594 251.957031 338.597656 252.308594 C 325.03125 259.152344 311.460938 265.761719 298.011719 272.605469 C 294.234375 274.492188 290.8125 276.851562 287.039062 279.09375 C 286.800781 276.734375 286.449219 274.609375 286.332031 272.367188 C 286.09375 267.765625 286.09375 263.046875 285.742188 258.445312 C 285.503906 254.90625 285.03125 251.484375 284.796875 247.945312 C 284.679688 245.230469 284.441406 242.75 286.921875 240.511719 C 288.453125 239.09375 289.398438 236.734375 289.871094 234.609375 C 290.460938 232.132812 291.285156 229.417969 289.28125 227.058594 C 287.15625 224.582031 283.617188 223.871094 280.078125 225.523438 C 277.71875 226.585938 276.183594 228.59375 277.007812 231.542969 C 277.128906 231.894531 276.65625 232.25 276.65625 232.605469 C 276.65625 234.492188 276.300781 236.617188 277.007812 238.03125 C 277.953125 240.039062 279.960938 241.691406 281.730469 243.8125 C 281.375 264.226562 281.140625 285.230469 280.785156 305.996094 C 276.417969 308.121094 272.527344 309.890625 268.515625 311.898438 C 260.019531 316.144531 253.175781 322.042969 249.164062 331.011719 C 246.804688 336.203125 246.6875 341.160156 249.992188 345.878906 C 250.816406 347.058594 251.640625 348.121094 252.585938 349.300781 C 229.933594 361.335938 205.863281 368.652344 180.847656 374.082031 C 183.796875 370.660156 184.507812 365.703125 188.871094 363.105469 C 193.945312 359.921875 198.3125 355.554688 203.503906 352.722656 C 217.898438 344.9375 230.523438 335.023438 241.023438 322.398438 C 243.382812 319.566406 245.742188 316.734375 246.804688 313.078125 C 247.75 309.773438 246.097656 306.707031 242.792969 306.234375 C 240.90625 305.996094 238.78125 305.761719 237.128906 306.46875 C 232.054688 308.355469 226.863281 310.128906 222.382812 313.078125 C 207.988281 322.28125 197.367188 335.140625 190.050781 350.601562 C 188.871094 353.195312 187.457031 355.4375 184.980469 357.089844 C 183.917969 357.796875 183.5625 359.449219 182.972656 360.628906 C 182.738281 361.21875 182.738281 361.925781 182.5 362.515625 C 180.730469 366.292969 178.84375 370.070312 177.074219 373.964844 C 176.484375 375.378906 175.777344 376.085938 174.125 375.613281 C 173.769531 371.722656 173.652344 367.710938 172.945312 363.933594 C 170.703125 353.195312 167.398438 342.929688 161.5 333.492188 C 160.789062 332.429688 160.320312 331.128906 159.964844 329.832031 C 157.960938 323.105469 156.308594 316.144531 154.066406 309.539062 C 151.941406 303.285156 148.167969 298.328125 141.914062 295.378906 C 136.722656 292.898438 131.648438 290.1875 126.339844 287.945312 C 123.859375 286.882812 121.027344 286.527344 118.195312 286.292969 C 116.898438 286.175781 114.777344 286.765625 114.304688 287.707031 C 113.832031 288.652344 114.894531 290.421875 115.367188 291.839844 C 115.484375 292.191406 115.835938 292.429688 116.074219 292.78125 C 120.4375 298.328125 124.804688 303.875 129.050781 309.417969 C 136.132812 318.976562 144.390625 327.355469 153.949219 334.433594 C 159.847656 338.800781 162.5625 344.816406 164.921875 351.308594 C 162.324219 348.59375 160.199219 345.644531 157.25 343.636719 C 148.636719 337.621094 139.082031 335.023438 128.460938 337.503906 C 116.664062 340.214844 108.167969 346.941406 103.09375 357.796875 C 102.503906 359.214844 102.621094 361.335938 103.210938 362.753906 C 104.628906 366.292969 109.113281 368.300781 113.359375 367.710938 C 120.085938 366.765625 126.929688 365.585938 133.652344 364.878906 C 143.09375 364.050781 152.648438 363.578125 162.207031 362.871094 C 163.859375 362.753906 164.800781 363.460938 165.390625 364.757812 C 167.042969 368.652344 168.695312 372.664062 170.347656 376.796875 C 169.167969 377.03125 168.222656 377.265625 167.28125 377.621094 C 153.476562 381.515625 139.671875 385.054688 126.691406 391.191406 C 113.359375 397.5625 100.734375 404.878906 90.46875 415.734375 C 78.90625 427.886719 70.058594 441.929688 63.449219 457.386719 C 62.269531 460.335938 61.445312 463.402344 60.5 466.472656 C 60.148438 467.652344 60.855469 468.832031 59.320312 470.011719 C 56.605469 472.015625 54.246094 474.496094 52.003906 476.855469 C 50 478.980469 50.234375 480.277344 53.066406 482.402344 C 53.539062 481.8125 53.894531 481.101562 54.367188 480.511719 C 59.320312 475.4375 64.277344 470.367188 70.058594 466 C 83.390625 456.089844 96.839844 446.414062 111.589844 438.742188 C 123.980469 432.371094 136.25 425.171875 150.527344 423.285156 C 154.890625 422.695312 159.257812 422.339844 163.742188 421.75 C 162.796875 427.179688 161.851562 432.015625 161.027344 436.972656 C 158.902344 449.597656 156.78125 462.222656 154.65625 474.730469 C 152.886719 485.113281 150.644531 495.5 146.75 505.292969 C 145.453125 508.597656 147.339844 512.136719 150.644531 513.316406 C 150.171875 513.671875 149.816406 513.90625 149.464844 514.261719 C 145.453125 518.507812 143.210938 518.625 146.515625 525.46875 C 146.867188 526.175781 146.632812 527.121094 146.394531 527.949219 C 143.566406 537.269531 140.613281 546.589844 138.019531 556.03125 C 137.3125 558.746094 137.664062 561.8125 137.785156 564.761719 C 137.785156 565.46875 138.84375 566.769531 139.433594 566.648438 C 140.261719 566.53125 141.085938 565.707031 141.792969 565 C 143.445312 563.347656 143.210938 560.984375 143.800781 558.863281 C 145.214844 553.199219 146.984375 547.535156 148.875 541.988281 C 150.527344 537.03125 151.117188 531.605469 154.300781 527.121094 C 156.542969 523.816406 156.1875 523.109375 152.769531 520.515625 C 153.238281 520.042969 153.710938 519.6875 154.300781 519.332031 C 157.015625 517.210938 159.730469 515.085938 161.261719 511.78125 C 162.914062 508.242188 161.617188 506.117188 157.722656 505.882812 C 156.308594 505.765625 154.890625 505.882812 153.359375 505.882812 C 153.359375 505.175781 153.238281 504.585938 153.359375 504.230469 C 154.539062 499.511719 155.953125 494.910156 156.78125 490.1875 C 158.078125 483.226562 159.019531 476.265625 159.964844 469.304688 C 160.671875 464.113281 161.382812 458.921875 162.089844 453.726562 C 162.796875 448.773438 163.621094 443.816406 164.332031 438.859375 C 164.921875 434.496094 165.628906 430.246094 166.101562 425.882812 C 166.21875 424.582031 165.746094 423.167969 165.390625 421.515625 C 168.460938 421.75 172 422.105469 175.421875 422.105469 C 184.035156 422.105469 192.53125 423.285156 200.789062 425.171875 C 209.992188 427.296875 219.195312 429.894531 228.398438 432.371094 C 228.988281 432.488281 229.8125 433.550781 229.695312 434.023438 C 228.515625 441.691406 227.21875 449.363281 225.921875 457.03125 C 224.621094 464.703125 223.441406 472.371094 222.027344 480.042969 C 221.199219 484.40625 219.3125 487.710938 214.476562 489.480469 C 210.582031 490.898438 207.160156 493.964844 203.855469 496.558594 C 203.148438 497.152344 202.914062 498.921875 203.03125 499.980469 C 203.738281 503.875 206.6875 505.292969 210.226562 505.882812 C 213.179688 506.355469 213.769531 508.242188 211.878906 510.601562 C 211.527344 511.074219 211.054688 511.429688 210.699219 511.78125 C 204.683594 517.800781 208.222656 522.992188 212.589844 525.234375 C 212.351562 526.765625 212.234375 528.300781 211.996094 529.835938 C 210.464844 539.273438 208.8125 548.597656 207.277344 558.035156 C 206.6875 561.457031 205.746094 564.996094 207.632812 568.300781 C 208.105469 569.246094 209.046875 569.835938 209.875 570.660156 C 210.464844 569.953125 211.289062 569.480469 211.761719 568.65625 C 214.003906 565.351562 213.886719 561.457031 214.476562 557.683594 C 216.363281 545.882812 218.371094 534.082031 220.140625 522.285156 C 220.492188 519.921875 220.847656 517.210938 217.308594 516.5 C 218.132812 515.085938 218.960938 514.023438 219.3125 512.726562 C 220.140625 510.011719 222.617188 507.179688 219.550781 504.230469 C 219.429688 504.113281 219.550781 503.640625 219.550781 503.285156 C 219.902344 501.164062 218.605469 500.101562 216.835938 499.746094 C 214.949219 499.273438 212.941406 499.039062 210.9375 498.683594 C 210.816406 498.449219 210.816406 498.210938 210.699219 498.09375 C 213.179688 496.679688 215.539062 495.144531 218.132812 493.847656 C 220.609375 492.667969 222.382812 491.015625 223.441406 488.535156 C 226.390625 481.574219 226.746094 474.023438 227.808594 466.707031 C 228.515625 461.871094 228.871094 457.03125 229.34375 452.195312 C 229.933594 446.765625 230.640625 441.339844 231.113281 435.792969 C 231.347656 433.078125 231.347656 432.960938 233.824219 433.785156 C 243.382812 437.328125 253.058594 440.628906 262.613281 444.40625 C 270.757812 447.710938 278.78125 451.367188 286.800781 455.027344 C 287.628906 455.378906 288.691406 456.558594 288.691406 457.269531 C 288.335938 461.398438 287.863281 465.527344 287.15625 469.539062 C 286.332031 475.558594 285.269531 481.691406 284.441406 487.710938 C 283.5 493.964844 282.792969 500.335938 281.609375 506.589844 C 280.429688 512.726562 282.320312 517.089844 287.746094 520.042969 C 288.808594 520.632812 289.988281 521.339844 291.167969 522.046875 C 288.453125 526.414062 284.5625 529.597656 280.667969 533.019531 C 280.195312 533.492188 279.488281 534.4375 279.605469 534.792969 C 280.785156 537.386719 279.722656 539.628906 278.78125 541.871094 C 278.542969 542.34375 278.78125 543.050781 278.898438 543.640625 C 279.839844 549.539062 280.785156 555.441406 278.898438 561.457031 C 278.191406 563.816406 280.3125 567.476562 282.792969 568.65625 C 283.144531 568.183594 283.617188 567.710938 283.972656 567.238281 C 284.207031 566.886719 284.441406 566.53125 284.5625 566.179688 C 287.394531 560.394531 286.921875 554.140625 286.210938 548.125 C 285.859375 544.820312 285.152344 541.871094 287.628906 539.039062 C 288.335938 538.214844 288.925781 536.914062 288.925781 535.851562 C 288.808594 533.730469 289.988281 532.429688 291.167969 531.015625 C 292.820312 528.890625 294.472656 526.648438 295.769531 524.289062 C 297.539062 521.222656 297.1875 519.804688 294.355469 517.800781 C 292.464844 516.382812 290.222656 515.441406 288.101562 514.378906 C 286.09375 513.316406 285.03125 511.898438 285.152344 509.65625 C 285.621094 504.347656 286.09375 499.039062 286.566406 493.730469 C 287.039062 488.773438 287.628906 483.699219 288.101562 478.742188 C 288.691406 472.371094 289.398438 466.117188 289.988281 459.746094 C 290.222656 456.679688 290.222656 456.558594 292.9375 457.976562 C 304.617188 463.875 316.300781 469.777344 327.863281 475.792969 C 333.171875 478.625 338.480469 481.574219 343.554688 484.878906 C 346.742188 487.003906 346.621094 487.238281 349.21875 484.523438 C 350.988281 482.636719 350.753906 481.101562 348.394531 480.042969 C 345.207031 478.390625 342.019531 476.855469 338.835938 475.203125 C 320.546875 466.234375 302.378906 457.03125 283.972656 448.300781 C 274.648438 443.816406 265.210938 439.804688 255.535156 436.027344 C 239.253906 429.773438 222.617188 424.464844 205.625 420.570312 C 195.363281 418.328125 184.980469 416.558594 174.359375 416.558594 C 168.933594 416.558594 163.621094 416.558594 158.195312 417.03125 C 152.53125 417.621094 146.75 418.210938 141.324219 419.863281 C 129.40625 423.285156 118.195312 429.066406 107.8125 435.558594 C 92.003906 445.46875 76.902344 456.558594 61.445312 467.296875 C 62.859375 464.820312 64.277344 462.222656 65.808594 459.746094 C 74.070312 446.882812 84.214844 435.558594 94.71875 424.464844 C 103.921875 414.789062 115.128906 407.589844 126.929688 401.339844 C 142.976562 392.84375 160.320312 387.769531 177.664062 382.929688 C 203.03125 375.96875 228.042969 367.945312 250.699219 354.257812 C 254.121094 352.132812 257.070312 351.070312 260.375 353.785156 C 260.492188 353.902344 260.726562 353.785156 260.84375 353.902344 C 265.683594 355.203125 270.519531 356.261719 275.238281 357.679688 C 285.269531 360.867188 295.414062 362.871094 306.035156 362.515625 C 307.921875 362.515625 309.929688 361.808594 311.699219 362.28125 C 313.703125 362.636719 315.121094 362.164062 316.0625 360.746094 C 317.363281 358.859375 318.304688 356.617188 319.25 354.730469 C 321.492188 355.792969 323.734375 356.855469 325.976562 358.035156 C 325.976562 359.214844 325.976562 360.628906 325.976562 361.925781 C 325.738281 366.292969 327.863281 369.832031 331.992188 371.011719 C 335.886719 372.074219 339.78125 373.019531 343.671875 373.492188 C 348.984375 374.082031 354.292969 374.316406 359.601562 374.671875 C 361.371094 374.789062 363.496094 371.839844 362.550781 370.894531 C 360.425781 369.007812 362.078125 367.472656 362.316406 366.175781 C 365.5 368.0625 368.570312 370.660156 372.109375 371.601562 C 375.648438 372.546875 379.660156 371.957031 382.492188 369.242188 C 384.613281 371.957031 386.503906 374.433594 388.507812 376.792969 C 395.351562 385.527344 403.609375 392.722656 413.640625 397.5625 C 421.78125 401.457031 429.921875 404.878906 439.363281 403.226562 C 446.441406 402.046875 452.8125 399.566406 458.476562 395.320312 C 459.417969 394.613281 460.007812 393.550781 460.71875 392.722656 C 460.597656 392.371094 460.597656 392.015625 460.480469 391.664062 C 430.628906 399.332031 406.5625 389.773438 387.683594 367.589844 C 389.097656 363.699219 390.394531 360.039062 391.8125 356.382812 C 394.054688 356.734375 396.179688 357.089844 398.417969 357.445312 C 398.183594 362.871094 396.179688 367.589844 393.464844 372.074219 C 394.996094 372.78125 396.53125 373.371094 398.539062 374.199219 C 399.71875 368.535156 400.898438 362.988281 402.195312 357.207031 C 403.847656 357.207031 405.972656 357.207031 408.210938 357.207031 C 410.101562 357.207031 412.222656 357.445312 413.992188 356.972656 C 419.421875 355.554688 424.730469 354.847656 430.277344 355.671875 C 431.457031 355.910156 433.460938 357.089844 434.40625 354.613281 C 428.507812 350.953125 422.015625 351.660156 415.410156 351.542969 C 414.582031 345.527344 413.875 339.625 413.050781 333.84375 C 412.460938 329.480469 411.753906 325.230469 411.164062 320.863281 C 410.925781 319.09375 410.101562 318.03125 407.976562 318.976562 C 408.566406 329.832031 409.039062 340.6875 409.628906 352.015625 C 405.382812 351.542969 401.839844 351.191406 398.300781 350.835938 C 394.40625 350.480469 390.394531 349.300781 386.382812 351.070312 C 385.914062 351.308594 385.085938 350.835938 384.496094 350.480469 C 380.367188 348.121094 376.355469 345.527344 371.988281 343.519531 C 368.097656 341.75 363.847656 342.929688 359.71875 342.8125 C 354.410156 342.695312 349.574219 343.757812 344.734375 345.527344 C 343.199219 346.117188 342.257812 348.003906 341.078125 349.300781 C 341.902344 350.011719 342.730469 350.835938 343.554688 351.542969 C 343.671875 351.660156 343.671875 351.78125 343.671875 351.660156 C 343.082031 352.839844 342.492188 354.023438 341.902344 355.320312 C 343.199219 355.792969 344.261719 356.261719 345.5625 356.734375 C 344.144531 358.152344 342.964844 359.683594 345.5625 360.628906 C 345.324219 361.457031 344.734375 362.398438 344.972656 362.753906 C 345.441406 363.34375 346.386719 363.933594 347.210938 363.933594 C 350.753906 364.050781 354.410156 363.933594 357.949219 363.933594 C 357.949219 365.820312 357.949219 367.238281 357.949219 369.242188 C 350.28125 368.179688 342.730469 367.121094 335.179688 365.9375 C 330.929688 365.230469 330.339844 364.523438 330.222656 360.039062 C 330.105469 358.269531 330.105469 356.382812 330.222656 354.613281 C 330.574219 349.066406 330.929688 343.519531 331.285156 337.972656 C 331.402344 337.265625 332.109375 336.558594 332.582031 335.96875 C 332.582031 333.84375 332.582031 331.601562 332.582031 329.007812 C 342.019531 334.90625 351.460938 338.683594 362.550781 335.023438 C 362.316406 337.382812 362.078125 339.273438 361.960938 341.160156 C 363.023438 341.160156 363.847656 341.160156 364.910156 341.160156 C 365.265625 338.5625 365.5 336.203125 365.855469 333.726562 C 366.089844 331.601562 364.675781 330.660156 363.023438 330.1875 C 361.371094 329.714844 359.71875 329.359375 357.949219 329.125 C 351.460938 328.179688 344.972656 327.238281 338.480469 326.410156 C 336.59375 326.175781 334.707031 325.9375 332.816406 326.058594 C 332.109375 326.058594 330.8125 327.472656 330.8125 327.589844 C 331.992188 329.832031 330.105469 331.484375 330.105469 333.253906 C 327.863281 333.019531 325.976562 332.664062 324.085938 332.664062 C 323.144531 332.664062 321.964844 334.082031 321.375 333.726562 C 318.777344 332.664062 316.417969 332.546875 313.703125 333.136719 C 313.46875 333.253906 313.113281 332.664062 312.761719 332.429688 C 306.386719 329.125 300.015625 325.820312 293.644531 322.515625 C 292.703125 322.042969 291.640625 321.925781 290.695312 321.574219 C 290.578125 321.808594 290.460938 322.042969 290.34375 322.28125 C 291.167969 322.988281 291.992188 323.933594 292.9375 324.523438 C 296.359375 326.648438 299.898438 328.535156 303.203125 330.539062 C 304.972656 331.601562 306.625 332.902344 308.628906 334.316406 C 305.445312 336.203125 304.148438 338.328125 305.328125 341.515625 C 305.5625 341.984375 304.972656 342.8125 304.617188 343.402344 C 303.085938 345.878906 302.257812 348.238281 304.382812 350.835938 C 304.617188 351.191406 305.207031 351.78125 305.089844 352.015625 C 303.675781 354.375 305.089844 356.382812 306.625 358.976562 C 300.488281 357.679688 294.824219 356.734375 289.515625 355.203125 C 280.550781 352.605469 271.816406 349.183594 262.734375 346.707031 C 258.132812 345.527344 256.125 342.457031 254.589844 338.683594 C 254.238281 337.972656 254.238281 337.03125 254.472656 336.203125 C 255.652344 331.011719 258.722656 326.765625 262.851562 323.695312 C 267.925781 319.804688 273.234375 316.261719 279.015625 313.429688 C 293.175781 306.46875 307.570312 299.980469 321.964844 293.609375 C 327.507812 291.128906 333.40625 289.476562 339.1875 287.472656 C 342.019531 296.558594 346.386719 300.804688 352.992188 301.042969 C 353.230469 301.867188 353.703125 302.695312 353.582031 303.519531 C 353.113281 308.003906 355.355469 311.1875 358.066406 314.257812 C 362.078125 318.859375 367.152344 318.386719 372.226562 316.851562 C 381.191406 314.140625 384.851562 306.707031 387.917969 298.800781 C 388.746094 296.558594 388.980469 294.433594 386.503906 292.898438 C 387.800781 290.421875 388.980469 289.832031 391.222656 290.65625 C 396.886719 292.78125 402.667969 294.90625 408.210938 297.382812 C 415.527344 300.570312 422.726562 304.109375 428.742188 309.300781 C 434.050781 314.019531 439.242188 318.976562 444.082031 324.167969 C 447.738281 328.179688 451.515625 332.546875 453.875 337.382812 C 458.710938 347.53125 462.722656 358.152344 466.972656 368.652344 C 468.503906 372.429688 469.332031 376.441406 468.503906 380.570312 C 468.269531 381.75 468.152344 382.929688 468.03125 384.109375 C 473.933594 378.800781 473.34375 371.957031 473.105469 364.757812 C 477 366.765625 480.65625 368.417969 484.195312 370.421875 C 492.101562 374.90625 498.710938 381.042969 504.84375 387.652344 C 510.746094 393.902344 515.109375 400.984375 516.878906 409.363281 C 518.179688 415.617188 519.121094 421.871094 519.828125 428.242188 C 520.65625 435.4375 521.597656 442.519531 521.71875 449.714844 C 521.835938 459.273438 521.246094 468.832031 520.890625 478.390625 C 520.65625 482.992188 520.417969 487.476562 519.828125 492.078125 C 519.121094 498.332031 518.769531 504.585938 518.53125 510.839844 C 518.296875 516.5 518.296875 522.285156 517.941406 527.949219 C 517.824219 530.78125 517.351562 533.609375 517.117188 536.5625 C 516.878906 539.863281 516.761719 543.167969 518.414062 546.117188 C 519.476562 548.125 520.773438 548.125 521.71875 546.117188 C 522.898438 543.640625 524.3125 541.046875 524.550781 538.332031 C 525.375 531.132812 525.847656 523.816406 525.964844 516.5 C 526.082031 513.671875 526.554688 511.78125 529.621094 511.191406 C 530.921875 510.957031 532.101562 510.128906 533.398438 509.65625 C 538 507.652344 542.71875 505.644531 547.558594 503.523438 C 547.558594 507.179688 547.558594 510.601562 547.558594 513.90625 C 547.675781 518.742188 547.910156 523.582031 547.910156 528.417969 C 547.910156 532.785156 547.792969 537.269531 547.675781 541.636719 C 547.558594 543.285156 549.207031 546.707031 550.386719 546.472656 C 552.511719 546 552.628906 544.113281 552.867188 542.34375 C 552.867188 542.226562 552.867188 542.226562 552.867188 542.105469 C 552.984375 538.214844 553.101562 534.199219 553.339844 530.308594 C 553.691406 523.34375 554.046875 516.382812 554.28125 509.421875 C 554.519531 499.390625 554.636719 489.246094 554.753906 479.214844 C 554.871094 466.945312 555.109375 454.671875 555.226562 442.519531 C 555.460938 423.285156 555.699219 403.933594 555.699219 384.699219 C 555.816406 345.527344 555.699219 306.234375 555.699219 267.058594 C 555.699219 266.113281 555.699219 265.054688 555.699219 263.992188 C 560.300781 265.289062 564.074219 263.164062 565.726562 258.679688 C 567.144531 255.023438 566.789062 253.015625 560.183594 249.242188 Z M 202.324219 335.96875 C 207.988281 329.359375 214.003906 323.226562 221.320312 318.386719 C 226.746094 314.847656 232.410156 311.777344 238.78125 310.597656 C 239.960938 310.363281 241.257812 310.71875 242.558594 310.835938 C 242.675781 311.1875 242.792969 311.425781 242.792969 311.777344 C 230.992188 327.238281 216.480469 339.507812 198.074219 347.648438 C 205.390625 338.683594 215.183594 332.902344 222.972656 324.875 C 222.851562 324.640625 222.617188 324.40625 222.5 324.285156 C 214.359375 330.1875 206.097656 336.203125 197.484375 342.457031 C 199.375 339.980469 200.671875 337.855469 202.324219 335.96875 Z M 121.027344 291.484375 C 121.855469 291.71875 122.796875 291.71875 123.507812 292.074219 C 129.640625 295.023438 135.660156 297.855469 141.675781 301.042969 C 146.515625 303.519531 149.109375 308.003906 150.644531 312.960938 C 152.648438 319.449219 154.300781 325.9375 156.308594 332.78125 C 141.203125 321.453125 131.292969 306.351562 121.027344 291.484375 Z M 146.394531 350.601562 C 139.554688 350.246094 133.0625 350.71875 126.808594 353.785156 C 137.664062 350.953125 148.167969 352.015625 158.195312 356.617188 C 158.195312 356.855469 158.195312 357.089844 158.195312 357.324219 C 157.488281 357.324219 156.660156 357.445312 155.953125 357.445312 C 144.15625 357.796875 132.472656 358.859375 120.792969 361.21875 C 117.253906 361.925781 113.59375 361.691406 109.9375 361.808594 C 109.113281 361.808594 108.285156 361.21875 107.460938 360.867188 C 113.476562 348.003906 124.921875 341.042969 137.902344 341.160156 C 149.816406 341.277344 159.964844 346.351562 164.921875 357.679688 C 159.375 353.433594 153.359375 350.953125 146.394531 350.601562 Z M 351.933594 358.625 C 352.050781 358.386719 352.050781 358.035156 352.167969 357.796875 C 355.472656 357.914062 358.65625 358.152344 361.960938 358.269531 C 361.488281 356.144531 361.488281 356.144531 346.386719 353.785156 C 351.460938 351.660156 355.945312 350.246094 361.015625 351.78125 C 361.488281 349.773438 359.957031 349.066406 358.304688 348.949219 C 356.296875 348.828125 354.175781 349.300781 352.050781 349.183594 C 350.042969 349.066406 348.15625 348.59375 346.269531 348.238281 C 346.269531 348.003906 346.152344 347.769531 346.152344 347.53125 C 347.683594 347.179688 349.21875 346.824219 350.753906 346.589844 C 356.652344 345.527344 362.550781 345.054688 368.332031 346.941406 C 371.519531 347.886719 374.230469 349.890625 377.183594 351.425781 C 380.722656 353.3125 384.261719 355.082031 387.683594 356.972656 C 385.792969 364.167969 381.195312 367.472656 374.703125 368.417969 C 373.878906 368.535156 372.933594 367.945312 372.109375 367.589844 C 367.859375 365.585938 363.613281 363.34375 359.246094 361.335938 C 357.003906 360.15625 354.410156 359.449219 351.933594 358.625 Z M 315.710938 354.492188 C 315.589844 354.847656 315.355469 355.203125 315.121094 355.4375 C 315 355.554688 314.882812 355.671875 314.765625 355.792969 C 314.410156 356.144531 314.058594 356.5 313.585938 356.734375 C 312.640625 357.324219 311.460938 357.914062 310.636719 358.625 C 310.636719 358.625 310.636719 358.503906 310.519531 358.503906 C 310.398438 358.386719 310.28125 358.152344 310.164062 358.035156 C 310.046875 357.796875 309.929688 357.679688 309.808594 357.445312 C 309.691406 357.207031 309.574219 357.089844 309.457031 356.855469 C 309.339844 356.617188 309.21875 356.382812 308.984375 356.144531 C 309.21875 356.027344 309.574219 355.792969 309.808594 355.671875 C 311.226562 354.964844 312.640625 354.257812 314.058594 353.433594 C 314.648438 353.078125 315.238281 352.84375 315.828125 352.488281 C 316.0625 353.3125 315.828125 353.902344 315.710938 354.492188 Z M 324.558594 351.191406 C 325.265625 348.121094 325.03125 344.816406 325.265625 341.632812 C 325.386719 339.746094 325.265625 337.855469 325.265625 335.613281 C 326.445312 335.613281 327.980469 335.613281 329.632812 335.613281 C 328.6875 342.105469 327.625 348.476562 326.683594 354.847656 C 324.441406 354.492188 324.085938 353.550781 324.558594 351.191406 Z M 310.28125 338.917969 C 312.878906 337.382812 315.472656 335.734375 318.777344 336.558594 C 319.367188 336.675781 320.074219 336.792969 320.664062 336.914062 C 322.789062 337.503906 323.851562 338.5625 322.671875 341.042969 C 318.304688 338.800781 314.175781 337.855469 310.046875 341.984375 C 309.574219 341.394531 308.984375 340.804688 308.984375 340.214844 C 308.867188 339.746094 309.808594 339.273438 310.28125 338.917969 Z M 308.511719 346.351562 C 308.984375 346 309.691406 345.527344 309.691406 345.054688 C 310.28125 341.632812 312.878906 341.632812 315.355469 341.867188 C 316.890625 341.984375 318.304688 342.457031 319.839844 342.695312 C 322.082031 343.046875 323.023438 344.226562 322.316406 346.707031 C 320.195312 345.996094 318.070312 345.171875 315.945312 344.582031 C 313.820312 343.992188 310.871094 345.40625 310.164062 347.414062 C 310.046875 347.769531 310.164062 348.476562 310.398438 348.710938 C 310.753906 348.949219 311.460938 348.949219 311.933594 348.828125 C 316.773438 347.648438 318.777344 347.769531 322.199219 349.890625 C 318.1875 350.71875 314.292969 351.425781 310.753906 352.25 C 310.164062 351.542969 309.574219 350.480469 308.75 349.773438 C 307.214844 348.476562 306.980469 347.53125 308.511719 346.351562 Z M 282.320312 238.269531 C 281.140625 236.851562 280.3125 235.789062 279.371094 234.726562 C 281.140625 234.257812 282.554688 233.902344 283.972656 233.546875 C 284.207031 233.667969 284.324219 233.785156 284.5625 233.902344 C 283.851562 235.199219 283.144531 236.496094 282.320312 238.269531 Z M 310.398438 279.09375 C 305.5625 280.746094 305.089844 281.453125 304.972656 287 C 304.855469 289.949219 304.382812 292.78125 304.027344 295.730469 C 304.027344 296.203125 303.558594 296.675781 303.203125 296.910156 C 298.484375 298.917969 293.644531 300.804688 288.453125 302.929688 C 287.984375 296.085938 287.628906 289.597656 287.15625 282.632812 C 294.707031 278.503906 302.257812 274.375 310.398438 270.007812 C 310.398438 273.429688 310.398438 276.261719 310.398438 279.09375 Z M 320.074219 290.65625 C 317.597656 291.601562 315.121094 292.546875 312.523438 293.609375 C 312.40625 291.839844 312.289062 290.304688 312.171875 288.652344 C 312.050781 286.765625 313.230469 286.175781 314.53125 286.765625 C 316.535156 287.589844 318.304688 288.886719 320.195312 289.949219 C 320.195312 290.1875 320.195312 290.421875 320.074219 290.65625 Z M 338.835938 285.464844 C 333.644531 286.882812 328.335938 288.179688 323.261719 289.476562 C 325.03125 286.175781 333.289062 281.335938 338.835938 280.511719 C 338.835938 282.28125 338.835938 283.8125 338.835938 285.464844 Z M 339.425781 275.082031 C 339.308594 276.851562 338.71875 277.796875 336.476562 278.269531 C 332.464844 279.09375 328.6875 280.863281 324.792969 282.398438 C 323.378906 282.988281 322.554688 282.988281 321.375 281.808594 C 318.777344 279.09375 315.355469 278.859375 311.699219 279.09375 C 311.816406 275.789062 311.933594 272.957031 312.171875 270.125 C 312.171875 269.65625 312.761719 269.066406 313.351562 268.828125 C 321.84375 264.816406 330.457031 260.921875 338.953125 257.027344 C 339.191406 256.910156 339.425781 256.910156 340.015625 256.792969 C 339.898438 262.929688 339.660156 269.066406 339.425781 275.082031 Z M 403.847656 236.96875 C 408.921875 236.96875 413.757812 236.96875 418.832031 236.96875 C 418.003906 246.644531 414.585938 255.96875 416 265.878906 C 416.589844 263.164062 417.296875 260.449219 417.769531 257.738281 C 418.714844 251.484375 419.421875 245.113281 420.246094 238.738281 C 420.484375 237.089844 421.425781 237.207031 422.488281 237.324219 C 432.164062 238.738281 441.605469 241.101562 450.6875 244.992188 C 454.699219 246.761719 458.59375 248.652344 462.722656 250.304688 C 464.140625 250.894531 464.730469 251.71875 464.609375 253.253906 C 464.257812 260.097656 463.902344 267.058594 463.667969 273.902344 C 463.550781 275.671875 463.902344 277.324219 464.140625 279.332031 C 445.023438 271.308594 425.320312 266.234375 403.964844 270.246094 C 407.503906 259.035156 407.742188 248.179688 403.847656 236.96875 Z M 367.625 313.078125 C 364.320312 313.195312 361.960938 312.839844 359.601562 310.007812 C 369.277344 310.363281 376.472656 306.117188 382.492188 298.5625 C 381.074219 304.933594 373.523438 312.839844 367.625 313.078125 Z M 388.507812 273.785156 C 386.503906 275.4375 385.675781 277.441406 385.324219 279.921875 C 384.851562 283.8125 384.023438 287.707031 383.433594 291.128906 C 382.253906 292.546875 381.195312 293.609375 380.484375 294.789062 C 375.765625 303.164062 368.570312 307.296875 358.894531 307.648438 C 358.539062 305.289062 358.1875 303.164062 357.832031 300.921875 C 365.972656 298.09375 373.878906 295.023438 377.300781 286.175781 C 377.0625 285.9375 376.945312 285.820312 376.710938 285.585938 C 375.648438 286.644531 374.585938 287.707031 373.40625 288.535156 C 368.332031 292.191406 362.433594 293.609375 356.414062 294.433594 C 354.882812 294.667969 353.347656 295.023438 351.933594 294.667969 C 347.449219 293.726562 343.910156 289.359375 343.671875 283.933594 C 343.4375 277.558594 342.847656 271.070312 343.792969 264.816406 C 344.734375 258.679688 348.511719 253.84375 355.234375 251.835938 C 354.292969 251.601562 353.585938 251.367188 353.113281 251.246094 C 357.003906 246.644531 361.015625 241.925781 365.027344 237.207031 C 366.5625 244.402344 371.636719 249.714844 376.003906 255.496094 C 378.125 258.328125 380.484375 261.511719 384.496094 262.101562 C 386.03125 262.339844 387.683594 261.867188 389.214844 261.632812 C 390.632812 261.511719 392.519531 260.804688 393.226562 261.511719 C 393.9375 262.222656 393.9375 264.226562 393.699219 265.523438 C 393.109375 268.828125 391.105469 271.542969 388.507812 273.785156 Z M 489.269531 368.769531 C 485.257812 367 480.777344 364.878906 476.054688 363.226562 C 473.34375 362.28125 472.28125 360.867188 471.691406 358.035156 C 469.210938 345.527344 464.019531 334.199219 455.527344 324.523438 C 450.6875 318.976562 445.734375 313.429688 440.304688 308.359375 C 432.753906 301.394531 423.789062 296.441406 413.996094 293.019531 C 407.152344 290.65625 400.191406 288.652344 393.699219 286.644531 C 396.058594 282.988281 398.539062 278.976562 401.371094 275.082031 C 402.078125 274.140625 403.847656 273.667969 405.261719 273.546875 C 408.800781 273.195312 412.460938 272.957031 416.117188 273.078125 C 427.089844 273.195312 437.472656 276.144531 447.621094 280.039062 C 460.480469 284.875 471.925781 292.074219 482.78125 300.214844 C 484.667969 301.632812 486.085938 303.753906 487.382812 305.644531 C 489.152344 308.359375 491.628906 308.949219 493.398438 305.289062 C 494.933594 302.105469 498 300.453125 502.25 301.277344 C 501.1875 302.105469 500.125 303.046875 498.945312 303.875 C 495.761719 306.234375 495.289062 308.476562 497.292969 311.660156 C 497.765625 312.371094 498.121094 313.3125 498.121094 314.140625 C 498 320.628906 498 327.117188 497.648438 333.609375 C 497.175781 340.214844 495.640625 346.589844 493.519531 352.960938 C 491.867188 358.269531 490.6875 363.699219 489.269531 368.769531 Z M 550.980469 342.695312 C 550.859375 349.066406 550.625 355.4375 550.507812 361.808594 C 550.152344 377.265625 549.800781 392.722656 549.5625 408.183594 C 549.445312 416.675781 549.210938 425.054688 549.089844 433.550781 C 548.972656 442.992188 548.738281 452.429688 548.617188 461.871094 C 548.5 473.199219 548.617188 484.644531 548.617188 495.5 C 540.949219 498.683594 533.988281 501.753906 526.792969 504.820312 C 527.027344 501.28125 527.027344 498.09375 527.382812 494.789062 C 527.734375 490.425781 528.5625 486.058594 528.679688 481.691406 C 529.03125 471.425781 529.386719 461.042969 529.152344 450.777344 C 528.914062 442.871094 527.851562 435.085938 526.792969 427.296875 C 525.964844 421.28125 525.019531 415.261719 523.605469 409.363281 C 521.128906 398.976562 515.226562 390.71875 507.558594 383.402344 C 504.019531 380.097656 500.242188 376.914062 496.703125 373.726562 C 497.410156 372.429688 498.238281 370.894531 499.0625 369.359375 C 510.273438 374.433594 520.539062 381.042969 528.796875 390.363281 C 531.746094 393.667969 533.871094 397.679688 536.113281 401.574219 C 538.355469 405.46875 540.359375 409.597656 542.484375 413.609375 C 542.835938 414.199219 543.308594 414.789062 543.664062 415.378906 C 543.898438 415.378906 544.136719 415.261719 544.371094 415.261719 C 544.371094 414.554688 544.609375 413.726562 544.371094 413.136719 C 540.714844 404.878906 538 396.265625 532.574219 388.832031 C 526.910156 381.042969 519.476562 375.261719 511.570312 370.070312 C 507.914062 367.589844 503.902344 365.585938 500.125 363.34375 C 505.316406 346.46875 506.261719 329.359375 501.777344 312.132812 C 503.429688 309.65625 505.316406 307.175781 506.851562 304.464844 C 507.796875 302.695312 508.855469 300.6875 507.324219 298.683594 C 505.554688 296.320312 503.074219 296.558594 500.714844 297.148438 C 499.0625 297.5 497.410156 298.328125 496.46875 298.800781 C 491.867188 295.613281 487.617188 292.429688 483.136719 289.832031 C 478.0625 286.765625 472.632812 284.167969 467.324219 281.453125 C 466.261719 280.863281 465.910156 280.390625 466.261719 279.09375 C 466.734375 277.207031 466.851562 275.199219 466.972656 273.195312 C 467.207031 269.300781 467.441406 265.289062 467.441406 261.394531 C 467.441406 258.800781 467.089844 256.203125 466.734375 252.78125 C 473.34375 256.203125 479.597656 258.917969 485.257812 262.457031 C 498.945312 271.070312 512.515625 280.15625 526.082031 289.125 C 527.382812 289.949219 527.734375 291.011719 527.734375 292.546875 C 527.5 297.382812 527.5 302.222656 527.734375 307.058594 C 527.972656 314.730469 526.4375 322.164062 525.140625 329.597656 C 524.667969 331.957031 524.3125 334.316406 523.839844 336.675781 C 523.371094 339.746094 524.550781 341.984375 527.144531 343.519531 C 525.492188 345.761719 523.839844 347.886719 522.191406 350.128906 C 520.773438 352.132812 521.007812 354.023438 522.78125 355.792969 C 524.667969 357.679688 523.722656 359.921875 523.722656 362.046875 C 523.722656 365.46875 523.371094 368.769531 523.371094 372.191406 C 523.371094 373.019531 523.839844 374.082031 524.429688 374.789062 C 524.902344 375.378906 525.847656 375.851562 526.554688 375.851562 C 527.027344 375.851562 527.734375 374.90625 527.972656 374.316406 C 528.324219 373.492188 528.441406 372.664062 528.441406 371.722656 C 528.441406 367 528.5625 362.398438 528.441406 357.679688 C 528.441406 356.5 528.207031 355.082031 527.5 354.375 C 525.964844 352.722656 526.910156 351.660156 527.734375 350.363281 C 528.5625 349.300781 529.503906 348.238281 530.332031 347.179688 C 532.335938 344.816406 531.746094 341.75 529.152344 339.980469 C 528.5625 339.625 527.972656 338.5625 528.089844 337.972656 C 528.679688 333.371094 529.269531 328.769531 530.09375 324.285156 C 531.511719 316.5 531.863281 308.710938 530.921875 300.804688 C 530.683594 298.210938 530.566406 295.613281 530.332031 292.308594 C 534.222656 295.613281 537.527344 298.5625 540.949219 301.394531 C 544.015625 303.992188 547.203125 306.46875 550.152344 309.066406 C 550.980469 309.773438 551.6875 310.953125 551.6875 311.898438 C 551.332031 321.808594 551.097656 332.191406 550.980469 342.695312 Z M 488.679688 343.757812 C 489.390625 338.09375 490.097656 332.308594 490.804688 326.648438 C 491.039062 324.996094 491.277344 323.34375 491.277344 321.691406 C 491.277344 320.984375 490.449219 320.394531 490.097656 319.683594 C 489.507812 320.273438 488.679688 320.746094 488.207031 321.453125 C 487.855469 322.164062 487.972656 323.105469 487.855469 324.050781 C 487.265625 328.417969 486.558594 332.902344 486.203125 337.265625 C 486.085938 339.390625 486.792969 341.632812 487.148438 343.875 C 487.738281 343.875 488.207031 343.875 488.679688 343.757812 Z M 356.886719 267.648438 C 354.882812 271.425781 352.875 275.199219 351.105469 279.210938 C 350.398438 280.980469 352.757812 283.105469 354.175781 282.042969 C 356.652344 280.15625 358.777344 277.914062 361.136719 275.789062 C 360.898438 275.554688 360.78125 275.199219 360.546875 274.964844 C 358.65625 275.4375 356.886719 275.910156 354.882812 276.5 C 355.945312 273.546875 357.003906 270.597656 358.1875 267.292969 C 357.476562 267.53125 357.003906 267.53125 356.886719 267.648438 Z M 376.472656 260.097656 C 374.941406 261.277344 373.289062 262.339844 372.109375 263.753906 C 370.339844 265.761719 368.570312 266.46875 366.207031 264.933594 C 365.855469 264.699219 365.265625 264.699219 364.675781 264.582031 C 365.027344 266.703125 367.390625 268.59375 369.75 268.710938 C 372.460938 268.945312 375.765625 265.40625 377.0625 260.6875 C 376.710938 260.449219 376.59375 260.332031 376.472656 260.097656 Z M 346.859375 263.28125 C 347.566406 265.523438 349.453125 266.585938 350.988281 265.40625 C 353.347656 263.753906 355.234375 261.632812 357.359375 259.742188 C 357.242188 259.507812 357.003906 259.269531 356.886719 259.152344 C 354.527344 260.449219 352.167969 261.867188 349.691406 263.28125 C 349.574219 262.101562 349.453125 261.277344 349.335938 260.214844 C 347.09375 260.449219 346.269531 261.394531 346.859375 263.28125 Z M 368.097656 279.210938 C 367.152344 279.449219 366.089844 279.566406 365.265625 279.921875 C 363.257812 281.101562 361.253906 282.398438 359.246094 283.695312 C 358.894531 283.933594 358.65625 284.523438 358.421875 284.875 C 358.894531 285.113281 359.484375 285.703125 359.835938 285.585938 C 363.257812 284.640625 366.5625 283.34375 368.332031 279.921875 C 368.214844 279.683594 368.214844 279.449219 368.097656 279.210938 Z M 372.109375 257.738281 C 372.582031 257.855469 373.761719 257.382812 373.761719 257.148438 C 373.878906 256.4375 373.640625 255.023438 373.289062 255.023438 C 371.046875 254.550781 368.804688 254.199219 366.5625 254.078125 C 366.207031 254.078125 365.738281 254.789062 365.617188 254.90625 C 367.980469 255.96875 369.984375 256.910156 372.109375 257.738281 Z M 372.109375 257.738281 "/>
</g>
</g>
</svg>
