<?xml version="1.0" encoding="UTF-8"?>
<svg xmlns="http://www.w3.org/2000/svg" xmlns:xlink="http://www.w3.org/1999/xlink" width="595.5pt" height="842.249979pt" viewBox="0 0 595.5 842.249979" version="1.2">
<defs>
<clipPath id="clip1">
  <path d="M 154 594 L 274 594 L 274 711.863281 L 154 711.863281 Z M 154 594 "/>
</clipPath>
<clipPath id="clip2">
  <path d="M 396.144531 263.582031 L 550.234375 263.582031 L 550.234375 425.3125 L 396.144531 425.3125 Z M 396.144531 263.582031 "/>
</clipPath>
</defs>
<g id="surface1">
<path style=" stroke:none;fill-rule:nonzero;fill:rgb(54.508972%,7.058716%,45.878601%);fill-opacity:1;" d="M 201.164062 602.671875 C 201.164062 611.136719 194.582031 618.519531 185.722656 619.054688 C 173.953125 619.78125 162.410156 622.628906 151.65625 627.464844 L 90.980469 654.777344 C 86.464844 656.8125 81.757812 653.347656 81.757812 648.867188 C 81.757812 648.164062 81.875 647.421875 82.132812 646.675781 C 87.21875 612.933594 136.199219 609.671875 133.5 576.414062 L 133.5 576.394531 C 133.339844 574.515625 133.015625 572.53125 132.519531 570.441406 L 131.082031 561.707031 L 129.921875 548.414062 L 164.375 542.101562 L 187.179688 537.925781 L 200.777344 599.070312 C 201.054688 600.285156 201.164062 601.484375 201.164062 602.671875 "/>
<path style=" stroke:none;fill-rule:nonzero;fill:rgb(90.19928%,58.039856%,7.449341%);fill-opacity:1;" d="M 177.816406 566.085938 C 174.988281 564.808594 163.648438 560.050781 150.285156 564.339844 C 140.671875 567.433594 135.792969 573.628906 133.5 576.414062 L 133.5 576.394531 L 132.519531 570.441406 L 131.082031 561.707031 L 112.347656 447.632812 C 129.910156 478.476562 146.996094 510.695312 164.375 542.101562 C 168.824219 550.160156 173.300781 558.167969 177.816406 566.085938 "/>
<path style=" stroke:none;fill-rule:nonzero;fill:rgb(93.328857%,81.568909%,77.648926%);fill-opacity:1;" d="M 157.894531 329.640625 C 147.539062 308.964844 161.179688 284.75 161.179688 284.75 C 162.351562 283.117188 160.730469 280.949219 158.835938 281.609375 L 158.734375 281.648438 C 154.027344 283.3125 150.386719 287.113281 148.941406 291.886719 L 147.410156 296.921875 C 147.257812 297.414062 146.558594 297.425781 146.398438 296.9375 L 136.648438 267.679688 C 135.09375 263.164062 132.40625 259.117188 128.855469 255.921875 C 127.679688 254.863281 125.796875 255.582031 125.625 257.15625 C 125.160156 261.339844 125.726562 265.570312 127.261719 269.488281 L 137.253906 295.046875 L 124.457031 270.507812 C 121.898438 265.09375 118.515625 260.109375 114.429688 255.730469 L 114.273438 255.566406 C 113.097656 254.300781 110.984375 255 110.789062 256.71875 C 111.324219 262.3125 112.613281 267.808594 114.613281 273.0625 L 123.195312 295.636719 L 113.480469 276.527344 C 111.722656 273.066406 109.398438 269.921875 106.609375 267.222656 L 106.402344 267.019531 C 105.5 266.144531 103.980469 266.699219 103.851562 267.953125 C 103.375 272.734375 104.25 277.554688 106.386719 281.867188 L 114.027344 297.277344 L 108.429688 287.671875 C 106.675781 284.667969 104.527344 281.90625 102.039062 279.476562 C 101.230469 278.679688 99.863281 279.164062 99.734375 280.296875 C 99.328125 283.933594 99.707031 287.617188 100.847656 291.101562 L 105.003906 303.8125 C 107.207031 311.621094 111.289062 318.765625 116.894531 324.632812 C 119.199219 327.042969 120.839844 330 121.667969 333.230469 L 133.511719 379.523438 L 144 364.421875 C 148.464844 357.996094 154.214844 352.5625 160.878906 348.464844 L 166.507812 345 C 166.339844 344.308594 162.132812 336.957031 157.894531 329.640625 "/>
<path style=" stroke:none;fill-rule:nonzero;fill:rgb(54.508972%,7.058716%,45.878601%);fill-opacity:1;" d="M 286.96875 344.476562 C 289.074219 360.253906 256.527344 397.71875 250.707031 403.863281 C 250.539062 404.070312 250.238281 404.132812 249.910156 404.132812 C 249.804688 404.132812 249.738281 404.132812 249.636719 404.097656 C 249.074219 404.070312 248.582031 403.863281 248.582031 403.863281 C 213.574219 442.480469 157.863281 390.519531 144.726562 385 C 127.582031 377.816406 121.667969 333.230469 121.667969 333.230469 C 124.058594 334.394531 132.65625 338.210938 143.109375 335.4375 C 157.347656 331.667969 163.066406 318.859375 163.765625 317.214844 C 212.789062 355.023438 237.042969 356.902344 250.09375 349.785156 C 261.261719 343.691406 280.175781 322.304688 280.175781 322.304688 L 289.035156 313.566406 L 286.96875 344.476562 "/>
<path style=" stroke:none;fill-rule:nonzero;fill:rgb(54.508972%,7.058716%,45.878601%);fill-opacity:1;" d="M 289.234375 310.65625 L 289.035156 313.566406 L 280.175781 322.304688 Z M 289.234375 310.65625 "/>
<g clip-path="url(#clip1)" clip-rule="nonzero">
<path style=" stroke:none;fill-rule:nonzero;fill:rgb(54.508972%,7.058716%,45.878601%);fill-opacity:1;" d="M 200.402344 608.039062 L 203.953125 623.558594 C 213.871094 664.117188 158.113281 659.550781 154.535156 703.253906 C 152.644531 708.671875 158.152344 713.710938 163.382812 711.355469 L 224.058594 684.046875 C 234.816406 679.203125 246.359375 676.355469 258.132812 675.636719 C 268.226562 675.019531 275.382812 665.523438 273.183594 655.648438 L 259.589844 594.507812 L 200.402344 608.039062 "/>
</g>
<path style=" stroke:none;fill-rule:nonzero;fill:rgb(100%,63.919067%,7.449341%);fill-opacity:1;" d="M 399.941406 550.695312 C 399.941406 550.695312 353.726562 587.535156 245.476562 529.929688 L 265.148438 619.507812 C 262.550781 617.449219 250.277344 608.195312 232.695312 609.769531 C 216.460938 611.226562 206.464844 620.957031 203.953125 623.558594 C 175.984375 581.589844 78.316406 430.878906 116.804688 392.265625 C 120.246094 388.8125 124.789062 386.269531 130.578125 384.800781 C 206.457031 365.570312 372.097656 446.84375 401.242188 535.746094 C 402.316406 539.023438 399.238281 547.414062 399.941406 550.695312 "/>
<path style=" stroke:none;fill-rule:nonzero;fill:rgb(78.42865%,34.899902%,70.588684%);fill-opacity:1;" d="M 409.820312 523.464844 C 408.75 528.472656 407.210938 533.363281 405.261719 538.085938 C 402.445312 544.96875 399.941406 550.695312 399.941406 550.695312 C 399.941406 550.695312 399.929688 550.722656 399.886719 550.773438 C 393.144531 526.230469 346.101562 481.910156 320.152344 469.269531 C 295.691406 457.347656 257.984375 426.007812 249.636719 404.097656 C 249.738281 404.132812 249.804688 404.132812 249.910156 404.132812 C 250.238281 404.132812 250.539062 404.070312 250.707031 403.863281 C 256.527344 397.71875 289.074219 360.253906 286.96875 344.476562 L 289.035156 313.566406 L 330.5625 272.582031 C 436.015625 329.929688 423.359375 460.113281 409.820312 523.464844 "/>
<path style=" stroke:none;fill-rule:nonzero;fill:rgb(78.42865%,34.899902%,70.588684%);fill-opacity:1;" d="M 158.113281 457.386719 L 166.507812 502.753906 C 166.507812 502.753906 375.007812 422.742188 357.554688 356.269531 C 347.738281 318.878906 327.398438 317.6875 311.484375 323.800781 C 299.210938 328.515625 289.726562 338.449219 284.476562 350.503906 C 274.195312 374.128906 214.898438 433.183594 158.113281 457.386719 "/>
<path style=" stroke:none;fill-rule:nonzero;fill:rgb(78.42865%,34.899902%,70.588684%);fill-opacity:1;" d="M 372.261719 226.628906 C 380.761719 237.03125 377.96875 252.101562 366.824219 256.269531 C 336.367188 267.652344 302.667969 282.726562 267.457031 302.855469 C 230.195312 324.164062 198.617188 346.921875 172.371094 368.574219 C 163.132812 376.195312 148.472656 371.078125 143.808594 358.386719 C 137.308594 340.710938 128.238281 320.378906 115.476562 298.9375 C 104.765625 280.9375 93.542969 265.679688 83.003906 253.035156 C 74.269531 242.554688 76.914062 227.097656 88.300781 223.015625 C 119.152344 211.964844 153.816406 196.828125 190.097656 175.863281 C 226.667969 154.734375 257.289062 132.070312 282.382812 110.714844 C 291.496094 102.953125 306.105469 108.152344 310.933594 120.765625 C 317.113281 136.925781 325.324219 155.09375 336.277344 174.253906 C 348.125 194.972656 360.636719 212.390625 372.261719 226.628906 "/>
<g clip-path="url(#clip2)" clip-rule="nonzero">
<path style=" stroke:none;fill-rule:nonzero;fill:rgb(78.42865%,34.899902%,70.588684%);fill-opacity:1;" d="M 497.652344 265.464844 C 506.734375 261.664062 516.4375 264.304688 516.753906 270.625 C 517.621094 287.898438 520.273438 307.195312 526.058594 327.6875 C 532.179688 349.378906 540.597656 368.109375 549.472656 383.878906 C 552.59375 389.433594 545.730469 396.957031 535.957031 398.515625 C 522.34375 400.691406 506.316406 404.054688 488.695312 409.328125 C 473.894531 413.75 460.863281 418.65625 449.777344 423.390625 C 440.589844 427.308594 430.585938 424.726562 430.382812 418.28125 C 429.835938 400.820312 427.355469 380.996094 421.246094 359.863281 C 415.089844 338.5625 406.523438 320.351562 397.589844 305.21875 C 394.34375 299.726562 401.242188 292.238281 411 290.582031 C 423.503906 288.464844 437.847656 285.402344 453.492188 280.9375 C 470.417969 276.101562 485.226562 270.667969 497.652344 265.464844 "/>
</g>
<path style="fill:none;stroke-width:20;stroke-linecap:round;stroke-linejoin:miter;stroke:rgb(8.628845%,14.118958%,10.978699%);stroke-opacity:1;stroke-miterlimit:10;" d="M 746.286674 3621.515119 C 746.286674 3621.515119 874.6757 3458.200822 1073.786479 3560.118767 " transform="matrix(0.130463,0,0,-0.130428,77.81699,711.952978)"/>
<path style="fill:none;stroke-width:20;stroke-linecap:round;stroke-linejoin:miter;stroke:rgb(8.628845%,14.118958%,10.978699%);stroke-opacity:1;stroke-miterlimit:10;" d="M 3005.969454 3013.84098 C 3005.969454 3013.84098 3009.382782 2806.141613 3229.572356 2766.758099 " transform="matrix(0.130463,0,0,-0.130428,77.81699,711.952978)"/>
<path style="fill:none;stroke-width:20;stroke-linecap:round;stroke-linejoin:miter;stroke:rgb(8.628845%,14.118958%,10.978699%);stroke-opacity:1;stroke-miterlimit:10;" d="M 2944.948737 2890.898528 C 2944.948737 2890.898528 2947.64347 2727.464433 3120.944701 2696.496712 " transform="matrix(0.130463,0,0,-0.130428,77.81699,711.952978)"/>
<path style="fill:none;stroke-width:20;stroke-linecap:round;stroke-linejoin:miter;stroke:rgb(8.628845%,14.118958%,10.978699%);stroke-opacity:1;stroke-miterlimit:10;" d="M 1622.104628 4033.469667 C 1622.104628 4033.469667 1624.410122 3825.740351 1405.418206 3780.366949 " transform="matrix(0.130463,0,0,-0.130428,77.81699,711.952978)"/>
<path style="fill:none;stroke-width:20;stroke-linecap:round;stroke-linejoin:miter;stroke:rgb(8.628845%,14.118958%,10.978699%);stroke-opacity:1;stroke-miterlimit:10;" d="M 1123.519261 3383.95616 C 1123.519261 3383.95616 933.869987 3299.139346 984.291423 3081.22722 " transform="matrix(0.130463,0,0,-0.130428,77.81699,711.952978)"/>
<path style=" stroke:none;fill-rule:nonzero;fill:rgb(54.508972%,7.058716%,45.878601%);fill-opacity:1;" d="M 284.519531 207.214844 C 284.519531 207.214844 314.5625 194.792969 333.25 209.773438 C 345.730469 219.773438 364.324219 215.636719 374.167969 212.355469 C 376.226562 211.667969 377.921875 214.046875 376.609375 215.769531 C 365.191406 230.75 331.863281 266.378906 292.3125 234.542969 C 259.296875 207.976562 284.519531 207.214844 284.519531 207.214844 "/>
<path style=" stroke:none;fill-rule:nonzero;fill:rgb(93.328857%,81.568909%,77.648926%);fill-opacity:1;" d="M 324.972656 297.808594 L 286.976562 344.472656 C 287.488281 342.640625 291.226562 328.375 282.058594 315.875 C 275.316406 306.683594 265.75 304.097656 263.003906 303.457031 C 258 303.523438 222.253906 303.753906 206.058594 280.128906 C 203.230469 276.007812 201.003906 271.621094 199.441406 267.101562 C 194.488281 253.207031 195.351562 238.054688 201.371094 224.957031 C 203.597656 220.105469 206.523438 215.550781 210.179688 211.429688 C 210.179688 211.398438 210.179688 211.398438 210.179688 211.398438 C 213.171875 207.9375 216.664062 204.816406 220.617188 202.125 C 241.328125 187.933594 268.191406 189.5625 286.976562 204.285156 C 287.078125 204.351562 287.136719 204.417969 287.242188 204.484375 C 287.871094 203.75 288.601562 203.089844 289.433594 202.488281 C 294.65625 198.929688 301.734375 200.261719 305.292969 205.449219 C 308.847656 210.664062 307.554688 217.746094 302.335938 221.304688 C 302.234375 221.398438 302.101562 221.464844 301.96875 221.53125 L 319.453125 251.347656 L 327.5 265.074219 C 333.585938 275.441406 332.585938 288.503906 324.972656 297.808594 "/>
<path style="fill:none;stroke-width:20;stroke-linecap:round;stroke-linejoin:miter;stroke:rgb(8.628845%,14.118958%,10.978699%);stroke-opacity:1;stroke-miterlimit:10;" d="M 1313.348184 3601.808387 C 1331.822072 3574.853891 1373.32095 3571.140161 1405.987094 3593.512392 C 1438.593356 3615.914574 1450.120822 3655.956975 1431.587052 3682.881522 " transform="matrix(0.130463,0,0,-0.130428,77.81699,711.952978)"/>
<path style="fill:none;stroke-width:20;stroke-linecap:round;stroke-linejoin:miter;stroke:rgb(8.628845%,14.118958%,10.978699%);stroke-opacity:1;stroke-miterlimit:10;" d="M 1083.936637 3444.454029 C 1102.470408 3417.499533 1143.909403 3413.785802 1176.575547 3436.217933 C 1209.21175 3458.590165 1220.709275 3498.602617 1202.235387 3525.557113 " transform="matrix(0.130463,0,0,-0.130428,77.81699,711.952978)"/>
<path style="fill:none;stroke-width:20;stroke-linecap:round;stroke-linejoin:miter;stroke:rgb(8.628845%,14.118958%,10.978699%);stroke-opacity:1;stroke-miterlimit:10;" d="M 1282.748002 3531.6069 L 1306.162232 3462.57344 C 1308.587491 3455.445474 1313.857189 3449.575383 1320.743728 3446.400743 L 1340.894337 3437.206265 " transform="matrix(0.130463,0,0,-0.130428,77.81699,711.952978)"/>
<path style="fill:none;stroke-width:20;stroke-linecap:round;stroke-linejoin:miter;stroke:rgb(8.628845%,14.118958%,10.978699%);stroke-opacity:1;stroke-miterlimit:10;" d="M 1456.887594 3357.690501 C 1456.887594 3335.617764 1438.982595 3317.707999 1416.88579 3317.707999 C 1394.818926 3317.707999 1376.913926 3335.617764 1376.913926 3357.690501 C 1376.913926 3379.823137 1394.818926 3397.702953 1416.88579 3397.702953 C 1438.982595 3397.702953 1456.887594 3379.823137 1456.887594 3357.690501 Z M 1456.887594 3357.690501 " transform="matrix(0.130463,0,0,-0.130428,77.81699,711.952978)"/>
<path style=" stroke:none;fill-rule:nonzero;fill:rgb(54.508972%,7.058716%,45.878601%);fill-opacity:1;" d="M 286.976562 204.285156 C 261.472656 237.355469 201.371094 224.957031 201.371094 224.957031 C 205.460938 216.050781 211.945312 208.070312 220.617188 202.125 C 241.328125 187.933594 268.191406 189.5625 286.976562 204.285156 "/>
<path style=" stroke:none;fill-rule:nonzero;fill:rgb(100%,63.919067%,7.449341%);fill-opacity:1;" d="M 286.976562 344.472656 C 287.175781 340.574219 287.136719 331.066406 281.488281 321.015625 C 275.414062 310.214844 266.457031 305.179688 263.003906 303.457031 C 269.429688 300.894531 276.804688 297.199219 284.421875 291.933594 C 296.265625 283.75 310.382812 270.722656 319.453125 251.347656 L 327.5 265.074219 C 332.25 273.171875 336.195312 282.59375 329.066406 295.203125 C 319.183594 312.679688 288.183594 345.789062 286.976562 344.472656 "/>
<path style=" stroke:none;fill-rule:nonzero;fill:rgb(54.508972%,7.058716%,45.878601%);fill-opacity:1;" d="M 241.1875 281.917969 C 241.1875 283.398438 239.984375 284.601562 238.5 284.601562 C 237.015625 284.601562 235.816406 283.398438 235.816406 281.917969 C 235.816406 280.433594 237.015625 279.230469 238.5 279.230469 C 239.984375 279.230469 241.1875 280.433594 241.1875 281.917969 "/>
<path style=" stroke:none;fill-rule:nonzero;fill:rgb(54.508972%,7.058716%,45.878601%);fill-opacity:1;" d="M 277.992188 247.367188 C 277.992188 248.851562 276.789062 250.054688 275.304688 250.054688 C 273.820312 250.054688 272.621094 248.851562 272.621094 247.367188 C 272.621094 245.886719 273.820312 244.683594 275.304688 244.683594 C 276.789062 244.683594 277.992188 245.886719 277.992188 247.367188 "/>
<path style=" stroke:none;fill-rule:nonzero;fill:rgb(54.508972%,7.058716%,45.878601%);fill-opacity:1;" d="M 287.386719 242.289062 C 287.386719 243.769531 286.1875 244.972656 284.703125 244.972656 C 283.21875 244.972656 282.015625 243.769531 282.015625 242.289062 C 282.015625 240.804688 283.21875 239.605469 284.703125 239.605469 C 286.1875 239.605469 287.386719 240.804688 287.386719 242.289062 "/>
<path style=" stroke:none;fill-rule:nonzero;fill:rgb(54.508972%,7.058716%,45.878601%);fill-opacity:1;" d="M 238.5 274.015625 C 238.5 275.496094 237.296875 276.699219 235.816406 276.699219 C 234.332031 276.699219 233.128906 275.496094 233.128906 274.015625 C 233.128906 272.53125 234.332031 271.328125 235.816406 271.328125 C 237.296875 271.328125 238.5 272.53125 238.5 274.015625 "/>
<path style=" stroke:none;fill-rule:nonzero;fill:rgb(54.508972%,7.058716%,45.878601%);fill-opacity:1;" d="M 287.386719 252.121094 C 287.386719 253.605469 286.1875 254.808594 284.703125 254.808594 C 283.21875 254.808594 282.015625 253.605469 282.015625 252.121094 C 282.015625 250.632812 283.21875 249.433594 284.703125 249.433594 C 286.1875 249.433594 287.386719 250.632812 287.386719 252.121094 "/>
<path style=" stroke:none;fill-rule:nonzero;fill:rgb(54.508972%,7.058716%,45.878601%);fill-opacity:1;" d="M 230.207031 281.917969 C 230.207031 283.398438 229.007812 284.601562 227.523438 284.601562 C 226.039062 284.601562 224.835938 283.398438 224.835938 281.917969 C 224.835938 280.433594 226.039062 279.230469 227.523438 279.230469 C 229.007812 279.230469 230.207031 280.433594 230.207031 281.917969 "/>
<path style=" stroke:none;fill-rule:nonzero;fill:rgb(54.508972%,7.058716%,45.878601%);fill-opacity:1;" d="M 199.441406 267.101562 C 194.488281 253.207031 195.351562 238.054688 201.371094 224.957031 C 203.597656 220.105469 206.523438 215.550781 210.179688 211.429688 C 210.480469 212.925781 218.324219 252.308594 199.441406 267.101562 "/>
<path style=" stroke:none;fill-rule:nonzero;fill:rgb(93.328857%,81.568909%,77.648926%);fill-opacity:1;" d="M 153.382812 460.8125 C 122.234375 454.664062 110.003906 447.71875 117.164062 457.117188 C 125.691406 468.3125 139.847656 465.300781 140.480469 462.394531 L 153.382812 460.8125 "/>
<path style=" stroke:none;fill-rule:nonzero;fill:rgb(93.328857%,81.568909%,77.648926%);fill-opacity:1;" d="M 172.136719 473.691406 C 167.402344 462.214844 159.273438 457.636719 158.113281 457.386719 C 158.121094 458.5 134.925781 460.496094 121.5625 465.117188 C 121.28125 465.097656 111.367188 468.664062 111.367188 473.082031 C 111.367188 476.480469 113.855469 479.355469 117.351562 480.519531 C 116.320312 481.800781 115.710938 483.355469 115.710938 485.039062 C 115.710938 488.777344 118.71875 491.910156 122.777344 492.789062 C 122.777344 492.867188 122.761719 492.957031 122.761719 493.035156 C 122.761719 496.183594 124.890625 498.902344 127.980469 500.207031 C 128.390625 500.484375 128.785156 500.636719 129.167969 500.714844 C 128.957031 501.367188 128.851562 502.050781 128.851562 502.753906 C 128.851562 505.464844 130.808594 507.496094 133.507812 508.671875 L 133.523438 508.671875 C 134.972656 510.28125 150.625 506.492188 153.21875 505.882812 L 166.507812 502.753906 C 176.929688 495.277344 176.417969 484.050781 172.136719 473.691406 "/>
</g>
</svg>
