<?xml version="1.0" encoding="UTF-8"?>
<svg xmlns="http://www.w3.org/2000/svg" xmlns:xlink="http://www.w3.org/1999/xlink" width="595.5pt" height="842.249979pt" viewBox="0 0 595.5 842.249979" version="1.2">
<defs>
<clipPath id="clip1">
  <path d="M 67.464844 234.632812 L 496 234.632812 L 496 745.527344 L 67.464844 745.527344 Z M 67.464844 234.632812 "/>
</clipPath>
<clipPath id="clip2">
  <path d="M 119 228.097656 L 460 228.097656 L 460 733 L 119 733 Z M 119 228.097656 "/>
</clipPath>
<clipPath id="clip3">
  <path d="M 103 228.097656 L 526 228.097656 L 526 734 L 103 734 Z M 103 228.097656 "/>
</clipPath>
<clipPath id="clip4">
  <path d="M 299 76 L 394 76 L 394 225 L 299 225 Z M 299 76 "/>
</clipPath>
<clipPath id="clip5">
  <path d="M 327.789062 74.480469 L 399.585938 90.179688 L 369.46875 227.917969 L 297.671875 212.21875 Z M 327.789062 74.480469 "/>
</clipPath>
<clipPath id="clip6">
  <path d="M 327.789062 74.480469 L 399.585938 90.179688 L 369.46875 227.917969 L 297.671875 212.21875 Z M 327.789062 74.480469 "/>
</clipPath>
<clipPath id="clip7">
  <path d="M 305 88 L 389 88 L 389 215 L 305 215 Z M 305 88 "/>
</clipPath>
<clipPath id="clip8">
  <path d="M 327.789062 74.480469 L 399.585938 90.179688 L 369.46875 227.917969 L 297.671875 212.21875 Z M 327.789062 74.480469 "/>
</clipPath>
<clipPath id="clip9">
  <path d="M 327.789062 74.480469 L 399.585938 90.179688 L 369.46875 227.917969 L 297.671875 212.21875 Z M 327.789062 74.480469 "/>
</clipPath>
<clipPath id="clip10">
  <path d="M 303 79 L 397 79 L 397 226 L 303 226 Z M 303 79 "/>
</clipPath>
<clipPath id="clip11">
  <path d="M 327.789062 74.480469 L 399.585938 90.179688 L 369.46875 227.917969 L 297.671875 212.21875 Z M 327.789062 74.480469 "/>
</clipPath>
<clipPath id="clip12">
  <path d="M 327.789062 74.480469 L 399.585938 90.179688 L 369.46875 227.917969 L 297.671875 212.21875 Z M 327.789062 74.480469 "/>
</clipPath>
</defs>
<g id="surface1">
<path style=" stroke:none;fill-rule:nonzero;fill:rgb(100%,99.609375%,94.898987%);fill-opacity:1;" d="M 457.15625 335.160156 L 422.980469 329.3125 L 417.582031 316.175781 C 417.582031 316.175781 408.898438 316.523438 397.039062 316.996094 C 385.179688 317.464844 383.960938 313.488281 384.625 303.503906 C 385.28125 293.515625 385.28125 293.515625 385.28125 293.515625 L 377.101562 290.449219 C 377.101562 290.449219 382.929688 287.675781 387.785156 276.457031 C 392.640625 265.246094 392.359375 247.453125 411.15625 240.136719 C 429.953125 232.816406 457.375 244.867188 460.511719 265.089844 C 463.652344 285.3125 444.929688 305.128906 444.929688 305.128906 Z M 107.832031 287.085938 L 287.984375 287.390625 C 289.945312 287.394531 291.617188 288.8125 291.933594 290.746094 L 312.382812 414.144531 C 312.707031 416.085938 311.207031 417.847656 309.242188 417.847656 L 125.417969 417.847656 C 123.839844 417.847656 122.496094 416.695312 122.265625 415.132812 L 103.855469 291.683594 C 103.492188 289.261719 105.378906 287.082031 107.832031 287.085938 Z M 206 581.617188 L 186.289062 607.664062 L 211.085938 622.28125 L 222.53125 687.078125 L 273.402344 687.078125 L 260.679688 603.855469 L 281.027344 582.257812 C 281.027344 582.257812 364.960938 635.617188 443.167969 635.617188 C 521.378906 635.617188 525.191406 569.546875 525.191406 569.546875 L 417.738281 495.851562 L 276.578125 488.226562 L 255.597656 516.183594 C 255.597656 516.183594 235.886719 510.464844 217.445312 528.886719 C 199.003906 547.3125 206 581.617188 206 581.617188 "/>
<g clip-path="url(#clip1)" clip-rule="nonzero">
<path style=" stroke:none;fill-rule:nonzero;fill:rgb(18.03894%,21.569824%,49.798584%);fill-opacity:1;" d="M 391.242188 277.515625 C 391.945312 277.515625 392.515625 278.089844 392.515625 278.789062 C 392.515625 279.488281 391.945312 280.058594 391.242188 280.058594 C 390.539062 280.058594 389.96875 279.488281 389.96875 278.789062 C 389.96875 278.089844 390.539062 277.515625 391.242188 277.515625 Z M 95.679688 653.089844 C 107.761719 651.34375 145.117188 648.007812 145.117188 648.007812 L 177.230469 656.265625 L 177.703125 660.398438 C 177.703125 660.398438 175.640625 662.777344 172.933594 665.796875 C 170.234375 668.8125 161.96875 668.972656 154.335938 668.972656 C 146.707031 668.972656 143.207031 668.972656 123.820312 668.972656 C 104.425781 668.972656 83.601562 654.839844 95.679688 653.089844 Z M 208.859375 732.1875 L 256.234375 732.1875 C 256.234375 732.1875 260.207031 745.527344 251.144531 745.527344 L 185.402344 745.527344 C 183.96875 745.527344 183.203125 743.820312 184.171875 742.761719 C 193.128906 732.992188 208.859375 732.1875 208.859375 732.1875 Z M 455.921875 240.265625 C 469.273438 245.457031 474.863281 257.945312 473.304688 266.699219 C 471.742188 275.449219 476.476562 282.46875 485.3125 285.933594 C 494.148438 289.394531 499.109375 302.125 492.847656 310.007812 C 486.585938 317.882812 480.496094 319.398438 462.925781 320.308594 C 445.355469 321.21875 437.285156 315.605469 436.09375 306.964844 C 434.898438 298.324219 433.328125 290.757812 433.328125 290.757812 C 433.328125 290.757812 427.296875 293.75 411.054688 285.496094 C 394.820312 277.242188 396.660156 248.976562 396.660156 248.976562 C 414.28125 228.144531 442.558594 235.070312 455.921875 240.265625 Z M 102.507812 450.292969 C 105.34375 447.949219 115.640625 440.070312 125.035156 440.792969 C 134.289062 441.5 136.363281 448.167969 136.792969 450.292969 L 151.992188 450.292969 L 151.992188 450.113281 C 151.992188 448.078125 153.382812 446.3125 155.359375 445.835938 L 184.109375 440.742188 C 191.457031 438.972656 196.988281 432.910156 198.070312 425.433594 L 199.480469 417.867188 L 212.355469 417.710938 L 213.574219 423.789062 C 214.863281 432.089844 221.417969 438.574219 229.738281 439.769531 L 268.976562 446.527344 C 270.949219 446.8125 272.441406 448.371094 272.699219 450.292969 L 335.648438 450.292969 L 335.648438 456.925781 L 67.339844 456.925781 L 67.339844 450.292969 Z M 124.679688 396.988281 L 305.261719 396.988281 L 288.304688 289.832031 L 107.726562 289.832031 L 124.679688 396.988281 "/>
</g>
<path style=" stroke:none;fill-rule:nonzero;fill:rgb(78.42865%,34.899902%,70.588684%);fill-opacity:1;" d="M 279.757812 476.15625 L 284.84375 501.570312 C 284.84375 501.570312 319.179688 520.628906 357.96875 532.699219 C 396.753906 544.769531 413.921875 512.371094 413.921875 512.371094 L 526.464844 570.816406 C 526.464844 570.816406 527.734375 529.523438 522.648438 501.570312 C 517.566406 473.617188 504.210938 402.460938 499.125 377.050781 C 494.035156 351.636719 486.410156 331.941406 464.152344 331.941406 C 441.898438 331.941406 452.074219 331.941406 405.019531 331.941406 C 357.96875 331.941406 347.792969 369.425781 354.152344 414.53125 C 360.507812 459.640625 363.691406 476.15625 363.691406 476.15625 L 279.757812 476.15625 "/>
<g clip-path="url(#clip2)" clip-rule="nonzero">
<path style=" stroke:none;fill-rule:nonzero;fill:rgb(100%,99.609375%,94.898987%);fill-opacity:1;" d="M 225.921875 463.667969 C 228.039062 462.820312 236.308594 471.289062 236.308594 471.289062 C 236.308594 467.902344 242.453125 468.535156 254.324219 469.804688 C 261.824219 470.609375 267.117188 474.28125 270.003906 476.878906 C 269.90625 476.167969 269.898438 476.15625 269.898438 476.15625 L 279.757812 476.15625 L 284.421875 499.664062 C 284.421875 499.664062 277.09375 496.535156 273.296875 490.757812 C 273.261719 490.761719 273.226562 490.765625 273.191406 490.769531 C 253.6875 492.253906 237.582031 480.398438 231.433594 474.890625 C 225.285156 469.386719 223.800781 464.511719 225.921875 463.667969 Z M 227.304688 716.621094 C 226.015625 703.15625 222.53125 687.078125 222.53125 687.078125 L 251.460938 687.078125 C 251.460938 687.078125 250.984375 699.46875 251.941406 713.125 C 252.894531 726.785156 256.234375 732.1875 256.234375 732.1875 L 208.859375 732.1875 C 208.859375 732.1875 228.574219 729.960938 227.304688 716.621094 Z M 165.625 635.617188 L 186.289062 607.664062 L 216.175781 625.457031 L 177.703125 660.398438 C 165.941406 650.230469 156.722656 654.996094 138.28125 654.679688 C 119.84375 654.363281 119.84375 650.230469 119.84375 650.230469 Z M 334.863281 466.414062 C 348.21875 460.277344 361.148438 461.546875 361.148438 461.546875 L 363.691406 476.371094 L 350.546875 476.371094 C 350.546875 476.371094 335.5 500.9375 330.410156 500.9375 C 325.328125 500.9375 324.6875 494.578125 324.6875 494.578125 C 322.570312 489.5 321.511719 472.558594 334.863281 466.414062 Z M 411.144531 266.636719 C 411.128906 266.289062 411.113281 265.949219 411.109375 265.570312 C 411.007812 247.136719 424.949219 229.628906 430.449219 229.195312 C 435.945312 228.765625 438.273438 228.671875 446.628906 230.671875 C 454.980469 232.667969 455.921875 240.265625 455.921875 240.265625 L 451.617188 238.738281 C 451.617188 238.738281 443.898438 231.417969 435.628906 242.132812 C 427.359375 252.84375 426.859375 266.851562 426.859375 266.851562 L 426.855469 266.855469 C 431.296875 269.492188 434.363281 274.246094 434.585938 279.789062 C 434.929688 288.496094 428.148438 295.835938 419.4375 296.183594 C 410.722656 296.527344 403.378906 289.75 403.027344 281.046875 C 402.785156 274.898438 406.109375 269.4375 411.144531 266.636719 Z M 425.789062 322.199219 C 416.253906 329.402344 412.96875 331.941406 412.96875 331.941406 L 459.542969 332.101562 C 459.542969 332.101562 459.542969 331.941406 455.886719 323.898438 C 451.808594 314.925781 435.328125 315.003906 425.789062 322.199219 "/>
</g>
<g clip-path="url(#clip3)" clip-rule="nonzero">
<path style=" stroke:none;fill-rule:nonzero;fill:rgb(18.03894%,21.569824%,49.798584%);fill-opacity:1;" d="M 309.816406 415.414062 L 128.289062 415.414062 L 128.289062 414.140625 L 309.816406 414.140625 Z M 105.269531 288.890625 C 105.910156 288.148438 106.839844 287.726562 107.820312 287.726562 C 107.824219 287.726562 107.824219 287.726562 107.832031 287.726562 L 287.984375 288.03125 C 289.640625 288.03125 291.039062 289.214844 291.304688 290.847656 L 311.757812 414.246094 C 311.878906 414.988281 311.671875 415.738281 311.1875 416.3125 C 310.699219 416.882812 309.992188 417.214844 309.242188 417.214844 L 125.414062 417.214844 C 124.144531 417.214844 123.082031 416.300781 122.890625 415.039062 L 104.488281 291.59375 C 104.34375 290.621094 104.625 289.636719 105.269531 288.890625 Z M 103.230469 291.777344 L 121.636719 415.226562 C 121.917969 417.113281 123.503906 418.480469 125.414062 418.480469 L 309.242188 418.480469 C 310.367188 418.480469 311.429688 417.992188 312.15625 417.136719 C 312.886719 416.273438 313.195312 415.148438 313.011719 414.042969 L 292.5625 290.640625 C 292.1875 288.390625 290.261719 286.761719 287.988281 286.757812 L 107.832031 286.453125 C 107.832031 286.453125 107.824219 286.453125 107.820312 286.453125 C 106.46875 286.453125 105.191406 287.035156 104.304688 288.0625 C 103.421875 289.085938 103.027344 290.441406 103.230469 291.777344 Z M 459.71875 331.933594 C 459.398438 332.085938 459.019531 331.949219 458.871094 331.632812 L 455.3125 324.167969 C 454.257812 321.960938 452.515625 320.519531 450.6875 319.5625 C 450.644531 319.570312 450.601562 319.589844 450.554688 319.589844 C 450.320312 319.589844 450.105469 319.449219 449.996094 319.230469 C 448.996094 318.777344 448 318.445312 447.09375 318.226562 C 440.425781 316.597656 431.824219 318.441406 426.171875 322.710938 C 420.761719 326.796875 416.304688 330.199219 413.460938 332.378906 C 413.347656 332.46875 413.210938 332.511719 413.074219 332.511719 C 412.886719 332.511719 412.695312 332.425781 412.566406 332.261719 C 412.359375 331.984375 412.40625 331.582031 412.6875 331.371094 C 414.640625 329.871094 417.375 327.78125 420.644531 325.300781 L 417.160156 316.832031 L 397.0625 317.632812 C 391.402344 317.855469 388.023438 317.066406 386.082031 315.078125 C 383.839844 312.773438 383.613281 309.074219 383.988281 303.460938 L 384.617188 293.945312 L 376.878906 291.046875 C 376.640625 290.953125 376.476562 290.730469 376.46875 290.476562 C 376.457031 290.222656 376.601562 289.988281 376.828125 289.875 C 376.882812 289.851562 382.496094 287.078125 387.203125 276.207031 C 388.359375 273.546875 389.214844 270.496094 390.128906 267.273438 C 393.050781 256.933594 396.359375 245.210938 410.925781 239.542969 C 411.25 239.417969 411.621094 239.578125 411.746094 239.90625 C 411.875 240.234375 411.714844 240.601562 411.390625 240.726562 C 397.414062 246.167969 394.191406 257.5625 391.351562 267.617188 C 390.429688 270.886719 389.558594 273.96875 388.371094 276.714844 C 384.714844 285.148438 380.523438 288.898438 378.539062 290.308594 L 385.507812 292.917969 C 385.769531 293.019531 385.9375 293.277344 385.917969 293.554688 L 385.257812 303.542969 C 384.90625 308.800781 385.082031 312.226562 386.992188 314.191406 C 388.660156 315.902344 391.753906 316.574219 397.011719 316.363281 L 417.558594 315.542969 C 417.835938 315.53125 418.066406 315.691406 418.171875 315.9375 L 421.691406 324.507812 C 422.871094 323.613281 424.109375 322.671875 425.40625 321.691406 C 431.4375 317.140625 440.273438 315.253906 447.398438 316.988281 C 448.066406 317.152344 448.695312 317.355469 449.3125 317.578125 L 444.339844 305.367188 C 444.207031 305.042969 444.363281 304.671875 444.6875 304.539062 C 445.015625 304.410156 445.382812 304.566406 445.519531 304.890625 L 450.972656 318.285156 C 453.492188 319.535156 455.367188 321.335938 456.460938 323.625 L 460.019531 331.089844 C 460.171875 331.40625 460.035156 331.785156 459.71875 331.933594 Z M 451.945312 238.179688 C 451.363281 237.671875 448.515625 235.378906 444.554688 235.6875 C 441.195312 235.949219 438.027344 237.984375 435.125 241.746094 C 428.101562 250.835938 426.59375 262.394531 426.292969 265.828125 C 423.859375 264.574219 421.082031 263.90625 418.15625 264.019531 C 415.847656 264.113281 413.667969 264.679688 411.710938 265.625 C 412.050781 247.839844 425.410156 230.226562 430.5 229.832031 C 436.03125 229.394531 438.355469 229.34375 446.480469 231.289062 C 452.535156 232.738281 454.472656 237.21875 455.054688 239.285156 Z M 407.675781 270.148438 C 410.421875 267.171875 414.160156 265.453125 418.203125 265.285156 C 418.410156 265.277344 418.617188 265.273438 418.824219 265.273438 C 422.640625 265.273438 426.265625 266.691406 429.089844 269.292969 C 432.0625 272.039062 433.789062 275.773438 433.949219 279.816406 C 434.285156 288.15625 427.761719 295.214844 419.410156 295.546875 C 411.074219 295.894531 403.996094 289.363281 403.667969 281.019531 C 403.5 276.976562 404.929688 273.117188 407.675781 270.148438 Z M 451.402344 239.339844 L 456.675781 241.203125 L 456.546875 240.1875 C 456.539062 240.105469 455.453125 232.132812 446.777344 230.054688 C 438.464844 228.066406 436.078125 228.121094 430.394531 228.5625 C 424.082031 229.054688 410.4375 248.253906 410.429688 266.304688 C 405.414062 269.285156 402.144531 274.851562 402.394531 281.070312 C 402.746094 289.890625 410.039062 296.828125 418.800781 296.828125 C 419.019531 296.828125 419.238281 296.824219 419.460938 296.816406 C 428.511719 296.457031 435.582031 288.808594 435.21875 279.765625 C 434.996094 274.144531 431.957031 269.292969 427.511719 266.511719 C 427.664062 264.265625 428.816406 251.996094 436.132812 242.519531 C 438.800781 239.058594 441.671875 237.1875 444.652344 236.957031 C 448.464844 236.660156 451.148438 239.171875 451.175781 239.199219 Z M 362.9375 475.734375 L 350.191406 475.734375 L 350.007812 476.039062 C 344.609375 484.839844 335.117188 498.492188 331.125 500.136719 C 331.957031 490.304688 340.359375 479.625 340.445312 479.519531 L 339.453125 478.726562 C 339.082031 479.191406 330.59375 489.984375 329.835938 500.257812 C 326.179688 499.824219 325.433594 495.390625 325.335938 494.621094 C 327.617188 484.808594 333.160156 478.550781 333.21875 478.488281 L 332.269531 477.640625 C 332.050781 477.882812 327.207031 483.351562 324.636719 492.277344 C 323.066406 485.597656 323.921875 472.148438 335.132812 466.992188 C 346.734375 461.65625 358.160156 462 360.601562 462.144531 Z M 350.902344 477.007812 L 364.441406 477.007812 L 361.691406 460.960938 L 361.210938 460.910156 C 361.074219 460.902344 347.953125 459.695312 334.601562 465.839844 C 321.347656 471.929688 321.695312 488.886719 324.066406 494.742188 C 324.339844 497.152344 325.992188 501.570312 330.410156 501.570312 C 335.535156 501.570312 348.65625 480.652344 350.902344 477.007812 Z M 120.730469 650.613281 L 166.011719 636.164062 L 166.136719 636 L 186.457031 608.503906 L 215.113281 625.558594 L 177.691406 659.550781 C 169.140625 652.386719 161.746094 652.882812 151.574219 653.570312 C 147.707031 653.835938 143.332031 654.140625 138.292969 654.046875 C 124.863281 653.808594 121.539062 651.574219 120.730469 650.613281 Z M 212.960938 629.234375 L 216.484375 626.035156 L 229.296875 633.222656 L 260.230469 605.121094 L 272.660156 686.445312 L 223.066406 686.445312 Z M 223.316406 687.71875 L 250.808594 687.71875 C 250.726562 690.464844 250.484375 701.410156 251.304688 713.171875 C 252.054688 723.9375 253.488281 729.582031 254.089844 731.570312 L 214.15625 732.535156 C 215.605469 732.035156 217.234375 731.375 218.855469 730.527344 C 225.339844 727.121094 228.480469 722.296875 227.933594 716.5625 C 226.820312 704.878906 224.019531 691.085938 223.316406 687.71875 Z M 217.894531 529.339844 C 233.628906 513.621094 250.433594 515.765625 254.496094 516.582031 L 206.378906 580.070312 C 205.335938 573.453125 202.011719 545.207031 217.894531 529.339844 Z M 271.804688 485.28125 L 270.628906 476.792969 L 279.242188 476.792969 L 283.949219 498.835938 C 280.902344 497.253906 272.785156 492.40625 271.804688 485.28125 Z M 269.371094 476.96875 L 270.542969 485.457031 C 270.777344 487.167969 271.382812 488.746094 272.199219 490.183594 C 252.3125 491.285156 236.339844 478.433594 231.859375 474.414062 C 227.195312 470.238281 225.386719 466.566406 225.675781 464.925781 C 225.757812 464.46875 225.992188 464.324219 226.15625 464.257812 C 227.105469 463.882812 231.53125 467.308594 235.855469 471.734375 L 236.945312 472.851562 L 236.945312 472.699219 C 240.332031 475.167969 247.648438 477.304688 248 477.40625 L 248.355469 476.183594 C 245.832031 475.453125 239.035156 473.160156 236.984375 471.070312 C 237.023438 470.75 237.132812 470.480469 237.355469 470.273438 C 239 468.804688 245.398438 469.488281 254.257812 470.4375 C 263.902344 471.46875 268.242188 475.667969 269.371094 476.96875 Z M 165.234375 635.078125 L 119.210938 649.769531 L 119.210938 650.230469 C 119.210938 651.027344 120.128906 655 138.273438 655.3125 C 143.355469 655.394531 147.765625 655.105469 151.65625 654.839844 C 162.070312 654.140625 168.953125 653.671875 177.289062 660.875 L 177.71875 661.246094 L 211.847656 630.242188 L 221.773438 686.445312 L 221.742188 686.445312 L 221.902344 687.171875 L 221.996094 687.71875 L 222.015625 687.71875 C 222.609375 690.527344 225.527344 704.722656 226.667969 716.679688 C 227.871094 729.289062 208.949219 732.640625 208.757812 732.671875 L 208.878906 733.933594 L 255.875 732.800781 L 255.550781 731.960938 C 255.535156 731.90625 253.507812 726.449219 252.570312 713.078125 C 251.75 701.316406 252 690.371094 252.082031 687.71875 L 274.136719 687.71875 L 261.359375 604.066406 L 281.136719 583.066406 C 287.875 587.25 368.601562 636.257812 443.167969 636.257812 C 465.625 636.257812 496.152344 630.472656 514.042969 602.925781 C 524.738281 586.457031 525.820312 569.75 525.828125 569.585938 L 524.558594 569.511719 C 524.550781 569.675781 523.480469 586.097656 512.949219 602.285156 C 495.359375 629.3125 465.296875 634.984375 443.167969 634.984375 C 369.464844 634.984375 289.632812 586.824219 281.972656 582.09375 L 329.535156 522.292969 L 328.539062 521.503906 L 280.546875 581.839844 L 260.234375 603.402344 L 229.121094 631.664062 L 211.410156 621.734375 L 187.222656 607.484375 L 206.605469 581.875 L 256.09375 516.578125 L 274.25 493.074219 C 278.324219 497.785156 284.230469 500.410156 284.589844 500.566406 L 285.722656 501.058594 L 280.273438 475.523438 L 269.777344 475.523438 C 267.949219 473.679688 263.363281 470.132812 254.390625 469.171875 C 244.523438 468.117188 238.566406 467.480469 236.507812 469.332031 C 236.277344 469.539062 236.09375 469.773438 235.957031 470.03125 C 233.351562 467.441406 227.769531 462.246094 225.6875 463.074219 C 225.011719 463.347656 224.5625 463.921875 224.425781 464.703125 C 223.980469 467.199219 226.570312 471.382812 231.007812 475.363281 C 235.398438 479.296875 250.628906 491.53125 269.839844 491.53125 C 270.875 491.53125 271.921875 491.484375 272.980469 491.410156 C 273.128906 491.625 273.277344 491.839844 273.4375 492.050781 L 255.347656 515.464844 C 253.988281 515.136719 249.511719 514.25 243.363281 514.996094 C 236.660156 515.800781 226.652344 518.792969 216.996094 528.441406 C 199.425781 545.996094 204.710938 578.09375 205.324219 581.460938 L 186.125 606.828125 L 186.121094 606.828125 L 185.832031 607.21875 L 185.351562 607.851562 L 185.359375 607.855469 Z M 391.664062 269.480469 C 394.449219 269.941406 396.660156 273.214844 396.753906 273.355469 C 396.945312 273.644531 396.867188 274.039062 396.574219 274.234375 C 396.46875 274.308594 396.34375 274.339844 396.226562 274.339844 C 396.019531 274.339844 395.816406 274.242188 395.699219 274.0625 C 395.675781 274.03125 393.695312 271.105469 391.453125 270.730469 C 391.109375 270.675781 390.875 270.347656 390.929688 270.003906 C 390.988281 269.65625 391.316406 269.417969 391.664062 269.480469 Z M 393.9375 297.628906 C 392.785156 297.417969 389.035156 298.472656 386.945312 299.191406 C 386.613281 299.304688 386.25 299.128906 386.136719 298.796875 C 386.023438 298.464844 386.203125 298.101562 386.53125 297.992188 C 387.117188 297.789062 392.308594 296.035156 394.164062 296.375 C 394.90625 296.511719 395.363281 297.039062 395.359375 297.75 C 395.347656 299.378906 392.972656 301.503906 388.589844 302.234375 C 388.554688 302.242188 388.523438 302.242188 388.488281 302.242188 C 388.179688 302.242188 387.914062 302.023438 387.859375 301.710938 C 387.800781 301.363281 388.035156 301.039062 388.382812 300.980469 C 392.4375 300.304688 394.085938 298.414062 394.089844 297.742188 C 394.089844 297.683594 394.089844 297.65625 393.9375 297.628906 Z M 421.339844 467.308594 C 422.839844 487.839844 416.902344 506.566406 413.386719 512.023438 L 414.457031 512.714844 C 418.613281 506.253906 424.074219 487.324219 422.613281 467.21875 C 421.140625 447.109375 415.457031 395.082031 415.402344 394.558594 L 414.132812 394.695312 C 414.191406 395.21875 419.875 447.222656 421.339844 467.308594 "/>
</g>
<g clip-path="url(#clip4)" clip-rule="nonzero">
<g clip-path="url(#clip5)" clip-rule="nonzero">
<g clip-path="url(#clip6)" clip-rule="nonzero">
<path style=" stroke:none;fill-rule:nonzero;fill:rgb(18.03894%,21.569824%,49.798584%);fill-opacity:1;" d="M 367.464844 216.253906 L 368.828125 210.035156 L 301.371094 195.285156 L 299.910156 201.976562 C 298.6875 207.5625 302.234375 213.097656 307.820312 214.316406 L 354.53125 224.53125 C 360.390625 225.8125 366.183594 222.117188 367.464844 216.253906 Z M 385.269531 87.113281 L 339.878906 77.1875 C 333.414062 75.773438 327.007812 79.882812 325.59375 86.351562 L 324.8125 89.929688 L 392.265625 104.675781 L 393.347656 99.722656 C 394.601562 93.996094 390.964844 88.355469 385.269531 87.113281 Z M 369.5 206.953125 L 302.433594 192.289062 L 324.222656 92.625 L 391.265625 107.28125 L 369.472656 206.945312 L 369.5 206.953125 "/>
</g>
</g>
</g>
<g clip-path="url(#clip7)" clip-rule="nonzero">
<g clip-path="url(#clip8)" clip-rule="nonzero">
<g clip-path="url(#clip9)" clip-rule="nonzero">
<path style=" stroke:none;fill-rule:nonzero;fill:rgb(100%,100%,100%);fill-opacity:1;" d="M 338.050781 206.96875 C 335.957031 206.511719 333.886719 207.816406 333.441406 209.855469 C 332.996094 211.890625 334.332031 213.941406 336.425781 214.398438 C 338.515625 214.855469 340.585938 213.550781 341.03125 211.515625 C 341.476562 209.476562 340.140625 207.425781 338.050781 206.96875 Z M 375.21875 94.316406 L 375.425781 93.378906 C 375.472656 93.160156 375.34375 92.957031 375.125 92.910156 L 353.0625 88.085938 C 352.839844 88.039062 352.640625 88.167969 352.59375 88.386719 L 352.386719 89.324219 C 352.339844 89.542969 352.46875 89.742188 352.6875 89.792969 L 374.75 94.617188 C 374.941406 94.660156 375.171875 94.535156 375.21875 94.316406 Z M 368.078125 203.179688 L 305.960938 189.597656 L 326.5 95.660156 L 388.617188 109.242188 L 368.078125 203.179688 "/>
</g>
</g>
</g>
<g clip-path="url(#clip10)" clip-rule="nonzero">
<g clip-path="url(#clip11)" clip-rule="nonzero">
<g clip-path="url(#clip12)" clip-rule="nonzero">
<path style=" stroke:none;fill-rule:nonzero;fill:rgb(5.879211%,5.488586%,4.708862%);fill-opacity:1;" d="M 342.828125 81.234375 C 336.527344 79.855469 330.292969 83.855469 328.914062 90.160156 L 304.792969 200.476562 C 303.414062 206.777344 307.410156 213.015625 313.710938 214.394531 L 357.09375 223.878906 C 363.394531 225.257812 369.628906 221.257812 371.007812 214.953125 L 395.128906 104.640625 C 396.507812 98.335938 392.507812 92.097656 386.210938 90.722656 Z M 356.828125 225.089844 L 313.445312 215.605469 C 306.488281 214.082031 302.058594 207.175781 303.582031 200.210938 L 327.703125 89.894531 C 329.226562 82.933594 336.132812 78.5 343.09375 80.023438 L 386.476562 89.507812 C 393.460938 91.035156 397.890625 97.945312 396.367188 104.910156 L 372.246094 215.226562 C 370.722656 222.1875 363.816406 226.621094 356.828125 225.089844 "/>
</g>
</g>
</g>
</g>
</svg>
