<?xml version="1.0" encoding="UTF-8"?>
<svg xmlns="http://www.w3.org/2000/svg" xmlns:xlink="http://www.w3.org/1999/xlink" width="595.5pt" height="842.249979pt" viewBox="0 0 595.5 842.249979" version="1.2">
<defs>
<clipPath id="clip1">
  <path d="M 131.386719 235.074219 L 463.589844 235.074219 L 463.589844 613.128906 L 131.386719 613.128906 Z M 131.386719 235.074219 "/>
</clipPath>
</defs>
<g id="surface1">
<path style=" stroke:none;fill-rule:nonzero;fill:rgb(70.588684%,42.749023%,23.919678%);fill-opacity:1;" d="M 413.214844 399.792969 L 416.523438 412.226562 C 416.523438 412.226562 421.308594 409.058594 421.824219 408.503906 C 422.328125 407.957031 421.117188 398.347656 421.117188 398.347656 Z M 418.050781 346.175781 L 417.605469 347.371094 C 417.605469 347.371094 411.65625 360.378906 418.675781 360.539062 C 418.675781 360.539062 423.421875 361.441406 424.34375 357.496094 L 425.273438 353.550781 L 427.863281 353.671875 L 427.550781 346.175781 Z M 396.808594 563.203125 C 398.578125 564.386719 401.339844 562.617188 401.339844 559.867188 L 401.339844 543.539062 L 393.46875 543.539062 C 393.46875 543.539062 395.039062 562.019531 396.808594 563.203125 Z M 361.816406 543.539062 L 361.828125 545.035156 C 361.828125 545.035156 360.632812 555.433594 362.292969 558.347656 C 366.277344 565.328125 376.890625 565.542969 376.890625 565.542969 L 367.867188 543.539062 Z M 438.332031 334.824219 C 438.332031 334.824219 431.382812 342.980469 432.253906 346.175781 C 433.121094 349.363281 430.472656 361.574219 430.472656 361.574219 L 431.917969 361.574219 C 446.425781 359.378906 438.332031 334.824219 438.332031 334.824219 Z M 418.28125 333.589844 C 418.839844 333.78125 419.515625 329.9375 419.933594 327.140625 C 420.449219 325.644531 420.761719 324.503906 420.761719 324.503906 C 420.761719 324.503906 416.433594 316.03125 413.234375 315.539062 C 410.027344 315.046875 405.738281 314.242188 405.132812 316.328125 C 405.132812 316.328125 404.960938 316.910156 404.699219 317.839844 C 404.183594 318.128906 403.859375 318.523438 403.789062 319.070312 C 403.789062 319.070312 403.464844 321.179688 403.242188 323.828125 C 402.695312 326.585938 402.382812 329.355469 402.925781 330.679688 C 402.96875 330.800781 403.039062 330.910156 403.121094 331.015625 C 403.230469 332.113281 403.445312 333.023438 403.789062 333.589844 C 405.527344 336.492188 417.414062 333.308594 418.28125 333.589844 Z M 435.023438 274.125 C 435.023438 274.125 439.332031 272.382812 439.058594 264.285156 C 439.058594 264.285156 437.160156 260.726562 435.386719 265.351562 C 433.617188 269.972656 431.847656 265.878906 432.28125 263.488281 C 432.726562 261.097656 431.695312 258.230469 431.695312 258.230469 C 431.695312 258.230469 428.136719 259.351562 425.332031 259.023438 C 425.332031 259.023438 423.886719 262.371094 421.238281 259.664062 C 418.578125 256.953125 411.949219 261.097656 411.949219 261.097656 C 411.949219 261.097656 408.136719 276.066406 414.640625 278.375 L 414.003906 280.710938 C 414.003906 280.710938 406.648438 290.953125 414.90625 291.488281 C 422.480469 291.976562 426.367188 289.085938 426.367188 289.085938 C 426.367188 289.085938 431.605469 290.058594 432.636719 288.78125 C 433.667969 287.507812 435.023438 274.125 435.023438 274.125 Z M 372.550781 253.375 C 372.550781 253.375 360.015625 254.414062 359.53125 267.835938 C 358.824219 287.683594 366.765625 289.292969 367.796875 290.445312 C 367.796875 290.445312 367.605469 312.675781 365.539062 316.1875 C 365.539062 316.1875 375.027344 319.273438 376.679688 319.066406 C 378.328125 318.855469 382.867188 317.824219 382.667969 315.554688 C 382.464844 313.28125 377.292969 311.628906 377.507812 308.941406 C 377.710938 306.257812 387.632812 288.617188 388.261719 285.925781 C 388.878906 283.238281 389.464844 270.40625 389.464844 270.40625 C 389.464844 270.40625 389.070312 251.105469 372.550781 253.375 Z M 353.65625 327.703125 C 353.65625 327.703125 351.035156 327.484375 349.496094 326.828125 C 347.980469 326.175781 350.589844 320.9375 350.15625 316.351562 C 349.71875 311.769531 342.519531 312.859375 341.648438 313.078125 C 340.777344 313.296875 321.566406 337.527344 316.550781 352.152344 C 311.523438 366.773438 346.230469 384.667969 346.230469 384.667969 L 341.699219 400.9375 L 347.382812 410.960938 C 350.125 410.960938 353.734375 389.695312 353.65625 384.667969 C 353.5625 379.507812 330.316406 351.882812 329.429688 350.839844 C 339.027344 345.597656 353.65625 327.703125 353.65625 327.703125 Z M 321.234375 282.96875 L 320 272.523438 C 321.941406 270.757812 322.652344 262.261719 322.652344 262.261719 C 326.363281 262.96875 327.253906 257.835938 326.546875 252.523438 C 325.835938 247.214844 322.652344 250.402344 322.652344 250.402344 C 322.652344 250.402344 321.941406 247.394531 321.234375 242.792969 C 320.527344 238.195312 317.523438 239.25 312.03125 239.605469 C 306.546875 239.957031 307.964844 234.117188 299.648438 235.355469 C 291.324219 236.597656 294.773438 249.878906 294.863281 250.402344 C 295.289062 252.773438 294.265625 253.359375 294.265625 253.359375 C 290.351562 251.324219 290.109375 257.925781 291 263.636719 C 291.898438 269.34375 297.191406 267.800781 297.191406 267.800781 C 297.859375 271.042969 301.578125 273.636719 301.578125 273.636719 C 301.578125 273.636719 301.234375 279.070312 301.234375 284.03125 C 301.234375 288.984375 307.609375 290.402344 307.609375 290.402344 C 321.941406 291.109375 321.234375 282.96875 321.234375 282.96875 Z M 232.570312 563.417969 C 232.570312 563.417969 236.585938 564.703125 236.585938 563.417969 C 236.585938 562.132812 242.75 530.820312 242.75 528.675781 C 242.75 528.675781 233.371094 528.019531 228.5625 526.066406 C 228.5625 526.066406 232.039062 558.8125 232.570312 563.417969 Z M 211.207031 563.417969 L 215.828125 563.417969 L 223.527344 526.066406 C 223.527344 526.066406 211.027344 527.605469 209.484375 529.140625 Z M 209.484375 457.832031 C 207.121094 457.011719 205.738281 452.933594 203.308594 452.449219 C 201.195312 456.546875 199.582031 465.378906 198.894531 469.941406 C 197.824219 477.023438 197.691406 484.164062 196.78125 491.257812 L 188.0625 503.71875 C 188.0625 503.71875 190.953125 505.207031 193.589844 504.132812 C 196.230469 503.070312 198.4375 500.777344 200.371094 497.882812 L 204.515625 486.003906 L 209.484375 471.082031 Z M 260.683594 412.226562 C 260.683594 412.226562 258.285156 421.371094 255.949219 427.867188 C 254.785156 431.101562 255.371094 433.964844 256.242188 436.011719 C 252.15625 431.246094 245.4375 429.585938 245.4375 429.585938 L 245.570312 449.03125 C 245.570312 449.03125 254.136719 459.804688 258.03125 458.761719 C 261.925781 457.730469 266.601562 439.289062 266.601562 439.289062 L 270.746094 435.097656 L 267.378906 427.601562 L 269.089844 426.046875 L 271.789062 430.980469 L 277.503906 430.980469 L 270.746094 410.203125 Z M 222.046875 434.613281 L 219.652344 428.957031 L 220.308594 425.257812 C 216.324219 424.738281 213.125 416.324219 213.125 416.324219 C 211.382812 401.957031 221.175781 400.652344 221.175781 400.652344 C 230.539062 399.78125 233.371094 406.964844 235.757812 406.09375 C 238.15625 405.226562 238.15625 414.804688 238.15625 414.804688 C 238.15625 414.804688 234.019531 418.074219 234.019531 421.339844 C 234.019531 424.597656 235.980469 427.429688 235.980469 427.429688 C 230.105469 437.882812 222.046875 434.613281 222.046875 434.613281 "/>
<g clip-path="url(#clip1)" clip-rule="nonzero">
<path style=" stroke:none;fill-rule:nonzero;fill:rgb(90.979004%,56.469727%,21.958923%);fill-opacity:1;" d="M 235.960938 426.652344 L 236.082031 426.683594 C 236.042969 426.621094 235.960938 426.652344 235.960938 426.652344 Z M 245.570312 442.472656 C 245.570312 442.472656 245.984375 430.464844 245.984375 429.789062 C 245.984375 429.171875 237.214844 426.964844 236.082031 426.683594 C 236.191406 426.824219 236.0625 427.53125 233.664062 430.78125 C 230.339844 435.261719 218.53125 433.664062 218.53125 433.664062 C 212.171875 432.238281 209.484375 439.289062 209.484375 439.289062 L 209.484375 471.082031 C 209.484375 471.082031 208.019531 489.355469 208.019531 494.777344 C 208.019531 500.1875 203.808594 507.714844 200.800781 518.539062 C 197.789062 529.375 206.214844 529.972656 206.214844 529.972656 C 222.457031 525.460938 230.582031 529.070312 242.75 528.675781 C 254.90625 528.292969 251.335938 481.535156 248.027344 472.8125 C 244.71875 464.082031 245.570312 442.472656 245.570312 442.472656 Z M 463.449219 277.078125 C 458.433594 273.5 453.75 269.46875 449.449219 265.039062 C 448.820312 264.382812 446.050781 265.445312 446.71875 266.128906 C 451.007812 270.558594 455.691406 274.589844 460.71875 278.171875 C 461.242188 278.546875 462.082031 278.347656 462.628906 278.125 C 462.863281 278.035156 463.964844 277.441406 463.449219 277.078125 Z M 198.503906 506.988281 C 192.8125 514.6875 184.351562 519.5625 175.363281 522.476562 C 170.851562 523.941406 166.195312 524.964844 161.507812 525.664062 C 155.960938 526.472656 150.046875 526.976562 144.652344 525.085938 C 139.757812 523.367188 135.457031 519.550781 134.332031 514.34375 C 134.03125 512.9375 131.097656 513.695312 131.40625 515.121094 C 132.457031 520.007812 136.085938 523.78125 140.429688 526.015625 C 145.734375 528.746094 151.964844 528.917969 157.785156 528.332031 C 168.171875 527.25 178.863281 524.609375 187.949219 519.320312 C 192.988281 516.386719 197.496094 512.613281 200.972656 507.90625 C 202.085938 506.402344 199.335938 505.863281 198.503906 506.988281 Z M 159.074219 510.445312 C 163.265625 510.546875 167.476562 509.878906 171.441406 508.496094 C 172.035156 508.292969 172.820312 507.785156 172.617188 507.027344 C 172.433594 506.339844 171.457031 506.148438 170.863281 506.351562 C 167.132812 507.65625 163.25 508.261719 159.296875 508.171875 C 158.636719 508.152344 157.761719 508.695312 157.695312 509.394531 C 157.625 510.195312 158.457031 510.425781 159.074219 510.445312 Z M 444.652344 243.785156 C 445.046875 243.742188 445.433594 243.660156 445.796875 243.527344 C 446.070312 243.421875 446.402344 243.3125 446.617188 243.097656 C 449.105469 240.617188 451.582031 238.140625 454.0625 235.65625 C 454.515625 235.210938 453.667969 235.199219 453.394531 235.226562 C 453 235.269531 452.613281 235.355469 452.25 235.488281 C 451.96875 235.589844 451.632812 235.703125 451.421875 235.914062 C 448.941406 238.394531 446.453125 240.875 443.976562 243.355469 C 443.53125 243.804688 444.382812 243.816406 444.652344 243.785156 Z M 185.421875 528.898438 C 184.824219 528.496094 183.890625 528.839844 183.339844 529.140625 C 176.457031 532.875 168.964844 535.503906 161.261719 536.890625 C 160.710938 536.992188 159.6875 537.253906 159.613281 537.953125 C 159.539062 538.613281 160.417969 538.785156 160.910156 538.691406 C 169.429688 537.164062 177.585938 534.300781 185.203125 530.175781 C 185.707031 529.902344 185.964844 529.265625 185.421875 528.898438 Z M 447.769531 253.457031 C 447.324219 253.894531 447.445312 254.433594 448.074219 254.578125 C 451.976562 255.484375 456.015625 255.6875 459.988281 255.179688 C 460.554688 255.105469 461.527344 254.804688 461.648438 254.140625 C 461.769531 253.472656 460.789062 253.382812 460.363281 253.4375 C 456.84375 253.886719 453.304688 253.703125 449.84375 252.898438 C 449.15625 252.742188 448.285156 252.964844 447.769531 253.457031 Z M 414.378906 590.507812 C 415.683594 589.394531 416.957031 588.253906 418.203125 587.058594 C 419.578125 585.734375 421.085938 584.378906 422.257812 582.871094 C 422.773438 582.191406 422.25 581.527344 421.734375 580.929688 C 421.316406 580.453125 420.8125 580.046875 420.265625 579.746094 C 419.121094 579.128906 417.695312 578.835938 416.410156 579.085938 C 413.253906 579.683594 412.203125 583.519531 412.617188 586.269531 C 412.851562 587.839844 413.476562 589.273438 414.378906 590.507812 Z M 445.695312 498.632812 C 453.808594 513.613281 456.679688 531.195312 454.496094 548.039062 C 453.394531 556.527344 450.988281 564.855469 447.285156 572.574219 C 445.472656 576.355469 443.339844 579.996094 440.933594 583.425781 C 438.292969 587.160156 435.246094 590.660156 431.320312 593.058594 C 426.164062 596.214844 418.210938 597.265625 413.398438 593.464844 C 406.832031 598.53125 399.570312 602.699219 391.910156 605.867188 C 376 612.453125 358.277344 614.789062 341.253906 611.988281 C 340.636719 611.886719 340.597656 611.511719 341.03125 611.125 C 341.515625 610.679688 342.457031 610.46875 343.09375 610.570312 C 345.015625 610.882812 346.949219 611.148438 348.878906 611.328125 C 364.347656 612.816406 380.136719 609.933594 394.207031 603.40625 C 400.609375 600.445312 406.660156 596.710938 412.171875 592.308594 C 411.425781 591.46875 410.777344 590.46875 410.292969 589.273438 C 409.027344 586.117188 409.402344 582.203125 412.042969 579.855469 C 414.449219 577.722656 418.203125 577.054688 421.257812 577.914062 C 422.632812 578.296875 423.949219 579.078125 424.789062 580.261719 C 425.183594 580.796875 425.71875 581.578125 425.464844 582.222656 C 425.183594 582.941406 424.027344 583.8125 423.503906 584.367188 C 420.984375 587.007812 418.304688 589.488281 415.492188 591.792969 C 416.503906 592.765625 417.714844 593.523438 419.101562 593.980469 C 427.691406 596.820312 434.628906 588.808594 438.898438 582.527344 C 447.636719 569.6875 452.121094 554.089844 452.261719 538.613281 C 452.414062 523.09375 448.265625 507.472656 439.789062 494.421875 C 439.230469 493.550781 442.085938 492.652344 442.53125 493.339844 C 443.652344 495.058594 444.714844 496.820312 445.695312 498.632812 Z M 350.914062 399.792969 C 350.914062 399.792969 352.328125 393.144531 353.644531 384.667969 C 354.949219 376.203125 362.578125 361.574219 362.578125 361.574219 C 357.132812 351.234375 355.960938 329.769531 355.960938 329.769531 C 362.191406 327.25 366.035156 312.808594 366.035156 312.808594 C 366.035156 312.808594 370.660156 316.851562 373.683594 317.882812 C 380.1875 320.105469 382.65625 315.554688 382.65625 315.554688 C 382.65625 315.554688 379.519531 323.503906 385.265625 325.9375 C 391.011719 328.378906 398.425781 307.84375 398.425781 307.84375 C 398.425781 307.84375 404.808594 303.128906 403 312.808594 C 401.1875 322.488281 397.0625 337.71875 397.0625 337.71875 L 403 339.832031 C 395.027344 353.449219 399.78125 377.050781 399.78125 377.050781 L 409.460938 397.011719 C 378.003906 410.929688 350.914062 399.792969 350.914062 399.792969 "/>
</g>
<path style=" stroke:none;fill-rule:nonzero;fill:rgb(93.328857%,84.709167%,65.098572%);fill-opacity:1;" d="M 362.585938 361.574219 L 350.921875 341.734375 C 350.921875 341.734375 353.929688 383.203125 353.65625 384.667969 C 353.371094 386.136719 329.429688 350.839844 329.429688 350.839844 L 351.671875 330.058594 L 355.972656 329.769531 Z M 346.230469 384.667969 L 341.699219 400.9375 C 298.242188 417.539062 280.378906 405.882812 280.378906 405.882812 L 277.503906 386.265625 L 270.746094 410.203125 L 260.683594 412.226562 C 260.683594 412.226562 261.21875 323.144531 264.242188 306.488281 C 264.386719 305.734375 264.578125 304.988281 264.820312 304.269531 C 266.730469 298.507812 271.34375 293.910156 275.96875 290.1875 C 281.1875 285.976562 287.054688 282.390625 293.09375 279.476562 C 294.660156 278.71875 296.25 278.007812 297.867188 277.347656 C 298.039062 277.277344 301.4375 276.210938 301.4375 276.457031 C 301.429688 276.65625 301.417969 276.855469 301.417969 277.050781 C 301.386719 278.914062 301.417969 280.777344 301.589844 282.632812 C 301.679688 283.609375 301.792969 284.597656 302.066406 285.546875 C 302.410156 286.765625 303.25 287.53125 304.320312 288.167969 C 306.738281 289.597656 309.601562 290.097656 312.382812 289.882812 C 315.042969 289.679688 317.835938 288.9375 319.675781 286.878906 C 320.234375 286.253906 320.6875 285.523438 320.980469 284.730469 C 321.0625 284.492188 321.316406 283.910156 321.183594 283.652344 C 321.023438 283.324219 320.285156 274.945312 320.285156 274.945312 L 329.78125 277.128906 C 339.28125 279.269531 353.65625 292.585938 353.65625 292.585938 C 353.65625 292.585938 345.371094 302.699219 343.347656 305.089844 C 341.324219 307.480469 342.425781 312.808594 342.425781 312.808594 L 341.648438 313.078125 C 341.648438 313.078125 312.503906 349.414062 317.339844 360.398438 C 322.175781 371.394531 346.230469 384.667969 346.230469 384.667969 Z M 419.933594 327.140625 C 418.789062 330.65625 417.222656 333.925781 416.664062 333.730469 C 416.117188 333.550781 416.828125 333.730469 416.289062 333.8125 C 414.933594 334.035156 413.578125 334.277344 412.214844 334.460938 C 410 334.765625 405.628906 335.683594 403.929688 333.722656 C 403.496094 333.214844 403.292969 332.558594 403.140625 331.910156 C 402.3125 328.226562 402.957031 324.390625 403.617188 320.675781 C 403.796875 319.652344 403.695312 318.40625 404.699219 317.839844 C 404.960938 316.910156 405.132812 316.328125 405.132812 316.328125 C 405.738281 314.242188 410.027344 315.046875 413.234375 315.539062 C 416.433594 316.03125 420.761719 324.503906 420.761719 324.503906 C 420.761719 324.503906 420.449219 325.644531 419.933594 327.140625 Z M 443.078125 287.089844 C 440.851562 280.855469 434.589844 277.996094 434.589844 277.996094 C 434.558594 279.285156 432.011719 283.40625 431.738281 283.871094 C 429.734375 287.25 426.648438 289.246094 422.734375 289.65625 C 419.394531 290.011719 415.722656 288.929688 414.5 285.496094 C 413.953125 283.980469 413.953125 282.324219 413.972656 280.710938 C 413.195312 280.976562 404.324219 283.484375 404.324219 283.984375 L 404.210938 296.683594 C 404.160156 299.375 402.976562 302.097656 402.25 304.660156 C 401.410156 307.550781 400.5625 310.441406 399.691406 313.320312 C 397.675781 320 393.46875 325.976562 394.9375 333.246094 C 395.238281 334.703125 395.707031 336.929688 396.714844 338.0625 C 397.628906 339.074219 399.285156 339.214844 400.539062 339.226562 C 403.796875 339.246094 415.671875 339.914062 415.671875 339.914062 L 413.871094 344.566406 C 413.871094 344.566406 414.84375 345.546875 418.726562 346.316406 C 422.601562 347.097656 433.082031 345.488281 433.082031 345.488281 L 438.332031 334.824219 C 450.175781 322.355469 445.300781 293.324219 443.078125 287.089844 "/>
<path style=" stroke:none;fill-rule:nonzero;fill:rgb(16.859436%,16.079712%,15.289307%);fill-opacity:1;" d="M 416.097656 410.335938 C 416.097656 410.335938 403.058594 424.660156 409.90625 421.867188 C 416.753906 419.074219 422.84375 413.449219 422.84375 413.449219 L 421.824219 408.503906 Z M 409.753906 257.363281 L 409.753906 257.804688 C 409.796875 259.132812 410.121094 262.933594 412.902344 261.980469 C 416.261719 260.824219 419.203125 259.25 420.355469 260.722656 C 421.511719 262.1875 425.070312 261.894531 425.910156 261.140625 C 426.761719 260.390625 431.472656 258.308594 431.371094 261.351562 C 431.261719 264.394531 432.445312 269.175781 432.667969 269.125 C 432.890625 269.070312 437.777344 262.765625 438.777344 264.3125 C 439.757812 265.863281 439.058594 264.761719 439.058594 264.761719 L 439 266.839844 C 439 266.839844 442.136719 260.503906 439.910156 254.148438 C 437.695312 247.800781 427.328125 248.472656 418.65625 249.378906 C 409.988281 250.285156 409.753906 257.53125 409.753906 257.53125 M 367.796875 290.441406 C 361.199219 283.992188 360.90625 280.238281 360.058594 271.601562 C 359.21875 262.960938 370.640625 248.808594 381.484375 255.140625 C 394.632812 262.8125 386.925781 287.503906 386.085938 288.222656 C 384.992188 289.148438 369.457031 303.164062 375.917969 312.804688 C 377.609375 315.320312 380.714844 319.128906 380.199219 325.234375 C 379.683594 331.332031 388.128906 332.425781 393.417969 325.9375 C 398.71875 319.449219 397.292969 318.691406 402.300781 311.714844 C 407.316406 304.742188 404.253906 278.585938 401.199219 260.566406 C 398.152344 242.550781 382.019531 241.609375 382.019531 241.609375 C 341.261719 239.300781 354.554688 282.941406 354.988281 286.140625 C 355.425781 289.335938 348.234375 295.582031 348.234375 295.582031 C 335.597656 308.445312 339.734375 315.203125 341.699219 316.078125 C 343.660156 316.949219 348.457031 317.167969 346.929688 322.441406 C 345.402344 327.710938 348.667969 329.59375 348.667969 329.59375 C 365.671875 333.417969 368.484375 314.769531 368.484375 314.769531 C 369.679688 310.503906 367.796875 290.441406 367.796875 290.441406 Z M 392.347656 544.527344 C 392.347656 544.527344 391.761719 567.605469 393.46875 569.902344 C 395.179688 572.1875 403.191406 572.277344 403.636719 569.902344 C 404.089844 567.511719 402.332031 543.539062 402.332031 543.539062 L 400.925781 543.75 C 400.925781 543.75 402.503906 562.222656 398.222656 562.234375 C 398.222656 562.234375 395.957031 563.195312 395.160156 557.558594 C 394.351562 551.921875 393.5625 544.507812 393.5625 544.507812 Z M 360.675781 543.992188 L 359.300781 565.277344 L 360.632812 565.277344 L 361.816406 560.898438 C 361.816406 560.898438 365.957031 568.394531 371.601562 570.769531 C 377.246094 573.148438 381.746094 572.542969 379.753906 568.464844 C 378.4375 565.785156 375.109375 560.804688 375.789062 563.023438 C 376.476562 565.277344 370.273438 563.609375 369.082031 562.878906 C 367.683594 562.019531 366.429688 560.898438 365.441406 559.582031 C 363.628906 557.152344 362.597656 554.191406 362.132812 551.195312 C 361.929688 549.910156 361.828125 548.605469 361.828125 547.300781 L 361.816406 544.152344 Z M 294.367188 247.769531 C 293.074219 239.542969 296.867188 237.746094 300.832031 236.347656 C 304.796875 234.945312 307.164062 237.949219 308.671875 239.140625 C 310.179688 240.324219 319.152344 239.53125 320.113281 240.132812 C 320.972656 240.671875 321.050781 243.328125 321.195312 244.191406 C 321.558594 246.410156 321.789062 248.648438 322.054688 250.882812 C 322.074219 251.074219 322.105469 251.277344 322.207031 251.441406 C 322.550781 252.007812 323.289062 251.972656 323.539062 251.515625 C 323.664062 251.292969 323.640625 250.851562 323.683594 250.597656 C 324.117188 247.773438 324.453125 244.933594 324.644531 242.082031 C 324.847656 239.253906 325.140625 236 324.21875 233.265625 C 322.589844 228.429688 299.972656 229.476562 293.164062 233.265625 C 286.355469 237.050781 293.152344 253.839844 293.699219 254.058594 C 297.261719 255.496094 294.367188 247.769531 294.367188 247.769531 Z M 338.683594 557.074219 L 338.695312 561.859375 C 338.695312 561.859375 361.503906 576.445312 362.292969 574.59375 C 363.082031 572.734375 346.414062 556.183594 346.414062 556.183594 Z M 293.0625 557.519531 C 293.0625 557.519531 273.84375 573.167969 274.347656 575.121094 C 274.855469 577.082031 300.820312 564.304688 300.820312 564.304688 L 299.953125 557.921875 Z M 232.570312 563.417969 L 232.570312 566.21875 C 232.570312 566.21875 249.707031 571.054688 248.007812 568.867188 C 246.296875 566.683594 236.585938 563.417969 236.585938 563.417969 Z M 211.207031 563.417969 C 211.207031 563.417969 201.855469 566.683594 200.148438 568.867188 C 198.445312 571.054688 215.855469 566.320312 215.855469 566.320312 L 215.828125 563.417969 Z M 222.046875 434.613281 C 222.046875 434.613281 222.113281 434.785156 222.210938 435.097656 C 223.660156 439.628906 224.164062 444.203125 221.070312 448.128906 C 219.507812 450.101562 217.605469 451.921875 216.8125 454.308594 C 216.03125 456.636719 216.402344 459.285156 215.3125 461.492188 C 214.210938 463.726562 211.574219 465.09375 209.113281 464.710938 C 205.523438 464.164062 203.222656 460.429688 202.628906 456.847656 C 201.761719 451.578125 203.480469 446.277344 204.632812 441.058594 C 205.152344 438.710938 205.550781 436.222656 204.765625 433.957031 C 204.074219 431.941406 202.539062 430.355469 201.347656 428.582031 C 197.398438 422.683594 197.542969 414.652344 200.585938 408.230469 C 203.628906 401.816406 209.203125 396.878906 215.351562 393.328125 C 221.078125 390.019531 228.074219 387.742188 234.269531 390.058594 C 237.984375 391.445312 241 394.371094 242.980469 397.808594 C 244.972656 401.238281 245.996094 405.152344 246.53125 409.089844 C 247.441406 415.816406 246.964844 422.746094 245.113281 429.292969 C 242.675781 428.847656 240.230469 428.402344 237.78125 427.957031 C 237.082031 427.835938 236.355469 427.703125 235.808594 427.246094 C 235.160156 426.722656 234.886719 425.863281 234.65625 425.050781 C 234.039062 422.878906 233.460938 420.441406 234.523438 418.445312 C 235.3125 416.949219 236.910156 415.949219 237.476562 414.347656 C 238.113281 412.546875 237.234375 410.566406 236.152344 408.988281 C 234.644531 406.800781 232.714844 404.910156 230.5 403.464844 C 228.25 401.988281 225.550781 400.945312 222.898438 401.390625 C 219.285156 402.007812 216.636719 405.222656 215.234375 408.613281 C 214.128906 411.273438 213.578125 414.238281 214.128906 417.070312 C 214.679688 419.902344 216.441406 422.574219 219.042969 423.808594 C 219.648438 424.089844 220.332031 424.335938 220.671875 424.910156 C 220.902344 425.296875 220.929688 425.761719 220.953125 426.207031 C 221.105469 429.070312 221.039062 432.074219 222.113281 434.785156 "/>
<path style=" stroke:none;fill-rule:nonzero;fill:rgb(17.248535%,23.919678%,33.329773%);fill-opacity:1;" d="M 430.472656 361.574219 C 430.472656 361.574219 433.515625 351.636719 433.082031 345.488281 L 427.550781 346.175781 L 427.863281 353.570312 L 425.273438 353.550781 L 424.34375 357.496094 C 423.421875 361.441406 418.675781 360.539062 418.675781 360.539062 C 413.296875 357.578125 418.050781 346.175781 418.050781 346.175781 L 413.871094 344.566406 L 415.671875 339.914062 L 400.539062 339.226562 C 400.539062 339.226562 392.386719 361.773438 399.792969 377.050781 C 404.34375 386.429688 407.378906 393.289062 409.046875 397.191406 C 405.355469 398.699219 377.273438 409.496094 350.921875 399.792969 C 350.921875 399.792969 349.789062 402.300781 348.808594 408.503906 C 348.808594 408.503906 347.382812 409.140625 344.804688 405.882812 L 341.699219 400.9375 C 341.699219 400.9375 304.785156 411.296875 280.378906 405.882812 C 280.378906 405.882812 281.371094 504.773438 293.0625 557.519531 L 299.953125 557.925781 L 317.269531 430.578125 L 338.683594 557.074219 L 346.414062 556.183594 L 351.023438 475.644531 C 351.761719 480.917969 352.632812 486.511719 353.65625 492.449219 L 357.660156 529.808594 C 357.660156 529.808594 355.707031 541.808594 359.007812 543.539062 C 362.304688 545.277344 372.21875 543.539062 372.21875 543.539062 C 372.21875 543.539062 373.5625 544.652344 372.21875 530.890625 C 370.871094 517.132812 383.820312 427.328125 383.820312 427.328125 L 389.523438 529.972656 C 389.523438 529.972656 387.054688 542.902344 388.402344 544.316406 C 389.746094 545.722656 403.503906 543.539062 403.503906 543.539062 C 403.503906 543.539062 424.25 423.011719 423.511719 418.226562 C 423.25 416.496094 421.945312 407.804688 421.945312 407.804688 L 416.523438 412.226562 L 413.378906 400.390625 L 430.472656 397.011719 C 430.472656 397.011719 423.433594 385.863281 424.25 381.28125 C 425.070312 376.707031 430.472656 361.574219 430.472656 361.574219 Z M 417.351562 335.472656 C 418.109375 335.582031 418.871094 335.199219 419.265625 334.570312 C 424.566406 326.078125 426.394531 315.703125 424.394531 305.902344 C 424.109375 304.535156 421.175781 305.289062 421.460938 306.691406 C 423.390625 316.136719 421.488281 326.289062 416.453125 334.226562 C 416.058594 334.855469 416.804688 335.390625 417.351562 335.472656 Z M 231.066406 459.117188 C 231.292969 459.046875 231.195312 459.054688 231.066406 459.117188 Z M 230.960938 462.941406 C 230.902344 462.03125 230.710938 460.90625 230.273438 460.078125 C 230.253906 460.105469 230.234375 460.128906 230.21875 460.167969 C 229.523438 461.414062 228.75 462.546875 227.816406 463.566406 C 228.714844 463.292969 229.84375 463.3125 229.707031 463.808594 C 229.582031 464.265625 229.757812 464.71875 230.09375 465.042969 C 230.175781 465.125 230.261719 465.1875 230.355469 465.238281 C 230.523438 464.992188 230.6875 464.691406 230.714844 464.628906 C 230.9375 464.09375 230.996094 463.515625 230.960938 462.941406 Z M 230.128906 465.53125 C 230.054688 465.550781 229.996094 465.570312 230.011719 465.589844 C 230.035156 465.609375 230.078125 465.582031 230.128906 465.53125 Z M 224.027344 464.761719 C 223.621094 464.195312 223.511719 463.496094 223.6875 462.847656 C 223.425781 462.65625 223.167969 462.476562 222.910156 462.292969 C 222.882812 462.960938 222.855469 463.628906 222.832031 464.304688 C 222.808594 464.792969 222.855469 465.144531 223.019531 465.550781 C 223.128906 465.46875 223.246094 465.398438 223.355469 465.316406 C 223.59375 465.144531 223.800781 464.941406 224.027344 464.761719 Z M 233.324219 459.550781 C 234.15625 461.664062 234.316406 464.457031 232.226562 465.875 C 231.125 466.621094 229.429688 467.109375 228.136719 466.582031 C 227.3125 466.257812 226.691406 465.519531 226.738281 464.648438 C 226.667969 464.710938 226.605469 464.78125 226.527344 464.84375 C 225.746094 465.519531 224.878906 466.15625 223.953125 466.613281 C 222.984375 467.085938 221.0625 467.714844 220.238281 466.683594 C 219.652344 465.945312 219.910156 464.761719 219.945312 463.902344 C 219.992188 462.675781 220.042969 461.464844 220.09375 460.238281 C 220.113281 459.722656 220.804688 459.492188 221.214844 459.347656 C 221.6875 459.195312 222.472656 458.996094 222.929688 459.316406 C 223.730469 459.875 224.53125 460.441406 225.335938 460.996094 C 225.410156 461.046875 225.484375 461.109375 225.5625 461.160156 C 225.792969 461.109375 226.023438 461.070312 226.246094 461.058594 C 226.414062 461.046875 226.753906 461.089844 226.957031 461.21875 C 227.148438 460.886719 227.339844 460.5625 227.542969 460.230469 C 228.257812 459.085938 229.289062 458.378906 230.640625 458.164062 C 231.878906 457.972656 232.851562 458.367188 233.324219 459.550781 Z M 283.996094 398.011719 C 283.679688 398.546875 284.257812 398.609375 284.703125 398.589844 C 298.824219 397.941406 312.925781 397.292969 327.035156 396.648438 C 327.582031 396.617188 328.695312 396.433594 329 395.917969 C 329.300781 395.390625 328.734375 395.332031 328.28125 395.351562 L 285.945312 397.292969 C 285.410156 397.3125 284.289062 397.496094 283.996094 398.011719 Z M 283.984375 369.34375 C 283.691406 369.898438 284.246094 370.039062 284.734375 370.019531 C 293.925781 369.664062 303.082031 368.683594 312.144531 367.066406 C 312.539062 366.996094 313.816406 366.722656 313.835938 366.164062 C 313.867188 365.589844 313.015625 365.640625 312.621094 365.710938 C 303.800781 367.289062 294.890625 368.25 285.9375 368.59375 C 285.378906 368.613281 284.289062 368.796875 283.984375 369.34375 Z M 285.429688 358.113281 C 293.339844 357.34375 301.25 356.574219 309.160156 355.796875 C 309.597656 355.753906 310.78125 355.453125 310.859375 354.90625 C 310.953125 354.320312 309.972656 354.441406 309.648438 354.472656 C 301.738281 355.25 293.816406 356.019531 285.90625 356.796875 C 285.480469 356.839844 284.296875 357.140625 284.214844 357.6875 C 284.125 358.273438 285.105469 358.152344 285.429688 358.113281 Z M 314.746094 329.175781 C 314.804688 328.507812 313.945312 328.289062 313.429688 328.378906 C 305.804688 329.757812 298.175781 331.136719 290.550781 332.507812 C 289.984375 332.609375 288.980469 332.882812 288.898438 333.601562 C 288.839844 334.269531 289.699219 334.492188 290.214844 334.398438 C 297.84375 333.015625 305.46875 331.636719 313.105469 330.265625 C 313.671875 330.164062 314.664062 329.890625 314.746094 329.175781 Z M 287.714844 327.832031 C 297.023438 326.632812 306.328125 325.4375 315.636719 324.238281 C 316.210938 324.167969 317.203125 323.835938 317.273438 323.132812 C 317.34375 322.441406 316.484375 322.238281 315.949219 322.308594 C 306.644531 323.503906 297.335938 324.703125 288.03125 325.898438 C 287.453125 325.976562 286.460938 326.300781 286.390625 327.007812 C 286.320312 327.703125 287.191406 327.902344 287.714844 327.832031 Z M 283.265625 345.578125 C 282.042969 358.40625 280.445312 371.171875 278.460938 383.859375 C 278.351562 384.578125 276.527344 384.953125 276.648438 384.171875 C 277.21875 380.570312 277.742188 376.96875 278.25 373.359375 C 280.019531 360.632812 281.394531 347.824219 282.394531 334.964844 C 282.457031 334.257812 284.277344 333.824219 284.207031 334.652344 C 283.921875 338.292969 283.609375 341.9375 283.265625 345.578125 "/>
</g>
</svg>
