<svg xmlns="http://www.w3.org/2000/svg" viewBox="0 0 374.82 256.11"><defs><style>.cls-1{fill:#8e4413;}.cls-2{fill:#cc7b44;}.cls-3{fill:#89a3ba;}.cls-4{fill:#a3bed3;}.cls-5{fill:#2d4b87;}.cls-6{fill:#cc6e2e;}.cls-7{fill:#b7632a;}.cls-8{fill:#914e22;}.cls-9{fill:#f2b446;}.cls-10{opacity:0.37;}.cls-11{fill:#426996;}.cls-12{fill:#162c51;}.cls-13{fill:#0b1d38;}.cls-14{fill:#628196;}.cls-15{fill:#10213a;}.cls-16{fill:#1b3760;}</style></defs><g id="Camada_2" data-name="Camada 2"><g id="Layer_1" data-name="Layer 1"><rect class="cls-1" x="324.11" y="53.74" width="42.19" height="124.25"/><path class="cls-2" d="M366.3,21.95h0a8.52,8.52,0,0,1,8.52,8.52V256.11a0,0,0,0,1,0,0h-17a0,0,0,0,1,0,0V30.47A8.52,8.52,0,0,1,366.3,21.95Z"/><path class="cls-2" d="M327.1,21.95h0a8.52,8.52,0,0,1,8.52,8.52V256.11a0,0,0,0,1,0,0h-17a0,0,0,0,1,0,0V30.47a8.52,8.52,0,0,1,8.52-8.52Z"/><rect class="cls-3" x="42.19" y="168.13" width="315.59" height="19.73"/><path class="cls-4" d="M361.19,115.64s-6.62,59.58-45.92,64.55c0,0-19.15,3.39-36.56-7a50,50,0,0,1-19.06-20.85c-17.62-34.6,55.62-45.23,55.62-45.23s26.73.22,41.28,6.16A26.11,26.11,0,0,1,361.19,115.64Z"/><path class="cls-5" d="M265.77,171.63l-1.55,0V5.81l1.55,0a82.92,82.92,0,1,1,0,165.84Z"/><path class="cls-6" d="M264.22,5.79V171.63h-20.8a49.69,49.69,0,0,1-13.23-1.78l-1.67-.49c-1-.3-1.9-.63-2.83-1-1.14-.43-2.26-.91-3.37-1.43a49.85,49.85,0,0,1-27.78-35.76,50.82,50.82,0,0,1-.86-9.3V55.54a50.71,50.71,0,0,1,.86-9.29A49.63,49.63,0,0,1,237.9,6.1a50.35,50.35,0,0,1,5.52-.31Z"/><path class="cls-7" d="M237.74,171.31l13.68-20.62L237.69,130l13.7-20.65-13.7-20.69,13.73-20.7L237.69,47.22l13.73-20.7L237.9,6.1a50.35,50.35,0,0,1,5.52-.31h2.07l13.7,20.73-13.71,20.7,13.71,20.69L245.5,88.58l13.69,20.68L245.48,130l13.71,20.74-13.71,20.7.16.24Z"/><path class="cls-7" d="M240.88,150.69,227.17,130l13.71-20.69L227.19,88.58l13.69-20.67L227.17,47.22l13.71-20.7L228.65,8a51,51,0,0,0-6.2,2.4l10.66,16.1-13.73,20.7,13.73,20.69-13.73,20.7,13.7,20.69L219.38,130l13.73,20.74-10.79,16.25a49.47,49.47,0,0,0,6.2,2.42Z"/><path class="cls-8" d="M249.78,72.75S245.27,62,239.12,62s-5.2,5.77-5.2,7S235.67,72.75,249.78,72.75Z"/><path class="cls-8" d="M249.78,99.81s-4.51,10.78-10.66,10.78-5.2-5.76-5.2-7S235.67,99.81,249.78,99.81Z"/><circle class="cls-9" cx="200.14" cy="53.87" r="14.67"/><circle class="cls-9" cx="200.14" cy="124.2" r="14.67"/><g class="cls-10"><path d="M247.8,103v68.66h-4.38a49.69,49.69,0,0,1-13.23-1.78l-1.67-.49c-1-.3-1.9-.63-2.83-1V103h0a11.27,11.27,0,0,1,11.06-9,11.06,11.06,0,0,1,10.86,9Z"/></g><g class="cls-10"><path d="M247.8,74.45V5.79h-4.38a49.69,49.69,0,0,0-13.23,1.78c-.56.16-1.12.32-1.67.5-1,.29-1.9.62-2.83,1v65.4h0a11.27,11.27,0,0,0,11.06,9,11.06,11.06,0,0,0,10.86-9Z"/></g><circle class="cls-9" cx="240.88" cy="102.2" r="11.06"/><path class="cls-6" d="M251.93,100.15v71.48h-8.51a49.69,49.69,0,0,1-13.23-1.78,7.33,7.33,0,0,1-.37-2.29V100.15Z"/><circle class="cls-9" cx="240.88" cy="75.23" r="11.06"/><path class="cls-6" d="M251.93,77.27V5.79h-8.51a49.69,49.69,0,0,0-13.23,1.78,7.33,7.33,0,0,0-.37,2.29V77.27Z"/><circle class="cls-11" cx="291.12" cy="46.66" r="4.41"/><circle class="cls-11" cx="291.12" cy="131.23" r="4.41"/><path class="cls-4" d="M339.94,128.93l-8.28,10.38-.79,1-19.18,24.05-35.88,7.27c-.88-13.64,15.66-24.44,32.15-31.76,1.2-.53,2.4-1,3.6-1.54,2.17-.91,4.33-1.75,6.43-2.53.88-.32,1.75-.65,2.6-1,1.22-.44,2.42-.85,3.58-1.24l1.41-.47h0C333.92,130.38,339.94,128.93,339.94,128.93Z"/><path class="cls-12" d="M243.42,5.33l-1.93.17a107.81,107.81,0,0,0-11.68,1.76c-2.9.61-5.68,1.33-8.32,2.15C185.56,20.55,173,50.14,167.61,72.61q-.59,2.48-1.34,4.86c-.13.43-.27.85-.41,1.27a8.93,8.93,0,0,0-5.12-.75,15.64,15.64,0,0,0-6.87,2.71c-6.87,4.84-8.6,12.56-8.94,20.45,0,.27,0,.56,0,.85a14.31,14.31,0,0,0-1.72.54,8.33,8.33,0,0,0-1.58.09,7.4,7.4,0,0,0-3.1,1.28c-2.56,1.82-3.68,5.1-4.18,8.31-.11.64-.19,1.28-.25,1.9a12.5,12.5,0,0,0-2.12.1,4.21,4.21,0,0,0-.5,0h-.11a2.25,2.25,0,0,0-1.08.38l-.17,0c-3.46,1-6.07,4.2-5.43,7.61-1,.39-2,.76-3,1.1C74,139.41,42.19,170.36,42.19,170.36l226.22,1.46L271.33,5.88A150.77,150.77,0,0,0,243.42,5.33ZM132.24,118.72a3.34,3.34,0,0,1,.1-.43l.18.11.14.09-.09.05Z"/><path class="cls-13" d="M271.33,5.21V171.82h-7.11V5.21a3.56,3.56,0,0,1,7.11,0Z"/><path class="cls-13" d="M276.64,6.5s-11-10.14-12.42-1.29"/><path class="cls-13" d="M166.23,77.94a97.48,97.48,0,0,0-5.69,32.92c0,.59.06,1.19.1,1.78a.83.83,0,0,1-.08.45c0,1.47.1,3,.2,4.43.08,1.2-1.78,1.19-1.86,0q-.22-3.24-.22-6.46a133.65,133.65,0,0,1,2-33,.24.24,0,0,1,0-.08,8.93,8.93,0,0,1,5.12.75c.14-.42.28-.84.41-1.27A.86.86,0,0,1,166.23,77.94Z"/><path class="cls-13" d="M229.81,7.26c-2.9.61-5.68,1.33-8.32,2.15,0,0,0,.09,0,.13a.93.93,0,0,0-.1.39,869.21,869.21,0,0,0-.88,94.81c.1,6.2.25,12.39.4,18.56a.93.93,0,0,0,1.86,0q-.1-4-.19-8a.8.8,0,0,0,.29-.69c-.19-3.31-.35-6.63-.51-9.93-.55-32.43.06-65,7.6-96.69A.83.83,0,0,0,229.81,7.26Zm-8.22,44.12c0-.35,0-.7,0-1.05l0,0,0,0C221.64,50.67,221.61,51,221.59,51.38Zm1-29.31a1.93,1.93,0,0,0,0-.24h0C222.58,21.92,222.56,22,222.55,22.07Zm2.07.72c0-.18,0-.36,0-.54s.06-.29.08-.43l.08,0Z"/><path class="cls-13" d="M151.51,130a.82.82,0,0,1-1.39.19,17.52,17.52,0,0,1-1.93-3,1,1,0,0,1-.65-.59,95.41,95.41,0,0,1-5.94-24,8.33,8.33,0,0,1,1.58-.09,14.31,14.31,0,0,1,1.72-.54c0-.29,0-.58,0-.85a.69.69,0,0,1,.42.6,139.33,139.33,0,0,0,6.75,27.15A.86.86,0,0,1,151.51,130Z"/><path class="cls-13" d="M241.32,107c.19,1.17-1.6,1.68-1.79.5a284.48,284.48,0,0,1,2-102l1.93-.17A282,282,0,0,0,241.32,107Z"/><path class="cls-13" d="M137.13,127.53a.74.74,0,0,1-.82-.47l-.3-.7a28.39,28.39,0,0,1-2.11-4.75c-.41-1-.9-2-1.33-3.07a1.21,1.21,0,0,1,0-.14,12.62,12.62,0,0,1-1.07-4.22,4.21,4.21,0,0,1,.5,0,12.5,12.5,0,0,1,2.12-.1c.06-.62.14-1.26.25-1.9a1.2,1.2,0,0,1,0,.28c-.09,4.63,1.51,8.82,3.3,13,.12.16.23.31.36.46A1,1,0,0,1,137.13,127.53Z"/><rect class="cls-2" x="42.19" y="184.95" width="315.59" height="39.72"/><rect class="cls-1" x="42.19" y="199.28" width="315.59" height="25.39"/><path class="cls-2" d="M6.54,118.29h4A6.54,6.54,0,0,1,17,124.83V256.11a0,0,0,0,1,0,0H0a0,0,0,0,1,0,0V124.83a6.54,6.54,0,0,1,6.54-6.54Z"/><rect class="cls-1" x="8.52" y="146.98" width="42.19" height="77.44"/><path class="cls-2" d="M48.73,118.29h4a6.54,6.54,0,0,1,6.54,6.54V256.11a0,0,0,0,1,0,0h-17a0,0,0,0,1,0,0V124.83A6.54,6.54,0,0,1,48.73,118.29Z"/><path class="cls-3" d="M311.56,138.33c-1.47,1.09-2.83,2.43-4.13,3.49a45.05,45.05,0,0,0-6,6,80.93,80.93,0,0,0-9.77,15.61c-.36.71-1.43.09-1.07-.63a79.9,79.9,0,0,1,10.61-16.62,55.62,55.62,0,0,1,6.74-6.29C309.16,139.34,310.36,138.83,311.56,138.33Z"/><path class="cls-3" d="M320.59,134.85a.47.47,0,0,1-.18.25c-2.94,2.28-4.44,7.5-5.57,10.85a57.13,57.13,0,0,0-2.72,13.12c-.07.8-1.32.8-1.24,0A57.76,57.76,0,0,1,314,144.55c1-2.69,2.07-6.27,4-8.75C318.87,135.48,319.74,135.15,320.59,134.85Z"/><path class="cls-3" d="M333.45,144.25a34.57,34.57,0,0,0-9.28-10.64l1.41-.47h0a36.22,36.22,0,0,1,6.08,6.17,34.63,34.63,0,0,1,2.86,4.31A.62.62,0,0,1,333.45,144.25Z"/><path class="cls-14" d="M355.94,125s-29.09,25.92-29.82,44.57C326.12,169.54,348.44,156,355.94,125Z"/><path class="cls-4" d="M360.31,121.27s.27-2,.44-2.56a13.38,13.38,0,0,1,2.26-4.66s3.41-4.1-8.4-1.53l-2.85,4.64Z"/><path class="cls-4" d="M321.92,177.81a21.65,21.65,0,0,0-2.06,1.27,13.76,13.76,0,0,0-3.21,3.95s-2.86,6-5.09-5.91l3.56-5.66Z"/><path class="cls-15" d="M304.62,118.51a1.81,1.81,0,0,1-.6-.11,1.72,1.72,0,0,1-1-2.21L311.73,93l8.35,21a1.71,1.71,0,1,1-3.18,1.27l-5.08-12.76-5.59,14.87A1.74,1.74,0,0,1,304.62,118.51Z"/><path class="cls-15" d="M311.73,86.61,303,63.46a1.72,1.72,0,1,1,3.21-1.21l5.59,14.87,5.08-12.77a1.71,1.71,0,0,1,3.18,1.27Z"/><path class="cls-15" d="M296.69,89.42a38.34,38.34,0,0,1-.92,8.28,40.09,40.09,0,0,1-5.1,12.62,2.49,2.49,0,0,1-4.14-2.78,35.89,35.89,0,0,0,4.38-11,33.33,33.33,0,0,0,.82-7.26,30.1,30.1,0,0,0-5.21-16.85,2.47,2.47,0,0,1-.41-1.37,2.49,2.49,0,0,1,4.57-1.38A35.18,35.18,0,0,1,296.69,89.42Z"/><path class="cls-11" d="M287.87,71.08a.75.75,0,0,1,.33-.62.74.74,0,0,1,1,.21,33.53,33.53,0,0,1,5.71,18.75,36.14,36.14,0,0,1-.88,7.89,38,38,0,0,1-4.84,12,.74.74,0,0,1-1,.2.72.72,0,0,1-.33-.61.69.69,0,0,1,.13-.41,37.57,37.57,0,0,0,4.63-11.58,35,35,0,0,0,.86-7.64A31.77,31.77,0,0,0,288,71.48a.77.77,0,0,1-.12-.4m-3.52,0h0a4.18,4.18,0,0,0,.71,2.34A28.42,28.42,0,0,1,290,89.3a31.7,31.7,0,0,1-.78,6.88,34.22,34.22,0,0,1-4.13,10.39,4.26,4.26,0,0,0,7.08,4.73,41.56,41.56,0,0,0,5.35-13.22,40,40,0,0,0,1-8.66,36.93,36.93,0,0,0-6.3-20.69,4.25,4.25,0,0,0-5.89-1.2,4.23,4.23,0,0,0-1.91,3.55Z"/><path class="cls-16" d="M321.32,23.51c4.05-2.62,11.54-8.32,13.33-15.73a2.79,2.79,0,0,1,5.13-.73c4.67,8.21,9.38,22.46,2.36,41.24a2.79,2.79,0,0,1-4.81.75L320.62,27.56A2.78,2.78,0,0,1,321.32,23.51Z"/><rect class="cls-12" x="307.69" y="35.56" width="44.31" height="7.66" rx="3.83" transform="translate(160.7 -246.51) rotate(52.58)"/><circle class="cls-12" cx="335.78" cy="4.27" r="4.27"/></g></g></svg>