<svg xmlns="http://www.w3.org/2000/svg" viewBox="0 0 314.15 395.28"><defs><style>.cls-1{fill:#d63636;}.cls-2{fill:#f2b446;}.cls-3{fill:#a22;}.cls-4{opacity:0.22;}.cls-5{fill:#6d3b19;}.cls-6{fill:#b7632a;}.cls-7{fill:#cc6e2e;}.cls-8{fill:#fff;}.cls-9{fill:#ce5a28;}.cls-10{opacity:0.37;}.cls-11{fill:#e4e5e2;}.cls-12{fill:#a85e5e;}.cls-13{fill:#720e0e;}</style></defs><g id="Camada_2" data-name="Camada 2"><g id="Layer_1" data-name="Layer 1"><path class="cls-1" d="M33.13,146.93l-1.39-2.34c.12-.08,12.85-7.75,27.52-22.57,13.52-13.65,31.52-36.35,40.49-66.94a108.22,108.22,0,0,1,9.68-23.22A75.37,75.37,0,0,1,122.37,15C131.65,6,142.63.87,154.11.1,165-.63,175.8,2.6,185.44,9.42,195.49,16.53,204,27.45,210,41c29.89,67.12,37.44,82.05,72.28,103l-1.4,2.34c-18.53-11.11-29-20.54-38.69-34.78-10.21-15-19.91-36.25-34.68-69.4C196.1,16.44,175.7,1.39,154.29,2.82c-23.24,1.56-42.65,21.38-51.92,53A152.72,152.72,0,0,1,84.08,95.54,175.76,175.76,0,0,1,61.14,124C46.23,139.05,33.26,146.85,33.13,146.93Z"/><ellipse class="cls-2" cx="16.12" cy="163.14" rx="15.26" ry="13.98" transform="translate(-147.81 164.25) rotate(-84.75)"/><path class="cls-3" d="M8.6,153.6l.4.73,19.75-11-.4-.72A1.61,1.61,0,1,1,31.17,141l4.35,7.8a1.61,1.61,0,0,1-2.82,1.57l-.4-.72-19.76,11,.41.72A1.61,1.61,0,1,1,10.13,163l-4.35-7.8A1.61,1.61,0,0,1,8.6,153.6Z"/><g class="cls-4"><ellipse cx="161.14" cy="385.83" rx="105.94" ry="9.45"/></g><path class="cls-5" d="M155.44,218.48a4.57,4.57,0,0,0-4,4.64s3.73-4.45,7.69-4.45.74-4.37.74-4.37Z"/><path class="cls-6" d="M60.7,274.15l10.74-25.66a71,71,0,0,1-42.09-80.17L2.14,162.58A98.83,98.83,0,0,0,60.7,274.15Z"/><ellipse class="cls-2" cx="298.03" cy="163.14" rx="13.98" ry="15.26" transform="translate(-13.69 27.97) rotate(-5.25)"/><path class="cls-6" d="M253.45,274.15l-10.74-25.66a71,71,0,0,0,42.09-80.17L312,162.58A98.83,98.83,0,0,1,253.45,274.15Z"/><path class="cls-2" d="M259.88,235.18c0,.65,0,1.31,0,2H50.15c0-.65,0-1.31,0-2a104.88,104.88,0,1,1,209.75,0Z"/><rect class="cls-2" x="98.03" y="296.91" width="27.97" height="53.26" rx="10.98" transform="translate(147.9 -16.96) rotate(25.11)"/><rect class="cls-2" x="186.4" y="296.91" width="27.97" height="53.26" rx="10.98" transform="translate(-98.2 87.57) rotate(-19.91)"/><path class="cls-7" d="M259.89,237.14v26.31A63.16,63.16,0,0,1,257,282.3a60.76,60.76,0,0,1-3,7.83,62.87,62.87,0,0,1-57,36.24H113.05A62.88,62.88,0,0,1,56,290a64,64,0,0,1-3-7.85,63.54,63.54,0,0,1-2.82-18.68V237.14Z"/><path class="cls-2" d="M87,130.3s33.44-1.19,36.8,11.31l12.89-1.19S131.37,121.67,87,130.3Z"/><path class="cls-2" d="M110,109s26.9,19.89,21.75,31.76l10.82,7.09S150.1,129.88,110,109Z"/><path class="cls-2" d="M135.06,110.9s9.67,21.5,2.41,27l4.2,8.09S152.48,137.53,135.06,110.9Z"/><path class="cls-6" d="M259.48,270.63l-26.07-17.3L207.17,270.7l-26.12-17.33L154.88,270.7l-26.17-17.37L102.53,270.7,76.35,253.33,50.52,270.44a62.18,62.18,0,0,1-.39-7v-2.62L76.35,243.5l26.18,17.34,26.18-17.34,26.14,17.32L181,243.5l26.18,17.34,26.24-17.34,26.17,17.34.31-.2Z"/><path class="cls-6" d="M233.41,266.66,207.17,284,181,266.66,154.85,284l-26.14-17.32L102.53,284,76.35,266.66,53,282.13A64,64,0,0,0,56,290l20.37-13.49,26.18,17.37,26.18-17.37,26.17,17.37,26.17-17.33,26.12,17.33,26.24-17.37L254,290.13a60.76,60.76,0,0,0,3-7.83Z"/><path class="cls-8" d="M155.16,187.2a18.36,18.36,0,0,1-3.22,10.41,38,38,0,0,0-11.38-3.72,32.34,32.34,0,0,0-7.12-.31,31.05,31.05,0,0,0-12.28,3.49,18.43,18.43,0,1,1,34-9.87Z"/><path class="cls-5" d="M145.65,186.21a8.35,8.35,0,0,1-5.09,7.68,32.34,32.34,0,0,0-7.12-.31,8.33,8.33,0,1,1,12.21-7.37Z"/><path class="cls-8" d="M192.3,187.2a18.4,18.4,0,0,1-3,10,37.44,37.44,0,0,0-11.4-3.46,32.43,32.43,0,0,0-7.2-.12,31.11,31.11,0,0,0-12.16,3.84A18.43,18.43,0,1,1,192.3,187.2Z"/><path class="cls-5" d="M182.78,186.21a8.3,8.3,0,0,1-4.85,7.56,32.43,32.43,0,0,0-7.2-.12,8.32,8.32,0,1,1,12.05-7.44Z"/><circle class="cls-7" cx="101.82" cy="203.12" r="5.57"/><circle class="cls-7" cx="208.79" cy="203.12" r="5.57"/><path class="cls-5" d="M129.06,208.84h51.71A6.08,6.08,0,0,1,185,219.35c-4.54,4.19-13.27,8-30,8s-25.5-3.84-30-8A6.08,6.08,0,0,1,129.06,208.84Z"/><ellipse class="cls-9" cx="154.98" cy="223.64" rx="15.62" ry="5.16"/><path class="cls-7" d="M154.92,230.11c-14.87,0-25.6-3-31.89-8.76a8.68,8.68,0,0,1-2.2-9.6,8.79,8.79,0,0,1,8.23-5.64h51.71a8.79,8.79,0,0,1,8.23,5.64,8.69,8.69,0,0,1-2.19,9.6C180.51,227.16,169.78,230.11,154.92,230.11Zm-25.86-18.54a3.32,3.32,0,0,0-3.15,2.16,3.24,3.24,0,0,0,.82,3.62c3.61,3.33,11.43,7.31,28.19,7.31s24.57-4,28.19-7.31a3.23,3.23,0,0,0,.81-3.62,3.31,3.31,0,0,0-3.15-2.16Z"/><g class="cls-10"><path d="M237.66,170.61a353.76,353.76,0,0,0-162.25.15,6.93,6.93,0,0,1-3.17,0,104.39,104.39,0,0,1,13.27-14.13,366.85,366.85,0,0,1,138-.91A105.12,105.12,0,0,1,237.66,170.61Z"/></g><path class="cls-11" d="M231.59,150.34a4.35,4.35,0,0,1-.17,1.23,4.54,4.54,0,0,1-.86,1.68,5.06,5.06,0,0,1-5.22,1.75,283.11,283.11,0,0,0-139.82,0,4.93,4.93,0,0,1-1.25.16,5,5,0,0,1-4-1.91,4.54,4.54,0,0,1-.86-1.68,4.94,4.94,0,0,1,3.67-6,292.94,292.94,0,0,1,144.64,0A5,5,0,0,1,231.59,150.34Z"/><path class="cls-12" d="M230.56,153.25a5.06,5.06,0,0,1-5.22,1.75,283.11,283.11,0,0,0-139.82,0,4.93,4.93,0,0,1-1.25.16,5,5,0,0,1-4-1.91,5.19,5.19,0,0,1,2.81-1.83,292.7,292.7,0,0,1,144.64,0A5.19,5.19,0,0,1,230.56,153.25Z"/><path class="cls-11" d="M234.29,155.62a322.41,322.41,0,0,0-158.27,0,5.9,5.9,0,0,0-4.39,7.17,6,6,0,0,0,7.25,4.1,310.64,310.64,0,0,1,152.55,0,6,6,0,0,0,7.25-4.1A5.89,5.89,0,0,0,234.29,155.62Z"/><path class="cls-3" d="M308.37,155.17,304,163a1.61,1.61,0,1,1-2.81-1.57l.4-.72-5.1-2.84-11.62-6.48-3-1.7-.4.73a1.62,1.62,0,0,1-2.19.62,1.6,1.6,0,0,1-.62-2.19L283,141a1.61,1.61,0,1,1,2.82,1.57l-.4.72,4.79,2.67,5.2,2.9,9.76,5.45.4-.73a1.61,1.61,0,0,1,2.82,1.57Z"/><path class="cls-13" d="M296.51,157.84l-11.62-6.48a8.87,8.87,0,0,1,4.59-5.06l.71-.32,5.2,2.9C295.6,151.4,295.4,154.85,296.51,157.84Z"/><path class="cls-13" d="M17.62,157.84l11.63-6.48a8.89,8.89,0,0,0-4.6-5.06l-.71-.32-5.2,2.9C18.53,151.4,18.74,154.85,17.62,157.84Z"/><path class="cls-2" d="M284.41,166.37s-5.59-15.6,3.84-20.07,3.67,6.62,7.92,13.36l-4.95,7Z"/><path class="cls-2" d="M29.74,166.37s5.59-15.6-3.84-20.07-3.67,6.62-7.92,13.36l4.95,7Z"/><path class="cls-5" d="M155.28,218.27a4.24,4.24,0,0,0-3.69,4.32s3.47-4.15,7.15-4.15.69-4.07.69-4.07Z"/></g></g></svg>