<svg xmlns="http://www.w3.org/2000/svg" viewBox="0 0 333.24 333.09"><defs><style>.cls-1{fill:#f2b446;}.cls-2{fill:#6d3b19;}.cls-3{fill:#cc6e2e;}.cls-4{fill:#fff;}</style></defs><g id="Camada_2" data-name="Camada 2"><g id="Layer_1" data-name="Layer 1"><circle class="cls-1" cx="166.69" cy="166.54" r="107.91"/><rect class="cls-1" x="163.25" width="6.88" height="45.45"/><rect class="cls-1" x="207.2" y="6.88" width="6.88" height="45.45" transform="translate(19.13 -62.96) rotate(17.8)"/><rect class="cls-1" x="248.2" y="27.77" width="6.88" height="45.45" transform="translate(78.43 -138.9) rotate(36.21)"/><rect class="cls-1" x="279.6" y="59.29" width="6.88" height="45.45" transform="translate(183.05 -195.19) rotate(54)"/><rect class="cls-1" x="300.02" y="99.36" width="6.88" height="45.45" transform="translate(325.77 -204.25) rotate(72)"/><rect class="cls-1" x="307.06" y="143.29" width="6.88" height="45.45" transform="translate(475.38 -145.09) rotate(89.79)"/><rect class="cls-1" x="299.86" y="188.74" width="6.88" height="45.45" transform="translate(598.94 -10.6) rotate(108.2)"/><rect class="cls-1" x="279.6" y="228.34" width="6.88" height="45.45" transform="translate(652.52 169.66) rotate(126)"/><rect class="cls-1" x="247.72" y="260.2" width="6.88" height="45.45" transform="translate(620.62 364.37) rotate(144.03)"/><rect class="cls-1" x="206.64" y="280.93" width="6.88" height="45.45" transform="translate(501.97 529.77) rotate(162.44)"/><rect class="cls-1" x="119.16" y="6.88" width="6.88" height="45.45" transform="translate(248.38 20.33) rotate(162.2)"/><rect class="cls-1" x="78.16" y="27.77" width="6.88" height="45.45" transform="translate(177.26 43.05) rotate(143.79)"/><rect class="cls-1" x="46.76" y="59.29" width="6.88" height="45.45" transform="translate(146.05 89.61) rotate(126)"/><rect class="cls-1" x="26.34" y="99.36" width="6.88" height="45.45" transform="translate(155.09 131.5) rotate(108)"/><rect class="cls-1" x="19.3" y="143.29" width="6.88" height="45.45" transform="translate(188.83 143.88) rotate(90.21)"/><rect class="cls-1" x="26.49" y="188.74" width="6.88" height="45.45" transform="translate(221.46 116.97) rotate(71.8)"/><rect class="cls-1" x="46.76" y="228.34" width="6.88" height="45.45" transform="translate(223.81 62.88) rotate(54)"/><rect class="cls-1" x="78.63" y="260.2" width="6.88" height="45.45" transform="translate(181.84 5.74) rotate(35.97)"/><rect class="cls-1" x="119.72" y="280.93" width="6.88" height="45.45" transform="translate(97.35 -23.01) rotate(17.56)"/><rect class="cls-1" x="162.66" y="287.62" width="6.88" height="45.45" transform="translate(330.91 621.38) rotate(-179.76)"/><path class="cls-2" d="M168.59,198.63A67.38,67.38,0,0,1,154,197a70.75,70.75,0,0,1-22.29-9,4.4,4.4,0,0,1,2.46-8.06,4.37,4.37,0,0,1,2.45.75A63.58,63.58,0,0,0,156,188.42a59.65,59.65,0,0,0,12.82,1.45,53.11,53.11,0,0,0,29.75-9.2,4.49,4.49,0,0,1,2.43-.73,4.4,4.4,0,0,1,2.43,8.08A62.13,62.13,0,0,1,168.59,198.63Z"/><path class="cls-3" d="M207.25,180.21a7.5,7.5,0,0,0-10.41-2.13,50.19,50.19,0,0,1-28,8.68,55.91,55.91,0,0,1-12.15-1.38,60.55,60.55,0,0,1-18.36-7.29,7.42,7.42,0,0,0-4.15-1.26A7.52,7.52,0,0,0,130,190.58,73,73,0,0,0,153.31,200a70.45,70.45,0,0,0,15.28,1.71,65.2,65.2,0,0,0,36.53-11.13,7.51,7.51,0,0,0,2.13-10.4Zm-5.55,5.21a59.14,59.14,0,0,1-33.11,10.1A65.22,65.22,0,0,1,154.65,194a67.23,67.23,0,0,1-21.22-8.55,1.29,1.29,0,0,1-.36-1.79,1.34,1.34,0,0,1,1.08-.58,1.3,1.3,0,0,1,.73.22,66,66,0,0,0,20.44,8.19A62.56,62.56,0,0,0,168.81,193a56.17,56.17,0,0,0,31.46-9.71,1.26,1.26,0,0,1,.71-.22,1.31,1.31,0,0,1,1.09.58A1.3,1.3,0,0,1,201.7,185.42Z"/><circle class="cls-4" cx="143.48" cy="148.75" r="24.09"/><circle class="cls-2" cx="144.25" cy="147.46" r="10.88"/><circle class="cls-4" cx="192.02" cy="148.75" r="24.09"/><circle class="cls-2" cx="192.79" cy="147.46" r="10.88"/><circle class="cls-3" cx="97.85" cy="169.55" r="7.28"/><circle class="cls-3" cx="237.67" cy="169.55" r="7.28"/></g></g></svg>