<svg xmlns="http://www.w3.org/2000/svg" viewBox="0 0 192.71 283.71"><defs><style>.cls-1{fill:#cecda5;}.cls-2{fill:#ffffca;}.cls-3{fill:none;stroke:#000;stroke-miterlimit:10;stroke-width:1.74px;}.cls-4{fill:#5cbf6d;}</style></defs><g id="Camada_2" data-name="Camada 2"><g id="Layer_1" data-name="Layer 1"><path class="cls-1" d="M0,283.71s192.69-5.23,192.69-121.36l-86.09,7.38L59.86,196l-32.8,40.18Z"/><path class="cls-2" d="M0,0H192.69V162.35s2.21,62.32-46.74,23c0,0-48.37,81.18-145.95,98.4Z"/><rect class="cls-3" x="13.32" y="10.84" width="27.28" height="27.28"/><path d="M64.61,34a29.94,29.94,0,0,1,6.74-17.32L69.67,16l.91,12.75c.22,3,.55,6.73,3.79,8.05,3.07,1.26,6.37-.44,8.16-3a14,14,0,0,0,2-4.65c.14-.53.21-1.52.7-1.87a2.11,2.11,0,0,1,1.22-.15c.56,0,1.12,0,1.68.07,7.77.56,15.14,4.25,23.06,3.15a16.53,16.53,0,0,0,5.09-1.52c1.5-.74,3-2.08,4.81-1.64.9.23,1.71.73,2.59,1a11.48,11.48,0,0,0,2.79.54c2.07.17,4.16.15,6.23.17q14.3.21,28.58-.91c1.25-.1,1.26-2.06,0-2q-12.34,1-24.72.94c-2,0-4.07,0-6.11-.07a22.83,22.83,0,0,1-5.84-.47c-1.75-.51-3.19-1.59-5.11-1.25-1.68.3-3.06,1.42-4.59,2.1-7,3.13-14.85,0-21.84-1.37a36.62,36.62,0,0,0-5.7-.75c-1.63-.08-3.38-.09-4.17,1.6-.67,1.43-.8,3.06-1.48,4.5a6.93,6.93,0,0,1-3.14,3.46,4,4,0,0,1-4.45-.42c-1.2-1.17-1.39-3.05-1.51-4.62-.36-4.58-.66-9.16-1-13.74,0-.76-1.09-1.4-1.67-.69A32.13,32.13,0,0,0,62.65,34c-.07,1.26,1.9,1.26,2,0Z"/><rect class="cls-3" x="13.32" y="61.47" width="27.28" height="27.28"/><path d="M64.61,84.59a30,30,0,0,1,6.74-17.32l-1.68-.69.91,12.74c.22,3,.55,6.74,3.79,8.06,3.07,1.25,6.37-.44,8.16-3a14,14,0,0,0,2-4.64c.14-.54.21-1.53.7-1.88.31-.23.86-.15,1.22-.15.56,0,1.12,0,1.68.07,7.77.56,15.14,4.25,23.06,3.16a16.82,16.82,0,0,0,5.09-1.53c1.5-.73,3-2.08,4.81-1.64.9.23,1.71.73,2.59,1a11.47,11.47,0,0,0,2.79.53c2.07.17,4.16.15,6.23.18q14.3.19,28.58-.92c1.25-.09,1.26-2.06,0-2q-12.34,1-24.72,1c-2,0-4.07,0-6.11-.08a22.39,22.39,0,0,1-5.84-.47c-1.75-.51-3.19-1.59-5.11-1.25-1.68.3-3.06,1.42-4.59,2.1-7,3.13-14.85,0-21.84-1.37a37.86,37.86,0,0,0-5.7-.75c-1.63-.07-3.38-.08-4.17,1.61-.67,1.42-.8,3-1.48,4.49a6.89,6.89,0,0,1-3.14,3.46,4,4,0,0,1-4.45-.42c-1.2-1.16-1.39-3.05-1.51-4.62-.36-4.57-.66-9.16-1-13.73,0-.76-1.09-1.41-1.67-.7a32.13,32.13,0,0,0-7.31,18.71c-.07,1.27,1.9,1.26,2,0Z"/><rect class="cls-3" x="13.32" y="110.94" width="27.28" height="27.28"/><path d="M64.61,134.07a30,30,0,0,1,6.74-17.33l-1.68-.69.91,12.74c.22,3,.55,6.74,3.79,8.06,3.07,1.25,6.37-.44,8.16-3a14,14,0,0,0,2-4.65c.14-.53.21-1.52.7-1.88a2.29,2.29,0,0,1,1.22-.15c.56,0,1.12,0,1.68.07,7.77.57,15.14,4.25,23.06,3.16a17.09,17.09,0,0,0,5.09-1.52c1.5-.74,3-2.08,4.81-1.64.9.22,1.71.72,2.59,1a11,11,0,0,0,2.79.53c2.07.18,4.16.15,6.23.18q14.3.21,28.58-.91c1.25-.1,1.26-2.07,0-2q-12.34,1-24.72,1c-2,0-4.07,0-6.11-.07a22.83,22.83,0,0,1-5.84-.47c-1.75-.52-3.19-1.6-5.11-1.26-1.68.3-3.06,1.42-4.59,2.11-7,3.12-14.85,0-21.84-1.38a39.19,39.19,0,0,0-5.7-.75c-1.63-.07-3.38-.08-4.17,1.61-.67,1.42-.8,3-1.48,4.49a7,7,0,0,1-3.14,3.47,4,4,0,0,1-4.45-.43c-1.2-1.16-1.39-3-1.51-4.62-.36-4.57-.66-9.15-1-13.73,0-.76-1.09-1.41-1.67-.69a32.13,32.13,0,0,0-7.31,18.71c-.07,1.26,1.9,1.25,2,0Z"/><rect class="cls-3" x="13.32" y="159.99" width="27.28" height="27.28"/><path d="M64.61,183.11a30,30,0,0,1,6.74-17.32l-1.68-.69.91,12.74c.22,3,.55,6.74,3.79,8.06,3.07,1.25,6.37-.44,8.16-3a14,14,0,0,0,2-4.65c.14-.53.21-1.52.7-1.88a2.29,2.29,0,0,1,1.22-.15c.56,0,1.12,0,1.68.07,7.77.57,15.14,4.25,23.06,3.16a16.82,16.82,0,0,0,5.09-1.53c1.5-.73,3-2.08,4.81-1.63.9.22,1.71.72,2.59,1a11.47,11.47,0,0,0,2.79.53c2.07.18,4.16.15,6.23.18q14.3.21,28.58-.91c1.25-.1,1.26-2.07,0-2q-12.34,1-24.72.95c-2,0-4.07,0-6.11-.07a22.83,22.83,0,0,1-5.84-.47c-1.75-.52-3.19-1.6-5.11-1.26-1.68.3-3.06,1.42-4.59,2.11-7,3.12-14.85,0-21.84-1.38a39.19,39.19,0,0,0-5.7-.75c-1.63-.07-3.38-.08-4.17,1.61-.67,1.42-.8,3.05-1.48,4.49a7,7,0,0,1-3.14,3.47,4,4,0,0,1-4.45-.43c-1.2-1.16-1.39-3-1.51-4.62-.36-4.57-.66-9.15-1-13.73,0-.76-1.09-1.41-1.67-.69a32.08,32.08,0,0,0-7.31,18.7c-.07,1.27,1.9,1.26,2,0Z"/><rect class="cls-3" x="13.32" y="209.39" width="27.28" height="27.28"/><path d="M108.34,229.18l2.33-2.15a25.86,25.86,0,0,1-6.09-.15c-5-.61-9.71-2.3-14.66-2.93-2.58-.33-5.56-1-6.86,1.73-.78,1.62-.87,3.47-1.83,5-2,3.38-7,4.49-8.33-.37-.63-2.28-.49-5-.66-7.34q-.3-4.26-.61-8.52c0-.75-1.09-1.41-1.67-.69a33,33,0,0,0-7.31,18.71c-.09,1.26,1.88,1.25,2,0a30.73,30.73,0,0,1,5.22-15.26,107.28,107.28,0,0,0,1,12.72c.55,3.27,2.5,5.92,6.11,5.71,3.39-.2,5.68-2.91,6.87-5.85.51-1.25.54-2.47,1.57-3.42,1.39-1.27,3.32-.69,5.15-.42,2.73.41,5.39,1.14,8.07,1.75A42.75,42.75,0,0,0,108.34,229.18Z"/><path class="cls-4" d="M18.91,16.26l5.42,14.33a1,1,0,0,0,1.89,0A63.41,63.41,0,0,1,38.44,6.39c.8-1-.58-2.37-1.38-1.39A65.59,65.59,0,0,0,24.33,30.07h1.89L20.8,15.74c-.44-1.18-2.34-.67-1.89.52Z"/><path class="cls-4" d="M18.91,67.57,24.33,81.9a1,1,0,0,0,1.89,0A63.41,63.41,0,0,1,38.44,57.7c.8-1-.58-2.37-1.38-1.39A65.59,65.59,0,0,0,24.33,81.38h1.89L20.8,67.05c-.44-1.18-2.34-.67-1.89.52Z"/><path class="cls-4" d="M18.91,119.06l5.42,14.34a1,1,0,0,0,1.89,0,63.38,63.38,0,0,1,12.22-24.21c.8-1-.58-2.37-1.38-1.39a65.59,65.59,0,0,0-12.73,25.07h1.89L20.8,118.54c-.44-1.17-2.34-.67-1.89.52Z"/></g></g></svg>