<svg xmlns="http://www.w3.org/2000/svg" viewBox="0 0 326.1 112.47"><defs><style>.cls-1{fill:#2d4b87;}.cls-2{fill:#122c60;}.cls-3{fill:#385d93;}.cls-4{fill:#162c51;}.cls-5{opacity:0.22;}.cls-6{fill:#edf6f7;}.cls-7{fill:#6c96d8;}.cls-8{opacity:0.5;}</style></defs><g id="Camada_2" data-name="Camada 2"><g id="Layer_1" data-name="Layer 1"><rect class="cls-1" y="6.25" width="277.65" height="96.92"/><rect class="cls-2" x="204.57" y="1.58" width="23.11" height="106.27" rx="8.3"/><path class="cls-3" d="M214.15,17.66h4.79a5.45,5.45,0,0,1,5.45,5.45v5.94a0,0,0,0,1,0,0H208.7a0,0,0,0,1,0,0V23.11A5.45,5.45,0,0,1,214.15,17.66Z"/><path class="cls-3" d="M215.45,3h1.77a7,7,0,0,1,7,7v1.14a3.29,3.29,0,0,1-3.29,3.29h-9.09a3.29,3.29,0,0,1-3.29-3.29V9.92a7,7,0,0,1,7-7Z"/><path class="cls-3" d="M208.6,79.6h15.68a0,0,0,0,1,0,0v5.94A5.45,5.45,0,0,1,218.83,91H214a5.45,5.45,0,0,1-5.45-5.45V79.6A0,0,0,0,1,208.6,79.6Z"/><path class="cls-3" d="M211.68,94.29h9.09a3.29,3.29,0,0,1,3.29,3.29v1.14a7,7,0,0,1-7,7h-1.77a7,7,0,0,1-7-7V97.59A3.29,3.29,0,0,1,211.68,94.29Z"/><circle class="cls-1" cx="277.65" cy="54.71" r="48.46"/><rect class="cls-4" y="6.25" width="180.91" height="96.92"/><rect class="cls-5" x="148.67" y="6.25" width="32.25" height="96.92"/><rect class="cls-4" x="156.37" width="24.54" height="112.47" rx="8.22"/><circle class="cls-6" cx="217.45" cy="54.71" r="25.66"/><path class="cls-7" d="M217.45,82.68a28,28,0,1,1,28-28A28,28,0,0,1,217.45,82.68Zm0-51.32A23.35,23.35,0,1,0,240.8,54.71,23.38,23.38,0,0,0,217.45,31.36Z"/><rect class="cls-8" x="216.76" y="32.35" width="1.27" height="5.06" rx="0.63"/><rect class="cls-8" x="216.76" y="71.85" width="1.27" height="5.06" rx="0.63"/><rect class="cls-8" x="197.01" y="52.1" width="1.27" height="5.06" rx="0.63" transform="translate(143.02 252.28) rotate(-90)"/><rect class="cls-8" x="236.51" y="52.1" width="1.27" height="5.06" rx="0.63" transform="translate(182.51 291.77) rotate(-90)"/><path class="cls-8" d="M225.64,62l-6.41-6.41a2,2,0,0,0,.2-.85,2,2,0,0,0-1.32-1.86V40h-1.32v12.9a2,2,0,0,0,.66,3.84,1.9,1.9,0,0,0,.85-.2l6.4,6.41Z"/></g></g></svg>