<svg xmlns="http://www.w3.org/2000/svg" viewBox="0 0 235.11 234.65"><defs><style>.cls-1{opacity:0.22;}.cls-2{fill:#59a3df;}.cls-3{fill:#2a73c7;}.cls-4{fill:#2083c6;}.cls-5{fill:#1c60a3;}.cls-6{fill:#28383d;}.cls-7{fill:#1a6c99;}.cls-8{fill:#914e22;}.cls-9{fill:#ed9b5f;}.cls-10{opacity:0.37;}</style></defs><g id="Camada_2" data-name="Camada 2"><g id="Layer_1" data-name="Layer 1"><ellipse class="cls-1" cx="117.56" cy="224.17" rx="117.56" ry="10.49"/><path class="cls-2" d="M233.94,116.38c0,.73,0,1.45,0,2.18H1.2c0-.73,0-1.45,0-2.18a116.38,116.38,0,0,1,232.76,0Z"/><path class="cls-3" d="M233.94,118.56v29.19c0,.69,0,1.38,0,2.07,0,.26,0,.52,0,.77v.08c-.07,1.67-.19,3.33-.38,5s-.39,3.05-.66,4.55a70,70,0,0,1-3.07,11.41c-.33.89-.67,1.78-1,2.65-.83,2-1.76,4-2.78,5.95q-.26.5-.54,1a69.73,69.73,0,0,1-61.31,36.4H71a69.75,69.75,0,0,1-61.32-36.4q-.42-.77-.81-1.53a67.8,67.8,0,0,1-2.82-6.19c-.24-.62-.48-1.24-.71-1.87a70,70,0,0,1-3.07-11.41c-.27-1.5-.49-3-.66-4.55s-.31-3.34-.38-5a1.21,1.21,0,0,1,0-.19c0-.2,0-.4,0-.6,0-.68,0-1.36,0-2.05V118.56Z"/><circle class="cls-4" cx="58.54" cy="72.81" r="6.18"/><circle class="cls-4" cx="177.24" cy="72.81" r="6.18"/><path class="cls-2" d="M44,26.21s-19.62,12.06-28.62-6.6C15.36,19.61,14.6,58.15,44,26.21Z"/><path class="cls-2" d="M39.86,26.61S23.41,50.89,3.18,33.94C3.18,33.94,22.49,79.08,39.86,26.61Z"/><path class="cls-2" d="M52.35,20.59s-15.54,9.56-22.68-5.24C29.67,15.35,29.07,45.91,52.35,20.59Z"/><path class="cls-2" d="M191.24,26.21s19.62,12.06,28.62-6.6C219.86,19.61,220.62,58.15,191.24,26.21Z"/><path class="cls-2" d="M195.36,26.61S211.81,50.89,232,33.94C232,33.94,212.73,79.08,195.36,26.61Z"/><path class="cls-2" d="M182.87,20.59s15.54,9.56,22.68-5.24C205.55,15.35,206.15,45.91,182.87,20.59Z"/><rect class="cls-5" x="1.17" y="129.59" width="232.77" height="9.59"/><path class="cls-5" d="M233.88,150.59v.08a69.17,69.17,0,0,1-1,9.51H2.27a70.33,70.33,0,0,1-1-9.59Z"/><path class="cls-5" d="M229.77,172.47c-.33.89-.67,1.78-1,2.65-.83,2-1.76,4-2.78,5.95q-.26.5-.54,1H9.68q-.42-.76-.81-1.53a67.8,67.8,0,0,1-2.82-6.19c-.24-.62-.48-1.24-.71-1.87Z"/><circle class="cls-2" cx="68.2" cy="208.39" r="20.59"/><circle class="cls-2" cx="166.92" cy="208.39" r="20.59"/><path class="cls-6" d="M137.93,57c-5.52,0-11.7-2-17.81-8.09a2,2,0,1,1,2.79-2.81c15.44,15.34,31.07.62,31.72,0A2,2,0,0,1,157.39,49C157.26,49.08,148.88,57,137.93,57Z"/><path class="cls-6" d="M95.52,56.91c-5.52,0-11.7-2-17.81-8.1A2,2,0,0,1,80.5,46c15.49,15.4,31.06.62,31.72,0A2,2,0,0,1,115,48.83C114.85,49,106.47,56.91,95.52,56.91Z"/><ellipse class="cls-6" cx="117.89" cy="76.7" rx="21.54" ry="11.45"/><ellipse class="cls-7" cx="117.89" cy="82.43" rx="17.34" ry="5.73"/><path class="cls-6" d="M118.4,76.7a5.06,5.06,0,0,0-4.4,5.15s4.14-4.94,8.53-4.94.83-4.85.83-4.85Z"/><path class="cls-4" d="M117.89,90.13c-13.19,0-23.52-5.9-23.52-13.43s10.33-13.43,23.52-13.43,23.53,5.9,23.53,13.43S131.08,90.13,117.89,90.13Zm0-22.9c-11.7,0-19.56,4.9-19.56,9.47s7.86,9.47,19.56,9.47,19.56-4.9,19.56-9.47S129.59,67.23,117.89,67.23Z"/><ellipse class="cls-8" cx="99.54" cy="91.56" rx="8.52" ry="7.13" transform="translate(-32.44 62.04) rotate(-30)"/><ellipse class="cls-9" cx="100.03" cy="92.05" rx="7.17" ry="6" transform="translate(-32.62 62.35) rotate(-30)"/><ellipse class="cls-8" cx="134.99" cy="91.56" rx="7.13" ry="8.52" transform="translate(-11.8 162.68) rotate(-60)"/><ellipse class="cls-9" cx="134.71" cy="92.05" rx="6" ry="7.17" transform="translate(-12.36 162.68) rotate(-60)"/><path class="cls-8" d="M136.09,120l-18.44-8.18L99.21,120s-5.67,8.45-5.67,25.88,5.19,21.78,24.11,21.78,24.12-4.36,24.12-21.78S136.09,120,136.09,120Z"/><ellipse class="cls-8" cx="117.65" cy="107.86" rx="27.02" ry="20.46"/><ellipse class="cls-9" cx="117.65" cy="117.01" rx="13.91" ry="10.53"/><circle class="cls-9" cx="103.75" cy="102.49" r="3.43"/><circle class="cls-9" cx="131.56" cy="102.49" r="3.43"/><circle class="cls-8" cx="100.31" cy="160.36" r="9.9"/><circle class="cls-8" cx="134.99" cy="160.36" r="9.9"/><circle class="cls-9" cx="100.31" cy="160.36" r="7.64"/><circle class="cls-9" cx="134.99" cy="160.36" r="7.64"/><path class="cls-8" d="M117.65,109.4s-6-.2-6,3.7,6,5.47,6,5.47,6-1.58,6-5.47S117.65,109.4,117.65,109.4Z"/><path class="cls-10" d="M233.94,124.59v23.16c0,.69,0,1.38,0,2.07,0,.26,0,.52,0,.77v.08c-.07,1.67-.19,3.33-.38,5H137.58a15.39,15.39,0,0,1-9-5.42,15.9,15.9,0,0,1-3.63-10.1,15.52,15.52,0,0,1,12.65-15.25v-.27Z"/><path class="cls-10" d="M110.19,140.11a15.9,15.9,0,0,1-3.63,10.1,15.39,15.39,0,0,1-9,5.42H1.61c-.18-1.66-.31-3.34-.38-5a1.21,1.21,0,0,1,0-.19c0-.2,0-.4,0-.6,0-.68,0-1.36,0-2.05v-6.82a4,4,0,0,0,.45-2.22,72.48,72.48,0,0,1-.44-8v-6.14H97.54v.27A15.52,15.52,0,0,1,110.19,140.11Z"/><circle class="cls-2" cx="136.53" cy="134.3" r="15.51"/><path class="cls-5" d="M233.94,118.8v29c0,.69,0,1.38,0,2.07H133.66v-31Z"/><circle class="cls-2" cx="98.7" cy="134.3" r="15.51"/><path class="cls-5" d="M101.5,118.79v31H1.65a3.39,3.39,0,0,1-.45,0c0-.68,0-1.36,0-2.05v-29Z"/></g></g></svg>