<svg xmlns="http://www.w3.org/2000/svg" viewBox="0 0 263.27 181.85"><defs><style>.cls-1{fill:#426996;}.cls-2{fill:#1b3760;}.cls-3{fill:#2d4b87;}.cls-4{fill:#162c51;}.cls-5{fill:#3d260e;}.cls-6{fill:#10213a;}.cls-7{fill:#fff;}.cls-8{fill:#845020;}.cls-9{fill:#a88465;}</style></defs><g id="Camada_2" data-name="Camada 2"><g id="Layer_1" data-name="Layer 1"><path class="cls-1" d="M222.33,38.82a40.94,40.94,0,1,0,40.94,40.94A40.94,40.94,0,0,0,222.33,38.82Zm0,69.25a28.31,28.31,0,1,1,28.32-28.31A28.3,28.3,0,0,1,222.33,108.07Z"/><path class="cls-2" d="M111.17,26.58,0,23s4.46,75.61,11.43,100.6c5.43,19.45,24.3,57.87,99.24,58.21h1c74.94-.34,93.81-38.76,99.24-58.21,7-25,11.43-100.6,11.43-100.6Z"/><ellipse class="cls-3" cx="111.17" cy="23.03" rx="111.17" ry="23.03"/><path class="cls-4" d="M212.69,21.57c0,3.14-4.94,6.09-13.58,8.62-17.56,5.16-50.37,8.63-87.94,8.63s-70.39-3.47-87.95-8.63c-8.64-2.53-13.58-5.48-13.58-8.62C9.64,12,55.09,4.32,111.17,4.32S212.69,12,212.69,21.57Z"/><path class="cls-5" d="M199.11,30.19c-17.56,5.16-50.37,8.63-87.94,8.63s-70.39-3.47-87.95-8.63l.16,0c8-2.34,19.19-4.33,32.51-5.8,14.08-1.12,32.37-2.17,55.28-2.78,37.57,0,70.38,3.47,87.93,8.62Z"/><path class="cls-6" d="M113.64,124.24a54.5,54.5,0,0,1-11.86-1.32,57.6,57.6,0,0,1-18.09-7.3,3.58,3.58,0,0,1,4-5.94A51.85,51.85,0,0,0,103.41,116a48.23,48.23,0,0,0,10.4,1.18A43.21,43.21,0,0,0,138,109.67a3.57,3.57,0,1,1,3.94,6A50.36,50.36,0,0,1,113.64,124.24Z"/><path class="cls-1" d="M145,109.29a6.1,6.1,0,0,0-8.45-1.73,40.64,40.64,0,0,1-22.76,7,45.11,45.11,0,0,1-9.85-1.12,49.43,49.43,0,0,1-14.91-5.91,6,6,0,0,0-3.37-1,6.1,6.1,0,0,0-3.4,11.16,59.19,59.19,0,0,0,19,7.67,57.07,57.07,0,0,0,12.4,1.39,53,53,0,0,0,29.66-9,6.11,6.11,0,0,0,1.73-8.45Zm-4.51,4.23a48,48,0,0,1-26.88,8.2,52.48,52.48,0,0,1-11.3-1.26,54.42,54.42,0,0,1-17.23-6.94,1,1,0,0,1-.29-1.45,1.06,1.06,0,0,1,1.47-.29,53.4,53.4,0,0,0,16.59,6.65,50.62,50.62,0,0,0,10.94,1.23,45.61,45.61,0,0,0,25.54-7.88,1,1,0,0,1,1.46.29A1,1,0,0,1,140.51,113.52Z"/><circle class="cls-7" cx="93.26" cy="83.76" r="19.55"/><circle class="cls-6" cx="93.89" cy="82.71" r="8.83"/><circle class="cls-7" cx="132.65" cy="83.76" r="19.55"/><circle class="cls-6" cx="133.28" cy="82.71" r="8.83"/><circle class="cls-1" cx="56.23" cy="100.64" r="5.91"/><circle class="cls-1" cx="169.71" cy="100.64" r="5.91"/><path class="cls-8" d="M199.11,30.19s-25.44,1.89-38.45,0-26.36,4.82-42,3.52,22.45-3.26-9.11-8.14S25.9,30.94,25.9,30.94l-2.52-.79c8-2.34,19.19-4.33,32.51-5.8,14.08-1.12,32.37-2.17,55.28-2.78,37.57,0,70.38,3.47,87.93,8.62Z"/><ellipse class="cls-5" cx="132.43" cy="28.66" rx="3.09" ry="1.54"/><ellipse class="cls-5" cx="124.62" cy="24.52" rx="4.72" ry="1.48"/><ellipse class="cls-5" cx="148.42" cy="26.75" rx="6.14" ry="1.91"/><ellipse class="cls-5" cx="136.66" cy="24.68" rx="1.14" ry="0.57"/><ellipse class="cls-5" cx="140.16" cy="29.36" rx="1.63" ry="1.26"/><ellipse class="cls-5" cx="171.11" cy="28.1" rx="7.04" ry="2.1"/><ellipse class="cls-5" cx="161.15" cy="26.56" rx="1.38" ry="0.56"/><ellipse class="cls-5" cx="102.06" cy="23.32" rx="2.3" ry="0.52"/><path class="cls-9" d="M121.69,24.31a6.84,6.84,0,0,1,4.7-.24c.3.07.43-.4.13-.47a7.39,7.39,0,0,0-5.08.29c-.28.15,0,.57.25.42Z"/><path class="cls-9" d="M143.55,26.66c2.25-1.25,4.91-1.16,7.4-.92.31,0,.31-.46,0-.49-2.58-.24-5.31-.3-7.65,1-.27.15,0,.57.25.42Z"/><path class="cls-9" d="M130.62,28.4a7.77,7.77,0,0,1,3.59,0c.3.1.43-.37.13-.47a8.21,8.21,0,0,0-3.85,0c-.31.06-.18.53.13.47Z"/><path class="cls-9" d="M136.24,25l.17,0h-.06a2.07,2.07,0,0,1,.43,0,.25.25,0,0,0,.25-.24.26.26,0,0,0-.25-.25,2.54,2.54,0,0,0-.67.06.24.24,0,0,0-.15.11.25.25,0,0,0,0,.19.24.24,0,0,0,.11.15.31.31,0,0,0,.19,0Z"/><path class="cls-9" d="M139.28,29.54a.39.39,0,0,1,.18-.24.93.93,0,0,1,.41-.11,2.8,2.8,0,0,1,1,.07.25.25,0,0,0,.3-.17.24.24,0,0,0-.17-.3,2,2,0,0,0-.64-.09,3.43,3.43,0,0,0-.64,0,1,1,0,0,0-.91.69.24.24,0,0,0,.47.13Z"/><path class="cls-9" d="M165.12,27.64a21.11,21.11,0,0,1,10.56.33.24.24,0,0,0,.13-.47A21.68,21.68,0,0,0,165,27.17c-.31.06-.18.53.13.47Z"/><path class="cls-9" d="M160.4,26.74a3.82,3.82,0,0,1,.57-.11c-.05,0,0,0,0,0h.51a.26.26,0,0,0,.25-.25.25.25,0,0,0-.25-.24,5.7,5.7,0,0,0-1.24.17.24.24,0,0,0-.17.3.25.25,0,0,0,.3.17Z"/><path class="cls-9" d="M100.57,23.42a1.84,1.84,0,0,1,.66-.12c.23,0,.47,0,.7,0a6.62,6.62,0,0,1,1.4.24.24.24,0,0,0,.13-.47,7,7,0,0,0-1.58-.26,3.43,3.43,0,0,0-1.56.18.24.24,0,0,0-.09.33.26.26,0,0,0,.34.09Z"/></g></g></svg>