<svg xmlns="http://www.w3.org/2000/svg" viewBox="0 0 301.2 185.51"><defs><style>.cls-1{fill:#a3bed3;}.cls-2{fill:#628196;}.cls-3{fill:#89a3ba;}.cls-4{fill:#914e22;}.cls-5{fill:#ed9b5f;}</style></defs><g id="Camada_2" data-name="Camada 2"><g id="Layer_1" data-name="Layer 1"><path class="cls-1" d="M51.32,12.74s181.58-37,243.93,15.12c0,0,27.59,131.86-43.22,145.08,0,0-153.53,22.51-225.94-22.78C26.09,150.16-1,84.88,51.32,12.74Z"/><path class="cls-2" d="M281,37.42s-36,75.15-22.08,112.58C258.9,150,291.79,104.89,281,37.42Z"/><path class="cls-1" d="M46.17,20.22a12.61,12.61,0,0,0,.15-1.45,21.06,21.06,0,0,0-1-7.83s-3.6-9.6,12.08.64L58.62,25.1Z"/><path class="cls-1" d="M296,36.6s.2-4.32.47-5.55a28.48,28.48,0,0,1,3.93-10.35s6.5-9.38-18.19-1.68L277,29.44Z"/><path class="cls-1" d="M264.26,164.94a45.61,45.61,0,0,0-2.4,4.58,29,29,0,0,0-1.59,10.78s1.26,14.09-15.83-5.31l.37-14.31Z"/><path class="cls-3" d="M246.52,160.15A406.32,406.32,0,0,1,43.38,149.59c-2.9-.92-3.69-.17-.89.87A353.1,353.1,0,0,0,134,170.87c37.93,3.49,80.11,0,113.12-9.71C249.75,160.4,249.28,159.58,246.52,160.15Z"/><path class="cls-1" d="M24.37,142.58s-.07.55-.27,1.43a21.14,21.14,0,0,1-3.18,7.23s-6.21,8.16,11.76,2.84l5-12.6Z"/><path class="cls-4" d="M24,108.72s-24,10-24,23.71S12.83,144,15.62,144,24,140.1,24,108.72Z"/><path class="cls-4" d="M82.4,108.72s24,10,24,23.71S93.56,144,90.77,144,82.4,140.1,82.4,108.72Z"/><ellipse class="cls-4" cx="26.12" cy="60.78" rx="13.5" ry="11.3" transform="translate(-26.89 21.2) rotate(-30)"/><ellipse class="cls-5" cx="26.89" cy="61.55" rx="11.37" ry="9.52" transform="translate(-27.17 21.69) rotate(-30)"/><ellipse class="cls-4" cx="82.3" cy="60.78" rx="11.3" ry="13.5" transform="translate(-11.49 101.66) rotate(-60)"/><ellipse class="cls-5" cx="81.85" cy="61.55" rx="9.52" ry="11.37" transform="translate(-12.38 101.66) rotate(-60)"/><path class="cls-4" d="M84,105.79l-29.22-13-29.22,13s-9,13.39-9,41,8.23,34.52,38.22,34.52S93,174.42,93,146.8,84,105.79,84,105.79Z"/><ellipse class="cls-4" cx="54.82" cy="86.61" rx="42.82" ry="32.43"/><ellipse class="cls-5" cx="54.82" cy="101.12" rx="22.04" ry="16.69"/><circle class="cls-5" cx="32.78" cy="78.1" r="5.44"/><circle class="cls-5" cx="76.86" cy="78.1" r="5.44"/><circle class="cls-4" cx="27.34" cy="169.81" r="15.69"/><circle class="cls-4" cx="82.3" cy="169.81" r="15.69"/><circle class="cls-5" cx="27.34" cy="169.81" r="12.1"/><circle class="cls-5" cx="82.3" cy="169.81" r="12.1"/><path class="cls-4" d="M54.82,89.05s-9.45-.31-9.45,5.86,9.45,8.68,9.45,8.68,9.45-2.51,9.45-8.68S54.82,89.05,54.82,89.05Z"/><circle class="cls-5" cx="11.65" cy="134" r="7.85"/><circle class="cls-5" cx="95.81" cy="134" r="7.85"/></g></g></svg>