<svg xmlns="http://www.w3.org/2000/svg" viewBox="0 0 178.94 322.63"><defs><style>.cls-1{fill:#2c4b87;}.cls-2{fill:#1a2d50;}.cls-3{fill:#1a1a1a;}.cls-4{fill:#385e93;}.cls-5{fill:#121f33;}.cls-6{opacity:0.77;}.cls-7{fill:#afd9e5;}.cls-8{opacity:0.23;}.cls-9{fill:#414143;}.cls-10{opacity:0.46;}.cls-11{fill:#fff;}.cls-12{opacity:0.54;}.cls-13{fill:#ecf5f6;}.cls-14{fill:#e27933;}.cls-15{fill:#cb6e2c;}.cls-16{fill:#152239;}</style></defs><g id="Camada_2" data-name="Camada 2"><g id="Layer_1" data-name="Layer 1"><path class="cls-1" d="M109.47,282.62S98.62,272.63,94,280c-4.48,7.11,9.45,4.8,7.48,11l11.45.93Z"/><path class="cls-1" d="M71.67,0c-8.93,0-12,3.69-12,3.69l4.23,20.78H79.45L83.68,3.69S80.61,0,71.67,0Z"/><path class="cls-2" d="M79.45,24.45c0,1.47-3.32,2.66-7.67,2.66s-7.87-1.19-7.87-2.66,3.53-2.66,7.87-2.66S79.45,23,79.45,24.45Z"/><path class="cls-3" d="M73.57,25.35v85.77A1.87,1.87,0,0,1,71.7,113a1.36,1.36,0,0,1-.41,0,1.9,1.9,0,0,1-.87-.44,1.85,1.85,0,0,1-.61-1.38V25.35A1.85,1.85,0,0,1,70.42,24a1.9,1.9,0,0,1,.87-.44,1.36,1.36,0,0,1,.41-.05A1.87,1.87,0,0,1,73.57,25.35Z"/><path class="cls-1" d="M80.57,112.67s-1.79-2.11-9.28-2.11S62,112.67,62,112.67l-5.78,26.06,15.05-.67,15,.67Z"/><path class="cls-4" d="M71.29,136.92C19,136.92,0,198.29,0,198.29H142.59S123.54,136.92,71.29,136.92Z"/><path class="cls-5" d="M139.72,198.28c-3.27,2.93-22.52,6.74-52.94,7.74-.75,0-1.5,0-2.27.06l-1.56,0-3.26.07-3.11.05h0c-1.73,0-3.48,0-5.28,0-5.43,0-10.6-.1-15.48-.25-30.42-1-49.68-4.81-52.95-7.74,3.42-3,24.24-7.06,57-7.82l-.32.41a16.15,16.15,0,0,0-1.72,2.23c3-.08,6.12-.14,9.36-.16,1.37,0,2.75,0,4.15,0s2.83,0,4.21,0c3.23,0,6.33.08,9.31.16a16.15,16.15,0,0,0-1.72-2.23l-.32-.41C115.49,191.22,136.31,195.24,139.72,198.28Z"/><path class="cls-2" d="M80.85,187.81c.77,1.15,1.5,2.13,1.92,2.65l.32.41a16.15,16.15,0,0,1,1.72,2.23c24,.68,40,3.05,48,5.18-7.64,2.07-22.89,4.37-45.5,5.12l-2.26.07-2.05.05-2.38,0h0c-.77,0-1.53,0-2.32,0h0c-2.25,0-4.55,0-6.94,0-5.67,0-11-.09-16-.26-22.61-.75-37.86-3.05-45.5-5.12,7.92-2.13,24-4.5,48-5.18a16.15,16.15,0,0,1,1.72-2.23l.32-.41c.42-.52,1.15-1.5,1.92-2.65C26.88,188.5,0,192.93,0,198.28c0,5.11,24.38,9.38,56.79,10.37q7,.21,14.5.22h2.4c1.25,0,2.5,0,3.72,0h0c1.51,0,3,0,4.48-.08h0l1.52,0c.8,0,1.58,0,2.36-.06,32.41-1,56.79-5.26,56.79-10.37C142.59,192.93,115.71,188.5,80.85,187.81Z"/><g class="cls-6"><path class="cls-7" d="M84.81,193.1c-3-.08-6.08-.14-9.31-.16-1.38,0-2.79,0-4.21,0s-2.78,0-4.15,0c-3.24,0-6.37.08-9.36.16a15.87,15.87,0,0,0-2.54,8.66,14.65,14.65,0,0,0,.08,1.64,16.16,16.16,0,0,0,.49,2.62,15.09,15.09,0,0,0,1,2.63,16.06,16.06,0,0,0,30.48-5.25c0-.53.08-1.08.08-1.64A16,16,0,0,0,84.81,193.1Z"/></g><g class="cls-8"><path class="cls-9" d="M79.8,196.56v0a4.73,4.73,0,0,0-2-2.52,9,9,0,0,0-2.33-1.08c-1.38,0-2.79,0-4.21,0s-2.78,0-4.15,0A9,9,0,0,0,64.81,194a4.3,4.3,0,0,0-2.07,3.35,2.32,2.32,0,0,0,4,1.59c1-1,1.69-3.15,2.13-5.55a16.7,16.7,0,0,1,4.89,0c.43,2.4,1.1,4.52,2.12,5.55a2.27,2.27,0,0,0,1.62.73,2.35,2.35,0,0,0,2-1h0a2.34,2.34,0,0,0,.39-1.33A2.87,2.87,0,0,0,79.8,196.56Zm-13.65,1.81a1.41,1.41,0,0,1-1,.49,1.43,1.43,0,0,1-1.55-1.49,3.51,3.51,0,0,1,1.71-2.66A8.12,8.12,0,0,1,68,193.58C67.54,196,66.92,197.59,66.15,198.37Zm11.36.49a1.43,1.43,0,0,1-1-.49c-.76-.78-1.38-2.41-1.84-4.79a8.31,8.31,0,0,1,2.71,1.13,3.51,3.51,0,0,1,1.71,2.66A1.43,1.43,0,0,1,77.51,198.86Z"/></g><path class="cls-2" d="M83.09,190.87l-.32-.41c-.42-.52-1.15-1.5-1.92-2.65-2.26-.05-4.57-.07-6.9-.09H68.69c-2.36,0-4.68,0-6.95.09-.77,1.15-1.5,2.13-1.92,2.65l-.32.41a16.15,16.15,0,0,0-1.72,2.23c3-.08,6.12-.14,9.36-.16,1.37,0,2.75,0,4.15,0s2.83,0,4.21,0c3.23,0,6.33.08,9.31.16A16.15,16.15,0,0,0,83.09,190.87Z"/><g class="cls-10"><path class="cls-11" d="M78,204c2.67-5,.59-11.48,4.17-9.1,1.57,1.07,3.35,4.78,2.77,8.91-.41,4.08-3.19,8.58-6.69,10.25-3.55,1.84-6.3,1-7.51,0a1.94,1.94,0,0,1-.36-3C71.75,209.45,75.25,209.17,78,204Z"/></g><g class="cls-12"><path class="cls-11" d="M79.62,206.35c1.5-2.62.8-6,2.4-4.77.7.55,1.38,2.48.92,4.63a9.13,9.13,0,0,1-4,5.67c-1.77,1-3,.54-3.57,0a1.06,1.06,0,0,1,0-1.57C76,209.5,78.06,209,79.62,206.35Z"/></g><path class="cls-13" d="M14.32,187.71a130.47,130.47,0,0,1,29-3.74s8.14-34.51,21.16-41.51C64.46,142.46,34,142.46,14.32,187.71Z"/><path class="cls-14" d="M112.45,293.39a26.86,26.86,0,0,0-10.22-4.34c-6.11-.94-6.55-15.62-6.56-16.25V193.58H97v79.2c.1,3.94,1.27,14.34,5.46,15a27.7,27.7,0,0,1,10.8,4.57Z"/><circle class="cls-15" cx="96.32" cy="197.01" r="1.49"/><circle class="cls-15" cx="96.32" cy="201.46" r="1.49"/><circle class="cls-15" cx="96.32" cy="206.13" r="1.49"/><circle class="cls-15" cx="96.32" cy="210.8" r="1.49"/><circle class="cls-15" cx="96.32" cy="215.46" r="1.49"/><circle class="cls-15" cx="96.32" cy="220.13" r="1.49"/><circle class="cls-15" cx="96.32" cy="224.58" r="1.49"/><circle class="cls-15" cx="96.32" cy="229.24" r="1.49"/><circle class="cls-15" cx="96.32" cy="233.91" r="1.49"/><circle class="cls-15" cx="96.32" cy="238.58" r="1.49"/><circle class="cls-15" cx="96.32" cy="243.24" r="1.49"/><circle class="cls-15" cx="96.32" cy="247.91" r="1.49"/><circle class="cls-15" cx="96.32" cy="252.57" r="1.49"/><circle class="cls-15" cx="96.32" cy="257.24" r="1.49"/><circle class="cls-15" cx="96.32" cy="261.69" r="1.49"/><circle class="cls-15" cx="96.32" cy="266.35" r="1.49"/><circle class="cls-15" cx="96.32" cy="271.02" r="1.49"/><circle class="cls-15" cx="96.51" cy="275.69" r="1.49"/><circle class="cls-15" cx="97.27" cy="280.22" r="1.49"/><circle class="cls-15" cx="98.54" cy="284.29" r="1.49"/><circle class="cls-15" cx="101.17" cy="287.95" r="1.49"/><circle class="cls-15" cx="105.27" cy="289.31" r="1.49"/><circle class="cls-15" cx="109.05" cy="290.8" r="1.49"/><circle class="cls-15" cx="112.84" cy="292.83" r="1.49"/><path class="cls-16" d="M102.14,289.52a18.81,18.81,0,0,1,3.65-.54c1.21,0,2.42,0,3.64-.06.15,0,.15-.24,0-.23-1.25,0-2.51,0-3.76.06a18.23,18.23,0,0,0-3.59.55c-.15,0-.08.26.06.22Z"/><path class="cls-1" d="M89.43,284.81c-2.25.65-4.24,2.37-5.63,6.14a40.32,40.32,0,0,0,0,24.65c1.38,3.73,3.66,5.67,5.6,6.07h0s8,1.47,13.93.78h6c14.45,0,20.62-8.59,20.62-19.19s-11.23-19.82-25.54-19.94a8.1,8.1,0,0,0-1.49,0A75.21,75.21,0,0,0,89.43,284.81Z"/><polygon class="cls-2" points="178.94 282.53 178.33 322.44 109.42 322.45 109.41 282.54 178.94 282.53"/><path class="cls-16" d="M93.73,284.16c1.69-.23,3.38-.43,5.13-.52s3.43-.17,5.15-.25c.21,0,.2-.14,0-.13-1.77.08-3.54.15-5.3.25s-3.39.3-5.06.53c-.21,0-.11.15.09.12Z"/></g></g></svg>