<svg xmlns="http://www.w3.org/2000/svg" viewBox="0 0 198.42 289.72"><defs><style>.cls-1{fill:#fff;}.cls-2{fill:#0a1423;}.cls-3{fill:#ebebed;}.cls-4{fill:none;stroke:#9b9b9b;stroke-miterlimit:10;stroke-width:1.29px;}.cls-5{opacity:0.47;}.cls-6{fill:#251c17;}.cls-7{fill:#fcfcfc;opacity:0.06;}.cls-8{fill:#2d4b87;}.cls-9{fill:#10213a;}.cls-10{fill:#1b345e;}.cls-11{fill:#426996;}.cls-12{fill:#4b6f9b;}.cls-13{fill:#0a1321;opacity:0.5;}.cls-14{opacity:0.22;}</style></defs><g id="Camada_2" data-name="Camada 2"><g id="Layer_1" data-name="Layer 1"><path class="cls-1" d="M173.46,13V85.66c-25.12-26.95-74.52-27-74.52-27s-48.78.07-74,26.52V13.53C24.9,5.3,30.19,0,38.39,0h122C168,0,173.46,5.42,173.46,13Z"/><path class="cls-1" d="M173.46,91.16V276.71c0,7.54-5.34,13-12.88,13-19.66,0-103,0-122.2,0-8.23,0-13.48-5.27-13.48-13.52V175.81c1.23.76,2.51,1.53,3.86,2.3l-3.86-2.3V90.58c.54-.67,1.11-1.33,1.69-2,7-7.65,16.71-13.83,29-18.36a137.85,137.85,0,0,1,29.71-7,125.85,125.85,0,0,1,13.62-1,125.68,125.68,0,0,1,13.62,1,138.05,138.05,0,0,1,29.72,7c12.3,4.53,22.06,10.71,29,18.36C172,89.44,172.77,90.29,173.46,91.16Z"/><rect class="cls-2" x="35.3" y="27.66" width="128.69" height="231.97"/><circle class="cls-3" cx="99.64" cy="274.11" r="9.6"/><circle class="cls-4" cx="99.64" cy="274.11" r="9.6"/><g class="cls-5"><rect class="cls-6" x="63.86" y="10.32" width="71.56" height="5.38" rx="2.65"/></g><polygon class="cls-7" points="120.17 28.33 63.86 259.63 130.83 259.63 163.99 102.24 163.99 27.66 120.17 28.33"/><path class="cls-8" d="M165.75,154.36c-8.89,0-19.78-3.93-31.31-8.08-12.07-4.35-24.56-8.84-35.49-8.92h0c-10.93.08-23.41,4.57-35.48,8.92-11.53,4.15-22.43,8.08-31.32,8.08-6.58,0-11.17-2.14-14.43-6.73-3.84-5.4-5.79-14.48-5.79-27,0-14.34,4.51-26.56,13.41-36.33,7.17-7.86,17.21-14.2,29.83-18.83,21.66-7.94,43.58-8.06,43.79-8.06s22.22.13,43.88,8.09c12.6,4.63,22.61,11,29.77,18.84,8.88,9.75,13.38,22,13.38,36.29,0,12.51-1.95,21.59-5.79,27-3.26,4.58-7.84,6.72-14.43,6.72Z"/><ellipse class="cls-9" cx="98.73" cy="114.76" rx="18.75" ry="9.97"/><path class="cls-10" d="M24.9,166.47v9.34C-22.2,146.42,12,116.66,12,116.66l.19,10c-.24.4-.46.8-.68,1.2C-.63,150,16.72,162.2,24.9,166.47Z"/><circle class="cls-11" cx="47.27" cy="111.27" r="5.38"/><circle class="cls-11" cx="150.61" cy="111.27" r="5.38"/><path class="cls-9" d="M116.28,97.64c-4.72,0-10.19-1.67-15.61-7a1.73,1.73,0,1,1,2.43-2.45c5.66,5.63,12,7.35,18.83,5.12a25.31,25.31,0,0,0,8.79-5.13,1.72,1.72,0,0,1,2.4,2.47A28.61,28.61,0,0,1,123,96.54,21.83,21.83,0,0,1,116.28,97.64Z"/><path class="cls-9" d="M79.35,97.53c-4.71,0-10.19-1.67-15.6-7A1.73,1.73,0,0,1,66.18,88c5.63,5.6,11.93,7.33,18.72,5.15A25.5,25.5,0,0,0,93.8,88a1.72,1.72,0,0,1,2.4,2.47,28.56,28.56,0,0,1-10.12,5.94A21.85,21.85,0,0,1,79.35,97.53Z"/><ellipse class="cls-12" cx="98.73" cy="119.74" rx="15.1" ry="4.98"/><path class="cls-11" d="M98.73,126.45c-11.48,0-20.47-5.14-20.47-11.69s9-11.69,20.47-11.69,20.48,5.13,20.48,11.69S110.22,126.45,98.73,126.45Zm0-19.94c-10.18,0-17,4.27-17,8.25s6.85,8.24,17,8.24,17-4.26,17-8.24S108.92,106.51,98.73,106.51Z"/><path class="cls-9" d="M99.18,114.76a4.41,4.41,0,0,0-3.84,4.48s3.61-4.3,7.43-4.3.72-4.22.72-4.22Z"/><path class="cls-13" d="M24.9,166.47v3.11c-34.36-17.65-14.78-45.49-14.78-45.49l1.38,3.73C-.63,150,16.72,162.2,24.9,166.47Z"/><path class="cls-10" d="M173.52,166.47v9.34c47.1-29.39,12.91-59.15,12.91-59.15l-.19,10c.24.4.46.8.68,1.2C199,150,181.7,162.2,173.52,166.47Z"/><path class="cls-13" d="M173.52,166.47v3.11c34.35-17.65,14.22-46.43,14.22-46.43l-.82,4.67C199,150,181.7,162.2,173.52,166.47Z"/><path class="cls-14" d="M165.75,155.58c-8.57,0-19.33-3.87-30.71-8-12.21-4.4-24.84-9-36.07-9h0c-11.24.08-23.87,4.63-36.08,9-11.38,4.1-22.13,8-30.71,8a18.54,18.54,0,0,1-7.23-1.28v3.83a23.45,23.45,0,0,0,7.23,1c18.79,0,46-16.84,66.81-17,20.82.16,48,17,66.81,17a22.88,22.88,0,0,0,7.71-1.2v-3.88A18,18,0,0,1,165.75,155.58Z"/><path class="cls-11" d="M98.94,59.21a125.68,125.68,0,0,1,13.62,1,136.86,136.86,0,0,1,29.72,7c12.3,4.53,22.06,10.71,29,18.36a48.31,48.31,0,0,1,9.33,15,55,55,0,0,1,3.55,20.07c0,12.13-1.83,20.86-5.45,26-2.9,4.07-7,6-13,6-8.58,0-19.33-3.87-30.71-8-12.21-4.4-24.84-9-36.07-9h0c-11.24.08-23.87,4.63-36.08,9-11.38,4.1-22.13,8-30.71,8-6,0-10.07-1.9-13-6-3.62-5.09-5.46-13.83-5.46-25.95a55.19,55.19,0,0,1,3.55-20.07,48.5,48.5,0,0,1,9.33-15c7-7.65,16.71-13.83,29-18.36a136.66,136.66,0,0,1,29.71-7,125.85,125.85,0,0,1,13.62-1m0-3.59s-88.82.13-88.82,65c0,27.41,9,35.51,22,35.51,18.79,0,46-16.84,66.81-17,20.82.16,48,17,66.81,17,13,0,22-8.1,22-35.51,0-64.89-88.83-65-88.83-65Z"/></g></g></svg>