<svg xmlns="http://www.w3.org/2000/svg" viewBox="0 0 228.38 228.38"><defs><style>.cls-1{fill:#edf6f7;}.cls-2{opacity:0.5;}.cls-3{fill:#f2b446;}.cls-4{fill:#b7632a;}.cls-5{fill:#a22;}.cls-6{fill:#f29b27;}.cls-7{opacity:0.28;}.cls-8{opacity:0.09;}.cls-9{fill:#5cbf6d;}.cls-10{opacity:0.11;}.cls-11{fill:#ffc357;}.cls-12{fill:#7f735f;}.cls-13{fill:#6c96d8;}.cls-14{fill:none;stroke:#000;stroke-miterlimit:10;stroke-width:2.37px;opacity:0.37;}</style></defs><g id="Camada_2" data-name="Camada 2"><g id="Layer_1" data-name="Layer 1"><circle class="cls-1" cx="114.19" cy="121.78" r="104.76"/><g class="cls-2"><rect x="111.39" y="22.91" width="5.17" height="20.67" rx="2.59"/></g><g class="cls-2"><rect x="111.39" y="184.15" width="5.17" height="20.67" rx="2.59"/></g><g class="cls-2"><rect x="23.02" y="111.28" width="20.67" height="5.17" rx="2.59"/></g><g class="cls-2"><rect x="184.26" y="111.28" width="20.67" height="5.17" rx="2.59"/></g><path class="cls-3" d="M159.91,136.55V140a4.43,4.43,0,0,1-4.42,4.41h-83A4.42,4.42,0,0,1,68,140v-3.43a4.43,4.43,0,0,1,4.41-4.42h83a4.43,4.43,0,0,1,4.42,4.42Z"/><path class="cls-4" d="M159.91,125.84v2.23a4.07,4.07,0,0,1-4.06,4.06H72.09a4.06,4.06,0,0,1-4-4.06v-2.23a4,4,0,0,1,.84-2.47,4.12,4.12,0,0,1,2-1.39,4,4,0,0,1,1.25-.2h83.76a3.94,3.94,0,0,1,1.25.2,4.06,4.06,0,0,1,2.81,3.86Z"/><path class="cls-5" d="M159.91,115.69v2.24a4.07,4.07,0,0,1-4.06,4H72.09a4.06,4.06,0,0,1-4-4v-2.24a4.07,4.07,0,0,1,4-4h83.76a4.07,4.07,0,0,1,4.06,4Z"/><polygon class="cls-6" points="101.78 122.01 105.82 130.62 122.83 122.01 101.78 122.01"/><polygon class="cls-6" points="80.49 122.01 86.23 130.62 110.39 122.01 80.49 122.01"/><path class="cls-7" d="M159.07,123.37H68.88a4.12,4.12,0,0,1,2-1.39H157.1A4.15,4.15,0,0,1,159.07,123.37Z"/><path class="cls-7" d="M158.7,133.52H69.25a4.39,4.39,0,0,1,3.2-1.39h83A4.43,4.43,0,0,1,158.7,133.52Z"/><path class="cls-8" d="M158.87,113c-.53,2.06-2.32,7.77-6,8.09l-.32,0a2.93,2.93,0,0,1-2.93-2.93s0-4.73-4.67-4.73-4.66,4.67-4.66,4.67a2.93,2.93,0,0,1-3,3H137a2.93,2.93,0,0,1-2.93-2.93s0-4.68-4.61-4.72-4.6,4.72-4.6,4.72A2.93,2.93,0,0,1,122,121.1h-.18a2.93,2.93,0,0,1-3-3s0-.16,0-.43v.43s0-4.67-4.67-4.67-4.66,4.73-4.66,4.73a2.93,2.93,0,0,1-2.93,2.93h-.18a2.93,2.93,0,0,1-3.05-3s0-.16,0-.43v.43s0-4.67-4.67-4.67-4.66,4.73-4.66,4.73a2.93,2.93,0,0,1-2.93,2.93h-.18a2.93,2.93,0,0,1-3-3s0-4.67-4.67-4.67-4.66,4.73-4.66,4.73a2.94,2.94,0,0,1-2.94,2.93l-.32,0c-3.71-.32-5.49-6-6-8.09a4,4,0,0,1,3-1.35h83.76A4.07,4.07,0,0,1,158.87,113Z"/><path class="cls-9" d="M159.34,110l-.3,1.44s0,.22-.13.59c-.48,1.92-2.26,7.92-6.07,8.24l-.32,0a2.93,2.93,0,0,1-2.93-2.93s0-2.92-2.27-4.17a4.87,4.87,0,0,0-2.4-.55,4.94,4.94,0,0,0-2.41.55c-2.25,1.24-2.25,4.11-2.25,4.11a2.93,2.93,0,0,1-3,3H137a2.93,2.93,0,0,1-2.93-2.93s0-2.92-2.27-4.17a5.23,5.23,0,0,0-4.67,0c-2.27,1.25-2.27,4.17-2.27,4.17a2.93,2.93,0,0,1-2.93,2.93h-.18a2.93,2.93,0,0,1-3-3,4.06,4.06,0,0,0,0-.42v.42s0-2.87-2.25-4.11a5,5,0,0,0-2.42-.55,4.85,4.85,0,0,0-2.39.55c-2.27,1.25-2.27,4.17-2.27,4.17a2.93,2.93,0,0,1-2.93,2.93h-.18a2.93,2.93,0,0,1-3.05-3,4.06,4.06,0,0,0,0-.42v.42s0-2.87-2.26-4.11a5.51,5.51,0,0,0-4.8,0c-2.27,1.25-2.27,4.17-2.27,4.17a2.93,2.93,0,0,1-2.93,2.93h-.18a2.93,2.93,0,0,1-3-3s0-2.87-2.26-4.11a5.53,5.53,0,0,0-4.81,0c-2.26,1.25-2.26,4.17-2.26,4.17a2.94,2.94,0,0,1-2.94,2.93l-.32,0C71.3,120,69.52,114,69,112.06c-.09-.37-.13-.59-.13-.59l-.3-1.44Z"/><path class="cls-10" d="M159.34,110l-.3,1.44s0,.22-.13.59a6.58,6.58,0,0,1-3.8,1.16H72.83A6.55,6.55,0,0,1,69,112.06c-.09-.37-.13-.59-.13-.59l-.3-1.44Z"/><path class="cls-3" d="M155.11,111.83c4.22,0,7.15-3.68,5.66-7.12-5.62-13-24.44-22.49-46.8-22.49S72.8,91.75,67.18,104.71c-1.5,3.44,1.43,7.12,5.65,7.12Z"/><ellipse class="cls-11" cx="109.62" cy="102.47" rx="0.99" ry="2.02" transform="translate(-35.73 139.74) rotate(-57.45)"/><ellipse class="cls-11" cx="119.55" cy="96.77" rx="2.02" ry="0.99" transform="translate(-20.45 160.47) rotate(-63.46)"/><ellipse class="cls-11" cx="108.54" cy="89.95" rx="0.99" ry="2.02" transform="translate(-32.39 93.03) rotate(-40.9)"/><ellipse class="cls-11" cx="96.34" cy="99.48" rx="2.02" ry="0.99" transform="translate(-40.94 81.31) rotate(-38.38)"/><ellipse class="cls-11" cx="90.34" cy="105.22" rx="0.99" ry="2.02" transform="translate(-46.96 124.76) rotate(-57.45)"/><ellipse class="cls-11" cx="91.02" cy="91.91" rx="0.99" ry="2.02" transform="translate(-37.95 82.04) rotate(-40.9)"/><ellipse class="cls-11" cx="78.82" cy="99.48" rx="2.02" ry="0.99" transform="translate(-44.73 70.43) rotate(-38.38)"/><ellipse class="cls-11" cx="136.89" cy="105.98" rx="0.99" ry="2.02" transform="translate(-26.09 164.35) rotate(-57.45)"/><ellipse class="cls-11" cx="146.82" cy="100.28" rx="2.02" ry="0.99" transform="translate(-8.5 186.82) rotate(-63.46)"/><ellipse class="cls-11" cx="135.82" cy="95.42" rx="0.99" ry="2.02" transform="matrix(0.76, -0.65, 0.65, 0.76, -29.31, 112.23)"/><ellipse class="cls-11" cx="127.3" cy="89.95" rx="0.99" ry="2.02" transform="translate(-27.81 105.31) rotate(-40.9)"/><ellipse class="cls-11" cx="123.62" cy="102.99" rx="2.02" ry="0.99" transform="translate(-37.23 99) rotate(-38.38)"/><polygon class="cls-7" points="103.42 125.49 109.62 123.37 106.56 123.37 103.01 124.64 103.42 125.49"/><path class="cls-12" d="M81.57,81.39l26.15,26.15a8,8,0,0,0,4.58,11.06v52.69h5.39V118.6a8.06,8.06,0,1,0-6.16-14.87L85.38,77.58Z"/><path class="cls-13" d="M114.19,228.38A114.19,114.19,0,1,1,228.38,114.19,114.32,114.32,0,0,1,114.19,228.38Zm0-209.51a95.32,95.32,0,1,0,95.32,95.32A95.43,95.43,0,0,0,114.19,18.87Z"/><circle class="cls-14" cx="114.19" cy="114.19" r="96.24"/></g></g></svg>