<svg xmlns="http://www.w3.org/2000/svg" viewBox="0 0 158.6 309.3"><defs><style>.cls-1{fill:#fff;}.cls-2{fill:#f2b446;}.cls-3{fill:#ebebed;}.cls-4{fill:none;stroke:#9b9b9b;stroke-miterlimit:10;stroke-width:1.37px;}.cls-5{opacity:0.47;}.cls-6{fill:#251c17;}.cls-7{fill:#6d3b19;}.cls-8{fill:#cc6e2e;}</style></defs><g id="Camada_2" data-name="Camada 2"><g id="Layer_1" data-name="Layer 1"><path class="cls-1" d="M144.65,0H14.41C5.65,0,0,5.66,0,14.44V294.86c0,8.8,5.61,14.43,14.39,14.43,20.56,0,109.48,0,130.47,0,8,0,13.74-5.82,13.74-13.87V13.87C158.6,5.78,152.79,0,144.65,0Z"/><rect class="cls-2" x="11.1" y="29.53" width="137.39" height="247.64"/><circle class="cls-3" cx="79.8" cy="292.63" r="10.25"/><circle class="cls-4" cx="79.8" cy="292.63" r="10.25"/><g class="cls-5"><rect class="cls-6" x="41.6" y="11.02" width="76.39" height="5.75" rx="2.83"/></g><path class="cls-7" d="M80.37,173.2a46.33,46.33,0,0,1-10.1-1.13,48.9,48.9,0,0,1-15.4-6.22,3,3,0,0,1,1.7-5.57,3,3,0,0,1,1.69.52,44.21,44.21,0,0,0,13.4,5.34,40.74,40.74,0,0,0,8.86,1,36.76,36.76,0,0,0,20.56-6.35,3,3,0,0,1,1.68-.51,3,3,0,0,1,2.53,1.37,3,3,0,0,1-.85,4.22A43,43,0,0,1,80.37,173.2Z"/><path class="cls-8" d="M107.09,160.47a5.19,5.19,0,0,0-7.2-1.48,34.63,34.63,0,0,1-19.37,6,38.47,38.47,0,0,1-8.4-1,42.16,42.16,0,0,1-12.69-5,5.08,5.08,0,0,0-2.87-.88,5.19,5.19,0,0,0-2.89,9.5,50.58,50.58,0,0,0,16.14,6.54,48.67,48.67,0,0,0,10.55,1.18,45.09,45.09,0,0,0,25.26-7.69,5.2,5.2,0,0,0,1.47-7.19Zm-3.84,3.6a40.86,40.86,0,0,1-22.89,7A44.79,44.79,0,0,1,70.74,170a46.75,46.75,0,0,1-14.67-5.91.89.89,0,0,1,.49-1.64.92.92,0,0,1,.51.15,45.4,45.4,0,0,0,14.12,5.67,43.8,43.8,0,0,0,9.33,1,38.76,38.76,0,0,0,21.74-6.71.91.91,0,0,1,1.25.25A.9.9,0,0,1,103.25,164.07Z"/><circle class="cls-1" cx="63.01" cy="138.73" r="16.65"/><circle class="cls-7" cx="63.55" cy="137.83" r="7.52"/><circle class="cls-1" cx="96.56" cy="138.73" r="16.65"/><circle class="cls-7" cx="97.1" cy="137.83" r="7.52"/><circle class="cls-8" cx="31.48" cy="153.1" r="5.03"/><circle class="cls-8" cx="126.71" cy="153.1" r="5.03"/></g></g></svg>