<?xml version="1.0" encoding="UTF-8"?>
<svg xmlns="http://www.w3.org/2000/svg" xmlns:xlink="http://www.w3.org/1999/xlink" width="595.5pt" height="842.249979pt" viewBox="0 0 595.5 842.249979" version="1.2">
<defs>
<clipPath id="clip1">
  <path d="M 157 421 L 308.78125 421 L 308.78125 702.269531 L 157 702.269531 Z M 157 421 "/>
</clipPath>
<clipPath id="clip2">
  <path d="M 275 601 L 308.78125 601 L 308.78125 702.269531 L 275 702.269531 Z M 275 601 "/>
</clipPath>
<clipPath id="clip3">
  <path d="M 449 439 L 556.234375 439 L 556.234375 586 L 449 586 Z M 449 439 "/>
</clipPath>
</defs>
<g id="surface1">
<path style=" stroke:none;fill-rule:nonzero;fill:rgb(18.03894%,21.569824%,49.798584%);fill-opacity:1;" d="M 475.167969 681.097656 L 117.699219 681.097656 C 96.246094 681.097656 78.9375 663.464844 79.433594 642.007812 C 80.625 590.429688 79.640625 534.390625 75.289062 474.589844 C 70.742188 412.109375 63.136719 354.058594 53.871094 300.976562 C 48.171875 268.328125 75.804688 239.664062 108.652344 243.90625 C 168.601562 251.648438 236.398438 256.644531 310.675781 255.933594 C 373.648438 255.335938 431.71875 250.722656 484.042969 243.988281 C 516.976562 239.746094 544.601562 268.738281 538.609375 301.410156 C 529.957031 348.582031 522.6875 400.238281 518.039062 455.898438 C 512.410156 523.324219 511.542969 585.585938 513.417969 641.496094 C 514.140625 663.148438 496.824219 681.097656 475.167969 681.097656 "/>
<path style=" stroke:none;fill-rule:nonzero;fill:rgb(68.238831%,84.309387%,84.709167%);fill-opacity:1;" d="M 113.726562 344.503906 C 67.933594 336.542969 23.015625 340.289062 42.664062 371.867188 C 62.320312 403.445312 96.175781 451.484375 89.453125 472.363281 C 82.726562 493.234375 89.726562 546.039062 184.113281 531.207031 C 278.5 516.375 298.855469 489.640625 298.855469 489.640625 L 113.726562 344.503906 "/>
<path style=" stroke:none;fill-rule:nonzero;fill:rgb(18.03894%,21.569824%,49.798584%);fill-opacity:1;" d="M 138.347656 522.890625 C 138.347656 550.082031 110.71875 592.332031 82.511719 592.332031 C 54.300781 592.332031 36.203125 550.082031 36.203125 522.890625 C 36.203125 495.699219 47.679688 445.75 75.886719 445.75 C 104.097656 445.75 138.347656 495.699219 138.347656 522.890625 "/>
<path style="fill:none;stroke-width:20;stroke-linecap:round;stroke-linejoin:miter;stroke:rgb(36.079407%,59.21936%,58.428955%);stroke-opacity:1;stroke-miterlimit:10;" d="M 896.356212 2611.737878 C 896.356212 2611.737878 808.095527 2620.196664 761.624282 2531.344744 " transform="matrix(0.112637,0,0,-0.112679,36.201315,702.2716)"/>
<path style="fill:none;stroke-width:20;stroke-linecap:round;stroke-linejoin:miter;stroke:rgb(36.079407%,59.21936%,58.428955%);stroke-opacity:1;stroke-miterlimit:10;" d="M 830.186708 2709.048585 C 830.186708 2709.048585 760.202401 2654.586483 673.363597 2704.749858 " transform="matrix(0.112637,0,0,-0.112679,36.201315,702.2716)"/>
<path style=" stroke:none;fill-rule:nonzero;fill:rgb(18.03894%,38.038635%,45.098877%);fill-opacity:1;" d="M 312.855469 411.359375 C 316.589844 415.074219 321.171875 421.351562 328.421875 426.933594 C 378.59375 465.558594 371.289062 486.5 371.289062 489.851562 C 371.289062 554.484375 290.652344 557.742188 234.273438 534.105469 C 194.753906 517.535156 177.355469 471.460938 185.597656 462.519531 C 186.148438 461.925781 186.871094 461.480469 187.785156 461.199219 C 203.878906 456.210938 312.855469 411.359375 312.855469 411.359375 "/>
<path style=" stroke:none;fill-rule:nonzero;fill:rgb(98.429871%,91.758728%,58.428955%);fill-opacity:1;" d="M 214.800781 302.65625 C 233.148438 316.671875 256.1875 311.6875 269.261719 321.972656 C 282.34375 332.25 282.34375 336.605469 286.078125 353.429688 C 289.816406 370.246094 322.234375 408.726562 321.832031 421.074219 C 320.894531 449.949219 228.789062 480.507812 206.996094 476.773438 C 185.199219 473.035156 175.859375 483 170.253906 482.375 C 164.648438 481.753906 145.96875 481.132812 137.875 444.375 C 123.84375 380.679688 104.246094 377.960938 110.773438 355.292969 C 113.882812 344.519531 115.996094 350.390625 136.003906 316.671875 C 148.179688 296.15625 160.910156 271.199219 160.910156 271.199219 L 214.800781 302.65625 "/>
<path style="fill:none;stroke-width:20;stroke-linecap:round;stroke-linejoin:miter;stroke:rgb(36.079407%,59.21936%,58.428955%);stroke-opacity:1;stroke-miterlimit:10;" d="M 989.229342 2280.215867 L 980.039133 2597.975018 C 980.039133 2597.975018 1000.708433 2524.20331 1127.117154 2545.558278 " transform="matrix(0.112637,0,0,-0.112679,36.201315,702.2716)"/>
<path style=" stroke:none;fill-rule:nonzero;fill:rgb(18.03894%,38.038635%,45.098877%);fill-opacity:1;" d="M 187.785156 203.144531 C 223.808594 203.144531 235.484375 240.460938 235.484375 269.597656 C 235.484375 298.734375 268.640625 306.917969 242.488281 306.917969 C 216.332031 306.917969 200.859375 306.917969 200.859375 306.917969 L 187.785156 203.144531 "/>
<path style=" stroke:none;fill-rule:nonzero;fill:rgb(18.03894%,38.038635%,45.098877%);fill-opacity:1;" d="M 189.730469 203.144531 C 153.707031 203.144531 142.03125 237.246094 142.03125 263.878906 C 142.03125 290.507812 108.875 297.988281 135.027344 297.988281 C 161.179688 297.988281 176.660156 297.988281 176.660156 297.988281 L 189.730469 203.144531 "/>
<path style=" stroke:none;fill-rule:nonzero;fill:rgb(18.03894%,38.038635%,45.098877%);fill-opacity:1;" d="M 162.230469 480.808594 C 162.230469 480.808594 146.589844 586.078125 286.078125 543.882812 L 162.230469 480.808594 "/>
<g clip-path="url(#clip1)" clip-rule="nonzero">
<path style=" stroke:none;fill-rule:nonzero;fill:rgb(79.60968%,60.778809%,52.938843%);fill-opacity:1;" d="M 307.238281 647.402344 C 305.316406 657.160156 304.769531 667.15625 305.199219 677.097656 C 305.742188 690.011719 303.40625 702.269531 293.546875 702.269531 C 279.847656 702.269531 281.71875 663.660156 282.972656 644.972656 C 283.363281 639.011719 280.335938 631.164062 275.480469 622.84375 C 265.089844 605.109375 246.28125 585.339844 234.398438 577.695312 C 173.984375 531.589844 162.15625 484.871094 158.421875 464.925781 C 154.6875 445.007812 160.90625 423.195312 174.617188 421.332031 C 188.3125 419.460938 203.40625 428.015625 216.953125 445.007812 C 218.5 446.929688 220.890625 451.097656 223.898438 456.914062 C 229.261719 467.265625 236.585938 482.832031 244.5625 500.25 C 260.871094 535.832031 279.929688 579.09375 290.59375 601.148438 C 293.695312 607.558594 296.085938 612.191406 297.503906 614.304688 C 305.722656 626.640625 311.066406 628.042969 307.238281 647.402344 "/>
</g>
<path style=" stroke:none;fill-rule:nonzero;fill:rgb(79.60968%,60.778809%,52.938843%);fill-opacity:1;" d="M 149.378906 411.859375 C 148.089844 411.0625 147.125 409.828125 146.589844 408.40625 C 143.773438 400.976562 133.597656 374.960938 125.179688 364.523438 C 115.308594 352.289062 98.023438 322.0625 97.113281 304.148438 C 96.203125 286.234375 94.292969 293.472656 108.433594 314.878906 C 122.574219 336.292969 132.96875 337.59375 143.5 353.953125 C 151.363281 366.160156 169.703125 387.835938 178.507812 398.050781 C 181.277344 401.269531 180.605469 406.210938 177.035156 408.523438 C 170.246094 412.921875 159.132812 417.878906 149.378906 411.859375 "/>
<path style=" stroke:none;fill-rule:nonzero;fill:rgb(79.60968%,60.778809%,52.938843%);fill-opacity:1;" d="M 215.941406 281.382812 C 215.941406 281.382812 210.910156 297.71875 217.839844 312.71875 C 223.78125 325.582031 223.382812 340.492188 217.726562 353.480469 L 212.597656 365.265625 L 172.742188 331.003906 L 153.441406 278.671875 L 215.941406 281.382812 "/>
<path style=" stroke:none;fill-rule:nonzero;fill:rgb(68.238831%,84.309387%,84.709167%);fill-opacity:1;" d="M 172.578125 422.84375 C 168.113281 419.515625 162.667969 414.597656 157.796875 407.625 C 152.101562 399.464844 149.1875 391.335938 147.660156 384.902344 C 146.390625 379.582031 143.316406 374.929688 139.148438 371.382812 C 138.726562 371.019531 138.300781 370.644531 137.875 370.246094 C 135.597656 368.132812 133.8125 365.972656 132.417969 363.984375 C 129.742188 360.171875 126.980469 356.425781 123.929688 352.910156 C 112.386719 339.585938 100.84375 326.257812 89.300781 312.933594 C 86.375 309.777344 86.492188 304.824219 87.851562 299.757812 C 90.542969 289.726562 97.648438 281.414062 106.964844 276.8125 C 115.179688 272.753906 123.65625 267.261719 130.15625 261.09375 C 136.074219 255.476562 142.898438 250.902344 150.324219 247.527344 C 157.300781 237.6875 156.691406 254.28125 162.980469 264.570312 L 194.742188 316.582031 C 197.332031 320.820312 200.339844 324.796875 203.71875 328.441406 L 243.78125 371.660156 C 252.058594 380.585938 249.445312 394.957031 238.558594 400.402344 L 237.734375 400.816406 C 232.964844 403.199219 229.328125 407.269531 227.132812 412.132812 C 226.265625 414.050781 225.0625 416.046875 223.382812 417.917969 C 219.484375 422.253906 214.351562 423.695312 204.253906 426.390625 C 185.820312 432.230469 174.734375 424.445312 172.578125 422.84375 "/>
<g clip-path="url(#clip2)" clip-rule="nonzero">
<path style=" stroke:none;fill-rule:nonzero;fill:rgb(98.429871%,91.758728%,58.428955%);fill-opacity:1;" d="M 307.238281 647.402344 C 305.316406 657.160156 304.769531 667.15625 305.199219 677.097656 C 305.742188 690.011719 303.40625 702.269531 293.546875 702.269531 C 279.847656 702.269531 281.71875 663.660156 282.972656 644.972656 C 283.363281 639.011719 280.335938 631.164062 275.480469 622.84375 C 281.683594 618.433594 288.054688 611.632812 290.59375 601.148438 C 293.695312 607.558594 296.085938 612.191406 297.503906 614.304688 C 305.722656 626.640625 311.066406 628.042969 307.238281 647.402344 "/>
</g>
<g clip-path="url(#clip3)" clip-rule="nonzero">
<path style=" stroke:none;fill-rule:nonzero;fill:rgb(18.03894%,21.569824%,49.798584%);fill-opacity:1;" d="M 449.265625 516.234375 C 449.265625 543.425781 478.203125 585.679688 507.742188 585.679688 C 537.277344 585.679688 556.230469 543.425781 556.230469 516.234375 C 556.230469 489.042969 544.210938 439.09375 514.671875 439.09375 C 485.132812 439.09375 449.265625 489.042969 449.265625 516.234375 "/>
</g>
<path style="fill:none;stroke-width:20;stroke-linecap:round;stroke-linejoin:miter;stroke:rgb(9.01947%,16.079712%,19.999695%);stroke-opacity:1;stroke-miterlimit:10;" d="M 326.251143 2276.575816 C 606.014973 2276.575816 906.864262 1833.286894 906.864262 1591.968822 C 906.864262 1509.322322 878.114515 1411.006268 830.186708 1317.439615 " transform="matrix(0.112637,0,0,-0.112679,36.201315,702.2716)"/>
<path style="fill:none;stroke-width:20;stroke-linecap:round;stroke-linejoin:miter;stroke:rgb(9.01947%,16.079712%,19.999695%);stroke-opacity:1;stroke-miterlimit:10;" d="M 4290.31768 2331.627259 C 4276.653747 2334.261963 4262.538974 2335.648649 4247.903999 2335.648649 C 3985.653587 2335.648649 3667.22152 1892.359727 3667.22152 1651.041655 C 3667.22152 1572.381879 3694.480027 1479.61257 3740.361711 1390.205975 " transform="matrix(0.112637,0,0,-0.112679,36.201315,702.2716)"/>
<path style=" stroke:none;fill-rule:nonzero;fill:rgb(68.238831%,84.309387%,84.709167%);fill-opacity:1;" d="M 186.238281 302.65625 C 186.238281 302.65625 208.183594 304.304688 212.125 329.375 C 216.066406 354.445312 228.738281 401.488281 204.804688 375.574219 C 180.871094 349.65625 172.03125 373.601562 170.113281 344.867188 C 168.199219 316.132812 186.238281 302.65625 186.238281 302.65625 "/>
<path style=" stroke:none;fill-rule:nonzero;fill:rgb(98.429871%,91.758728%,58.428955%);fill-opacity:1;" d="M 357.007812 570.304688 C 357.007812 570.304688 381.101562 595.550781 383.363281 603.246094 C 385.621094 610.9375 369.253906 602.214844 368.503906 601.148438 C 367.75 600.085938 359.863281 585.246094 359.679688 583.371094 C 359.492188 581.492188 357.007812 570.304688 357.007812 570.304688 "/>
<path style="fill:none;stroke-width:20;stroke-linecap:round;stroke-linejoin:miter;stroke:rgb(36.079407%,59.21936%,58.428955%);stroke-opacity:1;stroke-miterlimit:10;" d="M 1283.177305 3354.412358 C 1283.177305 3354.412358 1228.556252 3284.488705 1278.56486 3197.578145 " transform="matrix(0.112637,0,0,-0.112679,36.201315,702.2716)"/>
<path style="fill:none;stroke-width:20;stroke-linecap:round;stroke-linejoin:miter;stroke:rgb(36.079407%,59.21936%,58.428955%);stroke-opacity:1;stroke-miterlimit:10;" d="M 1152.537619 3760.676758 C 1152.537619 3760.676758 1064.138214 3753.569991 1034.001265 3657.957975 " transform="matrix(0.112637,0,0,-0.112679,36.201315,702.2716)"/>
<path style="fill:none;stroke-width:20;stroke-linecap:round;stroke-linejoin:miter;stroke:rgb(36.079407%,59.21936%,58.428955%);stroke-opacity:1;stroke-miterlimit:10;" d="M 1193.668138 3395.562272 C 1193.668138 3395.562272 1178.512964 3308.166372 1080.57655 3286.811404 " transform="matrix(0.112637,0,0,-0.112679,36.201315,702.2716)"/>
<path style="fill:none;stroke-width:20;stroke-linecap:round;stroke-linejoin:miter;stroke:rgb(36.079407%,59.21936%,58.428955%);stroke-opacity:1;stroke-miterlimit:10;" d="M 1106.551895 3857.67546 C 1106.551895 3857.67546 1045.619076 3793.263884 952.225746 3829.664398 " transform="matrix(0.112637,0,0,-0.112679,36.201315,702.2716)"/>
<path style=" stroke:none;fill-rule:nonzero;fill:rgb(79.60968%,60.778809%,52.938843%);fill-opacity:1;" d="M 274.933594 377.398438 C 274.40625 375.976562 273.382812 374.792969 272.097656 373.988281 C 265.351562 369.785156 241.820312 354.746094 233.21875 344.453125 C 223.140625 332.394531 196.855469 309.5625 179.464844 305.1875 C 162.078125 300.816406 169.542969 300.347656 187.789062 318.382812 C 193.320312 323.851562 197.105469 328.617188 200.082031 332.984375 C 206.941406 343.03125 209.539062 350.964844 219.292969 360.382812 C 229.738281 370.472656 247.429688 392.675781 255.738281 403.296875 C 258.355469 406.644531 263.335938 406.941406 266.292969 403.890625 C 271.925781 398.082031 278.941406 388.140625 274.933594 377.398438 "/>
<path style=" stroke:none;fill-rule:nonzero;fill:rgb(79.60968%,60.778809%,52.938843%);fill-opacity:1;" d="M 194.011719 315.101562 C 194.011719 315.101562 189.136719 310.839844 177.105469 305.292969 C 165.078125 299.753906 168.257812 302.1875 175.007812 308.253906 C 181.753906 314.320312 140.476562 301.949219 149.835938 306.964844 C 159.199219 311.984375 165.875 313.511719 165.875 313.511719 C 165.875 313.511719 140.9375 305.289062 147.671875 310.160156 C 154.402344 315.035156 166.6875 317.296875 166.6875 317.296875 C 166.6875 317.296875 144.300781 310.75 148.847656 314.007812 C 153.386719 317.265625 165.566406 321.753906 165.566406 321.753906 C 165.566406 321.753906 143.078125 314.109375 149.769531 318.847656 C 156.457031 323.582031 190.277344 335.417969 195.675781 335.640625 C 204.78125 336.019531 196.792969 316.714844 194.011719 315.101562 "/>
<path style=" stroke:none;fill-rule:nonzero;fill:rgb(79.60968%,60.778809%,52.938843%);fill-opacity:1;" d="M 192.644531 335.101562 C 192.644531 335.101562 220.371094 361.21875 224.058594 365.265625 C 227.746094 369.308594 237.652344 349.183594 216.816406 337.355469 C 195.976562 325.523438 200.578125 321.632812 192.644531 323.484375 C 184.714844 325.339844 192.644531 335.101562 192.644531 335.101562 "/>
<path style="fill:none;stroke-width:20;stroke-linecap:round;stroke-linejoin:round;stroke:rgb(36.079407%,59.21936%,58.428955%);stroke-opacity:1;stroke-miterlimit:10;" d="M 2331.866834 2696.880413 L 2096.874928 2926.896992 C 2096.874928 2926.896992 2169.529598 2814.263403 2095.695807 2715.600677 " transform="matrix(0.112637,0,0,-0.112679,36.201315,702.2716)"/>
<path style=" stroke:none;fill-rule:nonzero;fill:rgb(79.60968%,60.778809%,52.938843%);fill-opacity:1;" d="M 227.953125 255 C 227.953125 256.832031 227.859375 258.664062 227.652344 260.476562 C 225.355469 282.660156 209.21875 302.65625 188.722656 302.65625 C 166.53125 302.65625 147.625 279.257812 147.625 255 C 147.625 236.144531 158.496094 220.054688 173.757812 213.851562 C 178.132812 212.054688 182.859375 211.082031 187.785156 211.082031 C 209.964844 211.082031 227.953125 230.746094 227.953125 255 "/>
<path style=" stroke:none;fill-rule:nonzero;fill:rgb(18.03894%,38.038635%,45.098877%);fill-opacity:1;" d="M 227.953125 255 C 227.953125 256.832031 227.859375 258.664062 227.652344 260.476562 C 198.25 258.289062 173.757812 213.851562 173.757812 213.851562 C 178.132812 212.054688 182.859375 211.082031 187.785156 211.082031 C 209.964844 211.082031 227.953125 230.746094 227.953125 255 "/>
<path style=" stroke:none;fill-rule:nonzero;fill:rgb(79.60968%,60.778809%,52.938843%);fill-opacity:1;" d="M 234.613281 264.53125 C 234.613281 268.214844 231.636719 271.199219 227.953125 271.199219 C 224.273438 271.199219 221.289062 268.214844 221.289062 264.53125 C 221.289062 260.851562 224.273438 257.867188 227.953125 257.867188 C 231.636719 257.867188 234.613281 260.851562 234.613281 264.53125 "/>
<path style="fill:none;stroke-width:20;stroke-linecap:round;stroke-linejoin:miter;stroke:rgb(9.01947%,16.079712%,19.999695%);stroke-opacity:1;stroke-miterlimit:10;" d="M 1260.912723 4022.379117 C 1260.912723 3989.549321 1228.625612 3962.924945 1188.882294 3962.924945 C 1149.104295 3962.924945 1116.886544 3989.549321 1116.886544 4022.379117 " transform="matrix(0.112637,0,0,-0.112679,36.201315,702.2716)"/>
<path style="fill:none;stroke-width:20;stroke-linecap:round;stroke-linejoin:miter;stroke:rgb(9.01947%,16.079712%,19.999695%);stroke-opacity:1;stroke-miterlimit:10;" d="M 1540.225712 4022.379117 C 1540.225712 3989.549321 1508.007961 3962.924945 1468.229963 3962.924945 C 1428.486645 3962.924945 1396.199533 3989.549321 1396.199533 4022.379117 " transform="matrix(0.112637,0,0,-0.112679,36.201315,702.2716)"/>
<path style="fill:none;stroke-width:20;stroke-linecap:round;stroke-linejoin:miter;stroke:rgb(9.01947%,16.079712%,19.999695%);stroke-opacity:1;stroke-miterlimit:10;" d="M 1460.288235 3772.706261 C 1460.288235 3718.729499 1404.869542 3674.979548 1336.515196 3674.979548 C 1268.12617 3674.979548 1212.742157 3718.729499 1212.742157 3772.706261 " transform="matrix(0.112637,0,0,-0.112679,36.201315,702.2716)"/>
<path style="fill:none;stroke-width:20;stroke-linecap:round;stroke-linejoin:miter;stroke:rgb(9.01947%,16.079712%,19.999695%);stroke-opacity:1;stroke-miterlimit:10;" d="M 1336.515196 3935.745895 L 1356.317495 3865.302234 C 1358.398297 3857.952797 1357.357896 3850.083353 1353.439052 3843.565927 L 1341.994641 3824.498992 " transform="matrix(0.112637,0,0,-0.112679,36.201315,702.2716)"/>
<path style="fill:none;stroke-width:20;stroke-linecap:round;stroke-linejoin:miter;stroke:rgb(9.01947%,16.079712%,19.999695%);stroke-opacity:1;stroke-miterlimit:10;" d="M 3667.22152 1651.041655 C 3667.22152 1651.041655 3033.23583 1745.197651 2720.075128 1651.041655 " transform="matrix(0.112637,0,0,-0.112679,36.201315,702.2716)"/>
<path style="fill-rule:nonzero;fill:rgb(18.03894%,21.569824%,49.798584%);fill-opacity:1;stroke-width:20;stroke-linecap:round;stroke-linejoin:miter;stroke:rgb(9.01947%,16.079712%,19.999695%);stroke-opacity:1;stroke-miterlimit:10;" d="M 2817.768782 1516.810428 C 2817.768782 1516.810428 2908.66515 1493.583433 2966.095285 1390.205975 " transform="matrix(0.112637,0,0,-0.112679,36.201315,702.2716)"/>
<path style="fill-rule:nonzero;fill:rgb(18.03894%,21.569824%,49.798584%);fill-opacity:1;stroke-width:20;stroke-linecap:round;stroke-linejoin:miter;stroke:rgb(9.01947%,16.079712%,19.999695%);stroke-opacity:1;stroke-miterlimit:10;" d="M 2891.914694 1626.11597 C 2891.914694 1626.11597 2946.882547 1646.881597 3033.51327 1596.891558 " transform="matrix(0.112637,0,0,-0.112679,36.201315,702.2716)"/>
<path style="fill-rule:nonzero;fill:rgb(18.03894%,21.569824%,49.798584%);fill-opacity:1;stroke-width:20;stroke-linecap:round;stroke-linejoin:miter;stroke:rgb(9.01947%,16.079712%,19.999695%);stroke-opacity:1;stroke-miterlimit:10;" d="M 1323.510183 1443.558728 C 1323.510183 1443.558728 1200.708185 1472.367134 1127.117154 1372.941731 " transform="matrix(0.112637,0,0,-0.112679,36.201315,702.2716)"/>
<path style=" stroke:none;fill-rule:nonzero;fill:rgb(79.60968%,60.778809%,52.938843%);fill-opacity:1;" d="M 385.566406 664.851562 C 385.53125 667.523438 384.582031 669.9375 383.085938 671.679688 C 382.285156 671.320312 381.507812 670.878906 380.785156 670.351562 C 379.335938 669.273438 378.0625 667.863281 377.089844 666.203125 C 371.054688 655.769531 367.464844 643.847656 366.683594 631.523438 L 366.265625 625.277344 C 365.433594 621.175781 363.339844 617.5625 360.351562 614.957031 C 358.128906 613.035156 355.195312 610.472656 351.679688 607.375 C 349.441406 605.394531 346.960938 603.195312 344.28125 600.804688 C 316.980469 576.398438 269.457031 532.386719 244.5625 500.273438 L 244.5625 500.253906 C 237.816406 491.566406 232.734375 483.734375 230.183594 477.410156 C 227.398438 470.496094 225.304688 463.621094 223.894531 456.917969 L 223.882812 456.890625 C 217.050781 424.429688 225.707031 396.273438 243.605469 390.964844 C 265.1875 384.550781 264.941406 391.707031 323.535156 436.429688 C 340.304688 449.210938 325.277344 503.015625 325.277344 503.015625 C 325.277344 503.015625 334.324219 545.152344 357.007812 570.304688 C 357.574219 570.925781 360.886719 576.566406 361.652344 577.332031 C 383.085938 598.855469 389.144531 603.5 384.957031 633.585938 C 384.640625 635.976562 385.742188 647.835938 385.566406 664.851562 "/>
<path style=" stroke:none;fill-rule:nonzero;fill:rgb(98.429871%,91.758728%,58.428955%);fill-opacity:1;" d="M 385.566406 664.851562 C 385.53125 667.523438 384.582031 669.9375 383.085938 671.679688 C 381.398438 673.664062 378.984375 674.800781 376.382812 674.574219 C 375.921875 674.53125 375.4375 674.453125 374.964844 674.316406 C 373.21875 673.824219 371.628906 672.933594 370.253906 671.75 C 368.894531 670.53125 367.753906 669.035156 366.9375 667.285156 C 361.839844 656.367188 359.304688 644.175781 359.613281 631.824219 L 359.746094 625.574219 C 359.261719 621.414062 357.507812 617.617188 354.746094 614.769531 C 352.707031 612.660156 345.804688 602.675781 342.582031 599.285156 C 343.074219 598.957031 343.652344 601.289062 344.28125 600.804688 C 346.828125 598.890625 350.242188 595.734375 352.929688 590.960938 C 356.503906 584.601562 357.078125 575.453125 357.007812 570.304688 C 357.574219 570.925781 360.886719 576.566406 361.652344 577.332031 C 383.085938 598.855469 389.144531 603.5 384.957031 633.585938 C 384.640625 635.976562 385.742188 647.835938 385.566406 664.851562 "/>
<path style=" stroke:none;fill-rule:nonzero;fill:rgb(18.03894%,38.038635%,45.098877%);fill-opacity:1;" d="M 297.761719 446.386719 C 308.882812 466.757812 321.0625 488.265625 327.292969 510.710938 C 327.726562 512.285156 330.175781 511.617188 329.738281 510.039062 C 323.449219 487.367188 311.175781 465.667969 299.949219 445.113281 C 299.167969 443.675781 296.976562 444.957031 297.761719 446.386719 "/>
</g>
</svg>
