<svg xmlns="http://www.w3.org/2000/svg" viewBox="0 0 251.94 258.66"><defs><style>.cls-1{opacity:0.22;}.cls-2{fill:#2d4b87;}.cls-3{fill:#1b3760;}.cls-4{fill:#162c51;}.cls-5{fill:#426996;}.cls-6{fill:none;stroke:#10213a;stroke-linecap:round;stroke-miterlimit:10;stroke-width:3.96px;}.cls-7{fill:#10213a;}.cls-8{fill:#4b6f9b;}.cls-9{fill:#914e22;}.cls-10{fill:#ed9b5f;}.cls-11{opacity:0.37;}</style></defs><g id="Camada_2" data-name="Camada 2"><g id="Layer_1" data-name="Layer 1"><ellipse class="cls-1" cx="134.39" cy="248.18" rx="117.56" ry="10.49"/><path class="cls-2" d="M248.08,140.4c0,.72,0,1.45,0,2.17H15.34c0-.72,0-1.45,0-2.17a116.39,116.39,0,1,1,232.77,0Z"/><path class="cls-3" d="M248.08,142.58v29.18c0,.11,0,.22,0,.32a69.71,69.71,0,0,1-2.73,19.1,67.89,67.89,0,0,1-3.53,9.53,69.76,69.76,0,0,1-63.56,40.88H85.14a71,71,0,0,1-13-1.21,70,70,0,0,1-50.51-39.67,67.89,67.89,0,0,1-3.53-9.53,69.71,69.71,0,0,1-2.73-19.1c0-.1,0-.21,0-.32V142.58Z"/><path class="cls-4" d="M73.5,166.27A26.27,26.27,0,0,1,62.16,164a17.78,17.78,0,0,0-8-1.66A17.82,17.82,0,0,0,46.05,164a26.24,26.24,0,0,1-11.34,2.3A26.24,26.24,0,0,1,23.37,164a17.82,17.82,0,0,0-8.06-1.66v-8.68a26.39,26.39,0,0,1,11.34,2.3,17.82,17.82,0,0,0,8.06,1.66,17.82,17.82,0,0,0,8.06-1.66,26.39,26.39,0,0,1,11.34-2.3,26.42,26.42,0,0,1,11.34,2.3,17.81,17.81,0,0,0,8,1.66Z"/><path class="cls-4" d="M112.3,166.27A26.24,26.24,0,0,1,101,164a17.82,17.82,0,0,0-8.06-1.66A17.82,17.82,0,0,0,84.84,164a26.2,26.2,0,0,1-11.34,2.3v-8.68a17.82,17.82,0,0,0,8.06-1.66,26.39,26.39,0,0,1,11.34-2.3,26.39,26.39,0,0,1,11.34,2.3,20.4,20.4,0,0,0,16.12,0,26.35,26.35,0,0,1,11.34-2.3v8.68a17.82,17.82,0,0,0-8.06,1.66A26.27,26.27,0,0,1,112.3,166.27Z"/><path class="cls-4" d="M189.89,166.27a26.24,26.24,0,0,1-11.34-2.3,20.4,20.4,0,0,0-16.12,0,29.11,29.11,0,0,1-22.68,0,17.81,17.81,0,0,0-8.05-1.66v-8.68a26.34,26.34,0,0,1,11.33,2.3,20.4,20.4,0,0,0,16.12,0,29.11,29.11,0,0,1,22.68,0,17.82,17.82,0,0,0,8.06,1.66Z"/><path class="cls-4" d="M228.68,166.27a26.24,26.24,0,0,1-11.34-2.3,20.37,20.37,0,0,0-16.11,0,26.27,26.27,0,0,1-11.34,2.3v-8.68a17.78,17.78,0,0,0,8.05-1.66,29.11,29.11,0,0,1,22.68,0,20.4,20.4,0,0,0,16.12,0,26.39,26.39,0,0,1,11.34-2.3v8.68A17.82,17.82,0,0,0,240,164,26.24,26.24,0,0,1,228.68,166.27Z"/><path class="cls-4" d="M73.5,176v8.68a26.19,26.19,0,0,1-11.33-2.3,17.82,17.82,0,0,0-8.06-1.66,17.82,17.82,0,0,0-8.06,1.66,26.24,26.24,0,0,1-11.34,2.3,26.24,26.24,0,0,1-11.34-2.3,17.66,17.66,0,0,0-7.48-1.66,69,69,0,0,1-.57-8.68,26.2,26.2,0,0,1,11.33,2.31A18,18,0,0,0,34.71,176a18,18,0,0,0,8.06-1.65,26.21,26.21,0,0,1,11.34-2.31,26.25,26.25,0,0,1,11.34,2.31A18,18,0,0,0,73.5,176Z"/><path class="cls-4" d="M112.3,184.72a26.24,26.24,0,0,1-11.34-2.3,17.82,17.82,0,0,0-8.06-1.66,17.82,17.82,0,0,0-8.06,1.66,26.2,26.2,0,0,1-11.34,2.3V176a18,18,0,0,0,8.06-1.65,26.21,26.21,0,0,1,11.34-2.31,26.21,26.21,0,0,1,11.34,2.31,20.51,20.51,0,0,0,16.12,0,26.18,26.18,0,0,1,11.34-2.31v8.68a17.82,17.82,0,0,0-8.06,1.66A26.27,26.27,0,0,1,112.3,184.72Z"/><path class="cls-4" d="M189.89,184.72a26.24,26.24,0,0,1-11.34-2.3,20.4,20.4,0,0,0-16.12,0,29.11,29.11,0,0,1-22.68,0,17.81,17.81,0,0,0-8.05-1.66v-8.68A26.16,26.16,0,0,1,143,174.39a20.51,20.51,0,0,0,16.12,0,29,29,0,0,1,22.68,0,18,18,0,0,0,8.06,1.65Z"/><path class="cls-4" d="M248.07,172.08a69,69,0,0,1-.57,8.68,17.7,17.7,0,0,0-7.48,1.66,29.11,29.11,0,0,1-22.68,0,20.37,20.37,0,0,0-16.11,0,26.27,26.27,0,0,1-11.34,2.3V176a18,18,0,0,0,8.06-1.65,29,29,0,0,1,22.67,0,20.51,20.51,0,0,0,16.12,0A26.16,26.16,0,0,1,248.07,172.08Z"/><path class="cls-4" d="M73.5,195v8.68a26.19,26.19,0,0,1-11.33-2.3,17.82,17.82,0,0,0-8.06-1.66,17.82,17.82,0,0,0-8.06,1.66,26.24,26.24,0,0,1-11.34,2.3,26.24,26.24,0,0,1-11.34-2.3c-.62-.25-1.19-.49-1.79-.7a67.89,67.89,0,0,1-3.53-9.53,25.71,25.71,0,0,1,8.6,2.2A18,18,0,0,0,34.71,195a18,18,0,0,0,8.06-1.65,26.21,26.21,0,0,1,11.34-2.31,26.25,26.25,0,0,1,11.34,2.31A18,18,0,0,0,73.5,195Z"/><path class="cls-4" d="M112.3,203.71a26.24,26.24,0,0,1-11.34-2.3,17.82,17.82,0,0,0-8.06-1.66,17.82,17.82,0,0,0-8.06,1.66,26.2,26.2,0,0,1-11.34,2.3V195a18,18,0,0,0,8.06-1.65,26.21,26.21,0,0,1,11.34-2.31,26.21,26.21,0,0,1,11.34,2.31,20.51,20.51,0,0,0,16.12,0,26.18,26.18,0,0,1,11.34-2.31v8.68a17.82,17.82,0,0,0-8.06,1.66A26.27,26.27,0,0,1,112.3,203.71Z"/><path class="cls-4" d="M189.89,203.71a26.24,26.24,0,0,1-11.34-2.3,20.4,20.4,0,0,0-16.12,0,29.11,29.11,0,0,1-22.68,0,17.81,17.81,0,0,0-8.05-1.66v-8.68A26.16,26.16,0,0,1,143,193.38a20.51,20.51,0,0,0,16.12,0,29,29,0,0,1,22.68,0,18,18,0,0,0,8.06,1.65Z"/><path class="cls-4" d="M245.34,191.18a67.89,67.89,0,0,1-3.53,9.53c-.59.21-1.18.45-1.79.7a29.11,29.11,0,0,1-22.68,0,20.37,20.37,0,0,0-16.11,0,26.27,26.27,0,0,1-11.34,2.3V195a18,18,0,0,0,8.06-1.65,29,29,0,0,1,22.67,0,20.51,20.51,0,0,0,16.12,0A25.71,25.71,0,0,1,245.34,191.18Z"/><circle class="cls-2" cx="82.43" cy="232.4" r="20.59"/><circle class="cls-2" cx="181.14" cy="232.4" r="20.59"/><path class="cls-3" d="M32.2,26.72H0L20.62,6.09H7.36A3,3,0,1,1,7.36,0h28L14.71,20.63H32.2a3,3,0,1,1,0,6.09Z"/><path class="cls-3" d="M16.69,47.5H.1L10.73,36.87H3.89a1.57,1.57,0,0,1,0-3.14H18.31L7.68,44.36h9a1.57,1.57,0,0,1,0,3.14Z"/><path class="cls-3" d="M19.59,65.09H9.65L16,58.72H11.92a.94.94,0,0,1,0-1.88h8.64l-6.37,6.37h5.4a.94.94,0,0,1,0,1.88Z"/><circle class="cls-5" cx="72.67" cy="96.04" r="6.18"/><circle class="cls-5" cx="191.38" cy="96.04" r="6.18"/><path class="cls-6" d="M170.33,70.63s-17.45,16.94-34.5,0"/><path class="cls-6" d="M128,70.63s-17.45,16.94-34.5,0"/><ellipse class="cls-7" cx="132.8" cy="99.92" rx="21.54" ry="11.45"/><ellipse class="cls-8" cx="132.8" cy="105.64" rx="17.34" ry="5.73"/><path class="cls-7" d="M133.3,99.92a5.06,5.06,0,0,0-4.4,5.15s4.14-4.94,8.54-4.94.82-4.85.82-4.85Z"/><path class="cls-5" d="M132.8,113.35c-13.19,0-23.53-5.9-23.53-13.43s10.34-13.43,23.53-13.43,23.52,5.9,23.52,13.43S146,113.35,132.8,113.35Zm0-22.9c-11.71,0-19.57,4.9-19.57,9.47s7.86,9.47,19.57,9.47,19.56-4.9,19.56-9.47S144.5,90.45,132.8,90.45Z"/><path class="cls-3" d="M61.83,41.15c-1.76-5.56-6-16.09-14.08-20.53a3.36,3.36,0,0,1,.78-6.2c11-2.84,29.13-3.79,48.77,10.34a3.37,3.37,0,0,1-.65,5.85L66.33,43.25A3.37,3.37,0,0,1,61.83,41.15Z"/><rect class="cls-4" x="56.29" y="31.64" width="53.49" height="9.24" rx="4.62" transform="translate(-7.55 34.01) rotate(-22.17)"/><circle class="cls-4" cx="44.02" cy="18.19" r="5.16"/><ellipse class="cls-9" cx="113.68" cy="115.64" rx="8.52" ry="7.13" transform="translate(-42.59 72.33) rotate(-30)"/><ellipse class="cls-10" cx="114.16" cy="116.12" rx="7.17" ry="6" transform="matrix(0.87, -0.5, 0.5, 0.87, -42.77, 72.64)"/><ellipse class="cls-9" cx="149.12" cy="115.64" rx="7.13" ry="8.52" transform="translate(-25.58 186.96) rotate(-60)"/><ellipse class="cls-10" cx="148.84" cy="116.12" rx="6" ry="7.17" transform="translate(-26.15 186.96) rotate(-60)"/><path class="cls-9" d="M150.22,144l-18.43-8.19L113.35,144s-5.68,8.45-5.68,25.88,5.19,21.78,24.12,21.78,24.11-4.36,24.11-21.78S150.22,144,150.22,144Z"/><ellipse class="cls-9" cx="131.79" cy="131.94" rx="27.02" ry="20.46"/><ellipse class="cls-10" cx="131.79" cy="141.09" rx="13.91" ry="10.53"/><circle class="cls-10" cx="117.88" cy="126.57" r="3.43"/><circle class="cls-10" cx="145.69" cy="126.57" r="3.43"/><circle class="cls-9" cx="114.45" cy="184.44" r="9.9"/><circle class="cls-9" cx="149.12" cy="184.44" r="9.9"/><circle class="cls-10" cx="114.45" cy="184.44" r="7.64"/><circle class="cls-10" cx="149.12" cy="184.44" r="7.64"/><path class="cls-9" d="M131.79,133.48s-6-.2-6,3.69,6,5.48,6,5.48,6-1.58,6-5.48S131.79,133.48,131.79,133.48Z"/><path class="cls-11" d="M151.71,148.67h96.37v6.14a70.1,70.1,0,0,1-.45,8,69,69,0,0,1-2,10.6c-.22.78-.45,1.57-.69,2.34-.42,1.34-.88,2.67-1.38,4h-91.8a15.82,15.82,0,0,1-12.64-15.52,15.52,15.52,0,0,1,12.64-15.25Z"/><path class="cls-11" d="M111.68,148.67H15.31v6.14a70.1,70.1,0,0,0,.45,8,69,69,0,0,0,2,10.6c.22.78.45,1.57.69,2.34.42,1.34.88,2.67,1.38,4h91.8a15.82,15.82,0,0,0,12.64-15.52,15.52,15.52,0,0,0-12.64-15.25Z"/><circle class="cls-2" cx="150.62" cy="158.38" r="15.52"/><path class="cls-3" d="M147.75,142.87H248.08v11.94a70.1,70.1,0,0,1-.45,8,69,69,0,0,1-2,10.6,10.09,10.09,0,0,1-3.21.51H147.75Z"/><circle class="cls-2" cx="112.77" cy="158.38" r="15.52"/><path class="cls-3" d="M115.64,142.87H15.31v11.94a70.1,70.1,0,0,0,.45,8,69,69,0,0,0,2,10.6,10.09,10.09,0,0,0,3.21.51h94.62Z"/></g></g></svg>