<svg xmlns="http://www.w3.org/2000/svg" viewBox="0 0 235.11 273.78"><defs><style>.cls-1,.cls-4{fill:#1b3760;}.cls-1{opacity:0.3;}.cls-2{fill:#2d4b87;}.cls-3{fill:#162c51;}.cls-5{fill:none;stroke:#162c51;stroke-miterlimit:10;stroke-width:8.68px;}.cls-6{fill:#10213a;}.cls-7{fill:#426996;}.cls-8{fill:#fff;}</style></defs><g id="Camada_2" data-name="Camada 2"><g id="Layer_1" data-name="Layer 1"><ellipse class="cls-1" cx="117.56" cy="263.29" rx="117.56" ry="10.49"/><circle class="cls-2" cx="16.69" cy="237.29" r="15.52"/><path class="cls-3" d="M32.21,240.16h-31V161.81c0-2.59,2.42-4.71,5.38-4.71l20.28,19.1c3,0,5.38,2.12,5.38,4.72Z"/><circle class="cls-2" cx="218.42" cy="238.94" r="15.52"/><path class="cls-3" d="M202.9,241.81h31V155.68a5.3,5.3,0,0,0-5.38-5.18l-20.28,21a5.3,5.3,0,0,0-5.38,5.18Z"/><path class="cls-2" d="M233.94,139.16c0,.72,0,1.45,0,2.18H1.2c0-.73,0-1.46,0-2.18a116.38,116.38,0,1,1,232.76,0Z"/><rect class="cls-2" x="54.33" y="207.67" width="31.04" height="59.1" rx="12.19"/><rect class="cls-2" x="152.39" y="207.67" width="31.04" height="59.1" rx="12.19"/><path class="cls-4" d="M233.94,141.34v29.19a69.77,69.77,0,0,1-69.83,69.82H71a71,71,0,0,1-13-1.21A69.85,69.85,0,0,1,1.18,170.53V141.34Z"/><path class="cls-5" d="M1.18,156.73c9.69,0,9.69,4,19.39,4s9.7-4,19.4-4,9.7,4,19.4,4"/><path class="cls-5" d="M59.37,160.69c9.69,0,9.69-4,19.39-4s9.7,4,19.4,4,9.7-4,19.4-4"/><path class="cls-5" d="M117.56,156.73c9.7,0,9.7,4,19.39,4s9.7-4,19.4-4,9.7,4,19.4,4"/><path class="cls-5" d="M175.75,160.69c9.7,0,9.7-4,19.4-4s9.69,4,19.39,4,9.7-4,19.4-4"/><path class="cls-5" d="M1.18,175.18c9.69,0,9.69,4,19.39,4s9.7-4,19.4-4,9.7,4,19.4,4"/><path class="cls-5" d="M59.37,179.14c9.69,0,9.69-4,19.39-4s9.7,4,19.4,4,9.7-4,19.4-4"/><path class="cls-5" d="M117.56,175.18c9.7,0,9.7,4,19.39,4s9.7-4,19.4-4,9.7,4,19.4,4"/><path class="cls-5" d="M175.75,179.14c9.7,0,9.7-4,19.4-4s9.69,4,19.39,4,9.7-4,19.4-4"/><path class="cls-5" d="M1.18,194.17c9.69,0,9.69,4,19.39,4s9.7-4,19.4-4,9.7,4,19.4,4"/><path class="cls-5" d="M59.37,198.13c9.69,0,9.69-4,19.39-4s9.7,4,19.4,4,9.7-4,19.4-4"/><path class="cls-5" d="M117.56,194.17c9.7,0,9.7,4,19.39,4s9.7-4,19.4-4,9.7,4,19.4,4"/><path class="cls-5" d="M175.75,198.13c9.7,0,9.7-4,19.4-4s9.69,4,19.39,4,9.7-4,19.4-4"/><path class="cls-6" d="M118.59,128.26a57,57,0,0,1-12.4-1.38,60.26,60.26,0,0,1-18.93-7.64A3.74,3.74,0,0,1,91.43,113a54,54,0,0,0,16.46,6.57,50.85,50.85,0,0,0,10.88,1.23A45.17,45.17,0,0,0,144,113a3.69,3.69,0,0,1,2.06-.62,3.74,3.74,0,0,1,2.07,6.86A52.85,52.85,0,0,1,118.59,128.26Z"/><path class="cls-7" d="M146.09,115a1.1,1.1,0,0,1,.61,2,50.22,50.22,0,0,1-28.11,8.57,54.47,54.47,0,0,1-11.83-1.33,57.08,57.08,0,0,1-18-7.25,1.1,1.1,0,0,1,.61-2,1.07,1.07,0,0,1,.61.19,56.66,56.66,0,0,0,17.36,7,53,53,0,0,0,11.45,1.29,47.67,47.67,0,0,0,26.72-8.25,1.08,1.08,0,0,1,.6-.18m0-5.28h0a6.41,6.41,0,0,0-3.52,1.06,42.56,42.56,0,0,1-23.8,7.37A47.54,47.54,0,0,1,108.46,117a51.64,51.64,0,0,1-15.58-6.19,6.38,6.38,0,0,0-7.09,10.6,62.1,62.1,0,0,0,19.82,8,59.83,59.83,0,0,0,13,1.44,55.33,55.33,0,0,0,31-9.44,6.38,6.38,0,0,0-3.52-11.7Z"/><circle class="cls-7" cx="58.53" cy="103.58" r="6.18"/><circle class="cls-7" cx="177.24" cy="103.58" r="6.18"/><path class="cls-4" d="M67,30.23c-1-5.74-3.89-16.74-11.3-22.18A3.36,3.36,0,0,1,57.31,2c11.31-1.38,29.37,0,47,16.58a3.36,3.36,0,0,1-1.41,5.71l-31.7,8.6A3.36,3.36,0,0,1,67,30.23Z"/><rect class="cls-3" x="61.95" y="23.51" width="53.49" height="9.24" rx="4.62" transform="translate(-4.24 23.46) rotate(-14.72)"/><circle class="cls-3" cx="52.35" cy="5.16" r="5.16"/><circle class="cls-8" cx="97.42" cy="86.01" r="20.45"/><circle class="cls-6" cx="98.08" cy="84.91" r="9.24"/><circle class="cls-8" cx="138.63" cy="86.01" r="20.45"/><circle class="cls-6" cx="139.29" cy="84.91" r="9.24"/></g></g></svg>