<?xml version="1.0" encoding="UTF-8"?>
<svg xmlns="http://www.w3.org/2000/svg" xmlns:xlink="http://www.w3.org/1999/xlink" width="595.5pt" height="842.249979pt" viewBox="0 0 595.5 842.249979" version="1.2">
<defs>
<clipPath id="clip1">
  <path d="M 5.167969 271 L 590.472656 271 L 590.472656 631.886719 L 5.167969 631.886719 Z M 5.167969 271 "/>
</clipPath>
</defs>
<g id="surface1">
<g clip-path="url(#clip1)" clip-rule="nonzero">
<path style=" stroke:none;fill-rule:nonzero;fill:rgb(98.429871%,91.758728%,58.428955%);fill-opacity:1;" d="M 139.371094 281.613281 C 127.730469 271.710938 118.546875 268.335938 104.792969 274.164062 C 61.132812 264.429688 26.210938 309.191406 23.570312 366.136719 C 21.691406 406.707031 5.167969 630.546875 5.167969 630.546875 L 183.726562 631.886719 C 183.726562 631.886719 190.101562 447.304688 185.421875 393.707031 C 181.859375 352.855469 166.335938 323.503906 151.566406 305.496094 C 147.132812 300.089844 143.328125 284.980469 139.371094 281.613281 Z M 588.632812 631.886719 L 291.851562 630.980469 C 290.046875 595.730469 291.097656 568.914062 291.097656 568.914062 C 291.867188 567.886719 292.707031 566.894531 293.609375 565.925781 C 294.265625 550.222656 312.855469 528.511719 393.644531 517.691406 C 393.644531 517.691406 454.769531 511.769531 508.554688 516.230469 C 494.90625 466.113281 469.292969 441.289062 449.863281 429.273438 C 447.878906 434.746094 441.683594 435.011719 433.609375 432.273438 C 426.601562 429.902344 427.171875 422.394531 427.730469 419.308594 C 425.523438 418.570312 424.585938 415.910156 425.945312 413.980469 C 429.1875 409.398438 439.207031 404.210938 470.105469 413.144531 C 502.390625 422.476562 525.628906 465.980469 539.390625 499.414062 C 548.972656 498.054688 565.714844 496.570312 568.277344 502.324219 C 570.5 507.324219 571.582031 521.058594 572.089844 530.925781 C 579.617188 535.09375 584.984375 540.25 587.277344 546.617188 C 588.070312 548.828125 588.511719 550.957031 588.625 553.003906 C 591.921875 568.082031 590.089844 605.058594 588.632812 631.886719 "/>
</g>
<path style=" stroke:none;fill-rule:nonzero;fill:rgb(59.999084%,32.939148%,23.529053%);fill-opacity:1;" d="M 408.460938 575.066406 C 407.464844 571.328125 373.328125 560.046875 362.460938 556.539062 C 366.269531 557.558594 372.890625 558.710938 379.652344 556.96875 C 390.050781 554.300781 387.078125 545.101562 383.515625 544.511719 C 379.949219 543.914062 351.125 528.324219 339.546875 522.6875 C 330.167969 518.121094 297.699219 514.65625 288.746094 515.167969 C 288.746094 515.167969 215.710938 508.898438 189.160156 502.621094 C 183.25 501.230469 165.535156 497.039062 165.535156 497.039062 C 165.535156 497.039062 155.808594 444.203125 145.1875 395.195312 L 50.738281 420.625 C 63.945312 479.585938 89.539062 543.035156 116.238281 561.125 C 154.90625 587.320312 293.703125 575.667969 303.375 574.820312 C 315.96875 580.144531 359.113281 594.171875 372.527344 595.242188 C 373.71875 595.335938 374.957031 595.316406 376.226562 595.195312 C 387.011719 596.410156 389.800781 593.394531 390.085938 590.878906 C 397.265625 590.382812 401.335938 585.035156 401.664062 583.613281 C 409.257812 582.097656 408.90625 576.722656 408.460938 575.066406 Z M 138.804688 292.335938 C 126.777344 282.097656 114.9375 276.214844 103.695312 273.941406 C 110.441406 262.273438 120.351562 245.148438 124.828125 237.617188 C 139.527344 212.878906 166.597656 181.179688 164.960938 184.429688 C 171.292969 176.03125 182.410156 172.734375 192.25 176.449219 C 208.824219 182.703125 231.335938 195.828125 232.417969 221.183594 C 232.417969 221.183594 222.71875 241.160156 208.644531 258.722656 C 208.644531 258.722656 207.589844 267.699219 206.144531 269.875 C 203.550781 273.761719 198.621094 269.875 198.621094 269.875 C 184.691406 284.136719 169.792969 291.347656 154.25 278.832031 L 152.394531 306.523438 C 147.675781 300.640625 143.007812 295.910156 138.804688 292.335938 "/>
<path style=" stroke:none;fill-rule:nonzero;fill:rgb(59.999084%,32.939148%,23.529053%);fill-opacity:1;" d="M 393.480469 510.320312 C 398.058594 510.078125 400.449219 507.949219 401.355469 505.675781 C 402.492188 502.824219 401.296875 499.742188 399.085938 499.839844 C 395.359375 500.011719 377.046875 491.941406 374.738281 490.917969 C 373.621094 490.109375 372.203125 489.734375 370.769531 489.96875 C 360.808594 491.574219 334.503906 491.855469 326.539062 493.585938 L 187.042969 481.953125 C 186.992188 488.59375 186.917969 495.328125 186.832031 502.074219 L 295.367188 527.71875 C 300.980469 527.394531 312.644531 526.925781 322.882812 527.738281 C 326.269531 528.007812 329.496094 528.414062 332.296875 529.023438 L 331.464844 524.304688 C 330.761719 520.296875 333.558594 516.34375 337.960938 515.09375 C 348.648438 512.058594 359.671875 509.671875 370.984375 507.871094 C 374.476562 510.449219 384.691406 510.78125 393.480469 510.320312 Z M 412.644531 564.507812 C 405.574219 567.90625 396.988281 558.234375 392.789062 552.644531 C 392.519531 552.777344 392.21875 552.898438 391.925781 553.027344 C 393.375 554.988281 394.667969 557.949219 391.671875 560.171875 C 389.746094 561.59375 385.625 562.046875 381.230469 561.527344 C 381.125 561.910156 380.941406 562.289062 380.683594 562.660156 C 373.34375 560.085938 366.382812 557.804688 362.460938 556.539062 C 364.816406 557.171875 368.230469 557.847656 372.109375 557.863281 C 374.449219 559.652344 377.425781 561.183594 380.957031 561.472656 C 380.972656 561.472656 380.988281 561.476562 381.007812 561.476562 C 381.308594 561.476562 381.5625 561.246094 381.585938 560.9375 C 381.613281 560.617188 381.375 560.335938 381.050781 560.308594 C 378.40625 560.09375 376.0625 559.089844 374.09375 557.808594 C 375.898438 557.710938 377.769531 557.453125 379.652344 556.96875 C 384.710938 555.671875 386.597656 552.832031 386.800781 550.183594 L 389.886719 550.921875 C 392.113281 550.386719 394.335938 549.820312 396.558594 549.222656 C 399.125 548.53125 401.695312 547.804688 404.261719 547.035156 C 405.691406 546.605469 406.9375 545.882812 407.949219 544.972656 C 408.859375 546.023438 410.089844 547.519531 411.308594 549.230469 C 415.011719 554.433594 418.589844 561.648438 412.644531 564.507812 "/>
<path style=" stroke:none;fill-rule:nonzero;fill:rgb(63.919067%,87.449646%,81.17981%);fill-opacity:1;" d="M 510.605469 559.085938 L 510.21875 559.097656 C 510.210938 559.023438 510.195312 558.957031 510.191406 558.886719 C 496.640625 554.585938 477.144531 551.363281 454.5 549.878906 C 454.246094 546.058594 453.921875 541.742188 453.546875 537.070312 C 453.515625 536.667969 453.484375 536.277344 453.453125 535.867188 C 452.921875 529.332031 452.300781 522.140625 451.628906 514.671875 C 448.839844 483.664062 445.175781 447.847656 443.734375 433.902344 C 440.96875 434.21875 437.507812 433.59375 433.609375 432.273438 C 432.914062 432.042969 432.308594 431.75 431.753906 431.425781 C 430.984375 441.894531 428.097656 482.003906 426.585938 515.480469 C 426.285156 522.203125 426.039062 528.648438 425.875 534.539062 C 425.863281 534.933594 425.851562 535.320312 425.84375 535.710938 C 425.714844 540.601562 425.648438 545.082031 425.660156 548.980469 C 420.789062 548.988281 416 549.074219 411.308594 549.230469 C 415.011719 554.433594 418.589844 561.648438 412.644531 564.507812 C 405.574219 567.90625 396.988281 558.234375 392.789062 552.644531 C 392.519531 552.777344 392.21875 552.898438 391.925781 553.027344 C 393.375 554.988281 394.667969 557.949219 391.671875 560.171875 C 389.746094 561.59375 385.625 562.046875 381.230469 561.527344 C 381.125 561.910156 380.941406 562.289062 380.683594 562.660156 C 393.664062 567.210938 407.824219 572.679688 408.460938 575.066406 C 408.90625 576.722656 409.257812 582.097656 401.664062 583.613281 C 401.644531 583.710938 401.597656 583.824219 401.542969 583.953125 C 409.027344 584.554688 416.921875 584.882812 425.085938 584.882812 C 472.4375 584.882812 510.820312 574.058594 510.820312 560.707031 C 510.820312 560.15625 510.734375 559.617188 510.605469 559.085938 Z M 383.515625 544.511719 C 379.949219 543.914062 349.660156 536.5 338.078125 530.863281 C 336.523438 530.105469 334.542969 529.5 332.296875 529.023438 L 331.464844 524.304688 C 330.761719 520.296875 333.558594 516.34375 337.960938 515.09375 C 348.648438 512.058594 359.671875 509.671875 370.984375 507.871094 C 374.476562 510.449219 384.691406 510.78125 393.480469 510.320312 C 398.058594 510.078125 400.449219 507.949219 401.355469 505.675781 C 403.722656 506.746094 405.46875 508.777344 405.914062 511.296875 L 406.851562 516.632812 L 410.066406 534.902344 L 410.273438 536.070312 L 410.59375 537.875 C 411.054688 540.511719 409.988281 543.136719 407.949219 544.972656 C 406.9375 545.882812 405.691406 546.605469 404.261719 547.035156 C 401.695312 547.804688 399.125 548.53125 396.558594 549.222656 C 394.335938 549.820312 392.113281 550.386719 389.886719 550.921875 L 386.800781 550.183594 C 387.015625 547.390625 385.347656 544.8125 383.515625 544.511719 "/>
<path style=" stroke:none;fill-rule:nonzero;fill:rgb(26.269531%,14.898682%,15.289307%);fill-opacity:1;" d="M 348.460938 552.839844 L 358.992188 556.046875 C 359.046875 556.066406 359.109375 556.074219 359.164062 556.074219 C 359.414062 556.074219 359.648438 555.910156 359.726562 555.65625 C 359.816406 555.347656 359.644531 555.023438 359.332031 554.925781 L 348.800781 551.71875 C 348.496094 551.625 348.164062 551.800781 348.070312 552.109375 C 347.976562 552.417969 348.152344 552.742188 348.460938 552.839844 Z M 427.632812 419.886719 C 427.671875 419.902344 427.703125 419.929688 427.75 419.945312 C 427.882812 419.988281 441.042969 423.9375 449.664062 429.816406 C 449.792969 429.902344 449.929688 429.996094 450.058594 430.085938 C 450.160156 430.15625 450.277344 430.191406 450.394531 430.191406 C 450.574219 430.191406 450.757812 430.105469 450.871094 429.941406 C 450.878906 429.9375 450.878906 429.925781 450.882812 429.917969 C 451.050781 429.652344 450.988281 429.304688 450.730469 429.128906 C 441.960938 422.988281 428.21875 418.863281 428.082031 418.820312 C 427.789062 418.738281 427.492188 418.894531 427.382812 419.164062 C 427.375 419.183594 427.359375 419.195312 427.351562 419.21875 C 427.273438 419.484375 427.402344 419.753906 427.632812 419.886719 Z M 571.914062 541.808594 C 571.921875 542.128906 572.183594 542.382812 572.496094 542.382812 C 572.503906 542.382812 572.507812 542.382812 572.511719 542.382812 C 572.835938 542.375 573.09375 542.109375 573.082031 541.785156 C 573.082031 541.738281 572.996094 537.226562 572.695312 531.273438 C 572.691406 531.144531 572.679688 531.019531 572.675781 530.890625 C 572.65625 530.566406 572.425781 530.308594 572.058594 530.335938 C 571.738281 530.351562 571.488281 530.628906 571.503906 530.949219 C 571.816406 536.988281 571.914062 541.621094 571.914062 541.792969 C 571.914062 541.796875 571.914062 541.808594 571.914062 541.808594 Z M 513.410156 541.589844 C 513.453125 541.875 513.707031 542.082031 513.984375 542.082031 C 514.015625 542.082031 514.050781 542.078125 514.082031 542.074219 C 514.363281 542.027344 514.5625 541.78125 514.5625 541.496094 C 514.5625 541.46875 514.570312 541.4375 514.566406 541.402344 C 513.128906 532.59375 511.300781 524.074219 509.121094 516.070312 C 509.03125 515.761719 508.71875 515.578125 508.402344 515.660156 C 508.398438 515.664062 508.398438 515.664062 508.398438 515.664062 C 508.15625 515.734375 507.996094 515.949219 507.976562 516.183594 C 507.972656 516.25 507.972656 516.3125 507.992188 516.378906 C 510.15625 524.339844 511.984375 532.820312 513.410156 541.589844 Z M 111.601562 294.089844 C 103.566406 288.003906 94.617188 285.75 85.007812 287.375 C 84.6875 287.425781 84.472656 287.730469 84.527344 288.046875 C 84.527344 288.050781 84.527344 288.054688 84.527344 288.054688 C 84.585938 288.371094 84.882812 288.585938 85.199219 288.527344 C 94.480469 286.953125 103.128906 289.136719 110.898438 295.023438 C 131.578125 310.679688 142.121094 349.351562 146.847656 373.390625 C 146.769531 373.382812 146.695312 373.386719 146.625 373.410156 L 43.171875 402.636719 C 43.023438 402.679688 42.910156 402.769531 42.832031 402.882812 C 36.476562 373.324219 32.617188 340.9375 42.082031 318.921875 C 42.210938 318.628906 42.078125 318.292969 41.785156 318.164062 C 41.78125 318.160156 41.78125 318.160156 41.777344 318.15625 C 41.480469 318.027344 41.136719 318.167969 41.007812 318.460938 C 29.347656 345.566406 37.597656 387.964844 46.078125 421.867188 C 46.148438 422.136719 46.386719 422.3125 46.644531 422.3125 C 46.691406 422.3125 46.742188 422.308594 46.789062 422.296875 C 47.101562 422.214844 47.296875 421.898438 47.210938 421.585938 C 47.210938 421.585938 47.210938 421.582031 47.210938 421.574219 C 45.773438 415.820312 44.335938 409.816406 43.007812 403.6875 C 43.144531 403.773438 43.316406 403.804688 43.492188 403.761719 L 146.9375 374.539062 C 146.984375 374.523438 147.019531 374.507812 147.0625 374.488281 C 149.230469 385.738281 150.09375 393.527344 150.121094 393.769531 C 150.121094 393.800781 150.140625 393.828125 150.148438 393.855469 C 150.222656 394.132812 150.472656 394.324219 150.765625 394.289062 C 151.085938 394.253906 151.320312 393.964844 151.28125 393.648438 C 151.207031 392.886719 142.878906 317.765625 111.601562 294.089844 Z M 72.921875 504.757812 C 72.601562 504.730469 72.320312 504.984375 72.304688 505.304688 L 65.066406 627.035156 C 65.046875 627.355469 65.292969 627.628906 65.613281 627.652344 C 65.628906 627.652344 65.636719 627.652344 65.648438 627.652344 C 65.957031 627.652344 66.21875 627.410156 66.230469 627.097656 L 73.46875 505.371094 C 73.492188 505.054688 73.246094 504.773438 72.921875 504.757812 Z M 202.1875 231.027344 C 201.863281 231.054688 201.625 231.335938 201.648438 231.652344 C 201.667969 231.976562 201.949219 232.191406 202.273438 232.199219 C 202.496094 232.171875 207.753906 231.894531 211.136719 238.921875 C 211.234375 239.132812 211.445312 239.253906 211.664062 239.253906 C 211.746094 239.253906 211.835938 239.238281 211.917969 239.195312 C 212.210938 239.054688 212.332031 238.707031 212.191406 238.414062 C 208.445312 230.636719 202.433594 231 202.1875 231.027344 Z M 154.550781 278.335938 C 145.703125 272.996094 139.757812 259.605469 139.699219 259.46875 C 139.570312 259.175781 139.226562 259.039062 138.933594 259.167969 C 138.636719 259.296875 138.496094 259.640625 138.628906 259.941406 C 138.878906 260.5 144.777344 273.804688 153.949219 279.335938 C 154.03125 279.386719 154.121094 279.402344 154.210938 279.410156 C 154.226562 279.410156 154.238281 279.417969 154.25 279.417969 C 154.429688 279.417969 154.589844 279.332031 154.703125 279.183594 C 154.71875 279.167969 154.738281 279.15625 154.753906 279.140625 C 154.917969 278.859375 154.832031 278.5 154.550781 278.335938 Z M 190.203125 274.277344 C 190.144531 274.265625 184.773438 272.847656 181.324219 264.671875 C 181.203125 264.375 180.855469 264.238281 180.5625 264.363281 C 180.261719 264.488281 180.121094 264.832031 180.246094 265.128906 C 183.941406 273.886719 189.679688 275.355469 189.925781 275.410156 C 189.972656 275.425781 190.019531 275.429688 190.0625 275.429688 C 190.324219 275.429688 190.566406 275.25 190.632812 274.980469 C 190.703125 274.671875 190.511719 274.351562 190.203125 274.277344 Z M 344.046875 582.679688 C 344.839844 583.136719 362.300781 593.023438 372.636719 595.246094 C 373.488281 595.425781 374.304688 595.566406 375.042969 595.632812 C 375.0625 595.636719 375.082031 595.636719 375.097656 595.636719 C 375.355469 595.636719 375.570312 595.464844 375.648438 595.226562 C 375.65625 595.183594 375.675781 595.148438 375.679688 595.109375 C 375.710938 594.785156 375.472656 594.5 375.148438 594.46875 C 365.660156 593.585938 344.832031 581.78125 344.621094 581.664062 C 344.34375 581.503906 343.984375 581.601562 343.824219 581.882812 C 343.664062 582.160156 343.761719 582.519531 344.046875 582.679688 Z M 348.363281 574.328125 C 349.464844 574.902344 375.515625 588.40625 389.027344 590.660156 C 389.058594 590.664062 389.089844 590.667969 389.121094 590.667969 C 389.402344 590.667969 389.648438 590.460938 389.699219 590.179688 C 389.753906 589.859375 389.535156 589.558594 389.21875 589.503906 C 375.894531 587.289062 349.171875 573.433594 348.902344 573.289062 C 348.617188 573.144531 348.261719 573.253906 348.113281 573.542969 C 347.964844 573.824219 348.074219 574.179688 348.363281 574.328125 Z M 353.078125 565.199219 C 352.9375 565.488281 353.0625 565.839844 353.355469 565.976562 C 353.640625 566.109375 381.984375 579.460938 400.839844 583.496094 C 400.878906 583.503906 400.921875 583.507812 400.960938 583.507812 C 401.230469 583.507812 401.472656 583.320312 401.535156 583.046875 C 401.601562 582.734375 401.402344 582.421875 401.085938 582.355469 C 382.363281 578.347656 354.140625 565.054688 353.859375 564.921875 C 353.566406 564.785156 353.21875 564.902344 353.078125 565.199219 Z M 199.828125 236.558594 C 193.140625 236.558594 187.703125 241.839844 187.703125 248.328125 C 187.703125 254.820312 193.140625 260.097656 199.828125 260.097656 C 206.507812 260.097656 211.945312 254.820312 211.945312 248.328125 C 211.945312 241.839844 206.507812 236.558594 199.828125 236.558594 Z M 252.949219 226.035156 C 248.660156 237.636719 237.636719 239.214844 224.734375 235.191406 C 215.128906 232.191406 204.476562 226.09375 194.777344 218.71875 C 190.894531 221.3125 186.703125 223.449219 182.390625 225.175781 C 187.300781 230.054688 191.867188 235.667969 193.085938 237.195312 C 195.066406 236.058594 197.367188 235.390625 199.828125 235.390625 C 207.15625 235.390625 213.113281 241.195312 213.113281 248.328125 C 213.113281 255.460938 207.15625 261.269531 199.828125 261.269531 C 192.496094 261.269531 186.535156 255.460938 186.535156 248.328125 C 186.535156 244.007812 188.734375 240.179688 192.09375 237.824219 C 189.703125 234.828125 185.4375 229.816406 181.199219 225.640625 C 179.859375 226.152344 178.507812 226.628906 177.160156 227.0625 C 177.304688 226.84375 177.394531 226.710938 177.394531 226.710938 C 177.394531 226.710938 177.492188 223.707031 176.445312 221.375 C 175.71875 219.753906 174.429688 218.46875 172.179688 218.746094 C 170.730469 218.917969 168.890625 219.726562 166.539062 221.511719 C 162.101562 224.878906 160.320312 228.066406 160.089844 230.652344 C 146.160156 232.132812 134.679688 229.8125 133.054688 225.355469 C 133.015625 225.234375 132.976562 225.109375 132.945312 224.976562 C 130.199219 214.539062 153.441406 161.65625 174.296875 169.761719 C 181.261719 166.457031 191.710938 164.617188 206.144531 169.824219 C 236.628906 180.824219 263.648438 197.070312 252.949219 226.035156 Z M 202.125 247.578125 C 203.324219 248.363281 204.933594 248.027344 205.722656 246.828125 C 206.503906 245.632812 206.167969 244.023438 204.972656 243.238281 C 203.773438 242.457031 202.164062 242.789062 201.375 243.988281 C 200.589844 245.183594 200.929688 246.792969 202.125 247.578125 Z M 381.007812 561.476562 C 381.308594 561.476562 381.5625 561.246094 381.585938 560.9375 C 381.613281 560.617188 381.375 560.335938 381.050781 560.308594 C 378.40625 560.09375 376.0625 559.089844 374.09375 557.808594 C 373.421875 557.847656 372.757812 557.867188 372.109375 557.863281 C 374.449219 559.652344 377.425781 561.183594 380.957031 561.472656 C 380.972656 561.472656 380.988281 561.476562 381.007812 561.476562 Z M 412.855469 572.101562 C 412.664062 572.363281 412.71875 572.730469 412.972656 572.921875 C 413.113281 573.027344 424.144531 581.09375 442.628906 581.09375 C 447.492188 581.09375 452.871094 580.535156 458.707031 579.125 C 459.015625 579.046875 459.214844 578.730469 459.136719 578.421875 C 459.058594 578.105469 458.746094 577.917969 458.429688 577.988281 C 431 584.625 413.847656 572.113281 413.679688 571.984375 C 413.417969 571.792969 413.050781 571.847656 412.855469 572.101562 Z M 418.867188 555.382812 C 418.558594 555.320312 418.242188 555.53125 418.183594 555.84375 C 418.140625 556.046875 417.246094 560.84375 420.597656 564.613281 C 423.125 567.445312 427.3125 568.875 433.082031 568.875 C 434.082031 568.875 435.128906 568.832031 436.21875 568.746094 C 436.542969 568.71875 436.785156 568.4375 436.757812 568.113281 C 436.746094 568.042969 436.730469 567.976562 436.699219 567.914062 C 436.597656 567.695312 436.371094 567.546875 436.125 567.582031 C 435.863281 567.597656 435.628906 567.597656 435.371094 567.617188 C 428.777344 568.011719 424.089844 566.757812 421.484375 563.84375 C 418.511719 560.519531 419.320312 556.113281 419.332031 556.070312 C 419.390625 555.753906 419.183594 555.449219 418.867188 555.382812 Z M 451.984375 571.910156 C 452.128906 571.914062 452.902344 571.941406 454.101562 571.941406 C 459.191406 571.941406 471.910156 571.414062 476.296875 566.3125 C 477.632812 564.757812 478.097656 562.90625 477.691406 560.820312 C 477.628906 560.5 477.316406 560.289062 477.003906 560.359375 C 476.6875 560.417969 476.480469 560.722656 476.542969 561.042969 C 476.882812 562.789062 476.515625 564.265625 475.410156 565.546875 C 470.363281 571.421875 452.21875 570.75 452.03125 570.742188 C 451.710938 570.734375 451.433594 570.980469 451.421875 571.300781 C 451.40625 571.625 451.660156 571.898438 451.984375 571.910156 Z M 433.441406 538.691406 C 433.445312 538.691406 433.449219 538.691406 433.460938 538.691406 C 433.777344 538.691406 434.035156 538.441406 434.046875 538.125 L 436.082031 468.070312 C 436.089844 467.746094 435.832031 467.476562 435.511719 467.46875 C 435.191406 467.488281 434.917969 467.714844 434.910156 468.039062 L 432.875 538.089844 C 432.867188 538.414062 433.117188 538.683594 433.441406 538.691406 Z M 443.410156 500.957031 C 443.417969 500.957031 443.429688 500.957031 443.441406 500.949219 C 443.761719 500.9375 444.015625 500.664062 443.996094 500.339844 L 441.054688 443.394531 C 441.035156 443.070312 440.800781 442.808594 440.441406 442.839844 C 440.117188 442.855469 439.871094 443.128906 439.882812 443.453125 L 442.824219 500.398438 C 442.84375 500.714844 443.097656 500.957031 443.410156 500.957031 Z M 546.695312 541.664062 C 546.703125 541.726562 546.707031 541.785156 546.710938 541.847656 C 546.738281 542.15625 546.996094 542.382812 547.292969 542.382812 C 547.3125 542.382812 547.328125 542.378906 547.347656 542.378906 C 547.671875 542.351562 547.90625 542.066406 547.878906 541.742188 C 547.878906 541.714844 547.875 541.695312 547.875 541.671875 C 545.207031 512.253906 540.628906 500.804688 539.996094 499.332031 C 539.957031 499.25 539.933594 499.195312 539.921875 499.171875 C 539.789062 498.886719 539.460938 498.761719 539.167969 498.875 C 539.15625 498.882812 539.152344 498.882812 539.144531 498.882812 C 538.851562 499.019531 538.722656 499.367188 538.855469 499.65625 C 538.90625 499.769531 543.910156 511.015625 546.695312 541.664062 Z M 425.085938 535.703125 C 425.34375 535.703125 425.589844 535.710938 425.84375 535.710938 C 425.851562 535.320312 425.863281 534.933594 425.875 534.539062 C 425.609375 534.539062 425.351562 534.535156 425.085938 534.535156 C 419.949219 534.535156 414.9375 534.664062 410.066406 534.902344 L 410.273438 536.070312 C 415.085938 535.832031 420.035156 535.703125 425.085938 535.703125 Z M 510.191406 558.886719 C 510.195312 558.957031 510.210938 559.023438 510.21875 559.097656 L 510.605469 559.085938 L 510.800781 559.078125 L 511.386719 559.0625 C 511.039062 548.167969 487.179688 539.148438 453.453125 535.867188 C 453.484375 536.277344 453.515625 536.667969 453.546875 537.070312 C 486.015625 540.289062 509.550781 548.84375 510.191406 558.886719 Z M 589.148438 555.839844 C 588.820312 559.308594 587.546875 562.613281 585.308594 565.726562 C 564.855469 594.183594 467.691406 601.402344 409.613281 601.402344 C 405.253906 601.402344 401.121094 601.363281 397.253906 601.289062 C 333.726562 600.050781 303.925781 588.089844 295.574219 575.441406 C 296.070312 575.40625 296.535156 575.375 296.988281 575.335938 C 305.601562 587.148438 335.105469 598.910156 397.277344 600.117188 C 452.496094 601.179688 562.65625 595.246094 584.355469 565.046875 C 588.304688 559.550781 589.101562 553.414062 586.726562 546.8125 C 586.621094 546.523438 586.769531 546.207031 587.050781 546.082031 C 587.0625 546.078125 587.070312 546.070312 587.078125 546.070312 C 587.382812 545.960938 587.71875 546.117188 587.828125 546.421875 C 589 549.671875 589.429688 552.816406 589.148438 555.839844 "/>
</g>
</svg>
