<?xml version="1.0" encoding="UTF-8"?>
<svg xmlns="http://www.w3.org/2000/svg" xmlns:xlink="http://www.w3.org/1999/xlink" width="595.5pt" height="842.249979pt" viewBox="0 0 595.5 842.249979" version="1.2">
<defs>
<clipPath id="clip1">
  <path d="M 139 179 L 422 179 L 422 624 L 139 624 Z M 139 179 "/>
</clipPath>
<clipPath id="clip2">
  <path d="M 131.511719 220.359375 L 345.5 170.425781 L 441.105469 580.148438 L 227.113281 630.082031 Z M 131.511719 220.359375 "/>
</clipPath>
<clipPath id="clip3">
  <path d="M 131.511719 220.359375 L 345.5 170.425781 L 441.105469 580.148438 L 227.113281 630.082031 Z M 131.511719 220.359375 "/>
</clipPath>
<clipPath id="clip4">
  <path d="M 155 209 L 406 209 L 406 587 L 155 587 Z M 155 209 "/>
</clipPath>
<clipPath id="clip5">
  <path d="M 131.511719 220.359375 L 345.5 170.425781 L 441.105469 580.148438 L 227.113281 630.082031 Z M 131.511719 220.359375 "/>
</clipPath>
<clipPath id="clip6">
  <path d="M 131.511719 220.359375 L 345.5 170.425781 L 441.105469 580.148438 L 227.113281 630.082031 Z M 131.511719 220.359375 "/>
</clipPath>
<clipPath id="clip7">
  <path d="M 150 184 L 434 184 L 434 620 L 150 620 Z M 150 184 "/>
</clipPath>
<clipPath id="clip8">
  <path d="M 131.511719 220.359375 L 345.5 170.425781 L 441.105469 580.148438 L 227.113281 630.082031 Z M 131.511719 220.359375 "/>
</clipPath>
<clipPath id="clip9">
  <path d="M 131.511719 220.359375 L 345.5 170.425781 L 441.105469 580.148438 L 227.113281 630.082031 Z M 131.511719 220.359375 "/>
</clipPath>
</defs>
<g id="surface1">
<g clip-path="url(#clip1)" clip-rule="nonzero">
<g clip-path="url(#clip2)" clip-rule="nonzero">
<g clip-path="url(#clip3)" clip-rule="nonzero">
<path style=" stroke:none;fill-rule:nonzero;fill:rgb(78.42865%,34.899902%,70.588684%);fill-opacity:1;" d="M 420.71875 551.324219 L 416.402344 532.816406 L 215.367188 579.726562 L 220.007812 599.625 C 223.886719 616.246094 240.566406 626.601562 257.210938 622.714844 L 396.429688 590.230469 C 413.890625 586.15625 424.789062 568.761719 420.722656 551.324219 Z M 302.90625 180.535156 L 167.625 212.101562 C 148.355469 216.597656 136.34375 235.894531 140.835938 255.136719 L 143.320312 265.777344 L 344.355469 218.871094 L 340.914062 204.132812 C 336.941406 187.097656 319.875 176.574219 302.902344 180.535156 Z M 414.261719 523.648438 L 214.375 570.289062 L 145.191406 273.800781 L 344.996094 227.175781 L 414.179688 523.664062 L 414.261719 523.644531 "/>
</g>
</g>
</g>
<g clip-path="url(#clip4)" clip-rule="nonzero">
<g clip-path="url(#clip5)" clip-rule="nonzero">
<g clip-path="url(#clip6)" clip-rule="nonzero">
<path style=" stroke:none;fill-rule:nonzero;fill:rgb(100%,86.669922%,54.119873%);fill-opacity:1;" d="M 329.378906 564.089844 C 323.148438 565.542969 319.230469 571.722656 320.644531 577.78125 C 322.058594 583.84375 328.304688 587.652344 334.539062 586.195312 C 340.769531 584.742188 344.6875 578.5625 343.273438 572.503906 C 341.859375 566.445312 335.609375 562.636719 329.378906 564.089844 Z M 285.027344 212.851562 L 284.378906 210.066406 C 284.226562 209.410156 283.621094 209.035156 282.964844 209.191406 L 217.207031 224.53125 C 216.550781 224.6875 216.175781 225.289062 216.328125 225.945312 L 216.980469 228.730469 C 217.132812 229.382812 217.738281 229.761719 218.394531 229.609375 L 284.148438 214.265625 C 284.722656 214.132812 285.179688 213.503906 285.027344 212.851562 Z M 405.574219 515.3125 L 220.445312 558.511719 L 155.238281 279.054688 L 340.367188 235.855469 L 405.574219 515.3125 "/>
</g>
</g>
</g>
<g clip-path="url(#clip7)" clip-rule="nonzero">
<g clip-path="url(#clip8)" clip-rule="nonzero">
<g clip-path="url(#clip9)" clip-rule="nonzero">
<path style=" stroke:none;fill-rule:nonzero;fill:rgb(5.879211%,5.488586%,4.708862%);fill-opacity:1;" d="M 180.785156 219.21875 C 162.003906 223.601562 150.3125 242.386719 154.6875 261.140625 L 231.261719 589.316406 C 235.636719 608.066406 254.441406 619.738281 273.21875 615.355469 L 402.515625 585.1875 C 421.289062 580.804688 432.984375 562.015625 428.609375 543.265625 L 352.035156 215.089844 C 347.660156 196.339844 328.855469 184.671875 310.078125 189.050781 Z M 403.355469 588.789062 L 274.058594 618.957031 C 253.316406 623.800781 232.488281 610.875 227.652344 590.15625 L 151.078125 261.980469 C 146.246094 241.265625 159.199219 220.457031 179.945312 215.617188 L 309.238281 185.445312 C 330.066406 180.585938 350.890625 193.515625 355.726562 214.230469 L 432.300781 542.40625 C 437.132812 563.121094 424.179688 583.929688 403.355469 588.789062 "/>
</g>
</g>
</g>
</g>
</svg>
