<?xml version="1.0" encoding="UTF-8"?>
<svg xmlns="http://www.w3.org/2000/svg" xmlns:xlink="http://www.w3.org/1999/xlink" width="595.5pt" height="842.249979pt" viewBox="0 0 595.5 842.249979" version="1.2">
<defs>
<clipPath id="clip1">
  <path d="M 28.140625 211.402344 L 203.132812 211.402344 L 203.132812 375.765625 L 28.140625 375.765625 Z M 28.140625 211.402344 "/>
</clipPath>
<clipPath id="clip2">
  <path d="M 73 138.972656 L 171 138.972656 L 171 640.640625 L 73 640.640625 Z M 73 138.972656 "/>
</clipPath>
<clipPath id="clip3">
  <path d="M 485 209 L 562.585938 209 L 562.585938 398 L 485 398 Z M 485 209 "/>
</clipPath>
<clipPath id="clip4">
  <path d="M 489 560 L 539.210938 560 L 539.210938 662.066406 L 489 662.066406 Z M 489 560 "/>
</clipPath>
</defs>
<g id="surface1">
<path style=" stroke:none;fill-rule:nonzero;fill:rgb(77.648926%,54.899597%,35.688782%);fill-opacity:1;" d="M 152.855469 188.785156 C 152.082031 190.058594 150.085938 190.394531 148.828125 190.476562 C 148.152344 190.519531 147.582031 190.972656 147.375 191.617188 L 142.707031 206.292969 C 142.507812 206.929688 142.703125 207.621094 143.214844 208.050781 L 149.691406 213.503906 C 150.402344 214.101562 150.480469 215.160156 149.859375 215.851562 C 146.640625 219.429688 137.628906 229.292969 137.25 228.242188 C 136.78125 226.964844 129.328125 233.792969 128.164062 233.792969 C 127 233.792969 123.742188 229.738281 121.875 228.242188 C 121.257812 227.746094 120.867188 227.816406 120.625 228.132812 C 120.003906 228.949219 118.71875 228.84375 118.039062 228.078125 C 116.398438 226.230469 114.144531 223.378906 112.324219 219.929688 C 111.105469 217.605469 103.964844 215.15625 105.882812 214.226562 C 108.316406 213.046875 115.3125 209.160156 116.6875 208.242188 C 117.410156 207.75 117.027344 203.449219 116.566406 202.703125 C 113.644531 197.902344 110.183594 191.160156 109.320312 187.679688 C 109.171875 187.101562 108.71875 186.699219 108.160156 186.503906 C 105.953125 185.742188 104.742188 182.109375 103.707031 176.628906 C 103.183594 173.84375 103.464844 172.269531 103.925781 171.378906 C 104.367188 170.539062 105.480469 170.324219 106.269531 170.851562 C 107.363281 171.585938 108.832031 170.800781 108.832031 169.484375 L 108.832031 168.304688 C 108.832031 167.570312 109.3125 166.898438 110.023438 166.726562 C 111.152344 166.449219 113.191406 166.359375 116.519531 167.453125 C 122.34375 169.375 120.929688 164.289062 121.164062 162.15625 C 121.394531 160.023438 124.4375 159.777344 131.890625 161.273438 C 139.347656 162.765625 137.425781 156.46875 137.652344 154.550781 C 137.886719 152.632812 149.828125 156.578125 150.757812 157.433594 C 151.65625 158.253906 151.902344 173.484375 151.921875 174.632812 C 151.933594 174.347656 152.214844 173.277344 155.414062 172.363281 C 159.140625 171.296875 154.019531 186.867188 152.855469 188.785156 "/>
<g clip-path="url(#clip1)" clip-rule="nonzero">
<path style=" stroke:none;fill-rule:nonzero;fill:rgb(95.689392%,41.569519%,38.038635%);fill-opacity:1;" d="M 156.753906 338.742188 C 156.753906 338.742188 157.894531 335.816406 157.527344 329.996094 C 157.167969 324.171875 170.921875 282.957031 170.921875 282.957031 L 174.660156 326.722656 Z M 72.03125 332.335938 C 72.03125 332.335938 60.332031 310.839844 56.863281 302.875 C 56.863281 302.875 57.933594 299.03125 59.683594 297.414062 C 61.371094 295.867188 73.515625 285.253906 74.207031 280.519531 Z M 192.675781 249.382812 C 187.90625 217.457031 150.988281 212.847656 150.988281 212.847656 L 131.757812 230.496094 C 129.792969 232.300781 126.71875 232.121094 124.972656 230.101562 L 109.050781 211.726562 C 109.050781 211.726562 89.039062 211.75 75.554688 217.382812 C 62.066406 223.011719 31.46875 288.457031 28.351562 308.683594 C 25.238281 328.921875 57.433594 359.007812 58.992188 362.894531 C 60.546875 366.78125 66.289062 372.699219 66.738281 373.328125 C 70.589844 378.84375 79.214844 356.488281 79.214844 356.488281 L 91.632812 361.265625 L 92.808594 358.617188 L 140.886719 354.160156 C 140.886719 354.160156 139.15625 356.347656 137.5 359.007812 C 137.167969 358.703125 136.792969 358.421875 136.351562 358.199219 C 135.605469 357.808594 134.484375 358.160156 133.746094 358.421875 C 133.566406 358.480469 131.910156 359.246094 132.542969 359.578125 C 134.035156 360.34375 134.773438 361.765625 135.265625 363.269531 C 134.5625 365.027344 134.265625 366.640625 134.851562 367.660156 C 135.800781 369.289062 136.851562 370.261719 138.382812 371.308594 C 138.414062 371.335938 138.449219 371.363281 138.480469 371.378906 C 139.890625 373.230469 141.785156 374.609375 144.101562 375.070312 C 146.929688 375.613281 150.175781 374.972656 152.542969 373.339844 C 152.691406 373.230469 153.082031 372.980469 153.019531 372.726562 C 152.953125 372.476562 152.480469 372.449219 152.304688 372.4375 C 151.398438 372.378906 150.203125 372.6875 149.449219 373.203125 C 149.292969 373.3125 149.140625 373.410156 148.976562 373.507812 C 148.992188 373.496094 148.882812 373.535156 148.8125 373.550781 C 148.746094 373.5625 148.644531 373.578125 148.632812 373.578125 C 148.40625 373.578125 148.175781 373.59375 147.941406 373.5625 C 147.195312 373.496094 146.464844 373.285156 145.777344 372.964844 C 146.398438 372.796875 147.03125 372.589844 147.695312 372.351562 C 150.417969 371.390625 153.089844 370.261719 155.742188 369.121094 C 161.632812 366.585938 167.441406 363.871094 173.183594 361 C 180.363281 357.40625 187.585938 353.742188 194.417969 349.46875 C 196.09375 348.421875 197.75 347.351562 199.300781 346.109375 C 209.171875 338.210938 197.445312 281.296875 192.675781 249.382812 "/>
</g>
<g clip-path="url(#clip2)" clip-rule="nonzero">
<path style=" stroke:none;fill-rule:nonzero;fill:rgb(14.509583%,11.759949%,37.649536%);fill-opacity:1;" d="M 132.601562 204.667969 C 128.136719 205.632812 123.121094 206.558594 119.453125 203.082031 C 119.050781 202.707031 118.105469 202.871094 117.625 202.96875 C 117.449219 203.007812 116.304688 203.308594 116.675781 203.65625 C 121.15625 207.890625 128.0625 206.636719 133.480469 205.464844 C 133.746094 205.40625 134.691406 205.214844 134.429688 204.78125 C 134.1875 204.390625 132.921875 204.601562 132.601562 204.667969 Z M 74.601562 639.699219 C 82.347656 643.082031 131.21875 636.3125 131.21875 636.3125 L 132.050781 621.242188 L 117.683594 621.242188 C 117.683594 621.242188 66.855469 636.3125 74.601562 639.699219 Z M 151.921875 174.71875 L 155.414062 172.375 C 155.707031 170.96875 156.105469 169.570312 156.601562 168.210938 C 157.25 166.433594 159.347656 165.011719 159.429688 163.097656 C 159.472656 162.101562 158.875 161.175781 158.1875 160.402344 C 157.535156 159.667969 156.777344 159.011719 155.949219 158.445312 C 155.652344 158.242188 155.320312 158.046875 154.949219 158.03125 C 154.703125 158.027344 154.445312 158.140625 154.296875 158.320312 C 155.164062 156.332031 158.039062 153.777344 156.0625 151.761719 C 154.597656 150.265625 152.515625 148.796875 152.382812 146.636719 C 152.203125 143.617188 147.066406 143.949219 145.234375 144.289062 C 143.398438 144.625 143.035156 141.605469 140.46875 140.261719 C 137.902344 138.917969 136.253906 142.773438 133.324219 140.046875 C 130.386719 137.324219 124.519531 140.59375 122.140625 141.4375 C 119.761719 142.273438 119.941406 139.253906 116.460938 140.261719 C 112.972656 141.265625 115.910156 143.113281 110.59375 143.949219 C 105.277344 144.792969 108.207031 148.820312 108.207031 150.332031 C 108.207031 151.839844 105.34375 152.847656 105.34375 152.847656 C 99.902344 154.859375 104.542969 162.417969 105.34375 163.421875 C 106.136719 164.429688 105.34375 170.242188 105.34375 170.242188 C 105.34375 170.242188 107.996094 172.027344 108.832031 172.585938 C 109.671875 173.152344 110.042969 172.820312 110.957031 170.304688 C 111.875 167.789062 113.789062 166.765625 117.609375 167.804688 C 121.425781 168.84375 120.738281 168.058594 121.589844 164.363281 C 122.441406 160.675781 128.574219 162.03125 134.265625 161.566406 C 152.164062 160.109375 151.921875 174.71875 151.921875 174.71875 Z M 167.316406 638.472656 C 166.007812 636.789062 164.386719 634.683594 162.375 632.039062 C 154.3125 621.394531 141.960938 601.394531 138.816406 596.265625 C 138.339844 595.488281 138.457031 594.5 139.085938 593.828125 C 140.125 592.742188 141.882812 591.199219 144.003906 590.667969 C 144.003906 590.667969 155.09375 586.070312 159.765625 596.492188 C 163.074219 603.859375 168.175781 625.03125 170.867188 636.789062 C 171.355469 638.890625 168.636719 640.15625 167.316406 638.472656 "/>
</g>
<path style=" stroke:none;fill-rule:nonzero;fill:rgb(14.509583%,11.759949%,37.649536%);fill-opacity:1;" d="M 70.289062 555.003906 C 75.378906 559.738281 80.859375 564.058594 86.644531 567.945312 C 87.519531 568.527344 90.394531 567.261719 89.121094 566.398438 C 68.660156 552.664062 52.3125 532.980469 42.402344 510.445312 C 39.632812 504.148438 37.382812 497.628906 35.652344 490.984375 C 35.363281 489.859375 32.230469 490.679688 32.53125 491.820312 C 38.800781 515.90625 52.085938 538.023438 70.289062 555.003906 Z M 97.253906 596.375 C 76.3125 589.117188 56.996094 577.542969 40.691406 562.539062 C 40.074219 561.96875 37.242188 563.136719 37.75 563.613281 C 54.164062 578.710938 73.613281 590.300781 94.691406 597.613281 C 95.414062 597.863281 98.199219 596.707031 97.253906 596.375 Z M 84.050781 616.207031 C 72.859375 617.199219 61.566406 615.496094 51.136719 611.332031 C 50.46875 611.070312 49.519531 611.234375 48.929688 611.640625 C 48.570312 611.875 47.921875 612.53125 48.640625 612.808594 C 59.746094 617.238281 71.703125 618.9375 83.609375 617.878906 C 85.117188 617.742188 86.222656 616.011719 84.050781 616.207031 Z M 176.445312 324.339844 C 176.640625 324.214844 176.792969 324.074219 176.78125 323.933594 C 175.230469 304.683594 173.699219 285.433594 172.152344 266.183594 C 172.121094 265.773438 169.265625 266.253906 169.320312 266.9375 C 170.867188 286.1875 172.402344 305.4375 173.949219 324.6875 C 173.949219 324.730469 174.003906 324.742188 174.046875 324.769531 C 170.53125 327.460938 167.03125 330.132812 163.53125 332.820312 C 163.035156 333.199219 163.199219 333.753906 163.75 333.949219 C 164.40625 334.171875 165.234375 333.964844 165.78125 333.558594 C 169.347656 330.816406 172.917969 328.085938 176.488281 325.355469 C 176.917969 325.035156 176.820312 324.574219 176.445312 324.339844 Z M 153.019531 372.730469 C 152.953125 372.476562 152.480469 372.449219 152.304688 372.4375 C 151.398438 372.378906 150.203125 372.6875 149.449219 373.203125 C 149.292969 373.3125 149.140625 373.410156 148.976562 373.507812 C 148.992188 373.496094 148.882812 373.535156 148.8125 373.550781 C 148.746094 373.5625 148.644531 373.578125 148.632812 373.578125 C 148.40625 373.578125 148.175781 373.59375 147.941406 373.5625 C 146.972656 373.480469 146.023438 373.144531 145.183594 372.660156 C 143.320312 371.585938 141.976562 369.832031 141.089844 367.910156 C 139.65625 364.789062 139.792969 359.96875 136.351562 358.199219 C 135.605469 357.808594 134.484375 358.160156 133.746094 358.421875 C 133.566406 358.480469 131.910156 359.246094 132.542969 359.578125 C 134.539062 360.609375 135.1875 362.796875 135.71875 364.816406 C 136.316406 367.085938 136.945312 369.300781 138.355469 371.222656 C 139.777344 373.144531 141.714844 374.59375 144.101562 375.070312 C 146.929688 375.613281 150.175781 374.972656 152.542969 373.339844 C 152.691406 373.230469 153.082031 372.980469 153.019531 372.730469 Z M 115.273438 517.8125 C 115.140625 500.765625 115.015625 488.339844 115.015625 488.339844 L 107.414062 451.261719 C 104.410156 472.738281 102.160156 492.140625 103.425781 494.707031 C 104.34375 496.585938 109.132812 505.820312 115.273438 517.8125 Z M 139.4375 566.0625 C 145.128906 577.902344 149.097656 586.847656 148.808594 588.265625 C 147.886719 592.878906 138.394531 597.488281 138.394531 597.488281 C 138.394531 597.488281 137.414062 596.289062 135.691406 594.214844 C 133.476562 610.761719 132.050781 621.238281 132.050781 621.238281 L 115.128906 621.238281 C 115.128906 621.238281 115.613281 593.726562 115.554688 569.824219 C 95.304688 545.210938 68.453125 512.324219 65.351562 507.226562 C 60.304688 498.941406 56.605469 472.765625 60.242188 438.570312 C 63.542969 407.605469 65.820312 375.695312 66.207031 369.441406 C 68.59375 366.640625 81.511719 342.835938 85.460938 345.039062 L 111.660156 347.753906 C 121.148438 346.320312 137.800781 347.585938 137.800781 347.585938 C 137.800781 347.585938 143.867188 368.910156 147.34375 368.242188 C 150.824219 367.574219 160.066406 367.003906 160.066406 367.003906 L 161.199219 382.660156 C 161.960938 393.261719 148.320312 498.953125 139.4375 566.0625 Z M 55.4375 301.828125 C 55.4375 301.886719 55.417969 301.941406 55.433594 302.011719 C 57.277344 308.585938 60.140625 314.851562 63.929688 320.535156 C 64.65625 321.621094 67.40625 320.660156 66.589844 319.421875 C 62.890625 313.890625 60.089844 307.832031 58.304688 301.410156 C 58.25 301.230469 58.136719 301.089844 57.992188 300.964844 C 62.707031 295.519531 67.410156 290.046875 72.121094 284.585938 C 72.519531 284.125 71.800781 284.070312 71.46875 284.085938 C 70.929688 284.085938 69.9375 284.238281 69.550781 284.683594 C 64.765625 290.242188 59.976562 295.796875 55.1875 301.34375 C 54.925781 301.648438 55.15625 301.773438 55.4375 301.828125 Z M 136.640625 240.871094 C 138.453125 241.601562 140.375 242.019531 142.332031 242.070312 C 144.03125 242.117188 146.019531 242.0625 147.503906 241.136719 C 148.835938 240.316406 148.90625 239 148.375 237.628906 C 147.953125 236.527344 147.394531 235.457031 146.824219 234.394531 C 148.546875 234.945312 150.265625 235.488281 151.992188 236.039062 C 154.128906 236.71875 156.90625 237.703125 158.867188 235.957031 C 159.761719 235.164062 159.441406 234.054688 159.214844 233.023438 C 158.890625 231.554688 158.511719 230.097656 158.078125 228.65625 C 157.25 225.886719 156.214844 223.1875 155.011719 220.558594 C 154.683594 219.84375 151.9375 220.789062 152.183594 221.316406 C 154.113281 225.511719 155.6875 229.972656 156.542969 234.523438 C 156.578125 234.726562 156.632812 234.941406 156.640625 235.152344 C 156.652344 235.332031 156.601562 235.484375 156.558594 235.609375 C 156.453125 235.574219 156.34375 235.554688 156.238281 235.523438 C 155.070312 235.179688 153.921875 234.789062 152.765625 234.421875 C 150.328125 233.644531 147.882812 232.871094 145.441406 232.09375 C 145.074219 231.980469 142.550781 232.40625 142.871094 233.035156 C 143.523438 234.324219 144.183594 235.613281 144.835938 236.898438 C 145.300781 237.8125 145.914062 238.839844 145.882812 239.90625 C 145.871094 240.140625 145.839844 240.4375 145.703125 240.636719 C 145.707031 240.695312 145.707031 240.75 145.714844 240.8125 C 145.527344 240.828125 145.34375 240.84375 145.152344 240.855469 C 144.445312 240.894531 143.742188 240.871094 143.039062 240.800781 C 141.628906 240.660156 140.261719 240.273438 138.953125 239.746094 C 138.398438 239.523438 137.476562 239.835938 136.976562 240.09375 C 136.660156 240.257812 136.0625 240.640625 136.640625 240.871094 Z M 129.402344 292.289062 C 129.140625 292.164062 128.746094 292.164062 128.46875 292.191406 C 128.105469 292.246094 127.710938 292.359375 127.402344 292.566406 C 127.179688 292.707031 126.9375 292.875 126.863281 293.152344 C 126.496094 294.40625 126.136719 295.671875 125.777344 296.941406 C 125.714844 297.164062 125.882812 297.34375 126.0625 297.429688 C 126.324219 297.566406 126.714844 297.566406 126.992188 297.527344 C 127.363281 297.46875 127.75 297.371094 128.066406 297.164062 C 128.289062 297.011719 128.527344 296.84375 128.605469 296.578125 C 128.964844 295.3125 129.324219 294.058594 129.6875 292.789062 C 129.75 292.566406 129.585938 292.386719 129.402344 292.289062 Z M 114.671875 328.15625 C 114.570312 329.617188 117.445312 329.226562 117.539062 327.945312 C 119.378906 303.070312 122.636719 278.316406 127.335938 253.820312 C 128.660156 246.921875 130.101562 240.042969 131.648438 233.1875 C 131.960938 231.8125 129.070312 232.148438 128.785156 233.402344 C 123.292969 257.726562 119.203125 282.371094 116.5625 307.164062 C 115.816406 314.15625 115.191406 321.148438 114.671875 328.15625 Z M 103.648438 234.65625 C 106.253906 234.253906 108.863281 233.847656 111.464844 233.445312 C 111.039062 235.347656 110.785156 237.285156 110.773438 239.238281 C 110.761719 240.804688 110.910156 242.644531 112.578125 243.320312 C 114.378906 244.054688 116.257812 243.070312 117.699219 242.015625 C 119.6875 240.566406 121.621094 239.042969 123.582031 237.558594 C 125.109375 236.402344 122.816406 235.488281 121.71875 236.324219 C 120.371094 237.339844 119.023438 238.363281 117.675781 239.386719 C 116.972656 239.917969 116.273438 240.492188 115.542969 240.992188 C 115 241.367188 114.488281 241.796875 113.996094 241.152344 C 113.25 240.183594 113.632812 238.132812 113.726562 237.035156 C 113.863281 235.359375 114.160156 233.707031 114.589844 232.078125 C 114.765625 231.410156 113.75 231.113281 113.292969 231.1875 C 110.792969 231.570312 108.289062 231.964844 105.789062 232.351562 C 104.699219 232.523438 103.605469 232.730469 102.511719 232.863281 C 101.808594 232.949219 101.757812 232.800781 102 232.109375 C 102.183594 231.570312 102.691406 231.058594 103.015625 230.597656 C 105.8125 226.652344 108.605469 222.703125 111.398438 218.757812 C 112.429688 217.304688 109.769531 216.9375 109.042969 217.96875 C 107.289062 220.449219 105.527344 222.929688 103.769531 225.414062 C 102.914062 226.621094 102.058594 227.835938 101.203125 229.042969 C 100.46875 230.074219 99.425781 231.167969 99.074219 232.410156 C 98.25 235.339844 101.945312 234.925781 103.648438 234.65625 Z M 131.28125 262.375 C 131.617188 262.199219 131.984375 262.089844 132.359375 262.03125 C 132.691406 261.972656 133.605469 261.882812 133.523438 262.441406 C 133.109375 265.316406 132.699219 268.195312 132.285156 271.078125 C 132.253906 271.304688 131.902344 271.484375 131.722656 271.578125 C 131.394531 271.757812 131.023438 271.863281 130.648438 271.929688 C 130.316406 271.984375 129.402344 272.070312 129.484375 271.515625 C 129.890625 268.636719 130.304688 265.757812 130.71875 262.875 C 130.75 262.65625 131.101562 262.472656 131.28125 262.375 "/>
<path style=" stroke:none;fill-rule:nonzero;fill:rgb(90.19928%,66.668701%,47.059631%);fill-opacity:1;" d="M 421.335938 338.296875 C 422.246094 339.113281 407.816406 374.734375 408.125 377.683594 C 408.433594 380.628906 418.875 391.976562 418.570312 392.902344 C 418.261719 393.824219 419.800781 407.019531 418.570312 407.945312 C 417.34375 408.855469 414.730469 407.945312 414.730469 407.945312 L 412.734375 400.570312 C 412.734375 400.570312 409.050781 402.105469 409.96875 405.800781 C 410.890625 409.476562 414.730469 423.585938 414.730469 423.585938 C 414.730469 423.585938 405.667969 426.042969 402.292969 416.835938 C 398.914062 407.632812 399.832031 407.019531 400.449219 402.71875 C 401.066406 398.425781 399.855469 385.839844 399.855469 385.839844 C 399.855469 385.839844 396.074219 375.945312 396.074219 374.300781 L 396.074219 344.40625 C 396.074219 344.40625 409.902344 345.125 413.667969 343.15625 C 416.582031 341.636719 419.503906 336.640625 421.335938 338.296875 "/>
<path style=" stroke:none;fill-rule:nonzero;fill:rgb(90.19928%,66.668701%,47.059631%);fill-opacity:1;" d="M 535.867188 337.957031 C 535.867188 337.957031 540.664062 356.449219 542.269531 358.851562 C 543.859375 361.242188 538 363.101562 535.867188 366.304688 C 533.734375 369.496094 533.992188 390.007812 533.992188 390.007812 C 533.992188 390.007812 536.925781 391.871094 538.257812 387.347656 C 539.589844 382.8125 540.9375 377.492188 540.9375 377.492188 C 540.9375 377.492188 545.191406 377.21875 544.402344 379.625 C 543.601562 382.011719 535.867188 398.265625 535.867188 398.265625 C 535.867188 398.265625 537.457031 404.386719 554.253906 396.660156 C 554.253906 396.660156 556.253906 391.015625 555.710938 380.925781 C 555.519531 377.113281 554.988281 368.164062 554.71875 359.410156 C 554.28125 344.976562 557.464844 329.8125 557.464844 329.8125 C 557.464844 329.8125 551.890625 331.941406 546.535156 331.414062 C 541.195312 330.882812 535.867188 337.957031 535.867188 337.957031 "/>
<path style=" stroke:none;fill-rule:nonzero;fill:rgb(90.19928%,66.668701%,47.059631%);fill-opacity:1;" d="M 456.972656 178.929688 C 457.441406 179.375 461.519531 187.640625 461.929688 182.746094 C 462.335938 177.847656 460.21875 171.691406 465.734375 171.488281 C 471.25 171.28125 479.628906 168.421875 479.835938 165.570312 C 480.035156 162.710938 502.457031 165.570312 502.457031 165.570312 C 502.457031 165.570312 503.9375 195.4375 502.457031 202.210938 C 500.96875 208.980469 495.078125 211.628906 493.898438 211.335938 C 492.71875 211.039062 493.898438 227.820312 493.898438 227.820312 C 493.898438 227.820312 494.382812 259.023438 479.113281 258.726562 C 479.113281 258.726562 470.617188 256.667969 469.738281 252.542969 C 468.851562 248.421875 467.671875 236.359375 467.671875 236.359375 C 467.671875 236.359375 464.726562 225.464844 459.125 222.222656 L 459.421875 198.679688 C 459.421875 198.679688 451.761719 196.613281 449.992188 191.613281 C 448.226562 186.609375 452.277344 174.4375 456.972656 178.929688 "/>
<path style=" stroke:none;fill-rule:nonzero;fill:rgb(14.509583%,11.759949%,37.649536%);fill-opacity:1;" d="M 438.039062 419.171875 C 438.039062 419.171875 451.898438 442.183594 449.382812 458.691406 C 446.867188 475.1875 459.792969 611.496094 460.511719 611.496094 C 461.226562 611.496094 484.863281 612.214844 484.175781 600.742188 C 483.492188 589.257812 484.195312 523.261719 484.195312 523.261719 C 484.195312 523.261719 506.574219 473.898438 508.5625 467.953125 C 510.546875 462.003906 517.546875 411.105469 517.546875 411.105469 C 517.546875 411.105469 503.628906 422.757812 481.453125 419.171875 C 459.277344 415.574219 438.039062 419.171875 438.039062 419.171875 "/>
<path style=" stroke:none;fill-rule:nonzero;fill:rgb(18.03894%,21.569824%,49.798584%);fill-opacity:1;" d="M 395.316406 341.800781 C 395.316406 341.800781 390.699219 345.925781 408.726562 345.914062 C 421.378906 345.898438 421.378906 343.347656 421.378906 343.347656 L 430.480469 315.652344 C 430.480469 315.652344 423.585938 380.710938 423.96875 380.925781 C 424.351562 381.144531 428.566406 389.179688 461.152344 396.839844 C 461.152344 396.839844 464.257812 402.023438 463.414062 387.675781 C 462.5625 373.324219 469.753906 274.53125 469.753906 274.53125 L 469.753906 232.316406 C 469.753906 232.316406 459.160156 219.328125 459.234375 213.316406 C 459.316406 207.300781 459.289062 209.390625 459.289062 209.390625 C 459.289062 209.390625 452.128906 211.648438 447.933594 217.410156 C 443.738281 223.167969 422.136719 229.558594 416.109375 237.671875 C 410.078125 245.792969 391.992188 323.035156 391.730469 327.230469 C 391.613281 329.121094 392.480469 329.511719 393.472656 329.390625 C 394.195312 329.296875 394.710938 330.042969 394.296875 330.640625 C 392.328125 333.519531 389.925781 337.957031 394.027344 337.957031 C 396.074219 337.957031 395.316406 341.800781 395.316406 341.800781 "/>
<g clip-path="url(#clip3)" clip-rule="nonzero">
<path style=" stroke:none;fill-rule:nonzero;fill:rgb(18.03894%,21.569824%,49.798584%);fill-opacity:1;" d="M 493.414062 213.449219 C 493.414062 213.449219 493.667969 245.15625 486.863281 254.621094 C 481.152344 262.566406 494.476562 385.3125 494.476562 385.3125 C 494.476562 385.3125 493.589844 398.601562 499.355469 395.957031 C 505.125 393.28125 517.996094 390.621094 517.996094 390.621094 L 517.996094 397.75 C 517.996094 397.75 525.539062 397.816406 528.203125 380.925781 C 530.867188 364.023438 528.203125 340.972656 528.203125 340.972656 C 528.203125 340.972656 550.707031 331.183594 557.855469 330.816406 C 564.992188 330.449219 562.492188 327 560.492188 323.023438 C 558.507812 319.03125 562.015625 318.039062 559.09375 314.726562 C 556.171875 311.414062 554.527344 301.125 554.527344 301.125 C 554.527344 301.125 542.457031 241.136719 536.140625 234.089844 C 529.832031 227.039062 498.496094 209.039062 498.496094 209.039062 L 493.320312 211.625 L 493.414062 213.449219 "/>
</g>
<path style=" stroke:none;fill-rule:nonzero;fill:rgb(98.429871%,91.758728%,58.428955%);fill-opacity:1;" d="M 469.753906 252.652344 C 469.753906 252.652344 479.265625 259.332031 486.863281 254.621094 C 486.863281 254.621094 492.242188 392.707031 497.433594 393.6875 C 502.632812 394.664062 518.210938 386.410156 519.300781 388.226562 C 520.386719 390.046875 519.300781 408.605469 519.300781 408.605469 C 519.300781 408.605469 506.542969 428.957031 491.605469 423.878906 C 476.664062 418.800781 444.230469 417.714844 438.039062 419.167969 C 431.839844 420.621094 427.832031 420.621094 428.925781 414.429688 C 430.019531 408.238281 432.097656 386.980469 432.097656 386.980469 C 432.097656 386.980469 452.773438 394.757812 458.078125 387.863281 C 463.386719 380.964844 463.605469 259.777344 469.753906 252.652344 "/>
<path style=" stroke:none;fill-rule:nonzero;fill:rgb(14.509583%,11.759949%,37.649536%);fill-opacity:1;" d="M 462.996094 606.894531 C 462.996094 606.894531 468.167969 647.351562 477.792969 652.550781 C 487.417969 657.75 495.054688 649.78125 492.96875 638.324219 C 490.886719 626.878906 481.332031 606.894531 481.332031 606.894531 C 481.332031 606.894531 470.984375 608.085938 462.996094 606.894531 "/>
<path style=" stroke:none;fill-rule:nonzero;fill:rgb(14.509583%,11.759949%,37.649536%);fill-opacity:1;" d="M 453.851562 542.691406 C 453.851562 542.691406 438.507812 562.417969 438.039062 566.339844 C 437.570312 570.277344 456.757812 575.625 456.757812 575.625 L 453.851562 542.691406 "/>
<path style=" stroke:none;fill-rule:nonzero;fill:rgb(14.509583%,11.759949%,37.649536%);fill-opacity:1;" d="M 503.035156 148.390625 C 502.136719 147.925781 501.214844 147.5 500.285156 147.109375 C 481.824219 139.292969 457.558594 141.984375 443.265625 156.546875 C 418.796875 181.484375 439.84375 180.507812 434.945312 187.835938 C 430.054688 195.171875 409.496094 202.761719 413.902344 210.210938 C 418.304688 217.664062 403.625 221.570312 402.152344 232.816406 C 400.6875 244.0625 406.070312 239.660156 405.582031 245.039062 C 405.089844 250.417969 388.730469 262.015625 396.074219 269.753906 C 403.417969 277.488281 403.417969 277.488281 403.417969 277.488281 L 414.976562 239.703125 C 414.976562 239.703125 419.175781 233.992188 423.808594 231.558594 C 428.449219 229.117188 444.65625 220.835938 444.65625 220.835938 C 444.65625 220.835938 449.785156 215.191406 452.382812 213.453125 C 454.984375 211.71875 459.289062 209.390625 459.289062 209.390625 L 460.265625 199.074219 C 460.265625 199.074219 450.585938 195.515625 449.992188 191.613281 C 449.394531 187.707031 450.933594 183.945312 454.054688 182.332031 C 455.855469 181.410156 458.433594 183.921875 461.125 185.898438 C 462.484375 186.894531 466.632812 183.195312 466.457031 180.980469 C 465.621094 170.523438 480.316406 173.835938 480.742188 167.851562 C 481.066406 163.328125 494.144531 165.378906 496.605469 167.027344 C 499.0625 168.6875 502.980469 176.726562 503.046875 183.148438 C 503.113281 189.566406 502.019531 206.898438 498.496094 209.039062 L 525.632812 225.847656 C 525.632812 225.847656 534.726562 223.867188 525.632812 215.8125 C 525.632812 215.8125 520.972656 213.183594 522.738281 212.011719 C 524.503906 210.839844 523.90625 208.964844 517.683594 204.15625 C 511.472656 199.351562 510.488281 199.832031 512.125 191.246094 C 514.324219 179.695312 516.921875 159.964844 507.070312 151.121094 C 505.855469 150.035156 504.480469 149.148438 503.035156 148.390625 "/>
<path style=" stroke:none;fill-rule:nonzero;fill:rgb(46.269226%,25.878906%,17.649841%);fill-opacity:1;" d="M 467.390625 205.800781 C 473.523438 210.84375 481.382812 213.324219 489.300781 213.019531 C 490.089844 212.992188 491.417969 212.726562 491.921875 212.042969 C 492.4375 211.34375 491.476562 211.226562 490.953125 211.246094 C 483.746094 211.523438 476.632812 208.964844 471.085938 204.398438 C 470.199219 203.667969 466.648438 205.183594 467.390625 205.800781 "/>
<path style=" stroke:none;fill-rule:nonzero;fill:rgb(18.03894%,21.569824%,49.798584%);fill-opacity:1;" d="M 376.128906 451.714844 C 387.765625 472.609375 399.398438 493.503906 411.035156 514.382812 C 414.328125 520.300781 417.617188 526.207031 420.910156 532.128906 C 421.398438 532.996094 425.097656 531.515625 424.847656 531.070312 C 413.21875 510.1875 401.578125 489.292969 389.949219 468.398438 C 386.652344 462.480469 383.359375 456.574219 380.066406 450.667969 C 379.578125 449.785156 375.878906 451.265625 376.128906 451.714844 "/>
<path style=" stroke:none;fill-rule:nonzero;fill:rgb(18.03894%,21.569824%,49.798584%);fill-opacity:1;" d="M 406.332031 472.214844 C 414.375 486.648438 422.417969 501.09375 430.464844 515.523438 C 431.210938 516.855469 435.011719 515.523438 434.09375 513.882812 C 426.050781 499.449219 418.003906 485.003906 409.957031 470.570312 C 409.214844 469.242188 405.414062 470.570312 406.332031 472.214844 "/>
<path style=" stroke:none;fill-rule:nonzero;fill:rgb(18.03894%,21.569824%,49.798584%);fill-opacity:1;" d="M 412.445312 454.132812 C 419.433594 466.824219 426.421875 479.503906 433.40625 492.1875 C 433.964844 493.191406 437.703125 491.765625 437.347656 491.125 C 430.359375 478.445312 423.375 465.765625 416.386719 453.085938 C 415.828125 452.082031 412.09375 453.507812 412.445312 454.132812 "/>
<g clip-path="url(#clip4)" clip-rule="nonzero">
<path style=" stroke:none;fill-rule:nonzero;fill:rgb(18.03894%,21.569824%,49.798584%);fill-opacity:1;" d="M 489.453125 562.429688 C 501.339844 588.183594 513.238281 613.925781 525.117188 639.679688 C 528.488281 646.957031 531.84375 654.246094 535.214844 661.523438 C 535.800781 662.800781 539.644531 661.550781 539.15625 660.480469 C 527.265625 634.726562 515.371094 608.984375 503.480469 583.230469 C 500.113281 575.953125 496.753906 568.660156 493.386719 561.386719 C 492.800781 560.109375 488.953125 561.359375 489.453125 562.429688 "/>
</g>
<path style=" stroke:none;fill-rule:nonzero;fill:rgb(18.03894%,21.569824%,49.798584%);fill-opacity:1;" d="M 503.078125 562.863281 C 514.910156 587.042969 526.734375 611.238281 538.570312 635.429688 C 539.402344 637.128906 543.109375 635.59375 542.160156 633.652344 C 530.320312 609.460938 518.496094 585.265625 506.667969 561.074219 C 505.84375 559.375 502.121094 560.910156 503.078125 562.863281 "/>
<path style=" stroke:none;fill-rule:nonzero;fill:rgb(18.03894%,21.569824%,49.798584%);fill-opacity:1;" d="M 514.433594 553.359375 C 519.773438 566.125 525.101562 578.898438 530.429688 591.675781 C 531.082031 593.207031 534.96875 592.054688 534.371094 590.613281 C 529.042969 577.839844 523.703125 565.078125 518.375 552.300781 C 517.738281 550.753906 513.835938 551.921875 514.433594 553.359375 "/>
<path style=" stroke:none;fill-rule:nonzero;fill:rgb(74.899292%,15.289307%,21.569824%);fill-opacity:1;" d="M 378.65625 372.394531 L 359.972656 359.6875 C 358.703125 358.863281 357.070312 359.140625 356.164062 360.417969 C 355.257812 361.699219 355.617188 363.34375 356.890625 364.257812 L 368.042969 371.847656 L 226.90625 371.847656 L 238.242188 364.167969 C 239.511719 363.34375 239.78125 361.609375 238.96875 360.328125 C 238.152344 359.046875 236.519531 358.683594 235.25 359.503906 L 216.472656 372.214844 C 215.75 372.761719 215.296875 373.585938 215.296875 374.5 C 215.296875 375.414062 215.75 376.234375 216.472656 376.785156 L 235.25 389.492188 C 235.703125 389.765625 236.246094 389.949219 236.789062 389.949219 C 237.695312 389.949219 238.511719 389.492188 239.058594 388.761719 C 239.875 387.480469 239.601562 385.835938 238.332031 384.921875 L 226.996094 377.242188 L 368.496094 377.242188 L 356.980469 385.105469 C 355.710938 385.925781 355.4375 387.664062 356.253906 388.945312 C 356.796875 389.765625 357.613281 390.132812 358.519531 390.132812 C 359.066406 390.132812 359.609375 389.949219 360.0625 389.675781 L 378.835938 376.96875 C 379.5625 376.417969 380.015625 375.597656 380.015625 374.679688 C 380.015625 373.765625 379.472656 372.851562 378.65625 372.394531 Z M 378.65625 372.394531 "/>
</g>
</svg>
