<svg xmlns="http://www.w3.org/2000/svg" viewBox="0 0 348.62 304.27"><defs><style>.cls-1{opacity:0.22;}.cls-2{fill:#6d3b19;}.cls-3{fill:#f2b446;}.cls-4{fill:#b7632a;}.cls-5{fill:#cc6e2e;}.cls-6{fill:#fff;}.cls-7{fill:#ce5a28;}</style></defs><g id="Camada_2" data-name="Camada 2"><g id="Layer_1" data-name="Layer 1"><ellipse class="cls-1" cx="172.01" cy="293.78" rx="117.56" ry="10.49"/><path class="cls-2" d="M172.49,121.46a5.06,5.06,0,0,0-4.4,5.15s4.13-4.94,8.53-4.94.82-4.85.82-4.85Z"/><circle class="cls-3" cx="18.49" cy="60.78" r="15.52"/><path class="cls-4" d="M67.36,183.24l11.91-28.48a78.81,78.81,0,0,1-46.7-89L2.37,59.43A109.69,109.69,0,0,0,67.36,183.24Z"/><circle class="cls-3" cx="330.12" cy="60.78" r="15.52"/><path class="cls-4" d="M281.25,183.24l-11.91-28.48a78.81,78.81,0,0,0,46.7-89l30.21-6.37A109.7,109.7,0,0,1,281.25,183.24Z"/><path class="cls-3" d="M288.4,140c0,.73,0,1.45,0,2.18H55.65c0-.73,0-1.45,0-2.18a116.39,116.39,0,0,1,232.77,0Z"/><rect class="cls-3" x="108.79" y="208.5" width="31.04" height="59.1" rx="12.19" transform="translate(112.78 -30.25) rotate(25.11)"/><rect class="cls-3" x="206.84" y="208.5" width="31.04" height="59.1" rx="12.19" transform="translate(-67.77 89.95) rotate(-19.91)"/><path class="cls-5" d="M288.4,142.17v29.19a72.47,72.47,0,0,1-.45,8,70.17,70.17,0,0,1-2.74,12.94,68.77,68.77,0,0,1-3.39,8.7,69.76,69.76,0,0,1-63.25,40.21H125.46a69.73,69.73,0,0,1-69.4-62.07,71.09,71.09,0,0,1-.43-7.76V142.17Z"/><path class="cls-3" d="M96.59,23.61s37.11-1.32,40.84,12.55l14.3-1.33S145.79,14,96.59,23.61Z"/><path class="cls-3" d="M122.11,0S152,22.07,146.25,35.25l12,7.87S166.56,23.14,122.11,0Z"/><path class="cls-3" d="M149.88,2.07s10.73,23.87,2.67,30l4.66,9S169.21,31.63,149.88,2.07Z"/><path class="cls-4" d="M288,179.34,259,160.13,229.9,179.41l-29-19.23-29,19.23-29-19.28-29.06,19.28-29-19.28-28.67,19a71.09,71.09,0,0,1-.43-7.76v-2.91l29.1-19.22,29,19.24,29.06-19.24,29,19.21,29-19.21,29.05,19.24L259,149.23l29.05,19.24.34-.23Z"/><path class="cls-4" d="M259,174.93,229.9,194.17l-29.05-19.24-29,19.22-29-19.22-29.06,19.24-29-19.24-26,17.16a69.71,69.71,0,0,0,3.36,8.71l22.61-15,29,19.29,29.06-19.29,29,19.29,29-19.24,29,19.24L259,185.83,281.82,201a68.77,68.77,0,0,0,3.39-8.7Z"/><path class="cls-6" d="M172.18,86.75a20.38,20.38,0,0,1-3.57,11.55A42.59,42.59,0,0,0,156,94.17a35.8,35.8,0,0,0-7.9-.34,34.51,34.51,0,0,0-13.63,3.87,20.45,20.45,0,1,1,37.73-11Z"/><path class="cls-2" d="M161.62,85.65A9.25,9.25,0,0,1,156,94.17a35.8,35.8,0,0,0-7.9-.34,9.24,9.24,0,1,1,13.54-8.18Z"/><path class="cls-6" d="M213.39,86.75a20.37,20.37,0,0,1-3.29,11.13,41.32,41.32,0,0,0-12.65-3.83,36,36,0,0,0-8-.14A34.47,34.47,0,0,0,176,98.17a20.46,20.46,0,1,1,37.43-11.42Z"/><path class="cls-2" d="M202.84,85.65a9.25,9.25,0,0,1-5.39,8.4,36,36,0,0,0-8-.14,9.24,9.24,0,1,1,13.38-8.26Z"/><circle class="cls-5" cx="112.99" cy="104.41" r="6.18"/><circle class="cls-5" cx="231.7" cy="104.41" r="6.18"/><path class="cls-2" d="M143.22,110.76H200.6a6.76,6.76,0,0,1,4.65,11.67c-5,4.64-14.73,8.91-33.34,8.91s-28.3-4.27-33.33-8.91A6.75,6.75,0,0,1,143.22,110.76Z"/><ellipse class="cls-7" cx="171.98" cy="127.19" rx="17.34" ry="5.73"/><path class="cls-5" d="M171.91,134.37c-16.49,0-28.4-3.27-35.38-9.72A9.63,9.63,0,0,1,134.09,114a9.75,9.75,0,0,1,9.13-6.25H200.6a9.76,9.76,0,0,1,9.14,6.25,9.65,9.65,0,0,1-2.44,10.66C200.32,131.1,188.41,134.37,171.91,134.37Zm-28.69-20.58a3.68,3.68,0,0,0-3.49,2.4,3.57,3.57,0,0,0,.9,4c4,3.7,12.69,8.12,31.28,8.12s27.28-4.42,31.28-8.12a3.57,3.57,0,0,0,.91-4,3.68,3.68,0,0,0-3.5-2.4Z"/></g></g></svg>