<svg xmlns="http://www.w3.org/2000/svg" viewBox="0 0 343.86 274.61"><defs><style>.cls-1{fill:#b7632a;}.cls-2{fill:#f2b446;}.cls-3{opacity:0.22;}.cls-4{fill:#cc6e2e;}.cls-5{fill:#fff;}.cls-6{fill:#6d3b19;}</style></defs><g id="Camada_2" data-name="Camada 2"><g id="Layer_1" data-name="Layer 1"><path class="cls-1" d="M265.19,207.15q.48,12,1,24.06c103.6-2.54,103.6-85.21,0-87.75q-.48,12-1,24.06C328.93,169.08,328.93,205.59,265.19,207.15Z"/><path class="cls-2" d="M251.17,221.78a15.52,15.52,0,0,0,15.52,15.52c4.89,0,9-3.27,11.81-6.81l-1.89-20.63a15.51,15.51,0,0,0-25.44,11.92Z"/><path class="cls-2" d="M251.17,226.57s3.05,20,17.37,19.57-6.66-14.53,2.42-19.57l-13.31-12.11Z"/><path class="cls-1" d="M78.67,207.15q-.48,12-1,24.06c-103.6-2.54-103.6-85.21,0-87.75q.48,12,1,24.06C14.93,169.08,14.93,205.59,78.67,207.15Z"/><path class="cls-2" d="M92.69,221.78A15.52,15.52,0,0,1,77.17,237.3c-4.88,0-9-3.27-11.8-6.81l1.88-20.63a15.51,15.51,0,0,1,25.44,11.92Z"/><path class="cls-2" d="M92.69,226.57s-3,20-17.37,19.57S82,231.61,72.9,226.57l13.32-12.11Z"/><ellipse class="cls-3" cx="171.03" cy="264.13" rx="117.56" ry="10.49"/><path class="cls-2" d="M287.41,140c0,.73,0,1.45,0,2.18H54.67c0-.73,0-1.45,0-2.18a116.38,116.38,0,0,1,232.76,0Z"/><rect class="cls-2" x="107.81" y="208.5" width="31.04" height="59.1" rx="12.19"/><rect class="cls-2" x="205.86" y="208.5" width="31.04" height="59.1" rx="12.19"/><path class="cls-4" d="M287.42,142.17v29.19a72.47,72.47,0,0,1-.45,8,70.17,70.17,0,0,1-2.74,12.94,68.77,68.77,0,0,1-3.39,8.7,69.76,69.76,0,0,1-63.25,40.21H124.47a69.82,69.82,0,0,1-66.69-49.1,68.81,68.81,0,0,1-2.7-13,71.09,71.09,0,0,1-.43-7.76V142.17Z"/><path class="cls-2" d="M95.61,23.61s37.11-1.32,40.84,12.55l14.29-1.33S144.8,14,95.61,23.61Z"/><path class="cls-2" d="M121.13,0S151,22.07,145.27,35.25l12,7.87S165.58,23.14,121.13,0Z"/><path class="cls-2" d="M148.9,2.07s10.73,23.87,2.67,30l4.66,9S168.23,31.63,148.9,2.07Z"/><path class="cls-1" d="M287,179.34,258,160.13l-29.11,19.28-29-19.23-29.05,19.23-29-19.28-29,19.28-29-19.28-28.67,19a71.09,71.09,0,0,1-.43-7.76v-2.91l29.1-19.22,29,19.24,29.05-19.24,29,19.21,29-19.21,29,19.24L258,149.23l29.05,19.24.34-.23Z"/><path class="cls-1" d="M258,174.93l-29.11,19.24-29-19.24-29,19.22-29-19.22-29,19.24-29-19.24-26,17.16a69.71,69.71,0,0,0,3.36,8.71l22.61-15,29,19.29,29.05-19.29,29,19.29,29.05-19.24,29,19.24L258,185.83,280.84,201a68.77,68.77,0,0,0,3.39-8.7Z"/><circle class="cls-5" cx="150.74" cy="86.75" r="20.45"/><circle class="cls-6" cx="151.4" cy="85.65" r="9.24"/><circle class="cls-5" cx="191.96" cy="86.75" r="20.45"/><circle class="cls-6" cx="192.62" cy="85.65" r="9.24"/><circle class="cls-4" cx="112.01" cy="104.41" r="6.18"/><circle class="cls-4" cx="230.71" cy="104.41" r="6.18"/><polygon class="cls-2" points="127.35 66.58 171.54 80.5 218.75 66.58 201.8 58.71 163.06 58.71 127.35 66.58"/><polygon class="cls-2" points="127.35 86.55 170.93 99.26 219.96 84.74 219.96 105.92 187.88 110.76 166.09 110.76 134.01 105.92 127.35 86.55"/><path class="cls-6" d="M170.33,104.16a57.08,57.08,0,0,1,12.41,1.38,60.13,60.13,0,0,1,18.92,7.64,3.74,3.74,0,0,1-4.17,6.21A54,54,0,0,0,181,112.82a50.78,50.78,0,0,0-10.88-1.23,45.17,45.17,0,0,0-25.26,7.81,3.67,3.67,0,0,1-2.06.62,3.74,3.74,0,0,1-2.06-6.86A52.8,52.8,0,0,1,170.33,104.16Z"/><path class="cls-4" d="M142.83,117.38a1.09,1.09,0,0,1-.92-.49,1.12,1.12,0,0,1,.31-1.53,50.22,50.22,0,0,1,28.11-8.57,55.14,55.14,0,0,1,11.83,1.32,57.49,57.49,0,0,1,18,7.26,1.09,1.09,0,0,1,.29,1.52,1.08,1.08,0,0,1-1.52.3,56.36,56.36,0,0,0-17.36-7A53,53,0,0,0,170.15,109a47.61,47.61,0,0,0-26.71,8.25,1.14,1.14,0,0,1-.61.18m0,5.28h0a6.41,6.41,0,0,0,3.52-1.06,42.56,42.56,0,0,1,23.8-7.37,47.54,47.54,0,0,1,10.31,1.17A51.64,51.64,0,0,1,196,121.59a6.38,6.38,0,0,0,7.09-10.6,62.1,62.1,0,0,0-19.82-8,59.83,59.83,0,0,0-13-1.44,55.33,55.33,0,0,0-31,9.44,6.38,6.38,0,0,0,3.52,11.7Z"/></g></g></svg>