<svg xmlns="http://www.w3.org/2000/svg" viewBox="0 0 235.11 274.61"><defs><style>.cls-1{opacity:0.22;}.cls-2{fill:#f2b446;}.cls-3{fill:#b7632a;}.cls-4{fill:#cc6e2e;}.cls-5{fill:#6d3b19;}.cls-6{fill:#fff;}.cls-7{fill:#4e8cf9;}</style></defs><g id="Camada_2" data-name="Camada 2"><g id="Layer_1" data-name="Layer 1"><ellipse class="cls-1" cx="117.56" cy="264.13" rx="117.56" ry="10.49"/><path class="cls-2" d="M233.94,140c0,.73,0,1.45,0,2.18H1.2c0-.73,0-1.45,0-2.18a116.38,116.38,0,0,1,232.76,0Z"/><circle class="cls-2" cx="16.69" cy="238.12" r="15.52"/><path class="cls-3" d="M32.21,241h-31V162.65c0-2.59,2.42-4.72,5.38-4.72L26.83,177c3,0,5.38,2.13,5.38,4.72Z"/><circle class="cls-2" cx="218.42" cy="239.77" r="15.52"/><path class="cls-3" d="M202.9,242.64h31V156.51a5.3,5.3,0,0,0-5.38-5.18l-20.28,21a5.3,5.3,0,0,0-5.38,5.18Z"/><rect class="cls-2" x="54.33" y="208.5" width="31.04" height="59.1" rx="12.19"/><rect class="cls-2" x="152.39" y="208.5" width="31.04" height="59.1" rx="12.19"/><path class="cls-4" d="M233.94,142.17v29.19a70.1,70.1,0,0,1-.45,8,69.36,69.36,0,0,1-2.74,12.94,69.76,69.76,0,0,1-66.64,48.91H71A69.75,69.75,0,0,1,7.67,200.8a68.24,68.24,0,0,1-3.37-8.71,69.6,69.6,0,0,1-3.12-20.73V142.17Z"/><path class="cls-2" d="M42.14,23.61S79.24,22.29,83,36.16l14.3-1.33S91.33,14,42.14,23.61Z"/><path class="cls-2" d="M67.65,0S97.51,22.07,91.79,35.25l12,7.87S112.11,23.14,67.65,0Z"/><path class="cls-2" d="M95.42,2.07s10.73,23.87,2.67,30l4.67,9S114.75,31.63,95.42,2.07Z"/><path class="cls-3" d="M233.49,179.34l-28.93-19.21-29.12,19.28-29-19.23-29,19.23-29-19.28L59.32,179.41l-29-19.28-28.67,19a71.09,71.09,0,0,1-.42-7.76v-2.91l29.09-19.22,29.05,19.24,29.05-19.24,29,19.21,29-19.21,29.05,19.24,29.12-19.24,29,19.24.34-.23Z"/><path class="cls-3" d="M204.56,174.93l-29.12,19.24-29.05-19.24-29,19.22-29-19.22L59.32,194.17l-29-19.24-26,17.16a68.24,68.24,0,0,0,3.37,8.71l22.6-15,29.05,19.29,29.05-19.29,29.05,19.29,29-19.24,29,19.24,29.12-19.29L227.37,201a70.27,70.27,0,0,0,3.38-8.7Z"/><path class="cls-5" d="M116.86,113.23a57,57,0,0,1,12.4,1.39,60,60,0,0,1,18.92,7.64,3.74,3.74,0,0,1-4.16,6.21,54.29,54.29,0,0,0-16.46-6.57,50.31,50.31,0,0,0-10.89-1.23,45.16,45.16,0,0,0-25.25,7.81,3.81,3.81,0,0,1-2.07.62,3.74,3.74,0,0,1-2.06-6.86A52.76,52.76,0,0,1,116.86,113.23Z"/><path class="cls-4" d="M89.35,126.46a1.09,1.09,0,0,1-.91-.49,1.1,1.1,0,0,1,.31-1.53,50.22,50.22,0,0,1,28.11-8.57,54.51,54.51,0,0,1,11.83,1.32,57.23,57.23,0,0,1,18,7.26,1.1,1.1,0,1,1-1.23,1.82,56.23,56.23,0,0,0-17.35-7A53.06,53.06,0,0,0,116.67,118,47.66,47.66,0,0,0,90,126.28a1.14,1.14,0,0,1-.61.18m0,5.28h0a6.35,6.35,0,0,0,3.51-1.06,42.58,42.58,0,0,1,23.8-7.37A47.56,47.56,0,0,1,127,124.48a51.93,51.93,0,0,1,15.58,6.19,6.37,6.37,0,0,0,7.08-10.6,61.59,61.59,0,0,0-19.82-8,59.69,59.69,0,0,0-13-1.45,55.39,55.39,0,0,0-31,9.45,6.38,6.38,0,0,0,3.52,11.7Z"/><path class="cls-6" d="M117.72,86.75A20.45,20.45,0,0,1,77.3,91.18a47.21,47.21,0,0,0,11.48-4.31A44.38,44.38,0,0,0,101.19,77a46.56,46.56,0,0,0,5.8-8.26A20.45,20.45,0,0,1,117.72,86.75Z"/><path class="cls-5" d="M107.17,85.65a9.24,9.24,0,0,1-18.39,1.22A44.38,44.38,0,0,0,101.19,77,9.23,9.23,0,0,1,107.17,85.65Z"/><path class="cls-6" d="M148,88.36a44.62,44.62,0,0,1-14.34-10.12,46.1,46.1,0,0,1-6.39-8.57,20.46,20.46,0,0,0-4.82,29.75h0a20.46,20.46,0,0,0,35.93-7.82A49.12,49.12,0,0,1,148,88.36Z"/><path class="cls-5" d="M148,88.36a9.24,9.24,0,1,1-14.34-10.12A44.62,44.62,0,0,0,148,88.36Z"/><circle class="cls-4" cx="58.53" cy="104.41" r="6.18"/><circle class="cls-4" cx="177.24" cy="104.41" r="6.18"/><circle class="cls-6" cx="138.04" cy="90.18" r="2.42"/><circle class="cls-6" cx="99.9" cy="90.18" r="2.42"/><path class="cls-7" d="M153.2,101a19.91,19.91,0,0,1-3.51,2.9,17,17,0,0,1-2.67,1.48,20.17,20.17,0,0,1-8.54,1.87,20.39,20.39,0,0,1-16-7.78,37.92,37.92,0,0,0,25.34,3.23c.4-.09.8-.2,1.2-.31A36,36,0,0,0,153.2,101Z"/><path class="cls-7" d="M113.07,99.73a20.44,20.44,0,0,1-30.75,1A37.41,37.41,0,0,0,113.07,99.73Z"/><path class="cls-7" d="M149.54,113.79c-3.65-.36-3.35-4.9-2.52-8.46.23-1,.51-2,.75-2.68.4-.09.8-.2,1.2-.31.21.43.46.94.72,1.51C151.45,107.72,153.8,114.22,149.54,113.79Z"/><circle class="cls-6" cx="150.14" cy="110.76" r="1.21"/></g></g></svg>