<svg xmlns="http://www.w3.org/2000/svg" viewBox="0 0 295.42 256.4"><defs><style>.cls-1{fill:#59a3df;}.cls-2{fill:#6d3b19;}.cls-3{fill:#ce5a28;}.cls-4{fill:#cc6e2e;}.cls-5{fill:#28383d;}.cls-6{fill:#1a6c99;}.cls-7{fill:#2083c6;}.cls-8{opacity:0.22;}.cls-9{fill:#1c60a3;}.cls-10{fill:#2a73c7;}.cls-11{fill:#fff;}</style></defs><g id="Camada_2" data-name="Camada 2"><g id="Layer_1" data-name="Layer 1"><path class="cls-1" d="M247.85,103.61c.08.72.16,1.44.22,2.17L16.73,131.49q-.15-1.08-.27-2.16a116.41,116.41,0,1,1,231.39-25.72Z"/><path class="cls-1" d="M48.86,35S30.7,49.13,19.68,31.58C19.68,31.58,23.21,70,48.86,35Z"/><path class="cls-1" d="M44.8,35.82s-13.65,26-35.63,11.36C9.17,47.18,33.38,89.89,44.8,35.82Z"/><path class="cls-1" d="M56.55,28.44S42.16,39.67,33.43,25.76C33.43,25.76,36.22,56.19,56.55,28.44Z"/><path class="cls-1" d="M195.2,18.59s20.84,9.8,27.71-9.75C222.91,8.84,228,47.06,195.2,18.59Z"/><path class="cls-1" d="M199.35,18.53s19,22.3,37.26,3.2C236.61,21.73,222.43,68.74,199.35,18.53Z"/><path class="cls-1" d="M186.25,13.93s16.52,7.77,22-7.72C208.21,6.21,212.21,36.5,186.25,13.93Z"/><path class="cls-2" d="M101.58,93.69l57-6.51a6.75,6.75,0,0,1,5.94,11.06c-4.47,5.19-13.62,10.53-32.11,12.64s-28.6-1-34.13-5.08A6.75,6.75,0,0,1,101.58,93.69Z"/><ellipse class="cls-3" cx="132.01" cy="106.74" rx="17.34" ry="5.73" transform="translate(-11.26 15.66) rotate(-6.51)"/><path class="cls-4" d="M132.76,113.89c-16.39,1.87-28.59,0-36.26-5.65a9.62,9.62,0,0,1-3.63-10.31,9.76,9.76,0,0,1,8.36-7.25l57-6.51A9.76,9.76,0,0,1,168,89.35a9.65,9.65,0,0,1-1.22,10.87C160.61,107.42,149.15,112,132.76,113.89Zm-30.84-17.2a3.67,3.67,0,0,0-3.2,2.79,3.57,3.57,0,0,0,1.35,3.88c4.4,3.22,13.53,6.62,32,4.51s26.6-7.47,30.16-11.61a3.57,3.57,0,0,0,.45-4.08,3.69,3.69,0,0,0-3.75-2Z"/><path class="cls-5" d="M101.58,93.69l57-6.51a6.75,6.75,0,0,1,5.94,11.06c-4.47,5.19-13.62,10.53-32.11,12.64s-28.6-1-34.13-5.08A6.75,6.75,0,0,1,101.58,93.69Z"/><ellipse class="cls-6" cx="132.01" cy="106.74" rx="17.34" ry="5.73" transform="translate(-11.26 15.66) rotate(-6.51)"/><path class="cls-7" d="M132.76,113.89c-16.39,1.87-28.59,0-36.26-5.65a9.62,9.62,0,0,1-3.63-10.31,9.76,9.76,0,0,1,8.36-7.25l57-6.51A9.76,9.76,0,0,1,168,89.35a9.65,9.65,0,0,1-1.22,10.87C160.61,107.42,149.15,112,132.76,113.89Zm-30.84-17.2a3.67,3.67,0,0,0-3.2,2.79,3.57,3.57,0,0,0,1.35,3.88c4.4,3.22,13.53,6.62,32,4.51s26.6-7.47,30.16-11.61a3.57,3.57,0,0,0,.45-4.08,3.69,3.69,0,0,0-3.75-2Z"/><ellipse class="cls-8" cx="147.08" cy="245.91" rx="117.56" ry="10.49"/><circle class="cls-1" cx="15.75" cy="213.73" r="15.52"/><path class="cls-9" d="M30.14,220.22,0,212.81l18.7-76.08c.62-2.52,3.48-4,6.35-3.3l15.13,23.39c2.88.71,4.72,3.35,4.1,5.87Z"/><circle class="cls-1" cx="279.9" cy="92.55" r="15.52"/><path class="cls-9" d="M293.74,100.13,269.69,80.52l-54.43,66.75a5.31,5.31,0,0,0,.89,7.42l29-3.46a5.29,5.29,0,0,0,7.44-.62Z"/><rect class="cls-1" x="72.21" y="190.29" width="31.04" height="59.1" rx="12.19"/><rect class="cls-1" x="189.05" y="177.27" width="31.04" height="59.1" rx="12.19" transform="translate(-52.58 70.82) rotate(-17.44)"/><path class="cls-10" d="M251.72,142.74a69.11,69.11,0,0,1-1.3,13.17c-.15.74-.3,1.49-.48,2.22a64.34,64.34,0,0,1-1.92,6.79c-.37,1.09-.77,2.17-1.19,3.24a69.75,69.75,0,0,1-57.24,43.7L97,222.13a69.68,69.68,0,0,1-64.41-28.66c-1.06-1.45-2.05-2.95-3-4.49s-1.73-3-2.51-4.52c-.64-1.23-1.23-2.49-1.79-3.77a69.75,69.75,0,0,1-4.12-12.59,71.33,71.33,0,0,1-1.28-7.67l-3.22-29,231.35-25.67,3.22,29A71.76,71.76,0,0,1,251.72,142.74Z"/><circle class="cls-11" cx="106.12" cy="65.75" r="20.45"/><circle class="cls-5" cx="106.66" cy="64.58" r="9.24"/><circle class="cls-11" cx="147.08" cy="61.2" r="20.45"/><circle class="cls-5" cx="147.62" cy="60.04" r="9.24"/><circle class="cls-7" cx="69.57" cy="87.57" r="6.18"/><circle class="cls-7" cx="187.55" cy="74.48" r="6.18"/><path class="cls-5" d="M131.87,101a5.06,5.06,0,0,0-3.79,5.62s3.54-5.39,7.91-5.88.27-4.92.27-4.92Z"/><rect class="cls-9" x="16.86" y="129.56" width="234.58" height="9.59" transform="translate(-14.84 16.67) rotate(-6.74)"/><path class="cls-9" d="M252.47,136.69v.08a68,68,0,0,1,.07,9.57L21.8,173.6a69.06,69.06,0,0,1-2.17-9.4Z"/><path class="cls-9" d="M249.94,158.13a64.34,64.34,0,0,1-1.92,6.79c-.37,1.09-.77,2.17-1.19,3.24L32.63,193.47l-1,.11c-.34-.48-.67-1-1-1.43q-1.91-2.81-3.54-5.81-.48-.89-.93-1.77l.92-.11Z"/></g></g></svg>