<svg xmlns="http://www.w3.org/2000/svg" viewBox="0 0 343.86 251"><defs><style>.cls-1{fill:#59a3df;}.cls-2{fill:#1c60a3;}.cls-3{opacity:0.22;}.cls-4{fill:#2a73c7;}.cls-5{fill:#fff;}.cls-6{fill:#28383d;}.cls-7{fill:#2083c6;}</style></defs><g id="Camada_2" data-name="Camada 2"><g id="Layer_1" data-name="Layer 1"><path class="cls-1" d="M287.4,116.38c0,.73,0,1.45,0,2.18H54.66c0-.73,0-1.45,0-2.18a116.38,116.38,0,1,1,232.76,0Z"/><path class="cls-1" d="M97.44,26.21s-19.62,12.06-28.62-6.6C68.82,19.61,68.05,58.15,97.44,26.21Z"/><path class="cls-1" d="M93.31,26.61S76.86,50.89,56.63,33.94C56.63,33.94,76,79.08,93.31,26.61Z"/><path class="cls-1" d="M105.81,20.59s-15.55,9.56-22.68-5.24C83.13,15.35,82.52,45.91,105.81,20.59Z"/><path class="cls-1" d="M244.7,26.21s19.61,12.06,28.61-6.6C273.31,19.61,274.08,58.15,244.7,26.21Z"/><path class="cls-1" d="M248.82,26.61s16.45,24.28,36.68,7.33C285.5,33.94,266.18,79.08,248.82,26.61Z"/><path class="cls-1" d="M236.32,20.59s15.55,9.56,22.68-5.24C259,15.35,259.61,45.91,236.32,20.59Z"/><path class="cls-2" d="M265.19,183.55q.48,12,1,24c103.6-2.54,103.6-85.21,0-87.75q-.48,12-1,24.06C328.93,145.47,328.93,182,265.19,183.55Z"/><path class="cls-1" d="M251.17,198.17a15.52,15.52,0,0,0,15.52,15.52c4.89,0,9-3.27,11.81-6.81l-1.89-20.63a15.51,15.51,0,0,0-25.44,11.92Z"/><path class="cls-1" d="M251.17,203s3.05,20,17.37,19.57S261.88,208,271,203l-13.31-12.11Z"/><path class="cls-2" d="M78.67,183.55q-.48,12-1,24c-103.6-2.54-103.6-85.21,0-87.75q.48,12,1,24.06C14.93,145.47,14.93,182,78.67,183.55Z"/><path class="cls-1" d="M92.69,198.17a15.52,15.52,0,0,1-15.52,15.52c-4.88,0-9-3.27-11.8-6.81l1.88-20.63a15.51,15.51,0,0,1,25.44,11.92Z"/><path class="cls-1" d="M92.69,203s-3,20-17.37,19.57S82,208,72.9,203l13.32-12.11Z"/><ellipse class="cls-3" cx="171.03" cy="240.52" rx="117.56" ry="10.49"/><rect class="cls-1" x="107.81" y="184.89" width="31.04" height="59.1" rx="12.19"/><rect class="cls-1" x="205.86" y="184.89" width="31.04" height="59.1" rx="12.19"/><path class="cls-4" d="M287.42,118.56v29.19a72.47,72.47,0,0,1-.45,8,70.17,70.17,0,0,1-2.74,12.94,68.77,68.77,0,0,1-3.39,8.7,69.76,69.76,0,0,1-63.25,40.21H124.47a69.82,69.82,0,0,1-66.69-49.1,68.81,68.81,0,0,1-2.7-13,71.09,71.09,0,0,1-.43-7.76V118.56Z"/><circle class="cls-5" cx="150.74" cy="63.14" r="20.45"/><circle class="cls-6" cx="151.4" cy="62.04" r="9.24"/><circle class="cls-5" cx="191.96" cy="63.14" r="20.45"/><circle class="cls-6" cx="192.62" cy="62.04" r="9.24"/><circle class="cls-7" cx="112.01" cy="80.8" r="6.18"/><circle class="cls-7" cx="230.71" cy="80.8" r="6.18"/><polygon class="cls-1" points="127.35 42.97 171.54 56.89 218.75 42.97 201.8 35.1 163.06 35.1 127.35 42.97"/><polygon class="cls-1" points="127.35 62.94 170.93 75.65 219.96 61.13 219.96 82.31 187.88 87.15 166.09 87.15 134.01 82.31 127.35 62.94"/><path class="cls-6" d="M170.33,80.55a57.08,57.08,0,0,1,12.41,1.38,60.13,60.13,0,0,1,18.92,7.64,3.74,3.74,0,0,1-4.17,6.21A54,54,0,0,0,181,89.21,50.78,50.78,0,0,0,170.15,88a45.17,45.17,0,0,0-25.26,7.81,3.67,3.67,0,0,1-2.06.62,3.74,3.74,0,0,1-2.06-6.86A52.8,52.8,0,0,1,170.33,80.55Z"/><path class="cls-7" d="M142.83,93.77a1.09,1.09,0,0,1-.92-.49,1.12,1.12,0,0,1,.31-1.53,50.21,50.21,0,0,1,28.11-8.56,54.51,54.51,0,0,1,11.83,1.32,57.34,57.34,0,0,1,18,7.25,1.09,1.09,0,0,1,.29,1.52,1.08,1.08,0,0,1-.91.49,1.14,1.14,0,0,1-.61-.18,56.23,56.23,0,0,0-17.36-7,53,53,0,0,0-11.45-1.29,47.61,47.61,0,0,0-26.71,8.25,1.14,1.14,0,0,1-.61.18m0,5.28h0A6.41,6.41,0,0,0,146.35,98a42.56,42.56,0,0,1,23.8-7.37,47.54,47.54,0,0,1,10.31,1.17A51.64,51.64,0,0,1,196,98a6.38,6.38,0,0,0,7.09-10.6,62.1,62.1,0,0,0-19.82-8,59.83,59.83,0,0,0-13-1.44,55.33,55.33,0,0,0-31,9.44,6.38,6.38,0,0,0,3.52,11.7Z"/><rect class="cls-2" x="54.63" y="129.39" width="232.77" height="9.59"/><path class="cls-2" d="M287.34,150.39v.08a69.17,69.17,0,0,1-1,9.51H55.73a70.33,70.33,0,0,1-1-9.59Z"/><path class="cls-2" d="M283.23,171.39c-.33.89-.67,1.78-1,2.65-.83,2-1.76,4-2.78,6q-.26.49-.54,1H63.14q-.42-.76-.81-1.53a67.8,67.8,0,0,1-2.82-6.19c-.24-.62-.48-1.24-.71-1.87Z"/></g></g></svg>