<svg xmlns="http://www.w3.org/2000/svg" viewBox="0 0 348.62 280.66"><defs><style>.cls-1{fill:#59a3df;}.cls-2{fill:#1c60a3;}.cls-3{opacity:0.22;}.cls-4{fill:#6d3b19;}.cls-5{fill:#2a73c7;}.cls-6{fill:#fff;}.cls-7{fill:#28383d;}.cls-8{fill:#2083c6;}.cls-9{fill:#1a6c99;}</style></defs><g id="Camada_2" data-name="Camada 2"><g id="Layer_1" data-name="Layer 1"><circle class="cls-1" cx="18.49" cy="37.17" r="15.52"/><path class="cls-2" d="M67.36,159.63l11.91-28.48a78.81,78.81,0,0,1-46.7-89L2.37,35.82A109.69,109.69,0,0,0,67.36,159.63Z"/><circle class="cls-1" cx="330.12" cy="37.17" r="15.52"/><path class="cls-2" d="M281.25,159.63l-11.91-28.48a78.81,78.81,0,0,0,46.7-89l30.21-6.37A109.7,109.7,0,0,1,281.25,159.63Z"/><path class="cls-1" d="M288.4,116.38c0,.73,0,1.45,0,2.18H55.66c0-.73,0-1.45,0-2.18a116.39,116.39,0,0,1,232.77,0Z"/><path class="cls-1" d="M98.43,26.21s-19.62,12.06-28.62-6.6C69.81,19.61,69.05,58.15,98.43,26.21Z"/><path class="cls-1" d="M94.31,26.61S77.86,50.89,57.63,33.94C57.63,33.94,77,79.08,94.31,26.61Z"/><path class="cls-1" d="M106.81,20.59s-15.55,9.56-22.69-5.24C84.12,15.35,83.52,45.91,106.81,20.59Z"/><path class="cls-1" d="M245.69,26.21s19.62,12.06,28.62-6.6C274.31,19.61,275.07,58.15,245.69,26.21Z"/><path class="cls-1" d="M249.82,26.61s16.45,24.28,36.67,7.33C286.49,33.94,267.18,79.08,249.82,26.61Z"/><path class="cls-1" d="M237.32,20.59s15.55,9.56,22.68-5.24C260,15.35,260.61,45.91,237.32,20.59Z"/><ellipse class="cls-3" cx="172.01" cy="270.17" rx="117.56" ry="10.49"/><path class="cls-4" d="M172.49,97.85a5.06,5.06,0,0,0-4.4,5.15s4.13-4.94,8.53-4.94.82-4.85.82-4.85Z"/><rect class="cls-1" x="108.79" y="184.89" width="31.04" height="59.1" rx="12.19" transform="translate(102.76 -32.48) rotate(25.11)"/><rect class="cls-1" x="206.84" y="184.89" width="31.04" height="59.1" rx="12.19" transform="translate(-59.73 88.54) rotate(-19.91)"/><path class="cls-5" d="M288.4,118.56v29.19a72.47,72.47,0,0,1-.45,8,70.17,70.17,0,0,1-2.74,12.94,68.77,68.77,0,0,1-3.39,8.7,69.76,69.76,0,0,1-63.25,40.21H125.46a69.73,69.73,0,0,1-69.4-62.07,71.09,71.09,0,0,1-.43-7.76V118.56Z"/><path class="cls-6" d="M172.18,63.14a20.38,20.38,0,0,1-3.57,11.55A42.59,42.59,0,0,0,156,70.56a35.8,35.8,0,0,0-7.9-.34,34.51,34.51,0,0,0-13.63,3.87,20.45,20.45,0,1,1,37.73-11Z"/><path class="cls-7" d="M161.62,62A9.25,9.25,0,0,1,156,70.56a35.8,35.8,0,0,0-7.9-.34A9.24,9.24,0,1,1,161.62,62Z"/><path class="cls-6" d="M213.39,63.14a20.35,20.35,0,0,1-3.29,11.13,41.32,41.32,0,0,0-12.65-3.83,36,36,0,0,0-8-.14A34.47,34.47,0,0,0,176,74.56a20.46,20.46,0,1,1,37.43-11.42Z"/><path class="cls-7" d="M202.84,62a9.25,9.25,0,0,1-5.39,8.4,36,36,0,0,0-8-.14A9.24,9.24,0,1,1,202.84,62Z"/><circle class="cls-8" cx="112.99" cy="80.8" r="6.18"/><circle class="cls-8" cx="231.7" cy="80.8" r="6.18"/><path class="cls-7" d="M143.22,87.15H200.6a6.76,6.76,0,0,1,4.65,11.67c-5,4.64-14.73,8.91-33.34,8.91s-28.3-4.27-33.33-8.91A6.75,6.75,0,0,1,143.22,87.15Z"/><ellipse class="cls-9" cx="171.98" cy="103.58" rx="17.34" ry="5.73"/><path class="cls-8" d="M171.91,110.76c-16.49,0-28.4-3.27-35.38-9.72a9.63,9.63,0,0,1-2.44-10.66,9.75,9.75,0,0,1,9.13-6.25H200.6a9.76,9.76,0,0,1,9.14,6.25A9.65,9.65,0,0,1,207.3,101C200.32,107.49,188.41,110.76,171.91,110.76ZM143.22,90.18a3.68,3.68,0,0,0-3.49,2.4,3.57,3.57,0,0,0,.9,4c4,3.7,12.69,8.12,31.28,8.12s27.28-4.42,31.28-8.12a3.57,3.57,0,0,0,.91-4,3.68,3.68,0,0,0-3.5-2.4Z"/><path class="cls-7" d="M172.49,97.19a5.06,5.06,0,0,0-4.4,5.15s4.13-4.94,8.53-4.94.82-4.85.82-4.85Z"/><rect class="cls-2" x="55.63" y="129.25" width="232.77" height="9.59"/><path class="cls-2" d="M288.34,150.25v.08a69.17,69.17,0,0,1-1,9.51H56.73a70.33,70.33,0,0,1-1-9.59Z"/><path class="cls-2" d="M284.08,171.25c-.33.89-.67,1.78-1,2.65-.83,2-1.76,4-2.78,5.95q-.25.5-.54,1H64q-.42-.76-.81-1.53a67.8,67.8,0,0,1-2.82-6.19c-.24-.62-.48-1.24-.71-1.87Z"/></g></g></svg>