<svg xmlns="http://www.w3.org/2000/svg" viewBox="0 0 235.11 251"><defs><style>.cls-1{fill:#59a3df;}.cls-2{opacity:0.22;}.cls-3{fill:#1c60a3;}.cls-4{fill:#2a73c7;}.cls-5{fill:#28383d;}.cls-6{fill:#2083c6;}.cls-7{fill:#fff;}.cls-8{fill:#4e8cf9;}</style></defs><g id="Camada_2" data-name="Camada 2"><g id="Layer_1" data-name="Layer 1"><path class="cls-1" d="M233.91,116.38c0,.73,0,1.45,0,2.18H1.17c0-.73,0-1.45,0-2.18a116.38,116.38,0,0,1,232.76,0Z"/><path class="cls-1" d="M43.94,26.21s-19.61,12.06-28.61-6.6C15.33,19.61,14.56,58.15,43.94,26.21Z"/><path class="cls-1" d="M39.82,26.61S23.37,50.89,3.14,33.94C3.14,33.94,22.46,79.08,39.82,26.61Z"/><path class="cls-1" d="M52.32,20.59s-15.55,9.56-22.68-5.24C29.64,15.35,29,45.91,52.32,20.59Z"/><path class="cls-1" d="M191.2,26.21s19.62,12.06,28.62-6.6C219.82,19.61,220.59,58.15,191.2,26.21Z"/><path class="cls-1" d="M195.33,26.61S211.78,50.89,232,33.94C232,33.94,212.69,79.08,195.33,26.61Z"/><path class="cls-1" d="M182.83,20.59s15.55,9.56,22.68-5.24C205.51,15.35,206.12,45.91,182.83,20.59Z"/><ellipse class="cls-2" cx="117.56" cy="240.52" rx="117.56" ry="10.49"/><circle class="cls-1" cx="16.69" cy="214.51" r="15.52"/><path class="cls-3" d="M32.21,217.38h-31V139c0-2.59,2.42-4.72,5.38-4.72l20.28,19.11c3,0,5.38,2.12,5.38,4.71Z"/><circle class="cls-1" cx="218.42" cy="216.17" r="15.52"/><path class="cls-3" d="M202.9,219h31V132.91a5.3,5.3,0,0,0-5.38-5.19l-20.28,21a5.3,5.3,0,0,0-5.38,5.18Z"/><rect class="cls-1" x="54.33" y="184.89" width="31.04" height="59.1" rx="12.19"/><rect class="cls-1" x="152.39" y="184.89" width="31.04" height="59.1" rx="12.19"/><path class="cls-4" d="M233.94,118.56v29.19a70.1,70.1,0,0,1-.45,8,69.36,69.36,0,0,1-2.74,12.94,69.76,69.76,0,0,1-66.64,48.91H71A69.75,69.75,0,0,1,7.67,177.19a68.24,68.24,0,0,1-3.37-8.71,69.6,69.6,0,0,1-3.12-20.73V118.56Z"/><path class="cls-5" d="M116.86,89.62A57,57,0,0,1,129.26,91a60,60,0,0,1,18.92,7.64,3.74,3.74,0,0,1-4.16,6.21,54.29,54.29,0,0,0-16.46-6.57,50.31,50.31,0,0,0-10.89-1.23,45.16,45.16,0,0,0-25.25,7.81,3.74,3.74,0,0,1-4.13-6.24A52.84,52.84,0,0,1,116.86,89.62Z"/><path class="cls-6" d="M89.35,102.85a1.09,1.09,0,0,1-.91-.49,1.1,1.1,0,0,1,.31-1.53,50.22,50.22,0,0,1,28.11-8.57,54.51,54.51,0,0,1,11.83,1.32,57.23,57.23,0,0,1,18,7.26,1.1,1.1,0,1,1-1.23,1.82,56.23,56.23,0,0,0-17.35-7,53.06,53.06,0,0,0-11.46-1.29A47.66,47.66,0,0,0,90,102.67a1.14,1.14,0,0,1-.61.18m0,5.28h0a6.35,6.35,0,0,0,3.51-1.06,42.58,42.58,0,0,1,23.8-7.37A47.56,47.56,0,0,1,127,100.87a51.93,51.93,0,0,1,15.58,6.19,6.37,6.37,0,0,0,7.08-10.6,61.85,61.85,0,0,0-19.82-8,59.67,59.67,0,0,0-13-1.44,55.38,55.38,0,0,0-31,9.44,6.38,6.38,0,0,0,3.52,11.7Z"/><path class="cls-7" d="M117.72,63.14A20.45,20.45,0,0,1,77.3,67.57a47.21,47.21,0,0,0,11.48-4.31,44.38,44.38,0,0,0,12.41-9.86,46.56,46.56,0,0,0,5.8-8.26A20.45,20.45,0,0,1,117.72,63.14Z"/><path class="cls-5" d="M107.17,62a9.24,9.24,0,0,1-18.39,1.22,44.38,44.38,0,0,0,12.41-9.86A9.23,9.23,0,0,1,107.17,62Z"/><path class="cls-7" d="M148,64.75a44.62,44.62,0,0,1-14.34-10.12,46.1,46.1,0,0,1-6.39-8.57,20.46,20.46,0,0,0-4.82,29.75h0A20.46,20.46,0,0,0,158.36,68,49.12,49.12,0,0,1,148,64.75Z"/><path class="cls-5" d="M148,64.75a9.24,9.24,0,1,1-14.34-10.12A44.62,44.62,0,0,0,148,64.75Z"/><circle class="cls-6" cx="58.53" cy="80.8" r="6.18"/><circle class="cls-6" cx="177.24" cy="80.8" r="6.18"/><circle class="cls-7" cx="138.04" cy="66.57" r="2.42"/><circle class="cls-7" cx="99.9" cy="66.57" r="2.42"/><path class="cls-8" d="M153.2,77.34a19.91,19.91,0,0,1-3.51,2.9A17,17,0,0,1,147,81.72a20.17,20.17,0,0,1-8.54,1.87,20.39,20.39,0,0,1-16-7.78A37.92,37.92,0,0,0,147.77,79c.4-.09.8-.2,1.2-.31A36,36,0,0,0,153.2,77.34Z"/><path class="cls-8" d="M113.07,76.12a20.44,20.44,0,0,1-30.75,1A37.37,37.37,0,0,0,113.07,76.12Z"/><path class="cls-8" d="M149.54,90.18c-3.65-.36-3.35-4.9-2.52-8.46.23-1,.51-2,.75-2.68.4-.09.8-.2,1.2-.31.21.43.46.94.72,1.51C151.45,84.11,153.8,90.61,149.54,90.18Z"/><circle class="cls-7" cx="150.14" cy="87.15" r="1.21"/><rect class="cls-3" x="1.18" y="129.56" width="232.77" height="9.59"/><path class="cls-3" d="M233.89,150.56v.08a69.17,69.17,0,0,1-1,9.51H2.28a70.33,70.33,0,0,1-1-9.59Z"/><path class="cls-3" d="M229.78,171.56c-.33.89-.67,1.78-1,2.65-.83,2-1.76,4-2.78,5.95q-.25.5-.54,1H9.69q-.42-.77-.81-1.53a67.8,67.8,0,0,1-2.82-6.19c-.24-.62-.48-1.24-.71-1.87Z"/></g></g></svg>