<svg xmlns="http://www.w3.org/2000/svg" viewBox="0 0 343.86 266.3"><defs><style>.cls-1{opacity:0.22;}.cls-2{fill:#162c51;}.cls-3{fill:#2d4b87;}.cls-4{fill:#1b3760;}.cls-5{fill:#fff;}.cls-6{fill:#10213a;}.cls-7{fill:#426996;}</style></defs><g id="Camada_2" data-name="Camada 2"><g id="Layer_1" data-name="Layer 1"><ellipse class="cls-1" cx="171.03" cy="255.82" rx="117.56" ry="10.49"/><path class="cls-2" d="M265.19,198.85q.48,12,1,24.05c103.6-2.54,103.6-85.21,0-87.75q-.48,12-1,24.06C328.93,160.77,328.93,197.28,265.19,198.85Z"/><path class="cls-3" d="M251.17,213.47A15.52,15.52,0,0,0,266.69,229c4.89,0,9-3.27,11.81-6.81l-1.89-20.63a15.51,15.51,0,0,0-25.44,11.92Z"/><path class="cls-3" d="M251.17,218.26s3.05,20,17.37,19.57-6.66-14.53,2.42-19.57l-13.31-12.11Z"/><path class="cls-2" d="M78.67,198.85q-.48,12-1,24.05c-103.6-2.54-103.6-85.21,0-87.75q.48,12,1,24.06C14.93,160.77,14.93,197.28,78.67,198.85Z"/><path class="cls-3" d="M92.69,213.47A15.52,15.52,0,0,1,77.17,229c-4.88,0-9-3.27-11.8-6.81l1.88-20.63a15.51,15.51,0,0,1,25.44,11.92Z"/><path class="cls-3" d="M92.69,218.26s-3,20-17.37,19.57S82,223.3,72.9,218.26l13.32-12.11Z"/><path class="cls-3" d="M287.38,131.84c0,.73,0,1.45,0,2.18H54.64c0-.73,0-1.45,0-2.18a116.38,116.38,0,0,1,232.76,0Z"/><rect class="cls-3" x="107.78" y="200.35" width="31.04" height="59.1" rx="12.19"/><rect class="cls-3" x="205.83" y="200.35" width="31.04" height="59.1" rx="12.19"/><path class="cls-4" d="M287.38,134v29.51a71.08,71.08,0,0,1-.57,8.68,70.14,70.14,0,0,1-2.16,10.41,68.53,68.53,0,0,1-3.54,9.54A69.83,69.83,0,0,1,217.56,233H124.44a70.91,70.91,0,0,1-13-1.22,69.92,69.92,0,0,1-50.51-39.66,69.5,69.5,0,0,1-5.69-19.95,67.31,67.31,0,0,1-.57-8.68c0-.11,0-.21,0-.32V134Z"/><path class="cls-2" d="M112.81,157.72a26.21,26.21,0,0,1-11.34-2.31,17.82,17.82,0,0,0-8.06-1.66,17.81,17.81,0,0,0-8,1.66A26.25,26.25,0,0,1,74,157.72a26.21,26.21,0,0,1-11.34-2.31,17.82,17.82,0,0,0-8.06-1.66v-8.67A26.24,26.24,0,0,1,66,147.38,17.82,17.82,0,0,0,74,149a17.86,17.86,0,0,0,8.06-1.66,26.19,26.19,0,0,1,11.33-2.3,26.2,26.2,0,0,1,11.34,2.3,17.82,17.82,0,0,0,8.06,1.66Z"/><path class="cls-2" d="M151.61,157.72a26.18,26.18,0,0,1-11.34-2.31,20.4,20.4,0,0,0-16.12,0,26.21,26.21,0,0,1-11.34,2.31V149a17.82,17.82,0,0,0,8.06-1.66,29.11,29.11,0,0,1,22.68,0,20.37,20.37,0,0,0,16.11,0,26.27,26.27,0,0,1,11.34-2.3v8.67a17.86,17.86,0,0,0-8.06,1.66A26.16,26.16,0,0,1,151.61,157.72Z"/><path class="cls-2" d="M229.19,157.72a26.25,26.25,0,0,1-11.34-2.31,20.37,20.37,0,0,0-16.11,0,29,29,0,0,1-22.68,0,17.82,17.82,0,0,0-8.06-1.66v-8.67a26.24,26.24,0,0,1,11.34,2.3,20.4,20.4,0,0,0,16.12,0,29.11,29.11,0,0,1,22.68,0,17.78,17.78,0,0,0,8.05,1.66Z"/><path class="cls-2" d="M268,157.72a26.21,26.21,0,0,1-11.34-2.31,20.4,20.4,0,0,0-16.12,0,26.21,26.21,0,0,1-11.34,2.31V149a17.82,17.82,0,0,0,8.06-1.66,29.11,29.11,0,0,1,22.68,0,20.37,20.37,0,0,0,16.11,0,26.27,26.27,0,0,1,11.34-2.3v8.67a17.81,17.81,0,0,0-8.05,1.66A26.25,26.25,0,0,1,268,157.72Z"/><path class="cls-2" d="M112.81,167.49v8.68a26.21,26.21,0,0,1-11.34-2.31,17.81,17.81,0,0,0-8-1.66,17.82,17.82,0,0,0-8.06,1.66A26.21,26.21,0,0,1,74,176.17a26.21,26.21,0,0,1-11.34-2.31,17.53,17.53,0,0,0-7.48-1.65,67.31,67.31,0,0,1-.57-8.68A26.22,26.22,0,0,1,66,165.83,18,18,0,0,0,74,167.49a17.91,17.91,0,0,0,8-1.66,26.33,26.33,0,0,1,11.35-2.3,26.22,26.22,0,0,1,11.33,2.3A18,18,0,0,0,112.81,167.49Z"/><path class="cls-2" d="M151.61,176.17a26.18,26.18,0,0,1-11.34-2.31,20.4,20.4,0,0,0-16.12,0,26.21,26.21,0,0,1-11.34,2.31v-8.68a17.82,17.82,0,0,0,8.06-1.66,29.11,29.11,0,0,1,22.68,0,20.37,20.37,0,0,0,16.11,0,26.27,26.27,0,0,1,11.34-2.3v8.67a18,18,0,0,0-8.06,1.66A26.16,26.16,0,0,1,151.61,176.17Z"/><path class="cls-2" d="M229.19,176.17a26.25,26.25,0,0,1-11.34-2.31,20.37,20.37,0,0,0-16.11,0,29,29,0,0,1-22.68,0A18,18,0,0,0,171,172.2v-8.67a26.24,26.24,0,0,1,11.34,2.3,20.4,20.4,0,0,0,16.12,0,29.11,29.11,0,0,1,22.68,0,17.78,17.78,0,0,0,8.05,1.66Z"/><path class="cls-2" d="M287.38,163.53a71.08,71.08,0,0,1-.57,8.68,17.53,17.53,0,0,0-7.48,1.65,29,29,0,0,1-22.68,0,20.4,20.4,0,0,0-16.12,0,26.16,26.16,0,0,1-11.33,2.31v-8.68a17.94,17.94,0,0,0,8.05-1.66,29.11,29.11,0,0,1,22.68,0,20.37,20.37,0,0,0,16.11,0A26.27,26.27,0,0,1,287.38,163.53Z"/><path class="cls-2" d="M112.81,186.48v8.67a26.24,26.24,0,0,1-11.34-2.3,17.94,17.94,0,0,0-8-1.66,18,18,0,0,0-8.06,1.66A26.24,26.24,0,0,1,74,195.15a26.24,26.24,0,0,1-11.34-2.3c-.62-.25-1.19-.49-1.79-.69a68.49,68.49,0,0,1-3.53-9.54,26,26,0,0,1,8.6,2.2A17.82,17.82,0,0,0,74,186.48a17.78,17.78,0,0,0,8-1.66,26.33,26.33,0,0,1,11.35-2.3,26.22,26.22,0,0,1,11.33,2.3A17.86,17.86,0,0,0,112.81,186.48Z"/><path class="cls-2" d="M151.61,195.16a26.18,26.18,0,0,1-11.34-2.31,20.4,20.4,0,0,0-16.12,0,26.21,26.21,0,0,1-11.34,2.31v-8.68a17.82,17.82,0,0,0,8.06-1.66,29.11,29.11,0,0,1,22.68,0,20.37,20.37,0,0,0,16.11,0,26.27,26.27,0,0,1,11.34-2.3v8.67a18,18,0,0,0-8.06,1.66A26.16,26.16,0,0,1,151.61,195.16Z"/><path class="cls-2" d="M229.19,195.16a26.25,26.25,0,0,1-11.34-2.31,20.37,20.37,0,0,0-16.11,0,29,29,0,0,1-22.68,0,18,18,0,0,0-8.06-1.66v-8.67a26.24,26.24,0,0,1,11.34,2.3,20.4,20.4,0,0,0,16.12,0,29.11,29.11,0,0,1,22.68,0,17.78,17.78,0,0,0,8.05,1.66Z"/><path class="cls-2" d="M284.65,182.62a68.53,68.53,0,0,1-3.54,9.54c-.59.2-1.17.44-1.78.69a29.11,29.11,0,0,1-22.68,0,20.4,20.4,0,0,0-16.12,0,26.19,26.19,0,0,1-11.33,2.3v-8.67a17.81,17.81,0,0,0,8.05-1.66,29.11,29.11,0,0,1,22.68,0,20.37,20.37,0,0,0,16.11,0A26,26,0,0,1,284.65,182.62Z"/><path class="cls-5" d="M166.85,66a51.36,51.36,0,0,0-24.25,8.6A52.08,52.08,0,0,0,131.27,85,20.46,20.46,0,1,0,166.85,66Z"/><path class="cls-6" d="M160.61,77.5a9.24,9.24,0,1,1-18.47,0,9.08,9.08,0,0,1,.46-2.87,51.63,51.63,0,0,1,11.71-5.89A9.25,9.25,0,0,1,160.61,77.5Z"/><path class="cls-5" d="M201.59,75.43a52.1,52.1,0,0,0-12.41-6.52A51.49,51.49,0,0,0,175.81,66a20.46,20.46,0,1,0,35.66,18.64A52,52,0,0,0,201.59,75.43Z"/><path class="cls-6" d="M201.82,77.5a9.24,9.24,0,1,1-12.64-8.59,52.1,52.1,0,0,1,12.41,6.52A8.88,8.88,0,0,1,201.82,77.5Z"/><circle class="cls-7" cx="111.98" cy="96.26" r="6.18"/><circle class="cls-7" cx="230.68" cy="96.26" r="6.18"/><circle class="cls-5" cx="150.74" cy="78.44" r="20.45"/><circle class="cls-6" cx="151.4" cy="77.34" r="9.24"/><circle class="cls-5" cx="191.96" cy="78.44" r="20.45"/><circle class="cls-6" cx="192.62" cy="77.34" r="9.24"/><polygon class="cls-3" points="127.35 58.27 171.54 72.19 218.75 58.27 201.8 50.4 163.06 50.4 127.35 58.27"/><polygon class="cls-3" points="127.35 78.24 170.93 90.95 219.96 76.43 219.96 97.61 187.88 102.45 166.09 102.45 134.01 97.61 127.35 78.24"/><path class="cls-6" d="M170.33,95.85a57.08,57.08,0,0,1,12.41,1.38,60.13,60.13,0,0,1,18.92,7.64,3.74,3.74,0,0,1-4.17,6.21A54,54,0,0,0,181,104.51a50.78,50.78,0,0,0-10.88-1.23,45.17,45.17,0,0,0-25.26,7.81,3.67,3.67,0,0,1-2.06.62,3.74,3.74,0,0,1-2.06-6.86A52.8,52.8,0,0,1,170.33,95.85Z"/><path class="cls-7" d="M142.83,109.07a1.09,1.09,0,0,1-.92-.49,1.12,1.12,0,0,1,.31-1.53,50.21,50.21,0,0,1,28.11-8.56,54.51,54.51,0,0,1,11.83,1.32,57.34,57.34,0,0,1,18,7.25,1.09,1.09,0,0,1,.29,1.52,1.08,1.08,0,0,1-1.52.3,56.66,56.66,0,0,0-17.36-6.95,53,53,0,0,0-11.45-1.29,47.61,47.61,0,0,0-26.71,8.25,1.14,1.14,0,0,1-.61.18m0,5.28h0a6.41,6.41,0,0,0,3.52-1.06,42.56,42.56,0,0,1,23.8-7.37,47.54,47.54,0,0,1,10.31,1.17A51.64,51.64,0,0,1,196,113.28a6.38,6.38,0,0,0,7.09-10.6,62.1,62.1,0,0,0-19.82-8,59.83,59.83,0,0,0-13-1.44,55.33,55.33,0,0,0-31,9.44,6.38,6.38,0,0,0,3.52,11.7Z"/><path class="cls-4" d="M107.21,28.45c-1.76-5.55-6-16.09-14.08-20.53a3.36,3.36,0,0,1,.78-6.2C105-1.12,123-2.07,142.68,12.06a3.37,3.37,0,0,1-.65,5.85L111.71,30.55A3.36,3.36,0,0,1,107.21,28.45Z"/><rect class="cls-2" x="101.67" y="18.94" width="53.49" height="9.24" rx="4.62" transform="translate(0.6 50.2) rotate(-22.17)"/><circle class="cls-2" cx="89.4" cy="5.49" r="5.16"/></g></g></svg>