<svg xmlns="http://www.w3.org/2000/svg" viewBox="0 0 295.42 257.15"><defs><style>.cls-1{fill:#2d4b87;}.cls-2{opacity:0.22;}.cls-3{fill:#162c51;}.cls-4{fill:#1b3760;}.cls-5{fill:#10213a;}.cls-6{fill:#426996;}.cls-7{fill:#6d3b19;}.cls-8{fill:#ce5a28;}.cls-9{fill:#4b6f9b;}.cls-10{fill:#fff;}</style></defs><g id="Camada_2" data-name="Camada 2"><g id="Layer_1" data-name="Layer 1"><path class="cls-1" d="M46.23,10.78c10.46-.14,23.35,1.19,27.05,8.13a1.33,1.33,0,0,0,1.44.69l11.19-2.3a1.33,1.33,0,0,0,.8-2.09C83.8,11.3,73.89,2.5,46,8.14A1.33,1.33,0,0,0,46.23,10.78Z"/><ellipse class="cls-2" cx="147.08" cy="246.67" rx="117.56" ry="10.49"/><circle class="cls-1" cx="15.75" cy="214.48" r="15.52"/><path class="cls-3" d="M30.14,221,0,213.56l18.7-76.08c.62-2.52,3.48-4,6.35-3.29l15.13,23.39c2.88.7,4.72,3.34,4.1,5.86Z"/><circle class="cls-1" cx="279.9" cy="93.3" r="15.52"/><path class="cls-3" d="M293.74,100.88,269.69,81.27,215.26,148a5.31,5.31,0,0,0,.89,7.42l29-3.46a5.29,5.29,0,0,0,7.44-.62Z"/><rect class="cls-1" x="72.21" y="191.04" width="31.04" height="59.1" rx="12.19"/><rect class="cls-1" x="189.05" y="178.02" width="31.04" height="59.1" rx="12.19" transform="translate(-52.81 70.85) rotate(-17.44)"/><path class="cls-1" d="M247.42,102.29c.09.72.18,1.44.26,2.16L16.93,134.69q-.16-1.08-.3-2.16a116.38,116.38,0,1,1,230.79-30.24Z"/><path class="cls-4" d="M252.09,142.39A69.46,69.46,0,0,1,249,162.91a69.81,69.81,0,0,1-57.71,48.79L99,223.8a72.13,72.13,0,0,1-13.09.49,70,70,0,0,1-55.24-32.78,69.88,69.88,0,0,1-8.23-19,70,70,0,0,1-1.7-8.53c0-.11,0-.21,0-.32l-1.23-9.37-1.12-8.61-1.44-11L247.7,104.45l1.43,11h0l1.12,8.61,1.23,9.37c0,.11,0,.22,0,.32A71,71,0,0,1,252.09,142.39Z"/><path class="cls-3" d="M35.05,156a26.2,26.2,0,0,1-7.37-1.1,18,18,0,0,0-8.21-.59l-1.13-8.61a26.38,26.38,0,0,1,11.55.81,17.75,17.75,0,0,0,8.2.6,17.92,17.92,0,0,0,7.78-2.69,26.27,26.27,0,0,1,10.94-3.76,26.35,26.35,0,0,1,11.54.81,17.78,17.78,0,0,0,8.21.6l1.12,8.6a26.2,26.2,0,0,1-11.54-.81,17.91,17.91,0,0,0-8.2-.59,17.67,17.67,0,0,0-7.78,2.69,26.29,26.29,0,0,1-10.94,3.75A31.24,31.24,0,0,1,35.05,156Z"/><path class="cls-3" d="M77.68,150.62,76.56,142a17.92,17.92,0,0,0,7.77-2.69,26.27,26.27,0,0,1,11-3.76,26.35,26.35,0,0,1,11.54.81,20.41,20.41,0,0,0,16-2.09,26.27,26.27,0,0,1,10.94-3.76l1.13,8.61a17.67,17.67,0,0,0-7.78,2.69,26.29,26.29,0,0,1-10.94,3.75,26.2,26.2,0,0,1-11.54-.81,17.94,17.94,0,0,0-8.21-.59,17.67,17.67,0,0,0-7.77,2.69A26.29,26.29,0,0,1,77.68,150.62Z"/><path class="cls-3" d="M150.44,140.84a26.21,26.21,0,0,1-7.37-1.11,17.91,17.91,0,0,0-8.2-.59l-1.13-8.61a26.35,26.35,0,0,1,11.54.81,20.39,20.39,0,0,0,16-2.09,29.07,29.07,0,0,1,22.49-3,17.75,17.75,0,0,0,8.2.6l1.13,8.6a26.2,26.2,0,0,1-11.54-.81,20.45,20.45,0,0,0-16,2.1,26.29,26.29,0,0,1-10.95,3.75A31.28,31.28,0,0,1,150.44,140.84Z"/><path class="cls-3" d="M193.08,135.5,192,126.9a17.92,17.92,0,0,0,7.78-2.69,29,29,0,0,1,22.48-2.95,20.39,20.39,0,0,0,16-2.09,26.27,26.27,0,0,1,10.95-3.76l1.12,8.61a17.79,17.79,0,0,0-7.77,2.69A29.11,29.11,0,0,1,220,129.65a20.47,20.47,0,0,0-16,2.1A26.29,26.29,0,0,1,193.08,135.5Z"/><path class="cls-3" d="M80.08,168.92a26.35,26.35,0,0,1-11.54-.81,17.78,17.78,0,0,0-8.21-.6,17.92,17.92,0,0,0-7.77,2.69A26.13,26.13,0,0,1,41.62,174a33.25,33.25,0,0,1-4.17.29,26.51,26.51,0,0,1-7.37-1.1,17.6,17.6,0,0,0-7.64-.67,70,70,0,0,1-1.7-8.53,26.18,26.18,0,0,1,11.54.81,18,18,0,0,0,8.21.59,17.79,17.79,0,0,0,7.77-2.69,26.29,26.29,0,0,1,11-3.75,26.2,26.2,0,0,1,11.54.81,17.92,17.92,0,0,0,8.21.6Z"/><path class="cls-3" d="M80.08,168.92,79,160.31a17.67,17.67,0,0,0,7.78-2.69,26.29,26.29,0,0,1,10.94-3.75,26.2,26.2,0,0,1,11.54.81,17.94,17.94,0,0,0,8.21.59,17.67,17.67,0,0,0,7.77-2.69,26.29,26.29,0,0,1,10.95-3.75l1.12,8.6a17.92,17.92,0,0,0-7.77,2.69,26.13,26.13,0,0,1-10.94,3.76,26.38,26.38,0,0,1-11.55-.81,17.75,17.75,0,0,0-8.2-.6A17.87,17.87,0,0,0,91,165.16,26.32,26.32,0,0,1,80.08,168.92Z"/><path class="cls-3" d="M152.84,159.13a26.57,26.57,0,0,1-7.37-1.1,17.78,17.78,0,0,0-8.21-.6l-1.12-8.6a26.2,26.2,0,0,1,11.54.81,20.47,20.47,0,0,0,16-2.1,29.09,29.09,0,0,1,22.48-2.94,17.82,17.82,0,0,0,8.21.59l1.13,8.61a26.25,26.25,0,0,1-11.55-.81,20.38,20.38,0,0,0-16,2.09,26.18,26.18,0,0,1-11,3.76A33,33,0,0,1,152.84,159.13Z"/><path class="cls-3" d="M252.09,142.39a17.75,17.75,0,0,0-7.2,2.61A29.07,29.07,0,0,1,222.4,148a20.41,20.41,0,0,0-16,2.09,26.27,26.27,0,0,1-10.95,3.76l-1.12-8.6a17.83,17.83,0,0,0,7.78-2.7,29,29,0,0,1,22.48-2.94,20.47,20.47,0,0,0,16-2.1,26.29,26.29,0,0,1,10.94-3.75A71,71,0,0,1,252.09,142.39Z"/><path class="cls-3" d="M82.55,187.75A26.51,26.51,0,0,1,71,186.94a17.78,17.78,0,0,0-8.21-.6A17.87,17.87,0,0,0,55,189a26.32,26.32,0,0,1-11,3.76,33,33,0,0,1-4.17.29,26.63,26.63,0,0,1-7.37-1.1c-.64-.17-1.25-.34-1.87-.47a68,68,0,0,1-4.73-9,25.92,25.92,0,0,1,8.81,1.07,17.94,17.94,0,0,0,8.21.59,17.79,17.79,0,0,0,7.77-2.69,26.15,26.15,0,0,1,11-3.75,26.21,26.21,0,0,1,11.54.81,17.86,17.86,0,0,0,8.2.6Z"/><path class="cls-3" d="M82.55,187.75l-1.13-8.61a17.84,17.84,0,0,0,7.78-2.69,26.23,26.23,0,0,1,10.94-3.75,26.2,26.2,0,0,1,11.54.81,20.45,20.45,0,0,0,16-2.1,26.29,26.29,0,0,1,10.94-3.75l1.13,8.6A17.92,17.92,0,0,0,132,179a29.07,29.07,0,0,1-22.49,3,20.41,20.41,0,0,0-16,2.09A26.27,26.27,0,0,1,82.55,187.75Z"/><path class="cls-3" d="M155.31,178a26.57,26.57,0,0,1-7.37-1.1,17.78,17.78,0,0,0-8.21-.6l-1.13-8.6a26.08,26.08,0,0,1,11.55.81,17.91,17.91,0,0,0,8.2.59,17.72,17.72,0,0,0,7.78-2.69,29.09,29.09,0,0,1,22.48-2.94,17.94,17.94,0,0,0,8.21.59l1.12,8.61a26.35,26.35,0,0,1-11.54-.81,20.41,20.41,0,0,0-16,2.09,26.27,26.27,0,0,1-10.94,3.76A33,33,0,0,1,155.31,178Z"/><path class="cls-3" d="M251.3,153a68.48,68.48,0,0,1-2.26,9.91c-.57.28-1.11.6-1.69.92a29,29,0,0,1-22.48,2.95,20.39,20.39,0,0,0-16,2.09,26.27,26.27,0,0,1-10.95,3.76l-1.12-8.6a17.79,17.79,0,0,0,7.77-2.7,29,29,0,0,1,22.49-2.94,17.91,17.91,0,0,0,8.2.59,17.7,17.7,0,0,0,7.77-2.69A25.89,25.89,0,0,1,251.3,153Z"/><path class="cls-5" d="M131.63,106.47a56.47,56.47,0,0,1-12.48.24A60.16,60.16,0,0,1,99.4,101.6a3.74,3.74,0,1,1,3.32-6.7,54.26,54.26,0,0,0,17.17,4.37,50.46,50.46,0,0,0,11-.19,45.1,45.1,0,0,0,24-11,3.81,3.81,0,0,1,2-.88,3.74,3.74,0,0,1,2.93,6.53A52.72,52.72,0,0,1,131.63,106.47Z"/><path class="cls-4" d="M157.18,89.79a1.08,1.08,0,0,1,1,.37,1.1,1.1,0,0,1-.11,1.55,50.21,50.21,0,0,1-26.75,12.15,54.68,54.68,0,0,1-11.9.22,57.2,57.2,0,0,1-18.82-4.85,1.1,1.1,0,0,1,.35-2.07,1.07,1.07,0,0,1,.63.1,56,56,0,0,0,18.11,4.64,52.63,52.63,0,0,0,11.53-.21A47.64,47.64,0,0,0,156.6,90.05a1,1,0,0,1,.58-.26m-.69-5.24h0a6.46,6.46,0,0,0-3.35,1.51,42.53,42.53,0,0,1-22.64,10.4,47.75,47.75,0,0,1-10.38.18,51.36,51.36,0,0,1-16.25-4.12A6.38,6.38,0,0,0,98.22,104a62,62,0,0,0,20.7,5.38,59.81,59.81,0,0,0,13-.25A55.36,55.36,0,0,0,161.5,95.7a6.38,6.38,0,0,0-5-11.15Z"/><path class="cls-5" d="M114.66,64.88a9.24,9.24,0,0,1-18.32,2.4,9.43,9.43,0,0,1,.08-2.91A51.83,51.83,0,0,1,107.27,57,9.25,9.25,0,0,1,114.66,64.88Z"/><path class="cls-5" d="M155.52,59.53a9.24,9.24,0,1,1-13.65-6.88A51.65,51.65,0,0,1,155,57.51,8.92,8.92,0,0,1,155.52,59.53Z"/><circle class="cls-6" cx="68.88" cy="89.8" r="6.18"/><circle class="cls-6" cx="186.57" cy="74.38" r="6.18"/><path class="cls-7" d="M101.58,94.44l57-6.51A6.75,6.75,0,0,1,164.52,99c-4.47,5.19-13.62,10.53-32.11,12.64s-28.6-1-34.13-5.08A6.75,6.75,0,0,1,101.58,94.44Z"/><ellipse class="cls-8" cx="132.01" cy="107.5" rx="17.34" ry="5.73" transform="translate(-11.34 15.67) rotate(-6.51)"/><path class="cls-5" d="M101.43,95.09l56.85-7.75a6.75,6.75,0,0,1,6.18,10.93c-4.36,5.29-13.38,10.82-31.82,13.33s-28.62-.4-34.24-4.33A6.75,6.75,0,0,1,101.43,95.09Z"/><ellipse class="cls-9" cx="132.14" cy="107.48" rx="17.34" ry="5.73" transform="translate(-13.3 18.82) rotate(-7.76)"/><path class="cls-6" d="M133,114.6c-16.34,2.23-28.58.6-36.37-4.85a9.64,9.64,0,0,1-3.85-10.24,9.74,9.74,0,0,1,8.2-7.42l56.86-7.75a9.78,9.78,0,0,1,8.92,15.86C160.75,107.53,149.39,112.38,133,114.6Zm-31.2-16.52a3.7,3.7,0,0,0-3.14,2.86,3.57,3.57,0,0,0,1.44,3.85c4.47,3.13,13.67,6.32,32.09,3.82s26.43-8.06,29.9-12.27a3.55,3.55,0,0,0,.35-4.09,3.67,3.67,0,0,0-3.79-1.91Z"/><path class="cls-5" d="M131.87,101.75a5.06,5.06,0,0,0-3.79,5.62s3.54-5.38,7.91-5.88.27-4.91.27-4.91Z"/><path class="cls-4" d="M48.77,29C46,23.84,39.84,14.28,31.1,11.43a3.36,3.36,0,0,1-.39-6.24C41,.34,58.62-4,80.56,6.23A3.37,3.37,0,0,1,81,12.1L53.59,30.18A3.37,3.37,0,0,1,48.77,29Z"/><rect class="cls-3" x="41.95" y="15.58" width="53.49" height="9.24" rx="4.62" transform="translate(0.06 40.6) rotate(-32.94)"/><circle class="cls-3" cx="26.99" cy="9.74" r="5.16"/><circle class="cls-10" cx="104.96" cy="66.68" r="20.45"/><circle class="cls-5" cx="105.5" cy="65.52" r="9.24"/><circle class="cls-10" cx="145.92" cy="62.14" r="20.45"/><circle class="cls-5" cx="146.46" cy="60.97" r="9.24"/></g></g></svg>