<svg xmlns="http://www.w3.org/2000/svg" viewBox="0 0 348.62 295.03"><defs><style>.cls-1{fill:#2d4b87;}.cls-2{opacity:0.22;}.cls-3{fill:#162c51;}.cls-4{fill:#1b3760;}.cls-5{fill:#10213a;}.cls-6{fill:#426996;}.cls-7{fill:#fff;}.cls-8{fill:#4b6f9b;}</style></defs><g id="Camada_2" data-name="Camada 2"><g id="Layer_1" data-name="Layer 1"><circle class="cls-1" cx="330.12" cy="51.54" r="15.52"/><ellipse class="cls-2" cx="172.01" cy="284.54" rx="117.56" ry="10.49"/><circle class="cls-1" cx="18.49" cy="51.54" r="15.52"/><path class="cls-3" d="M67.36,174l11.91-28.48a78.81,78.81,0,0,1-46.7-89L2.37,50.19A109.69,109.69,0,0,0,67.36,174Z"/><path class="cls-3" d="M281.25,174l-11.91-28.48a78.81,78.81,0,0,0,46.7-89l30.21-6.37A109.7,109.7,0,0,1,281.25,174Z"/><rect class="cls-1" x="108.79" y="199.26" width="31.04" height="59.1" rx="12.19" transform="translate(108.86 -31.13) rotate(25.11)"/><rect class="cls-1" x="206.84" y="199.26" width="31.04" height="59.1" rx="12.19" transform="translate(-64.63 89.4) rotate(-19.91)"/><path class="cls-1" d="M288.29,131.08c0,.72,0,1.45,0,2.18H55.55c0-.73,0-1.46,0-2.18a116.38,116.38,0,0,1,232.76,0Z"/><path class="cls-4" d="M288.29,133.25v29.52a71.08,71.08,0,0,1-.57,8.68,70.14,70.14,0,0,1-2.16,10.41A68.53,68.53,0,0,1,282,191.4a69.75,69.75,0,0,1-63.55,40.87H125.36a71,71,0,0,1-13-1.21A69.92,69.92,0,0,1,61.8,191.4a69.5,69.5,0,0,1-5.69-20,71.08,71.08,0,0,1-.57-8.68c0-.11,0-.22,0-.32v-29.2Z"/><path class="cls-3" d="M113.72,157a26.27,26.27,0,0,1-11.34-2.3A17.82,17.82,0,0,0,94.32,153a17.81,17.81,0,0,0-8,1.66A26.27,26.27,0,0,1,74.93,157a26.24,26.24,0,0,1-11.34-2.3A17.82,17.82,0,0,0,55.53,153v-8.67a26.24,26.24,0,0,1,11.34,2.3,18,18,0,0,0,8.06,1.66A18,18,0,0,0,83,146.62a26.19,26.19,0,0,1,11.33-2.3,26.2,26.2,0,0,1,11.34,2.3,18,18,0,0,0,8.06,1.66Z"/><path class="cls-3" d="M152.52,157a26.2,26.2,0,0,1-11.34-2.3,20.4,20.4,0,0,0-16.12,0,26.24,26.24,0,0,1-11.34,2.3v-8.67a18,18,0,0,0,8.06-1.66,29.11,29.11,0,0,1,22.68,0,20.37,20.37,0,0,0,16.11,0,26.27,26.27,0,0,1,11.34-2.3V153a17.86,17.86,0,0,0-8.06,1.66A26.19,26.19,0,0,1,152.52,157Z"/><path class="cls-3" d="M230.1,157a26.27,26.27,0,0,1-11.34-2.3,20.37,20.37,0,0,0-16.11,0,29.11,29.11,0,0,1-22.68,0,17.82,17.82,0,0,0-8.06-1.66v-8.67a26.24,26.24,0,0,1,11.34,2.3,20.4,20.4,0,0,0,16.12,0,29.11,29.11,0,0,1,22.68,0,17.91,17.91,0,0,0,8,1.66Z"/><path class="cls-3" d="M268.9,157a26.24,26.24,0,0,1-11.34-2.3,20.4,20.4,0,0,0-16.12,0A26.24,26.24,0,0,1,230.1,157v-8.67a18,18,0,0,0,8.06-1.66,29.11,29.11,0,0,1,22.68,0,20.4,20.4,0,0,0,16.12,0,26.19,26.19,0,0,1,11.33-2.3V153a17.81,17.81,0,0,0-8.05,1.66A26.27,26.27,0,0,1,268.9,157Z"/><path class="cls-3" d="M113.72,166.73v8.67a26.27,26.27,0,0,1-11.34-2.3,17.79,17.79,0,0,0-8.06-1.66,17.81,17.81,0,0,0-8,1.66,26.27,26.27,0,0,1-11.34,2.3,26.2,26.2,0,0,1-11.34-2.3,17.6,17.6,0,0,0-7.48-1.65,71.08,71.08,0,0,1-.57-8.68,26.22,26.22,0,0,1,11.33,2.3,18,18,0,0,0,8.06,1.66A18,18,0,0,0,83,165.07a26.19,26.19,0,0,1,11.33-2.3,26.2,26.2,0,0,1,11.34,2.3A18,18,0,0,0,113.72,166.73Z"/><path class="cls-3" d="M152.52,175.4a26.2,26.2,0,0,1-11.34-2.3,20.4,20.4,0,0,0-16.12,0,26.24,26.24,0,0,1-11.34,2.3v-8.67a17.82,17.82,0,0,0,8.06-1.66,29.11,29.11,0,0,1,22.68,0,20.37,20.37,0,0,0,16.11,0,26.27,26.27,0,0,1,11.34-2.3v8.67a17.86,17.86,0,0,0-8.06,1.66A26.19,26.19,0,0,1,152.52,175.4Z"/><path class="cls-3" d="M230.1,175.4a26.27,26.27,0,0,1-11.34-2.3,20.37,20.37,0,0,0-16.11,0,29.11,29.11,0,0,1-22.68,0,17.82,17.82,0,0,0-8.06-1.66v-8.67a26.24,26.24,0,0,1,11.34,2.3,20.4,20.4,0,0,0,16.12,0,29.11,29.11,0,0,1,22.68,0,17.78,17.78,0,0,0,8,1.66Z"/><path class="cls-3" d="M288.29,162.77a71.08,71.08,0,0,1-.57,8.68,17.53,17.53,0,0,0-7.48,1.65,29.11,29.11,0,0,1-22.68,0,20.37,20.37,0,0,0-16.11,0,26.33,26.33,0,0,1-11.35,2.3v-8.67a18,18,0,0,0,8.06-1.66,29.11,29.11,0,0,1,22.68,0,20.4,20.4,0,0,0,16.12,0A26.22,26.22,0,0,1,288.29,162.77Z"/><path class="cls-3" d="M113.72,185.72v8.67a26.27,26.27,0,0,1-11.34-2.3,17.93,17.93,0,0,0-8.06-1.66,17.94,17.94,0,0,0-8,1.66,26.27,26.27,0,0,1-11.34,2.3,26.2,26.2,0,0,1-11.34-2.3c-.61-.25-1.19-.49-1.79-.69a68.49,68.49,0,0,1-3.53-9.54,25.71,25.71,0,0,1,8.6,2.2,17.82,17.82,0,0,0,8.06,1.66A17.82,17.82,0,0,0,83,184.06a26.16,26.16,0,0,1,11.33-2.31,26.18,26.18,0,0,1,11.34,2.31A17.82,17.82,0,0,0,113.72,185.72Z"/><path class="cls-3" d="M152.52,194.39a26.2,26.2,0,0,1-11.34-2.3,20.4,20.4,0,0,0-16.12,0,26.24,26.24,0,0,1-11.34,2.3v-8.67a17.82,17.82,0,0,0,8.06-1.66,29.11,29.11,0,0,1,22.68,0,20.37,20.37,0,0,0,16.11,0,26.27,26.27,0,0,1,11.34-2.3v8.67a17.86,17.86,0,0,0-8.06,1.66A26.19,26.19,0,0,1,152.52,194.39Z"/><path class="cls-3" d="M230.1,194.39a26.27,26.27,0,0,1-11.34-2.3,20.37,20.37,0,0,0-16.11,0,29.11,29.11,0,0,1-22.68,0,17.82,17.82,0,0,0-8.06-1.66v-8.67a26.24,26.24,0,0,1,11.34,2.3,20.4,20.4,0,0,0,16.12,0,29.11,29.11,0,0,1,22.68,0,17.78,17.78,0,0,0,8,1.66Z"/><path class="cls-3" d="M285.56,181.86A68.53,68.53,0,0,1,282,191.4c-.6.2-1.17.44-1.78.69a29.11,29.11,0,0,1-22.68,0,20.37,20.37,0,0,0-16.11,0,26.33,26.33,0,0,1-11.35,2.3v-8.67a17.82,17.82,0,0,0,8.06-1.66,29,29,0,0,1,22.68,0,20.4,20.4,0,0,0,16.12,0A25.64,25.64,0,0,1,285.56,181.86Z"/><path class="cls-5" d="M173,120.19a57.09,57.09,0,0,1-12.41-1.39,60,60,0,0,1-18.92-7.64,3.74,3.74,0,0,1,4.17-6.21,54,54,0,0,0,16.45,6.57,50.31,50.31,0,0,0,10.89,1.23,45.19,45.19,0,0,0,25.26-7.81,3.74,3.74,0,1,1,4.12,6.24A52.73,52.73,0,0,1,173,120.19Z"/><path class="cls-4" d="M200.45,107a1.1,1.1,0,0,1,.61,2A50.25,50.25,0,0,1,173,117.55a54.51,54.51,0,0,1-11.83-1.32,57.49,57.49,0,0,1-18-7.26,1.1,1.1,0,0,1,.62-2,1.07,1.07,0,0,1,.61.19,56.37,56.37,0,0,0,17.35,6.95,53.13,53.13,0,0,0,11.46,1.29,47.63,47.63,0,0,0,26.71-8.25,1.14,1.14,0,0,1,.61-.18m0-5.28h0a6.38,6.38,0,0,0-3.52,1.06,42.56,42.56,0,0,1-23.8,7.37,47.56,47.56,0,0,1-10.32-1.17,51.65,51.65,0,0,1-15.57-6.19,6.38,6.38,0,0,0-7.09,10.61,62,62,0,0,0,19.82,8,59.78,59.78,0,0,0,13,1.45,55.36,55.36,0,0,0,31-9.45,6.38,6.38,0,0,0-3.52-11.7Z"/><circle class="cls-6" cx="112.89" cy="95.5" r="6.18"/><circle class="cls-6" cx="231.59" cy="95.5" r="6.18"/><path class="cls-7" d="M172.18,77.51a20.38,20.38,0,0,1-3.57,11.55A42.59,42.59,0,0,0,156,84.93a35.8,35.8,0,0,0-7.9-.34,34.51,34.51,0,0,0-13.63,3.87,20.45,20.45,0,1,1,37.73-10.95Z"/><path class="cls-5" d="M161.62,76.41A9.25,9.25,0,0,1,156,84.93a35.8,35.8,0,0,0-7.9-.34,9.24,9.24,0,1,1,13.54-8.18Z"/><path class="cls-7" d="M213.39,77.51a20.35,20.35,0,0,1-3.29,11.13,41.32,41.32,0,0,0-12.65-3.83,36,36,0,0,0-8-.14A34.47,34.47,0,0,0,176,88.93a20.46,20.46,0,1,1,37.43-11.42Z"/><path class="cls-5" d="M202.84,76.41a9.25,9.25,0,0,1-5.39,8.4,36,36,0,0,0-8-.14,9.24,9.24,0,1,1,13.38-8.26Z"/><path class="cls-5" d="M143.22,101.52H200.6a6.76,6.76,0,0,1,4.65,11.67c-5,4.64-14.73,8.91-33.34,8.91s-28.3-4.27-33.33-8.91A6.75,6.75,0,0,1,143.22,101.52Z"/><ellipse class="cls-8" cx="171.98" cy="117.95" rx="17.34" ry="5.73"/><path class="cls-6" d="M171.91,125.13c-16.49,0-28.4-3.27-35.38-9.72a9.63,9.63,0,0,1-2.44-10.66,9.75,9.75,0,0,1,9.13-6.25H200.6a9.76,9.76,0,0,1,9.14,6.25,9.65,9.65,0,0,1-2.44,10.66C200.32,121.86,188.41,125.13,171.91,125.13Zm-28.69-20.58a3.68,3.68,0,0,0-3.49,2.4,3.57,3.57,0,0,0,.9,4c4,3.7,12.69,8.12,31.28,8.12s27.28-4.42,31.28-8.12a3.57,3.57,0,0,0,.91-4,3.68,3.68,0,0,0-3.5-2.4Z"/><path class="cls-5" d="M172.49,112a5.06,5.06,0,0,0-4.4,5.15s4.13-4.94,8.53-4.94.82-4.85.82-4.85Z"/><path class="cls-4" d="M107.08,28.45c-1.76-5.55-6-16.09-14.08-20.53a3.36,3.36,0,0,1,.78-6.2c11-2.84,29.13-3.79,48.78,10.34a3.37,3.37,0,0,1-.66,5.85L111.58,30.55A3.36,3.36,0,0,1,107.08,28.45Z"/><rect class="cls-3" x="101.55" y="18.94" width="53.49" height="9.24" rx="4.62" transform="translate(0.59 50.15) rotate(-22.17)"/><circle class="cls-3" cx="89.27" cy="5.49" r="5.16"/></g></g></svg>