<svg xmlns="http://www.w3.org/2000/svg" viewBox="0 0 235.11 266.46"><defs><style>.cls-1{opacity:0.22;}.cls-2{fill:#2d4b87;}.cls-3{fill:#162c51;}.cls-4{fill:#1b3760;}.cls-5{fill:none;stroke:#162c51;stroke-miterlimit:10;stroke-width:8.68px;}.cls-6{fill:#426996;}.cls-7{fill:#10213a;}.cls-8{fill:#fff;}.cls-9{fill:#4e8cf9;}</style></defs><g id="Camada_2" data-name="Camada 2"><g id="Layer_1" data-name="Layer 1"><ellipse class="cls-1" cx="117.56" cy="255.98" rx="117.56" ry="10.49"/><circle class="cls-2" cx="16.69" cy="229.97" r="15.52"/><path class="cls-3" d="M32.21,232.84h-31V154.5c0-2.6,2.42-4.72,5.38-4.72l20.28,19.1c3,0,5.38,2.13,5.38,4.72Z"/><circle class="cls-2" cx="218.42" cy="231.62" r="15.52"/><path class="cls-3" d="M202.9,234.49h31V148.36a5.3,5.3,0,0,0-5.38-5.18l-20.28,21a5.3,5.3,0,0,0-5.38,5.18Z"/><path class="cls-2" d="M233.94,131.84c0,.73,0,1.45,0,2.18H1.2c0-.73,0-1.45,0-2.18a116.38,116.38,0,0,1,232.76,0Z"/><rect class="cls-2" x="54.33" y="200.35" width="31.04" height="59.1" rx="12.19"/><rect class="cls-2" x="152.39" y="200.35" width="31.04" height="59.1" rx="12.19"/><path class="cls-4" d="M233.94,134v29.19a69.86,69.86,0,0,1-56.78,68.61,70.94,70.94,0,0,1-13,1.21H71a71,71,0,0,1-13-1.21A69.84,69.84,0,0,1,1.18,163.21V134Z"/><path class="cls-5" d="M1.18,149.41c9.69,0,9.69,4,19.39,4s9.7-4,19.4-4,9.7,4,19.4,4"/><path class="cls-5" d="M59.37,153.38c9.69,0,9.69-4,19.39-4s9.7,4,19.4,4,9.7-4,19.4-4"/><path class="cls-5" d="M117.56,149.41c9.7,0,9.7,4,19.39,4s9.7-4,19.4-4,9.7,4,19.4,4"/><path class="cls-5" d="M175.75,153.38c9.7,0,9.7-4,19.4-4s9.69,4,19.39,4,9.7-4,19.4-4"/><path class="cls-5" d="M1.18,167.87c9.69,0,9.69,4,19.39,4s9.7-4,19.4-4,9.7,4,19.4,4"/><path class="cls-5" d="M59.37,171.83c9.69,0,9.69-4,19.39-4s9.7,4,19.4,4,9.7-4,19.4-4"/><path class="cls-5" d="M117.56,167.87c9.7,0,9.7,4,19.39,4s9.7-4,19.4-4,9.7,4,19.4,4"/><path class="cls-5" d="M175.75,171.83c9.7,0,9.7-4,19.4-4s9.69,4,19.39,4,9.7-4,19.4-4"/><path class="cls-5" d="M1.18,186.86c9.69,0,9.69,4,19.39,4s9.7-4,19.4-4,9.7,4,19.4,4"/><path class="cls-5" d="M59.37,190.82c9.69,0,9.69-4,19.39-4s9.7,4,19.4,4,9.7-4,19.4-4"/><path class="cls-5" d="M117.56,186.86c9.7,0,9.7,4,19.39,4s9.7-4,19.4-4,9.7,4,19.4,4"/><path class="cls-5" d="M175.75,190.82c9.7,0,9.7-4,19.4-4s9.69,4,19.39,4,9.7-4,19.4-4"/><circle class="cls-6" cx="58.53" cy="96.26" r="6.18"/><circle class="cls-6" cx="177.24" cy="96.26" r="6.18"/><path class="cls-7" d="M117.09,104.92a57,57,0,0,1,12.41,1.39A60,60,0,0,1,148.42,114a3.74,3.74,0,0,1-4.16,6.21,54.29,54.29,0,0,0-16.46-6.57,50.31,50.31,0,0,0-10.89-1.23,45.16,45.16,0,0,0-25.25,7.81,3.81,3.81,0,0,1-2.07.62,3.74,3.74,0,0,1-2.06-6.86A52.83,52.83,0,0,1,117.09,104.92Z"/><path class="cls-6" d="M89.59,118.15a1.09,1.09,0,0,1-.91-.49,1.1,1.1,0,0,1,.31-1.53,50.22,50.22,0,0,1,28.1-8.57,54.53,54.53,0,0,1,11.84,1.32,57.36,57.36,0,0,1,18,7.26,1.1,1.1,0,0,1-.62,2,1.07,1.07,0,0,1-.61-.19A56.23,56.23,0,0,0,128.37,111a53.13,53.13,0,0,0-11.46-1.29A47.66,47.66,0,0,0,90.2,118a1.14,1.14,0,0,1-.61.18m0,5.28h0a6.36,6.36,0,0,0,3.52-1.06,42.56,42.56,0,0,1,23.8-7.37,47.56,47.56,0,0,1,10.32,1.17,51.93,51.93,0,0,1,15.58,6.19,6.37,6.37,0,0,0,7.08-10.6,61.85,61.85,0,0,0-19.82-8,59.76,59.76,0,0,0-13-1.44,55.35,55.35,0,0,0-31,9.44,6.38,6.38,0,0,0,3.52,11.7Z"/><path class="cls-8" d="M118,78.44a20.45,20.45,0,0,1-40.42,4.43A47.21,47.21,0,0,0,89,78.56a44.52,44.52,0,0,0,12.41-9.86,45.93,45.93,0,0,0,5.79-8.26A20.44,20.44,0,0,1,118,78.44Z"/><path class="cls-7" d="M107.41,77.34A9.24,9.24,0,0,1,89,78.56a44.52,44.52,0,0,0,12.41-9.86A9.25,9.25,0,0,1,107.41,77.34Z"/><path class="cls-8" d="M148.21,80.05a44.62,44.62,0,0,1-14.34-10.12,46.1,46.1,0,0,1-6.39-8.57,20.43,20.43,0,0,0-4.82,29.75h0a20.47,20.47,0,0,0,35.94-7.82A49.12,49.12,0,0,1,148.21,80.05Z"/><path class="cls-7" d="M148.21,80.05a9.24,9.24,0,1,1-14.34-10.12A44.62,44.62,0,0,0,148.21,80.05Z"/><circle class="cls-8" cx="138.27" cy="81.87" r="2.42"/><circle class="cls-8" cx="100.14" cy="81.87" r="2.42"/><path class="cls-9" d="M153.44,92.64a19.91,19.91,0,0,1-3.51,2.9A17.41,17.41,0,0,1,147.26,97a20.17,20.17,0,0,1-8.54,1.87,20.43,20.43,0,0,1-16.06-7.78A38,38,0,0,0,148,94.34c.4-.09.8-.2,1.2-.31A36,36,0,0,0,153.44,92.64Z"/><path class="cls-9" d="M113.31,91.42a20.45,20.45,0,0,1-30.76,1A37.43,37.43,0,0,0,113.31,91.42Z"/><path class="cls-9" d="M149.77,105.48c-3.64-.36-3.34-4.9-2.51-8.46.23-1,.51-2,.75-2.68.4-.09.8-.2,1.2-.31.21.43.46.94.72,1.51C151.69,99.41,154,105.91,149.77,105.48Z"/><circle class="cls-8" cx="150.38" cy="102.45" r="1.21"/><path class="cls-4" d="M50.56,28.45c-1.76-5.55-6-16.09-14.08-20.53a3.36,3.36,0,0,1,.78-6.2C48.3-1.12,66.39-2.07,86,12.06a3.37,3.37,0,0,1-.66,5.85L55.07,30.55A3.37,3.37,0,0,1,50.56,28.45Z"/><rect class="cls-3" x="45.03" y="18.94" width="53.49" height="9.24" rx="4.62" transform="translate(-3.59 28.82) rotate(-22.17)"/><circle class="cls-3" cx="32.76" cy="5.49" r="5.16"/></g></g></svg>